# Rhino

g object_1
v 95.712501525878906 0 -7.8596358299255371
v 95.712501525878906 0 -11.767711639404297
v 102.08750152587891 0 -23.491939544677734
v 102.08750152587891 0 -27.400014877319336
v 108.46250152587891 0 -23.491939544677734
v 114.83750152587891 0 -23.491939544677734
v 114.83750152587891 0 -27.400014877319336
v 121.21250152587891 0 -23.491939544677734
v 121.21250152587891 0 -27.400014877319336
v 140.33749389648438 0 -23.491939544677734
v 146.71249389648438 0 -23.491939544677734
v 146.71249389648438 0 -27.400014877319336
v 153.08749389648438 0 -23.491939544677734
v 153.08749389648438 0 -27.400014877319336
v 159.46249389648438 0 -23.491939544677734
v 159.46249389648438 0 -27.400014877319336
v 165.83749389648438 0 -23.491939544677734
v 165.83749389648438 0 -27.400014877319336
v 161.5 0 -31.001575469970703
v 161.5 0 -26.898777008056641
v 161.5 0 -22.795976638793945
v 161.14999389648438 0 -22.795976638793945
v 162.64999389648438 0 -23.491939544677734
v 162.64999389648438 0 -22.514919281005859
v 165.83749389648438 0 -25.445976257324219
v 162.64999389648438 0 -27.400014877319336
v 159.46249389648438 0 -25.445976257324219
v 162.64999389648438 0 -25.445976257324219
v 156.27499389648438 0 -23.491939544677734
v 162.64999389648438 0 -23.003429412841797
v 161.85311889648438 0 -23.491939544677734
v 161.85311889648438 0 -23.003429412841797
v 164.24374389648438 0 -23.491939544677734
v 164.24374389648438 0 -22.514919281005859
v 169.02499389648438 0 -23.491939544677734
v 162.64999389648438 0 -24.468957901000977
v 159.46249389648438 0 -24.468957901000977
v 153.08749389648438 0 -25.445976257324219
v 156.27499389648438 0 -25.445976257324219
v 161.14999389648438 0 -26.723775863647461
v 159.80000305175781 0 -26.723775863647461
v 159.80000305175781 0 -26.923776626586914
v 162.64999389648438 0 -26.422996520996094
v 161.05624389648438 0 -27.400014877319336
v 159.46249389648438 0 -26.422996520996094
v 165.83749389648438 0 -29.354053497314453
v 162.64999389648438 0 -29.354053497314453
v 160.25936889648438 0 -27.400014877319336
v 160.25936889648438 0 -26.422996520996094
v 162.64999389648438 0 -28.377033233642578
v 156.27499389648438 0 -29.354053497314453
v 157.86874389648438 0 -27.400014877319336
v 156.27499389648438 0 -26.422996520996094
v 157.86874389648438 0 -25.445976257324219
v 157.86874389648438 0 -26.422996520996094
v 160.25936889648438 0 -26.66724967956543
v 159.46249389648438 0 -26.66724967956543
v 159.86093139648438 0 -26.422996520996094
v 157.86874389648438 0 -26.911504745483398
v 158.66561889648438 0 -26.422996520996094
v 157.86874389648438 0 -29.354053497314453
v 156.27499389648438 0 -28.377033233642578
v 157.86874389648438 0 -28.377033233642578
v 159.46249389648438 0 -25.934486389160156
v 160.25936889648438 0 -25.445976257324219
v 160.25936889648438 0 -25.934486389160156
v 160.25936889648438 0 -27.155759811401367
v 159.86093139648438 0 -27.400014877319336
v 159.46249389648438 0 -27.155759811401367
v 159.86093139648438 0 -27.155759811401367
v 161.05624389648438 0 -27.888525009155273
v 159.46249389648438 0 -27.888525009155273
v 161.14999389648438 0 -26.923776626586914
v 161.14999389648438 0 -29.251575469970703
v 160.35000610351562 0 -29.251575469970703
v 160.35000610351562 0 -27.651575088500977
v 160.14999389648438 0 -27.651575088500977
v 161.05624389648438 0 -27.644269943237305
v 160.65780639648438 0 -27.888525009155273
v 160.65780639648438 0 -27.400014877319336
v 160.65780639648438 0 -27.644269943237305
v 162.64999389648438 0 -27.888525009155273
v 161.85311889648438 0 -28.377033233642578
v 161.85311889648438 0 -27.400014877319336
v 161.85311889648438 0 -27.888525009155273
v 165.83749389648438 0 -28.377033233642578
v 164.24374389648438 0 -29.354053497314453
v 164.24374389648438 0 -27.400014877319336
v 164.24374389648438 0 -28.377033233642578
v 169.02499389648438 0 -27.400014877319336
v 169.02499389648438 0 -29.354053497314453
v 159.86093139648438 0 -27.888525009155273
v 159.46249389648438 0 -27.644269943237305
v 159.86093139648438 0 -27.644269943237305
v 160.14999389648438 0 -29.451574325561523
v 161.14999389648438 0 -29.451574325561523
v 161.14999389648438 0 -30.151575088500977
v 160.14999389648438 0 -30.151575088500977
v 160.14999389648438 0 -30.351573944091797
v 160.25936889648438 0 -29.842561721801758
v 156.27499389648438 0 -30.331071853637695
v 157.86874389648438 0 -30.331071853637695
v 160.25936889648438 0 -30.086816787719727
v 159.86093139648438 0 -29.842561721801758
v 159.86093139648438 0 -30.086816787719727
v 159.46249389648438 0 -30.819581985473633
v 160.25936889648438 0 -30.819581985473633
v 158.66561889648438 0 -30.331071853637695
v 157.86874389648438 0 -29.842561721801758
v 160.25936889648438 0 -30.575326919555664
v 159.86093139648438 0 -30.819581985473633
v 159.46249389648438 0 -30.575326919555664
v 159.86093139648438 0 -30.575326919555664
v 158.66561889648438 0 -30.819581985473633
v 161.14999389648438 0 -30.351573944091797
v 161.14999389648438 0 -31.001575469970703
v 158.60000610351562 0 -31.001575469970703
v 158.60000610351562 0 -29.451574325561523
v 159.35000610351562 0 -29.451574325561523
v 159.35000610351562 0 -30.351573944091797
v 159.55000305175781 0 -30.351573944091797
v 159.06405639648438 0 -30.819581985473633
v 158.66561889648438 0 -30.575326919555664
v 159.06405639648438 0 -30.331071853637695
v 159.06405639648438 0 -30.575326919555664
v 159.55000305175781 0 -29.451574325561523
v 159.55000305175781 0 -29.251575469970703
v 160.25936889648438 0 -29.598306655883789
v 159.86093139648438 0 -29.598306655883789
v 159.46249389648438 0 -28.865543365478516
v 159.46249389648438 0 -29.109798431396484
v 159.86093139648438 0 -28.865543365478516
v 159.86093139648438 0 -29.109798431396484
v 157.86874389648438 0 -28.865543365478516
v 158.60000610351562 0 -29.251575469970703
v 158.60000610351562 0 -27.501575469970703
v 156.44999694824219 0 -27.501575469970703
v 156.44999694824219 0 -26.901575088500977
v 156.25 0 -26.901575088500977
v 157.07186889648438 0 -27.400014877319336
v 157.07186889648438 0 -26.422996520996094
v 157.07186889648438 0 -26.911504745483398
v 153.08749389648438 0 -26.422996520996094
v 146.71249389648438 0 -25.445976257324219
v 149.89999389648438 0 -23.491939544677734
v 149.89999389648438 0 -25.445976257324219
v 157.07186889648438 0 -26.66724967956543
v 156.67343139648438 0 -26.911504745483398
v 156.27499389648438 0 -26.66724967956543
v 156.67343139648438 0 -26.422996520996094
v 156.67343139648438 0 -26.66724967956543
v 155.47811889648438 0 -26.422996520996094
v 155.47811889648438 0 -26.911504745483398
v 153.08749389648438 0 -28.377033233642578
v 149.89999389648438 0 -29.354053497314453
v 157.86874389648438 0 -25.934486389160156
v 156.27499389648438 0 -25.934486389160156
v 157.07186889648438 0 -25.445976257324219
v 157.07186889648438 0 -25.934486389160156
v 156.27499389648438 0 -24.468957901000977
v 157.86874389648438 0 -23.491939544677734
v 157.86874389648438 0 -24.468957901000977
v 155.87655639648438 0 -26.911504745483398
v 155.47811889648438 0 -26.66724967956543
v 155.87655639648438 0 -26.422996520996094
v 155.87655639648438 0 -26.66724967956543
v 155.47811889648438 0 -25.445976257324219
v 155.47811889648438 0 -25.934486389160156
v 153.08749389648438 0 -24.468957901000977
v 156.25 0 -27.501575469970703
v 154.69999694824219 0 -27.501575469970703
v 154.69999694824219 0 -22.795976638793945
v 154.35000610351562 0 -22.795976638793945
v 156.27499389648438 0 -22.514919281005859
v 153.08749389648438 0 -22.514919281005859
v 156.27499389648438 0 -23.003429412841797
v 155.47811889648438 0 -23.491939544677734
v 155.47811889648438 0 -23.003429412841797
v 157.86874389648438 0 -22.514919281005859
v 153.88436889648438 0 -23.491939544677734
v 153.08749389648438 0 -23.003429412841797
v 153.88436889648438 0 -22.514919281005859
v 153.88436889648438 0 -23.003429412841797
v 149.89999389648438 0 -22.514919281005859
v 154.35000610351562 0 -26.723775863647461
v 153 0 -26.723775863647461
v 153 0 -26.923776626586914
v 151.49374389648438 0 -27.400014877319336
v 149.89999389648438 0 -26.422996520996094
v 151.49374389648438 0 -26.422996520996094
v 152.29061889648438 0 -27.400014877319336
v 151.49374389648438 0 -26.911504745483398
v 149.89999389648438 0 -28.377033233642578
v 152.68905639648438 0 -26.422996520996094
v 152.68905639648438 0 -26.66724967956543
v 149.89999389648438 0 -24.468957901000977
v 153.08749389648438 0 -27.155759811401367
v 152.68905639648438 0 -27.400014877319336
v 152.29061889648438 0 -27.155759811401367
v 152.68905639648438 0 -27.155759811401367
v 153.08749389648438 0 -27.888525009155273
v 152.29061889648438 0 -28.377033233642578
v 152.29061889648438 0 -27.888525009155273
v 154.35000610351562 0 -26.923776626586914
v 154.35000610351562 0 -29.251575469970703
v 153.55000305175781 0 -29.251575469970703
v 153.55000305175781 0 -27.651575088500977
v 153.35000610351562 0 -27.651575088500977
v 153.08749389648438 0 -27.644269943237305
v 153.35000610351562 0 -29.451574325561523
v 154.35000610351562 0 -29.451574325561523
v 154.35000610351562 0 -30.151575088500977
v 153.35000610351562 0 -30.151575088500977
v 153.35000610351562 0 -30.351573944091797
v 153.08749389648438 0 -29.842561721801758
v 153.88436889648438 0 -29.842561721801758
v 149.89999389648438 0 -30.331071853637695
v 153.88436889648438 0 -30.086816787719727
v 153.08749389648438 0 -30.086816787719727
v 153.48593139648438 0 -29.842561721801758
v 153.48593139648438 0 -30.086816787719727
v 153.08749389648438 0 -30.819581985473633
v 153.88436889648438 0 -30.819581985473633
v 153.88436889648438 0 -30.575326919555664
v 153.48593139648438 0 -30.819581985473633
v 153.08749389648438 0 -30.575326919555664
v 153.48593139648438 0 -30.575326919555664
v 152.29061889648438 0 -30.819581985473633
v 154.35000610351562 0 -30.351573944091797
v 154.35000610351562 0 -30.701574325561523
v 154.69999694824219 0 -30.701574325561523
v 156.27499389648438 0 -30.819581985473633
v 155.47811889648438 0 -30.331071853637695
v 155.47811889648438 0 -30.819581985473633
v 154.69999694824219 0 -27.701574325561523
v 158.39999389648438 0 -27.701574325561523
v 158.39999389648438 0 -31.001575469970703
v 155.10000610351562 0 -31.001575469970703
v 151.80000305175781 0 -31.001575469970703
v 151.80000305175781 0 -29.451574325561523
v 152.55000305175781 0 -29.451574325561523
v 152.55000305175781 0 -30.351573944091797
v 152.75 0 -30.351573944091797
v 152.68905639648438 0 -30.819581985473633
v 152.29061889648438 0 -30.575326919555664
v 152.68905639648438 0 -30.575326919555664
v 152.75 0 -29.451574325561523
v 152.75 0 -29.251575469970703
v 153.08749389648438 0 -28.865543365478516
v 152.29061889648438 0 -28.865543365478516
v 153.08749389648438 0 -29.109798431396484
v 152.29061889648438 0 -29.109798431396484
v 152.68905639648438 0 -28.865543365478516
v 152.68905639648438 0 -29.109798431396484
v 151.80000305175781 0 -29.251575469970703
v 151.80000305175781 0 -27.501575469970703
v 149.64999389648438 0 -27.501575469970703
v 149.64999389648438 0 -26.901575088500977
v 148.30624389648438 0 -29.354053497314453
v 148.30624389648438 0 -27.400014877319336
v 148.30624389648438 0 -28.377033233642578
v 143.52499389648438 0 -27.400014877319336
v 143.52499389648438 0 -29.354053497314453
v 146.71249389648438 0 -26.422996520996094
v 148.30624389648438 0 -25.445976257324219
v 148.30624389648438 0 -26.422996520996094
v 140.33749389648438 0 -25.445976257324219
v 143.52499389648438 0 -23.491939544677734
v 143.52499389648438 0 -25.445976257324219
v 149.44999694824219 0 -26.901575088500977
v 149.89999389648438 0 -26.911504745483398
v 148.30624389648438 0 -26.911504745483398
v 149.10311889648438 0 -26.422996520996094
v 149.10311889648438 0 -26.911504745483398
v 149.89999389648438 0 -26.66724967956543
v 149.10311889648438 0 -26.66724967956543
v 149.50155639648438 0 -26.422996520996094
v 149.50155639648438 0 -26.66724967956543
v 149.89999389648438 0 -25.934486389160156
v 148.30624389648438 0 -25.934486389160156
v 149.10311889648438 0 -25.445976257324219
v 149.10311889648438 0 -25.934486389160156
v 146.71249389648438 0 -24.468957901000977
v 148.30624389648438 0 -23.491939544677734
v 148.30624389648438 0 -24.468957901000977
v 150.69686889648438 0 -27.400014877319336
v 150.69686889648438 0 -26.422996520996094
v 150.69686889648438 0 -26.911504745483398
v 149.44999694824219 0 -27.501575469970703
v 147.89999389648438 0 -27.501575469970703
v 147.89999389648438 0 -22.795976638793945
v 147.55000305175781 0 -22.795976638793945
v 145.11874389648438 0 -23.491939544677734
v 143.52499389648438 0 -22.514919281005859
v 147.55000305175781 0 -26.723775863647461
v 146.19999694824219 0 -26.723775863647461
v 146.19999694824219 0 -26.923776626586914
v 143.52499389648438 0 -26.422996520996094
v 145.11874389648438 0 -26.422996520996094
v 145.91561889648438 0 -27.400014877319336
v 145.91561889648438 0 -26.422996520996094
v 143.52499389648438 0 -28.377033233642578
v 145.11874389648438 0 -28.377033233642578
v 146.71249389648438 0 -26.66724967956543
v 146.31405639648438 0 -26.422996520996094
v 146.31405639648438 0 -26.66724967956543
v 146.71249389648438 0 -25.934486389160156
v 145.11874389648438 0 -25.934486389160156
v 145.91561889648438 0 -25.445976257324219
v 145.91561889648438 0 -25.934486389160156
v 143.52499389648438 0 -24.468957901000977
v 146.71249389648438 0 -27.155759811401367
v 146.31405639648438 0 -27.400014877319336
v 145.91561889648438 0 -27.155759811401367
v 146.31405639648438 0 -27.155759811401367
v 145.91561889648438 0 -28.377033233642578
v 145.11874389648438 0 -27.888525009155273
v 145.91561889648438 0 -27.888525009155273
v 147.55000305175781 0 -26.923776626586914
v 147.55000305175781 0 -29.251575469970703
v 146.75 0 -29.251575469970703
v 146.75 0 -27.651575088500977
v 146.55000305175781 0 -27.651575088500977
v 146.31405639648438 0 -27.888525009155273
v 145.91561889648438 0 -27.644269943237305
v 146.31405639648438 0 -27.644269943237305
v 146.55000305175781 0 -29.451574325561523
v 147.55000305175781 0 -29.451574325561523
v 147.55000305175781 0 -30.151575088500977
v 148.30624389648438 0 -30.331071853637695
v 146.55000305175781 0 -30.151575088500977
v 146.55000305175781 0 -30.351573944091797
v 143.52499389648438 0 -30.331071853637695
v 145.11874389648438 0 -30.331071853637695
v 146.71249389648438 0 -29.842561721801758
v 146.71249389648438 0 -30.086816787719727
v 146.31405639648438 0 -29.842561721801758
v 146.31405639648438 0 -30.086816787719727
v 148.30624389648438 0 -29.842561721801758
v 146.71249389648438 0 -30.819581985473633
v 145.11874389648438 0 -30.819581985473633
v 145.91561889648438 0 -30.819581985473633
v 146.71249389648438 0 -30.575326919555664
v 146.31405639648438 0 -30.819581985473633
v 145.91561889648438 0 -30.575326919555664
v 146.31405639648438 0 -30.575326919555664
v 147.55000305175781 0 -30.351573944091797
v 147.55000305175781 0 -30.701574325561523
v 147.89999389648438 0 -30.701574325561523
v 147.89999389648438 0 -27.701574325561523
v 151.60000610351562 0 -27.701574325561523
v 151.60000610351562 0 -31.001575469970703
v 148.30000305175781 0 -31.001575469970703
v 145 0 -31.001575469970703
v 145 0 -29.451574325561523
v 145.75 0 -29.451574325561523
v 145.75 0 -30.351573944091797
v 145.94999694824219 0 -30.351573944091797
v 145.51718139648438 0 -30.819581985473633
v 145.11874389648438 0 -30.575326919555664
v 145.51718139648438 0 -30.331071853637695
v 145.51718139648438 0 -30.575326919555664
v 143.52499389648438 0 -30.819581985473633
v 144.32186889648438 0 -30.331071853637695
v 144.32186889648438 0 -30.819581985473633
v 141.93124389648438 0 -29.354053497314453
v 141.93124389648438 0 -30.331071853637695
v 137.14999389648438 0 -27.400014877319336
v 137.14999389648438 0 -29.354053497314453
v 145.94999694824219 0 -29.451574325561523
v 145.94999694824219 0 -29.251575469970703
v 146.71249389648438 0 -29.598306655883789
v 146.31405639648438 0 -29.598306655883789
v 145.11874389648438 0 -28.865543365478516
v 145.91561889648438 0 -28.865543365478516
v 145.91561889648438 0 -29.109798431396484
v 146.31405639648438 0 -28.865543365478516
v 146.31405639648438 0 -29.109798431396484
v 148.30624389648438 0 -28.865543365478516
v 145 0 -29.251575469970703
v 145 0 -27.501575469970703
v 142.85000610351562 0 -27.501575469970703
v 142.85000610351562 0 -26.901575088500977
v 141.93124389648438 0 -28.377033233642578
v 140.33749389648438 0 -26.422996520996094
v 141.93124389648438 0 -25.445976257324219
v 141.93124389648438 0 -26.422996520996094
v 137.14999389648438 0 -23.491939544677734
v 137.14999389648438 0 -25.445976257324219
v 142.64999389648438 0 -26.901575088500977
v 143.52499389648438 0 -26.911504745483398
v 141.93124389648438 0 -26.911504745483398
v 142.72811889648438 0 -26.422996520996094
v 143.52499389648438 0 -26.66724967956543
v 143.12655639648438 0 -26.911504745483398
v 142.72811889648438 0 -26.66724967956543
v 143.12655639648438 0 -26.422996520996094
v 143.12655639648438 0 -26.66724967956543
v 143.52499389648438 0 -25.934486389160156
v 141.93124389648438 0 -25.934486389160156
v 142.72811889648438 0 -25.445976257324219
v 142.72811889648438 0 -25.934486389160156
v 140.33749389648438 0 -24.468957901000977
v 141.93124389648438 0 -23.491939544677734
v 141.93124389648438 0 -24.468957901000977
v 144.32186889648438 0 -27.400014877319336
v 144.32186889648438 0 -26.422996520996094
v 144.32186889648438 0 -26.911504745483398
v 142.32968139648438 0 -26.911504745483398
v 141.93124389648438 0 -26.66724967956543
v 142.32968139648438 0 -26.422996520996094
v 142.32968139648438 0 -26.66724967956543
v 138.74374389648438 0 -27.400014877319336
v 137.14999389648438 0 -26.422996520996094
v 142.64999389648438 0 -27.501575469970703
v 141.10000610351562 0 -27.501575469970703
v 141.10000610351562 0 -22.795976638793945
v 140.75 0 -22.795976638793945
v 140.33749389648438 0 -22.514919281005859
v 141.93124389648438 0 -22.514919281005859
v 141.93124389648438 0 -23.003429412841797
v 140.33749389648438 0 -23.003429412841797
v 138.74374389648438 0 -23.491939544677734
v 137.14999389648438 0 -22.514919281005859
v 138.74374389648438 0 -22.514919281005859
v 140.75 0 -26.723775863647461
v 139.39999389648438 0 -26.723775863647461
v 139.39999389648438 0 -26.923776626586914
v 139.54061889648438 0 -27.400014877319336
v 139.54061889648438 0 -26.422996520996094
v 137.14999389648438 0 -28.377033233642578
v 138.74374389648438 0 -28.377033233642578
v 137.94686889648438 0 -27.400014877319336
v 137.14999389648438 0 -26.911504745483398
v 137.94686889648438 0 -26.422996520996094
v 135.55624389648438 0 -25.445976257324219
v 135.55624389648438 0 -26.422996520996094
v 130.77499389648438 0 -27.400014877319336
v 130.77499389648438 0 -23.491939544677734
v 130.77499389648438 0 -25.445976257324219
v 140.33749389648438 0 -25.934486389160156
v 139.54061889648438 0 -25.445976257324219
v 139.54061889648438 0 -25.934486389160156
v 137.14999389648438 0 -24.468957901000977
v 139.54061889648438 0 -27.155759811401367
v 139.14218139648438 0 -27.400014877319336
v 138.74374389648438 0 -27.155759811401367
v 139.14218139648438 0 -27.155759811401367
v 139.54061889648438 0 -28.377033233642578
v 138.74374389648438 0 -27.888525009155273
v 139.54061889648438 0 -27.888525009155273
v 140.75 0 -26.923776626586914
v 140.75 0 -29.251575469970703
v 139.94999694824219 0 -29.251575469970703
v 139.94999694824219 0 -27.651575088500977
v 139.75 0 -27.651575088500977
v 139.54061889648438 0 -27.644269943237305
v 139.75 0 -29.451574325561523
v 140.75 0 -29.451574325561523
v 140.75 0 -30.151575088500977
v 139.75 0 -30.151575088500977
v 139.75 0 -30.351573944091797
v 137.14999389648438 0 -30.331071853637695
v 140.33749389648438 0 -29.842561721801758
v 139.54061889648438 0 -29.842561721801758
v 140.33749389648438 0 -30.086816787719727
v 139.54061889648438 0 -30.086816787719727
v 139.93905639648438 0 -29.842561721801758
v 139.93905639648438 0 -30.086816787719727
v 141.93124389648438 0 -29.842561721801758
v 140.33749389648438 0 -30.819581985473633
v 138.74374389648438 0 -30.819581985473633
v 139.54061889648438 0 -30.819581985473633
v 140.33749389648438 0 -30.575326919555664
v 139.93905639648438 0 -30.819581985473633
v 139.54061889648438 0 -30.575326919555664
v 139.93905639648438 0 -30.575326919555664
v 140.75 0 -30.351573944091797
v 140.75 0 -30.701574325561523
v 141.10000610351562 0 -30.701574325561523
v 141.10000610351562 0 -27.701574325561523
v 144.80000305175781 0 -27.701574325561523
v 144.80000305175781 0 -31.001575469970703
v 141.5 0 -31.001575469970703
v 138.19999694824219 0 -31.001575469970703
v 138.19999694824219 0 -29.451574325561523
v 138.94999694824219 0 -29.451574325561523
v 138.94999694824219 0 -30.351573944091797
v 139.14999389648438 0 -30.351573944091797
v 139.14218139648438 0 -30.819581985473633
v 138.74374389648438 0 -30.575326919555664
v 139.14218139648438 0 -30.575326919555664
v 135.55624389648438 0 -29.354053497314453
v 135.55624389648438 0 -30.331071853637695
v 130.77499389648438 0 -29.354053497314453
v 139.14999389648438 0 -29.451574325561523
v 139.14999389648438 0 -29.251575469970703
v 137.14999389648438 0 -29.842561721801758
v 138.74374389648438 0 -28.865543365478516
v 139.54061889648438 0 -28.865543365478516
v 139.54061889648438 0 -29.109798431396484
v 138.74374389648438 0 -29.109798431396484
v 139.14218139648438 0 -28.865543365478516
v 139.14218139648438 0 -29.109798431396484
v 137.14999389648438 0 -28.865543365478516
v 135.55624389648438 0 -28.377033233642578
v 138.19999694824219 0 -29.251575469970703
v 138.19999694824219 0 -27.501575469970703
v 136.05000305175781 0 -27.501575469970703
v 136.05000305175781 0 -26.901575088500977
v 135.85000610351562 0 -26.901575088500977
v 135.55624389648438 0 -26.911504745483398
v 136.35311889648438 0 -26.422996520996094
v 136.35311889648438 0 -26.911504745483398
v 136.35311889648438 0 -26.66724967956543
v 135.55624389648438 0 -26.66724967956543
v 135.95468139648438 0 -26.422996520996094
v 135.95468139648438 0 -26.66724967956543
v 134.75936889648438 0 -27.400014877319336
v 134.75936889648438 0 -26.422996520996094
v 134.75936889648438 0 -26.911504745483398
v 132.36874389648438 0 -27.400014877319336
v 130.77499389648438 0 -26.422996520996094
v 132.36874389648438 0 -25.445976257324219
v 132.36874389648438 0 -26.422996520996094
v 137.14999389648438 0 -25.934486389160156
v 135.55624389648438 0 -25.934486389160156
v 136.35311889648438 0 -25.445976257324219
v 136.35311889648438 0 -25.934486389160156
v 135.55624389648438 0 -23.491939544677734
v 135.55624389648438 0 -24.468957901000977
v 135.85000610351562 0 -27.501575469970703
v 134.30000305175781 0 -27.501575469970703
v 134.30000305175781 0 -22.795976638793945
v 133.94999694824219 0 -22.795976638793945
v 135.55624389648438 0 -22.514919281005859
v 135.55624389648438 0 -23.003429412841797
v 134.75936889648438 0 -23.491939544677734
v 134.75936889648438 0 -23.003429412841797
v 132.36874389648438 0 -23.491939544677734
v 130.77499389648438 0 -22.514919281005859
v 132.36874389648438 0 -22.514919281005859
v 133.16561889648438 0 -23.491939544677734
v 132.36874389648438 0 -23.003429412841797
v 133.16561889648438 0 -22.514919281005859
v 133.16561889648438 0 -23.003429412841797
v 130.77499389648438 0 -24.468957901000977
v 132.36874389648438 0 -24.468957901000977
v 133.94999694824219 0 -26.723775863647461
v 132.60000610351562 0 -26.723775863647461
v 132.60000610351562 0 -26.923776626586914
v 133.16561889648438 0 -27.400014877319336
v 133.16561889648438 0 -26.422996520996094
v 130.77499389648438 0 -28.377033233642578
v 132.36874389648438 0 -28.377033233642578
v 133.16561889648438 0 -26.66724967956543
v 132.76718139648438 0 -26.422996520996094
v 132.76718139648438 0 -26.66724967956543
v 130.77499389648438 0 -26.911504745483398
v 131.57186889648438 0 -26.422996520996094
v 129.18124389648438 0 -25.445976257324219
v 129.18124389648438 0 -26.422996520996094
v 124.40000152587891 0 -27.400014877319336
v 121.21250152587891 0 -25.445976257324219
v 132.36874389648438 0 -25.934486389160156
v 133.16561889648438 0 -25.445976257324219
v 133.16561889648438 0 -25.934486389160156
v 133.16561889648438 0 -27.155759811401367
v 132.76718139648438 0 -27.400014877319336
v 132.36874389648438 0 -27.155759811401367
v 132.76718139648438 0 -27.155759811401367
v 132.36874389648438 0 -27.888525009155273
v 133.94999694824219 0 -26.923776626586914
v 133.94999694824219 0 -29.251575469970703
v 133.14999389648438 0 -29.251575469970703
v 133.14999389648438 0 -27.651575088500977
v 132.94999694824219 0 -27.651575088500977
v 132.76718139648438 0 -27.888525009155273
v 132.36874389648438 0 -27.644269943237305
v 132.76718139648438 0 -27.644269943237305
v 131.57186889648438 0 -28.377033233642578
v 131.57186889648438 0 -27.888525009155273
v 129.18124389648438 0 -29.354053497314453
v 129.18124389648438 0 -28.377033233642578
v 121.21250152587891 0 -29.354053497314453
v 132.94999694824219 0 -29.451574325561523
v 133.94999694824219 0 -29.451574325561523
v 133.94999694824219 0 -30.151575088500977
v 130.77499389648438 0 -30.331071853637695
v 132.94999694824219 0 -30.151575088500977
v 132.94999694824219 0 -30.351573944091797
v 133.16561889648438 0 -29.842561721801758
v 133.16561889648438 0 -30.086816787719727
v 132.76718139648438 0 -29.842561721801758
v 132.76718139648438 0 -30.086816787719727
v 132.36874389648438 0 -30.819581985473633
v 133.16561889648438 0 -30.819581985473633
v 131.57186889648438 0 -30.331071853637695
v 130.77499389648438 0 -29.842561721801758
v 131.57186889648438 0 -29.842561721801758
v 129.18124389648438 0 -30.331071853637695
v 133.16561889648438 0 -30.575326919555664
v 132.76718139648438 0 -30.819581985473633
v 132.36874389648438 0 -30.575326919555664
v 132.76718139648438 0 -30.575326919555664
v 131.57186889648438 0 -30.819581985473633
v 133.94999694824219 0 -30.351573944091797
v 133.94999694824219 0 -30.701574325561523
v 134.30000305175781 0 -30.701574325561523
v 135.55624389648438 0 -30.819581985473633
v 134.75936889648438 0 -30.331071853637695
v 134.75936889648438 0 -30.819581985473633
v 134.30000305175781 0 -27.701574325561523
v 138 0 -27.701574325561523
v 138 0 -31.001575469970703
v 134.69999694824219 0 -31.001575469970703
v 131.39999389648438 0 -31.001575469970703
v 131.39999389648438 0 -29.451574325561523
v 132.14999389648438 0 -29.451574325561523
v 132.14999389648438 0 -30.351573944091797
v 132.35000610351562 0 -30.351573944091797
v 131.97030639648438 0 -30.819581985473633
v 131.57186889648438 0 -30.575326919555664
v 131.97030639648438 0 -30.331071853637695
v 131.97030639648438 0 -30.575326919555664
v 132.35000610351562 0 -29.451574325561523
v 132.35000610351562 0 -29.251575469970703
v 131.97030639648438 0 -29.842561721801758
v 131.57186889648438 0 -29.598306655883789
v 131.97030639648438 0 -29.598306655883789
v 132.36874389648438 0 -28.865543365478516
v 130.77499389648438 0 -28.865543365478516
v 131.57186889648438 0 -28.865543365478516
v 132.36874389648438 0 -29.109798431396484
v 131.57186889648438 0 -29.109798431396484
v 131.97030639648438 0 -28.865543365478516
v 131.97030639648438 0 -29.109798431396484
v 131.39999389648438 0 -29.251575469970703
v 131.39999389648438 0 -27.501575469970703
v 129.25 0 -27.501575469970703
v 129.25 0 -26.901575088500977
v 129.05000305175781 0 -26.901575088500977
v 129.97811889648438 0 -27.400014877319336
v 129.97811889648438 0 -26.422996520996094
v 129.97811889648438 0 -26.911504745483398
v 129.97811889648438 0 -26.66724967956543
v 129.57968139648438 0 -26.911504745483398
v 129.18124389648438 0 -26.66724967956543
v 129.57968139648438 0 -26.422996520996094
v 129.57968139648438 0 -26.66724967956543
v 128.38436889648438 0 -26.422996520996094
v 128.38436889648438 0 -26.911504745483398
v 125.99375152587891 0 -27.400014877319336
v 124.40000152587891 0 -26.422996520996094
v 125.99375152587891 0 -25.445976257324219
v 130.77499389648438 0 -25.934486389160156
v 129.18124389648438 0 -25.934486389160156
v 129.97811889648438 0 -25.445976257324219
v 129.97811889648438 0 -25.934486389160156
v 129.18124389648438 0 -23.491939544677734
v 129.18124389648438 0 -24.468957901000977
v 128.78280639648438 0 -26.911504745483398
v 128.38436889648438 0 -26.66724967956543
v 128.78280639648438 0 -26.422996520996094
v 128.78280639648438 0 -26.66724967956543
v 128.38436889648438 0 -25.445976257324219
v 128.38436889648438 0 -25.934486389160156
v 129.05000305175781 0 -27.501575469970703
v 127.5 0 -27.501575469970703
v 127.5 0 -22.795976638793945
v 127.15000152587891 0 -22.795976638793945
v 125.99375152587891 0 -23.491939544677734
v 125.99375152587891 0 -22.514919281005859
v 126.79062652587891 0 -23.491939544677734
v 125.99375152587891 0 -23.003429412841797
v 126.79062652587891 0 -22.514919281005859
v 126.79062652587891 0 -23.003429412841797
v 129.18124389648438 0 -22.514919281005859
v 125.99375152587891 0 -24.468957901000977
v 127.15000152587891 0 -26.723775863647461
v 125.80000305175781 0 -26.723775863647461
v 125.80000305175781 0 -26.923776626586914
v 125.19687652587891 0 -27.400014877319336
v 125.99375152587891 0 -28.377033233642578
v 121.21250152587891 0 -26.422996520996094
v 122.80625152587891 0 -25.445976257324219
v 122.80625152587891 0 -26.422996520996094
v 118.02500152587891 0 -27.400014877319336
v 114.83750152587891 0 -25.445976257324219
v 118.02500152587891 0 -23.491939544677734
v 124.40000152587891 0 -25.934486389160156
v 126.79062652587891 0 -27.400014877319336
v 125.99375152587891 0 -27.155759811401367
v 125.59531402587891 0 -27.400014877319336
v 125.19687652587891 0 -27.155759811401367
v 125.59531402587891 0 -27.155759811401367
v 125.99375152587891 0 -27.888525009155273
v 125.19687652587891 0 -28.377033233642578
v 125.19687652587891 0 -27.888525009155273
v 122.80625152587891 0 -29.354053497314453
v 121.21250152587891 0 -28.377033233642578
v 122.80625152587891 0 -28.377033233642578
v 114.83750152587891 0 -29.354053497314453
v 127.15000152587891 0 -26.923776626586914
v 127.15000152587891 0 -29.251575469970703
v 126.34999847412109 0 -29.251575469970703
v 126.34999847412109 0 -27.651575088500977
v 126.15000152587891 0 -27.651575088500977
v 126.79062652587891 0 -27.644269943237305
v 125.99375152587891 0 -27.644269943237305
v 126.39218902587891 0 -27.400014877319336
v 126.15000152587891 0 -29.451574325561523
v 127.15000152587891 0 -29.451574325561523
v 127.15000152587891 0 -30.151575088500977
v 126.15000152587891 0 -30.151575088500977
v 126.15000152587891 0 -30.351573944091797
v 125.99375152587891 0 -29.842561721801758
v 126.79062652587891 0 -29.842561721801758
v 126.79062652587891 0 -30.086816787719727
v 125.99375152587891 0 -30.086816787719727
v 126.39218902587891 0 -29.842561721801758
v 126.39218902587891 0 -30.086816787719727
v 125.99375152587891 0 -30.819581985473633
v 126.79062652587891 0 -30.819581985473633
v 121.21250152587891 0 -30.331071853637695
v 122.80625152587891 0 -30.331071853637695
v 126.79062652587891 0 -30.575326919555664
v 126.39218902587891 0 -30.819581985473633
v 125.99375152587891 0 -30.575326919555664
v 126.39218902587891 0 -30.575326919555664
v 125.19687652587891 0 -30.819581985473633
v 127.15000152587891 0 -30.351573944091797
v 127.15000152587891 0 -30.701574325561523
v 127.5 0 -30.701574325561523
v 127.5 0 -27.701574325561523
v 131.19999694824219 0 -27.701574325561523
v 131.19999694824219 0 -31.001575469970703
v 127.90000152587891 0 -31.001575469970703
v 124.59999847412109 0 -31.001575469970703
v 124.59999847412109 0 -29.451574325561523
v 125.34999847412109 0 -29.451574325561523
v 125.34999847412109 0 -30.351573944091797
v 125.55000305175781 0 -30.351573944091797
v 125.59531402587891 0 -30.819581985473633
v 125.19687652587891 0 -30.575326919555664
v 125.59531402587891 0 -30.575326919555664
v 125.55000305175781 0 -29.451574325561523
v 125.55000305175781 0 -29.251575469970703
v 125.99375152587891 0 -28.865543365478516
v 125.19687652587891 0 -28.865543365478516
v 125.99375152587891 0 -29.109798431396484
v 125.19687652587891 0 -29.109798431396484
v 125.59531402587891 0 -28.865543365478516
v 125.59531402587891 0 -29.109798431396484
v 124.59999847412109 0 -29.251575469970703
v 124.59999847412109 0 -27.501575469970703
v 122.44999694824219 0 -27.501575469970703
v 122.44999694824219 0 -26.901575088500977
v 122.25 0 -26.901575088500977
v 122.80625152587891 0 -26.911504745483398
v 121.21250152587891 0 -26.911504745483398
v 122.00937652587891 0 -26.422996520996094
v 122.00937652587891 0 -26.911504745483398
v 119.61875152587891 0 -27.400014877319336
v 118.02500152587891 0 -26.422996520996094
v 119.61875152587891 0 -25.445976257324219
v 119.61875152587891 0 -26.422996520996094
v 122.80625152587891 0 -26.66724967956543
v 122.00937652587891 0 -26.66724967956543
v 122.40781402587891 0 -26.422996520996094
v 122.40781402587891 0 -26.66724967956543
v 122.80625152587891 0 -25.934486389160156
v 121.21250152587891 0 -25.934486389160156
v 122.00937652587891 0 -25.445976257324219
v 122.00937652587891 0 -25.934486389160156
v 121.21250152587891 0 -24.468957901000977
v 122.80625152587891 0 -23.491939544677734
v 122.80625152587891 0 -24.468957901000977
v 123.60312652587891 0 -27.400014877319336
v 123.60312652587891 0 -26.422996520996094
v 123.60312652587891 0 -26.911504745483398
v 122.25 0 -27.501575469970703
v 120.69999694824219 0 -27.501575469970703
v 120.69999694824219 0 -22.795976638793945
v 120.34999847412109 0 -22.795976638793945
v 119.61875152587891 0 -23.491939544677734
v 119.61875152587891 0 -22.514919281005859
v 119.61875152587891 0 -23.003429412841797
v 122.80625152587891 0 -22.514919281005859
v 119.61875152587891 0 -24.468957901000977
v 120.34999847412109 0 -26.723775863647461
v 119 0 -26.723775863647461
v 119 0 -26.923776626586914
v 118.82187652587891 0 -27.400014877319336
v 118.82187652587891 0 -26.422996520996094
v 118.02500152587891 0 -28.377033233642578
v 116.43125152587891 0 -27.400014877319336
v 114.83750152587891 0 -26.422996520996094
v 116.43125152587891 0 -25.445976257324219
v 116.43125152587891 0 -26.422996520996094
v 111.65000152587891 0 -27.400014877319336
v 108.46250152587891 0 -25.445976257324219
v 111.65000152587891 0 -23.491939544677734
v 119.61875152587891 0 -26.66724967956543
v 119.22031402587891 0 -26.422996520996094
v 119.22031402587891 0 -26.66724967956543
v 119.61875152587891 0 -25.934486389160156
v 118.02500152587891 0 -25.934486389160156
v 118.82187652587891 0 -25.445976257324219
v 118.82187652587891 0 -25.934486389160156
v 119.61875152587891 0 -27.155759811401367
v 119.22031402587891 0 -27.400014877319336
v 118.82187652587891 0 -27.155759811401367
v 119.22031402587891 0 -27.155759811401367
v 118.82187652587891 0 -28.377033233642578
v 118.02500152587891 0 -27.888525009155273
v 118.82187652587891 0 -27.888525009155273
v 116.43125152587891 0 -29.354053497314453
v 114.83750152587891 0 -28.377033233642578
v 116.43125152587891 0 -28.377033233642578
v 108.46250152587891 0 -29.354053497314453
v 120.34999847412109 0 -26.923776626586914
v 120.34999847412109 0 -29.251575469970703
v 119.55000305175781 0 -29.251575469970703
v 119.55000305175781 0 -27.651575088500977
v 119.34999847412109 0 -27.651575088500977
v 119.22031402587891 0 -27.888525009155273
v 118.82187652587891 0 -27.644269943237305
v 119.22031402587891 0 -27.644269943237305
v 119.34999847412109 0 -29.451574325561523
v 120.34999847412109 0 -29.451574325561523
v 120.34999847412109 0 -30.151575088500977
v 118.02500152587891 0 -30.331071853637695
v 119.34999847412109 0 -30.151575088500977
v 119.34999847412109 0 -30.351573944091797
v 119.61875152587891 0 -29.842561721801758
v 118.02500152587891 0 -29.842561721801758
v 118.82187652587891 0 -29.842561721801758
v 114.83750152587891 0 -30.331071853637695
v 116.43125152587891 0 -30.331071853637695
v 119.61875152587891 0 -30.086816787719727
v 119.22031402587891 0 -30.331071853637695
v 118.82187652587891 0 -30.086816787719727
v 119.22031402587891 0 -29.842561721801758
v 119.22031402587891 0 -30.086816787719727
v 121.21250152587891 0 -29.842561721801758
v 119.61875152587891 0 -30.819581985473633
v 118.02500152587891 0 -30.819581985473633
v 118.82187652587891 0 -30.819581985473633
v 119.61875152587891 0 -30.575326919555664
v 119.22031402587891 0 -30.819581985473633
v 118.82187652587891 0 -30.575326919555664
v 119.22031402587891 0 -30.575326919555664
v 120.34999847412109 0 -30.351573944091797
v 120.34999847412109 0 -30.701574325561523
v 120.69999694824219 0 -30.701574325561523
v 120.69999694824219 0 -27.701574325561523
v 124.40000152587891 0 -27.701574325561523
v 124.40000152587891 0 -31.001575469970703
v 121.09999847412109 0 -31.001575469970703
v 117.80000305175781 0 -31.001575469970703
v 117.80000305175781 0 -29.451574325561523
v 118.55000305175781 0 -29.451574325561523
v 118.55000305175781 0 -30.351573944091797
v 118.75 0 -30.351573944091797
v 118.42343902587891 0 -30.819581985473633
v 118.02500152587891 0 -30.575326919555664
v 118.42343902587891 0 -30.331071853637695
v 118.42343902587891 0 -30.575326919555664
v 116.43125152587891 0 -30.819581985473633
v 117.22812652587891 0 -30.331071853637695
v 117.22812652587891 0 -30.819581985473633
v 118.75 0 -29.451574325561523
v 118.75 0 -29.251575469970703
v 118.42343902587891 0 -29.842561721801758
v 118.02500152587891 0 -29.598306655883789
v 118.42343902587891 0 -29.598306655883789
v 116.43125152587891 0 -29.842561721801758
v 117.22812652587891 0 -29.354053497314453
v 117.22812652587891 0 -29.842561721801758
v 118.02500152587891 0 -28.865543365478516
v 118.82187652587891 0 -28.865543365478516
v 118.82187652587891 0 -29.109798431396484
v 118.02500152587891 0 -29.109798431396484
v 118.42343902587891 0 -28.865543365478516
v 118.42343902587891 0 -29.109798431396484
v 116.43125152587891 0 -28.865543365478516
v 117.22812652587891 0 -28.377033233642578
v 117.22812652587891 0 -28.865543365478516
v 117.80000305175781 0 -29.251575469970703
v 117.80000305175781 0 -27.501575469970703
v 115.65000152587891 0 -27.501575469970703
v 115.65000152587891 0 -26.901575088500977
v 115.44999694824219 0 -26.901575088500977
v 116.43125152587891 0 -26.911504745483398
v 114.83750152587891 0 -26.911504745483398
v 115.63437652587891 0 -26.422996520996094
v 113.24375152587891 0 -27.400014877319336
v 111.65000152587891 0 -26.422996520996094
v 113.24375152587891 0 -25.445976257324219
v 113.24375152587891 0 -26.422996520996094
v 116.43125152587891 0 -26.66724967956543
v 116.03281402587891 0 -26.911504745483398
v 115.63437652587891 0 -26.66724967956543
v 116.03281402587891 0 -26.422996520996094
v 116.03281402587891 0 -26.66724967956543
v 116.43125152587891 0 -25.934486389160156
v 114.83750152587891 0 -25.934486389160156
v 115.63437652587891 0 -25.445976257324219
v 115.63437652587891 0 -25.934486389160156
v 114.83750152587891 0 -24.468957901000977
v 116.43125152587891 0 -23.491939544677734
v 116.43125152587891 0 -24.468957901000977
v 117.22812652587891 0 -27.400014877319336
v 117.22812652587891 0 -26.422996520996094
v 117.22812652587891 0 -26.911504745483398
v 115.23593902587891 0 -26.911504745483398
v 114.83750152587891 0 -26.66724967956543
v 115.23593902587891 0 -26.422996520996094
v 115.23593902587891 0 -26.66724967956543
v 114.04062652587891 0 -26.422996520996094
v 114.04062652587891 0 -26.911504745483398
v 111.65000152587891 0 -28.377033233642578
v 115.44999694824219 0 -27.501575469970703
v 113.90000152587891 0 -27.501575469970703
v 113.90000152587891 0 -22.795976638793945
v 113.55000305175781 0 -22.795976638793945
v 114.83750152587891 0 -22.514919281005859
v 113.24375152587891 0 -23.491939544677734
v 111.65000152587891 0 -22.514919281005859
v 113.24375152587891 0 -22.514919281005859
v 114.83750152587891 0 -23.003429412841797
v 114.04062652587891 0 -23.491939544677734
v 113.24375152587891 0 -23.003429412841797
v 114.04062652587891 0 -23.003429412841797
v 116.43125152587891 0 -22.514919281005859
v 113.24375152587891 0 -24.468957901000977
v 113.55000305175781 0 -26.723775863647461
v 112.19999694824219 0 -26.723775863647461
v 112.19999694824219 0 -26.923776626586914
v 112.44687652587891 0 -27.400014877319336
v 112.44687652587891 0 -26.422996520996094
v 110.05625152587891 0 -27.400014877319336
v 108.46250152587891 0 -26.422996520996094
v 110.05625152587891 0 -25.445976257324219
v 110.05625152587891 0 -26.422996520996094
v 102.08750152587891 0 -25.445976257324219
v 105.27500152587891 0 -23.491939544677734
v 112.04843902587891 0 -26.911504745483398
v 111.65000152587891 0 -26.66724967956543
v 112.04843902587891 0 -26.422996520996094
v 112.04843902587891 0 -26.66724967956543
v 110.05625152587891 0 -26.911504745483398
v 110.85312652587891 0 -26.422996520996094
v 110.05625152587891 0 -29.354053497314453
v 108.46250152587891 0 -28.377033233642578
v 110.05625152587891 0 -28.377033233642578
v 102.08750152587891 0 -29.354053497314453
v 113.24375152587891 0 -25.934486389160156
v 112.44687652587891 0 -25.445976257324219
v 112.44687652587891 0 -25.934486389160156
v 112.44687652587891 0 -27.155759811401367
v 112.04843902587891 0 -27.400014877319336
v 111.65000152587891 0 -27.155759811401367
v 112.04843902587891 0 -27.155759811401367
v 113.24375152587891 0 -27.888525009155273
v 112.44687652587891 0 -28.377033233642578
v 111.65000152587891 0 -27.888525009155273
v 112.44687652587891 0 -27.888525009155273
v 113.55000305175781 0 -26.923776626586914
v 113.55000305175781 0 -29.251575469970703
v 112.75 0 -29.251575469970703
v 112.75 0 -27.651575088500977
v 112.55000305175781 0 -27.651575088500977
v 113.24375152587891 0 -27.644269943237305
v 112.84531402587891 0 -27.888525009155273
v 112.44687652587891 0 -27.644269943237305
v 112.84531402587891 0 -27.400014877319336
v 114.83750152587891 0 -27.888525009155273
v 114.04062652587891 0 -28.377033233642578
v 114.04062652587891 0 -27.888525009155273
v 112.55000305175781 0 -29.451574325561523
v 113.55000305175781 0 -29.451574325561523
v 113.55000305175781 0 -30.151575088500977
v 112.55000305175781 0 -30.151575088500977
v 112.55000305175781 0 -30.351573944091797
v 113.24375152587891 0 -29.842561721801758
v 112.44687652587891 0 -30.331071853637695
v 112.44687652587891 0 -29.842561721801758
v 108.46250152587891 0 -30.331071853637695
v 110.05625152587891 0 -30.331071853637695
v 113.24375152587891 0 -30.086816787719727
v 112.44687652587891 0 -30.086816787719727
v 112.84531402587891 0 -29.842561721801758
v 112.84531402587891 0 -30.086816787719727
v 114.83750152587891 0 -29.842561721801758
v 114.04062652587891 0 -30.331071853637695
v 114.04062652587891 0 -29.354053497314453
v 114.04062652587891 0 -29.842561721801758
v 113.24375152587891 0 -30.819581985473633
v 111.65000152587891 0 -30.819581985473633
v 112.44687652587891 0 -30.819581985473633
v 113.24375152587891 0 -30.575326919555664
v 112.84531402587891 0 -30.819581985473633
v 112.44687652587891 0 -30.575326919555664
v 112.84531402587891 0 -30.575326919555664
v 114.83750152587891 0 -30.819581985473633
v 113.55000305175781 0 -30.351573944091797
v 113.55000305175781 0 -30.701574325561523
v 113.90000152587891 0 -30.701574325561523
v 113.90000152587891 0 -27.701574325561523
v 117.59999847412109 0 -27.701574325561523
v 117.59999847412109 0 -31.001575469970703
v 114.30000305175781 0 -31.001575469970703
v 111 0 -31.001575469970703
v 111 0 -29.451574325561523
v 111.75 0 -29.451574325561523
v 111.75 0 -30.351573944091797
v 111.94999694824219 0 -30.351573944091797
v 112.04843902587891 0 -30.819581985473633
v 111.65000152587891 0 -30.575326919555664
v 112.04843902587891 0 -30.575326919555664
v 111.94999694824219 0 -29.451574325561523
v 111.94999694824219 0 -29.251575469970703
v 112.44687652587891 0 -29.598306655883789
v 112.04843902587891 0 -29.842561721801758
v 112.04843902587891 0 -29.598306655883789
v 110.05625152587891 0 -29.842561721801758
v 111.65000152587891 0 -28.865543365478516
v 112.44687652587891 0 -28.865543365478516
v 112.44687652587891 0 -29.109798431396484
v 111.65000152587891 0 -29.109798431396484
v 112.04843902587891 0 -28.865543365478516
v 112.04843902587891 0 -29.109798431396484
v 110.05625152587891 0 -28.865543365478516
v 111 0 -29.251575469970703
v 111 0 -27.501575469970703
v 108.84999847412109 0 -27.501575469970703
v 108.84999847412109 0 -26.901575088500977
v 108.65000152587891 0 -26.901575088500977
v 109.25937652587891 0 -27.400014877319336
v 108.46250152587891 0 -26.911504745483398
v 109.25937652587891 0 -26.422996520996094
v 109.25937652587891 0 -26.911504745483398
v 109.25937652587891 0 -26.66724967956543
v 108.46250152587891 0 -26.66724967956543
v 108.86093902587891 0 -26.422996520996094
v 108.86093902587891 0 -26.66724967956543
v 107.66562652587891 0 -27.400014877319336
v 107.66562652587891 0 -26.422996520996094
v 107.66562652587891 0 -26.911504745483398
v 110.05625152587891 0 -25.934486389160156
v 108.46250152587891 0 -25.934486389160156
v 109.25937652587891 0 -25.445976257324219
v 109.25937652587891 0 -25.934486389160156
v 108.46250152587891 0 -24.468957901000977
v 110.05625152587891 0 -23.491939544677734
v 110.05625152587891 0 -24.468957901000977
v 108.65000152587891 0 -27.501575469970703
v 107.09999847412109 0 -27.501575469970703
v 107.09999847412109 0 -22.795976638793945
v 106.75 0 -22.795976638793945
v 108.46250152587891 0 -22.514919281005859
v 105.27500152587891 0 -22.514919281005859
v 108.46250152587891 0 -23.003429412841797
v 107.66562652587891 0 -23.491939544677734
v 107.66562652587891 0 -22.514919281005859
v 107.66562652587891 0 -23.003429412841797
v 110.05625152587891 0 -22.514919281005859
v 106.07187652587891 0 -23.491939544677734
v 105.27500152587891 0 -23.003429412841797
v 106.07187652587891 0 -22.514919281005859
v 106.07187652587891 0 -23.003429412841797
v 98.900001525878906 0 -23.491939544677734
v 106.75 0 -26.748775482177734
v 106.75 0 -30.701574325561523
v 107.09999847412109 0 -30.701574325561523
v 105.27500152587891 0 -30.331071853637695
v 105.27500152587891 0 -30.819581985473633
v 106.07187652587891 0 -30.331071853637695
v 106.07187652587891 0 -30.819581985473633
v 98.900001525878906 0 -27.400014877319336
v 98.900001525878906 0 -29.354053497314453
v 108.46250152587891 0 -30.819581985473633
v 107.66562652587891 0 -30.331071853637695
v 107.66562652587891 0 -30.819581985473633
v 107.09999847412109 0 -27.701574325561523
v 110.80000305175781 0 -27.701574325561523
v 110.80000305175781 0 -31.001575469970703
v 107.19999694824219 0 -31.001575469970703
v 103.59999847412109 0 -31.001575469970703
v 103.59999847412109 0 -28.475175857543945
v 103.59999847412109 0 -25.948776245117188
v 103.25 0 -25.948776245117188
v 102.08750152587891 0 -26.422996520996094
v 98.900001525878906 0 -25.445976257324219
v 102.88437652587891 0 -26.422996520996094
v 102.08750152587891 0 -25.934486389160156
v 102.88437652587891 0 -25.445976257324219
v 102.88437652587891 0 -25.934486389160156
v 100.49375152587891 0 -27.400014877319336
v 98.900001525878906 0 -26.422996520996094
v 100.49375152587891 0 -25.445976257324219
v 100.49375152587891 0 -26.422996520996094
v 102.08750152587891 0 -24.468957901000977
v 103.25 0 -28.475175857543945
v 103.25 0 -31.001575469970703
v 100.02500152587891 0 -31.001575469970703
v 96.800003051757812 0 -31.001575469970703
v 96.800003051757812 0 -26.748775482177734
v 96.800003051757812 0 -22.495977401733398
v 98.25 0 -22.495977401733398
v 98.25 0 -17.820978164672852
v 98.25 0 -13.145977973937988
v 94.199996948242188 0 -13.145977973937988
v 90.150001525878906 0 -13.145977973937988
v 90.150001525878906 0 -10.199999809265137
v 93.724998474121094 0 -10.199999809265137
v 97.300003051757812 0 -10.199999809265137
v 97.300003051757812 0 -9.8500003814697266
v 98.900001525878906 0 -7.8596358299255371
v 97.306251525878906 0 -11.767711639404297
v 95.712501525878906 0 -10.790692329406738
v 97.306251525878906 0 -10.790692329406738
v 92.525001525878906 0 -11.767711639404297
v 96.509376525878906 0 -10.790692329406738
v 95.712501525878906 0 -10.302183151245117
v 96.509376525878906 0 -10.302183151245117
v 94.118751525878906 0 -11.767711639404297
v 92.525001525878906 0 -10.790692329406738
v 94.118751525878906 0 -10.790692329406738
v 98.900001525878906 0 -8.8366546630859375
v 95.712501525878906 0 -8.8366546630859375
v 97.306251525878906 0 -7.8596358299255371
v 97.306251525878906 0 -8.8366546630859375
v 95.712501525878906 0 -5.9055981636047363
v 98.900001525878906 0 -5.9055981636047363
v 93.724998474121094 0 -9.8500003814697266
v 90.150001525878906 0 -9.8500003814697266
v 90.150001525878906 0 -5.0999999046325684
v 90.150001525878906 0 -0.34999999403953552
v 94.900001525878906 0 -0.34999999403953552
v 99.650001525878906 0 -0.34999999403953552
v 99.650001525878906 0 -5.0999999046325684
v 99.650001525878906 0 -9.8500003814697266
v 98.199996948242188 0 -9.8500003814697266
v 98.199996948242188 0 -10.199999809265137
v 98.599998474121094 0 -10.199999809265137
v 98.599998474121094 0 -13.145977973937988
v 98.599998474121094 0 -17.820978164672852
v 98.599998474121094 0 -22.495977401733398
v 103.25 0 -22.495977401733398
v 103.25 0 -25.148777008056641
v 103.59999847412109 0 -25.148777008056641
v 102.08750152587891 0 -24.957468032836914
v 102.88437652587891 0 -24.468957901000977
v 102.88437652587891 0 -24.957468032836914
v 98.900001525878906 0 -24.468957901000977
v 100.49375152587891 0 -23.491939544677734
v 100.49375152587891 0 -24.468957901000977
v 103.59999847412109 0 -22.495977401733398
v 107.19999694824219 0 -22.495977401733398
v 110.80000305175781 0 -22.495977401733398
v 110.80000305175781 0 -25.723775863647461
v 111.40000152587891 0 -25.723775863647461
v 111.40000152587891 0 -26.723775863647461
v 110.80000305175781 0 -26.723775863647461
v 110.80000305175781 0 -26.923776626586914
v 110.45468902587891 0 -26.911504745483398
v 110.05625152587891 0 -26.66724967956543
v 110.45468902587891 0 -26.422996520996094
v 110.45468902587891 0 -26.66724967956543
v 110.85312652587891 0 -25.934486389160156
v 110.85312652587891 0 -27.155759811401367
v 110.45468902587891 0 -27.400014877319336
v 110.05625152587891 0 -27.155759811401367
v 110.45468902587891 0 -27.155759811401367
v 111.59999847412109 0 -26.923776626586914
v 111.59999847412109 0 -25.523777008056641
v 111 0 -25.523777008056641
v 111 0 -24.523777008056641
v 111.59999847412109 0 -24.523777008056641
v 111.59999847412109 0 -24.323776245117188
v 111.65000152587891 0 -24.957468032836914
v 110.05625152587891 0 -24.957468032836914
v 111.65000152587891 0 -24.713212966918945
v 111.25156402587891 0 -24.957468032836914
v 111.25156402587891 0 -24.713212966918945
v 111.65000152587891 0 -23.980447769165039
v 110.05625152587891 0 -23.980447769165039
v 113.24375152587891 0 -24.957468032836914
v 112.44687652587891 0 -24.468957901000977
v 112.44687652587891 0 -24.957468032836914
v 111.65000152587891 0 -24.224702835083008
v 111.25156402587891 0 -23.980447769165039
v 111.25156402587891 0 -24.224702835083008
v 113.24375152587891 0 -23.980447769165039
v 112.44687652587891 0 -23.491939544677734
v 112.44687652587891 0 -23.980447769165039
v 111 0 -24.323776245117188
v 111 0 -22.495977401733398
v 114.30000305175781 0 -22.495977401733398
v 117.59999847412109 0 -22.495977401733398
v 117.59999847412109 0 -25.723775863647461
v 118.19999694824219 0 -25.723775863647461
v 118.19999694824219 0 -26.723775863647461
v 117.59999847412109 0 -26.723775863647461
v 117.59999847412109 0 -26.923776626586914
v 117.22812652587891 0 -26.66724967956543
v 117.62656402587891 0 -26.422996520996094
v 117.22812652587891 0 -25.445976257324219
v 117.22812652587891 0 -25.934486389160156
v 118.02500152587891 0 -27.155759811401367
v 117.22812652587891 0 -27.155759811401367
v 117.62656402587891 0 -27.155759811401367
v 116.43125152587891 0 -27.888525009155273
v 117.22812652587891 0 -27.888525009155273
v 118.40000152587891 0 -26.923776626586914
v 118.40000152587891 0 -25.523777008056641
v 117.80000305175781 0 -25.523777008056641
v 117.80000305175781 0 -24.523777008056641
v 118.40000152587891 0 -24.523777008056641
v 118.40000152587891 0 -24.323776245117188
v 119.61875152587891 0 -24.957468032836914
v 118.02500152587891 0 -24.957468032836914
v 118.82187652587891 0 -24.468957901000977
v 118.82187652587891 0 -24.957468032836914
v 118.82187652587891 0 -24.713212966918945
v 118.42343902587891 0 -24.957468032836914
v 118.02500152587891 0 -24.713212966918945
v 118.42343902587891 0 -24.713212966918945
v 116.43125152587891 0 -24.957468032836914
v 117.22812652587891 0 -24.468957901000977
v 117.22812652587891 0 -24.957468032836914
v 119.61875152587891 0 -23.980447769165039
v 118.02500152587891 0 -23.980447769165039
v 118.82187652587891 0 -23.491939544677734
v 118.82187652587891 0 -23.980447769165039
v 118.82187652587891 0 -24.224702835083008
v 118.02500152587891 0 -24.224702835083008
v 118.42343902587891 0 -23.980447769165039
v 118.42343902587891 0 -24.224702835083008
v 116.43125152587891 0 -23.980447769165039
v 117.22812652587891 0 -23.491939544677734
v 117.22812652587891 0 -23.980447769165039
v 117.80000305175781 0 -24.323776245117188
v 117.80000305175781 0 -22.495977401733398
v 121.09999847412109 0 -22.495977401733398
v 124.40000152587891 0 -22.495977401733398
v 124.40000152587891 0 -25.723775863647461
v 125 0 -25.723775863647461
v 125 0 -26.723775863647461
v 124.40000152587891 0 -26.723775863647461
v 124.40000152587891 0 -26.923776626586914
v 124.40000152587891 0 -26.66724967956543
v 124.79843902587891 0 -26.422996520996094
v 124.79843902587891 0 -26.66724967956543
v 124.00156402587891 0 -26.911504745483398
v 123.60312652587891 0 -26.66724967956543
v 124.00156402587891 0 -26.422996520996094
v 124.00156402587891 0 -26.66724967956543
v 123.60312652587891 0 -25.445976257324219
v 123.60312652587891 0 -25.934486389160156
v 124.40000152587891 0 -27.155759811401367
v 124.79843902587891 0 -27.155759811401367
v 124.00156402587891 0 -27.400014877319336
v 123.60312652587891 0 -27.155759811401367
v 124.00156402587891 0 -27.155759811401367
v 123.60312652587891 0 -28.377033233642578
v 122.80625152587891 0 -27.888525009155273
v 123.60312652587891 0 -27.888525009155273
v 125.19999694824219 0 -26.923776626586914
v 125.19999694824219 0 -25.523777008056641
v 124.59999847412109 0 -25.523777008056641
v 124.59999847412109 0 -24.523777008056641
v 125.19999694824219 0 -24.523777008056641
v 125.19999694824219 0 -24.323776245117188
v 125.99375152587891 0 -24.957468032836914
v 125.19687652587891 0 -24.957468032836914
v 125.99375152587891 0 -24.713212966918945
v 125.59531402587891 0 -24.957468032836914
v 125.19687652587891 0 -24.713212966918945
v 125.59531402587891 0 -24.468957901000977
v 125.59531402587891 0 -24.713212966918945
v 125.99375152587891 0 -23.980447769165039
v 125.19687652587891 0 -23.491939544677734
v 125.19687652587891 0 -23.980447769165039
v 126.79062652587891 0 -25.445976257324219
v 126.79062652587891 0 -24.468957901000977
v 126.79062652587891 0 -24.957468032836914
v 125.99375152587891 0 -24.224702835083008
v 125.19687652587891 0 -24.224702835083008
v 125.59531402587891 0 -23.980447769165039
v 125.59531402587891 0 -24.224702835083008
v 126.79062652587891 0 -23.980447769165039
v 124.59999847412109 0 -24.323776245117188
v 124.59999847412109 0 -22.495977401733398
v 127.90000152587891 0 -22.495977401733398
v 131.19999694824219 0 -22.495977401733398
v 131.19999694824219 0 -25.723775863647461
v 131.80000305175781 0 -25.723775863647461
v 131.80000305175781 0 -26.723775863647461
v 131.19999694824219 0 -26.723775863647461
v 131.19999694824219 0 -26.923776626586914
v 131.57186889648438 0 -26.66724967956543
v 130.77499389648438 0 -26.66724967956543
v 131.17343139648438 0 -26.422996520996094
v 131.57186889648438 0 -25.934486389160156
v 131.57186889648438 0 -27.155759811401367
v 131.17343139648438 0 -27.400014877319336
v 130.77499389648438 0 -27.155759811401367
v 131.17343139648438 0 -27.155759811401367
v 132 0 -26.923776626586914
v 132 0 -25.523777008056641
v 131.39999389648438 0 -25.523777008056641
v 131.39999389648438 0 -24.523777008056641
v 132 0 -24.523777008056641
v 132 0 -24.323776245117188
v 132.36874389648438 0 -24.957468032836914
v 130.77499389648438 0 -24.957468032836914
v 131.57186889648438 0 -24.957468032836914
v 132.36874389648438 0 -24.713212966918945
v 131.97030639648438 0 -24.957468032836914
v 131.57186889648438 0 -24.713212966918945
v 131.97030639648438 0 -24.713212966918945
v 132.36874389648438 0 -23.980447769165039
v 130.77499389648438 0 -23.980447769165039
v 131.57186889648438 0 -23.491939544677734
v 131.57186889648438 0 -23.980447769165039
v 133.16561889648438 0 -24.468957901000977
v 133.16561889648438 0 -24.957468032836914
v 132.36874389648438 0 -24.224702835083008
v 131.97030639648438 0 -23.980447769165039
v 131.97030639648438 0 -24.224702835083008
v 133.16561889648438 0 -23.980447769165039
v 131.39999389648438 0 -24.323776245117188
v 131.39999389648438 0 -22.495977401733398
v 134.69999694824219 0 -22.495977401733398
v 138 0 -22.495977401733398
v 138 0 -25.723775863647461
v 138.60000610351562 0 -25.723775863647461
v 138.60000610351562 0 -26.723775863647461
v 138 0 -26.723775863647461
v 138 0 -26.923776626586914
v 138.34530639648438 0 -26.422996520996094
v 138.34530639648438 0 -26.66724967956543
v 137.94686889648438 0 -25.934486389160156
v 137.94686889648438 0 -27.155759811401367
v 138.34530639648438 0 -27.155759811401367
v 138.80000305175781 0 -26.923776626586914
v 138.80000305175781 0 -25.523777008056641
v 138.19999694824219 0 -25.523777008056641
v 138.19999694824219 0 -24.523777008056641
v 138.80000305175781 0 -24.523777008056641
v 138.80000305175781 0 -24.323776245117188
v 140.33749389648438 0 -24.957468032836914
v 138.74374389648438 0 -24.957468032836914
v 139.54061889648438 0 -24.468957901000977
v 139.54061889648438 0 -24.957468032836914
v 139.54061889648438 0 -24.713212966918945
v 139.14218139648438 0 -24.957468032836914
v 138.74374389648438 0 -24.713212966918945
v 139.14218139648438 0 -24.468957901000977
v 139.14218139648438 0 -24.713212966918945
v 137.14999389648438 0 -24.957468032836914
v 140.33749389648438 0 -23.980447769165039
v 138.74374389648438 0 -23.980447769165039
v 139.54061889648438 0 -23.491939544677734
v 139.54061889648438 0 -23.980447769165039
v 139.54061889648438 0 -24.224702835083008
v 138.74374389648438 0 -24.224702835083008
v 139.14218139648438 0 -23.980447769165039
v 139.14218139648438 0 -24.224702835083008
v 137.14999389648438 0 -23.980447769165039
v 138.19999694824219 0 -24.323776245117188
v 138.19999694824219 0 -22.495977401733398
v 141.5 0 -22.495977401733398
v 144.80000305175781 0 -22.495977401733398
v 144.80000305175781 0 -25.723775863647461
v 145.39999389648438 0 -25.723775863647461
v 145.39999389648438 0 -26.723775863647461
v 144.80000305175781 0 -26.723775863647461
v 144.80000305175781 0 -26.923776626586914
v 145.11874389648438 0 -26.66724967956543
v 144.32186889648438 0 -26.66724967956543
v 144.72030639648438 0 -26.422996520996094
v 144.32186889648438 0 -25.445976257324219
v 144.32186889648438 0 -25.934486389160156
v 145.11874389648438 0 -27.155759811401367
v 144.72030639648438 0 -27.400014877319336
v 144.32186889648438 0 -27.155759811401367
v 144.72030639648438 0 -27.155759811401367
v 144.32186889648438 0 -28.377033233642578
v 143.52499389648438 0 -27.888525009155273
v 144.32186889648438 0 -27.888525009155273
v 145.60000610351562 0 -26.923776626586914
v 145.60000610351562 0 -25.523777008056641
v 145 0 -25.523777008056641
v 145 0 -24.523777008056641
v 145.60000610351562 0 -24.523777008056641
v 145.60000610351562 0 -24.323776245117188
v 146.71249389648438 0 -24.957468032836914
v 145.11874389648438 0 -24.957468032836914
v 145.91561889648438 0 -24.468957901000977
v 145.91561889648438 0 -24.957468032836914
v 145.91561889648438 0 -24.713212966918945
v 145.51718139648438 0 -24.957468032836914
v 145.11874389648438 0 -24.713212966918945
v 145.51718139648438 0 -24.713212966918945
v 143.52499389648438 0 -24.957468032836914
v 144.32186889648438 0 -24.468957901000977
v 144.32186889648438 0 -24.957468032836914
v 146.71249389648438 0 -23.980447769165039
v 145.11874389648438 0 -23.980447769165039
v 145.91561889648438 0 -23.491939544677734
v 145.91561889648438 0 -23.980447769165039
v 145.91561889648438 0 -24.224702835083008
v 145.51718139648438 0 -23.980447769165039
v 145.51718139648438 0 -24.224702835083008
v 143.52499389648438 0 -23.980447769165039
v 144.32186889648438 0 -23.491939544677734
v 144.32186889648438 0 -23.980447769165039
v 145 0 -24.323776245117188
v 145 0 -22.495977401733398
v 148.30000305175781 0 -22.495977401733398
v 151.60000610351562 0 -22.495977401733398
v 151.60000610351562 0 -25.723775863647461
v 152.19999694824219 0 -25.723775863647461
v 152.19999694824219 0 -26.723775863647461
v 151.60000610351562 0 -26.723775863647461
v 151.60000610351562 0 -26.923776626586914
v 151.49374389648438 0 -26.66724967956543
v 151.49374389648438 0 -27.155759811401367
v 151.89218139648438 0 -27.155759811401367
v 152.39999389648438 0 -26.923776626586914
v 152.39999389648438 0 -25.523777008056641
v 151.80000305175781 0 -25.523777008056641
v 151.80000305175781 0 -24.523777008056641
v 152.39999389648438 0 -24.523777008056641
v 152.39999389648438 0 -24.323776245117188
v 153.08749389648438 0 -24.957468032836914
v 152.29061889648438 0 -24.957468032836914
v 153.08749389648438 0 -24.713212966918945
v 152.68905639648438 0 -24.957468032836914
v 152.29061889648438 0 -24.713212966918945
v 152.68905639648438 0 -24.468957901000977
v 152.68905639648438 0 -24.713212966918945
v 153.08749389648438 0 -23.980447769165039
v 152.29061889648438 0 -23.491939544677734
v 152.29061889648438 0 -23.980447769165039
v 153.88436889648438 0 -25.445976257324219
v 153.88436889648438 0 -24.468957901000977
v 153.88436889648438 0 -24.957468032836914
v 153.08749389648438 0 -24.224702835083008
v 152.29061889648438 0 -24.224702835083008
v 152.68905639648438 0 -23.980447769165039
v 152.68905639648438 0 -24.224702835083008
v 153.88436889648438 0 -23.980447769165039
v 151.80000305175781 0 -24.323776245117188
v 151.80000305175781 0 -22.495977401733398
v 155.10000610351562 0 -22.495977401733398
v 158.39999389648438 0 -22.495977401733398
v 158.39999389648438 0 -25.723775863647461
v 159 0 -25.723775863647461
v 159 0 -26.723775863647461
v 158.39999389648438 0 -26.723775863647461
v 158.39999389648438 0 -26.923776626586914
v 158.26718139648438 0 -26.911504745483398
v 157.86874389648438 0 -26.66724967956543
v 158.26718139648438 0 -26.422996520996094
v 158.26718139648438 0 -26.66724967956543
v 158.66561889648438 0 -25.934486389160156
v 158.66561889648438 0 -27.155759811401367
v 158.26718139648438 0 -27.400014877319336
v 157.86874389648438 0 -27.155759811401367
v 158.26718139648438 0 -27.155759811401367
v 159.19999694824219 0 -26.923776626586914
v 159.19999694824219 0 -25.523777008056641
v 158.60000610351562 0 -25.523777008056641
v 158.60000610351562 0 -24.523777008056641
v 159.19999694824219 0 -24.523777008056641
v 159.19999694824219 0 -24.323776245117188
v 159.46249389648438 0 -24.957468032836914
v 157.86874389648438 0 -24.957468032836914
v 158.66561889648438 0 -24.957468032836914
v 159.46249389648438 0 -24.713212966918945
v 159.06405639648438 0 -24.957468032836914
v 158.66561889648438 0 -24.713212966918945
v 159.06405639648438 0 -24.713212966918945
v 159.46249389648438 0 -23.980447769165039
v 157.86874389648438 0 -23.980447769165039
v 158.66561889648438 0 -23.980447769165039
v 160.25936889648438 0 -24.468957901000977
v 160.25936889648438 0 -24.957468032836914
v 159.46249389648438 0 -24.224702835083008
v 159.06405639648438 0 -23.980447769165039
v 159.06405639648438 0 -24.224702835083008
v 160.25936889648438 0 -23.491939544677734
v 160.25936889648438 0 -23.980447769165039
v 158.60000610351562 0 -24.323776245117188
v 158.60000610351562 0 -22.495977401733398
v 161.625 0 -22.495977401733398
v 164.64999389648438 0 -22.495977401733398
v 164.64999389648438 0 -25.148777008056641
v 165 0 -25.148777008056641
v 165.83749389648438 0 -24.468957901000977
v 164.24374389648438 0 -25.445976257324219
v 164.24374389648438 0 -24.468957901000977
v 169.02499389648438 0 -25.445976257324219
v 165.83749389648438 0 -24.957468032836914
v 165.04061889648438 0 -25.445976257324219
v 164.24374389648438 0 -24.957468032836914
v 169.02499389648438 0 -24.468957901000977
v 167.43124389648438 0 -25.445976257324219
v 167.43124389648438 0 -23.491939544677734
v 167.43124389648438 0 -24.468957901000977
v 165.83749389648438 0 -26.422996520996094
v 164.24374389648438 0 -26.422996520996094
v 165 0 -22.495977401733398
v 168.19999694824219 0 -22.495977401733398
v 171.39999389648438 0 -22.495977401733398
v 171.39999389648438 0 -26.748775482177734
v 171.39999389648438 0 -31.001575469970703
v 168.19999694824219 0 -31.001575469970703
v 165 0 -31.001575469970703
v 165 0 -28.475175857543945
v 165 0 -25.948776245117188
v 164.64999389648438 0 -25.948776245117188
v 165.83749389648438 0 -25.934486389160156
v 164.24374389648438 0 -25.934486389160156
v 169.02499389648438 0 -26.422996520996094
v 167.43124389648438 0 -27.400014877319336
v 167.43124389648438 0 -26.422996520996094
v 164.64999389648438 0 -28.475175857543945
v 164.64999389648438 0 -31.001575469970703
f 1114 1115 1116 1117 1118 1119 1120 1138 1139 1140 1141 1142 1143 1144 1145 1146 1147 1148 1149 1150 1151 1152 1153 1154 1161 1162 1163 1164 1165 1166 1167 1168 1178 1179 1180 1181 1182 1183 1200 1201 1202 1203 1204 1205 1206 1207 1208 1218 1219 1220 1221 1222 1223 1246 1247 1248 1249 1250 1251 1252 1253 1254 1272 1273 1274 1275 1276 1277 1296 1297 1298 1299 1300 1301 1302 1303 1304 1313 1314 1315 1316 1317 1318 1336 1337 1338 1339 1340 1341 1342 1343 1344 1350 1351 1352 1353 1354 1355 1375 1376 1377 1378 1379 1380 1381 1382 1383 1396 1397 1398 1399 1400 1401 1423 1424 1425 1426 1427 1428 1429 1430 1431 1435 1436 1437 1438 1439 1440 1459 1460 1461 1462 1463 1464 1465 1466 1467 1477 1478 1479 1480 1481 1482 1500 1501 1502 1503 1504 1505 1519 1520 1521 1522 1523 1524 1525 1526 1527 1528 1534 1535 19 20 21 22 40 41 42 73 74 75 76 77 95 96 97 98 99 115 116 117 118 119 120 121 126 127 135 136 137 138 139 170 171 172 173 185 186 187 204 205 206 207 208 210 211 212 213 214 229 230 231 235 236 237 238 239 240 241 242 243 247 248 255 256 257 258 270 289 290 291 292 295 296 297 319 320 321 322 323 327 328 329 331 332 347 348 349 350 351 352 353 354 355 356 357 358 370 371 380 381 382 383 390 415 416 417 418 426 427 428 452 453 454 455 456 458 459 460 461 462 478 479 480 481 482 483 484 485 486 487 488 489 496 497 507 508 509 510 511 532 533 534 535 549 550 551 573 574 575 576 577 586 587 588 590 591 607 608 609 613 614 615 616 617 618 619 620 621 626 627 638 639 640 641 642 668 669 670 671 680 681 682 704 705 706 707 708 712 713 714 715 716 732 733 734 735 736 737 738 739 740 741 742 743 747 748 755 756 757 758 759 782 783 784 785 791 792 793 822 823 824 825 826 830 831 832 834 835 854 855 856 857 858 859 860 861 862 863 864 865 873 874 890 891 892 893 894 924 925 926 927 938 939 940 970 971 972 973 974 982 983 984 985 986 1008 1009 1010 1011 1012 1013 1014 1015 1016 1017 1018 1019 1023 1024 1036 1037 1038 1039 1040 1059 1060 1061 1062 1075 1076 1077 1087 1088 1089 1090 1091 1092 1093 1094 1106 1107 1108 1109 1110 1111 1112 1113
