
CASCADE Topology V3, (c) Open Cascade
Locations 0
Curve2ds 0
Curves 244
1 90.150002000000001 59.849997999999999 0 1 0 0 
1 90.650002000000001 59.849997999999999 0 0 1 0 
1 90.650002000000001 60.200001 0 -1 0 0 
1 90.150002000000001 60.200001 0 0 1 0 
1 90.150002000000001 63.145977000000002 0 1 0 0 
1 96.800003000000004 63.145977000000002 0 0 1 0 
1 96.800003000000004 81.001571999999996 0 1 0 0 
1 103.25 81.001571999999996 0 0 -1 0 
1 103.25 76.923775000000006 0 -1 0 0 
1 98.599997999999999 76.923775000000006 0 0 -1 0 
1 98.599997999999999 76.574012999999994 0 1 0 0 
1 103.599998 76.574012999999994 0 0 1 0 
1 103.599998 81.001571999999996 0 1 0 0 
1 106.75 81.001571999999996 0 0 -1 0 
1 106.75 76.574012999999994 0 1 0 0 
1 111.849998 76.574012999999994 0 0 1 0 
1 111.849998 76.923775000000006 0 -1 0 0 
1 111.699997 76.923775000000006 0 0 1 0 
1 111.699997 77.723777999999996 0 -1 0 0 
1 111.5 77.723777999999996 0 0 -1 0 
1 111.5 76.923775000000006 0 -1 0 0 
1 107.099998 76.923775000000006 0 0 1 0 
1 107.099998 81.001571999999996 0 1 0 0 
1 111.5 81.001571999999996 0 0 -1 0 
1 111.5 78.523773000000006 0 1 0 0 
1 111.699997 78.523773000000006 0 0 1 0 
1 111.699997 79.001571999999996 0 1 0 0 
1 111.900002 79.001571999999996 0 0 1 0 
1 111.900002 79.201576000000003 0 -1 0 0 
1 111.699997 79.201576000000003 0 0 1 0 
1 111.699997 81.001571999999996 0 1 0 0 
1 113.550003 81.001571999999996 0 0 -1 0 
1 113.550003 79.201576000000003 0 -1 0 0 
1 112.699997 79.201576000000003 0 0 -1 0 
1 112.699997 79.001571999999996 0 1 0 0 
1 113.550003 79.001571999999996 0 0 -1 0 
1 113.550003 76.923775000000006 0 -1 0 0 
1 112.75 76.923775000000006 0 0 -1 0 
1 112.75 76.574012999999994 0 1 0 0 
1 114.699997 76.574012999999994 0 0 1 0 
1 114.699997 76.923775000000006 0 -1 0 0 
1 113.900002 76.923775000000006 0 0 1 0 
1 113.900002 79.001571999999996 0 1 0 0 
1 114.75 79.001571999999996 0 0 1 0 
1 114.75 79.201576000000003 0 -1 0 0 
1 113.900002 79.201576000000003 0 0 1 0 
1 113.900002 81.001571999999996 0 1 0 0 
1 115.75 81.001571999999996 0 0 -1 0 
1 115.75 79.201576000000003 0 -1 0 0 
1 115.550003 79.201576000000003 0 0 -1 0 
1 115.550003 79.001571999999996 0 1 0 0 
1 115.75 79.001571999999996 0 0 -1 0 
1 115.75 78.523773000000006 0 1 0 0 
1 115.949997 78.523773000000006 0 0 1 0 
1 115.949997 81.001571999999996 0 1 0 0 
1 120.349998 81.001571999999996 0 0 -1 0 
1 120.349998 76.923775000000006 0 -1 0 0 
1 115.949997 76.923775000000006 0 0 1 0 
1 115.949997 77.723777999999996 0 -1 0 0 
1 115.75 77.723777999999996 0 0 -1 0 
1 115.75 76.923775000000006 0 -1 0 0 
1 115.599998 76.923775000000006 0 0 -1 0 
1 115.599998 76.574012999999994 0 1 0 0 
1 125.449997 76.574012999999994 0 0 1 0 
1 125.449997 76.923775000000006 0 -1 0 0 
1 125.300003 76.923775000000006 0 0 1 0 
1 125.300003 77.723777999999996 0 -1 0 0 
1 125.099998 77.723777999999996 0 0 -1 0 
1 125.099998 76.923775000000006 0 -1 0 0 
1 120.699997 76.923775000000006 0 0 1 0 
1 120.699997 81.001571999999996 0 1 0 0 
1 125.099998 81.001571999999996 0 0 -1 0 
1 125.099998 78.523773000000006 0 1 0 0 
1 125.300003 78.523773000000006 0 0 1 0 
1 125.300003 79.001571999999996 0 1 0 0 
1 125.5 79.001571999999996 0 0 1 0 
1 125.5 79.201576000000003 0 -1 0 0 
1 125.300003 79.201576000000003 0 0 1 0 
1 125.300003 81.001571999999996 0 1 0 0 
1 127.150002 81.001571999999996 0 0 -1 0 
1 127.150002 79.201576000000003 0 -1 0 0 
1 126.300003 79.201576000000003 0 0 -1 0 
1 126.300003 79.001571999999996 0 1 0 0 
1 127.150002 79.001571999999996 0 0 -1 0 
1 127.150002 76.923775000000006 0 -1 0 0 
1 126.349998 76.923775000000006 0 0 -1 0 
1 126.349998 76.574012999999994 0 1 0 0 
1 128.300003 76.574012999999994 0 0 1 0 
1 128.300003 76.923775000000006 0 -1 0 0 
1 127.5 76.923775000000006 0 0 1 0 
1 127.5 79.001571999999996 0 1 0 0 
1 128.35000600000001 79.001571999999996 0 0 1 0 
1 128.35000600000001 79.201576000000003 0 -1 0 0 
1 127.5 79.201576000000003 0 0 1 0 
1 127.5 81.001571999999996 0 1 0 0 
1 129.35000600000001 81.001571999999996 0 0 -1 0 
1 129.35000600000001 79.201576000000003 0 -1 0 0 
1 129.14999399999999 79.201576000000003 0 0 -1 0 
1 129.14999399999999 79.001571999999996 0 1 0 0 
1 129.35000600000001 79.001571999999996 0 0 -1 0 
1 129.35000600000001 78.523773000000006 0 1 0 0 
1 129.550003 78.523773000000006 0 0 1 0 
1 129.550003 81.001571999999996 0 1 0 0 
1 133.949997 81.001571999999996 0 0 -1 0 
1 133.949997 76.923775000000006 0 -1 0 0 
1 129.550003 76.923775000000006 0 0 1 0 
1 129.550003 77.723777999999996 0 -1 0 0 
1 129.35000600000001 77.723777999999996 0 0 -1 0 
1 129.35000600000001 76.923775000000006 0 -1 0 0 
1 129.199997 76.923775000000006 0 0 -1 0 
1 129.199997 76.574012999999994 0 1 0 0 
1 139.050003 76.574012999999994 0 0 1 0 
1 139.050003 76.923775000000006 0 -1 0 0 
1 138.89999399999999 76.923775000000006 0 0 1 0 
1 138.89999399999999 77.723777999999996 0 -1 0 0 
1 138.699997 77.723777999999996 0 0 -1 0 
1 138.699997 76.923775000000006 0 -1 0 0 
1 134.300003 76.923775000000006 0 0 1 0 
1 134.300003 81.001571999999996 0 1 0 0 
1 138.699997 81.001571999999996 0 0 -1 0 
1 138.699997 78.523773000000006 0 1 0 0 
1 138.89999399999999 78.523773000000006 0 0 1 0 
1 138.89999399999999 79.001571999999996 0 1 0 0 
1 139.10000600000001 79.001571999999996 0 0 1 0 
1 139.10000600000001 79.201576000000003 0 -1 0 0 
1 138.89999399999999 79.201576000000003 0 0 1 0 
1 138.89999399999999 81.001571999999996 0 1 0 0 
1 140.75 81.001571999999996 0 0 -1 0 
1 140.75 79.201576000000003 0 -1 0 0 
1 139.89999399999999 79.201576000000003 0 0 -1 0 
1 139.89999399999999 79.001571999999996 0 1 0 0 
1 140.75 79.001571999999996 0 0 -1 0 
1 140.75 76.923775000000006 0 -1 0 0 
1 139.949997 76.923775000000006 0 0 -1 0 
1 139.949997 76.574012999999994 0 1 0 0 
1 141.89999399999999 76.574012999999994 0 0 1 0 
1 141.89999399999999 76.923775000000006 0 -1 0 0 
1 141.10000600000001 76.923775000000006 0 0 1 0 
1 141.10000600000001 79.001571999999996 0 1 0 0 
1 141.949997 79.001571999999996 0 0 1 0 
1 141.949997 79.201576000000003 0 -1 0 0 
1 141.10000600000001 79.201576000000003 0 0 1 0 
1 141.10000600000001 81.001571999999996 0 1 0 0 
1 142.949997 81.001571999999996 0 0 -1 0 
1 142.949997 79.201576000000003 0 -1 0 0 
1 142.75 79.201576000000003 0 0 -1 0 
1 142.75 79.001571999999996 0 1 0 0 
1 142.949997 79.001571999999996 0 0 -1 0 
1 142.949997 78.523773000000006 0 1 0 0 
1 143.14999399999999 78.523773000000006 0 0 1 0 
1 143.14999399999999 81.001571999999996 0 1 0 0 
1 147.550003 81.001571999999996 0 0 -1 0 
1 147.550003 76.923775000000006 0 -1 0 0 
1 143.14999399999999 76.923775000000006 0 0 1 0 
1 143.14999399999999 77.723777999999996 0 -1 0 0 
1 142.949997 77.723777999999996 0 0 -1 0 
1 142.949997 76.923775000000006 0 -1 0 0 
1 142.800003 76.923775000000006 0 0 -1 0 
1 142.800003 76.574012999999994 0 1 0 0 
1 152.64999399999999 76.574012999999994 0 0 1 0 
1 152.64999399999999 76.923775000000006 0 -1 0 0 
1 152.5 76.923775000000006 0 0 1 0 
1 152.5 77.723777999999996 0 -1 0 0 
1 152.300003 77.723777999999996 0 0 -1 0 
1 152.300003 76.923775000000006 0 -1 0 0 
1 147.89999399999999 76.923775000000006 0 0 1 0 
1 147.89999399999999 81.001571999999996 0 1 0 0 
1 152.300003 81.001571999999996 0 0 -1 0 
1 152.300003 78.523773000000006 0 1 0 0 
1 152.5 78.523773000000006 0 0 1 0 
1 152.5 79.001571999999996 0 1 0 0 
1 152.699997 79.001571999999996 0 0 1 0 
1 152.699997 79.201576000000003 0 -1 0 0 
1 152.5 79.201576000000003 0 0 1 0 
1 152.5 81.001571999999996 0 1 0 0 
1 154.35000600000001 81.001571999999996 0 0 -1 0 
1 154.35000600000001 79.201576000000003 0 -1 0 0 
1 153.5 79.201576000000003 0 0 -1 0 
1 153.5 79.001571999999996 0 1 0 0 
1 154.35000600000001 79.001571999999996 0 0 -1 0 
1 154.35000600000001 76.923775000000006 0 -1 0 0 
1 153.550003 76.923775000000006 0 0 -1 0 
1 153.550003 76.574012999999994 0 1 0 0 
1 155.5 76.574012999999994 0 0 1 0 
1 155.5 76.923775000000006 0 -1 0 0 
1 154.699997 76.923775000000006 0 0 1 0 
1 154.699997 79.001571999999996 0 1 0 0 
1 155.550003 79.001571999999996 0 0 1 0 
1 155.550003 79.201576000000003 0 -1 0 0 
1 154.699997 79.201576000000003 0 0 1 0 
1 154.699997 81.001571999999996 0 1 0 0 
1 156.550003 81.001571999999996 0 0 -1 0 
1 156.550003 79.201576000000003 0 -1 0 0 
1 156.35000600000001 79.201576000000003 0 0 -1 0 
1 156.35000600000001 79.001571999999996 0 1 0 0 
1 156.550003 79.001571999999996 0 0 -1 0 
1 156.550003 78.523773000000006 0 1 0 0 
1 156.75 78.523773000000006 0 0 1 0 
1 156.75 81.001571999999996 0 1 0 0 
1 161.14999399999999 81.001571999999996 0 0 -1 0 
1 161.14999399999999 76.923775000000006 0 -1 0 0 
1 156.75 76.923775000000006 0 0 1 0 
1 156.75 77.723777999999996 0 -1 0 0 
1 156.550003 77.723777999999996 0 0 -1 0 
1 156.550003 76.923775000000006 0 -1 0 0 
1 156.39999399999999 76.923775000000006 0 0 -1 0 
1 156.39999399999999 76.574012999999994 0 1 0 0 
1 161.5 76.574012999999994 0 0 1 0 
1 161.5 81.001571999999996 0 1 0 0 
1 164.64999399999999 81.001571999999996 0 0 -1 0 
1 164.64999399999999 76.074012999999994 0 1 0 0 
1 165 76.074012999999994 0 0 1 0 
1 165 81.001571999999996 0 1 0 0 
1 166.800003 81.001571999999996 0 0 -1 0 
1 166.800003 78.323539999999994 0 1 0 0 
1 167 78.323539999999994 0 0 1 0 
1 167 81.001571999999996 0 1 0 0 
1 171.39999399999999 81.001571999999996 0 0 -1 0 
1 171.39999399999999 76.848777999999996 0 -1 0 0 
1 167 76.848777999999996 0 0 1 0 
1 167 77.423537999999994 0 -1 0 0 
1 166.800003 77.423537999999994 0 0 -1 0 
1 166.800003 76.074012999999994 0 1 0 0 
1 167 76.074012999999994 0 0 1 0 
1 167 76.648773000000006 0 1 0 0 
1 171.39999399999999 76.648773000000006 0 0 -1 0 
1 171.39999399999999 72.495979000000005 0 -1 0 0 
1 167 72.495979000000005 0 0 1 0 
1 167 75.174010999999993 0 -1 0 0 
1 166.800003 75.174010999999993 0 0 -1 0 
1 166.800003 72.495979000000005 0 -1 0 0 
1 165 72.495979000000005 0 0 1 0 
1 165 75.174010999999993 0 -1 0 0 
1 164.64999399999999 75.174010999999993 0 0 -1 0 
1 164.64999399999999 72.495979000000005 0 -1 0 0 
1 98.949996999999996 72.495979000000005 0 0 1 0 
1 98.949996999999996 74.350234999999998 0 -1 0 0 
1 98.599997999999999 74.350234999999998 0 0 -1 0 
1 98.599997999999999 60.200001 0 -1 0 0 
1 91.550003000000004 60.200001 0 0 -1 0 
1 91.550003000000004 59.849997999999999 0 1 0 0 
1 99.650002000000001 59.849997999999999 0 0 -1 0 
1 99.650002000000001 50.349997999999999 0 -1 0 0 
1 90.150002000000001 50.349997999999999 0 0 1 0 
Polygon3D 0
PolygonOnTriangulations 0
Surfaces 1
1 129.65975301174325 74.956384468954283 0 -0 -0 -1 -1 0 0 0 1 -0 
Triangulations 0

TShapes 490
Ve
1e-07
90.150002 59.849998 0
0 0

0101101
*
Ve
1e-07
90.650002 59.849998 0
0 0

0101101
*
Ed
 1e-07 1 1 0
1  1 0 0 0.5
0

0101000
+490 0 -489 0 *
Ve
1e-07
90.650002 60.200001 0
0 0

0101101
*
Ed
 1e-07 1 1 0
1  2 0 0 0.350003000000001
0

0101000
+489 0 -487 0 *
Ve
1e-07
90.150002 60.200001 0
0 0

0101101
*
Ed
 1e-07 1 1 0
1  3 0 0 0.5
0

0101000
+487 0 -485 0 *
Ve
1e-07
90.150002 63.145977 0
0 0

0101101
*
Ed
 1e-07 1 1 0
1  4 0 0 2.945976
0

0101000
+485 0 -483 0 *
Ve
1e-07
96.800003 63.145977 0
0 0

0101101
*
Ed
 1e-07 1 1 0
1  5 0 0 6.650001
0

0101000
+483 0 -481 0 *
Ve
1e-07
96.800003 81.001572 0
0 0

0101101
*
Ed
 1e-07 1 1 0
1  6 0 0 17.855595
0

0101000
+481 0 -479 0 *
Ve
1e-07
103.25 81.001572 0
0 0

0101101
*
Ed
 1e-07 1 1 0
1  7 0 0 6.449997
0

0101000
+479 0 -477 0 *
Ve
1e-07
103.25 76.923775 0
0 0

0101101
*
Ed
 1e-07 1 1 0
1  8 0 0 4.07779699999999
0

0101000
+477 0 -475 0 *
Ve
1e-07
98.599998 76.923775 0
0 0

0101101
*
Ed
 1e-07 1 1 0
1  9 0 0 4.650002
0

0101000
+475 0 -473 0 *
Ve
1e-07
98.599998 76.574013 0
0 0

0101101
*
Ed
 1e-07 1 1 0
1  10 0 0 0.349762000000013
0

0101000
+473 0 -471 0 *
Ve
1e-07
103.599998 76.574013 0
0 0

0101101
*
Ed
 1e-07 1 1 0
1  11 0 0 5
0

0101000
+471 0 -469 0 *
Ve
1e-07
103.599998 81.001572 0
0 0

0101101
*
Ed
 1e-07 1 1 0
1  12 0 0 4.427559
0

0101000
+469 0 -467 0 *
Ve
1e-07
106.75 81.001572 0
0 0

0101101
*
Ed
 1e-07 1 1 0
1  13 0 0 3.150002
0

0101000
+467 0 -465 0 *
Ve
1e-07
106.75 76.574013 0
0 0

0101101
*
Ed
 1e-07 1 1 0
1  14 0 0 4.427559
0

0101000
+465 0 -463 0 *
Ve
1e-07
111.849998 76.574013 0
0 0

0101101
*
Ed
 1e-07 1 1 0
1  15 0 0 5.099998
0

0101000
+463 0 -461 0 *
Ve
1e-07
111.849998 76.923775 0
0 0

0101101
*
Ed
 1e-07 1 1 0
1  16 0 0 0.349762000000013
0

0101000
+461 0 -459 0 *
Ve
1e-07
111.699997 76.923775 0
0 0

0101101
*
Ed
 1e-07 1 1 0
1  17 0 0 0.150001000000003
0

0101000
+459 0 -457 0 *
Ve
1e-07
111.699997 77.723778 0
0 0

0101101
*
Ed
 1e-07 1 1 0
1  18 0 0 0.80000299999999
0

0101000
+457 0 -455 0 *
Ve
1e-07
111.5 77.723778 0
0 0

0101101
*
Ed
 1e-07 1 1 0
1  19 0 0 0.199996999999996
0

0101000
+455 0 -453 0 *
Ve
1e-07
111.5 76.923775 0
0 0

0101101
*
Ed
 1e-07 1 1 0
1  20 0 0 0.80000299999999
0

0101000
+453 0 -451 0 *
Ve
1e-07
107.099998 76.923775 0
0 0

0101101
*
Ed
 1e-07 1 1 0
1  21 0 0 4.400002
0

0101000
+451 0 -449 0 *
Ve
1e-07
107.099998 81.001572 0
0 0

0101101
*
Ed
 1e-07 1 1 0
1  22 0 0 4.07779699999999
0

0101000
+449 0 -447 0 *
Ve
1e-07
111.5 81.001572 0
0 0

0101101
*
Ed
 1e-07 1 1 0
1  23 0 0 4.400002
0

0101000
+447 0 -445 0 *
Ve
1e-07
111.5 78.523773 0
0 0

0101101
*
Ed
 1e-07 1 1 0
1  24 0 0 2.47779899999999
0

0101000
+445 0 -443 0 *
Ve
1e-07
111.699997 78.523773 0
0 0

0101101
*
Ed
 1e-07 1 1 0
1  25 0 0 0.199996999999996
0

0101000
+443 0 -441 0 *
Ve
1e-07
111.699997 79.001572 0
0 0

0101101
*
Ed
 1e-07 1 1 0
1  26 0 0 0.47779899999999
0

0101000
+441 0 -439 0 *
Ve
1e-07
111.900002 79.001572 0
0 0

0101101
*
Ed
 1e-07 1 1 0
1  27 0 0 0.200005000000004
0

0101000
+439 0 -437 0 *
Ve
1e-07
111.900002 79.201576 0
0 0

0101101
*
Ed
 1e-07 1 1 0
1  28 0 0 0.200004000000007
0

0101000
+437 0 -435 0 *
Ve
1e-07
111.699997 79.201576 0
0 0

0101101
*
Ed
 1e-07 1 1 0
1  29 0 0 0.200005000000004
0

0101000
+435 0 -433 0 *
Ve
1e-07
111.699997 81.001572 0
0 0

0101101
*
Ed
 1e-07 1 1 0
1  30 0 0 1.79999599999999
0

0101000
+433 0 -431 0 *
Ve
1e-07
113.550003 81.001572 0
0 0

0101101
*
Ed
 1e-07 1 1 0
1  31 0 0 1.85000600000001
0

0101000
+431 0 -429 0 *
Ve
1e-07
113.550003 79.201576 0
0 0

0101101
*
Ed
 1e-07 1 1 0
1  32 0 0 1.79999599999999
0

0101000
+429 0 -427 0 *
Ve
1e-07
112.699997 79.201576 0
0 0

0101101
*
Ed
 1e-07 1 1 0
1  33 0 0 0.850006000000008
0

0101000
+427 0 -425 0 *
Ve
1e-07
112.699997 79.001572 0
0 0

0101101
*
Ed
 1e-07 1 1 0
1  34 0 0 0.200004000000007
0

0101000
+425 0 -423 0 *
Ve
1e-07
113.550003 79.001572 0
0 0

0101101
*
Ed
 1e-07 1 1 0
1  35 0 0 0.850006000000008
0

0101000
+423 0 -421 0 *
Ve
1e-07
113.550003 76.923775 0
0 0

0101101
*
Ed
 1e-07 1 1 0
1  36 0 0 2.07779699999999
0

0101000
+421 0 -419 0 *
Ve
1e-07
112.75 76.923775 0
0 0

0101101
*
Ed
 1e-07 1 1 0
1  37 0 0 0.800003000000004
0

0101000
+419 0 -417 0 *
Ve
1e-07
112.75 76.574013 0
0 0

0101101
*
Ed
 1e-07 1 1 0
1  38 0 0 0.349762000000013
0

0101000
+417 0 -415 0 *
Ve
1e-07
114.699997 76.574013 0
0 0

0101101
*
Ed
 1e-07 1 1 0
1  39 0 0 1.949997
0

0101000
+415 0 -413 0 *
Ve
1e-07
114.699997 76.923775 0
0 0

0101101
*
Ed
 1e-07 1 1 0
1  40 0 0 0.349762000000013
0

0101000
+413 0 -411 0 *
Ve
1e-07
113.900002 76.923775 0
0 0

0101101
*
Ed
 1e-07 1 1 0
1  41 0 0 0.799994999999996
0

0101000
+411 0 -409 0 *
Ve
1e-07
113.900002 79.001572 0
0 0

0101101
*
Ed
 1e-07 1 1 0
1  42 0 0 2.07779699999999
0

0101000
+409 0 -407 0 *
Ve
1e-07
114.75 79.001572 0
0 0

0101101
*
Ed
 1e-07 1 1 0
1  43 0 0 0.849997999999999
0

0101000
+407 0 -405 0 *
Ve
1e-07
114.75 79.201576 0
0 0

0101101
*
Ed
 1e-07 1 1 0
1  44 0 0 0.200004000000007
0

0101000
+405 0 -403 0 *
Ve
1e-07
113.900002 79.201576 0
0 0

0101101
*
Ed
 1e-07 1 1 0
1  45 0 0 0.849997999999999
0

0101000
+403 0 -401 0 *
Ve
1e-07
113.900002 81.001572 0
0 0

0101101
*
Ed
 1e-07 1 1 0
1  46 0 0 1.79999599999999
0

0101000
+401 0 -399 0 *
Ve
1e-07
115.75 81.001572 0
0 0

0101101
*
Ed
 1e-07 1 1 0
1  47 0 0 1.849998
0

0101000
+399 0 -397 0 *
Ve
1e-07
115.75 79.201576 0
0 0

0101101
*
Ed
 1e-07 1 1 0
1  48 0 0 1.79999599999999
0

0101000
+397 0 -395 0 *
Ve
1e-07
115.550003 79.201576 0
0 0

0101101
*
Ed
 1e-07 1 1 0
1  49 0 0 0.199996999999996
0

0101000
+395 0 -393 0 *
Ve
1e-07
115.550003 79.001572 0
0 0

0101101
*
Ed
 1e-07 1 1 0
1  50 0 0 0.200004000000007
0

0101000
+393 0 -391 0 *
Ve
1e-07
115.75 79.001572 0
0 0

0101101
*
Ed
 1e-07 1 1 0
1  51 0 0 0.199996999999996
0

0101000
+391 0 -389 0 *
Ve
1e-07
115.75 78.523773 0
0 0

0101101
*
Ed
 1e-07 1 1 0
1  52 0 0 0.47779899999999
0

0101000
+389 0 -387 0 *
Ve
1e-07
115.949997 78.523773 0
0 0

0101101
*
Ed
 1e-07 1 1 0
1  53 0 0 0.199996999999996
0

0101000
+387 0 -385 0 *
Ve
1e-07
115.949997 81.001572 0
0 0

0101101
*
Ed
 1e-07 1 1 0
1  54 0 0 2.47779899999999
0

0101000
+385 0 -383 0 *
Ve
1e-07
120.349998 81.001572 0
0 0

0101101
*
Ed
 1e-07 1 1 0
1  55 0 0 4.400001
0

0101000
+383 0 -381 0 *
Ve
1e-07
120.349998 76.923775 0
0 0

0101101
*
Ed
 1e-07 1 1 0
1  56 0 0 4.07779699999999
0

0101000
+381 0 -379 0 *
Ve
1e-07
115.949997 76.923775 0
0 0

0101101
*
Ed
 1e-07 1 1 0
1  57 0 0 4.400001
0

0101000
+379 0 -377 0 *
Ve
1e-07
115.949997 77.723778 0
0 0

0101101
*
Ed
 1e-07 1 1 0
1  58 0 0 0.80000299999999
0

0101000
+377 0 -375 0 *
Ve
1e-07
115.75 77.723778 0
0 0

0101101
*
Ed
 1e-07 1 1 0
1  59 0 0 0.199996999999996
0

0101000
+375 0 -373 0 *
Ve
1e-07
115.75 76.923775 0
0 0

0101101
*
Ed
 1e-07 1 1 0
1  60 0 0 0.80000299999999
0

0101000
+373 0 -371 0 *
Ve
1e-07
115.599998 76.923775 0
0 0

0101101
*
Ed
 1e-07 1 1 0
1  61 0 0 0.150002000000001
0

0101000
+371 0 -369 0 *
Ve
1e-07
115.599998 76.574013 0
0 0

0101101
*
Ed
 1e-07 1 1 0
1  62 0 0 0.349762000000013
0

0101000
+369 0 -367 0 *
Ve
1e-07
125.449997 76.574013 0
0 0

0101101
*
Ed
 1e-07 1 1 0
1  63 0 0 9.849999
0

0101000
+367 0 -365 0 *
Ve
1e-07
125.449997 76.923775 0
0 0

0101101
*
Ed
 1e-07 1 1 0
1  64 0 0 0.349762000000013
0

0101000
+365 0 -363 0 *
Ve
1e-07
125.300003 76.923775 0
0 0

0101101
*
Ed
 1e-07 1 1 0
1  65 0 0 0.149993999999992
0

0101000
+363 0 -361 0 *
Ve
1e-07
125.300003 77.723778 0
0 0

0101101
*
Ed
 1e-07 1 1 0
1  66 0 0 0.80000299999999
0

0101000
+361 0 -359 0 *
Ve
1e-07
125.099998 77.723778 0
0 0

0101101
*
Ed
 1e-07 1 1 0
1  67 0 0 0.200005000000004
0

0101000
+359 0 -357 0 *
Ve
1e-07
125.099998 76.923775 0
0 0

0101101
*
Ed
 1e-07 1 1 0
1  68 0 0 0.80000299999999
0

0101000
+357 0 -355 0 *
Ve
1e-07
120.699997 76.923775 0
0 0

0101101
*
Ed
 1e-07 1 1 0
1  69 0 0 4.400001
0

0101000
+355 0 -353 0 *
Ve
1e-07
120.699997 81.001572 0
0 0

0101101
*
Ed
 1e-07 1 1 0
1  70 0 0 4.07779699999999
0

0101000
+353 0 -351 0 *
Ve
1e-07
125.099998 81.001572 0
0 0

0101101
*
Ed
 1e-07 1 1 0
1  71 0 0 4.400001
0

0101000
+351 0 -349 0 *
Ve
1e-07
125.099998 78.523773 0
0 0

0101101
*
Ed
 1e-07 1 1 0
1  72 0 0 2.47779899999999
0

0101000
+349 0 -347 0 *
Ve
1e-07
125.300003 78.523773 0
0 0

0101101
*
Ed
 1e-07 1 1 0
1  73 0 0 0.200005000000004
0

0101000
+347 0 -345 0 *
Ve
1e-07
125.300003 79.001572 0
0 0

0101101
*
Ed
 1e-07 1 1 0
1  74 0 0 0.47779899999999
0

0101000
+345 0 -343 0 *
Ve
1e-07
125.5 79.001572 0
0 0

0101101
*
Ed
 1e-07 1 1 0
1  75 0 0 0.199996999999996
0

0101000
+343 0 -341 0 *
Ve
1e-07
125.5 79.201576 0
0 0

0101101
*
Ed
 1e-07 1 1 0
1  76 0 0 0.200004000000007
0

0101000
+341 0 -339 0 *
Ve
1e-07
125.300003 79.201576 0
0 0

0101101
*
Ed
 1e-07 1 1 0
1  77 0 0 0.199996999999996
0

0101000
+339 0 -337 0 *
Ve
1e-07
125.300003 81.001572 0
0 0

0101101
*
Ed
 1e-07 1 1 0
1  78 0 0 1.79999599999999
0

0101000
+337 0 -335 0 *
Ve
1e-07
127.150002 81.001572 0
0 0

0101101
*
Ed
 1e-07 1 1 0
1  79 0 0 1.849999
0

0101000
+335 0 -333 0 *
Ve
1e-07
127.150002 79.201576 0
0 0

0101101
*
Ed
 1e-07 1 1 0
1  80 0 0 1.79999599999999
0

0101000
+333 0 -331 0 *
Ve
1e-07
126.300003 79.201576 0
0 0

0101101
*
Ed
 1e-07 1 1 0
1  81 0 0 0.849998999999997
0

0101000
+331 0 -329 0 *
Ve
1e-07
126.300003 79.001572 0
0 0

0101101
*
Ed
 1e-07 1 1 0
1  82 0 0 0.200004000000007
0

0101000
+329 0 -327 0 *
Ve
1e-07
127.150002 79.001572 0
0 0

0101101
*
Ed
 1e-07 1 1 0
1  83 0 0 0.849998999999997
0

0101000
+327 0 -325 0 *
Ve
1e-07
127.150002 76.923775 0
0 0

0101101
*
Ed
 1e-07 1 1 0
1  84 0 0 2.07779699999999
0

0101000
+325 0 -323 0 *
Ve
1e-07
126.349998 76.923775 0
0 0

0101101
*
Ed
 1e-07 1 1 0
1  85 0 0 0.800004000000001
0

0101000
+323 0 -321 0 *
Ve
1e-07
126.349998 76.574013 0
0 0

0101101
*
Ed
 1e-07 1 1 0
1  86 0 0 0.349762000000013
0

0101000
+321 0 -319 0 *
Ve
1e-07
128.300003 76.574013 0
0 0

0101101
*
Ed
 1e-07 1 1 0
1  87 0 0 1.950005
0

0101000
+319 0 -317 0 *
Ve
1e-07
128.300003 76.923775 0
0 0

0101101
*
Ed
 1e-07 1 1 0
1  88 0 0 0.349762000000013
0

0101000
+317 0 -315 0 *
Ve
1e-07
127.5 76.923775 0
0 0

0101101
*
Ed
 1e-07 1 1 0
1  89 0 0 0.800003000000004
0

0101000
+315 0 -313 0 *
Ve
1e-07
127.5 79.001572 0
0 0

0101101
*
Ed
 1e-07 1 1 0
1  90 0 0 2.07779699999999
0

0101000
+313 0 -311 0 *
Ve
1e-07
128.350006 79.001572 0
0 0

0101101
*
Ed
 1e-07 1 1 0
1  91 0 0 0.850006000000008
0

0101000
+311 0 -309 0 *
Ve
1e-07
128.350006 79.201576 0
0 0

0101101
*
Ed
 1e-07 1 1 0
1  92 0 0 0.200004000000007
0

0101000
+309 0 -307 0 *
Ve
1e-07
127.5 79.201576 0
0 0

0101101
*
Ed
 1e-07 1 1 0
1  93 0 0 0.850006000000008
0

0101000
+307 0 -305 0 *
Ve
1e-07
127.5 81.001572 0
0 0

0101101
*
Ed
 1e-07 1 1 0
1  94 0 0 1.79999599999999
0

0101000
+305 0 -303 0 *
Ve
1e-07
129.350006 81.001572 0
0 0

0101101
*
Ed
 1e-07 1 1 0
1  95 0 0 1.85000600000001
0

0101000
+303 0 -301 0 *
Ve
1e-07
129.350006 79.201576 0
0 0

0101101
*
Ed
 1e-07 1 1 0
1  96 0 0 1.79999599999999
0

0101000
+301 0 -299 0 *
Ve
1e-07
129.149994 79.201576 0
0 0

0101101
*
Ed
 1e-07 1 1 0
1  97 0 0 0.200012000000015
0

0101000
+299 0 -297 0 *
Ve
1e-07
129.149994 79.001572 0
0 0

0101101
*
Ed
 1e-07 1 1 0
1  98 0 0 0.200004000000007
0

0101000
+297 0 -295 0 *
Ve
1e-07
129.350006 79.001572 0
0 0

0101101
*
Ed
 1e-07 1 1 0
1  99 0 0 0.200012000000015
0

0101000
+295 0 -293 0 *
Ve
1e-07
129.350006 78.523773 0
0 0

0101101
*
Ed
 1e-07 1 1 0
1  100 0 0 0.47779899999999
0

0101000
+293 0 -291 0 *
Ve
1e-07
129.550003 78.523773 0
0 0

0101101
*
Ed
 1e-07 1 1 0
1  101 0 0 0.199996999999996
0

0101000
+291 0 -289 0 *
Ve
1e-07
129.550003 81.001572 0
0 0

0101101
*
Ed
 1e-07 1 1 0
1  102 0 0 2.47779899999999
0

0101000
+289 0 -287 0 *
Ve
1e-07
133.949997 81.001572 0
0 0

0101101
*
Ed
 1e-07 1 1 0
1  103 0 0 4.39999399999999
0

0101000
+287 0 -285 0 *
Ve
1e-07
133.949997 76.923775 0
0 0

0101101
*
Ed
 1e-07 1 1 0
1  104 0 0 4.07779699999999
0

0101000
+285 0 -283 0 *
Ve
1e-07
129.550003 76.923775 0
0 0

0101101
*
Ed
 1e-07 1 1 0
1  105 0 0 4.39999399999999
0

0101000
+283 0 -281 0 *
Ve
1e-07
129.550003 77.723778 0
0 0

0101101
*
Ed
 1e-07 1 1 0
1  106 0 0 0.80000299999999
0

0101000
+281 0 -279 0 *
Ve
1e-07
129.350006 77.723778 0
0 0

0101101
*
Ed
 1e-07 1 1 0
1  107 0 0 0.199996999999996
0

0101000
+279 0 -277 0 *
Ve
1e-07
129.350006 76.923775 0
0 0

0101101
*
Ed
 1e-07 1 1 0
1  108 0 0 0.80000299999999
0

0101000
+277 0 -275 0 *
Ve
1e-07
129.199997 76.923775 0
0 0

0101101
*
Ed
 1e-07 1 1 0
1  109 0 0 0.150009000000011
0

0101000
+275 0 -273 0 *
Ve
1e-07
129.199997 76.574013 0
0 0

0101101
*
Ed
 1e-07 1 1 0
1  110 0 0 0.349762000000013
0

0101000
+273 0 -271 0 *
Ve
1e-07
139.050003 76.574013 0
0 0

0101101
*
Ed
 1e-07 1 1 0
1  111 0 0 9.85000600000001
0

0101000
+271 0 -269 0 *
Ve
1e-07
139.050003 76.923775 0
0 0

0101101
*
Ed
 1e-07 1 1 0
1  112 0 0 0.349762000000013
0

0101000
+269 0 -267 0 *
Ve
1e-07
138.899994 76.923775 0
0 0

0101101
*
Ed
 1e-07 1 1 0
1  113 0 0 0.150009000000011
0

0101000
+267 0 -265 0 *
Ve
1e-07
138.899994 77.723778 0
0 0

0101101
*
Ed
 1e-07 1 1 0
1  114 0 0 0.80000299999999
0

0101000
+265 0 -263 0 *
Ve
1e-07
138.699997 77.723778 0
0 0

0101101
*
Ed
 1e-07 1 1 0
1  115 0 0 0.199996999999996
0

0101000
+263 0 -261 0 *
Ve
1e-07
138.699997 76.923775 0
0 0

0101101
*
Ed
 1e-07 1 1 0
1  116 0 0 0.80000299999999
0

0101000
+261 0 -259 0 *
Ve
1e-07
134.300003 76.923775 0
0 0

0101101
*
Ed
 1e-07 1 1 0
1  117 0 0 4.39999399999999
0

0101000
+259 0 -257 0 *
Ve
1e-07
134.300003 81.001572 0
0 0

0101101
*
Ed
 1e-07 1 1 0
1  118 0 0 4.07779699999999
0

0101000
+257 0 -255 0 *
Ve
1e-07
138.699997 81.001572 0
0 0

0101101
*
Ed
 1e-07 1 1 0
1  119 0 0 4.39999399999999
0

0101000
+255 0 -253 0 *
Ve
1e-07
138.699997 78.523773 0
0 0

0101101
*
Ed
 1e-07 1 1 0
1  120 0 0 2.47779899999999
0

0101000
+253 0 -251 0 *
Ve
1e-07
138.899994 78.523773 0
0 0

0101101
*
Ed
 1e-07 1 1 0
1  121 0 0 0.199996999999996
0

0101000
+251 0 -249 0 *
Ve
1e-07
138.899994 79.001572 0
0 0

0101101
*
Ed
 1e-07 1 1 0
1  122 0 0 0.47779899999999
0

0101000
+249 0 -247 0 *
Ve
1e-07
139.100006 79.001572 0
0 0

0101101
*
Ed
 1e-07 1 1 0
1  123 0 0 0.200012000000015
0

0101000
+247 0 -245 0 *
Ve
1e-07
139.100006 79.201576 0
0 0

0101101
*
Ed
 1e-07 1 1 0
1  124 0 0 0.200004000000007
0

0101000
+245 0 -243 0 *
Ve
1e-07
138.899994 79.201576 0
0 0

0101101
*
Ed
 1e-07 1 1 0
1  125 0 0 0.200012000000015
0

0101000
+243 0 -241 0 *
Ve
1e-07
138.899994 81.001572 0
0 0

0101101
*
Ed
 1e-07 1 1 0
1  126 0 0 1.79999599999999
0

0101000
+241 0 -239 0 *
Ve
1e-07
140.75 81.001572 0
0 0

0101101
*
Ed
 1e-07 1 1 0
1  127 0 0 1.85000600000001
0

0101000
+239 0 -237 0 *
Ve
1e-07
140.75 79.201576 0
0 0

0101101
*
Ed
 1e-07 1 1 0
1  128 0 0 1.79999599999999
0

0101000
+237 0 -235 0 *
Ve
1e-07
139.899994 79.201576 0
0 0

0101101
*
Ed
 1e-07 1 1 0
1  129 0 0 0.850006000000008
0

0101000
+235 0 -233 0 *
Ve
1e-07
139.899994 79.001572 0
0 0

0101101
*
Ed
 1e-07 1 1 0
1  130 0 0 0.200004000000007
0

0101000
+233 0 -231 0 *
Ve
1e-07
140.75 79.001572 0
0 0

0101101
*
Ed
 1e-07 1 1 0
1  131 0 0 0.850006000000008
0

0101000
+231 0 -229 0 *
Ve
1e-07
140.75 76.923775 0
0 0

0101101
*
Ed
 1e-07 1 1 0
1  132 0 0 2.07779699999999
0

0101000
+229 0 -227 0 *
Ve
1e-07
139.949997 76.923775 0
0 0

0101101
*
Ed
 1e-07 1 1 0
1  133 0 0 0.800003000000004
0

0101000
+227 0 -225 0 *
Ve
1e-07
139.949997 76.574013 0
0 0

0101101
*
Ed
 1e-07 1 1 0
1  134 0 0 0.349762000000013
0

0101000
+225 0 -223 0 *
Ve
1e-07
141.899994 76.574013 0
0 0

0101101
*
Ed
 1e-07 1 1 0
1  135 0 0 1.949997
0

0101000
+223 0 -221 0 *
Ve
1e-07
141.899994 76.923775 0
0 0

0101101
*
Ed
 1e-07 1 1 0
1  136 0 0 0.349762000000013
0

0101000
+221 0 -219 0 *
Ve
1e-07
141.100006 76.923775 0
0 0

0101101
*
Ed
 1e-07 1 1 0
1  137 0 0 0.799987999999985
0

0101000
+219 0 -217 0 *
Ve
1e-07
141.100006 79.001572 0
0 0

0101101
*
Ed
 1e-07 1 1 0
1  138 0 0 2.07779699999999
0

0101000
+217 0 -215 0 *
Ve
1e-07
141.949997 79.001572 0
0 0

0101101
*
Ed
 1e-07 1 1 0
1  139 0 0 0.849990999999989
0

0101000
+215 0 -213 0 *
Ve
1e-07
141.949997 79.201576 0
0 0

0101101
*
Ed
 1e-07 1 1 0
1  140 0 0 0.200004000000007
0

0101000
+213 0 -211 0 *
Ve
1e-07
141.100006 79.201576 0
0 0

0101101
*
Ed
 1e-07 1 1 0
1  141 0 0 0.849990999999989
0

0101000
+211 0 -209 0 *
Ve
1e-07
141.100006 81.001572 0
0 0

0101101
*
Ed
 1e-07 1 1 0
1  142 0 0 1.79999599999999
0

0101000
+209 0 -207 0 *
Ve
1e-07
142.949997 81.001572 0
0 0

0101101
*
Ed
 1e-07 1 1 0
1  143 0 0 1.84999099999999
0

0101000
+207 0 -205 0 *
Ve
1e-07
142.949997 79.201576 0
0 0

0101101
*
Ed
 1e-07 1 1 0
1  144 0 0 1.79999599999999
0

0101000
+205 0 -203 0 *
Ve
1e-07
142.75 79.201576 0
0 0

0101101
*
Ed
 1e-07 1 1 0
1  145 0 0 0.199996999999996
0

0101000
+203 0 -201 0 *
Ve
1e-07
142.75 79.001572 0
0 0

0101101
*
Ed
 1e-07 1 1 0
1  146 0 0 0.200004000000007
0

0101000
+201 0 -199 0 *
Ve
1e-07
142.949997 79.001572 0
0 0

0101101
*
Ed
 1e-07 1 1 0
1  147 0 0 0.199996999999996
0

0101000
+199 0 -197 0 *
Ve
1e-07
142.949997 78.523773 0
0 0

0101101
*
Ed
 1e-07 1 1 0
1  148 0 0 0.47779899999999
0

0101000
+197 0 -195 0 *
Ve
1e-07
143.149994 78.523773 0
0 0

0101101
*
Ed
 1e-07 1 1 0
1  149 0 0 0.199996999999996
0

0101000
+195 0 -193 0 *
Ve
1e-07
143.149994 81.001572 0
0 0

0101101
*
Ed
 1e-07 1 1 0
1  150 0 0 2.47779899999999
0

0101000
+193 0 -191 0 *
Ve
1e-07
147.550003 81.001572 0
0 0

0101101
*
Ed
 1e-07 1 1 0
1  151 0 0 4.40000900000001
0

0101000
+191 0 -189 0 *
Ve
1e-07
147.550003 76.923775 0
0 0

0101101
*
Ed
 1e-07 1 1 0
1  152 0 0 4.07779699999999
0

0101000
+189 0 -187 0 *
Ve
1e-07
143.149994 76.923775 0
0 0

0101101
*
Ed
 1e-07 1 1 0
1  153 0 0 4.40000900000001
0

0101000
+187 0 -185 0 *
Ve
1e-07
143.149994 77.723778 0
0 0

0101101
*
Ed
 1e-07 1 1 0
1  154 0 0 0.80000299999999
0

0101000
+185 0 -183 0 *
Ve
1e-07
142.949997 77.723778 0
0 0

0101101
*
Ed
 1e-07 1 1 0
1  155 0 0 0.199996999999996
0

0101000
+183 0 -181 0 *
Ve
1e-07
142.949997 76.923775 0
0 0

0101101
*
Ed
 1e-07 1 1 0
1  156 0 0 0.80000299999999
0

0101000
+181 0 -179 0 *
Ve
1e-07
142.800003 76.923775 0
0 0

0101101
*
Ed
 1e-07 1 1 0
1  157 0 0 0.149993999999992
0

0101000
+179 0 -177 0 *
Ve
1e-07
142.800003 76.574013 0
0 0

0101101
*
Ed
 1e-07 1 1 0
1  158 0 0 0.349762000000013
0

0101000
+177 0 -175 0 *
Ve
1e-07
152.649994 76.574013 0
0 0

0101101
*
Ed
 1e-07 1 1 0
1  159 0 0 9.84999099999999
0

0101000
+175 0 -173 0 *
Ve
1e-07
152.649994 76.923775 0
0 0

0101101
*
Ed
 1e-07 1 1 0
1  160 0 0 0.349762000000013
0

0101000
+173 0 -171 0 *
Ve
1e-07
152.5 76.923775 0
0 0

0101101
*
Ed
 1e-07 1 1 0
1  161 0 0 0.149993999999992
0

0101000
+171 0 -169 0 *
Ve
1e-07
152.5 77.723778 0
0 0

0101101
*
Ed
 1e-07 1 1 0
1  162 0 0 0.80000299999999
0

0101000
+169 0 -167 0 *
Ve
1e-07
152.300003 77.723778 0
0 0

0101101
*
Ed
 1e-07 1 1 0
1  163 0 0 0.199996999999996
0

0101000
+167 0 -165 0 *
Ve
1e-07
152.300003 76.923775 0
0 0

0101101
*
Ed
 1e-07 1 1 0
1  164 0 0 0.80000299999999
0

0101000
+165 0 -163 0 *
Ve
1e-07
147.899994 76.923775 0
0 0

0101101
*
Ed
 1e-07 1 1 0
1  165 0 0 4.40000900000001
0

0101000
+163 0 -161 0 *
Ve
1e-07
147.899994 81.001572 0
0 0

0101101
*
Ed
 1e-07 1 1 0
1  166 0 0 4.07779699999999
0

0101000
+161 0 -159 0 *
Ve
1e-07
152.300003 81.001572 0
0 0

0101101
*
Ed
 1e-07 1 1 0
1  167 0 0 4.40000900000001
0

0101000
+159 0 -157 0 *
Ve
1e-07
152.300003 78.523773 0
0 0

0101101
*
Ed
 1e-07 1 1 0
1  168 0 0 2.47779899999999
0

0101000
+157 0 -155 0 *
Ve
1e-07
152.5 78.523773 0
0 0

0101101
*
Ed
 1e-07 1 1 0
1  169 0 0 0.199996999999996
0

0101000
+155 0 -153 0 *
Ve
1e-07
152.5 79.001572 0
0 0

0101101
*
Ed
 1e-07 1 1 0
1  170 0 0 0.47779899999999
0

0101000
+153 0 -151 0 *
Ve
1e-07
152.699997 79.001572 0
0 0

0101101
*
Ed
 1e-07 1 1 0
1  171 0 0 0.199996999999996
0

0101000
+151 0 -149 0 *
Ve
1e-07
152.699997 79.201576 0
0 0

0101101
*
Ed
 1e-07 1 1 0
1  172 0 0 0.200004000000007
0

0101000
+149 0 -147 0 *
Ve
1e-07
152.5 79.201576 0
0 0

0101101
*
Ed
 1e-07 1 1 0
1  173 0 0 0.199996999999996
0

0101000
+147 0 -145 0 *
Ve
1e-07
152.5 81.001572 0
0 0

0101101
*
Ed
 1e-07 1 1 0
1  174 0 0 1.79999599999999
0

0101000
+145 0 -143 0 *
Ve
1e-07
154.350006 81.001572 0
0 0

0101101
*
Ed
 1e-07 1 1 0
1  175 0 0 1.85000600000001
0

0101000
+143 0 -141 0 *
Ve
1e-07
154.350006 79.201576 0
0 0

0101101
*
Ed
 1e-07 1 1 0
1  176 0 0 1.79999599999999
0

0101000
+141 0 -139 0 *
Ve
1e-07
153.5 79.201576 0
0 0

0101101
*
Ed
 1e-07 1 1 0
1  177 0 0 0.850006000000008
0

0101000
+139 0 -137 0 *
Ve
1e-07
153.5 79.001572 0
0 0

0101101
*
Ed
 1e-07 1 1 0
1  178 0 0 0.200004000000007
0

0101000
+137 0 -135 0 *
Ve
1e-07
154.350006 79.001572 0
0 0

0101101
*
Ed
 1e-07 1 1 0
1  179 0 0 0.850006000000008
0

0101000
+135 0 -133 0 *
Ve
1e-07
154.350006 76.923775 0
0 0

0101101
*
Ed
 1e-07 1 1 0
1  180 0 0 2.07779699999999
0

0101000
+133 0 -131 0 *
Ve
1e-07
153.550003 76.923775 0
0 0

0101101
*
Ed
 1e-07 1 1 0
1  181 0 0 0.800003000000004
0

0101000
+131 0 -129 0 *
Ve
1e-07
153.550003 76.574013 0
0 0

0101101
*
Ed
 1e-07 1 1 0
1  182 0 0 0.349762000000013
0

0101000
+129 0 -127 0 *
Ve
1e-07
155.5 76.574013 0
0 0

0101101
*
Ed
 1e-07 1 1 0
1  183 0 0 1.949997
0

0101000
+127 0 -125 0 *
Ve
1e-07
155.5 76.923775 0
0 0

0101101
*
Ed
 1e-07 1 1 0
1  184 0 0 0.349762000000013
0

0101000
+125 0 -123 0 *
Ve
1e-07
154.699997 76.923775 0
0 0

0101101
*
Ed
 1e-07 1 1 0
1  185 0 0 0.800003000000004
0

0101000
+123 0 -121 0 *
Ve
1e-07
154.699997 79.001572 0
0 0

0101101
*
Ed
 1e-07 1 1 0
1  186 0 0 2.07779699999999
0

0101000
+121 0 -119 0 *
Ve
1e-07
155.550003 79.001572 0
0 0

0101101
*
Ed
 1e-07 1 1 0
1  187 0 0 0.850006000000008
0

0101000
+119 0 -117 0 *
Ve
1e-07
155.550003 79.201576 0
0 0

0101101
*
Ed
 1e-07 1 1 0
1  188 0 0 0.200004000000007
0

0101000
+117 0 -115 0 *
Ve
1e-07
154.699997 79.201576 0
0 0

0101101
*
Ed
 1e-07 1 1 0
1  189 0 0 0.850006000000008
0

0101000
+115 0 -113 0 *
Ve
1e-07
154.699997 81.001572 0
0 0

0101101
*
Ed
 1e-07 1 1 0
1  190 0 0 1.79999599999999
0

0101000
+113 0 -111 0 *
Ve
1e-07
156.550003 81.001572 0
0 0

0101101
*
Ed
 1e-07 1 1 0
1  191 0 0 1.85000600000001
0

0101000
+111 0 -109 0 *
Ve
1e-07
156.550003 79.201576 0
0 0

0101101
*
Ed
 1e-07 1 1 0
1  192 0 0 1.79999599999999
0

0101000
+109 0 -107 0 *
Ve
1e-07
156.350006 79.201576 0
0 0

0101101
*
Ed
 1e-07 1 1 0
1  193 0 0 0.199996999999996
0

0101000
+107 0 -105 0 *
Ve
1e-07
156.350006 79.001572 0
0 0

0101101
*
Ed
 1e-07 1 1 0
1  194 0 0 0.200004000000007
0

0101000
+105 0 -103 0 *
Ve
1e-07
156.550003 79.001572 0
0 0

0101101
*
Ed
 1e-07 1 1 0
1  195 0 0 0.199996999999996
0

0101000
+103 0 -101 0 *
Ve
1e-07
156.550003 78.523773 0
0 0

0101101
*
Ed
 1e-07 1 1 0
1  196 0 0 0.47779899999999
0

0101000
+101 0 -99 0 *
Ve
1e-07
156.75 78.523773 0
0 0

0101101
*
Ed
 1e-07 1 1 0
1  197 0 0 0.199996999999996
0

0101000
+99 0 -97 0 *
Ve
1e-07
156.75 81.001572 0
0 0

0101101
*
Ed
 1e-07 1 1 0
1  198 0 0 2.47779899999999
0

0101000
+97 0 -95 0 *
Ve
1e-07
161.149994 81.001572 0
0 0

0101101
*
Ed
 1e-07 1 1 0
1  199 0 0 4.39999399999999
0

0101000
+95 0 -93 0 *
Ve
1e-07
161.149994 76.923775 0
0 0

0101101
*
Ed
 1e-07 1 1 0
1  200 0 0 4.07779699999999
0

0101000
+93 0 -91 0 *
Ve
1e-07
156.75 76.923775 0
0 0

0101101
*
Ed
 1e-07 1 1 0
1  201 0 0 4.39999399999999
0

0101000
+91 0 -89 0 *
Ve
1e-07
156.75 77.723778 0
0 0

0101101
*
Ed
 1e-07 1 1 0
1  202 0 0 0.80000299999999
0

0101000
+89 0 -87 0 *
Ve
1e-07
156.550003 77.723778 0
0 0

0101101
*
Ed
 1e-07 1 1 0
1  203 0 0 0.199996999999996
0

0101000
+87 0 -85 0 *
Ve
1e-07
156.550003 76.923775 0
0 0

0101101
*
Ed
 1e-07 1 1 0
1  204 0 0 0.80000299999999
0

0101000
+85 0 -83 0 *
Ve
1e-07
156.399994 76.923775 0
0 0

0101101
*
Ed
 1e-07 1 1 0
1  205 0 0 0.150009000000011
0

0101000
+83 0 -81 0 *
Ve
1e-07
156.399994 76.574013 0
0 0

0101101
*
Ed
 1e-07 1 1 0
1  206 0 0 0.349762000000013
0

0101000
+81 0 -79 0 *
Ve
1e-07
161.5 76.574013 0
0 0

0101101
*
Ed
 1e-07 1 1 0
1  207 0 0 5.10000600000001
0

0101000
+79 0 -77 0 *
Ve
1e-07
161.5 81.001572 0
0 0

0101101
*
Ed
 1e-07 1 1 0
1  208 0 0 4.427559
0

0101000
+77 0 -75 0 *
Ve
1e-07
164.649994 81.001572 0
0 0

0101101
*
Ed
 1e-07 1 1 0
1  209 0 0 3.14999399999999
0

0101000
+75 0 -73 0 *
Ve
1e-07
164.649994 76.074013 0
0 0

0101101
*
Ed
 1e-07 1 1 0
1  210 0 0 4.927559
0

0101000
+73 0 -71 0 *
Ve
1e-07
165 76.074013 0
0 0

0101101
*
Ed
 1e-07 1 1 0
1  211 0 0 0.350006000000008
0

0101000
+71 0 -69 0 *
Ve
1e-07
165 81.001572 0
0 0

0101101
*
Ed
 1e-07 1 1 0
1  212 0 0 4.927559
0

0101000
+69 0 -67 0 *
Ve
1e-07
166.800003 81.001572 0
0 0

0101101
*
Ed
 1e-07 1 1 0
1  213 0 0 1.800003
0

0101000
+67 0 -65 0 *
Ve
1e-07
166.800003 78.32354 0
0 0

0101101
*
Ed
 1e-07 1 1 0
1  214 0 0 2.678032
0

0101000
+65 0 -63 0 *
Ve
1e-07
167 78.32354 0
0 0

0101101
*
Ed
 1e-07 1 1 0
1  215 0 0 0.199996999999996
0

0101000
+63 0 -61 0 *
Ve
1e-07
167 81.001572 0
0 0

0101101
*
Ed
 1e-07 1 1 0
1  216 0 0 2.678032
0

0101000
+61 0 -59 0 *
Ve
1e-07
171.399994 81.001572 0
0 0

0101101
*
Ed
 1e-07 1 1 0
1  217 0 0 4.39999399999999
0

0101000
+59 0 -57 0 *
Ve
1e-07
171.399994 76.848778 0
0 0

0101101
*
Ed
 1e-07 1 1 0
1  218 0 0 4.152794
0

0101000
+57 0 -55 0 *
Ve
1e-07
167 76.848778 0
0 0

0101101
*
Ed
 1e-07 1 1 0
1  219 0 0 4.39999399999999
0

0101000
+55 0 -53 0 *
Ve
1e-07
167 77.423538 0
0 0

0101101
*
Ed
 1e-07 1 1 0
1  220 0 0 0.574759999999998
0

0101000
+53 0 -51 0 *
Ve
1e-07
166.800003 77.423538 0
0 0

0101101
*
Ed
 1e-07 1 1 0
1  221 0 0 0.199996999999996
0

0101000
+51 0 -49 0 *
Ve
1e-07
166.800003 76.074013 0
0 0

0101101
*
Ed
 1e-07 1 1 0
1  222 0 0 1.349525
0

0101000
+49 0 -47 0 *
Ve
1e-07
167 76.074013 0
0 0

0101101
*
Ed
 1e-07 1 1 0
1  223 0 0 0.199996999999996
0

0101000
+47 0 -45 0 *
Ve
1e-07
167 76.648773 0
0 0

0101101
*
Ed
 1e-07 1 1 0
1  224 0 0 0.574760000000012
0

0101000
+45 0 -43 0 *
Ve
1e-07
171.399994 76.648773 0
0 0

0101101
*
Ed
 1e-07 1 1 0
1  225 0 0 4.39999399999999
0

0101000
+43 0 -41 0 *
Ve
1e-07
171.399994 72.495979 0
0 0

0101101
*
Ed
 1e-07 1 1 0
1  226 0 0 4.152794
0

0101000
+41 0 -39 0 *
Ve
1e-07
167 72.495979 0
0 0

0101101
*
Ed
 1e-07 1 1 0
1  227 0 0 4.39999399999999
0

0101000
+39 0 -37 0 *
Ve
1e-07
167 75.174011 0
0 0

0101101
*
Ed
 1e-07 1 1 0
1  228 0 0 2.67803199999999
0

0101000
+37 0 -35 0 *
Ve
1e-07
166.800003 75.174011 0
0 0

0101101
*
Ed
 1e-07 1 1 0
1  229 0 0 0.199996999999996
0

0101000
+35 0 -33 0 *
Ve
1e-07
166.800003 72.495979 0
0 0

0101101
*
Ed
 1e-07 1 1 0
1  230 0 0 2.67803199999999
0

0101000
+33 0 -31 0 *
Ve
1e-07
165 72.495979 0
0 0

0101101
*
Ed
 1e-07 1 1 0
1  231 0 0 1.800003
0

0101000
+31 0 -29 0 *
Ve
1e-07
165 75.174011 0
0 0

0101101
*
Ed
 1e-07 1 1 0
1  232 0 0 2.67803199999999
0

0101000
+29 0 -27 0 *
Ve
1e-07
164.649994 75.174011 0
0 0

0101101
*
Ed
 1e-07 1 1 0
1  233 0 0 0.350006000000008
0

0101000
+27 0 -25 0 *
Ve
1e-07
164.649994 72.495979 0
0 0

0101101
*
Ed
 1e-07 1 1 0
1  234 0 0 2.67803199999999
0

0101000
+25 0 -23 0 *
Ve
1e-07
98.949997 72.495979 0
0 0

0101101
*
Ed
 1e-07 1 1 0
1  235 0 0 65.699997
0

0101000
+23 0 -21 0 *
Ve
1e-07
98.949997 74.350235 0
0 0

0101101
*
Ed
 1e-07 1 1 0
1  236 0 0 1.85425599999999
0

0101000
+21 0 -19 0 *
Ve
1e-07
98.599998 74.350235 0
0 0

0101101
*
Ed
 1e-07 1 1 0
1  237 0 0 0.349998999999997
0

0101000
+19 0 -17 0 *
Ve
1e-07
98.599998 60.200001 0
0 0

0101101
*
Ed
 1e-07 1 1 0
1  238 0 0 14.150234
0

0101000
+17 0 -15 0 *
Ve
1e-07
91.550003 60.200001 0
0 0

0101101
*
Ed
 1e-07 1 1 0
1  239 0 0 7.049995
0

0101000
+15 0 -13 0 *
Ve
1e-07
91.550003 59.849998 0
0 0

0101101
*
Ed
 1e-07 1 1 0
1  240 0 0 0.350003000000001
0

0101000
+13 0 -11 0 *
Ve
1e-07
99.650002 59.849998 0
0 0

0101101
*
Ed
 1e-07 1 1 0
1  241 0 0 8.099999
0

0101000
+11 0 -9 0 *
Ve
1e-07
99.650002 50.349998 0
0 0

0101101
*
Ed
 1e-07 1 1 0
1  242 0 0 9.5
0

0101000
+9 0 -7 0 *
Ve
1e-07
90.150002 50.349998 0
0 0

0101101
*
Ed
 1e-07 1 1 0
1  243 0 0 9.5
0

0101000
+7 0 -5 0 *
Ed
 1e-07 1 1 0
1  244 0 0 9.5
0

0101000
+5 0 -490 0 *
Wi

0101100
+488 0 +486 0 +484 0 +482 0 +480 0 +478 0 +476 0 +474 0 +472 0 +470 0 
+468 0 +466 0 +464 0 +462 0 +460 0 +458 0 +456 0 +454 0 +452 0 +450 0 
+448 0 +446 0 +444 0 +442 0 +440 0 +438 0 +436 0 +434 0 +432 0 +430 0 
+428 0 +426 0 +424 0 +422 0 +420 0 +418 0 +416 0 +414 0 +412 0 +410 0 
+408 0 +406 0 +404 0 +402 0 +400 0 +398 0 +396 0 +394 0 +392 0 +390 0 
+388 0 +386 0 +384 0 +382 0 +380 0 +378 0 +376 0 +374 0 +372 0 +370 0 
+368 0 +366 0 +364 0 +362 0 +360 0 +358 0 +356 0 +354 0 +352 0 +350 0 
+348 0 +346 0 +344 0 +342 0 +340 0 +338 0 +336 0 +334 0 +332 0 +330 0 
+328 0 +326 0 +324 0 +322 0 +320 0 +318 0 +316 0 +314 0 +312 0 +310 0 
+308 0 +306 0 +304 0 +302 0 +300 0 +298 0 +296 0 +294 0 +292 0 +290 0 
+288 0 +286 0 +284 0 +282 0 +280 0 +278 0 +276 0 +274 0 +272 0 +270 0 
+268 0 +266 0 +264 0 +262 0 +260 0 +258 0 +256 0 +254 0 +252 0 +250 0 
+248 0 +246 0 +244 0 +242 0 +240 0 +238 0 +236 0 +234 0 +232 0 +230 0 
+228 0 +226 0 +224 0 +222 0 +220 0 +218 0 +216 0 +214 0 +212 0 +210 0 
+208 0 +206 0 +204 0 +202 0 +200 0 +198 0 +196 0 +194 0 +192 0 +190 0 
+188 0 +186 0 +184 0 +182 0 +180 0 +178 0 +176 0 +174 0 +172 0 +170 0 
+168 0 +166 0 +164 0 +162 0 +160 0 +158 0 +156 0 +154 0 +152 0 +150 0 
+148 0 +146 0 +144 0 +142 0 +140 0 +138 0 +136 0 +134 0 +132 0 +130 0 
+128 0 +126 0 +124 0 +122 0 +120 0 +118 0 +116 0 +114 0 +112 0 +110 0 
+108 0 +106 0 +104 0 +102 0 +100 0 +98 0 +96 0 +94 0 +92 0 +90 0 
+88 0 +86 0 +84 0 +82 0 +80 0 +78 0 +76 0 +74 0 +72 0 +70 0 
+68 0 +66 0 +64 0 +62 0 +60 0 +58 0 +56 0 +54 0 +52 0 +50 0 
+48 0 +46 0 +44 0 +42 0 +40 0 +38 0 +36 0 +34 0 +32 0 +30 0 
+28 0 +26 0 +24 0 +22 0 +20 0 +18 0 +16 0 +14 0 +12 0 +10 0 
+8 0 +6 0 +4 0 +3 0 *
Fa
0  1e-07 1 0

1111000
+2 0 *

+1 0 