
CASCADE Topology V3, (c) Open Cascade
Locations 0
Curve2ds 0
Curves 280
1 90.150002000000001 59.849997999999999 0 1 0 0 
1 90.650002000000001 59.849997999999999 0 0 1 0 
1 90.650002000000001 60.200001 0 -1 0 0 
1 90.150002000000001 60.200001 0 0 1 0 
1 90.150002000000001 63.145977000000002 0 1 0 0 
1 93.474997999999999 63.145977000000002 0 1 0 0 
1 96.800003000000004 63.145977000000002 0 0 1 0 
1 96.800003000000004 67.609879000000006 0 0 1 0 
1 96.800003000000004 72.073775999999995 0 0 1 0 
1 96.800003000000004 76.537673999999996 0 0 1 0 
1 96.800003000000004 81.001571999999996 0 1 0 0 
1 100.025002 81.001571999999996 0 1 0 0 
1 103.25 81.001571999999996 0 0 -1 0 
1 103.25 76.923775000000006 0 -1 0 0 
1 98.599997999999999 76.923775000000006 0 0 -1 0 
1 98.599997999999999 76.574012999999994 0 1 0 0 
1 101.099998 76.574012999999994 0 1 0 0 
1 103.599998 76.574012999999994 0 0 1 0 
1 103.599998 81.001571999999996 0 1 0 0 
1 106.75 81.001571999999996 0 0 -1 0 
1 106.75 76.574012999999994 0 1 0 0 
1 109.300003 76.574012999999994 0 1 0 0 
1 111.849998 76.574012999999994 0 0 1 0 
1 111.849998 76.923775000000006 0 -1 0 0 
1 111.699997 76.923775000000006 0 0 1 0 
1 111.699997 77.723777999999996 0 -1 0 0 
1 111.5 77.723777999999996 0 0 -1 0 
1 111.5 76.923775000000006 0 -1 0 0 
1 107.099998 76.923775000000006 0 0 1 0 
1 107.099998 81.001571999999996 0 1 0 0 
1 111.5 81.001571999999996 0 0 -1 0 
1 111.5 78.523773000000006 0 1 0 0 
1 111.699997 78.523773000000006 0 0 1 0 
1 111.699997 79.001571999999996 0 1 0 0 
1 111.900002 79.001571999999996 0 0 1 0 
1 111.900002 79.201576000000003 0 -1 0 0 
1 111.699997 79.201576000000003 0 0 1 0 
1 111.699997 81.001571999999996 0 1 0 0 
1 113.550003 81.001571999999996 0 0 -1 0 
1 113.550003 79.201576000000003 0 -1 0 0 
1 112.699997 79.201576000000003 0 0 -1 0 
1 112.699997 79.001571999999996 0 1 0 0 
1 113.550003 79.001571999999996 0 0 -1 0 
1 113.550003 76.923775000000006 0 -1 0 0 
1 112.75 76.923775000000006 0 0 -1 0 
1 112.75 76.574012999999994 0 1 0 0 
1 114.699997 76.574012999999994 0 0 1 0 
1 114.699997 76.923775000000006 0 -1 0 0 
1 113.900002 76.923775000000006 0 0 1 0 
1 113.900002 79.001571999999996 0 1 0 0 
1 114.75 79.001571999999996 0 0 1 0 
1 114.75 79.201576000000003 0 -1 0 0 
1 113.900002 79.201576000000003 0 0 1 0 
1 113.900002 81.001571999999996 0 1 0 0 
1 115.75 81.001571999999996 0 0 -1 0 
1 115.75 79.201576000000003 0 -1 0 0 
1 115.550003 79.201576000000003 0 0 -1 0 
1 115.550003 79.001571999999996 0 1 0 0 
1 115.75 79.001571999999996 0 0 -1 0 
1 115.75 78.523773000000006 0 1 0 0 
1 115.949997 78.523773000000006 0 0 1 0 
1 115.949997 81.001571999999996 0 1 0 0 
1 120.349998 81.001571999999996 0 0 -1 0 
1 120.349998 76.923775000000006 0 -1 0 0 
1 115.949997 76.923775000000006 0 0 1 0 
1 115.949997 77.723777999999996 0 -1 0 0 
1 115.75 77.723777999999996 0 0 -1 0 
1 115.75 76.923775000000006 0 -1 0 0 
1 115.599998 76.923775000000006 0 0 -1 0 
1 115.599998 76.574012999999994 0 1 0 0 
1 118.883331 76.574012999999994 0 1 0 0 
1 122.166664 76.574012999999994 0 1 0 0 
1 125.449997 76.574012999999994 0 0 1 0 
1 125.449997 76.923775000000006 0 -1 0 0 
1 125.300003 76.923775000000006 0 0 1 0 
1 125.300003 77.723777999999996 0 -1 0 0 
1 125.099998 77.723777999999996 0 0 -1 0 
1 125.099998 76.923775000000006 0 -1 0 0 
1 120.699997 76.923775000000006 0 0 1 0 
1 120.699997 81.001571999999996 0 1 0 0 
1 125.099998 81.001571999999996 0 0 -1 0 
1 125.099998 78.523773000000006 0 1 0 0 
1 125.300003 78.523773000000006 0 0 1 0 
1 125.300003 79.001571999999996 0 1 0 0 
1 125.5 79.001571999999996 0 0 1 0 
1 125.5 79.201576000000003 0 -1 0 0 
1 125.300003 79.201576000000003 0 0 1 0 
1 125.300003 81.001571999999996 0 1 0 0 
1 127.150002 81.001571999999996 0 0 -1 0 
1 127.150002 79.201576000000003 0 -1 0 0 
1 126.300003 79.201576000000003 0 0 -1 0 
1 126.300003 79.001571999999996 0 1 0 0 
1 127.150002 79.001571999999996 0 0 -1 0 
1 127.150002 76.923775000000006 0 -1 0 0 
1 126.349998 76.923775000000006 0 0 -1 0 
1 126.349998 76.574012999999994 0 1 0 0 
1 128.300003 76.574012999999994 0 0 1 0 
1 128.300003 76.923775000000006 0 -1 0 0 
1 127.5 76.923775000000006 0 0 1 0 
1 127.5 79.001571999999996 0 1 0 0 
1 128.35000600000001 79.001571999999996 0 0 1 0 
1 128.35000600000001 79.201576000000003 0 -1 0 0 
1 127.5 79.201576000000003 0 0 1 0 
1 127.5 81.001571999999996 0 1 0 0 
1 129.35000600000001 81.001571999999996 0 0 -1 0 
1 129.35000600000001 79.201576000000003 0 -1 0 0 
1 129.14999399999999 79.201576000000003 0 0 -1 0 
1 129.14999399999999 79.001571999999996 0 1 0 0 
1 129.35000600000001 79.001571999999996 0 0 -1 0 
1 129.35000600000001 78.523773000000006 0 1 0 0 
1 129.550003 78.523773000000006 0 0 1 0 
1 129.550003 81.001571999999996 0 1 0 0 
1 133.949997 81.001571999999996 0 0 -1 0 
1 133.949997 76.923775000000006 0 -1 0 0 
1 129.550003 76.923775000000006 0 0 1 0 
1 129.550003 77.723777999999996 0 -1 0 0 
1 129.35000600000001 77.723777999999996 0 0 -1 0 
1 129.35000600000001 76.923775000000006 0 -1 0 0 
1 129.199997 76.923775000000006 0 0 -1 0 
1 129.199997 76.574012999999994 0 1 0 0 
1 132.48333700000001 76.574012999999994 0 1 0 0 
1 135.76666299999999 76.574012999999994 0 1 0 0 
1 139.050003 76.574012999999994 0 0 1 0 
1 139.050003 76.923775000000006 0 -1 0 0 
1 138.89999399999999 76.923775000000006 0 0 1 0 
1 138.89999399999999 77.723777999999996 0 -1 0 0 
1 138.699997 77.723777999999996 0 0 -1 0 
1 138.699997 76.923775000000006 0 -1 0 0 
1 134.300003 76.923775000000006 0 0 1 0 
1 134.300003 81.001571999999996 0 1 0 0 
1 138.699997 81.001571999999996 0 0 -1 0 
1 138.699997 78.523773000000006 0 1 0 0 
1 138.89999399999999 78.523773000000006 0 0 1 0 
1 138.89999399999999 79.001571999999996 0 1 0 0 
1 139.10000600000001 79.001571999999996 0 0 1 0 
1 139.10000600000001 79.201576000000003 0 -1 0 0 
1 138.89999399999999 79.201576000000003 0 0 1 0 
1 138.89999399999999 81.001571999999996 0 1 0 0 
1 140.75 81.001571999999996 0 0 -1 0 
1 140.75 79.201576000000003 0 -1 0 0 
1 139.89999399999999 79.201576000000003 0 0 -1 0 
1 139.89999399999999 79.001571999999996 0 1 0 0 
1 140.75 79.001571999999996 0 0 -1 0 
1 140.75 76.923775000000006 0 -1 0 0 
1 139.949997 76.923775000000006 0 0 -1 0 
1 139.949997 76.574012999999994 0 1 0 0 
1 141.89999399999999 76.574012999999994 0 0 1 0 
1 141.89999399999999 76.923775000000006 0 -1 0 0 
1 141.10000600000001 76.923775000000006 0 0 1 0 
1 141.10000600000001 79.001571999999996 0 1 0 0 
1 141.949997 79.001571999999996 0 0 1 0 
1 141.949997 79.201576000000003 0 -1 0 0 
1 141.10000600000001 79.201576000000003 0 0 1 0 
1 141.10000600000001 81.001571999999996 0 1 0 0 
1 142.949997 81.001571999999996 0 0 -1 0 
1 142.949997 79.201576000000003 0 -1 0 0 
1 142.75 79.201576000000003 0 0 -1 0 
1 142.75 79.001571999999996 0 1 0 0 
1 142.949997 79.001571999999996 0 0 -1 0 
1 142.949997 78.523773000000006 0 1 0 0 
1 143.14999399999999 78.523773000000006 0 0 1 0 
1 143.14999399999999 81.001571999999996 0 1 0 0 
1 147.550003 81.001571999999996 0 0 -1 0 
1 147.550003 76.923775000000006 0 -1 0 0 
1 143.14999399999999 76.923775000000006 0 0 1 0 
1 143.14999399999999 77.723777999999996 0 -1 0 0 
1 142.949997 77.723777999999996 0 0 -1 0 
1 142.949997 76.923775000000006 0 -1 0 0 
1 142.800003 76.923775000000006 0 0 -1 0 
1 142.800003 76.574012999999994 0 1 0 0 
1 146.08332799999999 76.574012999999994 0 1 0 0 
1 149.366669 76.574012999999994 0 1 0 0 
1 152.64999399999999 76.574012999999994 0 0 1 0 
1 152.64999399999999 76.923775000000006 0 -1 0 0 
1 152.5 76.923775000000006 0 0 1 0 
1 152.5 77.723777999999996 0 -1 0 0 
1 152.300003 77.723777999999996 0 0 -1 0 
1 152.300003 76.923775000000006 0 -1 0 0 
1 147.89999399999999 76.923775000000006 0 0 1 0 
1 147.89999399999999 81.001571999999996 0 1 0 0 
1 152.300003 81.001571999999996 0 0 -1 0 
1 152.300003 78.523773000000006 0 1 0 0 
1 152.5 78.523773000000006 0 0 1 0 
1 152.5 79.001571999999996 0 1 0 0 
1 152.699997 79.001571999999996 0 0 1 0 
1 152.699997 79.201576000000003 0 -1 0 0 
1 152.5 79.201576000000003 0 0 1 0 
1 152.5 81.001571999999996 0 1 0 0 
1 154.35000600000001 81.001571999999996 0 0 -1 0 
1 154.35000600000001 79.201576000000003 0 -1 0 0 
1 153.5 79.201576000000003 0 0 -1 0 
1 153.5 79.001571999999996 0 1 0 0 
1 154.35000600000001 79.001571999999996 0 0 -1 0 
1 154.35000600000001 76.923775000000006 0 -1 0 0 
1 153.550003 76.923775000000006 0 0 -1 0 
1 153.550003 76.574012999999994 0 1 0 0 
1 155.5 76.574012999999994 0 0 1 0 
1 155.5 76.923775000000006 0 -1 0 0 
1 154.699997 76.923775000000006 0 0 1 0 
1 154.699997 79.001571999999996 0 1 0 0 
1 155.550003 79.001571999999996 0 0 1 0 
1 155.550003 79.201576000000003 0 -1 0 0 
1 154.699997 79.201576000000003 0 0 1 0 
1 154.699997 81.001571999999996 0 1 0 0 
1 156.550003 81.001571999999996 0 0 -1 0 
1 156.550003 79.201576000000003 0 -1 0 0 
1 156.35000600000001 79.201576000000003 0 0 -1 0 
1 156.35000600000001 79.001571999999996 0 1 0 0 
1 156.550003 79.001571999999996 0 0 -1 0 
1 156.550003 78.523773000000006 0 1 0 0 
1 156.75 78.523773000000006 0 0 1 0 
1 156.75 81.001571999999996 0 1 0 0 
1 161.14999399999999 81.001571999999996 0 0 -1 0 
1 161.14999399999999 76.923775000000006 0 -1 0 0 
1 156.75 76.923775000000006 0 0 1 0 
1 156.75 77.723777999999996 0 -1 0 0 
1 156.550003 77.723777999999996 0 0 -1 0 
1 156.550003 76.923775000000006 0 -1 0 0 
1 156.39999399999999 76.923775000000006 0 0 -1 0 
1 156.39999399999999 76.574012999999994 0 1 0 0 
1 158.949997 76.574012999999994 0 1 0 0 
1 161.5 76.574012999999994 0 0 1 0 
1 161.5 81.001571999999996 0 1 0 0 
1 164.64999399999999 81.001571999999996 0 0 -1 0 
1 164.64999399999999 78.537796 0 0 -1 0 
1 164.64999399999999 76.074012999999994 0 1 0 0 
1 165 76.074012999999994 0 0 1 0 
1 165 78.537796 0 0 1 0 
1 165 81.001571999999996 0 1 0 0 
1 166.800003 81.001571999999996 0 0 -1 0 
1 166.800003 78.323539999999994 0 1 0 0 
1 167 78.323539999999994 0 0 1 0 
1 167 81.001571999999996 0 1 0 0 
1 171.39999399999999 81.001571999999996 0 0 -1 0 
1 171.39999399999999 76.848777999999996 0 -1 0 0 
1 167 76.848777999999996 0 0 1 0 
1 167 77.423537999999994 0 -1 0 0 
1 166.800003 77.423537999999994 0 0 -1 0 
1 166.800003 76.074012999999994 0 1 0 0 
1 167 76.074012999999994 0 0 1 0 
1 167 76.648773000000006 0 1 0 0 
1 171.39999399999999 76.648773000000006 0 0 -1 0 
1 171.39999399999999 72.495979000000005 0 -1 0 0 
1 167 72.495979000000005 0 0 1 0 
1 167 75.174010999999993 0 -1 0 0 
1 166.800003 75.174010999999993 0 0 -1 0 
1 166.800003 72.495979000000005 0 -1 0 0 
1 165 72.495979000000005 0 0 1 0 
1 165 75.174010999999993 0 -1 0 0 
1 164.64999399999999 75.174010999999993 0 0 -1 0 
1 164.64999399999999 72.495979000000005 0 -1 0 0 
1 159.95713799999999 72.495979000000005 0 -1 0 0 
1 155.26428200000001 72.495979000000005 0 -1 0 0 
1 150.571426 72.495979000000005 0 -1 0 0 
1 145.87857099999999 72.495979000000005 0 -1 0 0 
1 141.18571499999999 72.495979000000005 0 -1 0 0 
1 136.49285900000001 72.495979000000005 0 -1 0 0 
1 131.800003 72.495979000000005 0 -1 0 0 
1 127.10714 72.495979000000005 0 -1 0 0 
1 122.41428399999999 72.495979000000005 0 -1 0 0 
1 117.721428 72.495979000000005 0 -1 0 0 
1 113.028572 72.495979000000005 0 -1 0 0 
1 108.33571600000001 72.495979000000005 0 -1 0 0 
1 103.64286 72.495979000000005 0 -1 0 0 
1 98.949996999999996 72.495979000000005 0 0 1 0 
1 98.949996999999996 74.350234999999998 0 -1 0 0 
1 98.599997999999999 74.350234999999998 0 0 -1 0 
1 98.599997999999999 69.633492000000004 0 0 -1 0 
1 98.599997999999999 64.916747999999998 0 0 -1 0 
1 98.599997999999999 60.200001 0 -1 0 0 
1 95.074996999999996 60.200001 0 -1 0 0 
1 91.550003000000004 60.200001 0 0 -1 0 
1 91.550003000000004 59.849997999999999 0 1 0 0 
1 95.599997999999999 59.849997999999999 0 1 0 0 
1 99.650002000000001 59.849997999999999 0 0 -1 0 
1 99.650002000000001 55.099997999999999 0 0 -1 0 
1 99.650002000000001 50.349997999999999 0 -1 0 0 
1 94.900002000000001 50.349997999999999 0 -1 0 0 
1 90.150002000000001 50.349997999999999 0 0 1 0 
1 90.150002000000001 55.099997999999999 0 0 1 0 
Polygon3D 0
PolygonOnTriangulations 0
Surfaces 1
1 129.65975301174336 74.956384468954397 0 -0 -0 -1 -1 0 0 0 1 -0 
Triangulations 0

TShapes 1481
Ve
1e-07
95.712502 61.767712 0
0 0

0101101
*
Ve
1e-07
95.712502 57.859634 0
0 0

0101101
*
Ve
1e-07
95.712502 53.951561 0
0 0

0101101
*
Ve
1e-07
102.087502 77.400017 0
0 0

0101101
*
Ve
1e-07
102.087502 73.491936 0
0 0

0101101
*
Ve
1e-07
108.462502 77.400017 0
0 0

0101101
*
Ve
1e-07
108.462502 73.491936 0
0 0

0101101
*
Ve
1e-07
114.837502 77.400017 0
0 0

0101101
*
Ve
1e-07
114.837502 73.491936 0
0 0

0101101
*
Ve
1e-07
121.212502 77.400017 0
0 0

0101101
*
Ve
1e-07
121.212502 73.491936 0
0 0

0101101
*
Ve
1e-07
127.587502 73.491936 0
0 0

0101101
*
Ve
1e-07
133.962494 73.491936 0
0 0

0101101
*
Ve
1e-07
140.337494 77.400017 0
0 0

0101101
*
Ve
1e-07
140.337494 73.491936 0
0 0

0101101
*
Ve
1e-07
146.712494 77.400017 0
0 0

0101101
*
Ve
1e-07
146.712494 73.491936 0
0 0

0101101
*
Ve
1e-07
153.087494 77.400017 0
0 0

0101101
*
Ve
1e-07
153.087494 73.491936 0
0 0

0101101
*
Ve
1e-07
159.462494 77.400017 0
0 0

0101101
*
Ve
1e-07
159.462494 73.491936 0
0 0

0101101
*
Ve
1e-07
165.837494 77.400017 0
0 0

0101101
*
Ve
1e-07
167 76.648773 0
0 0

0101101
*
Ve
1e-07
171.399994 76.648773 0
0 0

0101101
*
Ve
1e-07
171.399994 72.495979 0
0 0

0101101
*
Ve
1e-07
167 72.495979 0
0 0

0101101
*
Ve
1e-07
167 75.174011 0
0 0

0101101
*
Ve
1e-07
166.800003 75.174011 0
0 0

0101101
*
Ve
1e-07
169.024994 73.491936 0
0 0

0101101
*
Ve
1e-07
165.837494 75.445976 0
0 0

0101101
*
Ve
1e-07
169.024994 77.400017 0
0 0

0101101
*
Ve
1e-07
169.024994 75.445976 0
0 0

0101101
*
Ve
1e-07
169.024994 74.468956 0
0 0

0101101
*
Ve
1e-07
167.431244 73.491936 0
0 0

0101101
*
Ve
1e-07
165.837494 74.468956 0
0 0

0101101
*
Ve
1e-07
167.431244 75.445976 0
0 0

0101101
*
Ve
1e-07
167.431244 74.468956 0
0 0

0101101
*
Ve
1e-07
162.649994 73.491936 0
0 0

0101101
*
Ve
1e-07
159.462494 75.445976 0
0 0

0101101
*
Ve
1e-07
162.649994 77.400017 0
0 0

0101101
*
Ve
1e-07
162.649994 75.445976 0
0 0

0101101
*
Ve
1e-07
167.431244 74.957466 0
0 0

0101101
*
Ve
1e-07
166.634369 74.468956 0
0 0

0101101
*
Ve
1e-07
165.837494 74.957466 0
0 0

0101101
*
Ve
1e-07
166.634369 75.445976 0
0 0

0101101
*
Ve
1e-07
166.634369 74.957466 0
0 0

0101101
*
Ve
1e-07
164.243744 73.491936 0
0 0

0101101
*
Ve
1e-07
162.649994 74.468956 0
0 0

0101101
*
Ve
1e-07
164.243744 75.445976 0
0 0

0101101
*
Ve
1e-07
164.243744 74.468956 0
0 0

0101101
*
Ve
1e-07
169.024994 76.422997 0
0 0

0101101
*
Ve
1e-07
165.837494 76.422997 0
0 0

0101101
*
Ve
1e-07
167.431244 77.400017 0
0 0

0101101
*
Ve
1e-07
167.431244 76.422997 0
0 0

0101101
*
Ve
1e-07
165.837494 79.35405 0
0 0

0101101
*
Ve
1e-07
169.024994 79.35405 0
0 0

0101101
*
Ve
1e-07
167.431244 75.201721 0
0 0

0101101
*
Ve
1e-07
166.634369 75.201721 0
0 0

0101101
*
Ve
1e-07
167.032806 75.445976 0
0 0

0101101
*
Ve
1e-07
167.431244 75.934486 0
0 0

0101101
*
Ve
1e-07
165.837494 75.934486 0
0 0

0101101
*
Ve
1e-07
166.634369 76.422997 0
0 0

0101101
*
Ve
1e-07
166.634369 75.934486 0
0 0

0101101
*
Ve
1e-07
162.649994 76.422997 0
0 0

0101101
*
Ve
1e-07
164.243744 77.400017 0
0 0

0101101
*
Ve
1e-07
164.243744 76.422997 0
0 0

0101101
*
Ve
1e-07
159.462494 79.35405 0
0 0

0101101
*
Ve
1e-07
162.649994 79.35405 0
0 0

0101101
*
Ve
1e-07
169.024994 74.957466 0
0 0

0101101
*
Ve
1e-07
168.228119 74.468956 0
0 0

0101101
*
Ve
1e-07
168.228119 75.445976 0
0 0

0101101
*
Ve
1e-07
168.228119 74.957466 0
0 0

0101101
*
Ve
1e-07
170.618744 73.491936 0
0 0

0101101
*
Ve
1e-07
170.618744 75.445976 0
0 0

0101101
*
Ve
1e-07
170.618744 74.468956 0
0 0

0101101
*
Ve
1e-07
166.800003 72.495979 0
0 0

0101101
*
Ve
1e-07
165 72.495979 0
0 0

0101101
*
Ve
1e-07
165 75.174011 0
0 0

0101101
*
Ve
1e-07
164.649994 75.174011 0
0 0

0101101
*
Ve
1e-07
164.243744 74.957466 0
0 0

0101101
*
Ve
1e-07
165.040619 75.445976 0
0 0

0101101
*
Ve
1e-07
164.649994 72.495979 0
0 0

0101101
*
Ve
1e-07
159.957138 72.495979 0
0 0

0101101
*
Ve
1e-07
155.264282 72.495979 0
0 0

0101101
*
Ve
1e-07
150.571426 72.495979 0
0 0

0101101
*
Ve
1e-07
145.878571 72.495979 0
0 0

0101101
*
Ve
1e-07
141.185715 72.495979 0
0 0

0101101
*
Ve
1e-07
136.492859 72.495979 0
0 0

0101101
*
Ve
1e-07
131.800003 72.495979 0
0 0

0101101
*
Ve
1e-07
127.10714 72.495979 0
0 0

0101101
*
Ve
1e-07
122.414284 72.495979 0
0 0

0101101
*
Ve
1e-07
117.721428 72.495979 0
0 0

0101101
*
Ve
1e-07
113.028572 72.495979 0
0 0

0101101
*
Ve
1e-07
108.335716 72.495979 0
0 0

0101101
*
Ve
1e-07
103.64286 72.495979 0
0 0

0101101
*
Ve
1e-07
98.949997 72.495979 0
0 0

0101101
*
Ve
1e-07
98.949997 74.350235 0
0 0

0101101
*
Ve
1e-07
98.599998 74.350235 0
0 0

0101101
*
Ve
1e-07
102.087502 75.445976 0
0 0

0101101
*
Ve
1e-07
98.900002 77.400017 0
0 0

0101101
*
Ve
1e-07
98.900002 75.445976 0
0 0

0101101
*
Ve
1e-07
102.087502 74.468956 0
0 0

0101101
*
Ve
1e-07
100.493752 73.491936 0
0 0

0101101
*
Ve
1e-07
100.493752 75.445976 0
0 0

0101101
*
Ve
1e-07
100.493752 74.468956 0
0 0

0101101
*
Ve
1e-07
108.462502 75.445976 0
0 0

0101101
*
Ve
1e-07
105.275002 73.491936 0
0 0

0101101
*
Ve
1e-07
105.275002 75.445976 0
0 0

0101101
*
Ve
1e-07
100.493752 73.980446 0
0 0

0101101
*
Ve
1e-07
99.696877 73.491936 0
0 0

0101101
*
Ve
1e-07
99.696877 74.468956 0
0 0

0101101
*
Ve
1e-07
99.696877 73.980446 0
0 0

0101101
*
Ve
1e-07
97.306252 73.491936 0
0 0

0101101
*
Ve
1e-07
97.306252 75.445976 0
0 0

0101101
*
Ve
1e-07
97.306252 74.468956 0
0 0

0101101
*
Ve
1e-07
98.103127 73.491936 0
0 0

0101101
*
Ve
1e-07
97.306252 73.980446 0
0 0

0101101
*
Ve
1e-07
98.103127 74.468956 0
0 0

0101101
*
Ve
1e-07
98.103127 73.980446 0
0 0

0101101
*
Ve
1e-07
98.599998 69.633492 0
0 0

0101101
*
Ve
1e-07
98.599998 64.916748 0
0 0

0101101
*
Ve
1e-07
98.599998 60.200001 0
0 0

0101101
*
Ve
1e-07
95.074997 60.200001 0
0 0

0101101
*
Ve
1e-07
91.550003 60.200001 0
0 0

0101101
*
Ve
1e-07
91.550003 59.849998 0
0 0

0101101
*
Ve
1e-07
92.525002 57.859634 0
0 0

0101101
*
Ve
1e-07
92.525002 61.767712 0
0 0

0101101
*
Ve
1e-07
92.525002 60.790691 0
0 0

0101101
*
Ve
1e-07
90.931252 61.767712 0
0 0

0101101
*
Ve
1e-07
90.931252 60.790691 0
0 0

0101101
*
Ve
1e-07
92.525002 60.302185 0
0 0

0101101
*
Ve
1e-07
90.931252 60.302185 0
0 0

0101101
*
Ve
1e-07
91.728127 60.790691 0
0 0

0101101
*
Ve
1e-07
95.712502 60.790691 0
0 0

0101101
*
Ve
1e-07
94.118752 61.767712 0
0 0

0101101
*
Ve
1e-07
94.118752 60.790691 0
0 0

0101101
*
Ve
1e-07
92.525002 58.836655 0
0 0

0101101
*
Ve
1e-07
90.931252 57.859634 0
0 0

0101101
*
Ve
1e-07
90.931252 58.836655 0
0 0

0101101
*
Ve
1e-07
95.712502 55.905598 0
0 0

0101101
*
Ve
1e-07
92.525002 53.951561 0
0 0

0101101
*
Ve
1e-07
92.525002 55.905598 0
0 0

0101101
*
Ve
1e-07
95.599998 59.849998 0
0 0

0101101
*
Ve
1e-07
99.650002 59.849998 0
0 0

0101101
*
Ve
1e-07
99.650002 55.099998 0
0 0

0101101
*
Ve
1e-07
99.650002 50.349998 0
0 0

0101101
*
Ve
1e-07
94.900002 50.349998 0
0 0

0101101
*
Ve
1e-07
90.150002 50.349998 0
0 0

0101101
*
Ve
1e-07
90.150002 55.099998 0
0 0

0101101
*
Ve
1e-07
90.150002 59.849998 0
0 0

0101101
*
Ve
1e-07
90.650002 59.849998 0
0 0

0101101
*
Ve
1e-07
90.650002 60.200001 0
0 0

0101101
*
Ve
1e-07
90.150002 60.200001 0
0 0

0101101
*
Ve
1e-07
90.150002 63.145977 0
0 0

0101101
*
Ve
1e-07
93.474998 63.145977 0
0 0

0101101
*
Ve
1e-07
96.800003 63.145977 0
0 0

0101101
*
Ve
1e-07
96.800003 67.609879 0
0 0

0101101
*
Ve
1e-07
96.800003 72.073776 0
0 0

0101101
*
Ve
1e-07
96.800003 76.537674 0
0 0

0101101
*
Ve
1e-07
96.800003 81.001572 0
0 0

0101101
*
Ve
1e-07
100.025002 81.001572 0
0 0

0101101
*
Ve
1e-07
103.25 81.001572 0
0 0

0101101
*
Ve
1e-07
103.25 76.923775 0
0 0

0101101
*
Ve
1e-07
98.599998 76.923775 0
0 0

0101101
*
Ve
1e-07
98.599998 76.574013 0
0 0

0101101
*
Ve
1e-07
98.900002 76.422997 0
0 0

0101101
*
Ve
1e-07
97.306252 77.400017 0
0 0

0101101
*
Ve
1e-07
97.306252 76.422997 0
0 0

0101101
*
Ve
1e-07
102.087502 79.35405 0
0 0

0101101
*
Ve
1e-07
98.900002 79.35405 0
0 0

0101101
*
Ve
1e-07
98.103127 76.422997 0
0 0

0101101
*
Ve
1e-07
97.306252 76.911507 0
0 0

0101101
*
Ve
1e-07
98.103127 77.400017 0
0 0

0101101
*
Ve
1e-07
98.103127 76.911507 0
0 0

0101101
*
Ve
1e-07
98.900002 78.377037 0
0 0

0101101
*
Ve
1e-07
97.306252 79.35405 0
0 0

0101101
*
Ve
1e-07
97.306252 78.377037 0
0 0

0101101
*
Ve
1e-07
100.493752 77.400017 0
0 0

0101101
*
Ve
1e-07
100.493752 76.422997 0
0 0

0101101
*
Ve
1e-07
101.099998 76.574013 0
0 0

0101101
*
Ve
1e-07
103.599998 76.574013 0
0 0

0101101
*
Ve
1e-07
103.599998 81.001572 0
0 0

0101101
*
Ve
1e-07
106.75 81.001572 0
0 0

0101101
*
Ve
1e-07
106.75 76.574013 0
0 0

0101101
*
Ve
1e-07
109.300003 76.574013 0
0 0

0101101
*
Ve
1e-07
111.849998 76.574013 0
0 0

0101101
*
Ve
1e-07
111.849998 76.923775 0
0 0

0101101
*
Ve
1e-07
114.837502 75.445976 0
0 0

0101101
*
Ve
1e-07
111.650002 73.491936 0
0 0

0101101
*
Ve
1e-07
111.650002 75.445976 0
0 0

0101101
*
Ve
1e-07
114.837502 76.422997 0
0 0

0101101
*
Ve
1e-07
113.243752 75.445976 0
0 0

0101101
*
Ve
1e-07
111.650002 76.422997 0
0 0

0101101
*
Ve
1e-07
113.243752 77.400017 0
0 0

0101101
*
Ve
1e-07
113.243752 76.422997 0
0 0

0101101
*
Ve
1e-07
114.837502 79.35405 0
0 0

0101101
*
Ve
1e-07
108.462502 79.35405 0
0 0

0101101
*
Ve
1e-07
121.212502 75.445976 0
0 0

0101101
*
Ve
1e-07
118.025002 73.491936 0
0 0

0101101
*
Ve
1e-07
118.025002 77.400017 0
0 0

0101101
*
Ve
1e-07
118.025002 75.445976 0
0 0

0101101
*
Ve
1e-07
112.446877 76.422997 0
0 0

0101101
*
Ve
1e-07
112.446877 77.400017 0
0 0

0101101
*
Ve
1e-07
112.446877 76.911507 0
0 0

0101101
*
Ve
1e-07
110.056252 75.445976 0
0 0

0101101
*
Ve
1e-07
110.056252 77.400017 0
0 0

0101101
*
Ve
1e-07
110.056252 76.422997 0
0 0

0101101
*
Ve
1e-07
114.837502 78.377037 0
0 0

0101101
*
Ve
1e-07
111.650002 78.377037 0
0 0

0101101
*
Ve
1e-07
113.243752 79.35405 0
0 0

0101101
*
Ve
1e-07
113.243752 78.377037 0
0 0

0101101
*
Ve
1e-07
121.212502 79.35405 0
0 0

0101101
*
Ve
1e-07
118.025002 79.35405 0
0 0

0101101
*
Ve
1e-07
111.699997 76.923775 0
0 0

0101101
*
Ve
1e-07
112.446877 77.155762 0
0 0

0101101
*
Ve
1e-07
112.048439 76.911507 0
0 0

0101101
*
Ve
1e-07
112.048439 77.400017 0
0 0

0101101
*
Ve
1e-07
112.048439 77.155762 0
0 0

0101101
*
Ve
1e-07
110.853127 76.422997 0
0 0

0101101
*
Ve
1e-07
110.853127 77.400017 0
0 0

0101101
*
Ve
1e-07
108.462502 78.377037 0
0 0

0101101
*
Ve
1e-07
110.056252 79.35405 0
0 0

0101101
*
Ve
1e-07
110.056252 78.377037 0
0 0

0101101
*
Ve
1e-07
113.243752 77.888527 0
0 0

0101101
*
Ve
1e-07
111.650002 77.888527 0
0 0

0101101
*
Ve
1e-07
112.446877 78.377037 0
0 0

0101101
*
Ve
1e-07
112.446877 77.888527 0
0 0

0101101
*
Ve
1e-07
111.699997 77.723778 0
0 0

0101101
*
Ve
1e-07
111.5 77.723778 0
0 0

0101101
*
Ve
1e-07
112.446877 77.644272 0
0 0

0101101
*
Ve
1e-07
112.048439 77.888527 0
0 0

0101101
*
Ve
1e-07
112.048439 77.644272 0
0 0

0101101
*
Ve
1e-07
110.056252 77.888527 0
0 0

0101101
*
Ve
1e-07
110.853127 78.377037 0
0 0

0101101
*
Ve
1e-07
110.853127 77.888527 0
0 0

0101101
*
Ve
1e-07
111.251564 77.400017 0
0 0

0101101
*
Ve
1e-07
110.853127 77.644272 0
0 0

0101101
*
Ve
1e-07
111.251564 77.888527 0
0 0

0101101
*
Ve
1e-07
111.251564 77.644272 0
0 0

0101101
*
Ve
1e-07
111.5 76.923775 0
0 0

0101101
*
Ve
1e-07
107.099998 76.923775 0
0 0

0101101
*
Ve
1e-07
107.099998 81.001572 0
0 0

0101101
*
Ve
1e-07
111.5 81.001572 0
0 0

0101101
*
Ve
1e-07
111.5 78.523773 0
0 0

0101101
*
Ve
1e-07
111.699997 78.523773 0
0 0

0101101
*
Ve
1e-07
110.056252 78.86554 0
0 0

0101101
*
Ve
1e-07
110.853127 79.35405 0
0 0

0101101
*
Ve
1e-07
110.853127 78.86554 0
0 0

0101101
*
Ve
1e-07
108.462502 80.33107 0
0 0

0101101
*
Ve
1e-07
110.056252 80.33107 0
0 0

0101101
*
Ve
1e-07
111.251564 78.377037 0
0 0

0101101
*
Ve
1e-07
110.853127 78.621292 0
0 0

0101101
*
Ve
1e-07
111.251564 78.86554 0
0 0

0101101
*
Ve
1e-07
111.251564 78.621292 0
0 0

0101101
*
Ve
1e-07
113.243752 78.86554 0
0 0

0101101
*
Ve
1e-07
112.446877 79.35405 0
0 0

0101101
*
Ve
1e-07
112.446877 78.86554 0
0 0

0101101
*
Ve
1e-07
114.837502 80.33107 0
0 0

0101101
*
Ve
1e-07
113.243752 80.33107 0
0 0

0101101
*
Ve
1e-07
112.446877 78.621292 0
0 0

0101101
*
Ve
1e-07
112.048439 78.377037 0
0 0

0101101
*
Ve
1e-07
112.048439 78.86554 0
0 0

0101101
*
Ve
1e-07
112.048439 78.621292 0
0 0

0101101
*
Ve
1e-07
111.699997 79.001572 0
0 0

0101101
*
Ve
1e-07
111.900002 79.001572 0
0 0

0101101
*
Ve
1e-07
112.446877 79.109795 0
0 0

0101101
*
Ve
1e-07
112.048439 79.35405 0
0 0

0101101
*
Ve
1e-07
112.048439 79.109795 0
0 0

0101101
*
Ve
1e-07
113.243752 79.84256 0
0 0

0101101
*
Ve
1e-07
112.446877 80.33107 0
0 0

0101101
*
Ve
1e-07
112.446877 79.84256 0
0 0

0101101
*
Ve
1e-07
111.900002 79.201576 0
0 0

0101101
*
Ve
1e-07
111.699997 79.201576 0
0 0

0101101
*
Ve
1e-07
111.699997 81.001572 0
0 0

0101101
*
Ve
1e-07
113.550003 81.001572 0
0 0

0101101
*
Ve
1e-07
113.550003 79.201576 0
0 0

0101101
*
Ve
1e-07
112.699997 79.201576 0
0 0

0101101
*
Ve
1e-07
112.699997 79.001572 0
0 0

0101101
*
Ve
1e-07
112.845314 78.86554 0
0 0

0101101
*
Ve
1e-07
112.845314 79.35405 0
0 0

0101101
*
Ve
1e-07
114.837502 78.86554 0
0 0

0101101
*
Ve
1e-07
114.040627 78.377037 0
0 0

0101101
*
Ve
1e-07
114.040627 79.35405 0
0 0

0101101
*
Ve
1e-07
114.040627 78.86554 0
0 0

0101101
*
Ve
1e-07
118.025002 78.377037 0
0 0

0101101
*
Ve
1e-07
116.431252 77.400017 0
0 0

0101101
*
Ve
1e-07
116.431252 79.35405 0
0 0

0101101
*
Ve
1e-07
116.431252 78.377037 0
0 0

0101101
*
Ve
1e-07
113.550003 79.001572 0
0 0

0101101
*
Ve
1e-07
113.550003 76.923775 0
0 0

0101101
*
Ve
1e-07
112.75 76.923775 0
0 0

0101101
*
Ve
1e-07
112.75 76.574013 0
0 0

0101101
*
Ve
1e-07
114.699997 76.574013 0
0 0

0101101
*
Ve
1e-07
114.699997 76.923775 0
0 0

0101101
*
Ve
1e-07
114.040627 76.422997 0
0 0

0101101
*
Ve
1e-07
118.025002 76.422997 0
0 0

0101101
*
Ve
1e-07
116.431252 75.445976 0
0 0

0101101
*
Ve
1e-07
116.431252 76.422997 0
0 0

0101101
*
Ve
1e-07
113.900002 76.923775 0
0 0

0101101
*
Ve
1e-07
113.900002 79.001572 0
0 0

0101101
*
Ve
1e-07
114.75 79.001572 0
0 0

0101101
*
Ve
1e-07
114.75 79.201576 0
0 0

0101101
*
Ve
1e-07
114.439064 78.86554 0
0 0

0101101
*
Ve
1e-07
114.439064 79.35405 0
0 0

0101101
*
Ve
1e-07
114.837502 79.84256 0
0 0

0101101
*
Ve
1e-07
114.040627 80.33107 0
0 0

0101101
*
Ve
1e-07
114.040627 79.84256 0
0 0

0101101
*
Ve
1e-07
118.025002 80.33107 0
0 0

0101101
*
Ve
1e-07
116.431252 80.33107 0
0 0

0101101
*
Ve
1e-07
116.431252 78.86554 0
0 0

0101101
*
Ve
1e-07
115.634377 78.377037 0
0 0

0101101
*
Ve
1e-07
115.634377 79.35405 0
0 0

0101101
*
Ve
1e-07
115.634377 78.86554 0
0 0

0101101
*
Ve
1e-07
113.900002 79.201576 0
0 0

0101101
*
Ve
1e-07
113.900002 81.001572 0
0 0

0101101
*
Ve
1e-07
115.75 81.001572 0
0 0

0101101
*
Ve
1e-07
115.75 79.201576 0
0 0

0101101
*
Ve
1e-07
115.550003 79.201576 0
0 0

0101101
*
Ve
1e-07
116.431252 79.109795 0
0 0

0101101
*
Ve
1e-07
116.032814 78.86554 0
0 0

0101101
*
Ve
1e-07
116.032814 79.35405 0
0 0

0101101
*
Ve
1e-07
116.032814 79.109795 0
0 0

0101101
*
Ve
1e-07
116.431252 79.84256 0
0 0

0101101
*
Ve
1e-07
115.634377 80.33107 0
0 0

0101101
*
Ve
1e-07
115.634377 79.84256 0
0 0

0101101
*
Ve
1e-07
118.025002 78.86554 0
0 0

0101101
*
Ve
1e-07
117.228127 78.377037 0
0 0

0101101
*
Ve
1e-07
117.228127 79.35405 0
0 0

0101101
*
Ve
1e-07
117.228127 78.86554 0
0 0

0101101
*
Ve
1e-07
121.212502 78.377037 0
0 0

0101101
*
Ve
1e-07
119.618752 77.400017 0
0 0

0101101
*
Ve
1e-07
119.618752 79.35405 0
0 0

0101101
*
Ve
1e-07
119.618752 78.377037 0
0 0

0101101
*
Ve
1e-07
124.400002 77.400017 0
0 0

0101101
*
Ve
1e-07
124.400002 79.35405 0
0 0

0101101
*
Ve
1e-07
115.235939 78.86554 0
0 0

0101101
*
Ve
1e-07
115.235939 79.35405 0
0 0

0101101
*
Ve
1e-07
115.550003 79.001572 0
0 0

0101101
*
Ve
1e-07
115.75 79.001572 0
0 0

0101101
*
Ve
1e-07
115.75 78.523773 0
0 0

0101101
*
Ve
1e-07
115.949997 78.523773 0
0 0

0101101
*
Ve
1e-07
116.431252 78.621292 0
0 0

0101101
*
Ve
1e-07
116.032814 78.377037 0
0 0

0101101
*
Ve
1e-07
115.634377 78.621292 0
0 0

0101101
*
Ve
1e-07
116.032814 78.621292 0
0 0

0101101
*
Ve
1e-07
116.431252 77.888527 0
0 0

0101101
*
Ve
1e-07
115.634377 77.400017 0
0 0

0101101
*
Ve
1e-07
114.837502 77.888527 0
0 0

0101101
*
Ve
1e-07
115.634377 77.888527 0
0 0

0101101
*
Ve
1e-07
115.949997 81.001572 0
0 0

0101101
*
Ve
1e-07
120.349998 81.001572 0
0 0

0101101
*
Ve
1e-07
120.349998 76.923775 0
0 0

0101101
*
Ve
1e-07
115.949997 76.923775 0
0 0

0101101
*
Ve
1e-07
115.949997 77.723778 0
0 0

0101101
*
Ve
1e-07
115.75 77.723778 0
0 0

0101101
*
Ve
1e-07
116.431252 77.644272 0
0 0

0101101
*
Ve
1e-07
116.032814 77.400017 0
0 0

0101101
*
Ve
1e-07
115.634377 77.644272 0
0 0

0101101
*
Ve
1e-07
116.032814 77.888527 0
0 0

0101101
*
Ve
1e-07
116.032814 77.644272 0
0 0

0101101
*
Ve
1e-07
118.025002 77.888527 0
0 0

0101101
*
Ve
1e-07
117.228127 77.400017 0
0 0

0101101
*
Ve
1e-07
117.228127 77.888527 0
0 0

0101101
*
Ve
1e-07
115.634377 76.422997 0
0 0

0101101
*
Ve
1e-07
115.75 76.923775 0
0 0

0101101
*
Ve
1e-07
115.599998 76.923775 0
0 0

0101101
*
Ve
1e-07
116.431252 77.155762 0
0 0

0101101
*
Ve
1e-07
115.634377 77.155762 0
0 0

0101101
*
Ve
1e-07
116.032814 77.155762 0
0 0

0101101
*
Ve
1e-07
117.228127 76.422997 0
0 0

0101101
*
Ve
1e-07
121.212502 76.422997 0
0 0

0101101
*
Ve
1e-07
119.618752 75.445976 0
0 0

0101101
*
Ve
1e-07
119.618752 76.422997 0
0 0

0101101
*
Ve
1e-07
127.587502 75.445976 0
0 0

0101101
*
Ve
1e-07
124.400002 73.491936 0
0 0

0101101
*
Ve
1e-07
124.400002 75.445976 0
0 0

0101101
*
Ve
1e-07
115.235939 76.911507 0
0 0

0101101
*
Ve
1e-07
114.837502 77.155762 0
0 0

0101101
*
Ve
1e-07
115.235939 77.400017 0
0 0

0101101
*
Ve
1e-07
115.235939 77.155762 0
0 0

0101101
*
Ve
1e-07
115.599998 76.574013 0
0 0

0101101
*
Ve
1e-07
118.883331 76.574013 0
0 0

0101101
*
Ve
1e-07
122.166664 76.574013 0
0 0

0101101
*
Ve
1e-07
125.449997 76.574013 0
0 0

0101101
*
Ve
1e-07
125.449997 76.923775 0
0 0

0101101
*
Ve
1e-07
127.587502 76.422997 0
0 0

0101101
*
Ve
1e-07
125.993752 75.445976 0
0 0

0101101
*
Ve
1e-07
124.400002 76.422997 0
0 0

0101101
*
Ve
1e-07
125.993752 77.400017 0
0 0

0101101
*
Ve
1e-07
125.993752 76.422997 0
0 0

0101101
*
Ve
1e-07
133.962494 75.445976 0
0 0

0101101
*
Ve
1e-07
130.774994 73.491936 0
0 0

0101101
*
Ve
1e-07
130.774994 77.400017 0
0 0

0101101
*
Ve
1e-07
130.774994 75.445976 0
0 0

0101101
*
Ve
1e-07
125.993752 76.911507 0
0 0

0101101
*
Ve
1e-07
125.196877 76.422997 0
0 0

0101101
*
Ve
1e-07
122.806252 75.445976 0
0 0

0101101
*
Ve
1e-07
122.806252 77.400017 0
0 0

0101101
*
Ve
1e-07
122.806252 76.422997 0
0 0

0101101
*
Ve
1e-07
124.400002 78.377037 0
0 0

0101101
*
Ve
1e-07
125.993752 79.35405 0
0 0

0101101
*
Ve
1e-07
125.993752 78.377037 0
0 0

0101101
*
Ve
1e-07
130.774994 79.35405 0
0 0

0101101
*
Ve
1e-07
125.300003 76.923775 0
0 0

0101101
*
Ve
1e-07
125.993752 77.155762 0
0 0

0101101
*
Ve
1e-07
125.595314 76.911507 0
0 0

0101101
*
Ve
1e-07
125.595314 77.400017 0
0 0

0101101
*
Ve
1e-07
125.595314 77.155762 0
0 0

0101101
*
Ve
1e-07
125.993752 77.888527 0
0 0

0101101
*
Ve
1e-07
124.400002 77.888527 0
0 0

0101101
*
Ve
1e-07
125.196877 78.377037 0
0 0

0101101
*
Ve
1e-07
125.196877 77.888527 0
0 0

0101101
*
Ve
1e-07
122.806252 79.35405 0
0 0

0101101
*
Ve
1e-07
122.806252 78.377037 0
0 0

0101101
*
Ve
1e-07
126.790627 76.422997 0
0 0

0101101
*
Ve
1e-07
126.790627 77.400017 0
0 0

0101101
*
Ve
1e-07
130.774994 76.422997 0
0 0

0101101
*
Ve
1e-07
129.181244 75.445976 0
0 0

0101101
*
Ve
1e-07
129.181244 77.400017 0
0 0

0101101
*
Ve
1e-07
129.181244 76.422997 0
0 0

0101101
*
Ve
1e-07
125.300003 77.723778 0
0 0

0101101
*
Ve
1e-07
125.099998 77.723778 0
0 0

0101101
*
Ve
1e-07
125.993752 77.644272 0
0 0

0101101
*
Ve
1e-07
125.595314 77.888527 0
0 0

0101101
*
Ve
1e-07
125.595314 77.644272 0
0 0

0101101
*
Ve
1e-07
126.790627 78.377037 0
0 0

0101101
*
Ve
1e-07
126.790627 77.888527 0
0 0

0101101
*
Ve
1e-07
130.774994 78.377037 0
0 0

0101101
*
Ve
1e-07
129.181244 79.35405 0
0 0

0101101
*
Ve
1e-07
129.181244 78.377037 0
0 0

0101101
*
Ve
1e-07
124.798439 77.400017 0
0 0

0101101
*
Ve
1e-07
124.400002 77.644272 0
0 0

0101101
*
Ve
1e-07
124.798439 77.888527 0
0 0

0101101
*
Ve
1e-07
124.798439 77.644272 0
0 0

0101101
*
Ve
1e-07
123.603127 77.400017 0
0 0

0101101
*
Ve
1e-07
122.806252 77.888527 0
0 0

0101101
*
Ve
1e-07
123.603127 78.377037 0
0 0

0101101
*
Ve
1e-07
123.603127 77.888527 0
0 0

0101101
*
Ve
1e-07
125.099998 76.923775 0
0 0

0101101
*
Ve
1e-07
120.699997 76.923775 0
0 0

0101101
*
Ve
1e-07
120.699997 81.001572 0
0 0

0101101
*
Ve
1e-07
125.099998 81.001572 0
0 0

0101101
*
Ve
1e-07
125.099998 78.523773 0
0 0

0101101
*
Ve
1e-07
125.300003 78.523773 0
0 0

0101101
*
Ve
1e-07
125.993752 78.86554 0
0 0

0101101
*
Ve
1e-07
124.400002 78.86554 0
0 0

0101101
*
Ve
1e-07
124.400002 80.33107 0
0 0

0101101
*
Ve
1e-07
125.993752 80.33107 0
0 0

0101101
*
Ve
1e-07
124.798439 78.377037 0
0 0

0101101
*
Ve
1e-07
124.400002 78.621292 0
0 0

0101101
*
Ve
1e-07
124.798439 78.86554 0
0 0

0101101
*
Ve
1e-07
124.798439 78.621292 0
0 0

0101101
*
Ve
1e-07
122.806252 78.86554 0
0 0

0101101
*
Ve
1e-07
123.603127 79.35405 0
0 0

0101101
*
Ve
1e-07
123.603127 78.86554 0
0 0

0101101
*
Ve
1e-07
121.212502 80.33107 0
0 0

0101101
*
Ve
1e-07
122.806252 80.33107 0
0 0

0101101
*
Ve
1e-07
125.993752 78.621292 0
0 0

0101101
*
Ve
1e-07
125.595314 78.377037 0
0 0

0101101
*
Ve
1e-07
125.595314 78.86554 0
0 0

0101101
*
Ve
1e-07
125.595314 78.621292 0
0 0

0101101
*
Ve
1e-07
126.790627 79.35405 0
0 0

0101101
*
Ve
1e-07
126.790627 78.86554 0
0 0

0101101
*
Ve
1e-07
125.300003 79.001572 0
0 0

0101101
*
Ve
1e-07
125.5 79.001572 0
0 0

0101101
*
Ve
1e-07
125.993752 79.84256 0
0 0

0101101
*
Ve
1e-07
124.400002 79.84256 0
0 0

0101101
*
Ve
1e-07
125.5 79.201576 0
0 0

0101101
*
Ve
1e-07
125.300003 79.201576 0
0 0

0101101
*
Ve
1e-07
125.300003 81.001572 0
0 0

0101101
*
Ve
1e-07
127.150002 81.001572 0
0 0

0101101
*
Ve
1e-07
127.150002 79.201576 0
0 0

0101101
*
Ve
1e-07
126.300003 79.201576 0
0 0

0101101
*
Ve
1e-07
126.300003 79.001572 0
0 0

0101101
*
Ve
1e-07
126.392189 78.86554 0
0 0

0101101
*
Ve
1e-07
126.392189 79.35405 0
0 0

0101101
*
Ve
1e-07
126.790627 80.33107 0
0 0

0101101
*
Ve
1e-07
126.790627 79.84256 0
0 0

0101101
*
Ve
1e-07
130.774994 80.33107 0
0 0

0101101
*
Ve
1e-07
129.181244 80.33107 0
0 0

0101101
*
Ve
1e-07
127.150002 79.001572 0
0 0

0101101
*
Ve
1e-07
127.150002 76.923775 0
0 0

0101101
*
Ve
1e-07
126.349998 76.923775 0
0 0

0101101
*
Ve
1e-07
126.349998 76.574013 0
0 0

0101101
*
Ve
1e-07
128.300003 76.574013 0
0 0

0101101
*
Ve
1e-07
128.300003 76.923775 0
0 0

0101101
*
Ve
1e-07
128.384369 76.422997 0
0 0

0101101
*
Ve
1e-07
128.384369 77.400017 0
0 0

0101101
*
Ve
1e-07
127.5 76.923775 0
0 0

0101101
*
Ve
1e-07
127.5 79.001572 0
0 0

0101101
*
Ve
1e-07
128.350006 79.001572 0
0 0

0101101
*
Ve
1e-07
128.350006 79.201576 0
0 0

0101101
*
Ve
1e-07
129.181244 78.86554 0
0 0

0101101
*
Ve
1e-07
128.384369 78.377037 0
0 0

0101101
*
Ve
1e-07
128.384369 79.35405 0
0 0

0101101
*
Ve
1e-07
128.384369 78.86554 0
0 0

0101101
*
Ve
1e-07
129.181244 79.84256 0
0 0

0101101
*
Ve
1e-07
128.384369 80.33107 0
0 0

0101101
*
Ve
1e-07
128.384369 79.84256 0
0 0

0101101
*
Ve
1e-07
127.5 79.201576 0
0 0

0101101
*
Ve
1e-07
127.5 81.001572 0
0 0

0101101
*
Ve
1e-07
129.350006 81.001572 0
0 0

0101101
*
Ve
1e-07
129.350006 79.201576 0
0 0

0101101
*
Ve
1e-07
129.149994 79.201576 0
0 0

0101101
*
Ve
1e-07
130.774994 78.86554 0
0 0

0101101
*
Ve
1e-07
129.978119 78.377037 0
0 0

0101101
*
Ve
1e-07
129.978119 79.35405 0
0 0

0101101
*
Ve
1e-07
129.978119 78.86554 0
0 0

0101101
*
Ve
1e-07
132.368744 77.400017 0
0 0

0101101
*
Ve
1e-07
132.368744 79.35405 0
0 0

0101101
*
Ve
1e-07
132.368744 78.377037 0
0 0

0101101
*
Ve
1e-07
140.337494 79.35405 0
0 0

0101101
*
Ve
1e-07
137.149994 77.400017 0
0 0

0101101
*
Ve
1e-07
137.149994 79.35405 0
0 0

0101101
*
Ve
1e-07
129.978119 79.109795 0
0 0

0101101
*
Ve
1e-07
130.774994 79.84256 0
0 0

0101101
*
Ve
1e-07
129.978119 80.33107 0
0 0

0101101
*
Ve
1e-07
129.978119 79.84256 0
0 0

0101101
*
Ve
1e-07
132.368744 80.33107 0
0 0

0101101
*
Ve
1e-07
128.782806 78.86554 0
0 0

0101101
*
Ve
1e-07
128.782806 79.35405 0
0 0

0101101
*
Ve
1e-07
129.149994 79.001572 0
0 0

0101101
*
Ve
1e-07
129.350006 79.001572 0
0 0

0101101
*
Ve
1e-07
129.350006 78.523773 0
0 0

0101101
*
Ve
1e-07
129.550003 78.523773 0
0 0

0101101
*
Ve
1e-07
129.978119 78.621292 0
0 0

0101101
*
Ve
1e-07
129.579681 78.377037 0
0 0

0101101
*
Ve
1e-07
129.181244 78.621292 0
0 0

0101101
*
Ve
1e-07
130.774994 77.888527 0
0 0

0101101
*
Ve
1e-07
129.978119 77.400017 0
0 0

0101101
*
Ve
1e-07
129.181244 77.888527 0
0 0

0101101
*
Ve
1e-07
129.978119 77.888527 0
0 0

0101101
*
Ve
1e-07
129.550003 81.001572 0
0 0

0101101
*
Ve
1e-07
133.949997 81.001572 0
0 0

0101101
*
Ve
1e-07
133.949997 76.923775 0
0 0

0101101
*
Ve
1e-07
129.550003 76.923775 0
0 0

0101101
*
Ve
1e-07
129.550003 77.723778 0
0 0

0101101
*
Ve
1e-07
129.350006 77.723778 0
0 0

0101101
*
Ve
1e-07
129.978119 77.644272 0
0 0

0101101
*
Ve
1e-07
129.181244 77.644272 0
0 0

0101101
*
Ve
1e-07
129.579681 77.888527 0
0 0

0101101
*
Ve
1e-07
129.978119 76.422997 0
0 0

0101101
*
Ve
1e-07
133.962494 76.422997 0
0 0

0101101
*
Ve
1e-07
132.368744 75.445976 0
0 0

0101101
*
Ve
1e-07
140.337494 75.445976 0
0 0

0101101
*
Ve
1e-07
137.149994 73.491936 0
0 0

0101101
*
Ve
1e-07
137.149994 75.445976 0
0 0

0101101
*
Ve
1e-07
128.384369 77.888527 0
0 0

0101101
*
Ve
1e-07
129.350006 76.923775 0
0 0

0101101
*
Ve
1e-07
129.199997 76.923775 0
0 0

0101101
*
Ve
1e-07
129.199997 76.574013 0
0 0

0101101
*
Ve
1e-07
132.483337 76.574013 0
0 0

0101101
*
Ve
1e-07
135.766663 76.574013 0
0 0

0101101
*
Ve
1e-07
139.050003 76.574013 0
0 0

0101101
*
Ve
1e-07
139.050003 76.923775 0
0 0

0101101
*
Ve
1e-07
140.337494 76.422997 0
0 0

0101101
*
Ve
1e-07
138.743744 75.445976 0
0 0

0101101
*
Ve
1e-07
137.149994 76.422997 0
0 0

0101101
*
Ve
1e-07
138.743744 76.422997 0
0 0

0101101
*
Ve
1e-07
146.712494 75.445976 0
0 0

0101101
*
Ve
1e-07
143.524994 73.491936 0
0 0

0101101
*
Ve
1e-07
143.524994 77.400017 0
0 0

0101101
*
Ve
1e-07
143.524994 75.445976 0
0 0

0101101
*
Ve
1e-07
139.540619 76.422997 0
0 0

0101101
*
Ve
1e-07
139.540619 77.400017 0
0 0

0101101
*
Ve
1e-07
139.540619 76.911507 0
0 0

0101101
*
Ve
1e-07
140.337494 78.377037 0
0 0

0101101
*
Ve
1e-07
137.149994 78.377037 0
0 0

0101101
*
Ve
1e-07
138.743744 78.377037 0
0 0

0101101
*
Ve
1e-07
146.712494 79.35405 0
0 0

0101101
*
Ve
1e-07
143.524994 79.35405 0
0 0

0101101
*
Ve
1e-07
143.524994 76.422997 0
0 0

0101101
*
Ve
1e-07
141.931244 75.445976 0
0 0

0101101
*
Ve
1e-07
141.931244 77.400017 0
0 0

0101101
*
Ve
1e-07
141.931244 76.422997 0
0 0

0101101
*
Ve
1e-07
138.899994 76.923775 0
0 0

0101101
*
Ve
1e-07
139.540619 77.155762 0
0 0

0101101
*
Ve
1e-07
139.142181 77.400017 0
0 0

0101101
*
Ve
1e-07
139.142181 77.155762 0
0 0

0101101
*
Ve
1e-07
137.946869 76.422997 0
0 0

0101101
*
Ve
1e-07
137.946869 77.400017 0
0 0

0101101
*
Ve
1e-07
135.556244 75.445976 0
0 0

0101101
*
Ve
1e-07
135.556244 77.400017 0
0 0

0101101
*
Ve
1e-07
140.337494 77.888527 0
0 0

0101101
*
Ve
1e-07
138.743744 77.888527 0
0 0

0101101
*
Ve
1e-07
139.540619 78.377037 0
0 0

0101101
*
Ve
1e-07
139.540619 77.888527 0
0 0

0101101
*
Ve
1e-07
143.524994 78.377037 0
0 0

0101101
*
Ve
1e-07
141.931244 79.35405 0
0 0

0101101
*
Ve
1e-07
141.931244 78.377037 0
0 0

0101101
*
Ve
1e-07
138.899994 77.723778 0
0 0

0101101
*
Ve
1e-07
138.699997 77.723778 0
0 0

0101101
*
Ve
1e-07
139.540619 77.644272 0
0 0

0101101
*
Ve
1e-07
139.142181 77.888527 0
0 0

0101101
*
Ve
1e-07
139.142181 77.644272 0
0 0

0101101
*
Ve
1e-07
137.149994 77.888527 0
0 0

0101101
*
Ve
1e-07
137.946869 78.377037 0
0 0

0101101
*
Ve
1e-07
137.946869 77.888527 0
0 0

0101101
*
Ve
1e-07
135.556244 79.35405 0
0 0

0101101
*
Ve
1e-07
135.556244 78.377037 0
0 0

0101101
*
Ve
1e-07
138.345306 77.400017 0
0 0

0101101
*
Ve
1e-07
137.946869 77.644272 0
0 0

0101101
*
Ve
1e-07
138.345306 77.888527 0
0 0

0101101
*
Ve
1e-07
138.345306 77.644272 0
0 0

0101101
*
Ve
1e-07
138.699997 76.923775 0
0 0

0101101
*
Ve
1e-07
134.300003 76.923775 0
0 0

0101101
*
Ve
1e-07
134.300003 81.001572 0
0 0

0101101
*
Ve
1e-07
138.699997 81.001572 0
0 0

0101101
*
Ve
1e-07
138.699997 78.523773 0
0 0

0101101
*
Ve
1e-07
138.899994 78.523773 0
0 0

0101101
*
Ve
1e-07
137.149994 78.86554 0
0 0

0101101
*
Ve
1e-07
137.946869 79.35405 0
0 0

0101101
*
Ve
1e-07
137.946869 78.86554 0
0 0

0101101
*
Ve
1e-07
140.337494 80.33107 0
0 0

0101101
*
Ve
1e-07
138.345306 78.377037 0
0 0

0101101
*
Ve
1e-07
137.946869 78.621292 0
0 0

0101101
*
Ve
1e-07
138.345306 78.86554 0
0 0

0101101
*
Ve
1e-07
138.345306 78.621292 0
0 0

0101101
*
Ve
1e-07
140.337494 78.86554 0
0 0

0101101
*
Ve
1e-07
139.540619 79.35405 0
0 0

0101101
*
Ve
1e-07
139.540619 78.86554 0
0 0

0101101
*
Ve
1e-07
139.540619 78.621292 0
0 0

0101101
*
Ve
1e-07
139.142181 78.377037 0
0 0

0101101
*
Ve
1e-07
139.142181 78.86554 0
0 0

0101101
*
Ve
1e-07
139.142181 78.621292 0
0 0

0101101
*
Ve
1e-07
138.899994 79.001572 0
0 0

0101101
*
Ve
1e-07
139.100006 79.001572 0
0 0

0101101
*
Ve
1e-07
140.337494 79.84256 0
0 0

0101101
*
Ve
1e-07
139.540619 80.33107 0
0 0

0101101
*
Ve
1e-07
139.540619 79.84256 0
0 0

0101101
*
Ve
1e-07
143.524994 80.33107 0
0 0

0101101
*
Ve
1e-07
141.931244 80.33107 0
0 0

0101101
*
Ve
1e-07
139.100006 79.201576 0
0 0

0101101
*
Ve
1e-07
138.899994 79.201576 0
0 0

0101101
*
Ve
1e-07
138.899994 81.001572 0
0 0

0101101
*
Ve
1e-07
140.75 81.001572 0
0 0

0101101
*
Ve
1e-07
140.75 79.201576 0
0 0

0101101
*
Ve
1e-07
139.899994 79.201576 0
0 0

0101101
*
Ve
1e-07
139.899994 79.001572 0
0 0

0101101
*
Ve
1e-07
139.939056 78.86554 0
0 0

0101101
*
Ve
1e-07
139.939056 79.35405 0
0 0

0101101
*
Ve
1e-07
141.931244 78.86554 0
0 0

0101101
*
Ve
1e-07
140.75 79.001572 0
0 0

0101101
*
Ve
1e-07
140.75 76.923775 0
0 0

0101101
*
Ve
1e-07
139.949997 76.923775 0
0 0

0101101
*
Ve
1e-07
139.949997 76.574013 0
0 0

0101101
*
Ve
1e-07
141.899994 76.574013 0
0 0

0101101
*
Ve
1e-07
141.899994 76.923775 0
0 0

0101101
*
Ve
1e-07
141.134369 76.422997 0
0 0

0101101
*
Ve
1e-07
141.100006 76.923775 0
0 0

0101101
*
Ve
1e-07
141.100006 79.001572 0
0 0

0101101
*
Ve
1e-07
141.949997 79.001572 0
0 0

0101101
*
Ve
1e-07
141.949997 79.201576 0
0 0

0101101
*
Ve
1e-07
143.524994 78.86554 0
0 0

0101101
*
Ve
1e-07
142.728119 78.377037 0
0 0

0101101
*
Ve
1e-07
142.728119 79.35405 0
0 0

0101101
*
Ve
1e-07
142.728119 78.86554 0
0 0

0101101
*
Ve
1e-07
146.712494 78.377037 0
0 0

0101101
*
Ve
1e-07
145.118744 77.400017 0
0 0

0101101
*
Ve
1e-07
145.118744 79.35405 0
0 0

0101101
*
Ve
1e-07
145.118744 78.377037 0
0 0

0101101
*
Ve
1e-07
153.087494 79.35405 0
0 0

0101101
*
Ve
1e-07
149.899994 77.400017 0
0 0

0101101
*
Ve
1e-07
149.899994 79.35405 0
0 0

0101101
*
Ve
1e-07
142.329681 78.86554 0
0 0

0101101
*
Ve
1e-07
142.329681 79.35405 0
0 0

0101101
*
Ve
1e-07
143.524994 79.84256 0
0 0

0101101
*
Ve
1e-07
141.931244 79.84256 0
0 0

0101101
*
Ve
1e-07
142.728119 80.33107 0
0 0

0101101
*
Ve
1e-07
142.728119 79.84256 0
0 0

0101101
*
Ve
1e-07
146.712494 80.33107 0
0 0

0101101
*
Ve
1e-07
145.118744 80.33107 0
0 0

0101101
*
Ve
1e-07
141.100006 79.201576 0
0 0

0101101
*
Ve
1e-07
141.100006 81.001572 0
0 0

0101101
*
Ve
1e-07
142.949997 81.001572 0
0 0

0101101
*
Ve
1e-07
142.949997 79.201576 0
0 0

0101101
*
Ve
1e-07
142.75 79.201576 0
0 0

0101101
*
Ve
1e-07
143.524994 79.109795 0
0 0

0101101
*
Ve
1e-07
145.118744 78.86554 0
0 0

0101101
*
Ve
1e-07
144.321869 78.377037 0
0 0

0101101
*
Ve
1e-07
144.321869 79.35405 0
0 0

0101101
*
Ve
1e-07
144.321869 78.86554 0
0 0

0101101
*
Ve
1e-07
142.75 79.001572 0
0 0

0101101
*
Ve
1e-07
142.949997 79.001572 0
0 0

0101101
*
Ve
1e-07
142.949997 78.523773 0
0 0

0101101
*
Ve
1e-07
143.149994 78.523773 0
0 0

0101101
*
Ve
1e-07
143.524994 78.621292 0
0 0

0101101
*
Ve
1e-07
143.126556 78.377037 0
0 0

0101101
*
Ve
1e-07
142.728119 78.621292 0
0 0

0101101
*
Ve
1e-07
143.524994 77.888527 0
0 0

0101101
*
Ve
1e-07
142.728119 77.400017 0
0 0

0101101
*
Ve
1e-07
141.931244 77.888527 0
0 0

0101101
*
Ve
1e-07
142.728119 77.888527 0
0 0

0101101
*
Ve
1e-07
143.149994 81.001572 0
0 0

0101101
*
Ve
1e-07
147.550003 81.001572 0
0 0

0101101
*
Ve
1e-07
147.550003 76.923775 0
0 0

0101101
*
Ve
1e-07
143.149994 76.923775 0
0 0

0101101
*
Ve
1e-07
143.149994 77.723778 0
0 0

0101101
*
Ve
1e-07
142.949997 77.723778 0
0 0

0101101
*
Ve
1e-07
143.524994 77.644272 0
0 0

0101101
*
Ve
1e-07
142.728119 77.644272 0
0 0

0101101
*
Ve
1e-07
143.126556 77.888527 0
0 0

0101101
*
Ve
1e-07
145.118744 77.888527 0
0 0

0101101
*
Ve
1e-07
144.321869 77.400017 0
0 0

0101101
*
Ve
1e-07
144.321869 77.888527 0
0 0

0101101
*
Ve
1e-07
145.118744 75.445976 0
0 0

0101101
*
Ve
1e-07
145.118744 76.422997 0
0 0

0101101
*
Ve
1e-07
153.087494 75.445976 0
0 0

0101101
*
Ve
1e-07
149.899994 73.491936 0
0 0

0101101
*
Ve
1e-07
149.899994 75.445976 0
0 0

0101101
*
Ve
1e-07
142.728119 76.422997 0
0 0

0101101
*
Ve
1e-07
142.949997 76.923775 0
0 0

0101101
*
Ve
1e-07
142.800003 76.923775 0
0 0

0101101
*
Ve
1e-07
144.321869 76.422997 0
0 0

0101101
*
Ve
1e-07
142.800003 76.574013 0
0 0

0101101
*
Ve
1e-07
146.083328 76.574013 0
0 0

0101101
*
Ve
1e-07
149.366669 76.574013 0
0 0

0101101
*
Ve
1e-07
152.649994 76.574013 0
0 0

0101101
*
Ve
1e-07
152.649994 76.923775 0
0 0

0101101
*
Ve
1e-07
153.087494 76.422997 0
0 0

0101101
*
Ve
1e-07
151.493744 75.445976 0
0 0

0101101
*
Ve
1e-07
151.493744 77.400017 0
0 0

0101101
*
Ve
1e-07
151.493744 76.422997 0
0 0

0101101
*
Ve
1e-07
156.274994 73.491936 0
0 0

0101101
*
Ve
1e-07
156.274994 77.400017 0
0 0

0101101
*
Ve
1e-07
156.274994 75.445976 0
0 0

0101101
*
Ve
1e-07
152.290619 76.422997 0
0 0

0101101
*
Ve
1e-07
153.087494 78.377037 0
0 0

0101101
*
Ve
1e-07
149.899994 78.377037 0
0 0

0101101
*
Ve
1e-07
151.493744 79.35405 0
0 0

0101101
*
Ve
1e-07
151.493744 78.377037 0
0 0

0101101
*
Ve
1e-07
156.274994 79.35405 0
0 0

0101101
*
Ve
1e-07
156.274994 76.422997 0
0 0

0101101
*
Ve
1e-07
154.681244 75.445976 0
0 0

0101101
*
Ve
1e-07
154.681244 76.422997 0
0 0

0101101
*
Ve
1e-07
152.5 76.923775 0
0 0

0101101
*
Ve
1e-07
153.087494 77.155762 0
0 0

0101101
*
Ve
1e-07
152.689056 77.400017 0
0 0

0101101
*
Ve
1e-07
152.689056 77.155762 0
0 0

0101101
*
Ve
1e-07
153.087494 77.888527 0
0 0

0101101
*
Ve
1e-07
151.493744 77.888527 0
0 0

0101101
*
Ve
1e-07
152.290619 78.377037 0
0 0

0101101
*
Ve
1e-07
152.290619 77.888527 0
0 0

0101101
*
Ve
1e-07
156.274994 78.377037 0
0 0

0101101
*
Ve
1e-07
153.884369 76.422997 0
0 0

0101101
*
Ve
1e-07
153.884369 77.400017 0
0 0

0101101
*
Ve
1e-07
152.5 77.723778 0
0 0

0101101
*
Ve
1e-07
152.300003 77.723778 0
0 0

0101101
*
Ve
1e-07
153.087494 77.644272 0
0 0

0101101
*
Ve
1e-07
152.689056 77.888527 0
0 0

0101101
*
Ve
1e-07
152.689056 77.644272 0
0 0

0101101
*
Ve
1e-07
153.884369 78.377037 0
0 0

0101101
*
Ve
1e-07
153.884369 77.888527 0
0 0

0101101
*
Ve
1e-07
152.300003 76.923775 0
0 0

0101101
*
Ve
1e-07
147.899994 76.923775 0
0 0

0101101
*
Ve
1e-07
147.899994 81.001572 0
0 0

0101101
*
Ve
1e-07
152.300003 81.001572 0
0 0

0101101
*
Ve
1e-07
152.300003 78.523773 0
0 0

0101101
*
Ve
1e-07
152.5 78.523773 0
0 0

0101101
*
Ve
1e-07
153.087494 78.86554 0
0 0

0101101
*
Ve
1e-07
151.493744 78.86554 0
0 0

0101101
*
Ve
1e-07
153.087494 80.33107 0
0 0

0101101
*
Ve
1e-07
149.899994 80.33107 0
0 0

0101101
*
Ve
1e-07
151.493744 80.33107 0
0 0

0101101
*
Ve
1e-07
153.087494 78.621292 0
0 0

0101101
*
Ve
1e-07
152.689056 78.377037 0
0 0

0101101
*
Ve
1e-07
152.689056 78.86554 0
0 0

0101101
*
Ve
1e-07
152.689056 78.621292 0
0 0

0101101
*
Ve
1e-07
153.884369 79.35405 0
0 0

0101101
*
Ve
1e-07
153.884369 78.86554 0
0 0

0101101
*
Ve
1e-07
156.274994 80.33107 0
0 0

0101101
*
Ve
1e-07
152.5 79.001572 0
0 0

0101101
*
Ve
1e-07
152.699997 79.001572 0
0 0

0101101
*
Ve
1e-07
153.087494 79.84256 0
0 0

0101101
*
Ve
1e-07
151.493744 79.84256 0
0 0

0101101
*
Ve
1e-07
152.699997 79.201576 0
0 0

0101101
*
Ve
1e-07
152.5 79.201576 0
0 0

0101101
*
Ve
1e-07
152.5 81.001572 0
0 0

0101101
*
Ve
1e-07
154.350006 81.001572 0
0 0

0101101
*
Ve
1e-07
154.350006 79.201576 0
0 0

0101101
*
Ve
1e-07
153.5 79.201576 0
0 0

0101101
*
Ve
1e-07
153.5 79.001572 0
0 0

0101101
*
Ve
1e-07
153.485931 78.86554 0
0 0

0101101
*
Ve
1e-07
153.485931 79.35405 0
0 0

0101101
*
Ve
1e-07
153.884369 80.33107 0
0 0

0101101
*
Ve
1e-07
153.884369 79.84256 0
0 0

0101101
*
Ve
1e-07
154.350006 79.001572 0
0 0

0101101
*
Ve
1e-07
154.350006 76.923775 0
0 0

0101101
*
Ve
1e-07
153.550003 76.923775 0
0 0

0101101
*
Ve
1e-07
153.550003 76.574013 0
0 0

0101101
*
Ve
1e-07
155.5 76.574013 0
0 0

0101101
*
Ve
1e-07
155.5 76.923775 0
0 0

0101101
*
Ve
1e-07
155.478119 76.422997 0
0 0

0101101
*
Ve
1e-07
155.478119 77.400017 0
0 0

0101101
*
Ve
1e-07
157.868744 75.445976 0
0 0

0101101
*
Ve
1e-07
157.868744 77.400017 0
0 0

0101101
*
Ve
1e-07
157.868744 76.422997 0
0 0

0101101
*
Ve
1e-07
154.699997 76.923775 0
0 0

0101101
*
Ve
1e-07
154.699997 79.001572 0
0 0

0101101
*
Ve
1e-07
155.550003 79.001572 0
0 0

0101101
*
Ve
1e-07
155.550003 79.201576 0
0 0

0101101
*
Ve
1e-07
156.274994 78.86554 0
0 0

0101101
*
Ve
1e-07
155.478119 78.377037 0
0 0

0101101
*
Ve
1e-07
155.478119 79.35405 0
0 0

0101101
*
Ve
1e-07
155.478119 78.86554 0
0 0

0101101
*
Ve
1e-07
159.462494 78.377037 0
0 0

0101101
*
Ve
1e-07
157.868744 79.35405 0
0 0

0101101
*
Ve
1e-07
157.868744 78.377037 0
0 0

0101101
*
Ve
1e-07
155.876556 78.86554 0
0 0

0101101
*
Ve
1e-07
155.876556 79.35405 0
0 0

0101101
*
Ve
1e-07
156.274994 79.84256 0
0 0

0101101
*
Ve
1e-07
155.478119 80.33107 0
0 0

0101101
*
Ve
1e-07
155.478119 79.84256 0
0 0

0101101
*
Ve
1e-07
159.462494 80.33107 0
0 0

0101101
*
Ve
1e-07
157.868744 80.33107 0
0 0

0101101
*
Ve
1e-07
157.868744 78.86554 0
0 0

0101101
*
Ve
1e-07
157.071869 78.377037 0
0 0

0101101
*
Ve
1e-07
157.071869 79.35405 0
0 0

0101101
*
Ve
1e-07
157.071869 78.86554 0
0 0

0101101
*
Ve
1e-07
154.699997 79.201576 0
0 0

0101101
*
Ve
1e-07
154.699997 81.001572 0
0 0

0101101
*
Ve
1e-07
156.550003 81.001572 0
0 0

0101101
*
Ve
1e-07
156.550003 79.201576 0
0 0

0101101
*
Ve
1e-07
156.350006 79.201576 0
0 0

0101101
*
Ve
1e-07
157.071869 79.109795 0
0 0

0101101
*
Ve
1e-07
157.868744 79.84256 0
0 0

0101101
*
Ve
1e-07
157.071869 80.33107 0
0 0

0101101
*
Ve
1e-07
157.071869 79.84256 0
0 0

0101101
*
Ve
1e-07
156.350006 79.001572 0
0 0

0101101
*
Ve
1e-07
156.550003 79.001572 0
0 0

0101101
*
Ve
1e-07
156.550003 78.523773 0
0 0

0101101
*
Ve
1e-07
156.75 78.523773 0
0 0

0101101
*
Ve
1e-07
157.071869 78.621292 0
0 0

0101101
*
Ve
1e-07
156.673431 78.377037 0
0 0

0101101
*
Ve
1e-07
156.274994 78.621292 0
0 0

0101101
*
Ve
1e-07
157.868744 77.888527 0
0 0

0101101
*
Ve
1e-07
157.071869 77.400017 0
0 0

0101101
*
Ve
1e-07
156.274994 77.888527 0
0 0

0101101
*
Ve
1e-07
157.071869 77.888527 0
0 0

0101101
*
Ve
1e-07
156.75 81.001572 0
0 0

0101101
*
Ve
1e-07
161.149994 81.001572 0
0 0

0101101
*
Ve
1e-07
161.149994 76.923775 0
0 0

0101101
*
Ve
1e-07
156.75 76.923775 0
0 0

0101101
*
Ve
1e-07
156.75 77.723778 0
0 0

0101101
*
Ve
1e-07
156.550003 77.723778 0
0 0

0101101
*
Ve
1e-07
157.071869 77.644272 0
0 0

0101101
*
Ve
1e-07
156.274994 77.644272 0
0 0

0101101
*
Ve
1e-07
156.673431 77.888527 0
0 0

0101101
*
Ve
1e-07
157.071869 76.422997 0
0 0

0101101
*
Ve
1e-07
155.478119 77.888527 0
0 0

0101101
*
Ve
1e-07
156.550003 76.923775 0
0 0

0101101
*
Ve
1e-07
156.399994 76.923775 0
0 0

0101101
*
Ve
1e-07
156.399994 76.574013 0
0 0

0101101
*
Ve
1e-07
158.949997 76.574013 0
0 0

0101101
*
Ve
1e-07
161.5 76.574013 0
0 0

0101101
*
Ve
1e-07
161.5 81.001572 0
0 0

0101101
*
Ve
1e-07
164.649994 81.001572 0
0 0

0101101
*
Ve
1e-07
164.649994 78.537796 0
0 0

0101101
*
Ve
1e-07
164.649994 76.074013 0
0 0

0101101
*
Ve
1e-07
165 76.074013 0
0 0

0101101
*
Ve
1e-07
164.243744 75.934486 0
0 0

0101101
*
Ve
1e-07
165.040619 75.934486 0
0 0

0101101
*
Ve
1e-07
165 78.537796 0
0 0

0101101
*
Ve
1e-07
165 81.001572 0
0 0

0101101
*
Ve
1e-07
166.800003 81.001572 0
0 0

0101101
*
Ve
1e-07
166.800003 78.32354 0
0 0

0101101
*
Ve
1e-07
167 78.32354 0
0 0

0101101
*
Ve
1e-07
169.024994 78.377037 0
0 0

0101101
*
Ve
1e-07
165.837494 78.377037 0
0 0

0101101
*
Ve
1e-07
167.431244 79.35405 0
0 0

0101101
*
Ve
1e-07
167.431244 78.377037 0
0 0

0101101
*
Ve
1e-07
167.431244 77.888527 0
0 0

0101101
*
Ve
1e-07
166.634369 77.400017 0
0 0

0101101
*
Ve
1e-07
165.837494 77.888527 0
0 0

0101101
*
Ve
1e-07
166.634369 78.377037 0
0 0

0101101
*
Ve
1e-07
166.634369 77.888527 0
0 0

0101101
*
Ve
1e-07
162.649994 78.377037 0
0 0

0101101
*
Ve
1e-07
164.243744 79.35405 0
0 0

0101101
*
Ve
1e-07
164.243744 78.377037 0
0 0

0101101
*
Ve
1e-07
167.431244 78.132782 0
0 0

0101101
*
Ve
1e-07
167.032806 77.888527 0
0 0

0101101
*
Ve
1e-07
166.634369 78.132782 0
0 0

0101101
*
Ve
1e-07
167.032806 78.132782 0
0 0

0101101
*
Ve
1e-07
167.431244 78.86554 0
0 0

0101101
*
Ve
1e-07
165.837494 78.86554 0
0 0

0101101
*
Ve
1e-07
166.634369 79.35405 0
0 0

0101101
*
Ve
1e-07
166.634369 78.86554 0
0 0

0101101
*
Ve
1e-07
169.024994 80.33107 0
0 0

0101101
*
Ve
1e-07
167.431244 80.33107 0
0 0

0101101
*
Ve
1e-07
169.024994 77.888527 0
0 0

0101101
*
Ve
1e-07
168.228119 77.400017 0
0 0

0101101
*
Ve
1e-07
168.228119 78.377037 0
0 0

0101101
*
Ve
1e-07
168.228119 77.888527 0
0 0

0101101
*
Ve
1e-07
170.618744 77.400017 0
0 0

0101101
*
Ve
1e-07
170.618744 79.35405 0
0 0

0101101
*
Ve
1e-07
170.618744 78.377037 0
0 0

0101101
*
Ve
1e-07
167 81.001572 0
0 0

0101101
*
Ve
1e-07
171.399994 81.001572 0
0 0

0101101
*
Ve
1e-07
171.399994 76.848778 0
0 0

0101101
*
Ve
1e-07
167 76.848778 0
0 0

0101101
*
Ve
1e-07
167 77.423538 0
0 0

0101101
*
Ve
1e-07
166.800003 77.423538 0
0 0

0101101
*
Ve
1e-07
167.431244 77.644272 0
0 0

0101101
*
Ve
1e-07
166.634369 77.644272 0
0 0

0101101
*
Ve
1e-07
167.032806 77.644272 0
0 0

0101101
*
Ve
1e-07
165.837494 76.911507 0
0 0

0101101
*
Ve
1e-07
166.634369 76.911507 0
0 0

0101101
*
Ve
1e-07
166.800003 76.074013 0
0 0

0101101
*
Ve
1e-07
167 76.074013 0
0 0

0101101
*
Ve
1e-07
167.431244 76.178741 0
0 0

0101101
*
Ve
1e-07
167.032806 75.934486 0
0 0

0101101
*
Ve
1e-07
166.634369 76.178741 0
0 0

0101101
*
Ve
1e-07
169.024994 75.934486 0
0 0

0101101
*
Ve
1e-07
168.228119 76.422997 0
0 0

0101101
*
Ve
1e-07
168.228119 75.934486 0
0 0

0101101
*
Ve
1e-07
170.618744 76.422997 0
0 0

0101101
*
Co

0100000
+1481 0 +1480 0 +1479 0 +1478 0 +1477 0 +1476 0 +1475 0 +1474 0 +1473 0 +1472 0 
+1471 0 +1470 0 +1469 0 +1468 0 +1467 0 +1466 0 +1465 0 +1464 0 +1463 0 +1462 0 
+1461 0 +1460 0 +1459 0 +1458 0 +1457 0 +1456 0 +1455 0 +1454 0 +1453 0 +1452 0 
+1451 0 +1450 0 +1449 0 +1448 0 +1447 0 +1446 0 +1445 0 +1444 0 +1443 0 +1442 0 
+1441 0 +1440 0 +1439 0 +1438 0 +1437 0 +1436 0 +1435 0 +1434 0 +1433 0 +1432 0 
+1431 0 +1430 0 +1429 0 +1428 0 +1427 0 +1426 0 +1425 0 +1424 0 +1423 0 +1422 0 
+1421 0 +1420 0 +1419 0 +1418 0 +1417 0 +1416 0 +1415 0 +1414 0 +1413 0 +1412 0 
+1411 0 +1410 0 +1409 0 +1408 0 +1407 0 +1406 0 +1405 0 +1404 0 +1403 0 +1402 0 
+1401 0 +1400 0 +1399 0 +1398 0 +1397 0 +1396 0 +1395 0 +1394 0 +1393 0 +1392 0 
+1391 0 +1390 0 +1389 0 +1388 0 +1387 0 +1386 0 +1385 0 +1384 0 +1383 0 +1382 0 
+1381 0 +1380 0 +1379 0 +1378 0 +1377 0 +1376 0 +1375 0 +1374 0 +1373 0 +1372 0 
+1371 0 +1370 0 +1369 0 +1368 0 +1367 0 +1366 0 +1365 0 +1364 0 +1363 0 +1362 0 
+1361 0 +1360 0 +1359 0 +1358 0 +1357 0 +1356 0 +1355 0 +1354 0 +1353 0 +1352 0 
+1351 0 +1350 0 +1349 0 +1348 0 +1347 0 +1346 0 +1345 0 +1344 0 +1343 0 +1342 0 
+1341 0 +1340 0 +1339 0 +1338 0 +1337 0 +1336 0 +1335 0 +1334 0 +1333 0 +1332 0 
+1331 0 +1330 0 +1329 0 +1328 0 +1327 0 +1326 0 +1325 0 +1324 0 +1323 0 +1322 0 
+1321 0 +1320 0 +1319 0 +1318 0 +1317 0 +1316 0 +1315 0 +1314 0 +1313 0 +1312 0 
+1311 0 +1310 0 +1309 0 +1308 0 +1307 0 +1306 0 +1305 0 +1304 0 +1303 0 +1302 0 
+1301 0 +1300 0 +1299 0 +1298 0 +1297 0 +1296 0 +1295 0 +1294 0 +1293 0 +1292 0 
+1291 0 +1290 0 +1289 0 +1288 0 +1287 0 +1286 0 +1285 0 +1284 0 +1283 0 +1282 0 
+1281 0 +1280 0 +1279 0 +1278 0 +1277 0 +1276 0 +1275 0 +1274 0 +1273 0 +1272 0 
+1271 0 +1270 0 +1269 0 +1268 0 +1267 0 +1266 0 +1265 0 +1264 0 +1263 0 +1262 0 
+1261 0 +1260 0 +1259 0 +1258 0 +1257 0 +1256 0 +1255 0 +1254 0 +1253 0 +1252 0 
+1251 0 +1250 0 +1249 0 +1248 0 +1247 0 +1246 0 +1245 0 +1244 0 +1243 0 +1242 0 
+1241 0 +1240 0 +1239 0 +1238 0 +1237 0 +1236 0 +1235 0 +1234 0 +1233 0 +1232 0 
+1231 0 +1230 0 +1229 0 +1228 0 +1227 0 +1226 0 +1225 0 +1224 0 +1223 0 +1222 0 
+1221 0 +1220 0 +1219 0 +1218 0 +1217 0 +1216 0 +1215 0 +1214 0 +1213 0 +1212 0 
+1211 0 +1210 0 +1209 0 +1208 0 +1207 0 +1206 0 +1205 0 +1204 0 +1203 0 +1202 0 
+1201 0 +1200 0 +1199 0 +1198 0 +1197 0 +1196 0 +1195 0 +1194 0 +1193 0 +1192 0 
+1191 0 +1190 0 +1189 0 +1188 0 +1187 0 +1186 0 +1185 0 +1184 0 +1183 0 +1182 0 
+1181 0 +1180 0 +1179 0 +1178 0 +1177 0 +1176 0 +1175 0 +1174 0 +1173 0 +1172 0 
+1171 0 +1170 0 +1169 0 +1168 0 +1167 0 +1166 0 +1165 0 +1164 0 +1163 0 +1162 0 
+1161 0 +1160 0 +1159 0 +1158 0 +1157 0 +1156 0 +1155 0 +1154 0 +1153 0 +1152 0 
+1151 0 +1150 0 +1149 0 +1148 0 +1147 0 +1146 0 +1145 0 +1144 0 +1143 0 +1142 0 
+1141 0 +1140 0 +1139 0 +1138 0 +1137 0 +1136 0 +1135 0 +1134 0 +1133 0 +1132 0 
+1131 0 +1130 0 +1129 0 +1128 0 +1127 0 +1126 0 +1125 0 +1124 0 +1123 0 +1122 0 
+1121 0 +1120 0 +1119 0 +1118 0 +1117 0 +1116 0 +1115 0 +1114 0 +1113 0 +1112 0 
+1111 0 +1110 0 +1109 0 +1108 0 +1107 0 +1106 0 +1105 0 +1104 0 +1103 0 +1102 0 
+1101 0 +1100 0 +1099 0 +1098 0 +1097 0 +1096 0 +1095 0 +1094 0 +1093 0 +1092 0 
+1091 0 +1090 0 +1089 0 +1088 0 +1087 0 +1086 0 +1085 0 +1084 0 +1083 0 +1082 0 
+1081 0 +1080 0 +1079 0 +1078 0 +1077 0 +1076 0 +1075 0 +1074 0 +1073 0 +1072 0 
+1071 0 +1070 0 +1069 0 +1068 0 +1067 0 +1066 0 +1065 0 +1064 0 +1063 0 +1062 0 
+1061 0 +1060 0 +1059 0 +1058 0 +1057 0 +1056 0 +1055 0 +1054 0 +1053 0 +1052 0 
+1051 0 +1050 0 +1049 0 +1048 0 +1047 0 +1046 0 +1045 0 +1044 0 +1043 0 +1042 0 
+1041 0 +1040 0 +1039 0 +1038 0 +1037 0 +1036 0 +1035 0 +1034 0 +1033 0 +1032 0 
+1031 0 +1030 0 +1029 0 +1028 0 +1027 0 +1026 0 +1025 0 +1024 0 +1023 0 +1022 0 
+1021 0 +1020 0 +1019 0 +1018 0 +1017 0 +1016 0 +1015 0 +1014 0 +1013 0 +1012 0 
+1011 0 +1010 0 +1009 0 +1008 0 +1007 0 +1006 0 +1005 0 +1004 0 +1003 0 +1002 0 
+1001 0 +1000 0 +999 0 +998 0 +997 0 +996 0 +995 0 +994 0 +993 0 +992 0 
+991 0 +990 0 +989 0 +988 0 +987 0 +986 0 +985 0 +984 0 +983 0 +982 0 
+981 0 +980 0 +979 0 +978 0 +977 0 +976 0 +975 0 +974 0 +973 0 +972 0 
+971 0 +970 0 +969 0 +968 0 +967 0 +966 0 +965 0 +964 0 +963 0 +962 0 
+961 0 +960 0 +959 0 +958 0 +957 0 +956 0 +955 0 +954 0 +953 0 +952 0 
+951 0 +950 0 +949 0 +948 0 +947 0 +946 0 +945 0 +944 0 +943 0 +942 0 
+941 0 +940 0 +939 0 +938 0 +937 0 +936 0 +935 0 +934 0 +933 0 +932 0 
+931 0 +930 0 +929 0 +928 0 +927 0 +926 0 +925 0 +924 0 +923 0 +922 0 
+921 0 +920 0 +919 0 +918 0 +917 0 +916 0 +915 0 +914 0 +913 0 +912 0 
+911 0 +910 0 +909 0 +908 0 +907 0 +906 0 +905 0 +904 0 +903 0 +902 0 
+901 0 +900 0 +899 0 +898 0 +897 0 +896 0 +895 0 +894 0 +893 0 +892 0 
+891 0 +890 0 +889 0 +888 0 +887 0 +886 0 +885 0 +884 0 +883 0 +882 0 
+881 0 +880 0 +879 0 +878 0 +877 0 +876 0 +875 0 +874 0 +873 0 +872 0 
+871 0 +870 0 +869 0 +868 0 +867 0 +866 0 +865 0 +864 0 +863 0 +862 0 
+861 0 +860 0 +859 0 +858 0 +857 0 +856 0 +855 0 +854 0 +853 0 +852 0 
+851 0 +850 0 +849 0 +848 0 +847 0 +846 0 +845 0 +844 0 +843 0 +842 0 
+841 0 +840 0 +839 0 +838 0 +837 0 +836 0 +835 0 +834 0 +833 0 +832 0 
+831 0 +830 0 +829 0 +828 0 +827 0 +826 0 +825 0 +824 0 +823 0 +822 0 
+821 0 +820 0 +819 0 +818 0 +817 0 +816 0 +815 0 +814 0 +813 0 +812 0 
+811 0 +810 0 +809 0 +808 0 +807 0 +806 0 +805 0 +804 0 +803 0 +802 0 
+801 0 +800 0 +799 0 +798 0 +797 0 +796 0 +795 0 +794 0 +793 0 +792 0 
+791 0 +790 0 +789 0 +788 0 +787 0 +786 0 +785 0 +784 0 +783 0 +782 0 
+781 0 +780 0 +779 0 +778 0 +777 0 +776 0 +775 0 +774 0 +773 0 +772 0 
+771 0 +770 0 +769 0 +768 0 +767 0 +766 0 +765 0 +764 0 +763 0 +762 0 
+761 0 +760 0 +759 0 +758 0 +757 0 +756 0 +755 0 +754 0 +753 0 +752 0 
+751 0 +750 0 +749 0 +748 0 +747 0 +746 0 +745 0 +744 0 +743 0 +742 0 
+741 0 +740 0 +739 0 +738 0 +737 0 +736 0 +735 0 +734 0 +733 0 +732 0 
+731 0 +730 0 +729 0 +728 0 +727 0 +726 0 +725 0 +724 0 +723 0 +722 0 
+721 0 +720 0 +719 0 +718 0 +717 0 +716 0 +715 0 +714 0 +713 0 +712 0 
+711 0 +710 0 +709 0 +708 0 +707 0 +706 0 +705 0 +704 0 +703 0 +702 0 
+701 0 +700 0 +699 0 +698 0 +697 0 +696 0 +695 0 +694 0 +693 0 +692 0 
+691 0 +690 0 +689 0 +688 0 +687 0 +686 0 +685 0 +684 0 +683 0 +682 0 
+681 0 +680 0 +679 0 +678 0 +677 0 +676 0 +675 0 +674 0 +673 0 +672 0 
+671 0 +670 0 +669 0 +668 0 +667 0 +666 0 +665 0 +664 0 +663 0 +662 0 
+661 0 +660 0 +659 0 +658 0 +657 0 +656 0 +655 0 +654 0 +653 0 +652 0 
+651 0 +650 0 +649 0 +648 0 +647 0 +646 0 +645 0 +644 0 +643 0 +642 0 
+641 0 +640 0 +639 0 +638 0 +637 0 +636 0 +635 0 +634 0 +633 0 +632 0 
+631 0 +630 0 +629 0 +628 0 +627 0 +626 0 +625 0 +624 0 +623 0 +622 0 
+621 0 +620 0 +619 0 +618 0 +617 0 +616 0 +615 0 +614 0 +613 0 +612 0 
+611 0 +610 0 +609 0 +608 0 +607 0 +606 0 +605 0 +604 0 +603 0 +602 0 
+601 0 +600 0 +599 0 +598 0 +597 0 +596 0 +595 0 +594 0 +593 0 +592 0 
+591 0 +590 0 +589 0 +588 0 +587 0 +586 0 +585 0 +584 0 +583 0 +582 0 
+581 0 +580 0 +579 0 +578 0 +577 0 +576 0 +575 0 +574 0 +573 0 +572 0 
+571 0 +570 0 +569 0 +568 0 +567 0 +566 0 *
Ve
1e-07
90.150002 59.849998 0
0 0

0101101
*
Ve
1e-07
90.650002 59.849998 0
0 0

0101101
*
Ed
 1e-07 1 1 0
1  1 0 0 0.5
0

0101000
+564 0 -563 0 *
Ve
1e-07
90.650002 60.200001 0
0 0

0101101
*
Ed
 1e-07 1 1 0
1  2 0 0 0.350003000000001
0

0101000
+563 0 -561 0 *
Ve
1e-07
90.150002 60.200001 0
0 0

0101101
*
Ed
 1e-07 1 1 0
1  3 0 0 0.5
0

0101000
+561 0 -559 0 *
Ve
1e-07
90.150002 63.145977 0
0 0

0101101
*
Ed
 1e-07 1 1 0
1  4 0 0 2.945976
0

0101000
+559 0 -557 0 *
Ve
1e-07
93.474998 63.145977 0
0 0

0101101
*
Ed
 1e-07 1 1 0
1  5 0 0 3.324996
0

0101000
+557 0 -555 0 *
Ve
1e-07
96.800003 63.145977 0
0 0

0101101
*
Ed
 1e-07 1 1 0
1  6 0 0 3.325005
0

0101000
+555 0 -553 0 *
Ve
1e-07
96.800003 67.609879 0
0 0

0101101
*
Ed
 1e-07 1 1 0
1  7 0 0 4.463902
0

0101000
+553 0 -551 0 *
Ve
1e-07
96.800003 72.073776 0
0 0

0101101
*
Ed
 1e-07 1 1 0
1  8 0 0 4.46389699999999
0

0101000
+551 0 -549 0 *
Ve
1e-07
96.800003 76.537674 0
0 0

0101101
*
Ed
 1e-07 1 1 0
1  9 0 0 4.463898
0

0101000
+549 0 -547 0 *
Ve
1e-07
96.800003 81.001572 0
0 0

0101101
*
Ed
 1e-07 1 1 0
1  10 0 0 4.463898
0

0101000
+547 0 -545 0 *
Ve
1e-07
100.025002 81.001572 0
0 0

0101101
*
Ed
 1e-07 1 1 0
1  11 0 0 3.224999
0

0101000
+545 0 -543 0 *
Ve
1e-07
103.25 81.001572 0
0 0

0101101
*
Ed
 1e-07 1 1 0
1  12 0 0 3.224998
0

0101000
+543 0 -541 0 *
Ve
1e-07
103.25 76.923775 0
0 0

0101101
*
Ed
 1e-07 1 1 0
1  13 0 0 4.07779699999999
0

0101000
+541 0 -539 0 *
Ve
1e-07
98.599998 76.923775 0
0 0

0101101
*
Ed
 1e-07 1 1 0
1  14 0 0 4.650002
0

0101000
+539 0 -537 0 *
Ve
1e-07
98.599998 76.574013 0
0 0

0101101
*
Ed
 1e-07 1 1 0
1  15 0 0 0.349762000000013
0

0101000
+537 0 -535 0 *
Ve
1e-07
101.099998 76.574013 0
0 0

0101101
*
Ed
 1e-07 1 1 0
1  16 0 0 2.5
0

0101000
+535 0 -533 0 *
Ve
1e-07
103.599998 76.574013 0
0 0

0101101
*
Ed
 1e-07 1 1 0
1  17 0 0 2.5
0

0101000
+533 0 -531 0 *
Ve
1e-07
103.599998 81.001572 0
0 0

0101101
*
Ed
 1e-07 1 1 0
1  18 0 0 4.427559
0

0101000
+531 0 -529 0 *
Ve
1e-07
106.75 81.001572 0
0 0

0101101
*
Ed
 1e-07 1 1 0
1  19 0 0 3.150002
0

0101000
+529 0 -527 0 *
Ve
1e-07
106.75 76.574013 0
0 0

0101101
*
Ed
 1e-07 1 1 0
1  20 0 0 4.427559
0

0101000
+527 0 -525 0 *
Ve
1e-07
109.300003 76.574013 0
0 0

0101101
*
Ed
 1e-07 1 1 0
1  21 0 0 2.550003
0

0101000
+525 0 -523 0 *
Ve
1e-07
111.849998 76.574013 0
0 0

0101101
*
Ed
 1e-07 1 1 0
1  22 0 0 2.549995
0

0101000
+523 0 -521 0 *
Ve
1e-07
111.849998 76.923775 0
0 0

0101101
*
Ed
 1e-07 1 1 0
1  23 0 0 0.349762000000013
0

0101000
+521 0 -519 0 *
Ve
1e-07
111.699997 76.923775 0
0 0

0101101
*
Ed
 1e-07 1 1 0
1  24 0 0 0.150001000000003
0

0101000
+519 0 -517 0 *
Ve
1e-07
111.699997 77.723778 0
0 0

0101101
*
Ed
 1e-07 1 1 0
1  25 0 0 0.80000299999999
0

0101000
+517 0 -515 0 *
Ve
1e-07
111.5 77.723778 0
0 0

0101101
*
Ed
 1e-07 1 1 0
1  26 0 0 0.199996999999996
0

0101000
+515 0 -513 0 *
Ve
1e-07
111.5 76.923775 0
0 0

0101101
*
Ed
 1e-07 1 1 0
1  27 0 0 0.80000299999999
0

0101000
+513 0 -511 0 *
Ve
1e-07
107.099998 76.923775 0
0 0

0101101
*
Ed
 1e-07 1 1 0
1  28 0 0 4.400002
0

0101000
+511 0 -509 0 *
Ve
1e-07
107.099998 81.001572 0
0 0

0101101
*
Ed
 1e-07 1 1 0
1  29 0 0 4.07779699999999
0

0101000
+509 0 -507 0 *
Ve
1e-07
111.5 81.001572 0
0 0

0101101
*
Ed
 1e-07 1 1 0
1  30 0 0 4.400002
0

0101000
+507 0 -505 0 *
Ve
1e-07
111.5 78.523773 0
0 0

0101101
*
Ed
 1e-07 1 1 0
1  31 0 0 2.47779899999999
0

0101000
+505 0 -503 0 *
Ve
1e-07
111.699997 78.523773 0
0 0

0101101
*
Ed
 1e-07 1 1 0
1  32 0 0 0.199996999999996
0

0101000
+503 0 -501 0 *
Ve
1e-07
111.699997 79.001572 0
0 0

0101101
*
Ed
 1e-07 1 1 0
1  33 0 0 0.47779899999999
0

0101000
+501 0 -499 0 *
Ve
1e-07
111.900002 79.001572 0
0 0

0101101
*
Ed
 1e-07 1 1 0
1  34 0 0 0.200005000000004
0

0101000
+499 0 -497 0 *
Ve
1e-07
111.900002 79.201576 0
0 0

0101101
*
Ed
 1e-07 1 1 0
1  35 0 0 0.200004000000007
0

0101000
+497 0 -495 0 *
Ve
1e-07
111.699997 79.201576 0
0 0

0101101
*
Ed
 1e-07 1 1 0
1  36 0 0 0.200005000000004
0

0101000
+495 0 -493 0 *
Ve
1e-07
111.699997 81.001572 0
0 0

0101101
*
Ed
 1e-07 1 1 0
1  37 0 0 1.79999599999999
0

0101000
+493 0 -491 0 *
Ve
1e-07
113.550003 81.001572 0
0 0

0101101
*
Ed
 1e-07 1 1 0
1  38 0 0 1.85000600000001
0

0101000
+491 0 -489 0 *
Ve
1e-07
113.550003 79.201576 0
0 0

0101101
*
Ed
 1e-07 1 1 0
1  39 0 0 1.79999599999999
0

0101000
+489 0 -487 0 *
Ve
1e-07
112.699997 79.201576 0
0 0

0101101
*
Ed
 1e-07 1 1 0
1  40 0 0 0.850006000000008
0

0101000
+487 0 -485 0 *
Ve
1e-07
112.699997 79.001572 0
0 0

0101101
*
Ed
 1e-07 1 1 0
1  41 0 0 0.200004000000007
0

0101000
+485 0 -483 0 *
Ve
1e-07
113.550003 79.001572 0
0 0

0101101
*
Ed
 1e-07 1 1 0
1  42 0 0 0.850006000000008
0

0101000
+483 0 -481 0 *
Ve
1e-07
113.550003 76.923775 0
0 0

0101101
*
Ed
 1e-07 1 1 0
1  43 0 0 2.07779699999999
0

0101000
+481 0 -479 0 *
Ve
1e-07
112.75 76.923775 0
0 0

0101101
*
Ed
 1e-07 1 1 0
1  44 0 0 0.800003000000004
0

0101000
+479 0 -477 0 *
Ve
1e-07
112.75 76.574013 0
0 0

0101101
*
Ed
 1e-07 1 1 0
1  45 0 0 0.349762000000013
0

0101000
+477 0 -475 0 *
Ve
1e-07
114.699997 76.574013 0
0 0

0101101
*
Ed
 1e-07 1 1 0
1  46 0 0 1.949997
0

0101000
+475 0 -473 0 *
Ve
1e-07
114.699997 76.923775 0
0 0

0101101
*
Ed
 1e-07 1 1 0
1  47 0 0 0.349762000000013
0

0101000
+473 0 -471 0 *
Ve
1e-07
113.900002 76.923775 0
0 0

0101101
*
Ed
 1e-07 1 1 0
1  48 0 0 0.799994999999996
0

0101000
+471 0 -469 0 *
Ve
1e-07
113.900002 79.001572 0
0 0

0101101
*
Ed
 1e-07 1 1 0
1  49 0 0 2.07779699999999
0

0101000
+469 0 -467 0 *
Ve
1e-07
114.75 79.001572 0
0 0

0101101
*
Ed
 1e-07 1 1 0
1  50 0 0 0.849997999999999
0

0101000
+467 0 -465 0 *
Ve
1e-07
114.75 79.201576 0
0 0

0101101
*
Ed
 1e-07 1 1 0
1  51 0 0 0.200004000000007
0

0101000
+465 0 -463 0 *
Ve
1e-07
113.900002 79.201576 0
0 0

0101101
*
Ed
 1e-07 1 1 0
1  52 0 0 0.849997999999999
0

0101000
+463 0 -461 0 *
Ve
1e-07
113.900002 81.001572 0
0 0

0101101
*
Ed
 1e-07 1 1 0
1  53 0 0 1.79999599999999
0

0101000
+461 0 -459 0 *
Ve
1e-07
115.75 81.001572 0
0 0

0101101
*
Ed
 1e-07 1 1 0
1  54 0 0 1.849998
0

0101000
+459 0 -457 0 *
Ve
1e-07
115.75 79.201576 0
0 0

0101101
*
Ed
 1e-07 1 1 0
1  55 0 0 1.79999599999999
0

0101000
+457 0 -455 0 *
Ve
1e-07
115.550003 79.201576 0
0 0

0101101
*
Ed
 1e-07 1 1 0
1  56 0 0 0.199996999999996
0

0101000
+455 0 -453 0 *
Ve
1e-07
115.550003 79.001572 0
0 0

0101101
*
Ed
 1e-07 1 1 0
1  57 0 0 0.200004000000007
0

0101000
+453 0 -451 0 *
Ve
1e-07
115.75 79.001572 0
0 0

0101101
*
Ed
 1e-07 1 1 0
1  58 0 0 0.199996999999996
0

0101000
+451 0 -449 0 *
Ve
1e-07
115.75 78.523773 0
0 0

0101101
*
Ed
 1e-07 1 1 0
1  59 0 0 0.47779899999999
0

0101000
+449 0 -447 0 *
Ve
1e-07
115.949997 78.523773 0
0 0

0101101
*
Ed
 1e-07 1 1 0
1  60 0 0 0.199996999999996
0

0101000
+447 0 -445 0 *
Ve
1e-07
115.949997 81.001572 0
0 0

0101101
*
Ed
 1e-07 1 1 0
1  61 0 0 2.47779899999999
0

0101000
+445 0 -443 0 *
Ve
1e-07
120.349998 81.001572 0
0 0

0101101
*
Ed
 1e-07 1 1 0
1  62 0 0 4.400001
0

0101000
+443 0 -441 0 *
Ve
1e-07
120.349998 76.923775 0
0 0

0101101
*
Ed
 1e-07 1 1 0
1  63 0 0 4.07779699999999
0

0101000
+441 0 -439 0 *
Ve
1e-07
115.949997 76.923775 0
0 0

0101101
*
Ed
 1e-07 1 1 0
1  64 0 0 4.400001
0

0101000
+439 0 -437 0 *
Ve
1e-07
115.949997 77.723778 0
0 0

0101101
*
Ed
 1e-07 1 1 0
1  65 0 0 0.80000299999999
0

0101000
+437 0 -435 0 *
Ve
1e-07
115.75 77.723778 0
0 0

0101101
*
Ed
 1e-07 1 1 0
1  66 0 0 0.199996999999996
0

0101000
+435 0 -433 0 *
Ve
1e-07
115.75 76.923775 0
0 0

0101101
*
Ed
 1e-07 1 1 0
1  67 0 0 0.80000299999999
0

0101000
+433 0 -431 0 *
Ve
1e-07
115.599998 76.923775 0
0 0

0101101
*
Ed
 1e-07 1 1 0
1  68 0 0 0.150002000000001
0

0101000
+431 0 -429 0 *
Ve
1e-07
115.599998 76.574013 0
0 0

0101101
*
Ed
 1e-07 1 1 0
1  69 0 0 0.349762000000013
0

0101000
+429 0 -427 0 *
Ve
1e-07
118.883331 76.574013 0
0 0

0101101
*
Ed
 1e-07 1 1 0
1  70 0 0 3.283333
0

0101000
+427 0 -425 0 *
Ve
1e-07
122.166664 76.574013 0
0 0

0101101
*
Ed
 1e-07 1 1 0
1  71 0 0 3.283333
0

0101000
+425 0 -423 0 *
Ve
1e-07
125.449997 76.574013 0
0 0

0101101
*
Ed
 1e-07 1 1 0
1  72 0 0 3.283333
0

0101000
+423 0 -421 0 *
Ve
1e-07
125.449997 76.923775 0
0 0

0101101
*
Ed
 1e-07 1 1 0
1  73 0 0 0.349762000000013
0

0101000
+421 0 -419 0 *
Ve
1e-07
125.300003 76.923775 0
0 0

0101101
*
Ed
 1e-07 1 1 0
1  74 0 0 0.149993999999992
0

0101000
+419 0 -417 0 *
Ve
1e-07
125.300003 77.723778 0
0 0

0101101
*
Ed
 1e-07 1 1 0
1  75 0 0 0.80000299999999
0

0101000
+417 0 -415 0 *
Ve
1e-07
125.099998 77.723778 0
0 0

0101101
*
Ed
 1e-07 1 1 0
1  76 0 0 0.200005000000004
0

0101000
+415 0 -413 0 *
Ve
1e-07
125.099998 76.923775 0
0 0

0101101
*
Ed
 1e-07 1 1 0
1  77 0 0 0.80000299999999
0

0101000
+413 0 -411 0 *
Ve
1e-07
120.699997 76.923775 0
0 0

0101101
*
Ed
 1e-07 1 1 0
1  78 0 0 4.400001
0

0101000
+411 0 -409 0 *
Ve
1e-07
120.699997 81.001572 0
0 0

0101101
*
Ed
 1e-07 1 1 0
1  79 0 0 4.07779699999999
0

0101000
+409 0 -407 0 *
Ve
1e-07
125.099998 81.001572 0
0 0

0101101
*
Ed
 1e-07 1 1 0
1  80 0 0 4.400001
0

0101000
+407 0 -405 0 *
Ve
1e-07
125.099998 78.523773 0
0 0

0101101
*
Ed
 1e-07 1 1 0
1  81 0 0 2.47779899999999
0

0101000
+405 0 -403 0 *
Ve
1e-07
125.300003 78.523773 0
0 0

0101101
*
Ed
 1e-07 1 1 0
1  82 0 0 0.200005000000004
0

0101000
+403 0 -401 0 *
Ve
1e-07
125.300003 79.001572 0
0 0

0101101
*
Ed
 1e-07 1 1 0
1  83 0 0 0.47779899999999
0

0101000
+401 0 -399 0 *
Ve
1e-07
125.5 79.001572 0
0 0

0101101
*
Ed
 1e-07 1 1 0
1  84 0 0 0.199996999999996
0

0101000
+399 0 -397 0 *
Ve
1e-07
125.5 79.201576 0
0 0

0101101
*
Ed
 1e-07 1 1 0
1  85 0 0 0.200004000000007
0

0101000
+397 0 -395 0 *
Ve
1e-07
125.300003 79.201576 0
0 0

0101101
*
Ed
 1e-07 1 1 0
1  86 0 0 0.199996999999996
0

0101000
+395 0 -393 0 *
Ve
1e-07
125.300003 81.001572 0
0 0

0101101
*
Ed
 1e-07 1 1 0
1  87 0 0 1.79999599999999
0

0101000
+393 0 -391 0 *
Ve
1e-07
127.150002 81.001572 0
0 0

0101101
*
Ed
 1e-07 1 1 0
1  88 0 0 1.849999
0

0101000
+391 0 -389 0 *
Ve
1e-07
127.150002 79.201576 0
0 0

0101101
*
Ed
 1e-07 1 1 0
1  89 0 0 1.79999599999999
0

0101000
+389 0 -387 0 *
Ve
1e-07
126.300003 79.201576 0
0 0

0101101
*
Ed
 1e-07 1 1 0
1  90 0 0 0.849998999999997
0

0101000
+387 0 -385 0 *
Ve
1e-07
126.300003 79.001572 0
0 0

0101101
*
Ed
 1e-07 1 1 0
1  91 0 0 0.200004000000007
0

0101000
+385 0 -383 0 *
Ve
1e-07
127.150002 79.001572 0
0 0

0101101
*
Ed
 1e-07 1 1 0
1  92 0 0 0.849998999999997
0

0101000
+383 0 -381 0 *
Ve
1e-07
127.150002 76.923775 0
0 0

0101101
*
Ed
 1e-07 1 1 0
1  93 0 0 2.07779699999999
0

0101000
+381 0 -379 0 *
Ve
1e-07
126.349998 76.923775 0
0 0

0101101
*
Ed
 1e-07 1 1 0
1  94 0 0 0.800004000000001
0

0101000
+379 0 -377 0 *
Ve
1e-07
126.349998 76.574013 0
0 0

0101101
*
Ed
 1e-07 1 1 0
1  95 0 0 0.349762000000013
0

0101000
+377 0 -375 0 *
Ve
1e-07
128.300003 76.574013 0
0 0

0101101
*
Ed
 1e-07 1 1 0
1  96 0 0 1.950005
0

0101000
+375 0 -373 0 *
Ve
1e-07
128.300003 76.923775 0
0 0

0101101
*
Ed
 1e-07 1 1 0
1  97 0 0 0.349762000000013
0

0101000
+373 0 -371 0 *
Ve
1e-07
127.5 76.923775 0
0 0

0101101
*
Ed
 1e-07 1 1 0
1  98 0 0 0.800003000000004
0

0101000
+371 0 -369 0 *
Ve
1e-07
127.5 79.001572 0
0 0

0101101
*
Ed
 1e-07 1 1 0
1  99 0 0 2.07779699999999
0

0101000
+369 0 -367 0 *
Ve
1e-07
128.350006 79.001572 0
0 0

0101101
*
Ed
 1e-07 1 1 0
1  100 0 0 0.850006000000008
0

0101000
+367 0 -365 0 *
Ve
1e-07
128.350006 79.201576 0
0 0

0101101
*
Ed
 1e-07 1 1 0
1  101 0 0 0.200004000000007
0

0101000
+365 0 -363 0 *
Ve
1e-07
127.5 79.201576 0
0 0

0101101
*
Ed
 1e-07 1 1 0
1  102 0 0 0.850006000000008
0

0101000
+363 0 -361 0 *
Ve
1e-07
127.5 81.001572 0
0 0

0101101
*
Ed
 1e-07 1 1 0
1  103 0 0 1.79999599999999
0

0101000
+361 0 -359 0 *
Ve
1e-07
129.350006 81.001572 0
0 0

0101101
*
Ed
 1e-07 1 1 0
1  104 0 0 1.85000600000001
0

0101000
+359 0 -357 0 *
Ve
1e-07
129.350006 79.201576 0
0 0

0101101
*
Ed
 1e-07 1 1 0
1  105 0 0 1.79999599999999
0

0101000
+357 0 -355 0 *
Ve
1e-07
129.149994 79.201576 0
0 0

0101101
*
Ed
 1e-07 1 1 0
1  106 0 0 0.200012000000015
0

0101000
+355 0 -353 0 *
Ve
1e-07
129.149994 79.001572 0
0 0

0101101
*
Ed
 1e-07 1 1 0
1  107 0 0 0.200004000000007
0

0101000
+353 0 -351 0 *
Ve
1e-07
129.350006 79.001572 0
0 0

0101101
*
Ed
 1e-07 1 1 0
1  108 0 0 0.200012000000015
0

0101000
+351 0 -349 0 *
Ve
1e-07
129.350006 78.523773 0
0 0

0101101
*
Ed
 1e-07 1 1 0
1  109 0 0 0.47779899999999
0

0101000
+349 0 -347 0 *
Ve
1e-07
129.550003 78.523773 0
0 0

0101101
*
Ed
 1e-07 1 1 0
1  110 0 0 0.199996999999996
0

0101000
+347 0 -345 0 *
Ve
1e-07
129.550003 81.001572 0
0 0

0101101
*
Ed
 1e-07 1 1 0
1  111 0 0 2.47779899999999
0

0101000
+345 0 -343 0 *
Ve
1e-07
133.949997 81.001572 0
0 0

0101101
*
Ed
 1e-07 1 1 0
1  112 0 0 4.39999399999999
0

0101000
+343 0 -341 0 *
Ve
1e-07
133.949997 76.923775 0
0 0

0101101
*
Ed
 1e-07 1 1 0
1  113 0 0 4.07779699999999
0

0101000
+341 0 -339 0 *
Ve
1e-07
129.550003 76.923775 0
0 0

0101101
*
Ed
 1e-07 1 1 0
1  114 0 0 4.39999399999999
0

0101000
+339 0 -337 0 *
Ve
1e-07
129.550003 77.723778 0
0 0

0101101
*
Ed
 1e-07 1 1 0
1  115 0 0 0.80000299999999
0

0101000
+337 0 -335 0 *
Ve
1e-07
129.350006 77.723778 0
0 0

0101101
*
Ed
 1e-07 1 1 0
1  116 0 0 0.199996999999996
0

0101000
+335 0 -333 0 *
Ve
1e-07
129.350006 76.923775 0
0 0

0101101
*
Ed
 1e-07 1 1 0
1  117 0 0 0.80000299999999
0

0101000
+333 0 -331 0 *
Ve
1e-07
129.199997 76.923775 0
0 0

0101101
*
Ed
 1e-07 1 1 0
1  118 0 0 0.150009000000011
0

0101000
+331 0 -329 0 *
Ve
1e-07
129.199997 76.574013 0
0 0

0101101
*
Ed
 1e-07 1 1 0
1  119 0 0 0.349762000000013
0

0101000
+329 0 -327 0 *
Ve
1e-07
132.483337 76.574013 0
0 0

0101101
*
Ed
 1e-07 1 1 0
1  120 0 0 3.28334000000001
0

0101000
+327 0 -325 0 *
Ve
1e-07
135.766663 76.574013 0
0 0

0101101
*
Ed
 1e-07 1 1 0
1  121 0 0 3.28332599999999
0

0101000
+325 0 -323 0 *
Ve
1e-07
139.050003 76.574013 0
0 0

0101101
*
Ed
 1e-07 1 1 0
1  122 0 0 3.28334000000001
0

0101000
+323 0 -321 0 *
Ve
1e-07
139.050003 76.923775 0
0 0

0101101
*
Ed
 1e-07 1 1 0
1  123 0 0 0.349762000000013
0

0101000
+321 0 -319 0 *
Ve
1e-07
138.899994 76.923775 0
0 0

0101101
*
Ed
 1e-07 1 1 0
1  124 0 0 0.150009000000011
0

0101000
+319 0 -317 0 *
Ve
1e-07
138.899994 77.723778 0
0 0

0101101
*
Ed
 1e-07 1 1 0
1  125 0 0 0.80000299999999
0

0101000
+317 0 -315 0 *
Ve
1e-07
138.699997 77.723778 0
0 0

0101101
*
Ed
 1e-07 1 1 0
1  126 0 0 0.199996999999996
0

0101000
+315 0 -313 0 *
Ve
1e-07
138.699997 76.923775 0
0 0

0101101
*
Ed
 1e-07 1 1 0
1  127 0 0 0.80000299999999
0

0101000
+313 0 -311 0 *
Ve
1e-07
134.300003 76.923775 0
0 0

0101101
*
Ed
 1e-07 1 1 0
1  128 0 0 4.39999399999999
0

0101000
+311 0 -309 0 *
Ve
1e-07
134.300003 81.001572 0
0 0

0101101
*
Ed
 1e-07 1 1 0
1  129 0 0 4.07779699999999
0

0101000
+309 0 -307 0 *
Ve
1e-07
138.699997 81.001572 0
0 0

0101101
*
Ed
 1e-07 1 1 0
1  130 0 0 4.39999399999999
0

0101000
+307 0 -305 0 *
Ve
1e-07
138.699997 78.523773 0
0 0

0101101
*
Ed
 1e-07 1 1 0
1  131 0 0 2.47779899999999
0

0101000
+305 0 -303 0 *
Ve
1e-07
138.899994 78.523773 0
0 0

0101101
*
Ed
 1e-07 1 1 0
1  132 0 0 0.199996999999996
0

0101000
+303 0 -301 0 *
Ve
1e-07
138.899994 79.001572 0
0 0

0101101
*
Ed
 1e-07 1 1 0
1  133 0 0 0.47779899999999
0

0101000
+301 0 -299 0 *
Ve
1e-07
139.100006 79.001572 0
0 0

0101101
*
Ed
 1e-07 1 1 0
1  134 0 0 0.200012000000015
0

0101000
+299 0 -297 0 *
Ve
1e-07
139.100006 79.201576 0
0 0

0101101
*
Ed
 1e-07 1 1 0
1  135 0 0 0.200004000000007
0

0101000
+297 0 -295 0 *
Ve
1e-07
138.899994 79.201576 0
0 0

0101101
*
Ed
 1e-07 1 1 0
1  136 0 0 0.200012000000015
0

0101000
+295 0 -293 0 *
Ve
1e-07
138.899994 81.001572 0
0 0

0101101
*
Ed
 1e-07 1 1 0
1  137 0 0 1.79999599999999
0

0101000
+293 0 -291 0 *
Ve
1e-07
140.75 81.001572 0
0 0

0101101
*
Ed
 1e-07 1 1 0
1  138 0 0 1.85000600000001
0

0101000
+291 0 -289 0 *
Ve
1e-07
140.75 79.201576 0
0 0

0101101
*
Ed
 1e-07 1 1 0
1  139 0 0 1.79999599999999
0

0101000
+289 0 -287 0 *
Ve
1e-07
139.899994 79.201576 0
0 0

0101101
*
Ed
 1e-07 1 1 0
1  140 0 0 0.850006000000008
0

0101000
+287 0 -285 0 *
Ve
1e-07
139.899994 79.001572 0
0 0

0101101
*
Ed
 1e-07 1 1 0
1  141 0 0 0.200004000000007
0

0101000
+285 0 -283 0 *
Ve
1e-07
140.75 79.001572 0
0 0

0101101
*
Ed
 1e-07 1 1 0
1  142 0 0 0.850006000000008
0

0101000
+283 0 -281 0 *
Ve
1e-07
140.75 76.923775 0
0 0

0101101
*
Ed
 1e-07 1 1 0
1  143 0 0 2.07779699999999
0

0101000
+281 0 -279 0 *
Ve
1e-07
139.949997 76.923775 0
0 0

0101101
*
Ed
 1e-07 1 1 0
1  144 0 0 0.800003000000004
0

0101000
+279 0 -277 0 *
Ve
1e-07
139.949997 76.574013 0
0 0

0101101
*
Ed
 1e-07 1 1 0
1  145 0 0 0.349762000000013
0

0101000
+277 0 -275 0 *
Ve
1e-07
141.899994 76.574013 0
0 0

0101101
*
Ed
 1e-07 1 1 0
1  146 0 0 1.949997
0

0101000
+275 0 -273 0 *
Ve
1e-07
141.899994 76.923775 0
0 0

0101101
*
Ed
 1e-07 1 1 0
1  147 0 0 0.349762000000013
0

0101000
+273 0 -271 0 *
Ve
1e-07
141.100006 76.923775 0
0 0

0101101
*
Ed
 1e-07 1 1 0
1  148 0 0 0.799987999999985
0

0101000
+271 0 -269 0 *
Ve
1e-07
141.100006 79.001572 0
0 0

0101101
*
Ed
 1e-07 1 1 0
1  149 0 0 2.07779699999999
0

0101000
+269 0 -267 0 *
Ve
1e-07
141.949997 79.001572 0
0 0

0101101
*
Ed
 1e-07 1 1 0
1  150 0 0 0.849990999999989
0

0101000
+267 0 -265 0 *
Ve
1e-07
141.949997 79.201576 0
0 0

0101101
*
Ed
 1e-07 1 1 0
1  151 0 0 0.200004000000007
0

0101000
+265 0 -263 0 *
Ve
1e-07
141.100006 79.201576 0
0 0

0101101
*
Ed
 1e-07 1 1 0
1  152 0 0 0.849990999999989
0

0101000
+263 0 -261 0 *
Ve
1e-07
141.100006 81.001572 0
0 0

0101101
*
Ed
 1e-07 1 1 0
1  153 0 0 1.79999599999999
0

0101000
+261 0 -259 0 *
Ve
1e-07
142.949997 81.001572 0
0 0

0101101
*
Ed
 1e-07 1 1 0
1  154 0 0 1.84999099999999
0

0101000
+259 0 -257 0 *
Ve
1e-07
142.949997 79.201576 0
0 0

0101101
*
Ed
 1e-07 1 1 0
1  155 0 0 1.79999599999999
0

0101000
+257 0 -255 0 *
Ve
1e-07
142.75 79.201576 0
0 0

0101101
*
Ed
 1e-07 1 1 0
1  156 0 0 0.199996999999996
0

0101000
+255 0 -253 0 *
Ve
1e-07
142.75 79.001572 0
0 0

0101101
*
Ed
 1e-07 1 1 0
1  157 0 0 0.200004000000007
0

0101000
+253 0 -251 0 *
Ve
1e-07
142.949997 79.001572 0
0 0

0101101
*
Ed
 1e-07 1 1 0
1  158 0 0 0.199996999999996
0

0101000
+251 0 -249 0 *
Ve
1e-07
142.949997 78.523773 0
0 0

0101101
*
Ed
 1e-07 1 1 0
1  159 0 0 0.47779899999999
0

0101000
+249 0 -247 0 *
Ve
1e-07
143.149994 78.523773 0
0 0

0101101
*
Ed
 1e-07 1 1 0
1  160 0 0 0.199996999999996
0

0101000
+247 0 -245 0 *
Ve
1e-07
143.149994 81.001572 0
0 0

0101101
*
Ed
 1e-07 1 1 0
1  161 0 0 2.47779899999999
0

0101000
+245 0 -243 0 *
Ve
1e-07
147.550003 81.001572 0
0 0

0101101
*
Ed
 1e-07 1 1 0
1  162 0 0 4.40000900000001
0

0101000
+243 0 -241 0 *
Ve
1e-07
147.550003 76.923775 0
0 0

0101101
*
Ed
 1e-07 1 1 0
1  163 0 0 4.07779699999999
0

0101000
+241 0 -239 0 *
Ve
1e-07
143.149994 76.923775 0
0 0

0101101
*
Ed
 1e-07 1 1 0
1  164 0 0 4.40000900000001
0

0101000
+239 0 -237 0 *
Ve
1e-07
143.149994 77.723778 0
0 0

0101101
*
Ed
 1e-07 1 1 0
1  165 0 0 0.80000299999999
0

0101000
+237 0 -235 0 *
Ve
1e-07
142.949997 77.723778 0
0 0

0101101
*
Ed
 1e-07 1 1 0
1  166 0 0 0.199996999999996
0

0101000
+235 0 -233 0 *
Ve
1e-07
142.949997 76.923775 0
0 0

0101101
*
Ed
 1e-07 1 1 0
1  167 0 0 0.80000299999999
0

0101000
+233 0 -231 0 *
Ve
1e-07
142.800003 76.923775 0
0 0

0101101
*
Ed
 1e-07 1 1 0
1  168 0 0 0.149993999999992
0

0101000
+231 0 -229 0 *
Ve
1e-07
142.800003 76.574013 0
0 0

0101101
*
Ed
 1e-07 1 1 0
1  169 0 0 0.349762000000013
0

0101000
+229 0 -227 0 *
Ve
1e-07
146.083328 76.574013 0
0 0

0101101
*
Ed
 1e-07 1 1 0
1  170 0 0 3.28332499999999
0

0101000
+227 0 -225 0 *
Ve
1e-07
149.366669 76.574013 0
0 0

0101101
*
Ed
 1e-07 1 1 0
1  171 0 0 3.28334100000001
0

0101000
+225 0 -223 0 *
Ve
1e-07
152.649994 76.574013 0
0 0

0101101
*
Ed
 1e-07 1 1 0
1  172 0 0 3.28332499999999
0

0101000
+223 0 -221 0 *
Ve
1e-07
152.649994 76.923775 0
0 0

0101101
*
Ed
 1e-07 1 1 0
1  173 0 0 0.349762000000013
0

0101000
+221 0 -219 0 *
Ve
1e-07
152.5 76.923775 0
0 0

0101101
*
Ed
 1e-07 1 1 0
1  174 0 0 0.149993999999992
0

0101000
+219 0 -217 0 *
Ve
1e-07
152.5 77.723778 0
0 0

0101101
*
Ed
 1e-07 1 1 0
1  175 0 0 0.80000299999999
0

0101000
+217 0 -215 0 *
Ve
1e-07
152.300003 77.723778 0
0 0

0101101
*
Ed
 1e-07 1 1 0
1  176 0 0 0.199996999999996
0

0101000
+215 0 -213 0 *
Ve
1e-07
152.300003 76.923775 0
0 0

0101101
*
Ed
 1e-07 1 1 0
1  177 0 0 0.80000299999999
0

0101000
+213 0 -211 0 *
Ve
1e-07
147.899994 76.923775 0
0 0

0101101
*
Ed
 1e-07 1 1 0
1  178 0 0 4.40000900000001
0

0101000
+211 0 -209 0 *
Ve
1e-07
147.899994 81.001572 0
0 0

0101101
*
Ed
 1e-07 1 1 0
1  179 0 0 4.07779699999999
0

0101000
+209 0 -207 0 *
Ve
1e-07
152.300003 81.001572 0
0 0

0101101
*
Ed
 1e-07 1 1 0
1  180 0 0 4.40000900000001
0

0101000
+207 0 -205 0 *
Ve
1e-07
152.300003 78.523773 0
0 0

0101101
*
Ed
 1e-07 1 1 0
1  181 0 0 2.47779899999999
0

0101000
+205 0 -203 0 *
Ve
1e-07
152.5 78.523773 0
0 0

0101101
*
Ed
 1e-07 1 1 0
1  182 0 0 0.199996999999996
0

0101000
+203 0 -201 0 *
Ve
1e-07
152.5 79.001572 0
0 0

0101101
*
Ed
 1e-07 1 1 0
1  183 0 0 0.47779899999999
0

0101000
+201 0 -199 0 *
Ve
1e-07
152.699997 79.001572 0
0 0

0101101
*
Ed
 1e-07 1 1 0
1  184 0 0 0.199996999999996
0

0101000
+199 0 -197 0 *
Ve
1e-07
152.699997 79.201576 0
0 0

0101101
*
Ed
 1e-07 1 1 0
1  185 0 0 0.200004000000007
0

0101000
+197 0 -195 0 *
Ve
1e-07
152.5 79.201576 0
0 0

0101101
*
Ed
 1e-07 1 1 0
1  186 0 0 0.199996999999996
0

0101000
+195 0 -193 0 *
Ve
1e-07
152.5 81.001572 0
0 0

0101101
*
Ed
 1e-07 1 1 0
1  187 0 0 1.79999599999999
0

0101000
+193 0 -191 0 *
Ve
1e-07
154.350006 81.001572 0
0 0

0101101
*
Ed
 1e-07 1 1 0
1  188 0 0 1.85000600000001
0

0101000
+191 0 -189 0 *
Ve
1e-07
154.350006 79.201576 0
0 0

0101101
*
Ed
 1e-07 1 1 0
1  189 0 0 1.79999599999999
0

0101000
+189 0 -187 0 *
Ve
1e-07
153.5 79.201576 0
0 0

0101101
*
Ed
 1e-07 1 1 0
1  190 0 0 0.850006000000008
0

0101000
+187 0 -185 0 *
Ve
1e-07
153.5 79.001572 0
0 0

0101101
*
Ed
 1e-07 1 1 0
1  191 0 0 0.200004000000007
0

0101000
+185 0 -183 0 *
Ve
1e-07
154.350006 79.001572 0
0 0

0101101
*
Ed
 1e-07 1 1 0
1  192 0 0 0.850006000000008
0

0101000
+183 0 -181 0 *
Ve
1e-07
154.350006 76.923775 0
0 0

0101101
*
Ed
 1e-07 1 1 0
1  193 0 0 2.07779699999999
0

0101000
+181 0 -179 0 *
Ve
1e-07
153.550003 76.923775 0
0 0

0101101
*
Ed
 1e-07 1 1 0
1  194 0 0 0.800003000000004
0

0101000
+179 0 -177 0 *
Ve
1e-07
153.550003 76.574013 0
0 0

0101101
*
Ed
 1e-07 1 1 0
1  195 0 0 0.349762000000013
0

0101000
+177 0 -175 0 *
Ve
1e-07
155.5 76.574013 0
0 0

0101101
*
Ed
 1e-07 1 1 0
1  196 0 0 1.949997
0

0101000
+175 0 -173 0 *
Ve
1e-07
155.5 76.923775 0
0 0

0101101
*
Ed
 1e-07 1 1 0
1  197 0 0 0.349762000000013
0

0101000
+173 0 -171 0 *
Ve
1e-07
154.699997 76.923775 0
0 0

0101101
*
Ed
 1e-07 1 1 0
1  198 0 0 0.800003000000004
0

0101000
+171 0 -169 0 *
Ve
1e-07
154.699997 79.001572 0
0 0

0101101
*
Ed
 1e-07 1 1 0
1  199 0 0 2.07779699999999
0

0101000
+169 0 -167 0 *
Ve
1e-07
155.550003 79.001572 0
0 0

0101101
*
Ed
 1e-07 1 1 0
1  200 0 0 0.850006000000008
0

0101000
+167 0 -165 0 *
Ve
1e-07
155.550003 79.201576 0
0 0

0101101
*
Ed
 1e-07 1 1 0
1  201 0 0 0.200004000000007
0

0101000
+165 0 -163 0 *
Ve
1e-07
154.699997 79.201576 0
0 0

0101101
*
Ed
 1e-07 1 1 0
1  202 0 0 0.850006000000008
0

0101000
+163 0 -161 0 *
Ve
1e-07
154.699997 81.001572 0
0 0

0101101
*
Ed
 1e-07 1 1 0
1  203 0 0 1.79999599999999
0

0101000
+161 0 -159 0 *
Ve
1e-07
156.550003 81.001572 0
0 0

0101101
*
Ed
 1e-07 1 1 0
1  204 0 0 1.85000600000001
0

0101000
+159 0 -157 0 *
Ve
1e-07
156.550003 79.201576 0
0 0

0101101
*
Ed
 1e-07 1 1 0
1  205 0 0 1.79999599999999
0

0101000
+157 0 -155 0 *
Ve
1e-07
156.350006 79.201576 0
0 0

0101101
*
Ed
 1e-07 1 1 0
1  206 0 0 0.199996999999996
0

0101000
+155 0 -153 0 *
Ve
1e-07
156.350006 79.001572 0
0 0

0101101
*
Ed
 1e-07 1 1 0
1  207 0 0 0.200004000000007
0

0101000
+153 0 -151 0 *
Ve
1e-07
156.550003 79.001572 0
0 0

0101101
*
Ed
 1e-07 1 1 0
1  208 0 0 0.199996999999996
0

0101000
+151 0 -149 0 *
Ve
1e-07
156.550003 78.523773 0
0 0

0101101
*
Ed
 1e-07 1 1 0
1  209 0 0 0.47779899999999
0

0101000
+149 0 -147 0 *
Ve
1e-07
156.75 78.523773 0
0 0

0101101
*
Ed
 1e-07 1 1 0
1  210 0 0 0.199996999999996
0

0101000
+147 0 -145 0 *
Ve
1e-07
156.75 81.001572 0
0 0

0101101
*
Ed
 1e-07 1 1 0
1  211 0 0 2.47779899999999
0

0101000
+145 0 -143 0 *
Ve
1e-07
161.149994 81.001572 0
0 0

0101101
*
Ed
 1e-07 1 1 0
1  212 0 0 4.39999399999999
0

0101000
+143 0 -141 0 *
Ve
1e-07
161.149994 76.923775 0
0 0

0101101
*
Ed
 1e-07 1 1 0
1  213 0 0 4.07779699999999
0

0101000
+141 0 -139 0 *
Ve
1e-07
156.75 76.923775 0
0 0

0101101
*
Ed
 1e-07 1 1 0
1  214 0 0 4.39999399999999
0

0101000
+139 0 -137 0 *
Ve
1e-07
156.75 77.723778 0
0 0

0101101
*
Ed
 1e-07 1 1 0
1  215 0 0 0.80000299999999
0

0101000
+137 0 -135 0 *
Ve
1e-07
156.550003 77.723778 0
0 0

0101101
*
Ed
 1e-07 1 1 0
1  216 0 0 0.199996999999996
0

0101000
+135 0 -133 0 *
Ve
1e-07
156.550003 76.923775 0
0 0

0101101
*
Ed
 1e-07 1 1 0
1  217 0 0 0.80000299999999
0

0101000
+133 0 -131 0 *
Ve
1e-07
156.399994 76.923775 0
0 0

0101101
*
Ed
 1e-07 1 1 0
1  218 0 0 0.150009000000011
0

0101000
+131 0 -129 0 *
Ve
1e-07
156.399994 76.574013 0
0 0

0101101
*
Ed
 1e-07 1 1 0
1  219 0 0 0.349762000000013
0

0101000
+129 0 -127 0 *
Ve
1e-07
158.949997 76.574013 0
0 0

0101101
*
Ed
 1e-07 1 1 0
1  220 0 0 2.550003
0

0101000
+127 0 -125 0 *
Ve
1e-07
161.5 76.574013 0
0 0

0101101
*
Ed
 1e-07 1 1 0
1  221 0 0 2.550003
0

0101000
+125 0 -123 0 *
Ve
1e-07
161.5 81.001572 0
0 0

0101101
*
Ed
 1e-07 1 1 0
1  222 0 0 4.427559
0

0101000
+123 0 -121 0 *
Ve
1e-07
164.649994 81.001572 0
0 0

0101101
*
Ed
 1e-07 1 1 0
1  223 0 0 3.14999399999999
0

0101000
+121 0 -119 0 *
Ve
1e-07
164.649994 78.537796 0
0 0

0101101
*
Ed
 1e-07 1 1 0
1  224 0 0 2.463776
0

0101000
+119 0 -117 0 *
Ve
1e-07
164.649994 76.074013 0
0 0

0101101
*
Ed
 1e-07 1 1 0
1  225 0 0 2.46378300000001
0

0101000
+117 0 -115 0 *
Ve
1e-07
165 76.074013 0
0 0

0101101
*
Ed
 1e-07 1 1 0
1  226 0 0 0.350006000000008
0

0101000
+115 0 -113 0 *
Ve
1e-07
165 78.537796 0
0 0

0101101
*
Ed
 1e-07 1 1 0
1  227 0 0 2.46378300000001
0

0101000
+113 0 -111 0 *
Ve
1e-07
165 81.001572 0
0 0

0101101
*
Ed
 1e-07 1 1 0
1  228 0 0 2.463776
0

0101000
+111 0 -109 0 *
Ve
1e-07
166.800003 81.001572 0
0 0

0101101
*
Ed
 1e-07 1 1 0
1  229 0 0 1.800003
0

0101000
+109 0 -107 0 *
Ve
1e-07
166.800003 78.32354 0
0 0

0101101
*
Ed
 1e-07 1 1 0
1  230 0 0 2.678032
0

0101000
+107 0 -105 0 *
Ve
1e-07
167 78.32354 0
0 0

0101101
*
Ed
 1e-07 1 1 0
1  231 0 0 0.199996999999996
0

0101000
+105 0 -103 0 *
Ve
1e-07
167 81.001572 0
0 0

0101101
*
Ed
 1e-07 1 1 0
1  232 0 0 2.678032
0

0101000
+103 0 -101 0 *
Ve
1e-07
171.399994 81.001572 0
0 0

0101101
*
Ed
 1e-07 1 1 0
1  233 0 0 4.39999399999999
0

0101000
+101 0 -99 0 *
Ve
1e-07
171.399994 76.848778 0
0 0

0101101
*
Ed
 1e-07 1 1 0
1  234 0 0 4.152794
0

0101000
+99 0 -97 0 *
Ve
1e-07
167 76.848778 0
0 0

0101101
*
Ed
 1e-07 1 1 0
1  235 0 0 4.39999399999999
0

0101000
+97 0 -95 0 *
Ve
1e-07
167 77.423538 0
0 0

0101101
*
Ed
 1e-07 1 1 0
1  236 0 0 0.574759999999998
0

0101000
+95 0 -93 0 *
Ve
1e-07
166.800003 77.423538 0
0 0

0101101
*
Ed
 1e-07 1 1 0
1  237 0 0 0.199996999999996
0

0101000
+93 0 -91 0 *
Ve
1e-07
166.800003 76.074013 0
0 0

0101101
*
Ed
 1e-07 1 1 0
1  238 0 0 1.349525
0

0101000
+91 0 -89 0 *
Ve
1e-07
167 76.074013 0
0 0

0101101
*
Ed
 1e-07 1 1 0
1  239 0 0 0.199996999999996
0

0101000
+89 0 -87 0 *
Ve
1e-07
167 76.648773 0
0 0

0101101
*
Ed
 1e-07 1 1 0
1  240 0 0 0.574760000000012
0

0101000
+87 0 -85 0 *
Ve
1e-07
171.399994 76.648773 0
0 0

0101101
*
Ed
 1e-07 1 1 0
1  241 0 0 4.39999399999999
0

0101000
+85 0 -83 0 *
Ve
1e-07
171.399994 72.495979 0
0 0

0101101
*
Ed
 1e-07 1 1 0
1  242 0 0 4.152794
0

0101000
+83 0 -81 0 *
Ve
1e-07
167 72.495979 0
0 0

0101101
*
Ed
 1e-07 1 1 0
1  243 0 0 4.39999399999999
0

0101000
+81 0 -79 0 *
Ve
1e-07
167 75.174011 0
0 0

0101101
*
Ed
 1e-07 1 1 0
1  244 0 0 2.67803199999999
0

0101000
+79 0 -77 0 *
Ve
1e-07
166.800003 75.174011 0
0 0

0101101
*
Ed
 1e-07 1 1 0
1  245 0 0 0.199996999999996
0

0101000
+77 0 -75 0 *
Ve
1e-07
166.800003 72.495979 0
0 0

0101101
*
Ed
 1e-07 1 1 0
1  246 0 0 2.67803199999999
0

0101000
+75 0 -73 0 *
Ve
1e-07
165 72.495979 0
0 0

0101101
*
Ed
 1e-07 1 1 0
1  247 0 0 1.800003
0

0101000
+73 0 -71 0 *
Ve
1e-07
165 75.174011 0
0 0

0101101
*
Ed
 1e-07 1 1 0
1  248 0 0 2.67803199999999
0

0101000
+71 0 -69 0 *
Ve
1e-07
164.649994 75.174011 0
0 0

0101101
*
Ed
 1e-07 1 1 0
1  249 0 0 0.350006000000008
0

0101000
+69 0 -67 0 *
Ve
1e-07
164.649994 72.495979 0
0 0

0101101
*
Ed
 1e-07 1 1 0
1  250 0 0 2.67803199999999
0

0101000
+67 0 -65 0 *
Ve
1e-07
159.957138 72.495979 0
0 0

0101101
*
Ed
 1e-07 1 1 0
1  251 0 0 4.69285600000001
0

0101000
+65 0 -63 0 *
Ve
1e-07
155.264282 72.495979 0
0 0

0101101
*
Ed
 1e-07 1 1 0
1  252 0 0 4.69285599999998
0

0101000
+63 0 -61 0 *
Ve
1e-07
150.571426 72.495979 0
0 0

0101101
*
Ed
 1e-07 1 1 0
1  253 0 0 4.69285600000001
0

0101000
+61 0 -59 0 *
Ve
1e-07
145.878571 72.495979 0
0 0

0101101
*
Ed
 1e-07 1 1 0
1  254 0 0 4.69285500000001
0

0101000
+59 0 -57 0 *
Ve
1e-07
141.185715 72.495979 0
0 0

0101101
*
Ed
 1e-07 1 1 0
1  255 0 0 4.69285600000001
0

0101000
+57 0 -55 0 *
Ve
1e-07
136.492859 72.495979 0
0 0

0101101
*
Ed
 1e-07 1 1 0
1  256 0 0 4.69285599999998
0

0101000
+55 0 -53 0 *
Ve
1e-07
131.800003 72.495979 0
0 0

0101101
*
Ed
 1e-07 1 1 0
1  257 0 0 4.69285600000001
0

0101000
+53 0 -51 0 *
Ve
1e-07
127.10714 72.495979 0
0 0

0101101
*
Ed
 1e-07 1 1 0
1  258 0 0 4.692863
0

0101000
+51 0 -49 0 *
Ve
1e-07
122.414284 72.495979 0
0 0

0101101
*
Ed
 1e-07 1 1 0
1  259 0 0 4.69285600000001
0

0101000
+49 0 -47 0 *
Ve
1e-07
117.721428 72.495979 0
0 0

0101101
*
Ed
 1e-07 1 1 0
1  260 0 0 4.69285599999999
0

0101000
+47 0 -45 0 *
Ve
1e-07
113.028572 72.495979 0
0 0

0101101
*
Ed
 1e-07 1 1 0
1  261 0 0 4.69285600000001
0

0101000
+45 0 -43 0 *
Ve
1e-07
108.335716 72.495979 0
0 0

0101101
*
Ed
 1e-07 1 1 0
1  262 0 0 4.69285599999999
0

0101000
+43 0 -41 0 *
Ve
1e-07
103.64286 72.495979 0
0 0

0101101
*
Ed
 1e-07 1 1 0
1  263 0 0 4.69285600000001
0

0101000
+41 0 -39 0 *
Ve
1e-07
98.949997 72.495979 0
0 0

0101101
*
Ed
 1e-07 1 1 0
1  264 0 0 4.692863
0

0101000
+39 0 -37 0 *
Ve
1e-07
98.949997 74.350235 0
0 0

0101101
*
Ed
 1e-07 1 1 0
1  265 0 0 1.85425599999999
0

0101000
+37 0 -35 0 *
Ve
1e-07
98.599998 74.350235 0
0 0

0101101
*
Ed
 1e-07 1 1 0
1  266 0 0 0.349998999999997
0

0101000
+35 0 -33 0 *
Ve
1e-07
98.599998 69.633492 0
0 0

0101101
*
Ed
 1e-07 1 1 0
1  267 0 0 4.71674299999999
0

0101000
+33 0 -31 0 *
Ve
1e-07
98.599998 64.916748 0
0 0

0101101
*
Ed
 1e-07 1 1 0
1  268 0 0 4.71674400000001
0

0101000
+31 0 -29 0 *
Ve
1e-07
98.599998 60.200001 0
0 0

0101101
*
Ed
 1e-07 1 1 0
1  269 0 0 4.716747
0

0101000
+29 0 -27 0 *
Ve
1e-07
95.074997 60.200001 0
0 0

0101101
*
Ed
 1e-07 1 1 0
1  270 0 0 3.525001
0

0101000
+27 0 -25 0 *
Ve
1e-07
91.550003 60.200001 0
0 0

0101101
*
Ed
 1e-07 1 1 0
1  271 0 0 3.52499399999999
0

0101000
+25 0 -23 0 *
Ve
1e-07
91.550003 59.849998 0
0 0

0101101
*
Ed
 1e-07 1 1 0
1  272 0 0 0.350003000000001
0

0101000
+23 0 -21 0 *
Ve
1e-07
95.599998 59.849998 0
0 0

0101101
*
Ed
 1e-07 1 1 0
1  273 0 0 4.049995
0

0101000
+21 0 -19 0 *
Ve
1e-07
99.650002 59.849998 0
0 0

0101101
*
Ed
 1e-07 1 1 0
1  274 0 0 4.050004
0

0101000
+19 0 -17 0 *
Ve
1e-07
99.650002 55.099998 0
0 0

0101101
*
Ed
 1e-07 1 1 0
1  275 0 0 4.75
0

0101000
+17 0 -15 0 *
Ve
1e-07
99.650002 50.349998 0
0 0

0101101
*
Ed
 1e-07 1 1 0
1  276 0 0 4.75
0

0101000
+15 0 -13 0 *
Ve
1e-07
94.900002 50.349998 0
0 0

0101101
*
Ed
 1e-07 1 1 0
1  277 0 0 4.75
0

0101000
+13 0 -11 0 *
Ve
1e-07
90.150002 50.349998 0
0 0

0101101
*
Ed
 1e-07 1 1 0
1  278 0 0 4.75
0

0101000
+11 0 -9 0 *
Ve
1e-07
90.150002 55.099998 0
0 0

0101101
*
Ed
 1e-07 1 1 0
1  279 0 0 4.75
0

0101000
+9 0 -7 0 *
Ed
 1e-07 1 1 0
1  280 0 0 4.75
0

0101000
+7 0 -564 0 *
Wi

0101100
+562 0 +560 0 +558 0 +556 0 +554 0 +552 0 +550 0 +548 0 +546 0 +544 0 
+542 0 +540 0 +538 0 +536 0 +534 0 +532 0 +530 0 +528 0 +526 0 +524 0 
+522 0 +520 0 +518 0 +516 0 +514 0 +512 0 +510 0 +508 0 +506 0 +504 0 
+502 0 +500 0 +498 0 +496 0 +494 0 +492 0 +490 0 +488 0 +486 0 +484 0 
+482 0 +480 0 +478 0 +476 0 +474 0 +472 0 +470 0 +468 0 +466 0 +464 0 
+462 0 +460 0 +458 0 +456 0 +454 0 +452 0 +450 0 +448 0 +446 0 +444 0 
+442 0 +440 0 +438 0 +436 0 +434 0 +432 0 +430 0 +428 0 +426 0 +424 0 
+422 0 +420 0 +418 0 +416 0 +414 0 +412 0 +410 0 +408 0 +406 0 +404 0 
+402 0 +400 0 +398 0 +396 0 +394 0 +392 0 +390 0 +388 0 +386 0 +384 0 
+382 0 +380 0 +378 0 +376 0 +374 0 +372 0 +370 0 +368 0 +366 0 +364 0 
+362 0 +360 0 +358 0 +356 0 +354 0 +352 0 +350 0 +348 0 +346 0 +344 0 
+342 0 +340 0 +338 0 +336 0 +334 0 +332 0 +330 0 +328 0 +326 0 +324 0 
+322 0 +320 0 +318 0 +316 0 +314 0 +312 0 +310 0 +308 0 +306 0 +304 0 
+302 0 +300 0 +298 0 +296 0 +294 0 +292 0 +290 0 +288 0 +286 0 +284 0 
+282 0 +280 0 +278 0 +276 0 +274 0 +272 0 +270 0 +268 0 +266 0 +264 0 
+262 0 +260 0 +258 0 +256 0 +254 0 +252 0 +250 0 +248 0 +246 0 +244 0 
+242 0 +240 0 +238 0 +236 0 +234 0 +232 0 +230 0 +228 0 +226 0 +224 0 
+222 0 +220 0 +218 0 +216 0 +214 0 +212 0 +210 0 +208 0 +206 0 +204 0 
+202 0 +200 0 +198 0 +196 0 +194 0 +192 0 +190 0 +188 0 +186 0 +184 0 
+182 0 +180 0 +178 0 +176 0 +174 0 +172 0 +170 0 +168 0 +166 0 +164 0 
+162 0 +160 0 +158 0 +156 0 +154 0 +152 0 +150 0 +148 0 +146 0 +144 0 
+142 0 +140 0 +138 0 +136 0 +134 0 +132 0 +130 0 +128 0 +126 0 +124 0 
+122 0 +120 0 +118 0 +116 0 +114 0 +112 0 +110 0 +108 0 +106 0 +104 0 
+102 0 +100 0 +98 0 +96 0 +94 0 +92 0 +90 0 +88 0 +86 0 +84 0 
+82 0 +80 0 +78 0 +76 0 +74 0 +72 0 +70 0 +68 0 +66 0 +64 0 
+62 0 +60 0 +58 0 +56 0 +54 0 +52 0 +50 0 +48 0 +46 0 +44 0 
+42 0 +40 0 +38 0 +36 0 +34 0 +32 0 +30 0 +28 0 +26 0 +24 0 
+22 0 +20 0 +18 0 +16 0 +14 0 +12 0 +10 0 +8 0 +6 0 +5 0 
*
Fa
0  1e-07 1 0

0111000
+4 0 *
Co

0100000
+3 0 *
Co

1100000
+565 0 +2 0 *

+1 0 