
CASCADE Topology V3, (c) Open Cascade
Locations 0
Curve2ds 0
Curves 428
1 156.85000600000001 76.723777999999996 3 0 -1 0 
1 156.85000600000001 75.723777999999996 3 1 0 0 
1 157.449997 75.723777999999996 3 0 -1 0 
1 157.449997 72.495979000000005 3 1 0 0 
1 161.14999399999999 72.495979000000005 3 0 1 0 
1 161.14999399999999 77.501571999999996 3 -1 0 0 
1 159.60000600000001 77.501571999999996 3 0 -1 0 
1 159.60000600000001 76.901572999999999 3 -1 0 0 
1 159.39999399999999 76.901572999999999 3 0 1 0 
1 159.39999399999999 77.501571999999996 3 -1 0 0 
1 157.25 77.501571999999996 3 0 1 0 
1 157.25 79.251571999999996 3 -1 0 0 
1 156.300003 79.251571999999996 3 0 1 0 
1 156.300003 79.451576000000003 3 0 1 0 
1 156.300003 80.351578000000003 3 1 0 0 
1 156.5 80.351578000000003 3 0 -1 0 
1 156.5 79.451576000000003 3 1 0 0 
1 157.25 79.451576000000003 3 0 1 0 
1 157.25 81.001571999999996 3 -1 0 0 
1 154.699997 81.001571999999996 3 0 -1 0 
1 154.699997 80.351578000000003 3 1 0 0 
1 155.699997 80.351578000000003 3 0 -1 0 
1 155.699997 80.151572999999999 3 -1 0 0 
1 154.699997 80.151572999999999 3 0 -1 0 
1 154.699997 79.451576000000003 3 1 0 0 
1 155.699997 79.451576000000003 3 0 -1 0 
1 155.699997 77.651572999999999 3 -1 0 0 
1 155.5 77.651572999999999 3 0 1 0 
1 155.5 79.251571999999996 3 -1 0 0 
1 154.699997 79.251571999999996 3 0 -1 0 
1 154.699997 76.923775000000006 3 1 0 0 
1 156.050003 76.923775000000006 3 0 -1 0 
1 156.050003 76.723777999999996 3 -1 0 0 
1 154.699997 76.723777999999996 3 0 -1 0 
1 154.699997 72.495979000000005 3 1 0 0 
1 157.25 72.495979000000005 3 0 1 0 
1 157.25 74.323775999999995 3 -1 0 0 
1 156.64999399999999 74.323775999999995 3 0 1 0 
1 156.64999399999999 74.523773000000006 3 1 0 0 
1 157.25 74.523773000000006 3 0 1 0 
1 157.25 75.523773000000006 3 -1 0 0 
1 156.64999399999999 75.523773000000006 3 0 1 0 
1 156.64999399999999 76.923775000000006 3 1 0 0 
1 157.449997 76.923775000000006 3 0 -1 0 
1 157.449997 76.723777999999996 3 -1 0 0 
1 157.449997 81.001571999999996 3 0 -1 0 
1 157.449997 77.701576000000003 3 1 0 0 
1 161.14999399999999 77.701576000000003 3 0 1 0 
1 161.14999399999999 81.001571999999996 3 -1 0 0 
1 143.25 76.723777999999996 3 0 -1 0 
1 143.25 75.723777999999996 3 1 0 0 
1 143.85000600000001 75.723777999999996 3 0 -1 0 
1 143.85000600000001 72.495979000000005 3 1 0 0 
1 147.550003 72.495979000000005 3 0 1 0 
1 147.550003 77.501571999999996 3 -1 0 0 
1 146 77.501571999999996 3 0 -1 0 
1 146 76.901572999999999 3 -1 0 0 
1 145.800003 76.901572999999999 3 0 1 0 
1 145.800003 77.501571999999996 3 -1 0 0 
1 143.64999399999999 77.501571999999996 3 0 1 0 
1 143.64999399999999 79.251571999999996 3 -1 0 0 
1 142.699997 79.251571999999996 3 0 1 0 
1 142.699997 79.451576000000003 3 0 1 0 
1 142.699997 80.351578000000003 3 1 0 0 
1 142.89999399999999 80.351578000000003 3 0 -1 0 
1 142.89999399999999 79.451576000000003 3 1 0 0 
1 143.64999399999999 79.451576000000003 3 0 1 0 
1 143.64999399999999 81.001571999999996 3 -1 0 0 
1 141.10000600000001 81.001571999999996 3 0 -1 0 
1 141.10000600000001 80.351578000000003 3 1 0 0 
1 142.10000600000001 80.351578000000003 3 0 -1 0 
1 142.10000600000001 80.151572999999999 3 -1 0 0 
1 141.10000600000001 80.151572999999999 3 0 -1 0 
1 141.10000600000001 79.451576000000003 3 1 0 0 
1 142.10000600000001 79.451576000000003 3 0 -1 0 
1 142.10000600000001 77.651572999999999 3 -1 0 0 
1 141.89999399999999 77.651572999999999 3 0 1 0 
1 141.89999399999999 79.251571999999996 3 -1 0 0 
1 141.10000600000001 79.251571999999996 3 0 -1 0 
1 141.10000600000001 76.923775000000006 3 1 0 0 
1 142.449997 76.923775000000006 3 0 -1 0 
1 142.449997 76.723777999999996 3 -1 0 0 
1 141.10000600000001 76.723777999999996 3 0 -1 0 
1 141.10000600000001 72.495979000000005 3 1 0 0 
1 143.64999399999999 72.495979000000005 3 0 1 0 
1 143.64999399999999 74.323775999999995 3 -1 0 0 
1 143.050003 74.323775999999995 3 0 1 0 
1 143.050003 74.523773000000006 3 1 0 0 
1 143.64999399999999 74.523773000000006 3 0 1 0 
1 143.64999399999999 75.523773000000006 3 -1 0 0 
1 143.050003 75.523773000000006 3 0 1 0 
1 143.050003 76.923775000000006 3 1 0 0 
1 143.85000600000001 76.923775000000006 3 0 -1 0 
1 143.85000600000001 76.723777999999996 3 -1 0 0 
1 143.85000600000001 81.001571999999996 3 0 -1 0 
1 143.85000600000001 77.701576000000003 3 1 0 0 
1 147.550003 77.701576000000003 3 0 1 0 
1 147.550003 81.001571999999996 3 -1 0 0 
1 129.64999399999999 76.723777999999996 3 0 -1 0 
1 129.64999399999999 75.723777999999996 3 1 0 0 
1 130.25 75.723777999999996 3 0 -1 0 
1 130.25 72.495979000000005 3 1 0 0 
1 133.949997 72.495979000000005 3 0 1 0 
1 133.949997 77.501571999999996 3 -1 0 0 
1 132.39999399999999 77.501571999999996 3 0 -1 0 
1 132.39999399999999 76.901572999999999 3 -1 0 0 
1 132.199997 76.901572999999999 3 0 1 0 
1 132.199997 77.501571999999996 3 -1 0 0 
1 130.050003 77.501571999999996 3 0 1 0 
1 130.050003 79.251571999999996 3 -1 0 0 
1 129.10000600000001 79.251571999999996 3 0 1 0 
1 129.10000600000001 79.451576000000003 3 0 1 0 
1 129.10000600000001 80.351578000000003 3 1 0 0 
1 129.300003 80.351578000000003 3 0 -1 0 
1 129.300003 79.451576000000003 3 1 0 0 
1 130.050003 79.451576000000003 3 0 1 0 
1 130.050003 81.001571999999996 3 -1 0 0 
1 127.5 81.001571999999996 3 0 -1 0 
1 127.5 80.351578000000003 3 1 0 0 
1 128.5 80.351578000000003 3 0 -1 0 
1 128.5 80.151572999999999 3 -1 0 0 
1 127.5 80.151572999999999 3 0 -1 0 
1 127.5 79.451576000000003 3 1 0 0 
1 128.5 79.451576000000003 3 0 -1 0 
1 128.5 77.651572999999999 3 -1 0 0 
1 128.300003 77.651572999999999 3 0 1 0 
1 128.300003 79.251571999999996 3 -1 0 0 
1 127.5 79.251571999999996 3 0 -1 0 
1 127.5 76.923775000000006 3 1 0 0 
1 128.85000600000001 76.923775000000006 3 0 -1 0 
1 128.85000600000001 76.723777999999996 3 -1 0 0 
1 127.5 76.723777999999996 3 0 -1 0 
1 127.5 72.495979000000005 3 1 0 0 
1 130.050003 72.495979000000005 3 0 1 0 
1 130.050003 74.323775999999995 3 -1 0 0 
1 129.449997 74.323775999999995 3 0 1 0 
1 129.449997 74.523773000000006 3 1 0 0 
1 130.050003 74.523773000000006 3 0 1 0 
1 130.050003 75.523773000000006 3 -1 0 0 
1 129.449997 75.523773000000006 3 0 1 0 
1 129.449997 76.923775000000006 3 1 0 0 
1 130.25 76.923775000000006 3 0 -1 0 
1 130.25 76.723777999999996 3 -1 0 0 
1 130.25 81.001571999999996 3 0 -1 0 
1 130.25 77.701576000000003 3 1 0 0 
1 133.949997 77.701576000000003 3 0 1 0 
1 133.949997 81.001571999999996 3 -1 0 0 
1 116.050003 76.723777999999996 3 0 -1 0 
1 116.050003 75.723777999999996 3 1 0 0 
1 116.650002 75.723777999999996 3 0 -1 0 
1 116.650002 72.495979000000005 3 1 0 0 
1 120.349998 72.495979000000005 3 0 1 0 
1 120.349998 77.501571999999996 3 -1 0 0 
1 118.800003 77.501571999999996 3 0 -1 0 
1 118.800003 76.901572999999999 3 -1 0 0 
1 118.599998 76.901572999999999 3 0 1 0 
1 118.599998 77.501571999999996 3 -1 0 0 
1 116.449997 77.501571999999996 3 0 1 0 
1 116.449997 79.251571999999996 3 -1 0 0 
1 115.5 79.251571999999996 3 0 1 0 
1 115.5 79.451576000000003 3 0 1 0 
1 115.5 80.351578000000003 3 1 0 0 
1 115.699997 80.351578000000003 3 0 -1 0 
1 115.699997 79.451576000000003 3 1 0 0 
1 116.449997 79.451576000000003 3 0 1 0 
1 116.449997 81.001571999999996 3 -1 0 0 
1 113.900002 81.001571999999996 3 0 -1 0 
1 113.900002 80.351578000000003 3 1 0 0 
1 114.900002 80.351578000000003 3 0 -1 0 
1 114.900002 80.151572999999999 3 -1 0 0 
1 113.900002 80.151572999999999 3 0 -1 0 
1 113.900002 79.451576000000003 3 1 0 0 
1 114.900002 79.451576000000003 3 0 -1 0 
1 114.900002 77.651572999999999 3 -1 0 0 
1 114.699997 77.651572999999999 3 0 1 0 
1 114.699997 79.251571999999996 3 -1 0 0 
1 113.900002 79.251571999999996 3 0 -1 0 
1 113.900002 76.923775000000006 3 1 0 0 
1 115.25 76.923775000000006 3 0 -1 0 
1 115.25 76.723777999999996 3 -1 0 0 
1 113.900002 76.723777999999996 3 0 -1 0 
1 113.900002 72.495979000000005 3 1 0 0 
1 116.449997 72.495979000000005 3 0 1 0 
1 116.449997 74.323775999999995 3 -1 0 0 
1 115.849998 74.323775999999995 3 0 1 0 
1 115.849998 74.523773000000006 3 1 0 0 
1 116.449997 74.523773000000006 3 0 1 0 
1 116.449997 75.523773000000006 3 -1 0 0 
1 115.849998 75.523773000000006 3 0 1 0 
1 115.849998 76.923775000000006 3 1 0 0 
1 116.650002 76.923775000000006 3 0 -1 0 
1 116.650002 76.723777999999996 3 -1 0 0 
1 116.650002 81.001571999999996 3 0 -1 0 
1 116.650002 77.701576000000003 3 1 0 0 
1 120.349998 77.701576000000003 3 0 1 0 
1 120.349998 81.001571999999996 3 -1 0 0 
1 110.800003 81.001571999999996 3 -1 0 0 
1 107.099998 81.001571999999996 3 0 -1 0 
1 107.099998 77.701576000000003 3 1 0 0 
1 110.800003 77.701576000000003 3 0 1 0 
1 111.400002 76.723777999999996 3 -1 0 0 
1 110.800003 76.723777999999996 3 0 1 0 
1 110.800003 76.923775000000006 3 1 0 0 
1 111.599998 76.923775000000006 3 0 -1 0 
1 111.599998 75.523773000000006 3 -1 0 0 
1 111 75.523773000000006 3 0 -1 0 
1 111 74.523773000000006 3 1 0 0 
1 111.599998 74.523773000000006 3 0 -1 0 
1 111.599998 74.323775999999995 3 -1 0 0 
1 111 74.323775999999995 3 0 -1 0 
1 111 72.495979000000005 3 1 0 0 
1 113.550003 72.495979000000005 3 0 1 0 
1 113.550003 76.723777999999996 3 -1 0 0 
1 112.199997 76.723777999999996 3 0 1 0 
1 112.199997 76.923775000000006 3 1 0 0 
1 113.550003 76.923775000000006 3 0 1 0 
1 113.550003 79.251571999999996 3 -1 0 0 
1 112.75 79.251571999999996 3 0 -1 0 
1 112.75 77.651572999999999 3 -1 0 0 
1 112.550003 77.651572999999999 3 0 1 0 
1 112.550003 79.451576000000003 3 1 0 0 
1 113.550003 79.451576000000003 3 0 1 0 
1 113.550003 80.151572999999999 3 -1 0 0 
1 112.550003 80.151572999999999 3 0 1 0 
1 112.550003 80.351578000000003 3 1 0 0 
1 113.550003 80.351578000000003 3 0 1 0 
1 113.550003 81.001571999999996 3 -1 0 0 
1 111 81.001571999999996 3 0 -1 0 
1 111 79.451576000000003 3 1 0 0 
1 111.75 79.451576000000003 3 0 1 0 
1 111.75 80.351578000000003 3 1 0 0 
1 111.949997 80.351578000000003 3 0 -1 0 
1 111.949997 79.451576000000003 3 0 -1 0 
1 111.949997 79.251571999999996 3 -1 0 0 
1 111 79.251571999999996 3 0 -1 0 
1 111 77.501571999999996 3 -1 0 0 
1 108.849998 77.501571999999996 3 0 -1 0 
1 108.849998 76.901572999999999 3 -1 0 0 
1 108.650002 76.901572999999999 3 0 1 0 
1 108.650002 77.501571999999996 3 -1 0 0 
1 107.099998 77.501571999999996 3 0 -1 0 
1 107.099998 72.495979000000005 3 1 0 0 
1 110.800003 72.495979000000005 3 0 1 0 
1 110.800003 75.723777999999996 3 1 0 0 
1 111.400002 75.723777999999996 3 0 1 0 
1 124.400002 81.001571999999996 3 -1 0 0 
1 120.699997 81.001571999999996 3 0 -1 0 
1 120.699997 77.701576000000003 3 1 0 0 
1 124.400002 77.701576000000003 3 0 1 0 
1 125 76.723777999999996 3 -1 0 0 
1 124.400002 76.723777999999996 3 0 1 0 
1 124.400002 76.923775000000006 3 1 0 0 
1 125.199997 76.923775000000006 3 0 -1 0 
1 125.199997 75.523773000000006 3 -1 0 0 
1 124.599998 75.523773000000006 3 0 -1 0 
1 124.599998 74.523773000000006 3 1 0 0 
1 125.199997 74.523773000000006 3 0 -1 0 
1 125.199997 74.323775999999995 3 -1 0 0 
1 124.599998 74.323775999999995 3 0 -1 0 
1 124.599998 72.495979000000005 3 1 0 0 
1 127.150002 72.495979000000005 3 0 1 0 
1 127.150002 76.723777999999996 3 -1 0 0 
1 125.800003 76.723777999999996 3 0 1 0 
1 125.800003 76.923775000000006 3 1 0 0 
1 127.150002 76.923775000000006 3 0 1 0 
1 127.150002 79.251571999999996 3 -1 0 0 
1 126.349998 79.251571999999996 3 0 -1 0 
1 126.349998 77.651572999999999 3 -1 0 0 
1 126.150002 77.651572999999999 3 0 1 0 
1 126.150002 79.451576000000003 3 1 0 0 
1 127.150002 79.451576000000003 3 0 1 0 
1 127.150002 80.151572999999999 3 -1 0 0 
1 126.150002 80.151572999999999 3 0 1 0 
1 126.150002 80.351578000000003 3 1 0 0 
1 127.150002 80.351578000000003 3 0 1 0 
1 127.150002 81.001571999999996 3 -1 0 0 
1 124.599998 81.001571999999996 3 0 -1 0 
1 124.599998 79.451576000000003 3 1 0 0 
1 125.349998 79.451576000000003 3 0 1 0 
1 125.349998 80.351578000000003 3 1 0 0 
1 125.550003 80.351578000000003 3 0 -1 0 
1 125.550003 79.451576000000003 3 0 -1 0 
1 125.550003 79.251571999999996 3 -1 0 0 
1 124.599998 79.251571999999996 3 0 -1 0 
1 124.599998 77.501571999999996 3 -1 0 0 
1 122.449997 77.501571999999996 3 0 -1 0 
1 122.449997 76.901572999999999 3 -1 0 0 
1 122.25 76.901572999999999 3 0 1 0 
1 122.25 77.501571999999996 3 -1 0 0 
1 120.699997 77.501571999999996 3 0 -1 0 
1 120.699997 72.495979000000005 3 1 0 0 
1 124.400002 72.495979000000005 3 0 1 0 
1 124.400002 75.723777999999996 3 1 0 0 
1 125 75.723777999999996 3 0 1 0 
1 138 81.001571999999996 3 -1 0 0 
1 134.300003 81.001571999999996 3 0 -1 0 
1 134.300003 77.701576000000003 3 1 0 0 
1 138 77.701576000000003 3 0 1 0 
1 138.60000600000001 76.723777999999996 3 -1 0 0 
1 138 76.723777999999996 3 0 1 0 
1 138 76.923775000000006 3 1 0 0 
1 138.800003 76.923775000000006 3 0 -1 0 
1 138.800003 75.523773000000006 3 -1 0 0 
1 138.199997 75.523773000000006 3 0 -1 0 
1 138.199997 74.523773000000006 3 1 0 0 
1 138.800003 74.523773000000006 3 0 -1 0 
1 138.800003 74.323775999999995 3 -1 0 0 
1 138.199997 74.323775999999995 3 0 -1 0 
1 138.199997 72.495979000000005 3 1 0 0 
1 140.75 72.495979000000005 3 0 1 0 
1 140.75 76.723777999999996 3 -1 0 0 
1 139.39999399999999 76.723777999999996 3 0 1 0 
1 139.39999399999999 76.923775000000006 3 1 0 0 
1 140.75 76.923775000000006 3 0 1 0 
1 140.75 79.251571999999996 3 -1 0 0 
1 139.949997 79.251571999999996 3 0 -1 0 
1 139.949997 77.651572999999999 3 -1 0 0 
1 139.75 77.651572999999999 3 0 1 0 
1 139.75 79.451576000000003 3 1 0 0 
1 140.75 79.451576000000003 3 0 1 0 
1 140.75 80.151572999999999 3 -1 0 0 
1 139.75 80.151572999999999 3 0 1 0 
1 139.75 80.351578000000003 3 1 0 0 
1 140.75 80.351578000000003 3 0 1 0 
1 140.75 81.001571999999996 3 -1 0 0 
1 138.199997 81.001571999999996 3 0 -1 0 
1 138.199997 79.451576000000003 3 1 0 0 
1 138.949997 79.451576000000003 3 0 1 0 
1 138.949997 80.351578000000003 3 1 0 0 
1 139.14999399999999 80.351578000000003 3 0 -1 0 
1 139.14999399999999 79.451576000000003 3 0 -1 0 
1 139.14999399999999 79.251571999999996 3 -1 0 0 
1 138.199997 79.251571999999996 3 0 -1 0 
1 138.199997 77.501571999999996 3 -1 0 0 
1 136.050003 77.501571999999996 3 0 -1 0 
1 136.050003 76.901572999999999 3 -1 0 0 
1 135.85000600000001 76.901572999999999 3 0 1 0 
1 135.85000600000001 77.501571999999996 3 -1 0 0 
1 134.300003 77.501571999999996 3 0 -1 0 
1 134.300003 72.495979000000005 3 1 0 0 
1 138 72.495979000000005 3 0 1 0 
1 138 75.723777999999996 3 1 0 0 
1 138.60000600000001 75.723777999999996 3 0 1 0 
1 151.60000600000001 81.001571999999996 3 -1 0 0 
1 147.89999399999999 81.001571999999996 3 0 -1 0 
1 147.89999399999999 77.701576000000003 3 1 0 0 
1 151.60000600000001 77.701576000000003 3 0 1 0 
1 152.199997 76.723777999999996 3 -1 0 0 
1 151.60000600000001 76.723777999999996 3 0 1 0 
1 151.60000600000001 76.923775000000006 3 1 0 0 
1 152.39999399999999 76.923775000000006 3 0 -1 0 
1 152.39999399999999 75.523773000000006 3 -1 0 0 
1 151.800003 75.523773000000006 3 0 -1 0 
1 151.800003 74.523773000000006 3 1 0 0 
1 152.39999399999999 74.523773000000006 3 0 -1 0 
1 152.39999399999999 74.323775999999995 3 -1 0 0 
1 151.800003 74.323775999999995 3 0 -1 0 
1 151.800003 72.495979000000005 3 1 0 0 
1 154.35000600000001 72.495979000000005 3 0 1 0 
1 154.35000600000001 76.723777999999996 3 -1 0 0 
1 153 76.723777999999996 3 0 1 0 
1 153 76.923775000000006 3 1 0 0 
1 154.35000600000001 76.923775000000006 3 0 1 0 
1 154.35000600000001 79.251571999999996 3 -1 0 0 
1 153.550003 79.251571999999996 3 0 -1 0 
1 153.550003 77.651572999999999 3 -1 0 0 
1 153.35000600000001 77.651572999999999 3 0 1 0 
1 153.35000600000001 79.451576000000003 3 1 0 0 
1 154.35000600000001 79.451576000000003 3 0 1 0 
1 154.35000600000001 80.151572999999999 3 -1 0 0 
1 153.35000600000001 80.151572999999999 3 0 1 0 
1 153.35000600000001 80.351578000000003 3 1 0 0 
1 154.35000600000001 80.351578000000003 3 0 1 0 
1 154.35000600000001 81.001571999999996 3 -1 0 0 
1 151.800003 81.001571999999996 3 0 -1 0 
1 151.800003 79.451576000000003 3 1 0 0 
1 152.550003 79.451576000000003 3 0 1 0 
1 152.550003 80.351578000000003 3 1 0 0 
1 152.75 80.351578000000003 3 0 -1 0 
1 152.75 79.451576000000003 3 0 -1 0 
1 152.75 79.251571999999996 3 -1 0 0 
1 151.800003 79.251571999999996 3 0 -1 0 
1 151.800003 77.501571999999996 3 -1 0 0 
1 149.64999399999999 77.501571999999996 3 0 -1 0 
1 149.64999399999999 76.901572999999999 3 -1 0 0 
1 149.449997 76.901572999999999 3 0 1 0 
1 149.449997 77.501571999999996 3 -1 0 0 
1 147.89999399999999 77.501571999999996 3 0 -1 0 
1 147.89999399999999 72.495979000000005 3 1 0 0 
1 151.60000600000001 72.495979000000005 3 0 1 0 
1 151.60000600000001 75.723777999999996 3 1 0 0 
1 152.199997 75.723777999999996 3 0 1 0 
1 90.150002000000001 59.849997999999999 3 0 -1 0 
1 90.150002000000001 50.349997999999999 3 1 0 0 
1 99.650002000000001 50.349997999999999 3 0 1 0 
1 99.650002000000001 59.849997999999999 3 -1 0 0 
1 98.199996999999996 59.849997999999999 3 0 1 0 
1 98.199996999999996 60.200001 3 1 0 0 
1 98.599997999999999 60.200001 3 0 1 0 
1 98.599997999999999 63.145977000000002 3 -1 0 0 
1 90.150002000000001 63.145977000000002 3 0 -1 0 
1 90.150002000000001 60.200001 3 1 0 0 
1 97.300003000000004 60.200001 3 0 -1 0 
1 97.300003000000004 59.849997999999999 3 -1 0 0 
1 96.800003000000004 72.495979000000005 3 1 0 0 
1 103.25 72.495979000000005 3 0 1 0 
1 103.25 75.148773000000006 3 1 0 0 
1 103.599998 75.148773000000006 3 0 -1 0 
1 103.599998 72.495979000000005 3 1 0 0 
1 106.75 72.495979000000005 3 0 1 0 
1 106.75 81.001571999999996 3 -1 0 0 
1 103.599998 81.001571999999996 3 0 -1 0 
1 103.599998 75.948775999999995 3 -1 0 0 
1 103.25 75.948775999999995 3 0 1 0 
1 103.25 81.001571999999996 3 -1 0 0 
1 96.800003000000004 81.001571999999996 3 0 -1 0 
1 161.5 72.495979000000005 3 1 0 0 
1 164.64999399999999 72.495979000000005 3 0 1 0 
1 164.64999399999999 75.148773000000006 3 1 0 0 
1 165 75.148773000000006 3 0 -1 0 
1 165 72.495979000000005 3 1 0 0 
1 171.39999399999999 72.495979000000005 3 0 1 0 
1 171.39999399999999 81.001571999999996 3 -1 0 0 
1 165 81.001571999999996 3 0 -1 0 
1 165 75.948775999999995 3 -1 0 0 
1 164.64999399999999 75.948775999999995 3 0 1 0 
1 164.64999399999999 81.001571999999996 3 -1 0 0 
1 161.5 81.001571999999996 3 0 -1 0 
Polygon3D 0
PolygonOnTriangulations 0
Surfaces 19
1 157.02662615175626 76.642004486860102 3.0000000000000013 0 0 1 1 0 -0 -0 1 0 
1 159.29999549999999 79.351573999999999 3 0 0 1 1 0 -0 -0 1 0 
1 143.4266318138225 76.642005536610611 3.0000000000000013 0 0 1 1 0 -0 -0 1 0 
1 145.70000450000001 79.351573999999999 3 0 0 1 1 0 -0 -0 1 0 
1 129.8266286392419 76.642004424816946 3.0000000000000013 0 0 1 1 0 -0 -0 1 0 
1 132.0999985 79.351573999999999 3 0 0 1 1 0 -0 -0 1 0 
1 116.22662907486794 76.642005001482531 2.9999999999999996 0 0 1 1 0 -0 -0 1 0 
1 118.5 79.351573999999999 3 0 0 1 1 0 -0 -0 1 0 
1 108.9500005 79.351573999999999 3 0 0 1 1 0 -0 -0 1 0 
1 111.22337174833899 76.642004815723439 2.9999999999999996 0 0 1 1 0 -0 -0 1 0 
1 122.54999949999998 79.351573999999999 3 0 0 1 1 0 -0 -0 1 0 
1 124.82337063776318 76.642005579174665 2.9999999999999996 0 0 1 1 0 -0 -0 1 0 
1 136.1500015 79.351574000000014 3 0 0 1 1 0 -0 -0 1 0 
1 138.42337136075818 76.642004424816861 3 0 0 1 1 0 -0 -0 1 0 
1 149.74999999999997 79.351573999999999 3 0 0 1 1 0 -0 -0 1 0 
1 152.02337239840898 76.642005165522463 3 0 0 1 1 0 -0 -0 1 0 
1 94.647023840496331 57.518980806839743 3.0000000000000004 0 0 1 1 0 -0 -0 1 0 
1 102.26099655970391 76.769417017317053 3.0000000000000004 0 0 1 1 0 -0 -0 1 0 
1 165.97044819413804 76.769456178239693 3.0000000000000004 0 0 1 1 0 -0 -0 1 0 
Triangulations 0

TShapes 1343
Ve
1e-07
161.149994 72.495979 3
0 0

0101101
*
Ve
1e-07
157.449997 72.495979 3
0 0

0101101
*
Ve
1e-07
157.449997 75.723778 3
0 0

0101101
*
Ve
1e-07
156.850006 75.723778 3
0 0

0101101
*
Ve
1e-07
156.850006 76.723778 3
0 0

0101101
*
Ve
1e-07
157.449997 76.723778 3
0 0

0101101
*
Ve
1e-07
157.449997 76.923775 3
0 0

0101101
*
Ve
1e-07
156.649994 76.923775 3
0 0

0101101
*
Ve
1e-07
156.649994 75.523773 3
0 0

0101101
*
Ve
1e-07
157.25 75.523773 3
0 0

0101101
*
Ve
1e-07
157.25 74.523773 3
0 0

0101101
*
Ve
1e-07
156.649994 74.523773 3
0 0

0101101
*
Ve
1e-07
156.649994 74.323776 3
0 0

0101101
*
Ve
1e-07
157.25 74.323776 3
0 0

0101101
*
Ve
1e-07
157.25 72.495979 3
0 0

0101101
*
Ve
1e-07
154.699997 72.495979 3
0 0

0101101
*
Ve
1e-07
154.699997 76.723778 3
0 0

0101101
*
Ve
1e-07
156.050003 76.723778 3
0 0

0101101
*
Ve
1e-07
156.050003 76.923775 3
0 0

0101101
*
Ve
1e-07
154.699997 76.923775 3
0 0

0101101
*
Ve
1e-07
154.699997 79.251572 3
0 0

0101101
*
Ve
1e-07
155.5 79.251572 3
0 0

0101101
*
Ve
1e-07
155.5 77.651573 3
0 0

0101101
*
Ve
1e-07
155.699997 77.651573 3
0 0

0101101
*
Ve
1e-07
155.699997 79.451576 3
0 0

0101101
*
Ve
1e-07
154.699997 79.451576 3
0 0

0101101
*
Ve
1e-07
154.699997 80.151573 3
0 0

0101101
*
Ve
1e-07
155.699997 80.151573 3
0 0

0101101
*
Ve
1e-07
155.699997 80.351578 3
0 0

0101101
*
Ve
1e-07
154.699997 80.351578 3
0 0

0101101
*
Ve
1e-07
154.699997 81.001572 3
0 0

0101101
*
Ve
1e-07
157.25 81.001572 3
0 0

0101101
*
Ve
1e-07
157.25 79.451576 3
0 0

0101101
*
Ve
1e-07
156.5 79.451576 3
0 0

0101101
*
Ve
1e-07
156.5 80.351578 3
0 0

0101101
*
Ve
1e-07
156.300003 80.351578 3
0 0

0101101
*
Ve
1e-07
156.300003 79.451576 3
0 0

0101101
*
Ve
1e-07
156.300003 79.251572 3
0 0

0101101
*
Ve
1e-07
157.25 79.251572 3
0 0

0101101
*
Ve
1e-07
157.25 77.501572 3
0 0

0101101
*
Ve
1e-07
159.399994 77.501572 3
0 0

0101101
*
Ve
1e-07
159.399994 76.901573 3
0 0

0101101
*
Ve
1e-07
159.600006 76.901573 3
0 0

0101101
*
Ve
1e-07
159.600006 77.501572 3
0 0

0101101
*
Ve
1e-07
161.149994 77.501572 3
0 0

0101101
*
Ve
1e-07
161.149994 77.701576 3
0 0

0101101
*
Ve
1e-07
161.149994 81.001572 3
0 0

0101101
*
Ve
1e-07
157.449997 77.701576 3
0 0

0101101
*
Ve
1e-07
157.449997 81.001572 3
0 0

0101101
*
Ve
1e-07
147.550003 72.495979 3
0 0

0101101
*
Ve
1e-07
143.850006 72.495979 3
0 0

0101101
*
Ve
1e-07
143.850006 75.723778 3
0 0

0101101
*
Ve
1e-07
143.25 75.723778 3
0 0

0101101
*
Ve
1e-07
143.25 76.723778 3
0 0

0101101
*
Ve
1e-07
143.850006 76.723778 3
0 0

0101101
*
Ve
1e-07
143.850006 76.923775 3
0 0

0101101
*
Ve
1e-07
143.050003 76.923775 3
0 0

0101101
*
Ve
1e-07
143.050003 75.523773 3
0 0

0101101
*
Ve
1e-07
143.649994 75.523773 3
0 0

0101101
*
Ve
1e-07
143.649994 74.523773 3
0 0

0101101
*
Ve
1e-07
143.050003 74.523773 3
0 0

0101101
*
Ve
1e-07
143.050003 74.323776 3
0 0

0101101
*
Ve
1e-07
143.649994 74.323776 3
0 0

0101101
*
Ve
1e-07
143.649994 72.495979 3
0 0

0101101
*
Ve
1e-07
141.100006 72.495979 3
0 0

0101101
*
Ve
1e-07
141.100006 76.723778 3
0 0

0101101
*
Ve
1e-07
142.449997 76.723778 3
0 0

0101101
*
Ve
1e-07
142.449997 76.923775 3
0 0

0101101
*
Ve
1e-07
141.100006 76.923775 3
0 0

0101101
*
Ve
1e-07
141.100006 79.251572 3
0 0

0101101
*
Ve
1e-07
141.899994 79.251572 3
0 0

0101101
*
Ve
1e-07
141.899994 77.651573 3
0 0

0101101
*
Ve
1e-07
142.100006 77.651573 3
0 0

0101101
*
Ve
1e-07
142.100006 79.451576 3
0 0

0101101
*
Ve
1e-07
141.100006 79.451576 3
0 0

0101101
*
Ve
1e-07
141.100006 80.151573 3
0 0

0101101
*
Ve
1e-07
142.100006 80.151573 3
0 0

0101101
*
Ve
1e-07
142.100006 80.351578 3
0 0

0101101
*
Ve
1e-07
141.100006 80.351578 3
0 0

0101101
*
Ve
1e-07
141.100006 81.001572 3
0 0

0101101
*
Ve
1e-07
143.649994 81.001572 3
0 0

0101101
*
Ve
1e-07
143.649994 79.451576 3
0 0

0101101
*
Ve
1e-07
142.899994 79.451576 3
0 0

0101101
*
Ve
1e-07
142.899994 80.351578 3
0 0

0101101
*
Ve
1e-07
142.699997 80.351578 3
0 0

0101101
*
Ve
1e-07
142.699997 79.451576 3
0 0

0101101
*
Ve
1e-07
142.699997 79.251572 3
0 0

0101101
*
Ve
1e-07
143.649994 79.251572 3
0 0

0101101
*
Ve
1e-07
143.649994 77.501572 3
0 0

0101101
*
Ve
1e-07
145.800003 77.501572 3
0 0

0101101
*
Ve
1e-07
145.800003 76.901573 3
0 0

0101101
*
Ve
1e-07
146 76.901573 3
0 0

0101101
*
Ve
1e-07
146 77.501572 3
0 0

0101101
*
Ve
1e-07
147.550003 77.501572 3
0 0

0101101
*
Ve
1e-07
147.550003 77.701576 3
0 0

0101101
*
Ve
1e-07
147.550003 81.001572 3
0 0

0101101
*
Ve
1e-07
143.850006 77.701576 3
0 0

0101101
*
Ve
1e-07
143.850006 81.001572 3
0 0

0101101
*
Ve
1e-07
133.949997 72.495979 3
0 0

0101101
*
Ve
1e-07
130.25 72.495979 3
0 0

0101101
*
Ve
1e-07
130.25 75.723778 3
0 0

0101101
*
Ve
1e-07
129.649994 75.723778 3
0 0

0101101
*
Ve
1e-07
129.649994 76.723778 3
0 0

0101101
*
Ve
1e-07
130.25 76.723778 3
0 0

0101101
*
Ve
1e-07
130.25 76.923775 3
0 0

0101101
*
Ve
1e-07
129.449997 76.923775 3
0 0

0101101
*
Ve
1e-07
129.449997 75.523773 3
0 0

0101101
*
Ve
1e-07
130.050003 75.523773 3
0 0

0101101
*
Ve
1e-07
130.050003 74.523773 3
0 0

0101101
*
Ve
1e-07
129.449997 74.523773 3
0 0

0101101
*
Ve
1e-07
129.449997 74.323776 3
0 0

0101101
*
Ve
1e-07
130.050003 74.323776 3
0 0

0101101
*
Ve
1e-07
130.050003 72.495979 3
0 0

0101101
*
Ve
1e-07
127.5 72.495979 3
0 0

0101101
*
Ve
1e-07
127.5 76.723778 3
0 0

0101101
*
Ve
1e-07
128.850006 76.723778 3
0 0

0101101
*
Ve
1e-07
128.850006 76.923775 3
0 0

0101101
*
Ve
1e-07
127.5 76.923775 3
0 0

0101101
*
Ve
1e-07
127.5 79.251572 3
0 0

0101101
*
Ve
1e-07
128.300003 79.251572 3
0 0

0101101
*
Ve
1e-07
128.300003 77.651573 3
0 0

0101101
*
Ve
1e-07
128.5 77.651573 3
0 0

0101101
*
Ve
1e-07
128.5 79.451576 3
0 0

0101101
*
Ve
1e-07
127.5 79.451576 3
0 0

0101101
*
Ve
1e-07
127.5 80.151573 3
0 0

0101101
*
Ve
1e-07
128.5 80.151573 3
0 0

0101101
*
Ve
1e-07
128.5 80.351578 3
0 0

0101101
*
Ve
1e-07
127.5 80.351578 3
0 0

0101101
*
Ve
1e-07
127.5 81.001572 3
0 0

0101101
*
Ve
1e-07
130.050003 81.001572 3
0 0

0101101
*
Ve
1e-07
130.050003 79.451576 3
0 0

0101101
*
Ve
1e-07
129.300003 79.451576 3
0 0

0101101
*
Ve
1e-07
129.300003 80.351578 3
0 0

0101101
*
Ve
1e-07
129.100006 80.351578 3
0 0

0101101
*
Ve
1e-07
129.100006 79.451576 3
0 0

0101101
*
Ve
1e-07
129.100006 79.251572 3
0 0

0101101
*
Ve
1e-07
130.050003 79.251572 3
0 0

0101101
*
Ve
1e-07
130.050003 77.501572 3
0 0

0101101
*
Ve
1e-07
132.199997 77.501572 3
0 0

0101101
*
Ve
1e-07
132.199997 76.901573 3
0 0

0101101
*
Ve
1e-07
132.399994 76.901573 3
0 0

0101101
*
Ve
1e-07
132.399994 77.501572 3
0 0

0101101
*
Ve
1e-07
133.949997 77.501572 3
0 0

0101101
*
Ve
1e-07
133.949997 77.701576 3
0 0

0101101
*
Ve
1e-07
133.949997 81.001572 3
0 0

0101101
*
Ve
1e-07
130.25 77.701576 3
0 0

0101101
*
Ve
1e-07
130.25 81.001572 3
0 0

0101101
*
Ve
1e-07
120.349998 72.495979 3
0 0

0101101
*
Ve
1e-07
116.650002 72.495979 3
0 0

0101101
*
Ve
1e-07
116.650002 75.723778 3
0 0

0101101
*
Ve
1e-07
116.050003 75.723778 3
0 0

0101101
*
Ve
1e-07
116.050003 76.723778 3
0 0

0101101
*
Ve
1e-07
116.650002 76.723778 3
0 0

0101101
*
Ve
1e-07
116.650002 76.923775 3
0 0

0101101
*
Ve
1e-07
115.849998 76.923775 3
0 0

0101101
*
Ve
1e-07
115.849998 75.523773 3
0 0

0101101
*
Ve
1e-07
116.449997 75.523773 3
0 0

0101101
*
Ve
1e-07
116.449997 74.523773 3
0 0

0101101
*
Ve
1e-07
115.849998 74.523773 3
0 0

0101101
*
Ve
1e-07
115.849998 74.323776 3
0 0

0101101
*
Ve
1e-07
116.449997 74.323776 3
0 0

0101101
*
Ve
1e-07
116.449997 72.495979 3
0 0

0101101
*
Ve
1e-07
113.900002 72.495979 3
0 0

0101101
*
Ve
1e-07
113.900002 76.723778 3
0 0

0101101
*
Ve
1e-07
115.25 76.723778 3
0 0

0101101
*
Ve
1e-07
115.25 76.923775 3
0 0

0101101
*
Ve
1e-07
113.900002 76.923775 3
0 0

0101101
*
Ve
1e-07
113.900002 79.251572 3
0 0

0101101
*
Ve
1e-07
114.699997 79.251572 3
0 0

0101101
*
Ve
1e-07
114.699997 77.651573 3
0 0

0101101
*
Ve
1e-07
114.900002 77.651573 3
0 0

0101101
*
Ve
1e-07
114.900002 79.451576 3
0 0

0101101
*
Ve
1e-07
113.900002 79.451576 3
0 0

0101101
*
Ve
1e-07
113.900002 80.151573 3
0 0

0101101
*
Ve
1e-07
114.900002 80.151573 3
0 0

0101101
*
Ve
1e-07
114.900002 80.351578 3
0 0

0101101
*
Ve
1e-07
113.900002 80.351578 3
0 0

0101101
*
Ve
1e-07
113.900002 81.001572 3
0 0

0101101
*
Ve
1e-07
116.449997 81.001572 3
0 0

0101101
*
Ve
1e-07
116.449997 79.451576 3
0 0

0101101
*
Ve
1e-07
115.699997 79.451576 3
0 0

0101101
*
Ve
1e-07
115.699997 80.351578 3
0 0

0101101
*
Ve
1e-07
115.5 80.351578 3
0 0

0101101
*
Ve
1e-07
115.5 79.451576 3
0 0

0101101
*
Ve
1e-07
115.5 79.251572 3
0 0

0101101
*
Ve
1e-07
116.449997 79.251572 3
0 0

0101101
*
Ve
1e-07
116.449997 77.501572 3
0 0

0101101
*
Ve
1e-07
118.599998 77.501572 3
0 0

0101101
*
Ve
1e-07
118.599998 76.901573 3
0 0

0101101
*
Ve
1e-07
118.800003 76.901573 3
0 0

0101101
*
Ve
1e-07
118.800003 77.501572 3
0 0

0101101
*
Ve
1e-07
120.349998 77.501572 3
0 0

0101101
*
Ve
1e-07
120.349998 77.701576 3
0 0

0101101
*
Ve
1e-07
120.349998 81.001572 3
0 0

0101101
*
Ve
1e-07
116.650002 77.701576 3
0 0

0101101
*
Ve
1e-07
116.650002 81.001572 3
0 0

0101101
*
Ve
1e-07
107.099998 77.701576 3
0 0

0101101
*
Ve
1e-07
107.099998 81.001572 3
0 0

0101101
*
Ve
1e-07
110.800003 77.701576 3
0 0

0101101
*
Ve
1e-07
110.800003 81.001572 3
0 0

0101101
*
Ve
1e-07
113.550003 72.495979 3
0 0

0101101
*
Ve
1e-07
113.550003 76.723778 3
0 0

0101101
*
Ve
1e-07
112.199997 76.723778 3
0 0

0101101
*
Ve
1e-07
112.199997 76.923775 3
0 0

0101101
*
Ve
1e-07
113.550003 76.923775 3
0 0

0101101
*
Ve
1e-07
113.550003 79.251572 3
0 0

0101101
*
Ve
1e-07
112.75 79.251572 3
0 0

0101101
*
Ve
1e-07
112.75 77.651573 3
0 0

0101101
*
Ve
1e-07
112.550003 77.651573 3
0 0

0101101
*
Ve
1e-07
112.550003 79.451576 3
0 0

0101101
*
Ve
1e-07
113.550003 79.451576 3
0 0

0101101
*
Ve
1e-07
113.550003 80.151573 3
0 0

0101101
*
Ve
1e-07
112.550003 80.151573 3
0 0

0101101
*
Ve
1e-07
112.550003 80.351578 3
0 0

0101101
*
Ve
1e-07
113.550003 80.351578 3
0 0

0101101
*
Ve
1e-07
113.550003 81.001572 3
0 0

0101101
*
Ve
1e-07
111 81.001572 3
0 0

0101101
*
Ve
1e-07
111 79.451576 3
0 0

0101101
*
Ve
1e-07
111.75 79.451576 3
0 0

0101101
*
Ve
1e-07
111.75 80.351578 3
0 0

0101101
*
Ve
1e-07
111.949997 80.351578 3
0 0

0101101
*
Ve
1e-07
111.949997 79.451576 3
0 0

0101101
*
Ve
1e-07
111.949997 79.251572 3
0 0

0101101
*
Ve
1e-07
111 79.251572 3
0 0

0101101
*
Ve
1e-07
111 77.501572 3
0 0

0101101
*
Ve
1e-07
108.849998 77.501572 3
0 0

0101101
*
Ve
1e-07
108.849998 76.901573 3
0 0

0101101
*
Ve
1e-07
108.650002 76.901573 3
0 0

0101101
*
Ve
1e-07
108.650002 77.501572 3
0 0

0101101
*
Ve
1e-07
107.099998 77.501572 3
0 0

0101101
*
Ve
1e-07
107.099998 72.495979 3
0 0

0101101
*
Ve
1e-07
110.800003 72.495979 3
0 0

0101101
*
Ve
1e-07
110.800003 75.723778 3
0 0

0101101
*
Ve
1e-07
111.400002 75.723778 3
0 0

0101101
*
Ve
1e-07
111.400002 76.723778 3
0 0

0101101
*
Ve
1e-07
110.800003 76.723778 3
0 0

0101101
*
Ve
1e-07
110.800003 76.923775 3
0 0

0101101
*
Ve
1e-07
111.599998 76.923775 3
0 0

0101101
*
Ve
1e-07
111.599998 75.523773 3
0 0

0101101
*
Ve
1e-07
111 75.523773 3
0 0

0101101
*
Ve
1e-07
111 74.523773 3
0 0

0101101
*
Ve
1e-07
111.599998 74.523773 3
0 0

0101101
*
Ve
1e-07
111.599998 74.323776 3
0 0

0101101
*
Ve
1e-07
111 74.323776 3
0 0

0101101
*
Ve
1e-07
111 72.495979 3
0 0

0101101
*
Ve
1e-07
120.699997 77.701576 3
0 0

0101101
*
Ve
1e-07
120.699997 81.001572 3
0 0

0101101
*
Ve
1e-07
124.400002 77.701576 3
0 0

0101101
*
Ve
1e-07
124.400002 81.001572 3
0 0

0101101
*
Ve
1e-07
127.150002 72.495979 3
0 0

0101101
*
Ve
1e-07
127.150002 76.723778 3
0 0

0101101
*
Ve
1e-07
125.800003 76.723778 3
0 0

0101101
*
Ve
1e-07
125.800003 76.923775 3
0 0

0101101
*
Ve
1e-07
127.150002 76.923775 3
0 0

0101101
*
Ve
1e-07
127.150002 79.251572 3
0 0

0101101
*
Ve
1e-07
126.349998 79.251572 3
0 0

0101101
*
Ve
1e-07
126.349998 77.651573 3
0 0

0101101
*
Ve
1e-07
126.150002 77.651573 3
0 0

0101101
*
Ve
1e-07
126.150002 79.451576 3
0 0

0101101
*
Ve
1e-07
127.150002 79.451576 3
0 0

0101101
*
Ve
1e-07
127.150002 80.151573 3
0 0

0101101
*
Ve
1e-07
126.150002 80.151573 3
0 0

0101101
*
Ve
1e-07
126.150002 80.351578 3
0 0

0101101
*
Ve
1e-07
127.150002 80.351578 3
0 0

0101101
*
Ve
1e-07
127.150002 81.001572 3
0 0

0101101
*
Ve
1e-07
124.599998 81.001572 3
0 0

0101101
*
Ve
1e-07
124.599998 79.451576 3
0 0

0101101
*
Ve
1e-07
125.349998 79.451576 3
0 0

0101101
*
Ve
1e-07
125.349998 80.351578 3
0 0

0101101
*
Ve
1e-07
125.550003 80.351578 3
0 0

0101101
*
Ve
1e-07
125.550003 79.451576 3
0 0

0101101
*
Ve
1e-07
125.550003 79.251572 3
0 0

0101101
*
Ve
1e-07
124.599998 79.251572 3
0 0

0101101
*
Ve
1e-07
124.599998 77.501572 3
0 0

0101101
*
Ve
1e-07
122.449997 77.501572 3
0 0

0101101
*
Ve
1e-07
122.449997 76.901573 3
0 0

0101101
*
Ve
1e-07
122.25 76.901573 3
0 0

0101101
*
Ve
1e-07
122.25 77.501572 3
0 0

0101101
*
Ve
1e-07
120.699997 77.501572 3
0 0

0101101
*
Ve
1e-07
120.699997 72.495979 3
0 0

0101101
*
Ve
1e-07
124.400002 72.495979 3
0 0

0101101
*
Ve
1e-07
124.400002 75.723778 3
0 0

0101101
*
Ve
1e-07
125 75.723778 3
0 0

0101101
*
Ve
1e-07
125 76.723778 3
0 0

0101101
*
Ve
1e-07
124.400002 76.723778 3
0 0

0101101
*
Ve
1e-07
124.400002 76.923775 3
0 0

0101101
*
Ve
1e-07
125.199997 76.923775 3
0 0

0101101
*
Ve
1e-07
125.199997 75.523773 3
0 0

0101101
*
Ve
1e-07
124.599998 75.523773 3
0 0

0101101
*
Ve
1e-07
124.599998 74.523773 3
0 0

0101101
*
Ve
1e-07
125.199997 74.523773 3
0 0

0101101
*
Ve
1e-07
125.199997 74.323776 3
0 0

0101101
*
Ve
1e-07
124.599998 74.323776 3
0 0

0101101
*
Ve
1e-07
124.599998 72.495979 3
0 0

0101101
*
Ve
1e-07
134.300003 77.701576 3
0 0

0101101
*
Ve
1e-07
134.300003 81.001572 3
0 0

0101101
*
Ve
1e-07
138 77.701576 3
0 0

0101101
*
Ve
1e-07
138 81.001572 3
0 0

0101101
*
Ve
1e-07
140.75 72.495979 3
0 0

0101101
*
Ve
1e-07
140.75 76.723778 3
0 0

0101101
*
Ve
1e-07
139.399994 76.723778 3
0 0

0101101
*
Ve
1e-07
139.399994 76.923775 3
0 0

0101101
*
Ve
1e-07
140.75 76.923775 3
0 0

0101101
*
Ve
1e-07
140.75 79.251572 3
0 0

0101101
*
Ve
1e-07
139.949997 79.251572 3
0 0

0101101
*
Ve
1e-07
139.949997 77.651573 3
0 0

0101101
*
Ve
1e-07
139.75 77.651573 3
0 0

0101101
*
Ve
1e-07
139.75 79.451576 3
0 0

0101101
*
Ve
1e-07
140.75 79.451576 3
0 0

0101101
*
Ve
1e-07
140.75 80.151573 3
0 0

0101101
*
Ve
1e-07
139.75 80.151573 3
0 0

0101101
*
Ve
1e-07
139.75 80.351578 3
0 0

0101101
*
Ve
1e-07
140.75 80.351578 3
0 0

0101101
*
Ve
1e-07
140.75 81.001572 3
0 0

0101101
*
Ve
1e-07
138.199997 81.001572 3
0 0

0101101
*
Ve
1e-07
138.199997 79.451576 3
0 0

0101101
*
Ve
1e-07
138.949997 79.451576 3
0 0

0101101
*
Ve
1e-07
138.949997 80.351578 3
0 0

0101101
*
Ve
1e-07
139.149994 80.351578 3
0 0

0101101
*
Ve
1e-07
139.149994 79.451576 3
0 0

0101101
*
Ve
1e-07
139.149994 79.251572 3
0 0

0101101
*
Ve
1e-07
138.199997 79.251572 3
0 0

0101101
*
Ve
1e-07
138.199997 77.501572 3
0 0

0101101
*
Ve
1e-07
136.050003 77.501572 3
0 0

0101101
*
Ve
1e-07
136.050003 76.901573 3
0 0

0101101
*
Ve
1e-07
135.850006 76.901573 3
0 0

0101101
*
Ve
1e-07
135.850006 77.501572 3
0 0

0101101
*
Ve
1e-07
134.300003 77.501572 3
0 0

0101101
*
Ve
1e-07
134.300003 72.495979 3
0 0

0101101
*
Ve
1e-07
138 72.495979 3
0 0

0101101
*
Ve
1e-07
138 75.723778 3
0 0

0101101
*
Ve
1e-07
138.600006 75.723778 3
0 0

0101101
*
Ve
1e-07
138.600006 76.723778 3
0 0

0101101
*
Ve
1e-07
138 76.723778 3
0 0

0101101
*
Ve
1e-07
138 76.923775 3
0 0

0101101
*
Ve
1e-07
138.800003 76.923775 3
0 0

0101101
*
Ve
1e-07
138.800003 75.523773 3
0 0

0101101
*
Ve
1e-07
138.199997 75.523773 3
0 0

0101101
*
Ve
1e-07
138.199997 74.523773 3
0 0

0101101
*
Ve
1e-07
138.800003 74.523773 3
0 0

0101101
*
Ve
1e-07
138.800003 74.323776 3
0 0

0101101
*
Ve
1e-07
138.199997 74.323776 3
0 0

0101101
*
Ve
1e-07
138.199997 72.495979 3
0 0

0101101
*
Ve
1e-07
147.899994 77.701576 3
0 0

0101101
*
Ve
1e-07
147.899994 81.001572 3
0 0

0101101
*
Ve
1e-07
151.600006 77.701576 3
0 0

0101101
*
Ve
1e-07
151.600006 81.001572 3
0 0

0101101
*
Ve
1e-07
147.899994 72.495979 3
0 0

0101101
*
Ve
1e-07
151.600006 72.495979 3
0 0

0101101
*
Ve
1e-07
151.600006 75.723778 3
0 0

0101101
*
Ve
1e-07
152.199997 75.723778 3
0 0

0101101
*
Ve
1e-07
152.199997 76.723778 3
0 0

0101101
*
Ve
1e-07
151.600006 76.723778 3
0 0

0101101
*
Ve
1e-07
151.600006 76.923775 3
0 0

0101101
*
Ve
1e-07
152.399994 76.923775 3
0 0

0101101
*
Ve
1e-07
152.399994 75.523773 3
0 0

0101101
*
Ve
1e-07
151.800003 75.523773 3
0 0

0101101
*
Ve
1e-07
151.800003 74.523773 3
0 0

0101101
*
Ve
1e-07
152.399994 74.523773 3
0 0

0101101
*
Ve
1e-07
152.399994 74.323776 3
0 0

0101101
*
Ve
1e-07
151.800003 74.323776 3
0 0

0101101
*
Ve
1e-07
151.800003 72.495979 3
0 0

0101101
*
Ve
1e-07
154.350006 72.495979 3
0 0

0101101
*
Ve
1e-07
154.350006 76.723778 3
0 0

0101101
*
Ve
1e-07
153 76.723778 3
0 0

0101101
*
Ve
1e-07
153 76.923775 3
0 0

0101101
*
Ve
1e-07
154.350006 76.923775 3
0 0

0101101
*
Ve
1e-07
154.350006 79.251572 3
0 0

0101101
*
Ve
1e-07
153.550003 79.251572 3
0 0

0101101
*
Ve
1e-07
153.550003 77.651573 3
0 0

0101101
*
Ve
1e-07
153.350006 77.651573 3
0 0

0101101
*
Ve
1e-07
153.350006 79.451576 3
0 0

0101101
*
Ve
1e-07
154.350006 79.451576 3
0 0

0101101
*
Ve
1e-07
154.350006 80.151573 3
0 0

0101101
*
Ve
1e-07
153.350006 80.151573 3
0 0

0101101
*
Ve
1e-07
153.350006 80.351578 3
0 0

0101101
*
Ve
1e-07
154.350006 80.351578 3
0 0

0101101
*
Ve
1e-07
154.350006 81.001572 3
0 0

0101101
*
Ve
1e-07
151.800003 81.001572 3
0 0

0101101
*
Ve
1e-07
151.800003 79.451576 3
0 0

0101101
*
Ve
1e-07
152.550003 79.451576 3
0 0

0101101
*
Ve
1e-07
152.550003 80.351578 3
0 0

0101101
*
Ve
1e-07
152.75 80.351578 3
0 0

0101101
*
Ve
1e-07
152.75 79.451576 3
0 0

0101101
*
Ve
1e-07
152.75 79.251572 3
0 0

0101101
*
Ve
1e-07
151.800003 79.251572 3
0 0

0101101
*
Ve
1e-07
151.800003 77.501572 3
0 0

0101101
*
Ve
1e-07
149.649994 77.501572 3
0 0

0101101
*
Ve
1e-07
149.649994 76.901573 3
0 0

0101101
*
Ve
1e-07
149.449997 76.901573 3
0 0

0101101
*
Ve
1e-07
149.449997 77.501572 3
0 0

0101101
*
Ve
1e-07
147.899994 77.501572 3
0 0

0101101
*
Ve
1e-07
98.599998 63.145977 3
0 0

0101101
*
Ve
1e-07
90.150002 63.145977 3
0 0

0101101
*
Ve
1e-07
90.150002 60.200001 3
0 0

0101101
*
Ve
1e-07
97.300003 60.200001 3
0 0

0101101
*
Ve
1e-07
97.300003 59.849998 3
0 0

0101101
*
Ve
1e-07
90.150002 59.849998 3
0 0

0101101
*
Ve
1e-07
90.150002 50.349998 3
0 0

0101101
*
Ve
1e-07
99.650002 50.349998 3
0 0

0101101
*
Ve
1e-07
99.650002 59.849998 3
0 0

0101101
*
Ve
1e-07
98.199997 59.849998 3
0 0

0101101
*
Ve
1e-07
98.199997 60.200001 3
0 0

0101101
*
Ve
1e-07
98.599998 60.200001 3
0 0

0101101
*
Ve
1e-07
103.25 75.948776 3
0 0

0101101
*
Ve
1e-07
103.25 81.001572 3
0 0

0101101
*
Ve
1e-07
96.800003 81.001572 3
0 0

0101101
*
Ve
1e-07
96.800003 72.495979 3
0 0

0101101
*
Ve
1e-07
103.25 72.495979 3
0 0

0101101
*
Ve
1e-07
103.25 75.148773 3
0 0

0101101
*
Ve
1e-07
103.599998 75.148773 3
0 0

0101101
*
Ve
1e-07
103.599998 72.495979 3
0 0

0101101
*
Ve
1e-07
106.75 72.495979 3
0 0

0101101
*
Ve
1e-07
106.75 81.001572 3
0 0

0101101
*
Ve
1e-07
103.599998 81.001572 3
0 0

0101101
*
Ve
1e-07
103.599998 75.948776 3
0 0

0101101
*
Ve
1e-07
165 75.948776 3
0 0

0101101
*
Ve
1e-07
164.649994 75.948776 3
0 0

0101101
*
Ve
1e-07
164.649994 81.001572 3
0 0

0101101
*
Ve
1e-07
161.5 81.001572 3
0 0

0101101
*
Ve
1e-07
161.5 72.495979 3
0 0

0101101
*
Ve
1e-07
164.649994 72.495979 3
0 0

0101101
*
Ve
1e-07
164.649994 75.148773 3
0 0

0101101
*
Ve
1e-07
165 75.148773 3
0 0

0101101
*
Ve
1e-07
165 72.495979 3
0 0

0101101
*
Ve
1e-07
171.399994 72.495979 3
0 0

0101101
*
Ve
1e-07
171.399994 81.001572 3
0 0

0101101
*
Ve
1e-07
165 81.001572 3
0 0

0101101
*
Co

0100000
+1343 0 +1342 0 +1341 0 +1340 0 +1339 0 +1338 0 +1337 0 +1336 0 +1335 0 +1334 0 
+1333 0 +1332 0 +1331 0 +1330 0 +1329 0 +1328 0 +1327 0 +1326 0 +1325 0 +1324 0 
+1323 0 +1322 0 +1321 0 +1320 0 +1319 0 +1318 0 +1317 0 +1316 0 +1315 0 +1314 0 
+1313 0 +1312 0 +1311 0 +1310 0 +1309 0 +1308 0 +1307 0 +1306 0 +1305 0 +1304 0 
+1303 0 +1302 0 +1301 0 +1300 0 +1299 0 +1298 0 +1297 0 +1296 0 +1295 0 +1294 0 
+1293 0 +1292 0 +1291 0 +1290 0 +1289 0 +1288 0 +1287 0 +1286 0 +1285 0 +1284 0 
+1283 0 +1282 0 +1281 0 +1280 0 +1279 0 +1278 0 +1277 0 +1276 0 +1275 0 +1274 0 
+1273 0 +1272 0 +1271 0 +1270 0 +1269 0 +1268 0 +1267 0 +1266 0 +1265 0 +1264 0 
+1263 0 +1262 0 +1261 0 +1260 0 +1259 0 +1258 0 +1257 0 +1256 0 +1255 0 +1254 0 
+1253 0 +1252 0 +1251 0 +1250 0 +1249 0 +1248 0 +1247 0 +1246 0 +1245 0 +1244 0 
+1243 0 +1242 0 +1241 0 +1240 0 +1239 0 +1238 0 +1237 0 +1236 0 +1235 0 +1234 0 
+1233 0 +1232 0 +1231 0 +1230 0 +1229 0 +1228 0 +1227 0 +1226 0 +1225 0 +1224 0 
+1223 0 +1222 0 +1221 0 +1220 0 +1219 0 +1218 0 +1217 0 +1216 0 +1215 0 +1214 0 
+1213 0 +1212 0 +1211 0 +1210 0 +1209 0 +1208 0 +1207 0 +1206 0 +1205 0 +1204 0 
+1203 0 +1202 0 +1201 0 +1200 0 +1199 0 +1198 0 +1197 0 +1196 0 +1195 0 +1194 0 
+1193 0 +1192 0 +1191 0 +1190 0 +1189 0 +1188 0 +1187 0 +1186 0 +1185 0 +1184 0 
+1183 0 +1182 0 +1181 0 +1180 0 +1179 0 +1178 0 +1177 0 +1176 0 +1175 0 +1174 0 
+1173 0 +1172 0 +1171 0 +1170 0 +1169 0 +1168 0 +1167 0 +1166 0 +1165 0 +1164 0 
+1163 0 +1162 0 +1161 0 +1160 0 +1159 0 +1158 0 +1157 0 +1156 0 +1155 0 +1154 0 
+1153 0 +1152 0 +1151 0 +1150 0 +1149 0 +1148 0 +1147 0 +1146 0 +1145 0 +1144 0 
+1143 0 +1142 0 +1141 0 +1140 0 +1139 0 +1138 0 +1137 0 +1136 0 +1135 0 +1134 0 
+1133 0 +1132 0 +1131 0 +1130 0 +1129 0 +1128 0 +1127 0 +1126 0 +1125 0 +1124 0 
+1123 0 +1122 0 +1121 0 +1120 0 +1119 0 +1118 0 +1117 0 +1116 0 +1115 0 +1114 0 
+1113 0 +1112 0 +1111 0 +1110 0 +1109 0 +1108 0 +1107 0 +1106 0 +1105 0 +1104 0 
+1103 0 +1102 0 +1101 0 +1100 0 +1099 0 +1098 0 +1097 0 +1096 0 +1095 0 +1094 0 
+1093 0 +1092 0 +1091 0 +1090 0 +1089 0 +1088 0 +1087 0 +1086 0 +1085 0 +1084 0 
+1083 0 +1082 0 +1081 0 +1080 0 +1079 0 +1078 0 +1077 0 +1076 0 +1075 0 +1074 0 
+1073 0 +1072 0 +1071 0 +1070 0 +1069 0 +1068 0 +1067 0 +1066 0 +1065 0 +1064 0 
+1063 0 +1062 0 +1061 0 +1060 0 +1059 0 +1058 0 +1057 0 +1056 0 +1055 0 +1054 0 
+1053 0 +1052 0 +1051 0 +1050 0 +1049 0 +1048 0 +1047 0 +1046 0 +1045 0 +1044 0 
+1043 0 +1042 0 +1041 0 +1040 0 +1039 0 +1038 0 +1037 0 +1036 0 +1035 0 +1034 0 
+1033 0 +1032 0 +1031 0 +1030 0 +1029 0 +1028 0 +1027 0 +1026 0 +1025 0 +1024 0 
+1023 0 +1022 0 +1021 0 +1020 0 +1019 0 +1018 0 +1017 0 +1016 0 +1015 0 +1014 0 
+1013 0 +1012 0 +1011 0 +1010 0 +1009 0 +1008 0 +1007 0 +1006 0 +1005 0 +1004 0 
+1003 0 +1002 0 +1001 0 +1000 0 +999 0 +998 0 +997 0 +996 0 +995 0 +994 0 
+993 0 +992 0 +991 0 +990 0 +989 0 +988 0 +987 0 +986 0 +985 0 +984 0 
+983 0 +982 0 +981 0 +980 0 +979 0 +978 0 +977 0 +976 0 +975 0 +974 0 
+973 0 +972 0 +971 0 +970 0 +969 0 +968 0 +967 0 +966 0 +965 0 +964 0 
+963 0 +962 0 +961 0 +960 0 +959 0 +958 0 +957 0 +956 0 +955 0 +954 0 
+953 0 +952 0 +951 0 +950 0 +949 0 +948 0 +947 0 +946 0 +945 0 +944 0 
+943 0 +942 0 +941 0 +940 0 +939 0 +938 0 +937 0 +936 0 +935 0 +934 0 
+933 0 +932 0 +931 0 +930 0 +929 0 +928 0 +927 0 +926 0 +925 0 +924 0 
+923 0 +922 0 +921 0 +920 0 +919 0 +918 0 +917 0 +916 0 *
Ve
1e-07
156.850006 76.723778 3
0 0

0101101
*
Ve
1e-07
156.850006 75.723778 3
0 0

0101101
*
Ed
 1e-07 1 1 0
1  1 0 0 1
0

0101000
+914 0 -913 0 *
Ve
1e-07
157.449997 75.723778 3
0 0

0101101
*
Ed
 1e-07 1 1 0
1  2 0 0 0.599990999999989
0

0101000
+913 0 -911 0 *
Ve
1e-07
157.449997 72.495979 3
0 0

0101101
*
Ed
 1e-07 1 1 0
1  3 0 0 3.22779899999999
0

0101000
+911 0 -909 0 *
Ve
1e-07
161.149994 72.495979 3
0 0

0101101
*
Ed
 1e-07 1 1 0
1  4 0 0 3.699997
0

0101000
+909 0 -907 0 *
Ve
1e-07
161.149994 77.501572 3
0 0

0101101
*
Ed
 1e-07 1 1 0
1  5 0 0 5.00559299999999
0

0101000
+907 0 -905 0 *
Ve
1e-07
159.600006 77.501572 3
0 0

0101101
*
Ed
 1e-07 1 1 0
1  6 0 0 1.54998799999998
0

0101000
+905 0 -903 0 *
Ve
1e-07
159.600006 76.901573 3
0 0

0101101
*
Ed
 1e-07 1 1 0
1  7 0 0 0.599998999999997
0

0101000
+903 0 -901 0 *
Ve
1e-07
159.399994 76.901573 3
0 0

0101101
*
Ed
 1e-07 1 1 0
1  8 0 0 0.200012000000015
0

0101000
+901 0 -899 0 *
Ve
1e-07
159.399994 77.501572 3
0 0

0101101
*
Ed
 1e-07 1 1 0
1  9 0 0 0.599998999999997
0

0101000
+899 0 -897 0 *
Ve
1e-07
157.25 77.501572 3
0 0

0101101
*
Ed
 1e-07 1 1 0
1  10 0 0 2.14999399999999
0

0101000
+897 0 -895 0 *
Ve
1e-07
157.25 79.251572 3
0 0

0101101
*
Ed
 1e-07 1 1 0
1  11 0 0 1.75
0

0101000
+895 0 -893 0 *
Ve
1e-07
156.300003 79.251572 3
0 0

0101101
*
Ed
 1e-07 1 1 0
1  12 0 0 0.949996999999996
0

0101000
+893 0 -891 0 *
Ve
1e-07
156.300003 79.451576 3
0 0

0101101
*
Ed
 1e-07 1 1 0
1  13 0 0 0.200004000000007
0

0101000
+891 0 -889 0 *
Ve
1e-07
156.300003 80.351578 3
0 0

0101101
*
Ed
 1e-07 1 1 0
1  14 0 0 0.900002000000001
0

0101000
+889 0 -887 0 *
Ve
1e-07
156.5 80.351578 3
0 0

0101101
*
Ed
 1e-07 1 1 0
1  15 0 0 0.199996999999996
0

0101000
+887 0 -885 0 *
Ve
1e-07
156.5 79.451576 3
0 0

0101101
*
Ed
 1e-07 1 1 0
1  16 0 0 0.900002000000001
0

0101000
+885 0 -883 0 *
Ve
1e-07
157.25 79.451576 3
0 0

0101101
*
Ed
 1e-07 1 1 0
1  17 0 0 0.75
0

0101000
+883 0 -881 0 *
Ve
1e-07
157.25 81.001572 3
0 0

0101101
*
Ed
 1e-07 1 1 0
1  18 0 0 1.54999599999999
0

0101000
+881 0 -879 0 *
Ve
1e-07
154.699997 81.001572 3
0 0

0101101
*
Ed
 1e-07 1 1 0
1  19 0 0 2.550003
0

0101000
+879 0 -877 0 *
Ve
1e-07
154.699997 80.351578 3
0 0

0101101
*
Ed
 1e-07 1 1 0
1  20 0 0 0.649993999999992
0

0101000
+877 0 -875 0 *
Ve
1e-07
155.699997 80.351578 3
0 0

0101101
*
Ed
 1e-07 1 1 0
1  21 0 0 1
0

0101000
+875 0 -873 0 *
Ve
1e-07
155.699997 80.151573 3
0 0

0101101
*
Ed
 1e-07 1 1 0
1  22 0 0 0.200005000000004
0

0101000
+873 0 -871 0 *
Ve
1e-07
154.699997 80.151573 3
0 0

0101101
*
Ed
 1e-07 1 1 0
1  23 0 0 1
0

0101000
+871 0 -869 0 *
Ve
1e-07
154.699997 79.451576 3
0 0

0101101
*
Ed
 1e-07 1 1 0
1  24 0 0 0.699996999999996
0

0101000
+869 0 -867 0 *
Ve
1e-07
155.699997 79.451576 3
0 0

0101101
*
Ed
 1e-07 1 1 0
1  25 0 0 1
0

0101000
+867 0 -865 0 *
Ve
1e-07
155.699997 77.651573 3
0 0

0101101
*
Ed
 1e-07 1 1 0
1  26 0 0 1.800003
0

0101000
+865 0 -863 0 *
Ve
1e-07
155.5 77.651573 3
0 0

0101101
*
Ed
 1e-07 1 1 0
1  27 0 0 0.199996999999996
0

0101000
+863 0 -861 0 *
Ve
1e-07
155.5 79.251572 3
0 0

0101101
*
Ed
 1e-07 1 1 0
1  28 0 0 1.599999
0

0101000
+861 0 -859 0 *
Ve
1e-07
154.699997 79.251572 3
0 0

0101101
*
Ed
 1e-07 1 1 0
1  29 0 0 0.800003000000004
0

0101000
+859 0 -857 0 *
Ve
1e-07
154.699997 76.923775 3
0 0

0101101
*
Ed
 1e-07 1 1 0
1  30 0 0 2.32779699999999
0

0101000
+857 0 -855 0 *
Ve
1e-07
156.050003 76.923775 3
0 0

0101101
*
Ed
 1e-07 1 1 0
1  31 0 0 1.35000600000001
0

0101000
+855 0 -853 0 *
Ve
1e-07
156.050003 76.723778 3
0 0

0101101
*
Ed
 1e-07 1 1 0
1  32 0 0 0.19999700000001
0

0101000
+853 0 -851 0 *
Ve
1e-07
154.699997 76.723778 3
0 0

0101101
*
Ed
 1e-07 1 1 0
1  33 0 0 1.35000600000001
0

0101000
+851 0 -849 0 *
Ve
1e-07
154.699997 72.495979 3
0 0

0101101
*
Ed
 1e-07 1 1 0
1  34 0 0 4.22779899999999
0

0101000
+849 0 -847 0 *
Ve
1e-07
157.25 72.495979 3
0 0

0101101
*
Ed
 1e-07 1 1 0
1  35 0 0 2.550003
0

0101000
+847 0 -845 0 *
Ve
1e-07
157.25 74.323776 3
0 0

0101101
*
Ed
 1e-07 1 1 0
1  36 0 0 1.82779699999999
0

0101000
+845 0 -843 0 *
Ve
1e-07
156.649994 74.323776 3
0 0

0101101
*
Ed
 1e-07 1 1 0
1  37 0 0 0.600006000000008
0

0101000
+843 0 -841 0 *
Ve
1e-07
156.649994 74.523773 3
0 0

0101101
*
Ed
 1e-07 1 1 0
1  38 0 0 0.19999700000001
0

0101000
+841 0 -839 0 *
Ve
1e-07
157.25 74.523773 3
0 0

0101101
*
Ed
 1e-07 1 1 0
1  39 0 0 0.600006000000008
0

0101000
+839 0 -837 0 *
Ve
1e-07
157.25 75.523773 3
0 0

0101101
*
Ed
 1e-07 1 1 0
1  40 0 0 1
0

0101000
+837 0 -835 0 *
Ve
1e-07
156.649994 75.523773 3
0 0

0101101
*
Ed
 1e-07 1 1 0
1  41 0 0 0.600006000000008
0

0101000
+835 0 -833 0 *
Ve
1e-07
156.649994 76.923775 3
0 0

0101101
*
Ed
 1e-07 1 1 0
1  42 0 0 1.400002
0

0101000
+833 0 -831 0 *
Ve
1e-07
157.449997 76.923775 3
0 0

0101101
*
Ed
 1e-07 1 1 0
1  43 0 0 0.800003000000004
0

0101000
+831 0 -829 0 *
Ve
1e-07
157.449997 76.723778 3
0 0

0101101
*
Ed
 1e-07 1 1 0
1  44 0 0 0.19999700000001
0

0101000
+829 0 -827 0 *
Ed
 1e-07 1 1 0
1  45 0 0 0.599990999999989
0

0101000
+827 0 -914 0 *
Wi

0101100
+912 0 +910 0 +908 0 +906 0 +904 0 +902 0 +900 0 +898 0 +896 0 +894 0 
+892 0 +890 0 +888 0 +886 0 +884 0 +882 0 +880 0 +878 0 +876 0 +874 0 
+872 0 +870 0 +868 0 +866 0 +864 0 +862 0 +860 0 +858 0 +856 0 +854 0 
+852 0 +850 0 +848 0 +846 0 +844 0 +842 0 +840 0 +838 0 +836 0 +834 0 
+832 0 +830 0 +828 0 +826 0 +825 0 *
Fa
0  1e-07 1 0

0111000
+824 0 *
Co

0100000
+823 0 *
Ve
1e-07
157.449997 81.001572 3
0 0

0101101
*
Ve
1e-07
157.449997 77.701576 3
0 0

0101101
*
Ed
 1e-07 1 1 0
1  46 0 0 3.29999599999999
0

0101000
+821 0 -820 0 *
Ve
1e-07
161.149994 77.701576 3
0 0

0101101
*
Ed
 1e-07 1 1 0
1  47 0 0 3.699997
0

0101000
+820 0 -818 0 *
Ve
1e-07
161.149994 81.001572 3
0 0

0101101
*
Ed
 1e-07 1 1 0
1  48 0 0 3.29999599999999
0

0101000
+818 0 -816 0 *
Ed
 1e-07 1 1 0
1  49 0 0 3.699997
0

0101000
+816 0 -821 0 *
Wi

0101100
+819 0 +817 0 +815 0 +814 0 *
Fa
0  1e-07 2 0

0111000
+813 0 *
Co

0100000
+812 0 *
Ve
1e-07
143.25 76.723778 3
0 0

0101101
*
Ve
1e-07
143.25 75.723778 3
0 0

0101101
*
Ed
 1e-07 1 1 0
1  50 0 0 1
0

0101000
+810 0 -809 0 *
Ve
1e-07
143.850006 75.723778 3
0 0

0101101
*
Ed
 1e-07 1 1 0
1  51 0 0 0.600006000000008
0

0101000
+809 0 -807 0 *
Ve
1e-07
143.850006 72.495979 3
0 0

0101101
*
Ed
 1e-07 1 1 0
1  52 0 0 3.22779899999999
0

0101000
+807 0 -805 0 *
Ve
1e-07
147.550003 72.495979 3
0 0

0101101
*
Ed
 1e-07 1 1 0
1  53 0 0 3.699997
0

0101000
+805 0 -803 0 *
Ve
1e-07
147.550003 77.501572 3
0 0

0101101
*
Ed
 1e-07 1 1 0
1  54 0 0 5.00559299999999
0

0101000
+803 0 -801 0 *
Ve
1e-07
146 77.501572 3
0 0

0101101
*
Ed
 1e-07 1 1 0
1  55 0 0 1.550003
0

0101000
+801 0 -799 0 *
Ve
1e-07
146 76.901573 3
0 0

0101101
*
Ed
 1e-07 1 1 0
1  56 0 0 0.599998999999997
0

0101000
+799 0 -797 0 *
Ve
1e-07
145.800003 76.901573 3
0 0

0101101
*
Ed
 1e-07 1 1 0
1  57 0 0 0.199996999999996
0

0101000
+797 0 -795 0 *
Ve
1e-07
145.800003 77.501572 3
0 0

0101101
*
Ed
 1e-07 1 1 0
1  58 0 0 0.599998999999997
0

0101000
+795 0 -793 0 *
Ve
1e-07
143.649994 77.501572 3
0 0

0101101
*
Ed
 1e-07 1 1 0
1  59 0 0 2.15000900000001
0

0101000
+793 0 -791 0 *
Ve
1e-07
143.649994 79.251572 3
0 0

0101101
*
Ed
 1e-07 1 1 0
1  60 0 0 1.75
0

0101000
+791 0 -789 0 *
Ve
1e-07
142.699997 79.251572 3
0 0

0101101
*
Ed
 1e-07 1 1 0
1  61 0 0 0.949996999999996
0

0101000
+789 0 -787 0 *
Ve
1e-07
142.699997 79.451576 3
0 0

0101101
*
Ed
 1e-07 1 1 0
1  62 0 0 0.200004000000007
0

0101000
+787 0 -785 0 *
Ve
1e-07
142.699997 80.351578 3
0 0

0101101
*
Ed
 1e-07 1 1 0
1  63 0 0 0.900002000000001
0

0101000
+785 0 -783 0 *
Ve
1e-07
142.899994 80.351578 3
0 0

0101101
*
Ed
 1e-07 1 1 0
1  64 0 0 0.199996999999996
0

0101000
+783 0 -781 0 *
Ve
1e-07
142.899994 79.451576 3
0 0

0101101
*
Ed
 1e-07 1 1 0
1  65 0 0 0.900002000000001
0

0101000
+781 0 -779 0 *
Ve
1e-07
143.649994 79.451576 3
0 0

0101101
*
Ed
 1e-07 1 1 0
1  66 0 0 0.75
0

0101000
+779 0 -777 0 *
Ve
1e-07
143.649994 81.001572 3
0 0

0101101
*
Ed
 1e-07 1 1 0
1  67 0 0 1.54999599999999
0

0101000
+777 0 -775 0 *
Ve
1e-07
141.100006 81.001572 3
0 0

0101101
*
Ed
 1e-07 1 1 0
1  68 0 0 2.54998799999998
0

0101000
+775 0 -773 0 *
Ve
1e-07
141.100006 80.351578 3
0 0

0101101
*
Ed
 1e-07 1 1 0
1  69 0 0 0.649993999999992
0

0101000
+773 0 -771 0 *
Ve
1e-07
142.100006 80.351578 3
0 0

0101101
*
Ed
 1e-07 1 1 0
1  70 0 0 1
0

0101000
+771 0 -769 0 *
Ve
1e-07
142.100006 80.151573 3
0 0

0101101
*
Ed
 1e-07 1 1 0
1  71 0 0 0.200005000000004
0

0101000
+769 0 -767 0 *
Ve
1e-07
141.100006 80.151573 3
0 0

0101101
*
Ed
 1e-07 1 1 0
1  72 0 0 1
0

0101000
+767 0 -765 0 *
Ve
1e-07
141.100006 79.451576 3
0 0

0101101
*
Ed
 1e-07 1 1 0
1  73 0 0 0.699996999999996
0

0101000
+765 0 -763 0 *
Ve
1e-07
142.100006 79.451576 3
0 0

0101101
*
Ed
 1e-07 1 1 0
1  74 0 0 1
0

0101000
+763 0 -761 0 *
Ve
1e-07
142.100006 77.651573 3
0 0

0101101
*
Ed
 1e-07 1 1 0
1  75 0 0 1.800003
0

0101000
+761 0 -759 0 *
Ve
1e-07
141.899994 77.651573 3
0 0

0101101
*
Ed
 1e-07 1 1 0
1  76 0 0 0.200012000000015
0

0101000
+759 0 -757 0 *
Ve
1e-07
141.899994 79.251572 3
0 0

0101101
*
Ed
 1e-07 1 1 0
1  77 0 0 1.599999
0

0101000
+757 0 -755 0 *
Ve
1e-07
141.100006 79.251572 3
0 0

0101101
*
Ed
 1e-07 1 1 0
1  78 0 0 0.799987999999985
0

0101000
+755 0 -753 0 *
Ve
1e-07
141.100006 76.923775 3
0 0

0101101
*
Ed
 1e-07 1 1 0
1  79 0 0 2.32779699999999
0

0101000
+753 0 -751 0 *
Ve
1e-07
142.449997 76.923775 3
0 0

0101101
*
Ed
 1e-07 1 1 0
1  80 0 0 1.34999099999999
0

0101000
+751 0 -749 0 *
Ve
1e-07
142.449997 76.723778 3
0 0

0101101
*
Ed
 1e-07 1 1 0
1  81 0 0 0.19999700000001
0

0101000
+749 0 -747 0 *
Ve
1e-07
141.100006 76.723778 3
0 0

0101101
*
Ed
 1e-07 1 1 0
1  82 0 0 1.34999099999999
0

0101000
+747 0 -745 0 *
Ve
1e-07
141.100006 72.495979 3
0 0

0101101
*
Ed
 1e-07 1 1 0
1  83 0 0 4.22779899999999
0

0101000
+745 0 -743 0 *
Ve
1e-07
143.649994 72.495979 3
0 0

0101101
*
Ed
 1e-07 1 1 0
1  84 0 0 2.54998799999998
0

0101000
+743 0 -741 0 *
Ve
1e-07
143.649994 74.323776 3
0 0

0101101
*
Ed
 1e-07 1 1 0
1  85 0 0 1.82779699999999
0

0101000
+741 0 -739 0 *
Ve
1e-07
143.050003 74.323776 3
0 0

0101101
*
Ed
 1e-07 1 1 0
1  86 0 0 0.599990999999989
0

0101000
+739 0 -737 0 *
Ve
1e-07
143.050003 74.523773 3
0 0

0101101
*
Ed
 1e-07 1 1 0
1  87 0 0 0.19999700000001
0

0101000
+737 0 -735 0 *
Ve
1e-07
143.649994 74.523773 3
0 0

0101101
*
Ed
 1e-07 1 1 0
1  88 0 0 0.599990999999989
0

0101000
+735 0 -733 0 *
Ve
1e-07
143.649994 75.523773 3
0 0

0101101
*
Ed
 1e-07 1 1 0
1  89 0 0 1
0

0101000
+733 0 -731 0 *
Ve
1e-07
143.050003 75.523773 3
0 0

0101101
*
Ed
 1e-07 1 1 0
1  90 0 0 0.599990999999989
0

0101000
+731 0 -729 0 *
Ve
1e-07
143.050003 76.923775 3
0 0

0101101
*
Ed
 1e-07 1 1 0
1  91 0 0 1.400002
0

0101000
+729 0 -727 0 *
Ve
1e-07
143.850006 76.923775 3
0 0

0101101
*
Ed
 1e-07 1 1 0
1  92 0 0 0.800003000000004
0

0101000
+727 0 -725 0 *
Ve
1e-07
143.850006 76.723778 3
0 0

0101101
*
Ed
 1e-07 1 1 0
1  93 0 0 0.19999700000001
0

0101000
+725 0 -723 0 *
Ed
 1e-07 1 1 0
1  94 0 0 0.600006000000008
0

0101000
+723 0 -810 0 *
Wi

0101100
+808 0 +806 0 +804 0 +802 0 +800 0 +798 0 +796 0 +794 0 +792 0 +790 0 
+788 0 +786 0 +784 0 +782 0 +780 0 +778 0 +776 0 +774 0 +772 0 +770 0 
+768 0 +766 0 +764 0 +762 0 +760 0 +758 0 +756 0 +754 0 +752 0 +750 0 
+748 0 +746 0 +744 0 +742 0 +740 0 +738 0 +736 0 +734 0 +732 0 +730 0 
+728 0 +726 0 +724 0 +722 0 +721 0 *
Fa
0  1e-07 3 0

0111000
+720 0 *
Co

0100000
+719 0 *
Ve
1e-07
143.850006 81.001572 3
0 0

0101101
*
Ve
1e-07
143.850006 77.701576 3
0 0

0101101
*
Ed
 1e-07 1 1 0
1  95 0 0 3.29999599999999
0

0101000
+717 0 -716 0 *
Ve
1e-07
147.550003 77.701576 3
0 0

0101101
*
Ed
 1e-07 1 1 0
1  96 0 0 3.699997
0

0101000
+716 0 -714 0 *
Ve
1e-07
147.550003 81.001572 3
0 0

0101101
*
Ed
 1e-07 1 1 0
1  97 0 0 3.29999599999999
0

0101000
+714 0 -712 0 *
Ed
 1e-07 1 1 0
1  98 0 0 3.699997
0

0101000
+712 0 -717 0 *
Wi

0101100
+715 0 +713 0 +711 0 +710 0 *
Fa
0  1e-07 4 0

0111000
+709 0 *
Co

0100000
+708 0 *
Ve
1e-07
129.649994 76.723778 3
0 0

0101101
*
Ve
1e-07
129.649994 75.723778 3
0 0

0101101
*
Ed
 1e-07 1 1 0
1  99 0 0 1
0

0101000
+706 0 -705 0 *
Ve
1e-07
130.25 75.723778 3
0 0

0101101
*
Ed
 1e-07 1 1 0
1  100 0 0 0.600006000000008
0

0101000
+705 0 -703 0 *
Ve
1e-07
130.25 72.495979 3
0 0

0101101
*
Ed
 1e-07 1 1 0
1  101 0 0 3.22779899999999
0

0101000
+703 0 -701 0 *
Ve
1e-07
133.949997 72.495979 3
0 0

0101101
*
Ed
 1e-07 1 1 0
1  102 0 0 3.699997
0

0101000
+701 0 -699 0 *
Ve
1e-07
133.949997 77.501572 3
0 0

0101101
*
Ed
 1e-07 1 1 0
1  103 0 0 5.00559299999999
0

0101000
+699 0 -697 0 *
Ve
1e-07
132.399994 77.501572 3
0 0

0101101
*
Ed
 1e-07 1 1 0
1  104 0 0 1.550003
0

0101000
+697 0 -695 0 *
Ve
1e-07
132.399994 76.901573 3
0 0

0101101
*
Ed
 1e-07 1 1 0
1  105 0 0 0.599998999999997
0

0101000
+695 0 -693 0 *
Ve
1e-07
132.199997 76.901573 3
0 0

0101101
*
Ed
 1e-07 1 1 0
1  106 0 0 0.199996999999996
0

0101000
+693 0 -691 0 *
Ve
1e-07
132.199997 77.501572 3
0 0

0101101
*
Ed
 1e-07 1 1 0
1  107 0 0 0.599998999999997
0

0101000
+691 0 -689 0 *
Ve
1e-07
130.050003 77.501572 3
0 0

0101101
*
Ed
 1e-07 1 1 0
1  108 0 0 2.14999399999999
0

0101000
+689 0 -687 0 *
Ve
1e-07
130.050003 79.251572 3
0 0

0101101
*
Ed
 1e-07 1 1 0
1  109 0 0 1.75
0

0101000
+687 0 -685 0 *
Ve
1e-07
129.100006 79.251572 3
0 0

0101101
*
Ed
 1e-07 1 1 0
1  110 0 0 0.949996999999996
0

0101000
+685 0 -683 0 *
Ve
1e-07
129.100006 79.451576 3
0 0

0101101
*
Ed
 1e-07 1 1 0
1  111 0 0 0.200004000000007
0

0101000
+683 0 -681 0 *
Ve
1e-07
129.100006 80.351578 3
0 0

0101101
*
Ed
 1e-07 1 1 0
1  112 0 0 0.900002000000001
0

0101000
+681 0 -679 0 *
Ve
1e-07
129.300003 80.351578 3
0 0

0101101
*
Ed
 1e-07 1 1 0
1  113 0 0 0.199996999999996
0

0101000
+679 0 -677 0 *
Ve
1e-07
129.300003 79.451576 3
0 0

0101101
*
Ed
 1e-07 1 1 0
1  114 0 0 0.900002000000001
0

0101000
+677 0 -675 0 *
Ve
1e-07
130.050003 79.451576 3
0 0

0101101
*
Ed
 1e-07 1 1 0
1  115 0 0 0.75
0

0101000
+675 0 -673 0 *
Ve
1e-07
130.050003 81.001572 3
0 0

0101101
*
Ed
 1e-07 1 1 0
1  116 0 0 1.54999599999999
0

0101000
+673 0 -671 0 *
Ve
1e-07
127.5 81.001572 3
0 0

0101101
*
Ed
 1e-07 1 1 0
1  117 0 0 2.550003
0

0101000
+671 0 -669 0 *
Ve
1e-07
127.5 80.351578 3
0 0

0101101
*
Ed
 1e-07 1 1 0
1  118 0 0 0.649993999999992
0

0101000
+669 0 -667 0 *
Ve
1e-07
128.5 80.351578 3
0 0

0101101
*
Ed
 1e-07 1 1 0
1  119 0 0 1
0

0101000
+667 0 -665 0 *
Ve
1e-07
128.5 80.151573 3
0 0

0101101
*
Ed
 1e-07 1 1 0
1  120 0 0 0.200005000000004
0

0101000
+665 0 -663 0 *
Ve
1e-07
127.5 80.151573 3
0 0

0101101
*
Ed
 1e-07 1 1 0
1  121 0 0 1
0

0101000
+663 0 -661 0 *
Ve
1e-07
127.5 79.451576 3
0 0

0101101
*
Ed
 1e-07 1 1 0
1  122 0 0 0.699996999999996
0

0101000
+661 0 -659 0 *
Ve
1e-07
128.5 79.451576 3
0 0

0101101
*
Ed
 1e-07 1 1 0
1  123 0 0 1
0

0101000
+659 0 -657 0 *
Ve
1e-07
128.5 77.651573 3
0 0

0101101
*
Ed
 1e-07 1 1 0
1  124 0 0 1.800003
0

0101000
+657 0 -655 0 *
Ve
1e-07
128.300003 77.651573 3
0 0

0101101
*
Ed
 1e-07 1 1 0
1  125 0 0 0.199996999999996
0

0101000
+655 0 -653 0 *
Ve
1e-07
128.300003 79.251572 3
0 0

0101101
*
Ed
 1e-07 1 1 0
1  126 0 0 1.599999
0

0101000
+653 0 -651 0 *
Ve
1e-07
127.5 79.251572 3
0 0

0101101
*
Ed
 1e-07 1 1 0
1  127 0 0 0.800003000000004
0

0101000
+651 0 -649 0 *
Ve
1e-07
127.5 76.923775 3
0 0

0101101
*
Ed
 1e-07 1 1 0
1  128 0 0 2.32779699999999
0

0101000
+649 0 -647 0 *
Ve
1e-07
128.850006 76.923775 3
0 0

0101101
*
Ed
 1e-07 1 1 0
1  129 0 0 1.35000600000001
0

0101000
+647 0 -645 0 *
Ve
1e-07
128.850006 76.723778 3
0 0

0101101
*
Ed
 1e-07 1 1 0
1  130 0 0 0.19999700000001
0

0101000
+645 0 -643 0 *
Ve
1e-07
127.5 76.723778 3
0 0

0101101
*
Ed
 1e-07 1 1 0
1  131 0 0 1.35000600000001
0

0101000
+643 0 -641 0 *
Ve
1e-07
127.5 72.495979 3
0 0

0101101
*
Ed
 1e-07 1 1 0
1  132 0 0 4.22779899999999
0

0101000
+641 0 -639 0 *
Ve
1e-07
130.050003 72.495979 3
0 0

0101101
*
Ed
 1e-07 1 1 0
1  133 0 0 2.550003
0

0101000
+639 0 -637 0 *
Ve
1e-07
130.050003 74.323776 3
0 0

0101101
*
Ed
 1e-07 1 1 0
1  134 0 0 1.82779699999999
0

0101000
+637 0 -635 0 *
Ve
1e-07
129.449997 74.323776 3
0 0

0101101
*
Ed
 1e-07 1 1 0
1  135 0 0 0.600006000000008
0

0101000
+635 0 -633 0 *
Ve
1e-07
129.449997 74.523773 3
0 0

0101101
*
Ed
 1e-07 1 1 0
1  136 0 0 0.19999700000001
0

0101000
+633 0 -631 0 *
Ve
1e-07
130.050003 74.523773 3
0 0

0101101
*
Ed
 1e-07 1 1 0
1  137 0 0 0.600006000000008
0

0101000
+631 0 -629 0 *
Ve
1e-07
130.050003 75.523773 3
0 0

0101101
*
Ed
 1e-07 1 1 0
1  138 0 0 1
0

0101000
+629 0 -627 0 *
Ve
1e-07
129.449997 75.523773 3
0 0

0101101
*
Ed
 1e-07 1 1 0
1  139 0 0 0.600006000000008
0

0101000
+627 0 -625 0 *
Ve
1e-07
129.449997 76.923775 3
0 0

0101101
*
Ed
 1e-07 1 1 0
1  140 0 0 1.400002
0

0101000
+625 0 -623 0 *
Ve
1e-07
130.25 76.923775 3
0 0

0101101
*
Ed
 1e-07 1 1 0
1  141 0 0 0.800003000000004
0

0101000
+623 0 -621 0 *
Ve
1e-07
130.25 76.723778 3
0 0

0101101
*
Ed
 1e-07 1 1 0
1  142 0 0 0.19999700000001
0

0101000
+621 0 -619 0 *
Ed
 1e-07 1 1 0
1  143 0 0 0.600006000000008
0

0101000
+619 0 -706 0 *
Wi

0101100
+704 0 +702 0 +700 0 +698 0 +696 0 +694 0 +692 0 +690 0 +688 0 +686 0 
+684 0 +682 0 +680 0 +678 0 +676 0 +674 0 +672 0 +670 0 +668 0 +666 0 
+664 0 +662 0 +660 0 +658 0 +656 0 +654 0 +652 0 +650 0 +648 0 +646 0 
+644 0 +642 0 +640 0 +638 0 +636 0 +634 0 +632 0 +630 0 +628 0 +626 0 
+624 0 +622 0 +620 0 +618 0 +617 0 *
Fa
0  1e-07 5 0

0111000
+616 0 *
Co

0100000
+615 0 *
Ve
1e-07
130.25 81.001572 3
0 0

0101101
*
Ve
1e-07
130.25 77.701576 3
0 0

0101101
*
Ed
 1e-07 1 1 0
1  144 0 0 3.29999599999999
0

0101000
+613 0 -612 0 *
Ve
1e-07
133.949997 77.701576 3
0 0

0101101
*
Ed
 1e-07 1 1 0
1  145 0 0 3.699997
0

0101000
+612 0 -610 0 *
Ve
1e-07
133.949997 81.001572 3
0 0

0101101
*
Ed
 1e-07 1 1 0
1  146 0 0 3.29999599999999
0

0101000
+610 0 -608 0 *
Ed
 1e-07 1 1 0
1  147 0 0 3.699997
0

0101000
+608 0 -613 0 *
Wi

0101100
+611 0 +609 0 +607 0 +606 0 *
Fa
0  1e-07 6 0

0111000
+605 0 *
Co

0100000
+604 0 *
Ve
1e-07
116.050003 76.723778 3
0 0

0101101
*
Ve
1e-07
116.050003 75.723778 3
0 0

0101101
*
Ed
 1e-07 1 1 0
1  148 0 0 1
0

0101000
+602 0 -601 0 *
Ve
1e-07
116.650002 75.723778 3
0 0

0101101
*
Ed
 1e-07 1 1 0
1  149 0 0 0.599998999999997
0

0101000
+601 0 -599 0 *
Ve
1e-07
116.650002 72.495979 3
0 0

0101101
*
Ed
 1e-07 1 1 0
1  150 0 0 3.22779899999999
0

0101000
+599 0 -597 0 *
Ve
1e-07
120.349998 72.495979 3
0 0

0101101
*
Ed
 1e-07 1 1 0
1  151 0 0 3.699996
0

0101000
+597 0 -595 0 *
Ve
1e-07
120.349998 77.501572 3
0 0

0101101
*
Ed
 1e-07 1 1 0
1  152 0 0 5.00559299999999
0

0101000
+595 0 -593 0 *
Ve
1e-07
118.800003 77.501572 3
0 0

0101101
*
Ed
 1e-07 1 1 0
1  153 0 0 1.549995
0

0101000
+593 0 -591 0 *
Ve
1e-07
118.800003 76.901573 3
0 0

0101101
*
Ed
 1e-07 1 1 0
1  154 0 0 0.599998999999997
0

0101000
+591 0 -589 0 *
Ve
1e-07
118.599998 76.901573 3
0 0

0101101
*
Ed
 1e-07 1 1 0
1  155 0 0 0.200005000000004
0

0101000
+589 0 -587 0 *
Ve
1e-07
118.599998 77.501572 3
0 0

0101101
*
Ed
 1e-07 1 1 0
1  156 0 0 0.599998999999997
0

0101000
+587 0 -585 0 *
Ve
1e-07
116.449997 77.501572 3
0 0

0101101
*
Ed
 1e-07 1 1 0
1  157 0 0 2.150001
0

0101000
+585 0 -583 0 *
Ve
1e-07
116.449997 79.251572 3
0 0

0101101
*
Ed
 1e-07 1 1 0
1  158 0 0 1.75
0

0101000
+583 0 -581 0 *
Ve
1e-07
115.5 79.251572 3
0 0

0101101
*
Ed
 1e-07 1 1 0
1  159 0 0 0.949996999999996
0

0101000
+581 0 -579 0 *
Ve
1e-07
115.5 79.451576 3
0 0

0101101
*
Ed
 1e-07 1 1 0
1  160 0 0 0.200004000000007
0

0101000
+579 0 -577 0 *
Ve
1e-07
115.5 80.351578 3
0 0

0101101
*
Ed
 1e-07 1 1 0
1  161 0 0 0.900002000000001
0

0101000
+577 0 -575 0 *
Ve
1e-07
115.699997 80.351578 3
0 0

0101101
*
Ed
 1e-07 1 1 0
1  162 0 0 0.199996999999996
0

0101000
+575 0 -573 0 *
Ve
1e-07
115.699997 79.451576 3
0 0

0101101
*
Ed
 1e-07 1 1 0
1  163 0 0 0.900002000000001
0

0101000
+573 0 -571 0 *
Ve
1e-07
116.449997 79.451576 3
0 0

0101101
*
Ed
 1e-07 1 1 0
1  164 0 0 0.75
0

0101000
+571 0 -569 0 *
Ve
1e-07
116.449997 81.001572 3
0 0

0101101
*
Ed
 1e-07 1 1 0
1  165 0 0 1.54999599999999
0

0101000
+569 0 -567 0 *
Ve
1e-07
113.900002 81.001572 3
0 0

0101101
*
Ed
 1e-07 1 1 0
1  166 0 0 2.549995
0

0101000
+567 0 -565 0 *
Ve
1e-07
113.900002 80.351578 3
0 0

0101101
*
Ed
 1e-07 1 1 0
1  167 0 0 0.649993999999992
0

0101000
+565 0 -563 0 *
Ve
1e-07
114.900002 80.351578 3
0 0

0101101
*
Ed
 1e-07 1 1 0
1  168 0 0 1
0

0101000
+563 0 -561 0 *
Ve
1e-07
114.900002 80.151573 3
0 0

0101101
*
Ed
 1e-07 1 1 0
1  169 0 0 0.200005000000004
0

0101000
+561 0 -559 0 *
Ve
1e-07
113.900002 80.151573 3
0 0

0101101
*
Ed
 1e-07 1 1 0
1  170 0 0 1
0

0101000
+559 0 -557 0 *
Ve
1e-07
113.900002 79.451576 3
0 0

0101101
*
Ed
 1e-07 1 1 0
1  171 0 0 0.699996999999996
0

0101000
+557 0 -555 0 *
Ve
1e-07
114.900002 79.451576 3
0 0

0101101
*
Ed
 1e-07 1 1 0
1  172 0 0 1
0

0101000
+555 0 -553 0 *
Ve
1e-07
114.900002 77.651573 3
0 0

0101101
*
Ed
 1e-07 1 1 0
1  173 0 0 1.800003
0

0101000
+553 0 -551 0 *
Ve
1e-07
114.699997 77.651573 3
0 0

0101101
*
Ed
 1e-07 1 1 0
1  174 0 0 0.200005000000004
0

0101000
+551 0 -549 0 *
Ve
1e-07
114.699997 79.251572 3
0 0

0101101
*
Ed
 1e-07 1 1 0
1  175 0 0 1.599999
0

0101000
+549 0 -547 0 *
Ve
1e-07
113.900002 79.251572 3
0 0

0101101
*
Ed
 1e-07 1 1 0
1  176 0 0 0.799994999999996
0

0101000
+547 0 -545 0 *
Ve
1e-07
113.900002 76.923775 3
0 0

0101101
*
Ed
 1e-07 1 1 0
1  177 0 0 2.32779699999999
0

0101000
+545 0 -543 0 *
Ve
1e-07
115.25 76.923775 3
0 0

0101101
*
Ed
 1e-07 1 1 0
1  178 0 0 1.349998
0

0101000
+543 0 -541 0 *
Ve
1e-07
115.25 76.723778 3
0 0

0101101
*
Ed
 1e-07 1 1 0
1  179 0 0 0.19999700000001
0

0101000
+541 0 -539 0 *
Ve
1e-07
113.900002 76.723778 3
0 0

0101101
*
Ed
 1e-07 1 1 0
1  180 0 0 1.349998
0

0101000
+539 0 -537 0 *
Ve
1e-07
113.900002 72.495979 3
0 0

0101101
*
Ed
 1e-07 1 1 0
1  181 0 0 4.22779899999999
0

0101000
+537 0 -535 0 *
Ve
1e-07
116.449997 72.495979 3
0 0

0101101
*
Ed
 1e-07 1 1 0
1  182 0 0 2.549995
0

0101000
+535 0 -533 0 *
Ve
1e-07
116.449997 74.323776 3
0 0

0101101
*
Ed
 1e-07 1 1 0
1  183 0 0 1.82779699999999
0

0101000
+533 0 -531 0 *
Ve
1e-07
115.849998 74.323776 3
0 0

0101101
*
Ed
 1e-07 1 1 0
1  184 0 0 0.599998999999997
0

0101000
+531 0 -529 0 *
Ve
1e-07
115.849998 74.523773 3
0 0

0101101
*
Ed
 1e-07 1 1 0
1  185 0 0 0.19999700000001
0

0101000
+529 0 -527 0 *
Ve
1e-07
116.449997 74.523773 3
0 0

0101101
*
Ed
 1e-07 1 1 0
1  186 0 0 0.599998999999997
0

0101000
+527 0 -525 0 *
Ve
1e-07
116.449997 75.523773 3
0 0

0101101
*
Ed
 1e-07 1 1 0
1  187 0 0 1
0

0101000
+525 0 -523 0 *
Ve
1e-07
115.849998 75.523773 3
0 0

0101101
*
Ed
 1e-07 1 1 0
1  188 0 0 0.599998999999997
0

0101000
+523 0 -521 0 *
Ve
1e-07
115.849998 76.923775 3
0 0

0101101
*
Ed
 1e-07 1 1 0
1  189 0 0 1.400002
0

0101000
+521 0 -519 0 *
Ve
1e-07
116.650002 76.923775 3
0 0

0101101
*
Ed
 1e-07 1 1 0
1  190 0 0 0.800004000000001
0

0101000
+519 0 -517 0 *
Ve
1e-07
116.650002 76.723778 3
0 0

0101101
*
Ed
 1e-07 1 1 0
1  191 0 0 0.19999700000001
0

0101000
+517 0 -515 0 *
Ed
 1e-07 1 1 0
1  192 0 0 0.599998999999997
0

0101000
+515 0 -602 0 *
Wi

0101100
+600 0 +598 0 +596 0 +594 0 +592 0 +590 0 +588 0 +586 0 +584 0 +582 0 
+580 0 +578 0 +576 0 +574 0 +572 0 +570 0 +568 0 +566 0 +564 0 +562 0 
+560 0 +558 0 +556 0 +554 0 +552 0 +550 0 +548 0 +546 0 +544 0 +542 0 
+540 0 +538 0 +536 0 +534 0 +532 0 +530 0 +528 0 +526 0 +524 0 +522 0 
+520 0 +518 0 +516 0 +514 0 +513 0 *
Fa
0  1e-07 7 0

0111000
+512 0 *
Co

0100000
+511 0 *
Ve
1e-07
116.650002 81.001572 3
0 0

0101101
*
Ve
1e-07
116.650002 77.701576 3
0 0

0101101
*
Ed
 1e-07 1 1 0
1  193 0 0 3.29999599999999
0

0101000
+509 0 -508 0 *
Ve
1e-07
120.349998 77.701576 3
0 0

0101101
*
Ed
 1e-07 1 1 0
1  194 0 0 3.699996
0

0101000
+508 0 -506 0 *
Ve
1e-07
120.349998 81.001572 3
0 0

0101101
*
Ed
 1e-07 1 1 0
1  195 0 0 3.29999599999999
0

0101000
+506 0 -504 0 *
Ed
 1e-07 1 1 0
1  196 0 0 3.699996
0

0101000
+504 0 -509 0 *
Wi

0101100
+507 0 +505 0 +503 0 +502 0 *
Fa
0  1e-07 8 0

0111000
+501 0 *
Co

0100000
+500 0 *
Ve
1e-07
110.800003 81.001572 3
0 0

0101101
*
Ve
1e-07
107.099998 81.001572 3
0 0

0101101
*
Ed
 1e-07 1 1 0
1  197 0 0 3.700005
0

0101000
+498 0 -497 0 *
Ve
1e-07
107.099998 77.701576 3
0 0

0101101
*
Ed
 1e-07 1 1 0
1  198 0 0 3.29999599999999
0

0101000
+497 0 -495 0 *
Ve
1e-07
110.800003 77.701576 3
0 0

0101101
*
Ed
 1e-07 1 1 0
1  199 0 0 3.700005
0

0101000
+495 0 -493 0 *
Ed
 1e-07 1 1 0
1  200 0 0 3.29999599999999
0

0101000
+493 0 -498 0 *
Wi

0101100
+496 0 +494 0 +492 0 +491 0 *
Fa
0  1e-07 9 0

0111000
+490 0 *
Co

0100000
+489 0 *
Ve
1e-07
111.400002 76.723778 3
0 0

0101101
*
Ve
1e-07
110.800003 76.723778 3
0 0

0101101
*
Ed
 1e-07 1 1 0
1  201 0 0 0.599998999999997
0

0101000
+487 0 -486 0 *
Ve
1e-07
110.800003 76.923775 3
0 0

0101101
*
Ed
 1e-07 1 1 0
1  202 0 0 0.19999700000001
0

0101000
+486 0 -484 0 *
Ve
1e-07
111.599998 76.923775 3
0 0

0101101
*
Ed
 1e-07 1 1 0
1  203 0 0 0.799994999999996
0

0101000
+484 0 -482 0 *
Ve
1e-07
111.599998 75.523773 3
0 0

0101101
*
Ed
 1e-07 1 1 0
1  204 0 0 1.400002
0

0101000
+482 0 -480 0 *
Ve
1e-07
111 75.523773 3
0 0

0101101
*
Ed
 1e-07 1 1 0
1  205 0 0 0.599997999999999
0

0101000
+480 0 -478 0 *
Ve
1e-07
111 74.523773 3
0 0

0101101
*
Ed
 1e-07 1 1 0
1  206 0 0 1
0

0101000
+478 0 -476 0 *
Ve
1e-07
111.599998 74.523773 3
0 0

0101101
*
Ed
 1e-07 1 1 0
1  207 0 0 0.599997999999999
0

0101000
+476 0 -474 0 *
Ve
1e-07
111.599998 74.323776 3
0 0

0101101
*
Ed
 1e-07 1 1 0
1  208 0 0 0.19999700000001
0

0101000
+474 0 -472 0 *
Ve
1e-07
111 74.323776 3
0 0

0101101
*
Ed
 1e-07 1 1 0
1  209 0 0 0.599997999999999
0

0101000
+472 0 -470 0 *
Ve
1e-07
111 72.495979 3
0 0

0101101
*
Ed
 1e-07 1 1 0
1  210 0 0 1.82779699999999
0

0101000
+470 0 -468 0 *
Ve
1e-07
113.550003 72.495979 3
0 0

0101101
*
Ed
 1e-07 1 1 0
1  211 0 0 2.550003
0

0101000
+468 0 -466 0 *
Ve
1e-07
113.550003 76.723778 3
0 0

0101101
*
Ed
 1e-07 1 1 0
1  212 0 0 4.22779899999999
0

0101000
+466 0 -464 0 *
Ve
1e-07
112.199997 76.723778 3
0 0

0101101
*
Ed
 1e-07 1 1 0
1  213 0 0 1.35000600000001
0

0101000
+464 0 -462 0 *
Ve
1e-07
112.199997 76.923775 3
0 0

0101101
*
Ed
 1e-07 1 1 0
1  214 0 0 0.19999700000001
0

0101000
+462 0 -460 0 *
Ve
1e-07
113.550003 76.923775 3
0 0

0101101
*
Ed
 1e-07 1 1 0
1  215 0 0 1.35000600000001
0

0101000
+460 0 -458 0 *
Ve
1e-07
113.550003 79.251572 3
0 0

0101101
*
Ed
 1e-07 1 1 0
1  216 0 0 2.32779699999999
0

0101000
+458 0 -456 0 *
Ve
1e-07
112.75 79.251572 3
0 0

0101101
*
Ed
 1e-07 1 1 0
1  217 0 0 0.800003000000004
0

0101000
+456 0 -454 0 *
Ve
1e-07
112.75 77.651573 3
0 0

0101101
*
Ed
 1e-07 1 1 0
1  218 0 0 1.599999
0

0101000
+454 0 -452 0 *
Ve
1e-07
112.550003 77.651573 3
0 0

0101101
*
Ed
 1e-07 1 1 0
1  219 0 0 0.199996999999996
0

0101000
+452 0 -450 0 *
Ve
1e-07
112.550003 79.451576 3
0 0

0101101
*
Ed
 1e-07 1 1 0
1  220 0 0 1.800003
0

0101000
+450 0 -448 0 *
Ve
1e-07
113.550003 79.451576 3
0 0

0101101
*
Ed
 1e-07 1 1 0
1  221 0 0 1
0

0101000
+448 0 -446 0 *
Ve
1e-07
113.550003 80.151573 3
0 0

0101101
*
Ed
 1e-07 1 1 0
1  222 0 0 0.699996999999996
0

0101000
+446 0 -444 0 *
Ve
1e-07
112.550003 80.151573 3
0 0

0101101
*
Ed
 1e-07 1 1 0
1  223 0 0 1
0

0101000
+444 0 -442 0 *
Ve
1e-07
112.550003 80.351578 3
0 0

0101101
*
Ed
 1e-07 1 1 0
1  224 0 0 0.200005000000004
0

0101000
+442 0 -440 0 *
Ve
1e-07
113.550003 80.351578 3
0 0

0101101
*
Ed
 1e-07 1 1 0
1  225 0 0 1
0

0101000
+440 0 -438 0 *
Ve
1e-07
113.550003 81.001572 3
0 0

0101101
*
Ed
 1e-07 1 1 0
1  226 0 0 0.649993999999992
0

0101000
+438 0 -436 0 *
Ve
1e-07
111 81.001572 3
0 0

0101101
*
Ed
 1e-07 1 1 0
1  227 0 0 2.550003
0

0101000
+436 0 -434 0 *
Ve
1e-07
111 79.451576 3
0 0

0101101
*
Ed
 1e-07 1 1 0
1  228 0 0 1.54999599999999
0

0101000
+434 0 -432 0 *
Ve
1e-07
111.75 79.451576 3
0 0

0101101
*
Ed
 1e-07 1 1 0
1  229 0 0 0.75
0

0101000
+432 0 -430 0 *
Ve
1e-07
111.75 80.351578 3
0 0

0101101
*
Ed
 1e-07 1 1 0
1  230 0 0 0.900002000000001
0

0101000
+430 0 -428 0 *
Ve
1e-07
111.949997 80.351578 3
0 0

0101101
*
Ed
 1e-07 1 1 0
1  231 0 0 0.199996999999996
0

0101000
+428 0 -426 0 *
Ve
1e-07
111.949997 79.451576 3
0 0

0101101
*
Ed
 1e-07 1 1 0
1  232 0 0 0.900002000000001
0

0101000
+426 0 -424 0 *
Ve
1e-07
111.949997 79.251572 3
0 0

0101101
*
Ed
 1e-07 1 1 0
1  233 0 0 0.200004000000007
0

0101000
+424 0 -422 0 *
Ve
1e-07
111 79.251572 3
0 0

0101101
*
Ed
 1e-07 1 1 0
1  234 0 0 0.949996999999996
0

0101000
+422 0 -420 0 *
Ve
1e-07
111 77.501572 3
0 0

0101101
*
Ed
 1e-07 1 1 0
1  235 0 0 1.75
0

0101000
+420 0 -418 0 *
Ve
1e-07
108.849998 77.501572 3
0 0

0101101
*
Ed
 1e-07 1 1 0
1  236 0 0 2.150002
0

0101000
+418 0 -416 0 *
Ve
1e-07
108.849998 76.901573 3
0 0

0101101
*
Ed
 1e-07 1 1 0
1  237 0 0 0.599998999999997
0

0101000
+416 0 -414 0 *
Ve
1e-07
108.650002 76.901573 3
0 0

0101101
*
Ed
 1e-07 1 1 0
1  238 0 0 0.199995999999999
0

0101000
+414 0 -412 0 *
Ve
1e-07
108.650002 77.501572 3
0 0

0101101
*
Ed
 1e-07 1 1 0
1  239 0 0 0.599998999999997
0

0101000
+412 0 -410 0 *
Ve
1e-07
107.099998 77.501572 3
0 0

0101101
*
Ed
 1e-07 1 1 0
1  240 0 0 1.550004
0

0101000
+410 0 -408 0 *
Ve
1e-07
107.099998 72.495979 3
0 0

0101101
*
Ed
 1e-07 1 1 0
1  241 0 0 5.00559299999999
0

0101000
+408 0 -406 0 *
Ve
1e-07
110.800003 72.495979 3
0 0

0101101
*
Ed
 1e-07 1 1 0
1  242 0 0 3.700005
0

0101000
+406 0 -404 0 *
Ve
1e-07
110.800003 75.723778 3
0 0

0101101
*
Ed
 1e-07 1 1 0
1  243 0 0 3.22779899999999
0

0101000
+404 0 -402 0 *
Ve
1e-07
111.400002 75.723778 3
0 0

0101101
*
Ed
 1e-07 1 1 0
1  244 0 0 0.599998999999997
0

0101000
+402 0 -400 0 *
Ed
 1e-07 1 1 0
1  245 0 0 1
0

0101000
+400 0 -487 0 *
Wi

0101100
+485 0 +483 0 +481 0 +479 0 +477 0 +475 0 +473 0 +471 0 +469 0 +467 0 
+465 0 +463 0 +461 0 +459 0 +457 0 +455 0 +453 0 +451 0 +449 0 +447 0 
+445 0 +443 0 +441 0 +439 0 +437 0 +435 0 +433 0 +431 0 +429 0 +427 0 
+425 0 +423 0 +421 0 +419 0 +417 0 +415 0 +413 0 +411 0 +409 0 +407 0 
+405 0 +403 0 +401 0 +399 0 +398 0 *
Fa
0  1e-07 10 0

0111000
+397 0 *
Co

0100000
+396 0 *
Ve
1e-07
124.400002 81.001572 3
0 0

0101101
*
Ve
1e-07
120.699997 81.001572 3
0 0

0101101
*
Ed
 1e-07 1 1 0
1  246 0 0 3.700005
0

0101000
+394 0 -393 0 *
Ve
1e-07
120.699997 77.701576 3
0 0

0101101
*
Ed
 1e-07 1 1 0
1  247 0 0 3.29999599999999
0

0101000
+393 0 -391 0 *
Ve
1e-07
124.400002 77.701576 3
0 0

0101101
*
Ed
 1e-07 1 1 0
1  248 0 0 3.700005
0

0101000
+391 0 -389 0 *
Ed
 1e-07 1 1 0
1  249 0 0 3.29999599999999
0

0101000
+389 0 -394 0 *
Wi

0101100
+392 0 +390 0 +388 0 +387 0 *
Fa
0  1e-07 11 0

0111000
+386 0 *
Co

0100000
+385 0 *
Ve
1e-07
125 76.723778 3
0 0

0101101
*
Ve
1e-07
124.400002 76.723778 3
0 0

0101101
*
Ed
 1e-07 1 1 0
1  250 0 0 0.599997999999999
0

0101000
+383 0 -382 0 *
Ve
1e-07
124.400002 76.923775 3
0 0

0101101
*
Ed
 1e-07 1 1 0
1  251 0 0 0.19999700000001
0

0101000
+382 0 -380 0 *
Ve
1e-07
125.199997 76.923775 3
0 0

0101101
*
Ed
 1e-07 1 1 0
1  252 0 0 0.799994999999996
0

0101000
+380 0 -378 0 *
Ve
1e-07
125.199997 75.523773 3
0 0

0101101
*
Ed
 1e-07 1 1 0
1  253 0 0 1.400002
0

0101000
+378 0 -376 0 *
Ve
1e-07
124.599998 75.523773 3
0 0

0101101
*
Ed
 1e-07 1 1 0
1  254 0 0 0.599998999999997
0

0101000
+376 0 -374 0 *
Ve
1e-07
124.599998 74.523773 3
0 0

0101101
*
Ed
 1e-07 1 1 0
1  255 0 0 1
0

0101000
+374 0 -372 0 *
Ve
1e-07
125.199997 74.523773 3
0 0

0101101
*
Ed
 1e-07 1 1 0
1  256 0 0 0.599998999999997
0

0101000
+372 0 -370 0 *
Ve
1e-07
125.199997 74.323776 3
0 0

0101101
*
Ed
 1e-07 1 1 0
1  257 0 0 0.19999700000001
0

0101000
+370 0 -368 0 *
Ve
1e-07
124.599998 74.323776 3
0 0

0101101
*
Ed
 1e-07 1 1 0
1  258 0 0 0.599998999999997
0

0101000
+368 0 -366 0 *
Ve
1e-07
124.599998 72.495979 3
0 0

0101101
*
Ed
 1e-07 1 1 0
1  259 0 0 1.82779699999999
0

0101000
+366 0 -364 0 *
Ve
1e-07
127.150002 72.495979 3
0 0

0101101
*
Ed
 1e-07 1 1 0
1  260 0 0 2.550004
0

0101000
+364 0 -362 0 *
Ve
1e-07
127.150002 76.723778 3
0 0

0101101
*
Ed
 1e-07 1 1 0
1  261 0 0 4.22779899999999
0

0101000
+362 0 -360 0 *
Ve
1e-07
125.800003 76.723778 3
0 0

0101101
*
Ed
 1e-07 1 1 0
1  262 0 0 1.349999
0

0101000
+360 0 -358 0 *
Ve
1e-07
125.800003 76.923775 3
0 0

0101101
*
Ed
 1e-07 1 1 0
1  263 0 0 0.19999700000001
0

0101000
+358 0 -356 0 *
Ve
1e-07
127.150002 76.923775 3
0 0

0101101
*
Ed
 1e-07 1 1 0
1  264 0 0 1.349999
0

0101000
+356 0 -354 0 *
Ve
1e-07
127.150002 79.251572 3
0 0

0101101
*
Ed
 1e-07 1 1 0
1  265 0 0 2.32779699999999
0

0101000
+354 0 -352 0 *
Ve
1e-07
126.349998 79.251572 3
0 0

0101101
*
Ed
 1e-07 1 1 0
1  266 0 0 0.800004000000001
0

0101000
+352 0 -350 0 *
Ve
1e-07
126.349998 77.651573 3
0 0

0101101
*
Ed
 1e-07 1 1 0
1  267 0 0 1.599999
0

0101000
+350 0 -348 0 *
Ve
1e-07
126.150002 77.651573 3
0 0

0101101
*
Ed
 1e-07 1 1 0
1  268 0 0 0.199995999999999
0

0101000
+348 0 -346 0 *
Ve
1e-07
126.150002 79.451576 3
0 0

0101101
*
Ed
 1e-07 1 1 0
1  269 0 0 1.800003
0

0101000
+346 0 -344 0 *
Ve
1e-07
127.150002 79.451576 3
0 0

0101101
*
Ed
 1e-07 1 1 0
1  270 0 0 1
0

0101000
+344 0 -342 0 *
Ve
1e-07
127.150002 80.151573 3
0 0

0101101
*
Ed
 1e-07 1 1 0
1  271 0 0 0.699996999999996
0

0101000
+342 0 -340 0 *
Ve
1e-07
126.150002 80.151573 3
0 0

0101101
*
Ed
 1e-07 1 1 0
1  272 0 0 1
0

0101000
+340 0 -338 0 *
Ve
1e-07
126.150002 80.351578 3
0 0

0101101
*
Ed
 1e-07 1 1 0
1  273 0 0 0.200005000000004
0

0101000
+338 0 -336 0 *
Ve
1e-07
127.150002 80.351578 3
0 0

0101101
*
Ed
 1e-07 1 1 0
1  274 0 0 1
0

0101000
+336 0 -334 0 *
Ve
1e-07
127.150002 81.001572 3
0 0

0101101
*
Ed
 1e-07 1 1 0
1  275 0 0 0.649993999999992
0

0101000
+334 0 -332 0 *
Ve
1e-07
124.599998 81.001572 3
0 0

0101101
*
Ed
 1e-07 1 1 0
1  276 0 0 2.550004
0

0101000
+332 0 -330 0 *
Ve
1e-07
124.599998 79.451576 3
0 0

0101101
*
Ed
 1e-07 1 1 0
1  277 0 0 1.54999599999999
0

0101000
+330 0 -328 0 *
Ve
1e-07
125.349998 79.451576 3
0 0

0101101
*
Ed
 1e-07 1 1 0
1  278 0 0 0.75
0

0101000
+328 0 -326 0 *
Ve
1e-07
125.349998 80.351578 3
0 0

0101101
*
Ed
 1e-07 1 1 0
1  279 0 0 0.900002000000001
0

0101000
+326 0 -324 0 *
Ve
1e-07
125.550003 80.351578 3
0 0

0101101
*
Ed
 1e-07 1 1 0
1  280 0 0 0.200005000000004
0

0101000
+324 0 -322 0 *
Ve
1e-07
125.550003 79.451576 3
0 0

0101101
*
Ed
 1e-07 1 1 0
1  281 0 0 0.900002000000001
0

0101000
+322 0 -320 0 *
Ve
1e-07
125.550003 79.251572 3
0 0

0101101
*
Ed
 1e-07 1 1 0
1  282 0 0 0.200004000000007
0

0101000
+320 0 -318 0 *
Ve
1e-07
124.599998 79.251572 3
0 0

0101101
*
Ed
 1e-07 1 1 0
1  283 0 0 0.950005000000004
0

0101000
+318 0 -316 0 *
Ve
1e-07
124.599998 77.501572 3
0 0

0101101
*
Ed
 1e-07 1 1 0
1  284 0 0 1.75
0

0101000
+316 0 -314 0 *
Ve
1e-07
122.449997 77.501572 3
0 0

0101101
*
Ed
 1e-07 1 1 0
1  285 0 0 2.150001
0

0101000
+314 0 -312 0 *
Ve
1e-07
122.449997 76.901573 3
0 0

0101101
*
Ed
 1e-07 1 1 0
1  286 0 0 0.599998999999997
0

0101000
+312 0 -310 0 *
Ve
1e-07
122.25 76.901573 3
0 0

0101101
*
Ed
 1e-07 1 1 0
1  287 0 0 0.199996999999996
0

0101000
+310 0 -308 0 *
Ve
1e-07
122.25 77.501572 3
0 0

0101101
*
Ed
 1e-07 1 1 0
1  288 0 0 0.599998999999997
0

0101000
+308 0 -306 0 *
Ve
1e-07
120.699997 77.501572 3
0 0

0101101
*
Ed
 1e-07 1 1 0
1  289 0 0 1.550003
0

0101000
+306 0 -304 0 *
Ve
1e-07
120.699997 72.495979 3
0 0

0101101
*
Ed
 1e-07 1 1 0
1  290 0 0 5.00559299999999
0

0101000
+304 0 -302 0 *
Ve
1e-07
124.400002 72.495979 3
0 0

0101101
*
Ed
 1e-07 1 1 0
1  291 0 0 3.700005
0

0101000
+302 0 -300 0 *
Ve
1e-07
124.400002 75.723778 3
0 0

0101101
*
Ed
 1e-07 1 1 0
1  292 0 0 3.22779899999999
0

0101000
+300 0 -298 0 *
Ve
1e-07
125 75.723778 3
0 0

0101101
*
Ed
 1e-07 1 1 0
1  293 0 0 0.599997999999999
0

0101000
+298 0 -296 0 *
Ed
 1e-07 1 1 0
1  294 0 0 1
0

0101000
+296 0 -383 0 *
Wi

0101100
+381 0 +379 0 +377 0 +375 0 +373 0 +371 0 +369 0 +367 0 +365 0 +363 0 
+361 0 +359 0 +357 0 +355 0 +353 0 +351 0 +349 0 +347 0 +345 0 +343 0 
+341 0 +339 0 +337 0 +335 0 +333 0 +331 0 +329 0 +327 0 +325 0 +323 0 
+321 0 +319 0 +317 0 +315 0 +313 0 +311 0 +309 0 +307 0 +305 0 +303 0 
+301 0 +299 0 +297 0 +295 0 +294 0 *
Fa
0  1e-07 12 0

0111000
+293 0 *
Co

0100000
+292 0 *
Ve
1e-07
138 81.001572 3
0 0

0101101
*
Ve
1e-07
134.300003 81.001572 3
0 0

0101101
*
Ed
 1e-07 1 1 0
1  295 0 0 3.699997
0

0101000
+290 0 -289 0 *
Ve
1e-07
134.300003 77.701576 3
0 0

0101101
*
Ed
 1e-07 1 1 0
1  296 0 0 3.29999599999999
0

0101000
+289 0 -287 0 *
Ve
1e-07
138 77.701576 3
0 0

0101101
*
Ed
 1e-07 1 1 0
1  297 0 0 3.699997
0

0101000
+287 0 -285 0 *
Ed
 1e-07 1 1 0
1  298 0 0 3.29999599999999
0

0101000
+285 0 -290 0 *
Wi

0101100
+288 0 +286 0 +284 0 +283 0 *
Fa
0  1e-07 13 0

0111000
+282 0 *
Co

0100000
+281 0 *
Ve
1e-07
138.600006 76.723778 3
0 0

0101101
*
Ve
1e-07
138 76.723778 3
0 0

0101101
*
Ed
 1e-07 1 1 0
1  299 0 0 0.600006000000008
0

0101000
+279 0 -278 0 *
Ve
1e-07
138 76.923775 3
0 0

0101101
*
Ed
 1e-07 1 1 0
1  300 0 0 0.19999700000001
0

0101000
+278 0 -276 0 *
Ve
1e-07
138.800003 76.923775 3
0 0

0101101
*
Ed
 1e-07 1 1 0
1  301 0 0 0.800003000000004
0

0101000
+276 0 -274 0 *
Ve
1e-07
138.800003 75.523773 3
0 0

0101101
*
Ed
 1e-07 1 1 0
1  302 0 0 1.400002
0

0101000
+274 0 -272 0 *
Ve
1e-07
138.199997 75.523773 3
0 0

0101101
*
Ed
 1e-07 1 1 0
1  303 0 0 0.600006000000008
0

0101000
+272 0 -270 0 *
Ve
1e-07
138.199997 74.523773 3
0 0

0101101
*
Ed
 1e-07 1 1 0
1  304 0 0 1
0

0101000
+270 0 -268 0 *
Ve
1e-07
138.800003 74.523773 3
0 0

0101101
*
Ed
 1e-07 1 1 0
1  305 0 0 0.600006000000008
0

0101000
+268 0 -266 0 *
Ve
1e-07
138.800003 74.323776 3
0 0

0101101
*
Ed
 1e-07 1 1 0
1  306 0 0 0.19999700000001
0

0101000
+266 0 -264 0 *
Ve
1e-07
138.199997 74.323776 3
0 0

0101101
*
Ed
 1e-07 1 1 0
1  307 0 0 0.600006000000008
0

0101000
+264 0 -262 0 *
Ve
1e-07
138.199997 72.495979 3
0 0

0101101
*
Ed
 1e-07 1 1 0
1  308 0 0 1.82779699999999
0

0101000
+262 0 -260 0 *
Ve
1e-07
140.75 72.495979 3
0 0

0101101
*
Ed
 1e-07 1 1 0
1  309 0 0 2.550003
0

0101000
+260 0 -258 0 *
Ve
1e-07
140.75 76.723778 3
0 0

0101101
*
Ed
 1e-07 1 1 0
1  310 0 0 4.22779899999999
0

0101000
+258 0 -256 0 *
Ve
1e-07
139.399994 76.723778 3
0 0

0101101
*
Ed
 1e-07 1 1 0
1  311 0 0 1.35000600000001
0

0101000
+256 0 -254 0 *
Ve
1e-07
139.399994 76.923775 3
0 0

0101101
*
Ed
 1e-07 1 1 0
1  312 0 0 0.19999700000001
0

0101000
+254 0 -252 0 *
Ve
1e-07
140.75 76.923775 3
0 0

0101101
*
Ed
 1e-07 1 1 0
1  313 0 0 1.35000600000001
0

0101000
+252 0 -250 0 *
Ve
1e-07
140.75 79.251572 3
0 0

0101101
*
Ed
 1e-07 1 1 0
1  314 0 0 2.32779699999999
0

0101000
+250 0 -248 0 *
Ve
1e-07
139.949997 79.251572 3
0 0

0101101
*
Ed
 1e-07 1 1 0
1  315 0 0 0.800003000000004
0

0101000
+248 0 -246 0 *
Ve
1e-07
139.949997 77.651573 3
0 0

0101101
*
Ed
 1e-07 1 1 0
1  316 0 0 1.599999
0

0101000
+246 0 -244 0 *
Ve
1e-07
139.75 77.651573 3
0 0

0101101
*
Ed
 1e-07 1 1 0
1  317 0 0 0.199996999999996
0

0101000
+244 0 -242 0 *
Ve
1e-07
139.75 79.451576 3
0 0

0101101
*
Ed
 1e-07 1 1 0
1  318 0 0 1.800003
0

0101000
+242 0 -240 0 *
Ve
1e-07
140.75 79.451576 3
0 0

0101101
*
Ed
 1e-07 1 1 0
1  319 0 0 1
0

0101000
+240 0 -238 0 *
Ve
1e-07
140.75 80.151573 3
0 0

0101101
*
Ed
 1e-07 1 1 0
1  320 0 0 0.699996999999996
0

0101000
+238 0 -236 0 *
Ve
1e-07
139.75 80.151573 3
0 0

0101101
*
Ed
 1e-07 1 1 0
1  321 0 0 1
0

0101000
+236 0 -234 0 *
Ve
1e-07
139.75 80.351578 3
0 0

0101101
*
Ed
 1e-07 1 1 0
1  322 0 0 0.200005000000004
0

0101000
+234 0 -232 0 *
Ve
1e-07
140.75 80.351578 3
0 0

0101101
*
Ed
 1e-07 1 1 0
1  323 0 0 1
0

0101000
+232 0 -230 0 *
Ve
1e-07
140.75 81.001572 3
0 0

0101101
*
Ed
 1e-07 1 1 0
1  324 0 0 0.649993999999992
0

0101000
+230 0 -228 0 *
Ve
1e-07
138.199997 81.001572 3
0 0

0101101
*
Ed
 1e-07 1 1 0
1  325 0 0 2.550003
0

0101000
+228 0 -226 0 *
Ve
1e-07
138.199997 79.451576 3
0 0

0101101
*
Ed
 1e-07 1 1 0
1  326 0 0 1.54999599999999
0

0101000
+226 0 -224 0 *
Ve
1e-07
138.949997 79.451576 3
0 0

0101101
*
Ed
 1e-07 1 1 0
1  327 0 0 0.75
0

0101000
+224 0 -222 0 *
Ve
1e-07
138.949997 80.351578 3
0 0

0101101
*
Ed
 1e-07 1 1 0
1  328 0 0 0.900002000000001
0

0101000
+222 0 -220 0 *
Ve
1e-07
139.149994 80.351578 3
0 0

0101101
*
Ed
 1e-07 1 1 0
1  329 0 0 0.199996999999996
0

0101000
+220 0 -218 0 *
Ve
1e-07
139.149994 79.451576 3
0 0

0101101
*
Ed
 1e-07 1 1 0
1  330 0 0 0.900002000000001
0

0101000
+218 0 -216 0 *
Ve
1e-07
139.149994 79.251572 3
0 0

0101101
*
Ed
 1e-07 1 1 0
1  331 0 0 0.200004000000007
0

0101000
+216 0 -214 0 *
Ve
1e-07
138.199997 79.251572 3
0 0

0101101
*
Ed
 1e-07 1 1 0
1  332 0 0 0.949996999999996
0

0101000
+214 0 -212 0 *
Ve
1e-07
138.199997 77.501572 3
0 0

0101101
*
Ed
 1e-07 1 1 0
1  333 0 0 1.75
0

0101000
+212 0 -210 0 *
Ve
1e-07
136.050003 77.501572 3
0 0

0101101
*
Ed
 1e-07 1 1 0
1  334 0 0 2.14999399999999
0

0101000
+210 0 -208 0 *
Ve
1e-07
136.050003 76.901573 3
0 0

0101101
*
Ed
 1e-07 1 1 0
1  335 0 0 0.599998999999997
0

0101000
+208 0 -206 0 *
Ve
1e-07
135.850006 76.901573 3
0 0

0101101
*
Ed
 1e-07 1 1 0
1  336 0 0 0.199996999999996
0

0101000
+206 0 -204 0 *
Ve
1e-07
135.850006 77.501572 3
0 0

0101101
*
Ed
 1e-07 1 1 0
1  337 0 0 0.599998999999997
0

0101000
+204 0 -202 0 *
Ve
1e-07
134.300003 77.501572 3
0 0

0101101
*
Ed
 1e-07 1 1 0
1  338 0 0 1.550003
0

0101000
+202 0 -200 0 *
Ve
1e-07
134.300003 72.495979 3
0 0

0101101
*
Ed
 1e-07 1 1 0
1  339 0 0 5.00559299999999
0

0101000
+200 0 -198 0 *
Ve
1e-07
138 72.495979 3
0 0

0101101
*
Ed
 1e-07 1 1 0
1  340 0 0 3.699997
0

0101000
+198 0 -196 0 *
Ve
1e-07
138 75.723778 3
0 0

0101101
*
Ed
 1e-07 1 1 0
1  341 0 0 3.22779899999999
0

0101000
+196 0 -194 0 *
Ve
1e-07
138.600006 75.723778 3
0 0

0101101
*
Ed
 1e-07 1 1 0
1  342 0 0 0.600006000000008
0

0101000
+194 0 -192 0 *
Ed
 1e-07 1 1 0
1  343 0 0 1
0

0101000
+192 0 -279 0 *
Wi

0101100
+277 0 +275 0 +273 0 +271 0 +269 0 +267 0 +265 0 +263 0 +261 0 +259 0 
+257 0 +255 0 +253 0 +251 0 +249 0 +247 0 +245 0 +243 0 +241 0 +239 0 
+237 0 +235 0 +233 0 +231 0 +229 0 +227 0 +225 0 +223 0 +221 0 +219 0 
+217 0 +215 0 +213 0 +211 0 +209 0 +207 0 +205 0 +203 0 +201 0 +199 0 
+197 0 +195 0 +193 0 +191 0 +190 0 *
Fa
0  1e-07 14 0

0111000
+189 0 *
Co

0100000
+188 0 *
Ve
1e-07
151.600006 81.001572 3
0 0

0101101
*
Ve
1e-07
147.899994 81.001572 3
0 0

0101101
*
Ed
 1e-07 1 1 0
1  344 0 0 3.70001200000002
0

0101000
+186 0 -185 0 *
Ve
1e-07
147.899994 77.701576 3
0 0

0101101
*
Ed
 1e-07 1 1 0
1  345 0 0 3.29999599999999
0

0101000
+185 0 -183 0 *
Ve
1e-07
151.600006 77.701576 3
0 0

0101101
*
Ed
 1e-07 1 1 0
1  346 0 0 3.70001200000002
0

0101000
+183 0 -181 0 *
Ed
 1e-07 1 1 0
1  347 0 0 3.29999599999999
0

0101000
+181 0 -186 0 *
Wi

0101100
+184 0 +182 0 +180 0 +179 0 *
Fa
0  1e-07 15 0

0111000
+178 0 *
Co

0100000
+177 0 *
Ve
1e-07
152.199997 76.723778 3
0 0

0101101
*
Ve
1e-07
151.600006 76.723778 3
0 0

0101101
*
Ed
 1e-07 1 1 0
1  348 0 0 0.599990999999989
0

0101000
+175 0 -174 0 *
Ve
1e-07
151.600006 76.923775 3
0 0

0101101
*
Ed
 1e-07 1 1 0
1  349 0 0 0.19999700000001
0

0101000
+174 0 -172 0 *
Ve
1e-07
152.399994 76.923775 3
0 0

0101101
*
Ed
 1e-07 1 1 0
1  350 0 0 0.799987999999985
0

0101000
+172 0 -170 0 *
Ve
1e-07
152.399994 75.523773 3
0 0

0101101
*
Ed
 1e-07 1 1 0
1  351 0 0 1.400002
0

0101000
+170 0 -168 0 *
Ve
1e-07
151.800003 75.523773 3
0 0

0101101
*
Ed
 1e-07 1 1 0
1  352 0 0 0.599990999999989
0

0101000
+168 0 -166 0 *
Ve
1e-07
151.800003 74.523773 3
0 0

0101101
*
Ed
 1e-07 1 1 0
1  353 0 0 1
0

0101000
+166 0 -164 0 *
Ve
1e-07
152.399994 74.523773 3
0 0

0101101
*
Ed
 1e-07 1 1 0
1  354 0 0 0.599990999999989
0

0101000
+164 0 -162 0 *
Ve
1e-07
152.399994 74.323776 3
0 0

0101101
*
Ed
 1e-07 1 1 0
1  355 0 0 0.19999700000001
0

0101000
+162 0 -160 0 *
Ve
1e-07
151.800003 74.323776 3
0 0

0101101
*
Ed
 1e-07 1 1 0
1  356 0 0 0.599990999999989
0

0101000
+160 0 -158 0 *
Ve
1e-07
151.800003 72.495979 3
0 0

0101101
*
Ed
 1e-07 1 1 0
1  357 0 0 1.82779699999999
0

0101000
+158 0 -156 0 *
Ve
1e-07
154.350006 72.495979 3
0 0

0101101
*
Ed
 1e-07 1 1 0
1  358 0 0 2.550003
0

0101000
+156 0 -154 0 *
Ve
1e-07
154.350006 76.723778 3
0 0

0101101
*
Ed
 1e-07 1 1 0
1  359 0 0 4.22779899999999
0

0101000
+154 0 -152 0 *
Ve
1e-07
153 76.723778 3
0 0

0101101
*
Ed
 1e-07 1 1 0
1  360 0 0 1.35000600000001
0

0101000
+152 0 -150 0 *
Ve
1e-07
153 76.923775 3
0 0

0101101
*
Ed
 1e-07 1 1 0
1  361 0 0 0.19999700000001
0

0101000
+150 0 -148 0 *
Ve
1e-07
154.350006 76.923775 3
0 0

0101101
*
Ed
 1e-07 1 1 0
1  362 0 0 1.35000600000001
0

0101000
+148 0 -146 0 *
Ve
1e-07
154.350006 79.251572 3
0 0

0101101
*
Ed
 1e-07 1 1 0
1  363 0 0 2.32779699999999
0

0101000
+146 0 -144 0 *
Ve
1e-07
153.550003 79.251572 3
0 0

0101101
*
Ed
 1e-07 1 1 0
1  364 0 0 0.800003000000004
0

0101000
+144 0 -142 0 *
Ve
1e-07
153.550003 77.651573 3
0 0

0101101
*
Ed
 1e-07 1 1 0
1  365 0 0 1.599999
0

0101000
+142 0 -140 0 *
Ve
1e-07
153.350006 77.651573 3
0 0

0101101
*
Ed
 1e-07 1 1 0
1  366 0 0 0.199996999999996
0

0101000
+140 0 -138 0 *
Ve
1e-07
153.350006 79.451576 3
0 0

0101101
*
Ed
 1e-07 1 1 0
1  367 0 0 1.800003
0

0101000
+138 0 -136 0 *
Ve
1e-07
154.350006 79.451576 3
0 0

0101101
*
Ed
 1e-07 1 1 0
1  368 0 0 1
0

0101000
+136 0 -134 0 *
Ve
1e-07
154.350006 80.151573 3
0 0

0101101
*
Ed
 1e-07 1 1 0
1  369 0 0 0.699996999999996
0

0101000
+134 0 -132 0 *
Ve
1e-07
153.350006 80.151573 3
0 0

0101101
*
Ed
 1e-07 1 1 0
1  370 0 0 1
0

0101000
+132 0 -130 0 *
Ve
1e-07
153.350006 80.351578 3
0 0

0101101
*
Ed
 1e-07 1 1 0
1  371 0 0 0.200005000000004
0

0101000
+130 0 -128 0 *
Ve
1e-07
154.350006 80.351578 3
0 0

0101101
*
Ed
 1e-07 1 1 0
1  372 0 0 1
0

0101000
+128 0 -126 0 *
Ve
1e-07
154.350006 81.001572 3
0 0

0101101
*
Ed
 1e-07 1 1 0
1  373 0 0 0.649993999999992
0

0101000
+126 0 -124 0 *
Ve
1e-07
151.800003 81.001572 3
0 0

0101101
*
Ed
 1e-07 1 1 0
1  374 0 0 2.550003
0

0101000
+124 0 -122 0 *
Ve
1e-07
151.800003 79.451576 3
0 0

0101101
*
Ed
 1e-07 1 1 0
1  375 0 0 1.54999599999999
0

0101000
+122 0 -120 0 *
Ve
1e-07
152.550003 79.451576 3
0 0

0101101
*
Ed
 1e-07 1 1 0
1  376 0 0 0.75
0

0101000
+120 0 -118 0 *
Ve
1e-07
152.550003 80.351578 3
0 0

0101101
*
Ed
 1e-07 1 1 0
1  377 0 0 0.900002000000001
0

0101000
+118 0 -116 0 *
Ve
1e-07
152.75 80.351578 3
0 0

0101101
*
Ed
 1e-07 1 1 0
1  378 0 0 0.199996999999996
0

0101000
+116 0 -114 0 *
Ve
1e-07
152.75 79.451576 3
0 0

0101101
*
Ed
 1e-07 1 1 0
1  379 0 0 0.900002000000001
0

0101000
+114 0 -112 0 *
Ve
1e-07
152.75 79.251572 3
0 0

0101101
*
Ed
 1e-07 1 1 0
1  380 0 0 0.200004000000007
0

0101000
+112 0 -110 0 *
Ve
1e-07
151.800003 79.251572 3
0 0

0101101
*
Ed
 1e-07 1 1 0
1  381 0 0 0.949996999999996
0

0101000
+110 0 -108 0 *
Ve
1e-07
151.800003 77.501572 3
0 0

0101101
*
Ed
 1e-07 1 1 0
1  382 0 0 1.75
0

0101000
+108 0 -106 0 *
Ve
1e-07
149.649994 77.501572 3
0 0

0101101
*
Ed
 1e-07 1 1 0
1  383 0 0 2.15000900000001
0

0101000
+106 0 -104 0 *
Ve
1e-07
149.649994 76.901573 3
0 0

0101101
*
Ed
 1e-07 1 1 0
1  384 0 0 0.599998999999997
0

0101000
+104 0 -102 0 *
Ve
1e-07
149.449997 76.901573 3
0 0

0101101
*
Ed
 1e-07 1 1 0
1  385 0 0 0.199996999999996
0

0101000
+102 0 -100 0 *
Ve
1e-07
149.449997 77.501572 3
0 0

0101101
*
Ed
 1e-07 1 1 0
1  386 0 0 0.599998999999997
0

0101000
+100 0 -98 0 *
Ve
1e-07
147.899994 77.501572 3
0 0

0101101
*
Ed
 1e-07 1 1 0
1  387 0 0 1.550003
0

0101000
+98 0 -96 0 *
Ve
1e-07
147.899994 72.495979 3
0 0

0101101
*
Ed
 1e-07 1 1 0
1  388 0 0 5.00559299999999
0

0101000
+96 0 -94 0 *
Ve
1e-07
151.600006 72.495979 3
0 0

0101101
*
Ed
 1e-07 1 1 0
1  389 0 0 3.70001200000002
0

0101000
+94 0 -92 0 *
Ve
1e-07
151.600006 75.723778 3
0 0

0101101
*
Ed
 1e-07 1 1 0
1  390 0 0 3.22779899999999
0

0101000
+92 0 -90 0 *
Ve
1e-07
152.199997 75.723778 3
0 0

0101101
*
Ed
 1e-07 1 1 0
1  391 0 0 0.599990999999989
0

0101000
+90 0 -88 0 *
Ed
 1e-07 1 1 0
1  392 0 0 1
0

0101000
+88 0 -175 0 *
Wi

0101100
+173 0 +171 0 +169 0 +167 0 +165 0 +163 0 +161 0 +159 0 +157 0 +155 0 
+153 0 +151 0 +149 0 +147 0 +145 0 +143 0 +141 0 +139 0 +137 0 +135 0 
+133 0 +131 0 +129 0 +127 0 +125 0 +123 0 +121 0 +119 0 +117 0 +115 0 
+113 0 +111 0 +109 0 +107 0 +105 0 +103 0 +101 0 +99 0 +97 0 +95 0 
+93 0 +91 0 +89 0 +87 0 +86 0 *
Fa
0  1e-07 16 0

0111000
+85 0 *
Co

0100000
+84 0 *
Ve
1e-07
90.150002 59.849998 3
0 0

0101101
*
Ve
1e-07
90.150002 50.349998 3
0 0

0101101
*
Ed
 1e-07 1 1 0
1  393 0 0 9.5
0

0101000
+82 0 -81 0 *
Ve
1e-07
99.650002 50.349998 3
0 0

0101101
*
Ed
 1e-07 1 1 0
1  394 0 0 9.5
0

0101000
+81 0 -79 0 *
Ve
1e-07
99.650002 59.849998 3
0 0

0101101
*
Ed
 1e-07 1 1 0
1  395 0 0 9.5
0

0101000
+79 0 -77 0 *
Ve
1e-07
98.199997 59.849998 3
0 0

0101101
*
Ed
 1e-07 1 1 0
1  396 0 0 1.450005
0

0101000
+77 0 -75 0 *
Ve
1e-07
98.199997 60.200001 3
0 0

0101101
*
Ed
 1e-07 1 1 0
1  397 0 0 0.350003000000001
0

0101000
+75 0 -73 0 *
Ve
1e-07
98.599998 60.200001 3
0 0

0101101
*
Ed
 1e-07 1 1 0
1  398 0 0 0.400001000000003
0

0101000
+73 0 -71 0 *
Ve
1e-07
98.599998 63.145977 3
0 0

0101101
*
Ed
 1e-07 1 1 0
1  399 0 0 2.945976
0

0101000
+71 0 -69 0 *
Ve
1e-07
90.150002 63.145977 3
0 0

0101101
*
Ed
 1e-07 1 1 0
1  400 0 0 8.449996
0

0101000
+69 0 -67 0 *
Ve
1e-07
90.150002 60.200001 3
0 0

0101101
*
Ed
 1e-07 1 1 0
1  401 0 0 2.945976
0

0101000
+67 0 -65 0 *
Ve
1e-07
97.300003 60.200001 3
0 0

0101101
*
Ed
 1e-07 1 1 0
1  402 0 0 7.150001
0

0101000
+65 0 -63 0 *
Ve
1e-07
97.300003 59.849998 3
0 0

0101101
*
Ed
 1e-07 1 1 0
1  403 0 0 0.350003000000001
0

0101000
+63 0 -61 0 *
Ed
 1e-07 1 1 0
1  404 0 0 7.150001
0

0101000
+61 0 -82 0 *
Wi

0101100
+80 0 +78 0 +76 0 +74 0 +72 0 +70 0 +68 0 +66 0 +64 0 +62 0 
+60 0 +59 0 *
Fa
0  1e-07 17 0

0111000
+58 0 *
Co

0100000
+57 0 *
Ve
1e-07
96.800003 72.495979 3
0 0

0101101
*
Ve
1e-07
103.25 72.495979 3
0 0

0101101
*
Ed
 1e-07 1 1 0
1  405 0 0 6.449997
0

0101000
+55 0 -54 0 *
Ve
1e-07
103.25 75.148773 3
0 0

0101101
*
Ed
 1e-07 1 1 0
1  406 0 0 2.652794
0

0101000
+54 0 -52 0 *
Ve
1e-07
103.599998 75.148773 3
0 0

0101101
*
Ed
 1e-07 1 1 0
1  407 0 0 0.349997999999999
0

0101000
+52 0 -50 0 *
Ve
1e-07
103.599998 72.495979 3
0 0

0101101
*
Ed
 1e-07 1 1 0
1  408 0 0 2.652794
0

0101000
+50 0 -48 0 *
Ve
1e-07
106.75 72.495979 3
0 0

0101101
*
Ed
 1e-07 1 1 0
1  409 0 0 3.150002
0

0101000
+48 0 -46 0 *
Ve
1e-07
106.75 81.001572 3
0 0

0101101
*
Ed
 1e-07 1 1 0
1  410 0 0 8.50559299999999
0

0101000
+46 0 -44 0 *
Ve
1e-07
103.599998 81.001572 3
0 0

0101101
*
Ed
 1e-07 1 1 0
1  411 0 0 3.150002
0

0101000
+44 0 -42 0 *
Ve
1e-07
103.599998 75.948776 3
0 0

0101101
*
Ed
 1e-07 1 1 0
1  412 0 0 5.052796
0

0101000
+42 0 -40 0 *
Ve
1e-07
103.25 75.948776 3
0 0

0101101
*
Ed
 1e-07 1 1 0
1  413 0 0 0.349997999999999
0

0101000
+40 0 -38 0 *
Ve
1e-07
103.25 81.001572 3
0 0

0101101
*
Ed
 1e-07 1 1 0
1  414 0 0 5.052796
0

0101000
+38 0 -36 0 *
Ve
1e-07
96.800003 81.001572 3
0 0

0101101
*
Ed
 1e-07 1 1 0
1  415 0 0 6.449997
0

0101000
+36 0 -34 0 *
Ed
 1e-07 1 1 0
1  416 0 0 8.50559299999999
0

0101000
+34 0 -55 0 *
Wi

0101100
+53 0 +51 0 +49 0 +47 0 +45 0 +43 0 +41 0 +39 0 +37 0 +35 0 
+33 0 +32 0 *
Fa
0  1e-07 18 0

0111000
+31 0 *
Co

0100000
+30 0 *
Ve
1e-07
161.5 72.495979 3
0 0

0101101
*
Ve
1e-07
164.649994 72.495979 3
0 0

0101101
*
Ed
 1e-07 1 1 0
1  417 0 0 3.14999399999999
0

0101000
+28 0 -27 0 *
Ve
1e-07
164.649994 75.148773 3
0 0

0101101
*
Ed
 1e-07 1 1 0
1  418 0 0 2.652794
0

0101000
+27 0 -25 0 *
Ve
1e-07
165 75.148773 3
0 0

0101101
*
Ed
 1e-07 1 1 0
1  419 0 0 0.350006000000008
0

0101000
+25 0 -23 0 *
Ve
1e-07
165 72.495979 3
0 0

0101101
*
Ed
 1e-07 1 1 0
1  420 0 0 2.652794
0

0101000
+23 0 -21 0 *
Ve
1e-07
171.399994 72.495979 3
0 0

0101101
*
Ed
 1e-07 1 1 0
1  421 0 0 6.39999399999999
0

0101000
+21 0 -19 0 *
Ve
1e-07
171.399994 81.001572 3
0 0

0101101
*
Ed
 1e-07 1 1 0
1  422 0 0 8.50559299999999
0

0101000
+19 0 -17 0 *
Ve
1e-07
165 81.001572 3
0 0

0101101
*
Ed
 1e-07 1 1 0
1  423 0 0 6.39999399999999
0

0101000
+17 0 -15 0 *
Ve
1e-07
165 75.948776 3
0 0

0101101
*
Ed
 1e-07 1 1 0
1  424 0 0 5.052796
0

0101000
+15 0 -13 0 *
Ve
1e-07
164.649994 75.948776 3
0 0

0101101
*
Ed
 1e-07 1 1 0
1  425 0 0 0.350006000000008
0

0101000
+13 0 -11 0 *
Ve
1e-07
164.649994 81.001572 3
0 0

0101101
*
Ed
 1e-07 1 1 0
1  426 0 0 5.052796
0

0101000
+11 0 -9 0 *
Ve
1e-07
161.5 81.001572 3
0 0

0101101
*
Ed
 1e-07 1 1 0
1  427 0 0 3.14999399999999
0

0101000
+9 0 -7 0 *
Ed
 1e-07 1 1 0
1  428 0 0 8.50559299999999
0

0101000
+7 0 -28 0 *
Wi

0101100
+26 0 +24 0 +22 0 +20 0 +18 0 +16 0 +14 0 +12 0 +10 0 +8 0 
+6 0 +5 0 *
Fa
0  1e-07 19 0

0111000
+4 0 *
Co

0100000
+3 0 *
Co

1100000
+915 0 +822 0 +811 0 +718 0 +707 0 +614 0 +603 0 +510 0 +499 0 +488 0 
+395 0 +384 0 +291 0 +280 0 +187 0 +176 0 +83 0 +56 0 +29 0 +2 0 
*

+1 0 