
CASCADE Topology V3, (c) Open Cascade
Locations 0
Curve2ds 0
Curves 422
1 98.25 13.145977999999999 0 -1 0 0 
1 90.150002000000001 13.145977999999999 0 0 -1 0 
1 90.150002000000001 10.199999999999999 0 1 0 0 
1 97.300003000000004 10.199999999999999 0 0 -1 0 
1 97.300003000000004 9.8499999999999996 0 -1 0 0 
1 90.150002000000001 9.8499999999999996 0 0 -1 0 
1 90.150002000000001 0.34999999999999998 0 1 0 0 
1 99.650002000000001 0.34999999999999998 0 0 1 0 
1 99.650002000000001 9.8499999999999996 0 -1 0 0 
1 98.199996999999996 9.8499999999999996 0 0 1 0 
1 98.199996999999996 10.199999999999999 0 1 0 0 
1 98.599997999999999 10.199999999999999 0 0 1 0 
1 98.599997999999999 22.495977 0 1 0 0 
1 103.25 22.495977 0 0 1 0 
1 103.25 25.148776999999999 0 1 0 0 
1 103.599998 25.148776999999999 0 0 -1 0 
1 103.599998 22.495977 0 1 0 0 
1 110.800003 22.495977 0 0 1 0 
1 110.800003 25.723776000000001 0 1 0 0 
1 111.400002 25.723776000000001 0 0 1 0 
1 111.400002 26.723776000000001 0 -1 0 0 
1 110.800003 26.723776000000001 0 0 1 0 
1 110.800003 26.923777000000001 0 1 0 0 
1 111.599998 26.923777000000001 0 0 -1 0 
1 111.599998 25.523776999999999 0 -1 0 0 
1 111 25.523776999999999 0 0 -1 0 
1 111 24.523776999999999 0 1 0 0 
1 111.599998 24.523776999999999 0 0 -1 0 
1 111.599998 24.323775999999999 0 -1 0 0 
1 111 24.323775999999999 0 0 -1 0 
1 111 22.495977 0 1 0 0 
1 117.599998 22.495977 0 0 1 0 
1 117.599998 25.723776000000001 0 1 0 0 
1 118.199997 25.723776000000001 0 0 1 0 
1 118.199997 26.723776000000001 0 -1 0 0 
1 117.599998 26.723776000000001 0 0 1 0 
1 117.599998 26.923777000000001 0 1 0 0 
1 118.400002 26.923777000000001 0 0 -1 0 
1 118.400002 25.523776999999999 0 -1 0 0 
1 117.800003 25.523776999999999 0 0 -1 0 
1 117.800003 24.523776999999999 0 1 0 0 
1 118.400002 24.523776999999999 0 0 -1 0 
1 118.400002 24.323775999999999 0 -1 0 0 
1 117.800003 24.323775999999999 0 0 -1 0 
1 117.800003 22.495977 0 1 0 0 
1 124.400002 22.495977 0 0 1 0 
1 124.400002 25.723776000000001 0 1 0 0 
1 125 25.723776000000001 0 0 1 0 
1 125 26.723776000000001 0 -1 0 0 
1 124.400002 26.723776000000001 0 0 1 0 
1 124.400002 26.923777000000001 0 1 0 0 
1 125.199997 26.923777000000001 0 0 -1 0 
1 125.199997 25.523776999999999 0 -1 0 0 
1 124.599998 25.523776999999999 0 0 -1 0 
1 124.599998 24.523776999999999 0 1 0 0 
1 125.199997 24.523776999999999 0 0 -1 0 
1 125.199997 24.323775999999999 0 -1 0 0 
1 124.599998 24.323775999999999 0 0 -1 0 
1 124.599998 22.495977 0 1 0 0 
1 131.199997 22.495977 0 0 1 0 
1 131.199997 25.723776000000001 0 1 0 0 
1 131.800003 25.723776000000001 0 0 1 0 
1 131.800003 26.723776000000001 0 -1 0 0 
1 131.199997 26.723776000000001 0 0 1 0 
1 131.199997 26.923777000000001 0 1 0 0 
1 132 26.923777000000001 0 0 -1 0 
1 132 25.523776999999999 0 -1 0 0 
1 131.39999399999999 25.523776999999999 0 0 -1 0 
1 131.39999399999999 24.523776999999999 0 1 0 0 
1 132 24.523776999999999 0 0 -1 0 
1 132 24.323775999999999 0 -1 0 0 
1 131.39999399999999 24.323775999999999 0 0 -1 0 
1 131.39999399999999 22.495977 0 1 0 0 
1 138 22.495977 0 0 1 0 
1 138 25.723776000000001 0 1 0 0 
1 138.60000600000001 25.723776000000001 0 0 1 0 
1 138.60000600000001 26.723776000000001 0 -1 0 0 
1 138 26.723776000000001 0 0 1 0 
1 138 26.923777000000001 0 1 0 0 
1 138.800003 26.923777000000001 0 0 -1 0 
1 138.800003 25.523776999999999 0 -1 0 0 
1 138.199997 25.523776999999999 0 0 -1 0 
1 138.199997 24.523776999999999 0 1 0 0 
1 138.800003 24.523776999999999 0 0 -1 0 
1 138.800003 24.323775999999999 0 -1 0 0 
1 138.199997 24.323775999999999 0 0 -1 0 
1 138.199997 22.495977 0 1 0 0 
1 144.800003 22.495977 0 0 1 0 
1 144.800003 25.723776000000001 0 1 0 0 
1 145.39999399999999 25.723776000000001 0 0 1 0 
1 145.39999399999999 26.723776000000001 0 -1 0 0 
1 144.800003 26.723776000000001 0 0 1 0 
1 144.800003 26.923777000000001 0 1 0 0 
1 145.60000600000001 26.923777000000001 0 0 -1 0 
1 145.60000600000001 25.523776999999999 0 -1 0 0 
1 145 25.523776999999999 0 0 -1 0 
1 145 24.523776999999999 0 1 0 0 
1 145.60000600000001 24.523776999999999 0 0 -1 0 
1 145.60000600000001 24.323775999999999 0 -1 0 0 
1 145 24.323775999999999 0 0 -1 0 
1 145 22.495977 0 1 0 0 
1 151.60000600000001 22.495977 0 0 1 0 
1 151.60000600000001 25.723776000000001 0 1 0 0 
1 152.199997 25.723776000000001 0 0 1 0 
1 152.199997 26.723776000000001 0 -1 0 0 
1 151.60000600000001 26.723776000000001 0 0 1 0 
1 151.60000600000001 26.923777000000001 0 1 0 0 
1 152.39999399999999 26.923777000000001 0 0 -1 0 
1 152.39999399999999 25.523776999999999 0 -1 0 0 
1 151.800003 25.523776999999999 0 0 -1 0 
1 151.800003 24.523776999999999 0 1 0 0 
1 152.39999399999999 24.523776999999999 0 0 -1 0 
1 152.39999399999999 24.323775999999999 0 -1 0 0 
1 151.800003 24.323775999999999 0 0 -1 0 
1 151.800003 22.495977 0 1 0 0 
1 158.39999399999999 22.495977 0 0 1 0 
1 158.39999399999999 25.723776000000001 0 1 0 0 
1 159 25.723776000000001 0 0 1 0 
1 159 26.723776000000001 0 -1 0 0 
1 158.39999399999999 26.723776000000001 0 0 1 0 
1 158.39999399999999 26.923777000000001 0 1 0 0 
1 159.199997 26.923777000000001 0 0 -1 0 
1 159.199997 25.523776999999999 0 -1 0 0 
1 158.60000600000001 25.523776999999999 0 0 -1 0 
1 158.60000600000001 24.523776999999999 0 1 0 0 
1 159.199997 24.523776999999999 0 0 -1 0 
1 159.199997 24.323775999999999 0 -1 0 0 
1 158.60000600000001 24.323775999999999 0 0 -1 0 
1 158.60000600000001 22.495977 0 1 0 0 
1 164.64999399999999 22.495977 0 0 1 0 
1 164.64999399999999 25.148776999999999 0 1 0 0 
1 165 25.148776999999999 0 0 -1 0 
1 165 22.495977 0 1 0 0 
1 171.39999399999999 22.495977 0 0 1 0 
1 171.39999399999999 31.001574999999999 0 -1 0 0 
1 165 31.001574999999999 0 0 -1 0 
1 165 25.948775999999999 0 -1 0 0 
1 164.64999399999999 25.948775999999999 0 0 1 0 
1 164.64999399999999 31.001574999999999 0 -1 0 0 
1 161.5 31.001574999999999 0 0 -1 0 
1 161.5 22.795977000000001 0 -1 0 0 
1 161.14999399999999 22.795977000000001 0 0 1 0 
1 161.14999399999999 26.723776000000001 0 -1 0 0 
1 159.800003 26.723776000000001 0 0 1 0 
1 159.800003 26.923777000000001 0 1 0 0 
1 161.14999399999999 26.923777000000001 0 0 1 0 
1 161.14999399999999 29.251574999999999 0 -1 0 0 
1 160.35000600000001 29.251574999999999 0 0 -1 0 
1 160.35000600000001 27.651575000000001 0 -1 0 0 
1 160.14999399999999 27.651575000000001 0 0 1 0 
1 160.14999399999999 29.451574000000001 0 1 0 0 
1 161.14999399999999 29.451574000000001 0 0 1 0 
1 161.14999399999999 30.151575000000001 0 -1 0 0 
1 160.14999399999999 30.151575000000001 0 0 1 0 
1 160.14999399999999 30.351573999999999 0 1 0 0 
1 161.14999399999999 30.351573999999999 0 0 1 0 
1 161.14999399999999 31.001574999999999 0 -1 0 0 
1 158.60000600000001 31.001574999999999 0 0 -1 0 
1 158.60000600000001 29.451574000000001 0 1 0 0 
1 159.35000600000001 29.451574000000001 0 0 1 0 
1 159.35000600000001 30.351573999999999 0 1 0 0 
1 159.550003 30.351573999999999 0 0 -1 0 
1 159.550003 29.251574999999999 0 -1 0 0 
1 158.60000600000001 29.251574999999999 0 0 -1 0 
1 158.60000600000001 27.501574999999999 0 -1 0 0 
1 156.449997 27.501574999999999 0 0 -1 0 
1 156.449997 26.901575000000001 0 -1 0 0 
1 156.25 26.901575000000001 0 0 1 0 
1 156.25 27.501574999999999 0 -1 0 0 
1 154.699997 27.501574999999999 0 0 -1 0 
1 154.699997 22.795977000000001 0 -1 0 0 
1 154.35000600000001 22.795977000000001 0 0 1 0 
1 154.35000600000001 26.723776000000001 0 -1 0 0 
1 153 26.723776000000001 0 0 1 0 
1 153 26.923777000000001 0 1 0 0 
1 154.35000600000001 26.923777000000001 0 0 1 0 
1 154.35000600000001 29.251574999999999 0 -1 0 0 
1 153.550003 29.251574999999999 0 0 -1 0 
1 153.550003 27.651575000000001 0 -1 0 0 
1 153.35000600000001 27.651575000000001 0 0 1 0 
1 153.35000600000001 29.451574000000001 0 1 0 0 
1 154.35000600000001 29.451574000000001 0 0 1 0 
1 154.35000600000001 30.151575000000001 0 -1 0 0 
1 153.35000600000001 30.151575000000001 0 0 1 0 
1 153.35000600000001 30.351573999999999 0 1 0 0 
1 154.35000600000001 30.351573999999999 0 0 1 0 
1 154.35000600000001 30.701574000000001 0 1 0 0 
1 154.699997 30.701574000000001 0 0 -1 0 
1 154.699997 27.701574000000001 0 1 0 0 
1 158.39999399999999 27.701574000000001 0 0 1 0 
1 158.39999399999999 31.001574999999999 0 -1 0 0 
1 151.800003 31.001574999999999 0 0 -1 0 
1 151.800003 29.451574000000001 0 1 0 0 
1 152.550003 29.451574000000001 0 0 1 0 
1 152.550003 30.351573999999999 0 1 0 0 
1 152.75 30.351573999999999 0 0 -1 0 
1 152.75 29.251574999999999 0 -1 0 0 
1 151.800003 29.251574999999999 0 0 -1 0 
1 151.800003 27.501574999999999 0 -1 0 0 
1 149.64999399999999 27.501574999999999 0 0 -1 0 
1 149.64999399999999 26.901575000000001 0 -1 0 0 
1 149.449997 26.901575000000001 0 0 1 0 
1 149.449997 27.501574999999999 0 -1 0 0 
1 147.89999399999999 27.501574999999999 0 0 -1 0 
1 147.89999399999999 22.795977000000001 0 -1 0 0 
1 147.550003 22.795977000000001 0 0 1 0 
1 147.550003 26.723776000000001 0 -1 0 0 
1 146.199997 26.723776000000001 0 0 1 0 
1 146.199997 26.923777000000001 0 1 0 0 
1 147.550003 26.923777000000001 0 0 1 0 
1 147.550003 29.251574999999999 0 -1 0 0 
1 146.75 29.251574999999999 0 0 -1 0 
1 146.75 27.651575000000001 0 -1 0 0 
1 146.550003 27.651575000000001 0 0 1 0 
1 146.550003 29.451574000000001 0 1 0 0 
1 147.550003 29.451574000000001 0 0 1 0 
1 147.550003 30.151575000000001 0 -1 0 0 
1 146.550003 30.151575000000001 0 0 1 0 
1 146.550003 30.351573999999999 0 1 0 0 
1 147.550003 30.351573999999999 0 0 1 0 
1 147.550003 30.701574000000001 0 1 0 0 
1 147.89999399999999 30.701574000000001 0 0 -1 0 
1 147.89999399999999 27.701574000000001 0 1 0 0 
1 151.60000600000001 27.701574000000001 0 0 1 0 
1 151.60000600000001 31.001574999999999 0 -1 0 0 
1 145 31.001574999999999 0 0 -1 0 
1 145 29.451574000000001 0 1 0 0 
1 145.75 29.451574000000001 0 0 1 0 
1 145.75 30.351573999999999 0 1 0 0 
1 145.949997 30.351573999999999 0 0 -1 0 
1 145.949997 29.251574999999999 0 -1 0 0 
1 145 29.251574999999999 0 0 -1 0 
1 145 27.501574999999999 0 -1 0 0 
1 142.85000600000001 27.501574999999999 0 0 -1 0 
1 142.85000600000001 26.901575000000001 0 -1 0 0 
1 142.64999399999999 26.901575000000001 0 0 1 0 
1 142.64999399999999 27.501574999999999 0 -1 0 0 
1 141.10000600000001 27.501574999999999 0 0 -1 0 
1 141.10000600000001 22.795977000000001 0 -1 0 0 
1 140.75 22.795977000000001 0 0 1 0 
1 140.75 26.723776000000001 0 -1 0 0 
1 139.39999399999999 26.723776000000001 0 0 1 0 
1 139.39999399999999 26.923777000000001 0 1 0 0 
1 140.75 26.923777000000001 0 0 1 0 
1 140.75 29.251574999999999 0 -1 0 0 
1 139.949997 29.251574999999999 0 0 -1 0 
1 139.949997 27.651575000000001 0 -1 0 0 
1 139.75 27.651575000000001 0 0 1 0 
1 139.75 29.451574000000001 0 1 0 0 
1 140.75 29.451574000000001 0 0 1 0 
1 140.75 30.151575000000001 0 -1 0 0 
1 139.75 30.151575000000001 0 0 1 0 
1 139.75 30.351573999999999 0 1 0 0 
1 140.75 30.351573999999999 0 0 1 0 
1 140.75 30.701574000000001 0 1 0 0 
1 141.10000600000001 30.701574000000001 0 0 -1 0 
1 141.10000600000001 27.701574000000001 0 1 0 0 
1 144.800003 27.701574000000001 0 0 1 0 
1 144.800003 31.001574999999999 0 -1 0 0 
1 138.199997 31.001574999999999 0 0 -1 0 
1 138.199997 29.451574000000001 0 1 0 0 
1 138.949997 29.451574000000001 0 0 1 0 
1 138.949997 30.351573999999999 0 1 0 0 
1 139.14999399999999 30.351573999999999 0 0 -1 0 
1 139.14999399999999 29.251574999999999 0 -1 0 0 
1 138.199997 29.251574999999999 0 0 -1 0 
1 138.199997 27.501574999999999 0 -1 0 0 
1 136.050003 27.501574999999999 0 0 -1 0 
1 136.050003 26.901575000000001 0 -1 0 0 
1 135.85000600000001 26.901575000000001 0 0 1 0 
1 135.85000600000001 27.501574999999999 0 -1 0 0 
1 134.300003 27.501574999999999 0 0 -1 0 
1 134.300003 22.795977000000001 0 -1 0 0 
1 133.949997 22.795977000000001 0 0 1 0 
1 133.949997 26.723776000000001 0 -1 0 0 
1 132.60000600000001 26.723776000000001 0 0 1 0 
1 132.60000600000001 26.923777000000001 0 1 0 0 
1 133.949997 26.923777000000001 0 0 1 0 
1 133.949997 29.251574999999999 0 -1 0 0 
1 133.14999399999999 29.251574999999999 0 0 -1 0 
1 133.14999399999999 27.651575000000001 0 -1 0 0 
1 132.949997 27.651575000000001 0 0 1 0 
1 132.949997 29.451574000000001 0 1 0 0 
1 133.949997 29.451574000000001 0 0 1 0 
1 133.949997 30.151575000000001 0 -1 0 0 
1 132.949997 30.151575000000001 0 0 1 0 
1 132.949997 30.351573999999999 0 1 0 0 
1 133.949997 30.351573999999999 0 0 1 0 
1 133.949997 30.701574000000001 0 1 0 0 
1 134.300003 30.701574000000001 0 0 -1 0 
1 134.300003 27.701574000000001 0 1 0 0 
1 138 27.701574000000001 0 0 1 0 
1 138 31.001574999999999 0 -1 0 0 
1 131.39999399999999 31.001574999999999 0 0 -1 0 
1 131.39999399999999 29.451574000000001 0 1 0 0 
1 132.14999399999999 29.451574000000001 0 0 1 0 
1 132.14999399999999 30.351573999999999 0 1 0 0 
1 132.35000600000001 30.351573999999999 0 0 -1 0 
1 132.35000600000001 29.251574999999999 0 -1 0 0 
1 131.39999399999999 29.251574999999999 0 0 -1 0 
1 131.39999399999999 27.501574999999999 0 -1 0 0 
1 129.25 27.501574999999999 0 0 -1 0 
1 129.25 26.901575000000001 0 -1 0 0 
1 129.050003 26.901575000000001 0 0 1 0 
1 129.050003 27.501574999999999 0 -1 0 0 
1 127.5 27.501574999999999 0 0 -1 0 
1 127.5 22.795977000000001 0 -1 0 0 
1 127.150002 22.795977000000001 0 0 1 0 
1 127.150002 26.723776000000001 0 -1 0 0 
1 125.800003 26.723776000000001 0 0 1 0 
1 125.800003 26.923777000000001 0 1 0 0 
1 127.150002 26.923777000000001 0 0 1 0 
1 127.150002 29.251574999999999 0 -1 0 0 
1 126.349998 29.251574999999999 0 0 -1 0 
1 126.349998 27.651575000000001 0 -1 0 0 
1 126.150002 27.651575000000001 0 0 1 0 
1 126.150002 29.451574000000001 0 1 0 0 
1 127.150002 29.451574000000001 0 0 1 0 
1 127.150002 30.151575000000001 0 -1 0 0 
1 126.150002 30.151575000000001 0 0 1 0 
1 126.150002 30.351573999999999 0 1 0 0 
1 127.150002 30.351573999999999 0 0 1 0 
1 127.150002 30.701574000000001 0 1 0 0 
1 127.5 30.701574000000001 0 0 -1 0 
1 127.5 27.701574000000001 0 1 0 0 
1 131.199997 27.701574000000001 0 0 1 0 
1 131.199997 31.001574999999999 0 -1 0 0 
1 124.599998 31.001574999999999 0 0 -1 0 
1 124.599998 29.451574000000001 0 1 0 0 
1 125.349998 29.451574000000001 0 0 1 0 
1 125.349998 30.351573999999999 0 1 0 0 
1 125.550003 30.351573999999999 0 0 -1 0 
1 125.550003 29.251574999999999 0 -1 0 0 
1 124.599998 29.251574999999999 0 0 -1 0 
1 124.599998 27.501574999999999 0 -1 0 0 
1 122.449997 27.501574999999999 0 0 -1 0 
1 122.449997 26.901575000000001 0 -1 0 0 
1 122.25 26.901575000000001 0 0 1 0 
1 122.25 27.501574999999999 0 -1 0 0 
1 120.699997 27.501574999999999 0 0 -1 0 
1 120.699997 22.795977000000001 0 -1 0 0 
1 120.349998 22.795977000000001 0 0 1 0 
1 120.349998 26.723776000000001 0 -1 0 0 
1 119 26.723776000000001 0 0 1 0 
1 119 26.923777000000001 0 1 0 0 
1 120.349998 26.923777000000001 0 0 1 0 
1 120.349998 29.251574999999999 0 -1 0 0 
1 119.550003 29.251574999999999 0 0 -1 0 
1 119.550003 27.651575000000001 0 -1 0 0 
1 119.349998 27.651575000000001 0 0 1 0 
1 119.349998 29.451574000000001 0 1 0 0 
1 120.349998 29.451574000000001 0 0 1 0 
1 120.349998 30.151575000000001 0 -1 0 0 
1 119.349998 30.151575000000001 0 0 1 0 
1 119.349998 30.351573999999999 0 1 0 0 
1 120.349998 30.351573999999999 0 0 1 0 
1 120.349998 30.701574000000001 0 1 0 0 
1 120.699997 30.701574000000001 0 0 -1 0 
1 120.699997 27.701574000000001 0 1 0 0 
1 124.400002 27.701574000000001 0 0 1 0 
1 124.400002 31.001574999999999 0 -1 0 0 
1 117.800003 31.001574999999999 0 0 -1 0 
1 117.800003 29.451574000000001 0 1 0 0 
1 118.550003 29.451574000000001 0 0 1 0 
1 118.550003 30.351573999999999 0 1 0 0 
1 118.75 30.351573999999999 0 0 -1 0 
1 118.75 29.251574999999999 0 -1 0 0 
1 117.800003 29.251574999999999 0 0 -1 0 
1 117.800003 27.501574999999999 0 -1 0 0 
1 115.650002 27.501574999999999 0 0 -1 0 
1 115.650002 26.901575000000001 0 -1 0 0 
1 115.449997 26.901575000000001 0 0 1 0 
1 115.449997 27.501574999999999 0 -1 0 0 
1 113.900002 27.501574999999999 0 0 -1 0 
1 113.900002 22.795977000000001 0 -1 0 0 
1 113.550003 22.795977000000001 0 0 1 0 
1 113.550003 26.723776000000001 0 -1 0 0 
1 112.199997 26.723776000000001 0 0 1 0 
1 112.199997 26.923777000000001 0 1 0 0 
1 113.550003 26.923777000000001 0 0 1 0 
1 113.550003 29.251574999999999 0 -1 0 0 
1 112.75 29.251574999999999 0 0 -1 0 
1 112.75 27.651575000000001 0 -1 0 0 
1 112.550003 27.651575000000001 0 0 1 0 
1 112.550003 29.451574000000001 0 1 0 0 
1 113.550003 29.451574000000001 0 0 1 0 
1 113.550003 30.151575000000001 0 -1 0 0 
1 112.550003 30.151575000000001 0 0 1 0 
1 112.550003 30.351573999999999 0 1 0 0 
1 113.550003 30.351573999999999 0 0 1 0 
1 113.550003 30.701574000000001 0 1 0 0 
1 113.900002 30.701574000000001 0 0 -1 0 
1 113.900002 27.701574000000001 0 1 0 0 
1 117.599998 27.701574000000001 0 0 1 0 
1 117.599998 31.001574999999999 0 -1 0 0 
1 111 31.001574999999999 0 0 -1 0 
1 111 29.451574000000001 0 1 0 0 
1 111.75 29.451574000000001 0 0 1 0 
1 111.75 30.351573999999999 0 1 0 0 
1 111.949997 30.351573999999999 0 0 -1 0 
1 111.949997 29.251574999999999 0 -1 0 0 
1 111 29.251574999999999 0 0 -1 0 
1 111 27.501574999999999 0 -1 0 0 
1 108.849998 27.501574999999999 0 0 -1 0 
1 108.849998 26.901575000000001 0 -1 0 0 
1 108.650002 26.901575000000001 0 0 1 0 
1 108.650002 27.501574999999999 0 -1 0 0 
1 107.099998 27.501574999999999 0 0 -1 0 
1 107.099998 22.795977000000001 0 -1 0 0 
1 106.75 22.795977000000001 0 0 1 0 
1 106.75 30.701574000000001 0 1 0 0 
1 107.099998 30.701574000000001 0 0 -1 0 
1 107.099998 27.701574000000001 0 1 0 0 
1 110.800003 27.701574000000001 0 0 1 0 
1 110.800003 31.001574999999999 0 -1 0 0 
1 103.599998 31.001574999999999 0 0 -1 0 
1 103.599998 25.948775999999999 0 -1 0 0 
1 103.25 25.948775999999999 0 0 1 0 
1 103.25 31.001574999999999 0 -1 0 0 
1 96.800003000000004 31.001574999999999 0 0 -1 0 
1 96.800003000000004 22.495977 0 1 0 0 
1 98.25 22.495977 0 0 -1 0 
Polygon3D 0
PolygonOnTriangulations 0
Surfaces 1
1 130.4753981842824 25.336095480733899 0 0 0 1 1 0 -0 -0 1 0 
Triangulations 0

TShapes 846
Ve
1e-07
98.25 13.145978 0
0 0

0101101
*
Ve
1e-07
90.150002 13.145978 0
0 0

0101101
*
Ed
 1e-07 1 1 0
1  1 0 0 8.099998
0

0101000
+846 0 -845 0 *
Ve
1e-07
90.150002 10.2 0
0 0

0101101
*
Ed
 1e-07 1 1 0
1  2 0 0 2.945978
0

0101000
+845 0 -843 0 *
Ve
1e-07
97.300003 10.2 0
0 0

0101101
*
Ed
 1e-07 1 1 0
1  3 0 0 7.150001
0

0101000
+843 0 -841 0 *
Ve
1e-07
97.300003 9.85 0
0 0

0101101
*
Ed
 1e-07 1 1 0
1  4 0 0 0.35
0

0101000
+841 0 -839 0 *
Ve
1e-07
90.150002 9.85 0
0 0

0101101
*
Ed
 1e-07 1 1 0
1  5 0 0 7.150001
0

0101000
+839 0 -837 0 *
Ve
1e-07
90.150002 0.35 0
0 0

0101101
*
Ed
 1e-07 1 1 0
1  6 0 0 9.5
0

0101000
+837 0 -835 0 *
Ve
1e-07
99.650002 0.35 0
0 0

0101101
*
Ed
 1e-07 1 1 0
1  7 0 0 9.5
0

0101000
+835 0 -833 0 *
Ve
1e-07
99.650002 9.85 0
0 0

0101101
*
Ed
 1e-07 1 1 0
1  8 0 0 9.5
0

0101000
+833 0 -831 0 *
Ve
1e-07
98.199997 9.85 0
0 0

0101101
*
Ed
 1e-07 1 1 0
1  9 0 0 1.450005
0

0101000
+831 0 -829 0 *
Ve
1e-07
98.199997 10.2 0
0 0

0101101
*
Ed
 1e-07 1 1 0
1  10 0 0 0.35
0

0101000
+829 0 -827 0 *
Ve
1e-07
98.599998 10.2 0
0 0

0101101
*
Ed
 1e-07 1 1 0
1  11 0 0 0.400001000000003
0

0101000
+827 0 -825 0 *
Ve
1e-07
98.599998 22.495977 0
0 0

0101101
*
Ed
 1e-07 1 1 0
1  12 0 0 12.295977
0

0101000
+825 0 -823 0 *
Ve
1e-07
103.25 22.495977 0
0 0

0101101
*
Ed
 1e-07 1 1 0
1  13 0 0 4.650002
0

0101000
+823 0 -821 0 *
Ve
1e-07
103.25 25.148777 0
0 0

0101101
*
Ed
 1e-07 1 1 0
1  14 0 0 2.6528
0

0101000
+821 0 -819 0 *
Ve
1e-07
103.599998 25.148777 0
0 0

0101101
*
Ed
 1e-07 1 1 0
1  15 0 0 0.349997999999999
0

0101000
+819 0 -817 0 *
Ve
1e-07
103.599998 22.495977 0
0 0

0101101
*
Ed
 1e-07 1 1 0
1  16 0 0 2.6528
0

0101000
+817 0 -815 0 *
Ve
1e-07
110.800003 22.495977 0
0 0

0101101
*
Ed
 1e-07 1 1 0
1  17 0 0 7.200005
0

0101000
+815 0 -813 0 *
Ve
1e-07
110.800003 25.723776 0
0 0

0101101
*
Ed
 1e-07 1 1 0
1  18 0 0 3.227799
0

0101000
+813 0 -811 0 *
Ve
1e-07
111.400002 25.723776 0
0 0

0101101
*
Ed
 1e-07 1 1 0
1  19 0 0 0.599998999999997
0

0101000
+811 0 -809 0 *
Ve
1e-07
111.400002 26.723776 0
0 0

0101101
*
Ed
 1e-07 1 1 0
1  20 0 0 1
0

0101000
+809 0 -807 0 *
Ve
1e-07
110.800003 26.723776 0
0 0

0101101
*
Ed
 1e-07 1 1 0
1  21 0 0 0.599998999999997
0

0101000
+807 0 -805 0 *
Ve
1e-07
110.800003 26.923777 0
0 0

0101101
*
Ed
 1e-07 1 1 0
1  22 0 0 0.200001
0

0101000
+805 0 -803 0 *
Ve
1e-07
111.599998 26.923777 0
0 0

0101101
*
Ed
 1e-07 1 1 0
1  23 0 0 0.799994999999996
0

0101000
+803 0 -801 0 *
Ve
1e-07
111.599998 25.523777 0
0 0

0101101
*
Ed
 1e-07 1 1 0
1  24 0 0 1.4
0

0101000
+801 0 -799 0 *
Ve
1e-07
111 25.523777 0
0 0

0101101
*
Ed
 1e-07 1 1 0
1  25 0 0 0.599997999999999
0

0101000
+799 0 -797 0 *
Ve
1e-07
111 24.523777 0
0 0

0101101
*
Ed
 1e-07 1 1 0
1  26 0 0 1
0

0101000
+797 0 -795 0 *
Ve
1e-07
111.599998 24.523777 0
0 0

0101101
*
Ed
 1e-07 1 1 0
1  27 0 0 0.599997999999999
0

0101000
+795 0 -793 0 *
Ve
1e-07
111.599998 24.323776 0
0 0

0101101
*
Ed
 1e-07 1 1 0
1  28 0 0 0.200001
0

0101000
+793 0 -791 0 *
Ve
1e-07
111 24.323776 0
0 0

0101101
*
Ed
 1e-07 1 1 0
1  29 0 0 0.599997999999999
0

0101000
+791 0 -789 0 *
Ve
1e-07
111 22.495977 0
0 0

0101101
*
Ed
 1e-07 1 1 0
1  30 0 0 1.827799
0

0101000
+789 0 -787 0 *
Ve
1e-07
117.599998 22.495977 0
0 0

0101101
*
Ed
 1e-07 1 1 0
1  31 0 0 6.599998
0

0101000
+787 0 -785 0 *
Ve
1e-07
117.599998 25.723776 0
0 0

0101101
*
Ed
 1e-07 1 1 0
1  32 0 0 3.227799
0

0101000
+785 0 -783 0 *
Ve
1e-07
118.199997 25.723776 0
0 0

0101101
*
Ed
 1e-07 1 1 0
1  33 0 0 0.599998999999997
0

0101000
+783 0 -781 0 *
Ve
1e-07
118.199997 26.723776 0
0 0

0101101
*
Ed
 1e-07 1 1 0
1  34 0 0 1
0

0101000
+781 0 -779 0 *
Ve
1e-07
117.599998 26.723776 0
0 0

0101101
*
Ed
 1e-07 1 1 0
1  35 0 0 0.599998999999997
0

0101000
+779 0 -777 0 *
Ve
1e-07
117.599998 26.923777 0
0 0

0101101
*
Ed
 1e-07 1 1 0
1  36 0 0 0.200001
0

0101000
+777 0 -775 0 *
Ve
1e-07
118.400002 26.923777 0
0 0

0101101
*
Ed
 1e-07 1 1 0
1  37 0 0 0.800004000000001
0

0101000
+775 0 -773 0 *
Ve
1e-07
118.400002 25.523777 0
0 0

0101101
*
Ed
 1e-07 1 1 0
1  38 0 0 1.4
0

0101000
+773 0 -771 0 *
Ve
1e-07
117.800003 25.523777 0
0 0

0101101
*
Ed
 1e-07 1 1 0
1  39 0 0 0.599998999999997
0

0101000
+771 0 -769 0 *
Ve
1e-07
117.800003 24.523777 0
0 0

0101101
*
Ed
 1e-07 1 1 0
1  40 0 0 1
0

0101000
+769 0 -767 0 *
Ve
1e-07
118.400002 24.523777 0
0 0

0101101
*
Ed
 1e-07 1 1 0
1  41 0 0 0.599998999999997
0

0101000
+767 0 -765 0 *
Ve
1e-07
118.400002 24.323776 0
0 0

0101101
*
Ed
 1e-07 1 1 0
1  42 0 0 0.200001
0

0101000
+765 0 -763 0 *
Ve
1e-07
117.800003 24.323776 0
0 0

0101101
*
Ed
 1e-07 1 1 0
1  43 0 0 0.599998999999997
0

0101000
+763 0 -761 0 *
Ve
1e-07
117.800003 22.495977 0
0 0

0101101
*
Ed
 1e-07 1 1 0
1  44 0 0 1.827799
0

0101000
+761 0 -759 0 *
Ve
1e-07
124.400002 22.495977 0
0 0

0101101
*
Ed
 1e-07 1 1 0
1  45 0 0 6.599999
0

0101000
+759 0 -757 0 *
Ve
1e-07
124.400002 25.723776 0
0 0

0101101
*
Ed
 1e-07 1 1 0
1  46 0 0 3.227799
0

0101000
+757 0 -755 0 *
Ve
1e-07
125 25.723776 0
0 0

0101101
*
Ed
 1e-07 1 1 0
1  47 0 0 0.599997999999999
0

0101000
+755 0 -753 0 *
Ve
1e-07
125 26.723776 0
0 0

0101101
*
Ed
 1e-07 1 1 0
1  48 0 0 1
0

0101000
+753 0 -751 0 *
Ve
1e-07
124.400002 26.723776 0
0 0

0101101
*
Ed
 1e-07 1 1 0
1  49 0 0 0.599997999999999
0

0101000
+751 0 -749 0 *
Ve
1e-07
124.400002 26.923777 0
0 0

0101101
*
Ed
 1e-07 1 1 0
1  50 0 0 0.200001
0

0101000
+749 0 -747 0 *
Ve
1e-07
125.199997 26.923777 0
0 0

0101101
*
Ed
 1e-07 1 1 0
1  51 0 0 0.799994999999996
0

0101000
+747 0 -745 0 *
Ve
1e-07
125.199997 25.523777 0
0 0

0101101
*
Ed
 1e-07 1 1 0
1  52 0 0 1.4
0

0101000
+745 0 -743 0 *
Ve
1e-07
124.599998 25.523777 0
0 0

0101101
*
Ed
 1e-07 1 1 0
1  53 0 0 0.599998999999997
0

0101000
+743 0 -741 0 *
Ve
1e-07
124.599998 24.523777 0
0 0

0101101
*
Ed
 1e-07 1 1 0
1  54 0 0 1
0

0101000
+741 0 -739 0 *
Ve
1e-07
125.199997 24.523777 0
0 0

0101101
*
Ed
 1e-07 1 1 0
1  55 0 0 0.599998999999997
0

0101000
+739 0 -737 0 *
Ve
1e-07
125.199997 24.323776 0
0 0

0101101
*
Ed
 1e-07 1 1 0
1  56 0 0 0.200001
0

0101000
+737 0 -735 0 *
Ve
1e-07
124.599998 24.323776 0
0 0

0101101
*
Ed
 1e-07 1 1 0
1  57 0 0 0.599998999999997
0

0101000
+735 0 -733 0 *
Ve
1e-07
124.599998 22.495977 0
0 0

0101101
*
Ed
 1e-07 1 1 0
1  58 0 0 1.827799
0

0101000
+733 0 -731 0 *
Ve
1e-07
131.199997 22.495977 0
0 0

0101101
*
Ed
 1e-07 1 1 0
1  59 0 0 6.599999
0

0101000
+731 0 -729 0 *
Ve
1e-07
131.199997 25.723776 0
0 0

0101101
*
Ed
 1e-07 1 1 0
1  60 0 0 3.227799
0

0101000
+729 0 -727 0 *
Ve
1e-07
131.800003 25.723776 0
0 0

0101101
*
Ed
 1e-07 1 1 0
1  61 0 0 0.600006000000008
0

0101000
+727 0 -725 0 *
Ve
1e-07
131.800003 26.723776 0
0 0

0101101
*
Ed
 1e-07 1 1 0
1  62 0 0 1
0

0101000
+725 0 -723 0 *
Ve
1e-07
131.199997 26.723776 0
0 0

0101101
*
Ed
 1e-07 1 1 0
1  63 0 0 0.600006000000008
0

0101000
+723 0 -721 0 *
Ve
1e-07
131.199997 26.923777 0
0 0

0101101
*
Ed
 1e-07 1 1 0
1  64 0 0 0.200001
0

0101000
+721 0 -719 0 *
Ve
1e-07
132 26.923777 0
0 0

0101101
*
Ed
 1e-07 1 1 0
1  65 0 0 0.800003000000004
0

0101000
+719 0 -717 0 *
Ve
1e-07
132 25.523777 0
0 0

0101101
*
Ed
 1e-07 1 1 0
1  66 0 0 1.4
0

0101000
+717 0 -715 0 *
Ve
1e-07
131.399994 25.523777 0
0 0

0101101
*
Ed
 1e-07 1 1 0
1  67 0 0 0.600006000000008
0

0101000
+715 0 -713 0 *
Ve
1e-07
131.399994 24.523777 0
0 0

0101101
*
Ed
 1e-07 1 1 0
1  68 0 0 1
0

0101000
+713 0 -711 0 *
Ve
1e-07
132 24.523777 0
0 0

0101101
*
Ed
 1e-07 1 1 0
1  69 0 0 0.600006000000008
0

0101000
+711 0 -709 0 *
Ve
1e-07
132 24.323776 0
0 0

0101101
*
Ed
 1e-07 1 1 0
1  70 0 0 0.200001
0

0101000
+709 0 -707 0 *
Ve
1e-07
131.399994 24.323776 0
0 0

0101101
*
Ed
 1e-07 1 1 0
1  71 0 0 0.600006000000008
0

0101000
+707 0 -705 0 *
Ve
1e-07
131.399994 22.495977 0
0 0

0101101
*
Ed
 1e-07 1 1 0
1  72 0 0 1.827799
0

0101000
+705 0 -703 0 *
Ve
1e-07
138 22.495977 0
0 0

0101101
*
Ed
 1e-07 1 1 0
1  73 0 0 6.60000600000001
0

0101000
+703 0 -701 0 *
Ve
1e-07
138 25.723776 0
0 0

0101101
*
Ed
 1e-07 1 1 0
1  74 0 0 3.227799
0

0101000
+701 0 -699 0 *
Ve
1e-07
138.600006 25.723776 0
0 0

0101101
*
Ed
 1e-07 1 1 0
1  75 0 0 0.600006000000008
0

0101000
+699 0 -697 0 *
Ve
1e-07
138.600006 26.723776 0
0 0

0101101
*
Ed
 1e-07 1 1 0
1  76 0 0 1
0

0101000
+697 0 -695 0 *
Ve
1e-07
138 26.723776 0
0 0

0101101
*
Ed
 1e-07 1 1 0
1  77 0 0 0.600006000000008
0

0101000
+695 0 -693 0 *
Ve
1e-07
138 26.923777 0
0 0

0101101
*
Ed
 1e-07 1 1 0
1  78 0 0 0.200001
0

0101000
+693 0 -691 0 *
Ve
1e-07
138.800003 26.923777 0
0 0

0101101
*
Ed
 1e-07 1 1 0
1  79 0 0 0.800003000000004
0

0101000
+691 0 -689 0 *
Ve
1e-07
138.800003 25.523777 0
0 0

0101101
*
Ed
 1e-07 1 1 0
1  80 0 0 1.4
0

0101000
+689 0 -687 0 *
Ve
1e-07
138.199997 25.523777 0
0 0

0101101
*
Ed
 1e-07 1 1 0
1  81 0 0 0.600006000000008
0

0101000
+687 0 -685 0 *
Ve
1e-07
138.199997 24.523777 0
0 0

0101101
*
Ed
 1e-07 1 1 0
1  82 0 0 1
0

0101000
+685 0 -683 0 *
Ve
1e-07
138.800003 24.523777 0
0 0

0101101
*
Ed
 1e-07 1 1 0
1  83 0 0 0.600006000000008
0

0101000
+683 0 -681 0 *
Ve
1e-07
138.800003 24.323776 0
0 0

0101101
*
Ed
 1e-07 1 1 0
1  84 0 0 0.200001
0

0101000
+681 0 -679 0 *
Ve
1e-07
138.199997 24.323776 0
0 0

0101101
*
Ed
 1e-07 1 1 0
1  85 0 0 0.600006000000008
0

0101000
+679 0 -677 0 *
Ve
1e-07
138.199997 22.495977 0
0 0

0101101
*
Ed
 1e-07 1 1 0
1  86 0 0 1.827799
0

0101000
+677 0 -675 0 *
Ve
1e-07
144.800003 22.495977 0
0 0

0101101
*
Ed
 1e-07 1 1 0
1  87 0 0 6.60000600000001
0

0101000
+675 0 -673 0 *
Ve
1e-07
144.800003 25.723776 0
0 0

0101101
*
Ed
 1e-07 1 1 0
1  88 0 0 3.227799
0

0101000
+673 0 -671 0 *
Ve
1e-07
145.399994 25.723776 0
0 0

0101101
*
Ed
 1e-07 1 1 0
1  89 0 0 0.599990999999989
0

0101000
+671 0 -669 0 *
Ve
1e-07
145.399994 26.723776 0
0 0

0101101
*
Ed
 1e-07 1 1 0
1  90 0 0 1
0

0101000
+669 0 -667 0 *
Ve
1e-07
144.800003 26.723776 0
0 0

0101101
*
Ed
 1e-07 1 1 0
1  91 0 0 0.599990999999989
0

0101000
+667 0 -665 0 *
Ve
1e-07
144.800003 26.923777 0
0 0

0101101
*
Ed
 1e-07 1 1 0
1  92 0 0 0.200001
0

0101000
+665 0 -663 0 *
Ve
1e-07
145.600006 26.923777 0
0 0

0101101
*
Ed
 1e-07 1 1 0
1  93 0 0 0.800003000000004
0

0101000
+663 0 -661 0 *
Ve
1e-07
145.600006 25.523777 0
0 0

0101101
*
Ed
 1e-07 1 1 0
1  94 0 0 1.4
0

0101000
+661 0 -659 0 *
Ve
1e-07
145 25.523777 0
0 0

0101101
*
Ed
 1e-07 1 1 0
1  95 0 0 0.600006000000008
0

0101000
+659 0 -657 0 *
Ve
1e-07
145 24.523777 0
0 0

0101101
*
Ed
 1e-07 1 1 0
1  96 0 0 1
0

0101000
+657 0 -655 0 *
Ve
1e-07
145.600006 24.523777 0
0 0

0101101
*
Ed
 1e-07 1 1 0
1  97 0 0 0.600006000000008
0

0101000
+655 0 -653 0 *
Ve
1e-07
145.600006 24.323776 0
0 0

0101101
*
Ed
 1e-07 1 1 0
1  98 0 0 0.200001
0

0101000
+653 0 -651 0 *
Ve
1e-07
145 24.323776 0
0 0

0101101
*
Ed
 1e-07 1 1 0
1  99 0 0 0.600006000000008
0

0101000
+651 0 -649 0 *
Ve
1e-07
145 22.495977 0
0 0

0101101
*
Ed
 1e-07 1 1 0
1  100 0 0 1.827799
0

0101000
+649 0 -647 0 *
Ve
1e-07
151.600006 22.495977 0
0 0

0101101
*
Ed
 1e-07 1 1 0
1  101 0 0 6.60000600000001
0

0101000
+647 0 -645 0 *
Ve
1e-07
151.600006 25.723776 0
0 0

0101101
*
Ed
 1e-07 1 1 0
1  102 0 0 3.227799
0

0101000
+645 0 -643 0 *
Ve
1e-07
152.199997 25.723776 0
0 0

0101101
*
Ed
 1e-07 1 1 0
1  103 0 0 0.599990999999989
0

0101000
+643 0 -641 0 *
Ve
1e-07
152.199997 26.723776 0
0 0

0101101
*
Ed
 1e-07 1 1 0
1  104 0 0 1
0

0101000
+641 0 -639 0 *
Ve
1e-07
151.600006 26.723776 0
0 0

0101101
*
Ed
 1e-07 1 1 0
1  105 0 0 0.599990999999989
0

0101000
+639 0 -637 0 *
Ve
1e-07
151.600006 26.923777 0
0 0

0101101
*
Ed
 1e-07 1 1 0
1  106 0 0 0.200001
0

0101000
+637 0 -635 0 *
Ve
1e-07
152.399994 26.923777 0
0 0

0101101
*
Ed
 1e-07 1 1 0
1  107 0 0 0.799987999999985
0

0101000
+635 0 -633 0 *
Ve
1e-07
152.399994 25.523777 0
0 0

0101101
*
Ed
 1e-07 1 1 0
1  108 0 0 1.4
0

0101000
+633 0 -631 0 *
Ve
1e-07
151.800003 25.523777 0
0 0

0101101
*
Ed
 1e-07 1 1 0
1  109 0 0 0.599990999999989
0

0101000
+631 0 -629 0 *
Ve
1e-07
151.800003 24.523777 0
0 0

0101101
*
Ed
 1e-07 1 1 0
1  110 0 0 1
0

0101000
+629 0 -627 0 *
Ve
1e-07
152.399994 24.523777 0
0 0

0101101
*
Ed
 1e-07 1 1 0
1  111 0 0 0.599990999999989
0

0101000
+627 0 -625 0 *
Ve
1e-07
152.399994 24.323776 0
0 0

0101101
*
Ed
 1e-07 1 1 0
1  112 0 0 0.200001
0

0101000
+625 0 -623 0 *
Ve
1e-07
151.800003 24.323776 0
0 0

0101101
*
Ed
 1e-07 1 1 0
1  113 0 0 0.599990999999989
0

0101000
+623 0 -621 0 *
Ve
1e-07
151.800003 22.495977 0
0 0

0101101
*
Ed
 1e-07 1 1 0
1  114 0 0 1.827799
0

0101000
+621 0 -619 0 *
Ve
1e-07
158.399994 22.495977 0
0 0

0101101
*
Ed
 1e-07 1 1 0
1  115 0 0 6.59999099999999
0

0101000
+619 0 -617 0 *
Ve
1e-07
158.399994 25.723776 0
0 0

0101101
*
Ed
 1e-07 1 1 0
1  116 0 0 3.227799
0

0101000
+617 0 -615 0 *
Ve
1e-07
159 25.723776 0
0 0

0101101
*
Ed
 1e-07 1 1 0
1  117 0 0 0.600006000000008
0

0101000
+615 0 -613 0 *
Ve
1e-07
159 26.723776 0
0 0

0101101
*
Ed
 1e-07 1 1 0
1  118 0 0 1
0

0101000
+613 0 -611 0 *
Ve
1e-07
158.399994 26.723776 0
0 0

0101101
*
Ed
 1e-07 1 1 0
1  119 0 0 0.600006000000008
0

0101000
+611 0 -609 0 *
Ve
1e-07
158.399994 26.923777 0
0 0

0101101
*
Ed
 1e-07 1 1 0
1  120 0 0 0.200001
0

0101000
+609 0 -607 0 *
Ve
1e-07
159.199997 26.923777 0
0 0

0101101
*
Ed
 1e-07 1 1 0
1  121 0 0 0.800003000000004
0

0101000
+607 0 -605 0 *
Ve
1e-07
159.199997 25.523777 0
0 0

0101101
*
Ed
 1e-07 1 1 0
1  122 0 0 1.4
0

0101000
+605 0 -603 0 *
Ve
1e-07
158.600006 25.523777 0
0 0

0101101
*
Ed
 1e-07 1 1 0
1  123 0 0 0.599990999999989
0

0101000
+603 0 -601 0 *
Ve
1e-07
158.600006 24.523777 0
0 0

0101101
*
Ed
 1e-07 1 1 0
1  124 0 0 1
0

0101000
+601 0 -599 0 *
Ve
1e-07
159.199997 24.523777 0
0 0

0101101
*
Ed
 1e-07 1 1 0
1  125 0 0 0.599990999999989
0

0101000
+599 0 -597 0 *
Ve
1e-07
159.199997 24.323776 0
0 0

0101101
*
Ed
 1e-07 1 1 0
1  126 0 0 0.200001
0

0101000
+597 0 -595 0 *
Ve
1e-07
158.600006 24.323776 0
0 0

0101101
*
Ed
 1e-07 1 1 0
1  127 0 0 0.599990999999989
0

0101000
+595 0 -593 0 *
Ve
1e-07
158.600006 22.495977 0
0 0

0101101
*
Ed
 1e-07 1 1 0
1  128 0 0 1.827799
0

0101000
+593 0 -591 0 *
Ve
1e-07
164.649994 22.495977 0
0 0

0101101
*
Ed
 1e-07 1 1 0
1  129 0 0 6.04998799999998
0

0101000
+591 0 -589 0 *
Ve
1e-07
164.649994 25.148777 0
0 0

0101101
*
Ed
 1e-07 1 1 0
1  130 0 0 2.6528
0

0101000
+589 0 -587 0 *
Ve
1e-07
165 25.148777 0
0 0

0101101
*
Ed
 1e-07 1 1 0
1  131 0 0 0.350006000000008
0

0101000
+587 0 -585 0 *
Ve
1e-07
165 22.495977 0
0 0

0101101
*
Ed
 1e-07 1 1 0
1  132 0 0 2.6528
0

0101000
+585 0 -583 0 *
Ve
1e-07
171.399994 22.495977 0
0 0

0101101
*
Ed
 1e-07 1 1 0
1  133 0 0 6.39999399999999
0

0101000
+583 0 -581 0 *
Ve
1e-07
171.399994 31.001575 0
0 0

0101101
*
Ed
 1e-07 1 1 0
1  134 0 0 8.505598
0

0101000
+581 0 -579 0 *
Ve
1e-07
165 31.001575 0
0 0

0101101
*
Ed
 1e-07 1 1 0
1  135 0 0 6.39999399999999
0

0101000
+579 0 -577 0 *
Ve
1e-07
165 25.948776 0
0 0

0101101
*
Ed
 1e-07 1 1 0
1  136 0 0 5.052799
0

0101000
+577 0 -575 0 *
Ve
1e-07
164.649994 25.948776 0
0 0

0101101
*
Ed
 1e-07 1 1 0
1  137 0 0 0.350006000000008
0

0101000
+575 0 -573 0 *
Ve
1e-07
164.649994 31.001575 0
0 0

0101101
*
Ed
 1e-07 1 1 0
1  138 0 0 5.052799
0

0101000
+573 0 -571 0 *
Ve
1e-07
161.5 31.001575 0
0 0

0101101
*
Ed
 1e-07 1 1 0
1  139 0 0 3.14999399999999
0

0101000
+571 0 -569 0 *
Ve
1e-07
161.5 22.795977 0
0 0

0101101
*
Ed
 1e-07 1 1 0
1  140 0 0 8.205598
0

0101000
+569 0 -567 0 *
Ve
1e-07
161.149994 22.795977 0
0 0

0101101
*
Ed
 1e-07 1 1 0
1  141 0 0 0.350006000000008
0

0101000
+567 0 -565 0 *
Ve
1e-07
161.149994 26.723776 0
0 0

0101101
*
Ed
 1e-07 1 1 0
1  142 0 0 3.927799
0

0101000
+565 0 -563 0 *
Ve
1e-07
159.800003 26.723776 0
0 0

0101101
*
Ed
 1e-07 1 1 0
1  143 0 0 1.34999099999999
0

0101000
+563 0 -561 0 *
Ve
1e-07
159.800003 26.923777 0
0 0

0101101
*
Ed
 1e-07 1 1 0
1  144 0 0 0.200001
0

0101000
+561 0 -559 0 *
Ve
1e-07
161.149994 26.923777 0
0 0

0101101
*
Ed
 1e-07 1 1 0
1  145 0 0 1.34999099999999
0

0101000
+559 0 -557 0 *
Ve
1e-07
161.149994 29.251575 0
0 0

0101101
*
Ed
 1e-07 1 1 0
1  146 0 0 2.327798
0

0101000
+557 0 -555 0 *
Ve
1e-07
160.350006 29.251575 0
0 0

0101101
*
Ed
 1e-07 1 1 0
1  147 0 0 0.799987999999985
0

0101000
+555 0 -553 0 *
Ve
1e-07
160.350006 27.651575 0
0 0

0101101
*
Ed
 1e-07 1 1 0
1  148 0 0 1.6
0

0101000
+553 0 -551 0 *
Ve
1e-07
160.149994 27.651575 0
0 0

0101101
*
Ed
 1e-07 1 1 0
1  149 0 0 0.200012000000015
0

0101000
+551 0 -549 0 *
Ve
1e-07
160.149994 29.451574 0
0 0

0101101
*
Ed
 1e-07 1 1 0
1  150 0 0 1.799999
0

0101000
+549 0 -547 0 *
Ve
1e-07
161.149994 29.451574 0
0 0

0101101
*
Ed
 1e-07 1 1 0
1  151 0 0 1
0

0101000
+547 0 -545 0 *
Ve
1e-07
161.149994 30.151575 0
0 0

0101101
*
Ed
 1e-07 1 1 0
1  152 0 0 0.700001
0

0101000
+545 0 -543 0 *
Ve
1e-07
160.149994 30.151575 0
0 0

0101101
*
Ed
 1e-07 1 1 0
1  153 0 0 1
0

0101000
+543 0 -541 0 *
Ve
1e-07
160.149994 30.351574 0
0 0

0101101
*
Ed
 1e-07 1 1 0
1  154 0 0 0.199998999999998
0

0101000
+541 0 -539 0 *
Ve
1e-07
161.149994 30.351574 0
0 0

0101101
*
Ed
 1e-07 1 1 0
1  155 0 0 1
0

0101000
+539 0 -537 0 *
Ve
1e-07
161.149994 31.001575 0
0 0

0101101
*
Ed
 1e-07 1 1 0
1  156 0 0 0.650001
0

0101000
+537 0 -535 0 *
Ve
1e-07
158.600006 31.001575 0
0 0

0101101
*
Ed
 1e-07 1 1 0
1  157 0 0 2.54998799999998
0

0101000
+535 0 -533 0 *
Ve
1e-07
158.600006 29.451574 0
0 0

0101101
*
Ed
 1e-07 1 1 0
1  158 0 0 1.550001
0

0101000
+533 0 -531 0 *
Ve
1e-07
159.350006 29.451574 0
0 0

0101101
*
Ed
 1e-07 1 1 0
1  159 0 0 0.75
0

0101000
+531 0 -529 0 *
Ve
1e-07
159.350006 30.351574 0
0 0

0101101
*
Ed
 1e-07 1 1 0
1  160 0 0 0.899999999999999
0

0101000
+529 0 -527 0 *
Ve
1e-07
159.550003 30.351574 0
0 0

0101101
*
Ed
 1e-07 1 1 0
1  161 0 0 0.199996999999996
0

0101000
+527 0 -525 0 *
Ve
1e-07
159.550003 29.251575 0
0 0

0101101
*
Ed
 1e-07 1 1 0
1  162 0 0 1.099999
0

0101000
+525 0 -523 0 *
Ve
1e-07
158.600006 29.251575 0
0 0

0101101
*
Ed
 1e-07 1 1 0
1  163 0 0 0.949996999999996
0

0101000
+523 0 -521 0 *
Ve
1e-07
158.600006 27.501575 0
0 0

0101101
*
Ed
 1e-07 1 1 0
1  164 0 0 1.75
0

0101000
+521 0 -519 0 *
Ve
1e-07
156.449997 27.501575 0
0 0

0101101
*
Ed
 1e-07 1 1 0
1  165 0 0 2.15000900000001
0

0101000
+519 0 -517 0 *
Ve
1e-07
156.449997 26.901575 0
0 0

0101101
*
Ed
 1e-07 1 1 0
1  166 0 0 0.599999999999998
0

0101000
+517 0 -515 0 *
Ve
1e-07
156.25 26.901575 0
0 0

0101101
*
Ed
 1e-07 1 1 0
1  167 0 0 0.199996999999996
0

0101000
+515 0 -513 0 *
Ve
1e-07
156.25 27.501575 0
0 0

0101101
*
Ed
 1e-07 1 1 0
1  168 0 0 0.599999999999998
0

0101000
+513 0 -511 0 *
Ve
1e-07
154.699997 27.501575 0
0 0

0101101
*
Ed
 1e-07 1 1 0
1  169 0 0 1.550003
0

0101000
+511 0 -509 0 *
Ve
1e-07
154.699997 22.795977 0
0 0

0101101
*
Ed
 1e-07 1 1 0
1  170 0 0 4.705598
0

0101000
+509 0 -507 0 *
Ve
1e-07
154.350006 22.795977 0
0 0

0101101
*
Ed
 1e-07 1 1 0
1  171 0 0 0.349990999999989
0

0101000
+507 0 -505 0 *
Ve
1e-07
154.350006 26.723776 0
0 0

0101101
*
Ed
 1e-07 1 1 0
1  172 0 0 3.927799
0

0101000
+505 0 -503 0 *
Ve
1e-07
153 26.723776 0
0 0

0101101
*
Ed
 1e-07 1 1 0
1  173 0 0 1.35000600000001
0

0101000
+503 0 -501 0 *
Ve
1e-07
153 26.923777 0
0 0

0101101
*
Ed
 1e-07 1 1 0
1  174 0 0 0.200001
0

0101000
+501 0 -499 0 *
Ve
1e-07
154.350006 26.923777 0
0 0

0101101
*
Ed
 1e-07 1 1 0
1  175 0 0 1.35000600000001
0

0101000
+499 0 -497 0 *
Ve
1e-07
154.350006 29.251575 0
0 0

0101101
*
Ed
 1e-07 1 1 0
1  176 0 0 2.327798
0

0101000
+497 0 -495 0 *
Ve
1e-07
153.550003 29.251575 0
0 0

0101101
*
Ed
 1e-07 1 1 0
1  177 0 0 0.800003000000004
0

0101000
+495 0 -493 0 *
Ve
1e-07
153.550003 27.651575 0
0 0

0101101
*
Ed
 1e-07 1 1 0
1  178 0 0 1.6
0

0101000
+493 0 -491 0 *
Ve
1e-07
153.350006 27.651575 0
0 0

0101101
*
Ed
 1e-07 1 1 0
1  179 0 0 0.199996999999996
0

0101000
+491 0 -489 0 *
Ve
1e-07
153.350006 29.451574 0
0 0

0101101
*
Ed
 1e-07 1 1 0
1  180 0 0 1.799999
0

0101000
+489 0 -487 0 *
Ve
1e-07
154.350006 29.451574 0
0 0

0101101
*
Ed
 1e-07 1 1 0
1  181 0 0 1
0

0101000
+487 0 -485 0 *
Ve
1e-07
154.350006 30.151575 0
0 0

0101101
*
Ed
 1e-07 1 1 0
1  182 0 0 0.700001
0

0101000
+485 0 -483 0 *
Ve
1e-07
153.350006 30.151575 0
0 0

0101101
*
Ed
 1e-07 1 1 0
1  183 0 0 1
0

0101000
+483 0 -481 0 *
Ve
1e-07
153.350006 30.351574 0
0 0

0101101
*
Ed
 1e-07 1 1 0
1  184 0 0 0.199998999999998
0

0101000
+481 0 -479 0 *
Ve
1e-07
154.350006 30.351574 0
0 0

0101101
*
Ed
 1e-07 1 1 0
1  185 0 0 1
0

0101000
+479 0 -477 0 *
Ve
1e-07
154.350006 30.701574 0
0 0

0101101
*
Ed
 1e-07 1 1 0
1  186 0 0 0.350000000000001
0

0101000
+477 0 -475 0 *
Ve
1e-07
154.699997 30.701574 0
0 0

0101101
*
Ed
 1e-07 1 1 0
1  187 0 0 0.349990999999989
0

0101000
+475 0 -473 0 *
Ve
1e-07
154.699997 27.701574 0
0 0

0101101
*
Ed
 1e-07 1 1 0
1  188 0 0 3
0

0101000
+473 0 -471 0 *
Ve
1e-07
158.399994 27.701574 0
0 0

0101101
*
Ed
 1e-07 1 1 0
1  189 0 0 3.699997
0

0101000
+471 0 -469 0 *
Ve
1e-07
158.399994 31.001575 0
0 0

0101101
*
Ed
 1e-07 1 1 0
1  190 0 0 3.300001
0

0101000
+469 0 -467 0 *
Ve
1e-07
151.800003 31.001575 0
0 0

0101101
*
Ed
 1e-07 1 1 0
1  191 0 0 6.59999099999999
0

0101000
+467 0 -465 0 *
Ve
1e-07
151.800003 29.451574 0
0 0

0101101
*
Ed
 1e-07 1 1 0
1  192 0 0 1.550001
0

0101000
+465 0 -463 0 *
Ve
1e-07
152.550003 29.451574 0
0 0

0101101
*
Ed
 1e-07 1 1 0
1  193 0 0 0.75
0

0101000
+463 0 -461 0 *
Ve
1e-07
152.550003 30.351574 0
0 0

0101101
*
Ed
 1e-07 1 1 0
1  194 0 0 0.899999999999999
0

0101000
+461 0 -459 0 *
Ve
1e-07
152.75 30.351574 0
0 0

0101101
*
Ed
 1e-07 1 1 0
1  195 0 0 0.199996999999996
0

0101000
+459 0 -457 0 *
Ve
1e-07
152.75 29.251575 0
0 0

0101101
*
Ed
 1e-07 1 1 0
1  196 0 0 1.099999
0

0101000
+457 0 -455 0 *
Ve
1e-07
151.800003 29.251575 0
0 0

0101101
*
Ed
 1e-07 1 1 0
1  197 0 0 0.949996999999996
0

0101000
+455 0 -453 0 *
Ve
1e-07
151.800003 27.501575 0
0 0

0101101
*
Ed
 1e-07 1 1 0
1  198 0 0 1.75
0

0101000
+453 0 -451 0 *
Ve
1e-07
149.649994 27.501575 0
0 0

0101101
*
Ed
 1e-07 1 1 0
1  199 0 0 2.15000900000001
0

0101000
+451 0 -449 0 *
Ve
1e-07
149.649994 26.901575 0
0 0

0101101
*
Ed
 1e-07 1 1 0
1  200 0 0 0.599999999999998
0

0101000
+449 0 -447 0 *
Ve
1e-07
149.449997 26.901575 0
0 0

0101101
*
Ed
 1e-07 1 1 0
1  201 0 0 0.199996999999996
0

0101000
+447 0 -445 0 *
Ve
1e-07
149.449997 27.501575 0
0 0

0101101
*
Ed
 1e-07 1 1 0
1  202 0 0 0.599999999999998
0

0101000
+445 0 -443 0 *
Ve
1e-07
147.899994 27.501575 0
0 0

0101101
*
Ed
 1e-07 1 1 0
1  203 0 0 1.550003
0

0101000
+443 0 -441 0 *
Ve
1e-07
147.899994 22.795977 0
0 0

0101101
*
Ed
 1e-07 1 1 0
1  204 0 0 4.705598
0

0101000
+441 0 -439 0 *
Ve
1e-07
147.550003 22.795977 0
0 0

0101101
*
Ed
 1e-07 1 1 0
1  205 0 0 0.349990999999989
0

0101000
+439 0 -437 0 *
Ve
1e-07
147.550003 26.723776 0
0 0

0101101
*
Ed
 1e-07 1 1 0
1  206 0 0 3.927799
0

0101000
+437 0 -435 0 *
Ve
1e-07
146.199997 26.723776 0
0 0

0101101
*
Ed
 1e-07 1 1 0
1  207 0 0 1.35000600000001
0

0101000
+435 0 -433 0 *
Ve
1e-07
146.199997 26.923777 0
0 0

0101101
*
Ed
 1e-07 1 1 0
1  208 0 0 0.200001
0

0101000
+433 0 -431 0 *
Ve
1e-07
147.550003 26.923777 0
0 0

0101101
*
Ed
 1e-07 1 1 0
1  209 0 0 1.35000600000001
0

0101000
+431 0 -429 0 *
Ve
1e-07
147.550003 29.251575 0
0 0

0101101
*
Ed
 1e-07 1 1 0
1  210 0 0 2.327798
0

0101000
+429 0 -427 0 *
Ve
1e-07
146.75 29.251575 0
0 0

0101101
*
Ed
 1e-07 1 1 0
1  211 0 0 0.800003000000004
0

0101000
+427 0 -425 0 *
Ve
1e-07
146.75 27.651575 0
0 0

0101101
*
Ed
 1e-07 1 1 0
1  212 0 0 1.6
0

0101000
+425 0 -423 0 *
Ve
1e-07
146.550003 27.651575 0
0 0

0101101
*
Ed
 1e-07 1 1 0
1  213 0 0 0.199996999999996
0

0101000
+423 0 -421 0 *
Ve
1e-07
146.550003 29.451574 0
0 0

0101101
*
Ed
 1e-07 1 1 0
1  214 0 0 1.799999
0

0101000
+421 0 -419 0 *
Ve
1e-07
147.550003 29.451574 0
0 0

0101101
*
Ed
 1e-07 1 1 0
1  215 0 0 1
0

0101000
+419 0 -417 0 *
Ve
1e-07
147.550003 30.151575 0
0 0

0101101
*
Ed
 1e-07 1 1 0
1  216 0 0 0.700001
0

0101000
+417 0 -415 0 *
Ve
1e-07
146.550003 30.151575 0
0 0

0101101
*
Ed
 1e-07 1 1 0
1  217 0 0 1
0

0101000
+415 0 -413 0 *
Ve
1e-07
146.550003 30.351574 0
0 0

0101101
*
Ed
 1e-07 1 1 0
1  218 0 0 0.199998999999998
0

0101000
+413 0 -411 0 *
Ve
1e-07
147.550003 30.351574 0
0 0

0101101
*
Ed
 1e-07 1 1 0
1  219 0 0 1
0

0101000
+411 0 -409 0 *
Ve
1e-07
147.550003 30.701574 0
0 0

0101101
*
Ed
 1e-07 1 1 0
1  220 0 0 0.350000000000001
0

0101000
+409 0 -407 0 *
Ve
1e-07
147.899994 30.701574 0
0 0

0101101
*
Ed
 1e-07 1 1 0
1  221 0 0 0.349990999999989
0

0101000
+407 0 -405 0 *
Ve
1e-07
147.899994 27.701574 0
0 0

0101101
*
Ed
 1e-07 1 1 0
1  222 0 0 3
0

0101000
+405 0 -403 0 *
Ve
1e-07
151.600006 27.701574 0
0 0

0101101
*
Ed
 1e-07 1 1 0
1  223 0 0 3.70001200000002
0

0101000
+403 0 -401 0 *
Ve
1e-07
151.600006 31.001575 0
0 0

0101101
*
Ed
 1e-07 1 1 0
1  224 0 0 3.300001
0

0101000
+401 0 -399 0 *
Ve
1e-07
145 31.001575 0
0 0

0101101
*
Ed
 1e-07 1 1 0
1  225 0 0 6.60000600000001
0

0101000
+399 0 -397 0 *
Ve
1e-07
145 29.451574 0
0 0

0101101
*
Ed
 1e-07 1 1 0
1  226 0 0 1.550001
0

0101000
+397 0 -395 0 *
Ve
1e-07
145.75 29.451574 0
0 0

0101101
*
Ed
 1e-07 1 1 0
1  227 0 0 0.75
0

0101000
+395 0 -393 0 *
Ve
1e-07
145.75 30.351574 0
0 0

0101101
*
Ed
 1e-07 1 1 0
1  228 0 0 0.899999999999999
0

0101000
+393 0 -391 0 *
Ve
1e-07
145.949997 30.351574 0
0 0

0101101
*
Ed
 1e-07 1 1 0
1  229 0 0 0.199996999999996
0

0101000
+391 0 -389 0 *
Ve
1e-07
145.949997 29.251575 0
0 0

0101101
*
Ed
 1e-07 1 1 0
1  230 0 0 1.099999
0

0101000
+389 0 -387 0 *
Ve
1e-07
145 29.251575 0
0 0

0101101
*
Ed
 1e-07 1 1 0
1  231 0 0 0.949996999999996
0

0101000
+387 0 -385 0 *
Ve
1e-07
145 27.501575 0
0 0

0101101
*
Ed
 1e-07 1 1 0
1  232 0 0 1.75
0

0101000
+385 0 -383 0 *
Ve
1e-07
142.850006 27.501575 0
0 0

0101101
*
Ed
 1e-07 1 1 0
1  233 0 0 2.14999399999999
0

0101000
+383 0 -381 0 *
Ve
1e-07
142.850006 26.901575 0
0 0

0101101
*
Ed
 1e-07 1 1 0
1  234 0 0 0.599999999999998
0

0101000
+381 0 -379 0 *
Ve
1e-07
142.649994 26.901575 0
0 0

0101101
*
Ed
 1e-07 1 1 0
1  235 0 0 0.200012000000015
0

0101000
+379 0 -377 0 *
Ve
1e-07
142.649994 27.501575 0
0 0

0101101
*
Ed
 1e-07 1 1 0
1  236 0 0 0.599999999999998
0

0101000
+377 0 -375 0 *
Ve
1e-07
141.100006 27.501575 0
0 0

0101101
*
Ed
 1e-07 1 1 0
1  237 0 0 1.54998799999998
0

0101000
+375 0 -373 0 *
Ve
1e-07
141.100006 22.795977 0
0 0

0101101
*
Ed
 1e-07 1 1 0
1  238 0 0 4.705598
0

0101000
+373 0 -371 0 *
Ve
1e-07
140.75 22.795977 0
0 0

0101101
*
Ed
 1e-07 1 1 0
1  239 0 0 0.350006000000008
0

0101000
+371 0 -369 0 *
Ve
1e-07
140.75 26.723776 0
0 0

0101101
*
Ed
 1e-07 1 1 0
1  240 0 0 3.927799
0

0101000
+369 0 -367 0 *
Ve
1e-07
139.399994 26.723776 0
0 0

0101101
*
Ed
 1e-07 1 1 0
1  241 0 0 1.35000600000001
0

0101000
+367 0 -365 0 *
Ve
1e-07
139.399994 26.923777 0
0 0

0101101
*
Ed
 1e-07 1 1 0
1  242 0 0 0.200001
0

0101000
+365 0 -363 0 *
Ve
1e-07
140.75 26.923777 0
0 0

0101101
*
Ed
 1e-07 1 1 0
1  243 0 0 1.35000600000001
0

0101000
+363 0 -361 0 *
Ve
1e-07
140.75 29.251575 0
0 0

0101101
*
Ed
 1e-07 1 1 0
1  244 0 0 2.327798
0

0101000
+361 0 -359 0 *
Ve
1e-07
139.949997 29.251575 0
0 0

0101101
*
Ed
 1e-07 1 1 0
1  245 0 0 0.800003000000004
0

0101000
+359 0 -357 0 *
Ve
1e-07
139.949997 27.651575 0
0 0

0101101
*
Ed
 1e-07 1 1 0
1  246 0 0 1.6
0

0101000
+357 0 -355 0 *
Ve
1e-07
139.75 27.651575 0
0 0

0101101
*
Ed
 1e-07 1 1 0
1  247 0 0 0.199996999999996
0

0101000
+355 0 -353 0 *
Ve
1e-07
139.75 29.451574 0
0 0

0101101
*
Ed
 1e-07 1 1 0
1  248 0 0 1.799999
0

0101000
+353 0 -351 0 *
Ve
1e-07
140.75 29.451574 0
0 0

0101101
*
Ed
 1e-07 1 1 0
1  249 0 0 1
0

0101000
+351 0 -349 0 *
Ve
1e-07
140.75 30.151575 0
0 0

0101101
*
Ed
 1e-07 1 1 0
1  250 0 0 0.700001
0

0101000
+349 0 -347 0 *
Ve
1e-07
139.75 30.151575 0
0 0

0101101
*
Ed
 1e-07 1 1 0
1  251 0 0 1
0

0101000
+347 0 -345 0 *
Ve
1e-07
139.75 30.351574 0
0 0

0101101
*
Ed
 1e-07 1 1 0
1  252 0 0 0.199998999999998
0

0101000
+345 0 -343 0 *
Ve
1e-07
140.75 30.351574 0
0 0

0101101
*
Ed
 1e-07 1 1 0
1  253 0 0 1
0

0101000
+343 0 -341 0 *
Ve
1e-07
140.75 30.701574 0
0 0

0101101
*
Ed
 1e-07 1 1 0
1  254 0 0 0.350000000000001
0

0101000
+341 0 -339 0 *
Ve
1e-07
141.100006 30.701574 0
0 0

0101101
*
Ed
 1e-07 1 1 0
1  255 0 0 0.350006000000008
0

0101000
+339 0 -337 0 *
Ve
1e-07
141.100006 27.701574 0
0 0

0101101
*
Ed
 1e-07 1 1 0
1  256 0 0 3
0

0101000
+337 0 -335 0 *
Ve
1e-07
144.800003 27.701574 0
0 0

0101101
*
Ed
 1e-07 1 1 0
1  257 0 0 3.699997
0

0101000
+335 0 -333 0 *
Ve
1e-07
144.800003 31.001575 0
0 0

0101101
*
Ed
 1e-07 1 1 0
1  258 0 0 3.300001
0

0101000
+333 0 -331 0 *
Ve
1e-07
138.199997 31.001575 0
0 0

0101101
*
Ed
 1e-07 1 1 0
1  259 0 0 6.60000600000001
0

0101000
+331 0 -329 0 *
Ve
1e-07
138.199997 29.451574 0
0 0

0101101
*
Ed
 1e-07 1 1 0
1  260 0 0 1.550001
0

0101000
+329 0 -327 0 *
Ve
1e-07
138.949997 29.451574 0
0 0

0101101
*
Ed
 1e-07 1 1 0
1  261 0 0 0.75
0

0101000
+327 0 -325 0 *
Ve
1e-07
138.949997 30.351574 0
0 0

0101101
*
Ed
 1e-07 1 1 0
1  262 0 0 0.899999999999999
0

0101000
+325 0 -323 0 *
Ve
1e-07
139.149994 30.351574 0
0 0

0101101
*
Ed
 1e-07 1 1 0
1  263 0 0 0.199996999999996
0

0101000
+323 0 -321 0 *
Ve
1e-07
139.149994 29.251575 0
0 0

0101101
*
Ed
 1e-07 1 1 0
1  264 0 0 1.099999
0

0101000
+321 0 -319 0 *
Ve
1e-07
138.199997 29.251575 0
0 0

0101101
*
Ed
 1e-07 1 1 0
1  265 0 0 0.949996999999996
0

0101000
+319 0 -317 0 *
Ve
1e-07
138.199997 27.501575 0
0 0

0101101
*
Ed
 1e-07 1 1 0
1  266 0 0 1.75
0

0101000
+317 0 -315 0 *
Ve
1e-07
136.050003 27.501575 0
0 0

0101101
*
Ed
 1e-07 1 1 0
1  267 0 0 2.14999399999999
0

0101000
+315 0 -313 0 *
Ve
1e-07
136.050003 26.901575 0
0 0

0101101
*
Ed
 1e-07 1 1 0
1  268 0 0 0.599999999999998
0

0101000
+313 0 -311 0 *
Ve
1e-07
135.850006 26.901575 0
0 0

0101101
*
Ed
 1e-07 1 1 0
1  269 0 0 0.199996999999996
0

0101000
+311 0 -309 0 *
Ve
1e-07
135.850006 27.501575 0
0 0

0101101
*
Ed
 1e-07 1 1 0
1  270 0 0 0.599999999999998
0

0101000
+309 0 -307 0 *
Ve
1e-07
134.300003 27.501575 0
0 0

0101101
*
Ed
 1e-07 1 1 0
1  271 0 0 1.550003
0

0101000
+307 0 -305 0 *
Ve
1e-07
134.300003 22.795977 0
0 0

0101101
*
Ed
 1e-07 1 1 0
1  272 0 0 4.705598
0

0101000
+305 0 -303 0 *
Ve
1e-07
133.949997 22.795977 0
0 0

0101101
*
Ed
 1e-07 1 1 0
1  273 0 0 0.350006000000008
0

0101000
+303 0 -301 0 *
Ve
1e-07
133.949997 26.723776 0
0 0

0101101
*
Ed
 1e-07 1 1 0
1  274 0 0 3.927799
0

0101000
+301 0 -299 0 *
Ve
1e-07
132.600006 26.723776 0
0 0

0101101
*
Ed
 1e-07 1 1 0
1  275 0 0 1.34999099999999
0

0101000
+299 0 -297 0 *
Ve
1e-07
132.600006 26.923777 0
0 0

0101101
*
Ed
 1e-07 1 1 0
1  276 0 0 0.200001
0

0101000
+297 0 -295 0 *
Ve
1e-07
133.949997 26.923777 0
0 0

0101101
*
Ed
 1e-07 1 1 0
1  277 0 0 1.34999099999999
0

0101000
+295 0 -293 0 *
Ve
1e-07
133.949997 29.251575 0
0 0

0101101
*
Ed
 1e-07 1 1 0
1  278 0 0 2.327798
0

0101000
+293 0 -291 0 *
Ve
1e-07
133.149994 29.251575 0
0 0

0101101
*
Ed
 1e-07 1 1 0
1  279 0 0 0.800003000000004
0

0101000
+291 0 -289 0 *
Ve
1e-07
133.149994 27.651575 0
0 0

0101101
*
Ed
 1e-07 1 1 0
1  280 0 0 1.6
0

0101000
+289 0 -287 0 *
Ve
1e-07
132.949997 27.651575 0
0 0

0101101
*
Ed
 1e-07 1 1 0
1  281 0 0 0.199996999999996
0

0101000
+287 0 -285 0 *
Ve
1e-07
132.949997 29.451574 0
0 0

0101101
*
Ed
 1e-07 1 1 0
1  282 0 0 1.799999
0

0101000
+285 0 -283 0 *
Ve
1e-07
133.949997 29.451574 0
0 0

0101101
*
Ed
 1e-07 1 1 0
1  283 0 0 1
0

0101000
+283 0 -281 0 *
Ve
1e-07
133.949997 30.151575 0
0 0

0101101
*
Ed
 1e-07 1 1 0
1  284 0 0 0.700001
0

0101000
+281 0 -279 0 *
Ve
1e-07
132.949997 30.151575 0
0 0

0101101
*
Ed
 1e-07 1 1 0
1  285 0 0 1
0

0101000
+279 0 -277 0 *
Ve
1e-07
132.949997 30.351574 0
0 0

0101101
*
Ed
 1e-07 1 1 0
1  286 0 0 0.199998999999998
0

0101000
+277 0 -275 0 *
Ve
1e-07
133.949997 30.351574 0
0 0

0101101
*
Ed
 1e-07 1 1 0
1  287 0 0 1
0

0101000
+275 0 -273 0 *
Ve
1e-07
133.949997 30.701574 0
0 0

0101101
*
Ed
 1e-07 1 1 0
1  288 0 0 0.350000000000001
0

0101000
+273 0 -271 0 *
Ve
1e-07
134.300003 30.701574 0
0 0

0101101
*
Ed
 1e-07 1 1 0
1  289 0 0 0.350006000000008
0

0101000
+271 0 -269 0 *
Ve
1e-07
134.300003 27.701574 0
0 0

0101101
*
Ed
 1e-07 1 1 0
1  290 0 0 3
0

0101000
+269 0 -267 0 *
Ve
1e-07
138 27.701574 0
0 0

0101101
*
Ed
 1e-07 1 1 0
1  291 0 0 3.699997
0

0101000
+267 0 -265 0 *
Ve
1e-07
138 31.001575 0
0 0

0101101
*
Ed
 1e-07 1 1 0
1  292 0 0 3.300001
0

0101000
+265 0 -263 0 *
Ve
1e-07
131.399994 31.001575 0
0 0

0101101
*
Ed
 1e-07 1 1 0
1  293 0 0 6.60000600000001
0

0101000
+263 0 -261 0 *
Ve
1e-07
131.399994 29.451574 0
0 0

0101101
*
Ed
 1e-07 1 1 0
1  294 0 0 1.550001
0

0101000
+261 0 -259 0 *
Ve
1e-07
132.149994 29.451574 0
0 0

0101101
*
Ed
 1e-07 1 1 0
1  295 0 0 0.75
0

0101000
+259 0 -257 0 *
Ve
1e-07
132.149994 30.351574 0
0 0

0101101
*
Ed
 1e-07 1 1 0
1  296 0 0 0.899999999999999
0

0101000
+257 0 -255 0 *
Ve
1e-07
132.350006 30.351574 0
0 0

0101101
*
Ed
 1e-07 1 1 0
1  297 0 0 0.200012000000015
0

0101000
+255 0 -253 0 *
Ve
1e-07
132.350006 29.251575 0
0 0

0101101
*
Ed
 1e-07 1 1 0
1  298 0 0 1.099999
0

0101000
+253 0 -251 0 *
Ve
1e-07
131.399994 29.251575 0
0 0

0101101
*
Ed
 1e-07 1 1 0
1  299 0 0 0.950012000000015
0

0101000
+251 0 -249 0 *
Ve
1e-07
131.399994 27.501575 0
0 0

0101101
*
Ed
 1e-07 1 1 0
1  300 0 0 1.75
0

0101000
+249 0 -247 0 *
Ve
1e-07
129.25 27.501575 0
0 0

0101101
*
Ed
 1e-07 1 1 0
1  301 0 0 2.14999399999999
0

0101000
+247 0 -245 0 *
Ve
1e-07
129.25 26.901575 0
0 0

0101101
*
Ed
 1e-07 1 1 0
1  302 0 0 0.599999999999998
0

0101000
+245 0 -243 0 *
Ve
1e-07
129.050003 26.901575 0
0 0

0101101
*
Ed
 1e-07 1 1 0
1  303 0 0 0.199996999999996
0

0101000
+243 0 -241 0 *
Ve
1e-07
129.050003 27.501575 0
0 0

0101101
*
Ed
 1e-07 1 1 0
1  304 0 0 0.599999999999998
0

0101000
+241 0 -239 0 *
Ve
1e-07
127.5 27.501575 0
0 0

0101101
*
Ed
 1e-07 1 1 0
1  305 0 0 1.550003
0

0101000
+239 0 -237 0 *
Ve
1e-07
127.5 22.795977 0
0 0

0101101
*
Ed
 1e-07 1 1 0
1  306 0 0 4.705598
0

0101000
+237 0 -235 0 *
Ve
1e-07
127.150002 22.795977 0
0 0

0101101
*
Ed
 1e-07 1 1 0
1  307 0 0 0.349997999999999
0

0101000
+235 0 -233 0 *
Ve
1e-07
127.150002 26.723776 0
0 0

0101101
*
Ed
 1e-07 1 1 0
1  308 0 0 3.927799
0

0101000
+233 0 -231 0 *
Ve
1e-07
125.800003 26.723776 0
0 0

0101101
*
Ed
 1e-07 1 1 0
1  309 0 0 1.349999
0

0101000
+231 0 -229 0 *
Ve
1e-07
125.800003 26.923777 0
0 0

0101101
*
Ed
 1e-07 1 1 0
1  310 0 0 0.200001
0

0101000
+229 0 -227 0 *
Ve
1e-07
127.150002 26.923777 0
0 0

0101101
*
Ed
 1e-07 1 1 0
1  311 0 0 1.349999
0

0101000
+227 0 -225 0 *
Ve
1e-07
127.150002 29.251575 0
0 0

0101101
*
Ed
 1e-07 1 1 0
1  312 0 0 2.327798
0

0101000
+225 0 -223 0 *
Ve
1e-07
126.349998 29.251575 0
0 0

0101101
*
Ed
 1e-07 1 1 0
1  313 0 0 0.800004000000001
0

0101000
+223 0 -221 0 *
Ve
1e-07
126.349998 27.651575 0
0 0

0101101
*
Ed
 1e-07 1 1 0
1  314 0 0 1.6
0

0101000
+221 0 -219 0 *
Ve
1e-07
126.150002 27.651575 0
0 0

0101101
*
Ed
 1e-07 1 1 0
1  315 0 0 0.199995999999999
0

0101000
+219 0 -217 0 *
Ve
1e-07
126.150002 29.451574 0
0 0

0101101
*
Ed
 1e-07 1 1 0
1  316 0 0 1.799999
0

0101000
+217 0 -215 0 *
Ve
1e-07
127.150002 29.451574 0
0 0

0101101
*
Ed
 1e-07 1 1 0
1  317 0 0 1
0

0101000
+215 0 -213 0 *
Ve
1e-07
127.150002 30.151575 0
0 0

0101101
*
Ed
 1e-07 1 1 0
1  318 0 0 0.700001
0

0101000
+213 0 -211 0 *
Ve
1e-07
126.150002 30.151575 0
0 0

0101101
*
Ed
 1e-07 1 1 0
1  319 0 0 1
0

0101000
+211 0 -209 0 *
Ve
1e-07
126.150002 30.351574 0
0 0

0101101
*
Ed
 1e-07 1 1 0
1  320 0 0 0.199998999999998
0

0101000
+209 0 -207 0 *
Ve
1e-07
127.150002 30.351574 0
0 0

0101101
*
Ed
 1e-07 1 1 0
1  321 0 0 1
0

0101000
+207 0 -205 0 *
Ve
1e-07
127.150002 30.701574 0
0 0

0101101
*
Ed
 1e-07 1 1 0
1  322 0 0 0.350000000000001
0

0101000
+205 0 -203 0 *
Ve
1e-07
127.5 30.701574 0
0 0

0101101
*
Ed
 1e-07 1 1 0
1  323 0 0 0.349997999999999
0

0101000
+203 0 -201 0 *
Ve
1e-07
127.5 27.701574 0
0 0

0101101
*
Ed
 1e-07 1 1 0
1  324 0 0 3
0

0101000
+201 0 -199 0 *
Ve
1e-07
131.199997 27.701574 0
0 0

0101101
*
Ed
 1e-07 1 1 0
1  325 0 0 3.699997
0

0101000
+199 0 -197 0 *
Ve
1e-07
131.199997 31.001575 0
0 0

0101101
*
Ed
 1e-07 1 1 0
1  326 0 0 3.300001
0

0101000
+197 0 -195 0 *
Ve
1e-07
124.599998 31.001575 0
0 0

0101101
*
Ed
 1e-07 1 1 0
1  327 0 0 6.599999
0

0101000
+195 0 -193 0 *
Ve
1e-07
124.599998 29.451574 0
0 0

0101101
*
Ed
 1e-07 1 1 0
1  328 0 0 1.550001
0

0101000
+193 0 -191 0 *
Ve
1e-07
125.349998 29.451574 0
0 0

0101101
*
Ed
 1e-07 1 1 0
1  329 0 0 0.75
0

0101000
+191 0 -189 0 *
Ve
1e-07
125.349998 30.351574 0
0 0

0101101
*
Ed
 1e-07 1 1 0
1  330 0 0 0.899999999999999
0

0101000
+189 0 -187 0 *
Ve
1e-07
125.550003 30.351574 0
0 0

0101101
*
Ed
 1e-07 1 1 0
1  331 0 0 0.200005000000004
0

0101000
+187 0 -185 0 *
Ve
1e-07
125.550003 29.251575 0
0 0

0101101
*
Ed
 1e-07 1 1 0
1  332 0 0 1.099999
0

0101000
+185 0 -183 0 *
Ve
1e-07
124.599998 29.251575 0
0 0

0101101
*
Ed
 1e-07 1 1 0
1  333 0 0 0.950005000000004
0

0101000
+183 0 -181 0 *
Ve
1e-07
124.599998 27.501575 0
0 0

0101101
*
Ed
 1e-07 1 1 0
1  334 0 0 1.75
0

0101000
+181 0 -179 0 *
Ve
1e-07
122.449997 27.501575 0
0 0

0101101
*
Ed
 1e-07 1 1 0
1  335 0 0 2.150001
0

0101000
+179 0 -177 0 *
Ve
1e-07
122.449997 26.901575 0
0 0

0101101
*
Ed
 1e-07 1 1 0
1  336 0 0 0.599999999999998
0

0101000
+177 0 -175 0 *
Ve
1e-07
122.25 26.901575 0
0 0

0101101
*
Ed
 1e-07 1 1 0
1  337 0 0 0.199996999999996
0

0101000
+175 0 -173 0 *
Ve
1e-07
122.25 27.501575 0
0 0

0101101
*
Ed
 1e-07 1 1 0
1  338 0 0 0.599999999999998
0

0101000
+173 0 -171 0 *
Ve
1e-07
120.699997 27.501575 0
0 0

0101101
*
Ed
 1e-07 1 1 0
1  339 0 0 1.550003
0

0101000
+171 0 -169 0 *
Ve
1e-07
120.699997 22.795977 0
0 0

0101101
*
Ed
 1e-07 1 1 0
1  340 0 0 4.705598
0

0101000
+169 0 -167 0 *
Ve
1e-07
120.349998 22.795977 0
0 0

0101101
*
Ed
 1e-07 1 1 0
1  341 0 0 0.349998999999997
0

0101000
+167 0 -165 0 *
Ve
1e-07
120.349998 26.723776 0
0 0

0101101
*
Ed
 1e-07 1 1 0
1  342 0 0 3.927799
0

0101000
+165 0 -163 0 *
Ve
1e-07
119 26.723776 0
0 0

0101101
*
Ed
 1e-07 1 1 0
1  343 0 0 1.349998
0

0101000
+163 0 -161 0 *
Ve
1e-07
119 26.923777 0
0 0

0101101
*
Ed
 1e-07 1 1 0
1  344 0 0 0.200001
0

0101000
+161 0 -159 0 *
Ve
1e-07
120.349998 26.923777 0
0 0

0101101
*
Ed
 1e-07 1 1 0
1  345 0 0 1.349998
0

0101000
+159 0 -157 0 *
Ve
1e-07
120.349998 29.251575 0
0 0

0101101
*
Ed
 1e-07 1 1 0
1  346 0 0 2.327798
0

0101000
+157 0 -155 0 *
Ve
1e-07
119.550003 29.251575 0
0 0

0101101
*
Ed
 1e-07 1 1 0
1  347 0 0 0.799994999999996
0

0101000
+155 0 -153 0 *
Ve
1e-07
119.550003 27.651575 0
0 0

0101101
*
Ed
 1e-07 1 1 0
1  348 0 0 1.6
0

0101000
+153 0 -151 0 *
Ve
1e-07
119.349998 27.651575 0
0 0

0101101
*
Ed
 1e-07 1 1 0
1  349 0 0 0.200005000000004
0

0101000
+151 0 -149 0 *
Ve
1e-07
119.349998 29.451574 0
0 0

0101101
*
Ed
 1e-07 1 1 0
1  350 0 0 1.799999
0

0101000
+149 0 -147 0 *
Ve
1e-07
120.349998 29.451574 0
0 0

0101101
*
Ed
 1e-07 1 1 0
1  351 0 0 1
0

0101000
+147 0 -145 0 *
Ve
1e-07
120.349998 30.151575 0
0 0

0101101
*
Ed
 1e-07 1 1 0
1  352 0 0 0.700001
0

0101000
+145 0 -143 0 *
Ve
1e-07
119.349998 30.151575 0
0 0

0101101
*
Ed
 1e-07 1 1 0
1  353 0 0 1
0

0101000
+143 0 -141 0 *
Ve
1e-07
119.349998 30.351574 0
0 0

0101101
*
Ed
 1e-07 1 1 0
1  354 0 0 0.199998999999998
0

0101000
+141 0 -139 0 *
Ve
1e-07
120.349998 30.351574 0
0 0

0101101
*
Ed
 1e-07 1 1 0
1  355 0 0 1
0

0101000
+139 0 -137 0 *
Ve
1e-07
120.349998 30.701574 0
0 0

0101101
*
Ed
 1e-07 1 1 0
1  356 0 0 0.350000000000001
0

0101000
+137 0 -135 0 *
Ve
1e-07
120.699997 30.701574 0
0 0

0101101
*
Ed
 1e-07 1 1 0
1  357 0 0 0.349998999999997
0

0101000
+135 0 -133 0 *
Ve
1e-07
120.699997 27.701574 0
0 0

0101101
*
Ed
 1e-07 1 1 0
1  358 0 0 3
0

0101000
+133 0 -131 0 *
Ve
1e-07
124.400002 27.701574 0
0 0

0101101
*
Ed
 1e-07 1 1 0
1  359 0 0 3.700005
0

0101000
+131 0 -129 0 *
Ve
1e-07
124.400002 31.001575 0
0 0

0101101
*
Ed
 1e-07 1 1 0
1  360 0 0 3.300001
0

0101000
+129 0 -127 0 *
Ve
1e-07
117.800003 31.001575 0
0 0

0101101
*
Ed
 1e-07 1 1 0
1  361 0 0 6.599999
0

0101000
+127 0 -125 0 *
Ve
1e-07
117.800003 29.451574 0
0 0

0101101
*
Ed
 1e-07 1 1 0
1  362 0 0 1.550001
0

0101000
+125 0 -123 0 *
Ve
1e-07
118.550003 29.451574 0
0 0

0101101
*
Ed
 1e-07 1 1 0
1  363 0 0 0.75
0

0101000
+123 0 -121 0 *
Ve
1e-07
118.550003 30.351574 0
0 0

0101101
*
Ed
 1e-07 1 1 0
1  364 0 0 0.899999999999999
0

0101000
+121 0 -119 0 *
Ve
1e-07
118.75 30.351574 0
0 0

0101101
*
Ed
 1e-07 1 1 0
1  365 0 0 0.199996999999996
0

0101000
+119 0 -117 0 *
Ve
1e-07
118.75 29.251575 0
0 0

0101101
*
Ed
 1e-07 1 1 0
1  366 0 0 1.099999
0

0101000
+117 0 -115 0 *
Ve
1e-07
117.800003 29.251575 0
0 0

0101101
*
Ed
 1e-07 1 1 0
1  367 0 0 0.949996999999996
0

0101000
+115 0 -113 0 *
Ve
1e-07
117.800003 27.501575 0
0 0

0101101
*
Ed
 1e-07 1 1 0
1  368 0 0 1.75
0

0101000
+113 0 -111 0 *
Ve
1e-07
115.650002 27.501575 0
0 0

0101101
*
Ed
 1e-07 1 1 0
1  369 0 0 2.150001
0

0101000
+111 0 -109 0 *
Ve
1e-07
115.650002 26.901575 0
0 0

0101101
*
Ed
 1e-07 1 1 0
1  370 0 0 0.599999999999998
0

0101000
+109 0 -107 0 *
Ve
1e-07
115.449997 26.901575 0
0 0

0101101
*
Ed
 1e-07 1 1 0
1  371 0 0 0.200005000000004
0

0101000
+107 0 -105 0 *
Ve
1e-07
115.449997 27.501575 0
0 0

0101101
*
Ed
 1e-07 1 1 0
1  372 0 0 0.599999999999998
0

0101000
+105 0 -103 0 *
Ve
1e-07
113.900002 27.501575 0
0 0

0101101
*
Ed
 1e-07 1 1 0
1  373 0 0 1.549995
0

0101000
+103 0 -101 0 *
Ve
1e-07
113.900002 22.795977 0
0 0

0101101
*
Ed
 1e-07 1 1 0
1  374 0 0 4.705598
0

0101000
+101 0 -99 0 *
Ve
1e-07
113.550003 22.795977 0
0 0

0101101
*
Ed
 1e-07 1 1 0
1  375 0 0 0.349998999999997
0

0101000
+99 0 -97 0 *
Ve
1e-07
113.550003 26.723776 0
0 0

0101101
*
Ed
 1e-07 1 1 0
1  376 0 0 3.927799
0

0101000
+97 0 -95 0 *
Ve
1e-07
112.199997 26.723776 0
0 0

0101101
*
Ed
 1e-07 1 1 0
1  377 0 0 1.35000600000001
0

0101000
+95 0 -93 0 *
Ve
1e-07
112.199997 26.923777 0
0 0

0101101
*
Ed
 1e-07 1 1 0
1  378 0 0 0.200001
0

0101000
+93 0 -91 0 *
Ve
1e-07
113.550003 26.923777 0
0 0

0101101
*
Ed
 1e-07 1 1 0
1  379 0 0 1.35000600000001
0

0101000
+91 0 -89 0 *
Ve
1e-07
113.550003 29.251575 0
0 0

0101101
*
Ed
 1e-07 1 1 0
1  380 0 0 2.327798
0

0101000
+89 0 -87 0 *
Ve
1e-07
112.75 29.251575 0
0 0

0101101
*
Ed
 1e-07 1 1 0
1  381 0 0 0.800003000000004
0

0101000
+87 0 -85 0 *
Ve
1e-07
112.75 27.651575 0
0 0

0101101
*
Ed
 1e-07 1 1 0
1  382 0 0 1.6
0

0101000
+85 0 -83 0 *
Ve
1e-07
112.550003 27.651575 0
0 0

0101101
*
Ed
 1e-07 1 1 0
1  383 0 0 0.199996999999996
0

0101000
+83 0 -81 0 *
Ve
1e-07
112.550003 29.451574 0
0 0

0101101
*
Ed
 1e-07 1 1 0
1  384 0 0 1.799999
0

0101000
+81 0 -79 0 *
Ve
1e-07
113.550003 29.451574 0
0 0

0101101
*
Ed
 1e-07 1 1 0
1  385 0 0 1
0

0101000
+79 0 -77 0 *
Ve
1e-07
113.550003 30.151575 0
0 0

0101101
*
Ed
 1e-07 1 1 0
1  386 0 0 0.700001
0

0101000
+77 0 -75 0 *
Ve
1e-07
112.550003 30.151575 0
0 0

0101101
*
Ed
 1e-07 1 1 0
1  387 0 0 1
0

0101000
+75 0 -73 0 *
Ve
1e-07
112.550003 30.351574 0
0 0

0101101
*
Ed
 1e-07 1 1 0
1  388 0 0 0.199998999999998
0

0101000
+73 0 -71 0 *
Ve
1e-07
113.550003 30.351574 0
0 0

0101101
*
Ed
 1e-07 1 1 0
1  389 0 0 1
0

0101000
+71 0 -69 0 *
Ve
1e-07
113.550003 30.701574 0
0 0

0101101
*
Ed
 1e-07 1 1 0
1  390 0 0 0.350000000000001
0

0101000
+69 0 -67 0 *
Ve
1e-07
113.900002 30.701574 0
0 0

0101101
*
Ed
 1e-07 1 1 0
1  391 0 0 0.349998999999997
0

0101000
+67 0 -65 0 *
Ve
1e-07
113.900002 27.701574 0
0 0

0101101
*
Ed
 1e-07 1 1 0
1  392 0 0 3
0

0101000
+65 0 -63 0 *
Ve
1e-07
117.599998 27.701574 0
0 0

0101101
*
Ed
 1e-07 1 1 0
1  393 0 0 3.699996
0

0101000
+63 0 -61 0 *
Ve
1e-07
117.599998 31.001575 0
0 0

0101101
*
Ed
 1e-07 1 1 0
1  394 0 0 3.300001
0

0101000
+61 0 -59 0 *
Ve
1e-07
111 31.001575 0
0 0

0101101
*
Ed
 1e-07 1 1 0
1  395 0 0 6.599998
0

0101000
+59 0 -57 0 *
Ve
1e-07
111 29.451574 0
0 0

0101101
*
Ed
 1e-07 1 1 0
1  396 0 0 1.550001
0

0101000
+57 0 -55 0 *
Ve
1e-07
111.75 29.451574 0
0 0

0101101
*
Ed
 1e-07 1 1 0
1  397 0 0 0.75
0

0101000
+55 0 -53 0 *
Ve
1e-07
111.75 30.351574 0
0 0

0101101
*
Ed
 1e-07 1 1 0
1  398 0 0 0.899999999999999
0

0101000
+53 0 -51 0 *
Ve
1e-07
111.949997 30.351574 0
0 0

0101101
*
Ed
 1e-07 1 1 0
1  399 0 0 0.199996999999996
0

0101000
+51 0 -49 0 *
Ve
1e-07
111.949997 29.251575 0
0 0

0101101
*
Ed
 1e-07 1 1 0
1  400 0 0 1.099999
0

0101000
+49 0 -47 0 *
Ve
1e-07
111 29.251575 0
0 0

0101101
*
Ed
 1e-07 1 1 0
1  401 0 0 0.949996999999996
0

0101000
+47 0 -45 0 *
Ve
1e-07
111 27.501575 0
0 0

0101101
*
Ed
 1e-07 1 1 0
1  402 0 0 1.75
0

0101000
+45 0 -43 0 *
Ve
1e-07
108.849998 27.501575 0
0 0

0101101
*
Ed
 1e-07 1 1 0
1  403 0 0 2.150002
0

0101000
+43 0 -41 0 *
Ve
1e-07
108.849998 26.901575 0
0 0

0101101
*
Ed
 1e-07 1 1 0
1  404 0 0 0.599999999999998
0

0101000
+41 0 -39 0 *
Ve
1e-07
108.650002 26.901575 0
0 0

0101101
*
Ed
 1e-07 1 1 0
1  405 0 0 0.199995999999999
0

0101000
+39 0 -37 0 *
Ve
1e-07
108.650002 27.501575 0
0 0

0101101
*
Ed
 1e-07 1 1 0
1  406 0 0 0.599999999999998
0

0101000
+37 0 -35 0 *
Ve
1e-07
107.099998 27.501575 0
0 0

0101101
*
Ed
 1e-07 1 1 0
1  407 0 0 1.550004
0

0101000
+35 0 -33 0 *
Ve
1e-07
107.099998 22.795977 0
0 0

0101101
*
Ed
 1e-07 1 1 0
1  408 0 0 4.705598
0

0101000
+33 0 -31 0 *
Ve
1e-07
106.75 22.795977 0
0 0

0101101
*
Ed
 1e-07 1 1 0
1  409 0 0 0.349997999999999
0

0101000
+31 0 -29 0 *
Ve
1e-07
106.75 30.701574 0
0 0

0101101
*
Ed
 1e-07 1 1 0
1  410 0 0 7.905597
0

0101000
+29 0 -27 0 *
Ve
1e-07
107.099998 30.701574 0
0 0

0101101
*
Ed
 1e-07 1 1 0
1  411 0 0 0.349997999999999
0

0101000
+27 0 -25 0 *
Ve
1e-07
107.099998 27.701574 0
0 0

0101101
*
Ed
 1e-07 1 1 0
1  412 0 0 3
0

0101000
+25 0 -23 0 *
Ve
1e-07
110.800003 27.701574 0
0 0

0101101
*
Ed
 1e-07 1 1 0
1  413 0 0 3.700005
0

0101000
+23 0 -21 0 *
Ve
1e-07
110.800003 31.001575 0
0 0

0101101
*
Ed
 1e-07 1 1 0
1  414 0 0 3.300001
0

0101000
+21 0 -19 0 *
Ve
1e-07
103.599998 31.001575 0
0 0

0101101
*
Ed
 1e-07 1 1 0
1  415 0 0 7.200005
0

0101000
+19 0 -17 0 *
Ve
1e-07
103.599998 25.948776 0
0 0

0101101
*
Ed
 1e-07 1 1 0
1  416 0 0 5.052799
0

0101000
+17 0 -15 0 *
Ve
1e-07
103.25 25.948776 0
0 0

0101101
*
Ed
 1e-07 1 1 0
1  417 0 0 0.349997999999999
0

0101000
+15 0 -13 0 *
Ve
1e-07
103.25 31.001575 0
0 0

0101101
*
Ed
 1e-07 1 1 0
1  418 0 0 5.052799
0

0101000
+13 0 -11 0 *
Ve
1e-07
96.800003 31.001575 0
0 0

0101101
*
Ed
 1e-07 1 1 0
1  419 0 0 6.449997
0

0101000
+11 0 -9 0 *
Ve
1e-07
96.800003 22.495977 0
0 0

0101101
*
Ed
 1e-07 1 1 0
1  420 0 0 8.505598
0

0101000
+9 0 -7 0 *
Ve
1e-07
98.25 22.495977 0
0 0

0101101
*
Ed
 1e-07 1 1 0
1  421 0 0 1.449997
0

0101000
+7 0 -5 0 *
Ed
 1e-07 1 1 0
1  422 0 0 9.349999
0

0101000
+5 0 -846 0 *
Wi

0101100
+844 0 +842 0 +840 0 +838 0 +836 0 +834 0 +832 0 +830 0 +828 0 +826 0 
+824 0 +822 0 +820 0 +818 0 +816 0 +814 0 +812 0 +810 0 +808 0 +806 0 
+804 0 +802 0 +800 0 +798 0 +796 0 +794 0 +792 0 +790 0 +788 0 +786 0 
+784 0 +782 0 +780 0 +778 0 +776 0 +774 0 +772 0 +770 0 +768 0 +766 0 
+764 0 +762 0 +760 0 +758 0 +756 0 +754 0 +752 0 +750 0 +748 0 +746 0 
+744 0 +742 0 +740 0 +738 0 +736 0 +734 0 +732 0 +730 0 +728 0 +726 0 
+724 0 +722 0 +720 0 +718 0 +716 0 +714 0 +712 0 +710 0 +708 0 +706 0 
+704 0 +702 0 +700 0 +698 0 +696 0 +694 0 +692 0 +690 0 +688 0 +686 0 
+684 0 +682 0 +680 0 +678 0 +676 0 +674 0 +672 0 +670 0 +668 0 +666 0 
+664 0 +662 0 +660 0 +658 0 +656 0 +654 0 +652 0 +650 0 +648 0 +646 0 
+644 0 +642 0 +640 0 +638 0 +636 0 +634 0 +632 0 +630 0 +628 0 +626 0 
+624 0 +622 0 +620 0 +618 0 +616 0 +614 0 +612 0 +610 0 +608 0 +606 0 
+604 0 +602 0 +600 0 +598 0 +596 0 +594 0 +592 0 +590 0 +588 0 +586 0 
+584 0 +582 0 +580 0 +578 0 +576 0 +574 0 +572 0 +570 0 +568 0 +566 0 
+564 0 +562 0 +560 0 +558 0 +556 0 +554 0 +552 0 +550 0 +548 0 +546 0 
+544 0 +542 0 +540 0 +538 0 +536 0 +534 0 +532 0 +530 0 +528 0 +526 0 
+524 0 +522 0 +520 0 +518 0 +516 0 +514 0 +512 0 +510 0 +508 0 +506 0 
+504 0 +502 0 +500 0 +498 0 +496 0 +494 0 +492 0 +490 0 +488 0 +486 0 
+484 0 +482 0 +480 0 +478 0 +476 0 +474 0 +472 0 +470 0 +468 0 +466 0 
+464 0 +462 0 +460 0 +458 0 +456 0 +454 0 +452 0 +450 0 +448 0 +446 0 
+444 0 +442 0 +440 0 +438 0 +436 0 +434 0 +432 0 +430 0 +428 0 +426 0 
+424 0 +422 0 +420 0 +418 0 +416 0 +414 0 +412 0 +410 0 +408 0 +406 0 
+404 0 +402 0 +400 0 +398 0 +396 0 +394 0 +392 0 +390 0 +388 0 +386 0 
+384 0 +382 0 +380 0 +378 0 +376 0 +374 0 +372 0 +370 0 +368 0 +366 0 
+364 0 +362 0 +360 0 +358 0 +356 0 +354 0 +352 0 +350 0 +348 0 +346 0 
+344 0 +342 0 +340 0 +338 0 +336 0 +334 0 +332 0 +330 0 +328 0 +326 0 
+324 0 +322 0 +320 0 +318 0 +316 0 +314 0 +312 0 +310 0 +308 0 +306 0 
+304 0 +302 0 +300 0 +298 0 +296 0 +294 0 +292 0 +290 0 +288 0 +286 0 
+284 0 +282 0 +280 0 +278 0 +276 0 +274 0 +272 0 +270 0 +268 0 +266 0 
+264 0 +262 0 +260 0 +258 0 +256 0 +254 0 +252 0 +250 0 +248 0 +246 0 
+244 0 +242 0 +240 0 +238 0 +236 0 +234 0 +232 0 +230 0 +228 0 +226 0 
+224 0 +222 0 +220 0 +218 0 +216 0 +214 0 +212 0 +210 0 +208 0 +206 0 
+204 0 +202 0 +200 0 +198 0 +196 0 +194 0 +192 0 +190 0 +188 0 +186 0 
+184 0 +182 0 +180 0 +178 0 +176 0 +174 0 +172 0 +170 0 +168 0 +166 0 
+164 0 +162 0 +160 0 +158 0 +156 0 +154 0 +152 0 +150 0 +148 0 +146 0 
+144 0 +142 0 +140 0 +138 0 +136 0 +134 0 +132 0 +130 0 +128 0 +126 0 
+124 0 +122 0 +120 0 +118 0 +116 0 +114 0 +112 0 +110 0 +108 0 +106 0 
+104 0 +102 0 +100 0 +98 0 +96 0 +94 0 +92 0 +90 0 +88 0 +86 0 
+84 0 +82 0 +80 0 +78 0 +76 0 +74 0 +72 0 +70 0 +68 0 +66 0 
+64 0 +62 0 +60 0 +58 0 +56 0 +54 0 +52 0 +50 0 +48 0 +46 0 
+44 0 +42 0 +40 0 +38 0 +36 0 +34 0 +32 0 +30 0 +28 0 +26 0 
+24 0 +22 0 +20 0 +18 0 +16 0 +14 0 +12 0 +10 0 +8 0 +6 0 
+4 0 +3 0 *
Fa
0  1e-07 1 0

1111000
+2 0 *

+1 0 