# Rhino

g object_1
v 95.712501525878906 0 -61.767711639404297
v 95.712501525878906 0 -57.859634399414062
v 95.712501525878906 0 -53.951560974121094
v 102.08750152587891 0 -77.400016784667969
v 102.08750152587891 0 -73.491935729980469
v 108.46250152587891 0 -77.400016784667969
v 108.46250152587891 0 -73.491935729980469
v 114.83750152587891 0 -77.400016784667969
v 114.83750152587891 0 -73.491935729980469
v 121.21250152587891 0 -77.400016784667969
v 121.21250152587891 0 -73.491935729980469
v 127.58750152587891 0 -73.491935729980469
v 133.96249389648438 0 -73.491935729980469
v 140.33749389648438 0 -77.400016784667969
v 140.33749389648438 0 -73.491935729980469
v 146.71249389648438 0 -77.400016784667969
v 146.71249389648438 0 -73.491935729980469
v 153.08749389648438 0 -77.400016784667969
v 153.08749389648438 0 -73.491935729980469
v 159.46249389648438 0 -77.400016784667969
v 159.46249389648438 0 -73.491935729980469
v 165.83749389648438 0 -77.400016784667969
v 167 0 -76.648773193359375
v 171.39999389648438 0 -76.648773193359375
v 171.39999389648438 0 -72.495979309082031
v 167 0 -72.495979309082031
v 167 0 -75.17401123046875
v 166.80000305175781 0 -75.17401123046875
v 169.02499389648438 0 -73.491935729980469
v 165.83749389648438 0 -75.445976257324219
v 169.02499389648438 0 -77.400016784667969
v 169.02499389648438 0 -75.445976257324219
v 169.02499389648438 0 -74.468955993652344
v 167.43124389648438 0 -73.491935729980469
v 165.83749389648438 0 -74.468955993652344
v 167.43124389648438 0 -75.445976257324219
v 167.43124389648438 0 -74.468955993652344
v 162.64999389648438 0 -73.491935729980469
v 159.46249389648438 0 -75.445976257324219
v 162.64999389648438 0 -77.400016784667969
v 162.64999389648438 0 -75.445976257324219
v 167.43124389648438 0 -74.957466125488281
v 166.63436889648438 0 -74.468955993652344
v 165.83749389648438 0 -74.957466125488281
v 166.63436889648438 0 -75.445976257324219
v 166.63436889648438 0 -74.957466125488281
v 164.24374389648438 0 -73.491935729980469
v 162.64999389648438 0 -74.468955993652344
v 164.24374389648438 0 -75.445976257324219
v 164.24374389648438 0 -74.468955993652344
v 169.02499389648438 0 -76.422996520996094
v 165.83749389648438 0 -76.422996520996094
v 167.43124389648438 0 -77.400016784667969
v 167.43124389648438 0 -76.422996520996094
v 165.83749389648438 0 -79.354049682617188
v 169.02499389648438 0 -79.354049682617188
v 167.43124389648438 0 -75.20172119140625
v 166.63436889648438 0 -75.20172119140625
v 167.03280639648438 0 -75.445976257324219
v 167.43124389648438 0 -75.934486389160156
v 165.83749389648438 0 -75.934486389160156
v 166.63436889648438 0 -76.422996520996094
v 166.63436889648438 0 -75.934486389160156
v 162.64999389648438 0 -76.422996520996094
v 164.24374389648438 0 -77.400016784667969
v 164.24374389648438 0 -76.422996520996094
v 159.46249389648438 0 -79.354049682617188
v 162.64999389648438 0 -79.354049682617188
v 169.02499389648438 0 -74.957466125488281
v 168.22811889648438 0 -74.468955993652344
v 168.22811889648438 0 -75.445976257324219
v 168.22811889648438 0 -74.957466125488281
v 170.61874389648438 0 -73.491935729980469
v 170.61874389648438 0 -75.445976257324219
v 170.61874389648438 0 -74.468955993652344
v 166.80000305175781 0 -72.495979309082031
v 165 0 -72.495979309082031
v 165 0 -75.17401123046875
v 164.64999389648438 0 -75.17401123046875
v 164.24374389648438 0 -74.957466125488281
v 165.04061889648438 0 -75.445976257324219
v 164.64999389648438 0 -72.495979309082031
v 159.95713806152344 0 -72.495979309082031
v 155.2642822265625 0 -72.495979309082031
v 150.57142639160156 0 -72.495979309082031
v 145.87857055664062 0 -72.495979309082031
v 141.18571472167969 0 -72.495979309082031
v 136.49285888671875 0 -72.495979309082031
v 131.80000305175781 0 -72.495979309082031
v 127.10713958740234 0 -72.495979309082031
v 122.41428375244141 0 -72.495979309082031
v 117.72142791748047 0 -72.495979309082031
v 113.02857208251953 0 -72.495979309082031
v 108.33571624755859 0 -72.495979309082031
v 103.64286041259766 0 -72.495979309082031
v 98.949996948242188 0 -72.495979309082031
v 98.949996948242188 0 -74.350234985351562
v 98.599998474121094 0 -74.350234985351562
v 102.08750152587891 0 -75.445976257324219
v 98.900001525878906 0 -77.400016784667969
v 98.900001525878906 0 -75.445976257324219
v 102.08750152587891 0 -74.468955993652344
v 100.49375152587891 0 -73.491935729980469
v 100.49375152587891 0 -75.445976257324219
v 100.49375152587891 0 -74.468955993652344
v 108.46250152587891 0 -75.445976257324219
v 105.27500152587891 0 -73.491935729980469
v 105.27500152587891 0 -75.445976257324219
v 100.49375152587891 0 -73.980445861816406
v 99.696876525878906 0 -73.491935729980469
v 99.696876525878906 0 -74.468955993652344
v 99.696876525878906 0 -73.980445861816406
v 97.306251525878906 0 -73.491935729980469
v 97.306251525878906 0 -75.445976257324219
v 97.306251525878906 0 -74.468955993652344
v 98.103126525878906 0 -73.491935729980469
v 97.306251525878906 0 -73.980445861816406
v 98.103126525878906 0 -74.468955993652344
v 98.103126525878906 0 -73.980445861816406
v 98.599998474121094 0 -69.633491516113281
v 98.599998474121094 0 -64.916748046875
v 98.599998474121094 0 -60.200000762939453
v 95.074996948242188 0 -60.200000762939453
v 91.550003051757812 0 -60.200000762939453
v 91.550003051757812 0 -59.849998474121094
v 92.525001525878906 0 -57.859634399414062
v 92.525001525878906 0 -61.767711639404297
v 92.525001525878906 0 -60.790691375732422
v 90.931251525878906 0 -61.767711639404297
v 90.931251525878906 0 -60.790691375732422
v 92.525001525878906 0 -60.30218505859375
v 90.931251525878906 0 -60.30218505859375
v 91.728126525878906 0 -60.790691375732422
v 95.712501525878906 0 -60.790691375732422
v 94.118751525878906 0 -61.767711639404297
v 94.118751525878906 0 -60.790691375732422
v 92.525001525878906 0 -58.836654663085938
v 90.931251525878906 0 -57.859634399414062
v 90.931251525878906 0 -58.836654663085938
v 95.712501525878906 0 -55.905597686767578
v 92.525001525878906 0 -53.951560974121094
v 92.525001525878906 0 -55.905597686767578
v 95.599998474121094 0 -59.849998474121094
v 99.650001525878906 0 -59.849998474121094
v 99.650001525878906 0 -55.099998474121094
v 99.650001525878906 0 -50.349998474121094
v 94.900001525878906 0 -50.349998474121094
v 90.150001525878906 0 -50.349998474121094
v 90.150001525878906 0 -55.099998474121094
v 90.150001525878906 0 -59.849998474121094
v 90.650001525878906 0 -59.849998474121094
v 90.650001525878906 0 -60.200000762939453
v 90.150001525878906 0 -60.200000762939453
v 90.150001525878906 0 -63.145977020263672
v 93.474998474121094 0 -63.145977020263672
v 96.800003051757812 0 -63.145977020263672
v 96.800003051757812 0 -67.609878540039062
v 96.800003051757812 0 -72.073776245117188
v 96.800003051757812 0 -76.537673950195312
v 96.800003051757812 0 -81.001571655273438
v 100.02500152587891 0 -81.001571655273438
v 103.25 0 -81.001571655273438
v 103.25 0 -76.923774719238281
v 98.599998474121094 0 -76.923774719238281
v 98.599998474121094 0 -76.574012756347656
v 98.900001525878906 0 -76.422996520996094
v 97.306251525878906 0 -77.400016784667969
v 97.306251525878906 0 -76.422996520996094
v 102.08750152587891 0 -79.354049682617188
v 98.900001525878906 0 -79.354049682617188
v 98.103126525878906 0 -76.422996520996094
v 97.306251525878906 0 -76.911506652832031
v 98.103126525878906 0 -77.400016784667969
v 98.103126525878906 0 -76.911506652832031
v 98.900001525878906 0 -78.377037048339844
v 97.306251525878906 0 -79.354049682617188
v 97.306251525878906 0 -78.377037048339844
v 100.49375152587891 0 -77.400016784667969
v 100.49375152587891 0 -76.422996520996094
v 101.09999847412109 0 -76.574012756347656
v 103.59999847412109 0 -76.574012756347656
v 103.59999847412109 0 -81.001571655273438
v 106.75 0 -81.001571655273438
v 106.75 0 -76.574012756347656
v 109.30000305175781 0 -76.574012756347656
v 111.84999847412109 0 -76.574012756347656
v 111.84999847412109 0 -76.923774719238281
v 114.83750152587891 0 -75.445976257324219
v 111.65000152587891 0 -73.491935729980469
v 111.65000152587891 0 -75.445976257324219
v 114.83750152587891 0 -76.422996520996094
v 113.24375152587891 0 -75.445976257324219
v 111.65000152587891 0 -76.422996520996094
v 113.24375152587891 0 -77.400016784667969
v 113.24375152587891 0 -76.422996520996094
v 114.83750152587891 0 -79.354049682617188
v 108.46250152587891 0 -79.354049682617188
v 121.21250152587891 0 -75.445976257324219
v 118.02500152587891 0 -73.491935729980469
v 118.02500152587891 0 -77.400016784667969
v 118.02500152587891 0 -75.445976257324219
v 112.44687652587891 0 -76.422996520996094
v 112.44687652587891 0 -77.400016784667969
v 112.44687652587891 0 -76.911506652832031
v 110.05625152587891 0 -75.445976257324219
v 110.05625152587891 0 -77.400016784667969
v 110.05625152587891 0 -76.422996520996094
v 114.83750152587891 0 -78.377037048339844
v 111.65000152587891 0 -78.377037048339844
v 113.24375152587891 0 -79.354049682617188
v 113.24375152587891 0 -78.377037048339844
v 121.21250152587891 0 -79.354049682617188
v 118.02500152587891 0 -79.354049682617188
v 111.69999694824219 0 -76.923774719238281
v 112.44687652587891 0 -77.15576171875
v 112.04843902587891 0 -76.911506652832031
v 112.04843902587891 0 -77.400016784667969
v 112.04843902587891 0 -77.15576171875
v 110.85312652587891 0 -76.422996520996094
v 110.85312652587891 0 -77.400016784667969
v 108.46250152587891 0 -78.377037048339844
v 110.05625152587891 0 -79.354049682617188
v 110.05625152587891 0 -78.377037048339844
v 113.24375152587891 0 -77.888526916503906
v 111.65000152587891 0 -77.888526916503906
v 112.44687652587891 0 -78.377037048339844
v 112.44687652587891 0 -77.888526916503906
v 111.69999694824219 0 -77.723777770996094
v 111.5 0 -77.723777770996094
v 112.44687652587891 0 -77.644271850585938
v 112.04843902587891 0 -77.888526916503906
v 112.04843902587891 0 -77.644271850585938
v 110.05625152587891 0 -77.888526916503906
v 110.85312652587891 0 -78.377037048339844
v 110.85312652587891 0 -77.888526916503906
v 111.25156402587891 0 -77.400016784667969
v 110.85312652587891 0 -77.644271850585938
v 111.25156402587891 0 -77.888526916503906
v 111.25156402587891 0 -77.644271850585938
v 111.5 0 -76.923774719238281
v 107.09999847412109 0 -76.923774719238281
v 107.09999847412109 0 -81.001571655273438
v 111.5 0 -81.001571655273438
v 111.5 0 -78.523773193359375
v 111.69999694824219 0 -78.523773193359375
v 110.05625152587891 0 -78.86553955078125
v 110.85312652587891 0 -79.354049682617188
v 110.85312652587891 0 -78.86553955078125
v 108.46250152587891 0 -80.331069946289062
v 110.05625152587891 0 -80.331069946289062
v 111.25156402587891 0 -78.377037048339844
v 110.85312652587891 0 -78.621292114257812
v 111.25156402587891 0 -78.86553955078125
v 111.25156402587891 0 -78.621292114257812
v 113.24375152587891 0 -78.86553955078125
v 112.44687652587891 0 -79.354049682617188
v 112.44687652587891 0 -78.86553955078125
v 114.83750152587891 0 -80.331069946289062
v 113.24375152587891 0 -80.331069946289062
v 112.44687652587891 0 -78.621292114257812
v 112.04843902587891 0 -78.377037048339844
v 112.04843902587891 0 -78.86553955078125
v 112.04843902587891 0 -78.621292114257812
v 111.69999694824219 0 -79.001571655273438
v 111.90000152587891 0 -79.001571655273438
v 112.44687652587891 0 -79.109794616699219
v 112.04843902587891 0 -79.354049682617188
v 112.04843902587891 0 -79.109794616699219
v 113.24375152587891 0 -79.842559814453125
v 112.44687652587891 0 -80.331069946289062
v 112.44687652587891 0 -79.842559814453125
v 111.90000152587891 0 -79.201576232910156
v 111.69999694824219 0 -79.201576232910156
v 111.69999694824219 0 -81.001571655273438
v 113.55000305175781 0 -81.001571655273438
v 113.55000305175781 0 -79.201576232910156
v 112.69999694824219 0 -79.201576232910156
v 112.69999694824219 0 -79.001571655273438
v 112.84531402587891 0 -78.86553955078125
v 112.84531402587891 0 -79.354049682617188
v 114.83750152587891 0 -78.86553955078125
v 114.04062652587891 0 -78.377037048339844
v 114.04062652587891 0 -79.354049682617188
v 114.04062652587891 0 -78.86553955078125
v 118.02500152587891 0 -78.377037048339844
v 116.43125152587891 0 -77.400016784667969
v 116.43125152587891 0 -79.354049682617188
v 116.43125152587891 0 -78.377037048339844
v 113.55000305175781 0 -79.001571655273438
v 113.55000305175781 0 -76.923774719238281
v 112.75 0 -76.923774719238281
v 112.75 0 -76.574012756347656
v 114.69999694824219 0 -76.574012756347656
v 114.69999694824219 0 -76.923774719238281
v 114.04062652587891 0 -76.422996520996094
v 118.02500152587891 0 -76.422996520996094
v 116.43125152587891 0 -75.445976257324219
v 116.43125152587891 0 -76.422996520996094
v 113.90000152587891 0 -76.923774719238281
v 113.90000152587891 0 -79.001571655273438
v 114.75 0 -79.001571655273438
v 114.75 0 -79.201576232910156
v 114.43906402587891 0 -78.86553955078125
v 114.43906402587891 0 -79.354049682617188
v 114.83750152587891 0 -79.842559814453125
v 114.04062652587891 0 -80.331069946289062
v 114.04062652587891 0 -79.842559814453125
v 118.02500152587891 0 -80.331069946289062
v 116.43125152587891 0 -80.331069946289062
v 116.43125152587891 0 -78.86553955078125
v 115.63437652587891 0 -78.377037048339844
v 115.63437652587891 0 -79.354049682617188
v 115.63437652587891 0 -78.86553955078125
v 113.90000152587891 0 -79.201576232910156
v 113.90000152587891 0 -81.001571655273438
v 115.75 0 -81.001571655273438
v 115.75 0 -79.201576232910156
v 115.55000305175781 0 -79.201576232910156
v 116.43125152587891 0 -79.109794616699219
v 116.03281402587891 0 -78.86553955078125
v 116.03281402587891 0 -79.354049682617188
v 116.03281402587891 0 -79.109794616699219
v 116.43125152587891 0 -79.842559814453125
v 115.63437652587891 0 -80.331069946289062
v 115.63437652587891 0 -79.842559814453125
v 118.02500152587891 0 -78.86553955078125
v 117.22812652587891 0 -78.377037048339844
v 117.22812652587891 0 -79.354049682617188
v 117.22812652587891 0 -78.86553955078125
v 121.21250152587891 0 -78.377037048339844
v 119.61875152587891 0 -77.400016784667969
v 119.61875152587891 0 -79.354049682617188
v 119.61875152587891 0 -78.377037048339844
v 124.40000152587891 0 -77.400016784667969
v 124.40000152587891 0 -79.354049682617188
v 115.23593902587891 0 -78.86553955078125
v 115.23593902587891 0 -79.354049682617188
v 115.55000305175781 0 -79.001571655273438
v 115.75 0 -79.001571655273438
v 115.75 0 -78.523773193359375
v 115.94999694824219 0 -78.523773193359375
v 116.43125152587891 0 -78.621292114257812
v 116.03281402587891 0 -78.377037048339844
v 115.63437652587891 0 -78.621292114257812
v 116.03281402587891 0 -78.621292114257812
v 116.43125152587891 0 -77.888526916503906
v 115.63437652587891 0 -77.400016784667969
v 114.83750152587891 0 -77.888526916503906
v 115.63437652587891 0 -77.888526916503906
v 115.94999694824219 0 -81.001571655273438
v 120.34999847412109 0 -81.001571655273438
v 120.34999847412109 0 -76.923774719238281
v 115.94999694824219 0 -76.923774719238281
v 115.94999694824219 0 -77.723777770996094
v 115.75 0 -77.723777770996094
v 116.43125152587891 0 -77.644271850585938
v 116.03281402587891 0 -77.400016784667969
v 115.63437652587891 0 -77.644271850585938
v 116.03281402587891 0 -77.888526916503906
v 116.03281402587891 0 -77.644271850585938
v 118.02500152587891 0 -77.888526916503906
v 117.22812652587891 0 -77.400016784667969
v 117.22812652587891 0 -77.888526916503906
v 115.63437652587891 0 -76.422996520996094
v 115.75 0 -76.923774719238281
v 115.59999847412109 0 -76.923774719238281
v 116.43125152587891 0 -77.15576171875
v 115.63437652587891 0 -77.15576171875
v 116.03281402587891 0 -77.15576171875
v 117.22812652587891 0 -76.422996520996094
v 121.21250152587891 0 -76.422996520996094
v 119.61875152587891 0 -75.445976257324219
v 119.61875152587891 0 -76.422996520996094
v 127.58750152587891 0 -75.445976257324219
v 124.40000152587891 0 -73.491935729980469
v 124.40000152587891 0 -75.445976257324219
v 115.23593902587891 0 -76.911506652832031
v 114.83750152587891 0 -77.15576171875
v 115.23593902587891 0 -77.400016784667969
v 115.23593902587891 0 -77.15576171875
v 115.59999847412109 0 -76.574012756347656
v 118.88333129882812 0 -76.574012756347656
v 122.16666412353516 0 -76.574012756347656
v 125.44999694824219 0 -76.574012756347656
v 125.44999694824219 0 -76.923774719238281
v 127.58750152587891 0 -76.422996520996094
v 125.99375152587891 0 -75.445976257324219
v 124.40000152587891 0 -76.422996520996094
v 125.99375152587891 0 -77.400016784667969
v 125.99375152587891 0 -76.422996520996094
v 133.96249389648438 0 -75.445976257324219
v 130.77499389648438 0 -73.491935729980469
v 130.77499389648438 0 -77.400016784667969
v 130.77499389648438 0 -75.445976257324219
v 125.99375152587891 0 -76.911506652832031
v 125.19687652587891 0 -76.422996520996094
v 122.80625152587891 0 -75.445976257324219
v 122.80625152587891 0 -77.400016784667969
v 122.80625152587891 0 -76.422996520996094
v 124.40000152587891 0 -78.377037048339844
v 125.99375152587891 0 -79.354049682617188
v 125.99375152587891 0 -78.377037048339844
v 130.77499389648438 0 -79.354049682617188
v 125.30000305175781 0 -76.923774719238281
v 125.99375152587891 0 -77.15576171875
v 125.59531402587891 0 -76.911506652832031
v 125.59531402587891 0 -77.400016784667969
v 125.59531402587891 0 -77.15576171875
v 125.99375152587891 0 -77.888526916503906
v 124.40000152587891 0 -77.888526916503906
v 125.19687652587891 0 -78.377037048339844
v 125.19687652587891 0 -77.888526916503906
v 122.80625152587891 0 -79.354049682617188
v 122.80625152587891 0 -78.377037048339844
v 126.79062652587891 0 -76.422996520996094
v 126.79062652587891 0 -77.400016784667969
v 130.77499389648438 0 -76.422996520996094
v 129.18124389648438 0 -75.445976257324219
v 129.18124389648438 0 -77.400016784667969
v 129.18124389648438 0 -76.422996520996094
v 125.30000305175781 0 -77.723777770996094
v 125.09999847412109 0 -77.723777770996094
v 125.99375152587891 0 -77.644271850585938
v 125.59531402587891 0 -77.888526916503906
v 125.59531402587891 0 -77.644271850585938
v 126.79062652587891 0 -78.377037048339844
v 126.79062652587891 0 -77.888526916503906
v 130.77499389648438 0 -78.377037048339844
v 129.18124389648438 0 -79.354049682617188
v 129.18124389648438 0 -78.377037048339844
v 124.79843902587891 0 -77.400016784667969
v 124.40000152587891 0 -77.644271850585938
v 124.79843902587891 0 -77.888526916503906
v 124.79843902587891 0 -77.644271850585938
v 123.60312652587891 0 -77.400016784667969
v 122.80625152587891 0 -77.888526916503906
v 123.60312652587891 0 -78.377037048339844
v 123.60312652587891 0 -77.888526916503906
v 125.09999847412109 0 -76.923774719238281
v 120.69999694824219 0 -76.923774719238281
v 120.69999694824219 0 -81.001571655273438
v 125.09999847412109 0 -81.001571655273438
v 125.09999847412109 0 -78.523773193359375
v 125.30000305175781 0 -78.523773193359375
v 125.99375152587891 0 -78.86553955078125
v 124.40000152587891 0 -78.86553955078125
v 124.40000152587891 0 -80.331069946289062
v 125.99375152587891 0 -80.331069946289062
v 124.79843902587891 0 -78.377037048339844
v 124.40000152587891 0 -78.621292114257812
v 124.79843902587891 0 -78.86553955078125
v 124.79843902587891 0 -78.621292114257812
v 122.80625152587891 0 -78.86553955078125
v 123.60312652587891 0 -79.354049682617188
v 123.60312652587891 0 -78.86553955078125
v 121.21250152587891 0 -80.331069946289062
v 122.80625152587891 0 -80.331069946289062
v 125.99375152587891 0 -78.621292114257812
v 125.59531402587891 0 -78.377037048339844
v 125.59531402587891 0 -78.86553955078125
v 125.59531402587891 0 -78.621292114257812
v 126.79062652587891 0 -79.354049682617188
v 126.79062652587891 0 -78.86553955078125
v 125.30000305175781 0 -79.001571655273438
v 125.5 0 -79.001571655273438
v 125.99375152587891 0 -79.842559814453125
v 124.40000152587891 0 -79.842559814453125
v 125.5 0 -79.201576232910156
v 125.30000305175781 0 -79.201576232910156
v 125.30000305175781 0 -81.001571655273438
v 127.15000152587891 0 -81.001571655273438
v 127.15000152587891 0 -79.201576232910156
v 126.30000305175781 0 -79.201576232910156
v 126.30000305175781 0 -79.001571655273438
v 126.39218902587891 0 -78.86553955078125
v 126.39218902587891 0 -79.354049682617188
v 126.79062652587891 0 -80.331069946289062
v 126.79062652587891 0 -79.842559814453125
v 130.77499389648438 0 -80.331069946289062
v 129.18124389648438 0 -80.331069946289062
v 127.15000152587891 0 -79.001571655273438
v 127.15000152587891 0 -76.923774719238281
v 126.34999847412109 0 -76.923774719238281
v 126.34999847412109 0 -76.574012756347656
v 128.30000305175781 0 -76.574012756347656
v 128.30000305175781 0 -76.923774719238281
v 128.38436889648438 0 -76.422996520996094
v 128.38436889648438 0 -77.400016784667969
v 127.5 0 -76.923774719238281
v 127.5 0 -79.001571655273438
v 128.35000610351562 0 -79.001571655273438
v 128.35000610351562 0 -79.201576232910156
v 129.18124389648438 0 -78.86553955078125
v 128.38436889648438 0 -78.377037048339844
v 128.38436889648438 0 -79.354049682617188
v 128.38436889648438 0 -78.86553955078125
v 129.18124389648438 0 -79.842559814453125
v 128.38436889648438 0 -80.331069946289062
v 128.38436889648438 0 -79.842559814453125
v 127.5 0 -79.201576232910156
v 127.5 0 -81.001571655273438
v 129.35000610351562 0 -81.001571655273438
v 129.35000610351562 0 -79.201576232910156
v 129.14999389648438 0 -79.201576232910156
v 130.77499389648438 0 -78.86553955078125
v 129.97811889648438 0 -78.377037048339844
v 129.97811889648438 0 -79.354049682617188
v 129.97811889648438 0 -78.86553955078125
v 132.36874389648438 0 -77.400016784667969
v 132.36874389648438 0 -79.354049682617188
v 132.36874389648438 0 -78.377037048339844
v 140.33749389648438 0 -79.354049682617188
v 137.14999389648438 0 -77.400016784667969
v 137.14999389648438 0 -79.354049682617188
v 129.97811889648438 0 -79.109794616699219
v 130.77499389648438 0 -79.842559814453125
v 129.97811889648438 0 -80.331069946289062
v 129.97811889648438 0 -79.842559814453125
v 132.36874389648438 0 -80.331069946289062
v 128.78280639648438 0 -78.86553955078125
v 128.78280639648438 0 -79.354049682617188
v 129.14999389648438 0 -79.001571655273438
v 129.35000610351562 0 -79.001571655273438
v 129.35000610351562 0 -78.523773193359375
v 129.55000305175781 0 -78.523773193359375
v 129.97811889648438 0 -78.621292114257812
v 129.57968139648438 0 -78.377037048339844
v 129.18124389648438 0 -78.621292114257812
v 130.77499389648438 0 -77.888526916503906
v 129.97811889648438 0 -77.400016784667969
v 129.18124389648438 0 -77.888526916503906
v 129.97811889648438 0 -77.888526916503906
v 129.55000305175781 0 -81.001571655273438
v 133.94999694824219 0 -81.001571655273438
v 133.94999694824219 0 -76.923774719238281
v 129.55000305175781 0 -76.923774719238281
v 129.55000305175781 0 -77.723777770996094
v 129.35000610351562 0 -77.723777770996094
v 129.97811889648438 0 -77.644271850585938
v 129.18124389648438 0 -77.644271850585938
v 129.57968139648438 0 -77.888526916503906
v 129.97811889648438 0 -76.422996520996094
v 133.96249389648438 0 -76.422996520996094
v 132.36874389648438 0 -75.445976257324219
v 140.33749389648438 0 -75.445976257324219
v 137.14999389648438 0 -73.491935729980469
v 137.14999389648438 0 -75.445976257324219
v 128.38436889648438 0 -77.888526916503906
v 129.35000610351562 0 -76.923774719238281
v 129.19999694824219 0 -76.923774719238281
v 129.19999694824219 0 -76.574012756347656
v 132.48333740234375 0 -76.574012756347656
v 135.76666259765625 0 -76.574012756347656
v 139.05000305175781 0 -76.574012756347656
v 139.05000305175781 0 -76.923774719238281
v 140.33749389648438 0 -76.422996520996094
v 138.74374389648438 0 -75.445976257324219
v 137.14999389648438 0 -76.422996520996094
v 138.74374389648438 0 -76.422996520996094
v 146.71249389648438 0 -75.445976257324219
v 143.52499389648438 0 -73.491935729980469
v 143.52499389648438 0 -77.400016784667969
v 143.52499389648438 0 -75.445976257324219
v 139.54061889648438 0 -76.422996520996094
v 139.54061889648438 0 -77.400016784667969
v 139.54061889648438 0 -76.911506652832031
v 140.33749389648438 0 -78.377037048339844
v 137.14999389648438 0 -78.377037048339844
v 138.74374389648438 0 -78.377037048339844
v 146.71249389648438 0 -79.354049682617188
v 143.52499389648438 0 -79.354049682617188
v 143.52499389648438 0 -76.422996520996094
v 141.93124389648438 0 -75.445976257324219
v 141.93124389648438 0 -77.400016784667969
v 141.93124389648438 0 -76.422996520996094
v 138.89999389648438 0 -76.923774719238281
v 139.54061889648438 0 -77.15576171875
v 139.14218139648438 0 -77.400016784667969
v 139.14218139648438 0 -77.15576171875
v 137.94686889648438 0 -76.422996520996094
v 137.94686889648438 0 -77.400016784667969
v 135.55624389648438 0 -75.445976257324219
v 135.55624389648438 0 -77.400016784667969
v 140.33749389648438 0 -77.888526916503906
v 138.74374389648438 0 -77.888526916503906
v 139.54061889648438 0 -78.377037048339844
v 139.54061889648438 0 -77.888526916503906
v 143.52499389648438 0 -78.377037048339844
v 141.93124389648438 0 -79.354049682617188
v 141.93124389648438 0 -78.377037048339844
v 138.89999389648438 0 -77.723777770996094
v 138.69999694824219 0 -77.723777770996094
v 139.54061889648438 0 -77.644271850585938
v 139.14218139648438 0 -77.888526916503906
v 139.14218139648438 0 -77.644271850585938
v 137.14999389648438 0 -77.888526916503906
v 137.94686889648438 0 -78.377037048339844
v 137.94686889648438 0 -77.888526916503906
v 135.55624389648438 0 -79.354049682617188
v 135.55624389648438 0 -78.377037048339844
v 138.34530639648438 0 -77.400016784667969
v 137.94686889648438 0 -77.644271850585938
v 138.34530639648438 0 -77.888526916503906
v 138.34530639648438 0 -77.644271850585938
v 138.69999694824219 0 -76.923774719238281
v 134.30000305175781 0 -76.923774719238281
v 134.30000305175781 0 -81.001571655273438
v 138.69999694824219 0 -81.001571655273438
v 138.69999694824219 0 -78.523773193359375
v 138.89999389648438 0 -78.523773193359375
v 137.14999389648438 0 -78.86553955078125
v 137.94686889648438 0 -79.354049682617188
v 137.94686889648438 0 -78.86553955078125
v 140.33749389648438 0 -80.331069946289062
v 138.34530639648438 0 -78.377037048339844
v 137.94686889648438 0 -78.621292114257812
v 138.34530639648438 0 -78.86553955078125
v 138.34530639648438 0 -78.621292114257812
v 140.33749389648438 0 -78.86553955078125
v 139.54061889648438 0 -79.354049682617188
v 139.54061889648438 0 -78.86553955078125
v 139.54061889648438 0 -78.621292114257812
v 139.14218139648438 0 -78.377037048339844
v 139.14218139648438 0 -78.86553955078125
v 139.14218139648438 0 -78.621292114257812
v 138.89999389648438 0 -79.001571655273438
v 139.10000610351562 0 -79.001571655273438
v 140.33749389648438 0 -79.842559814453125
v 139.54061889648438 0 -80.331069946289062
v 139.54061889648438 0 -79.842559814453125
v 143.52499389648438 0 -80.331069946289062
v 141.93124389648438 0 -80.331069946289062
v 139.10000610351562 0 -79.201576232910156
v 138.89999389648438 0 -79.201576232910156
v 138.89999389648438 0 -81.001571655273438
v 140.75 0 -81.001571655273438
v 140.75 0 -79.201576232910156
v 139.89999389648438 0 -79.201576232910156
v 139.89999389648438 0 -79.001571655273438
v 139.93905639648438 0 -78.86553955078125
v 139.93905639648438 0 -79.354049682617188
v 141.93124389648438 0 -78.86553955078125
v 140.75 0 -79.001571655273438
v 140.75 0 -76.923774719238281
v 139.94999694824219 0 -76.923774719238281
v 139.94999694824219 0 -76.574012756347656
v 141.89999389648438 0 -76.574012756347656
v 141.89999389648438 0 -76.923774719238281
v 141.13436889648438 0 -76.422996520996094
v 141.10000610351562 0 -76.923774719238281
v 141.10000610351562 0 -79.001571655273438
v 141.94999694824219 0 -79.001571655273438
v 141.94999694824219 0 -79.201576232910156
v 143.52499389648438 0 -78.86553955078125
v 142.72811889648438 0 -78.377037048339844
v 142.72811889648438 0 -79.354049682617188
v 142.72811889648438 0 -78.86553955078125
v 146.71249389648438 0 -78.377037048339844
v 145.11874389648438 0 -77.400016784667969
v 145.11874389648438 0 -79.354049682617188
v 145.11874389648438 0 -78.377037048339844
v 153.08749389648438 0 -79.354049682617188
v 149.89999389648438 0 -77.400016784667969
v 149.89999389648438 0 -79.354049682617188
v 142.32968139648438 0 -78.86553955078125
v 142.32968139648438 0 -79.354049682617188
v 143.52499389648438 0 -79.842559814453125
v 141.93124389648438 0 -79.842559814453125
v 142.72811889648438 0 -80.331069946289062
v 142.72811889648438 0 -79.842559814453125
v 146.71249389648438 0 -80.331069946289062
v 145.11874389648438 0 -80.331069946289062
v 141.10000610351562 0 -79.201576232910156
v 141.10000610351562 0 -81.001571655273438
v 142.94999694824219 0 -81.001571655273438
v 142.94999694824219 0 -79.201576232910156
v 142.75 0 -79.201576232910156
v 143.52499389648438 0 -79.109794616699219
v 145.11874389648438 0 -78.86553955078125
v 144.32186889648438 0 -78.377037048339844
v 144.32186889648438 0 -79.354049682617188
v 144.32186889648438 0 -78.86553955078125
v 142.75 0 -79.001571655273438
v 142.94999694824219 0 -79.001571655273438
v 142.94999694824219 0 -78.523773193359375
v 143.14999389648438 0 -78.523773193359375
v 143.52499389648438 0 -78.621292114257812
v 143.12655639648438 0 -78.377037048339844
v 142.72811889648438 0 -78.621292114257812
v 143.52499389648438 0 -77.888526916503906
v 142.72811889648438 0 -77.400016784667969
v 141.93124389648438 0 -77.888526916503906
v 142.72811889648438 0 -77.888526916503906
v 143.14999389648438 0 -81.001571655273438
v 147.55000305175781 0 -81.001571655273438
v 147.55000305175781 0 -76.923774719238281
v 143.14999389648438 0 -76.923774719238281
v 143.14999389648438 0 -77.723777770996094
v 142.94999694824219 0 -77.723777770996094
v 143.52499389648438 0 -77.644271850585938
v 142.72811889648438 0 -77.644271850585938
v 143.12655639648438 0 -77.888526916503906
v 145.11874389648438 0 -77.888526916503906
v 144.32186889648438 0 -77.400016784667969
v 144.32186889648438 0 -77.888526916503906
v 145.11874389648438 0 -75.445976257324219
v 145.11874389648438 0 -76.422996520996094
v 153.08749389648438 0 -75.445976257324219
v 149.89999389648438 0 -73.491935729980469
v 149.89999389648438 0 -75.445976257324219
v 142.72811889648438 0 -76.422996520996094
v 142.94999694824219 0 -76.923774719238281
v 142.80000305175781 0 -76.923774719238281
v 144.32186889648438 0 -76.422996520996094
v 142.80000305175781 0 -76.574012756347656
v 146.08332824707031 0 -76.574012756347656
v 149.36666870117188 0 -76.574012756347656
v 152.64999389648438 0 -76.574012756347656
v 152.64999389648438 0 -76.923774719238281
v 153.08749389648438 0 -76.422996520996094
v 151.49374389648438 0 -75.445976257324219
v 151.49374389648438 0 -77.400016784667969
v 151.49374389648438 0 -76.422996520996094
v 156.27499389648438 0 -73.491935729980469
v 156.27499389648438 0 -77.400016784667969
v 156.27499389648438 0 -75.445976257324219
v 152.29061889648438 0 -76.422996520996094
v 153.08749389648438 0 -78.377037048339844
v 149.89999389648438 0 -78.377037048339844
v 151.49374389648438 0 -79.354049682617188
v 151.49374389648438 0 -78.377037048339844
v 156.27499389648438 0 -79.354049682617188
v 156.27499389648438 0 -76.422996520996094
v 154.68124389648438 0 -75.445976257324219
v 154.68124389648438 0 -76.422996520996094
v 152.5 0 -76.923774719238281
v 153.08749389648438 0 -77.15576171875
v 152.68905639648438 0 -77.400016784667969
v 152.68905639648438 0 -77.15576171875
v 153.08749389648438 0 -77.888526916503906
v 151.49374389648438 0 -77.888526916503906
v 152.29061889648438 0 -78.377037048339844
v 152.29061889648438 0 -77.888526916503906
v 156.27499389648438 0 -78.377037048339844
v 153.88436889648438 0 -76.422996520996094
v 153.88436889648438 0 -77.400016784667969
v 152.5 0 -77.723777770996094
v 152.30000305175781 0 -77.723777770996094
v 153.08749389648438 0 -77.644271850585938
v 152.68905639648438 0 -77.888526916503906
v 152.68905639648438 0 -77.644271850585938
v 153.88436889648438 0 -78.377037048339844
v 153.88436889648438 0 -77.888526916503906
v 152.30000305175781 0 -76.923774719238281
v 147.89999389648438 0 -76.923774719238281
v 147.89999389648438 0 -81.001571655273438
v 152.30000305175781 0 -81.001571655273438
v 152.30000305175781 0 -78.523773193359375
v 152.5 0 -78.523773193359375
v 153.08749389648438 0 -78.86553955078125
v 151.49374389648438 0 -78.86553955078125
v 153.08749389648438 0 -80.331069946289062
v 149.89999389648438 0 -80.331069946289062
v 151.49374389648438 0 -80.331069946289062
v 153.08749389648438 0 -78.621292114257812
v 152.68905639648438 0 -78.377037048339844
v 152.68905639648438 0 -78.86553955078125
v 152.68905639648438 0 -78.621292114257812
v 153.88436889648438 0 -79.354049682617188
v 153.88436889648438 0 -78.86553955078125
v 156.27499389648438 0 -80.331069946289062
v 152.5 0 -79.001571655273438
v 152.69999694824219 0 -79.001571655273438
v 153.08749389648438 0 -79.842559814453125
v 151.49374389648438 0 -79.842559814453125
v 152.69999694824219 0 -79.201576232910156
v 152.5 0 -79.201576232910156
v 152.5 0 -81.001571655273438
v 154.35000610351562 0 -81.001571655273438
v 154.35000610351562 0 -79.201576232910156
v 153.5 0 -79.201576232910156
v 153.5 0 -79.001571655273438
v 153.48593139648438 0 -78.86553955078125
v 153.48593139648438 0 -79.354049682617188
v 153.88436889648438 0 -80.331069946289062
v 153.88436889648438 0 -79.842559814453125
v 154.35000610351562 0 -79.001571655273438
v 154.35000610351562 0 -76.923774719238281
v 153.55000305175781 0 -76.923774719238281
v 153.55000305175781 0 -76.574012756347656
v 155.5 0 -76.574012756347656
v 155.5 0 -76.923774719238281
v 155.47811889648438 0 -76.422996520996094
v 155.47811889648438 0 -77.400016784667969
v 157.86874389648438 0 -75.445976257324219
v 157.86874389648438 0 -77.400016784667969
v 157.86874389648438 0 -76.422996520996094
v 154.69999694824219 0 -76.923774719238281
v 154.69999694824219 0 -79.001571655273438
v 155.55000305175781 0 -79.001571655273438
v 155.55000305175781 0 -79.201576232910156
v 156.27499389648438 0 -78.86553955078125
v 155.47811889648438 0 -78.377037048339844
v 155.47811889648438 0 -79.354049682617188
v 155.47811889648438 0 -78.86553955078125
v 159.46249389648438 0 -78.377037048339844
v 157.86874389648438 0 -79.354049682617188
v 157.86874389648438 0 -78.377037048339844
v 155.87655639648438 0 -78.86553955078125
v 155.87655639648438 0 -79.354049682617188
v 156.27499389648438 0 -79.842559814453125
v 155.47811889648438 0 -80.331069946289062
v 155.47811889648438 0 -79.842559814453125
v 159.46249389648438 0 -80.331069946289062
v 157.86874389648438 0 -80.331069946289062
v 157.86874389648438 0 -78.86553955078125
v 157.07186889648438 0 -78.377037048339844
v 157.07186889648438 0 -79.354049682617188
v 157.07186889648438 0 -78.86553955078125
v 154.69999694824219 0 -79.201576232910156
v 154.69999694824219 0 -81.001571655273438
v 156.55000305175781 0 -81.001571655273438
v 156.55000305175781 0 -79.201576232910156
v 156.35000610351562 0 -79.201576232910156
v 157.07186889648438 0 -79.109794616699219
v 157.86874389648438 0 -79.842559814453125
v 157.07186889648438 0 -80.331069946289062
v 157.07186889648438 0 -79.842559814453125
v 156.35000610351562 0 -79.001571655273438
v 156.55000305175781 0 -79.001571655273438
v 156.55000305175781 0 -78.523773193359375
v 156.75 0 -78.523773193359375
v 157.07186889648438 0 -78.621292114257812
v 156.67343139648438 0 -78.377037048339844
v 156.27499389648438 0 -78.621292114257812
v 157.86874389648438 0 -77.888526916503906
v 157.07186889648438 0 -77.400016784667969
v 156.27499389648438 0 -77.888526916503906
v 157.07186889648438 0 -77.888526916503906
v 156.75 0 -81.001571655273438
v 161.14999389648438 0 -81.001571655273438
v 161.14999389648438 0 -76.923774719238281
v 156.75 0 -76.923774719238281
v 156.75 0 -77.723777770996094
v 156.55000305175781 0 -77.723777770996094
v 157.07186889648438 0 -77.644271850585938
v 156.27499389648438 0 -77.644271850585938
v 156.67343139648438 0 -77.888526916503906
v 157.07186889648438 0 -76.422996520996094
v 155.47811889648438 0 -77.888526916503906
v 156.55000305175781 0 -76.923774719238281
v 156.39999389648438 0 -76.923774719238281
v 156.39999389648438 0 -76.574012756347656
v 158.94999694824219 0 -76.574012756347656
v 161.5 0 -76.574012756347656
v 161.5 0 -81.001571655273438
v 164.64999389648438 0 -81.001571655273438
v 164.64999389648438 0 -78.537796020507812
v 164.64999389648438 0 -76.074012756347656
v 165 0 -76.074012756347656
v 164.24374389648438 0 -75.934486389160156
v 165.04061889648438 0 -75.934486389160156
v 165 0 -78.537796020507812
v 165 0 -81.001571655273438
v 166.80000305175781 0 -81.001571655273438
v 166.80000305175781 0 -78.323539733886719
v 167 0 -78.323539733886719
v 169.02499389648438 0 -78.377037048339844
v 165.83749389648438 0 -78.377037048339844
v 167.43124389648438 0 -79.354049682617188
v 167.43124389648438 0 -78.377037048339844
v 167.43124389648438 0 -77.888526916503906
v 166.63436889648438 0 -77.400016784667969
v 165.83749389648438 0 -77.888526916503906
v 166.63436889648438 0 -78.377037048339844
v 166.63436889648438 0 -77.888526916503906
v 162.64999389648438 0 -78.377037048339844
v 164.24374389648438 0 -79.354049682617188
v 164.24374389648438 0 -78.377037048339844
v 167.43124389648438 0 -78.132781982421875
v 167.03280639648438 0 -77.888526916503906
v 166.63436889648438 0 -78.132781982421875
v 167.03280639648438 0 -78.132781982421875
v 167.43124389648438 0 -78.86553955078125
v 165.83749389648438 0 -78.86553955078125
v 166.63436889648438 0 -79.354049682617188
v 166.63436889648438 0 -78.86553955078125
v 169.02499389648438 0 -80.331069946289062
v 167.43124389648438 0 -80.331069946289062
v 169.02499389648438 0 -77.888526916503906
v 168.22811889648438 0 -77.400016784667969
v 168.22811889648438 0 -78.377037048339844
v 168.22811889648438 0 -77.888526916503906
v 170.61874389648438 0 -77.400016784667969
v 170.61874389648438 0 -79.354049682617188
v 170.61874389648438 0 -78.377037048339844
v 167 0 -81.001571655273438
v 171.39999389648438 0 -81.001571655273438
v 171.39999389648438 0 -76.848777770996094
v 167 0 -76.848777770996094
v 167 0 -77.423538208007812
v 166.80000305175781 0 -77.423538208007812
v 167.43124389648438 0 -77.644271850585938
v 166.63436889648438 0 -77.644271850585938
v 167.03280639648438 0 -77.644271850585938
v 165.83749389648438 0 -76.911506652832031
v 166.63436889648438 0 -76.911506652832031
v 166.80000305175781 0 -76.074012756347656
v 167 0 -76.074012756347656
v 167.43124389648438 0 -76.178741455078125
v 167.03280639648438 0 -75.934486389160156
v 166.63436889648438 0 -76.178741455078125
v 169.02499389648438 0 -75.934486389160156
v 168.22811889648438 0 -76.422996520996094
v 168.22811889648438 0 -75.934486389160156
v 170.61874389648438 0 -76.422996520996094
f 150 151 152 153 154 155 156 157 158 159 160 161 162 163 164 165 180 181 182 183 184 185 186 187 214 228 229 240 241 242 243 244 245 264 265 272 273 274 275 276 277 278 289 290 291 292 293 294 299 300 301 302 314 315 316 317 318 338 339 340 341 350 351 352 353 354 355 365 366 381 382 383 384 385 404 421 422 439 440 441 442 443 444 464 465 468 469 470 471 472 473 474 481 482 483 484 485 486 489 490 491 492 500 501 502 503 504 522 523 524 525 533 534 535 536 537 538 549 550 551 552 553 554 555 576 591 592 605 606 607 608 609 610 626 627 633 634 635 636 637 638 639 643 644 645 646 647 648 650 651 652 653 673 674 675 676 677 683 684 685 686 694 695 696 697 698 699 712 713 715 716 717 718 719 736 747 748 754 755 756 757 758 759 772 773 776 777 778 779 780 781 782 787 788 789 790 791 792 798 799 800 801 820 821 822 823 824 829 830 831 832 840 841 842 843 844 845 851 852 853 854 855 856 857 858 859 860 863 864 865 866 867 897 898 899 900 901 902 908 909 23 24 25 26 27 28 76 77 78 79 82 83 84 85 86 87 88 89 90 91 92 93 94 95 96 97 98 120 121 122 123 124 125 143 144 145 146 147 148 149
