# Rhino

g object_1
v 165 3 -75.948776245117188
v 164.64999389648438 3 -75.948776245117188
v 164.64999389648438 3 -81.001571655273438
v 161.5 3 -81.001571655273438
v 161.5 3 -72.495979309082031
v 164.64999389648438 3 -72.495979309082031
v 164.64999389648438 3 -75.148773193359375
v 165 3 -75.148773193359375
v 165 3 -72.495979309082031
v 171.39999389648438 3 -72.495979309082031
v 171.39999389648438 3 -81.001571655273438
v 165 3 -81.001571655273438
f 5 6 7 8 9 10 11 12 1 2 3 4
g object_2
v 103.25 3 -75.948776245117188
v 103.25 3 -81.001571655273438
v 96.800003051757812 3 -81.001571655273438
v 96.800003051757812 3 -72.495979309082031
v 103.25 3 -72.495979309082031
v 103.25 3 -75.148773193359375
v 103.59999847412109 3 -75.148773193359375
v 103.59999847412109 3 -72.495979309082031
v 106.75 3 -72.495979309082031
v 106.75 3 -81.001571655273438
v 103.59999847412109 3 -81.001571655273438
v 103.59999847412109 3 -75.948776245117188
f 16 17 18 19 20 21 22 23 24 13 14 15
g object_3
v 98.599998474121094 3 -63.145977020263672
v 90.150001525878906 3 -63.145977020263672
v 90.150001525878906 3 -60.200000762939453
v 97.300003051757812 3 -60.200000762939453
v 97.300003051757812 3 -59.849998474121094
v 90.150001525878906 3 -59.849998474121094
v 90.150001525878906 3 -50.349998474121094
v 99.650001525878906 3 -50.349998474121094
v 99.650001525878906 3 -59.849998474121094
v 98.199996948242188 3 -59.849998474121094
v 98.199996948242188 3 -60.200000762939453
v 98.599998474121094 3 -60.200000762939453
f 30 31 32 33 34 35 36 25 26 27 28 29
g object_4
v 147.89999389648438 3 -72.495979309082031
v 151.60000610351562 3 -72.495979309082031
v 151.60000610351562 3 -75.723777770996094
v 152.19999694824219 3 -75.723777770996094
v 152.19999694824219 3 -76.723777770996094
v 151.60000610351562 3 -76.723777770996094
v 151.60000610351562 3 -76.923774719238281
v 152.39999389648438 3 -76.923774719238281
v 152.39999389648438 3 -75.523773193359375
v 151.80000305175781 3 -75.523773193359375
v 151.80000305175781 3 -74.523773193359375
v 152.39999389648438 3 -74.523773193359375
v 152.39999389648438 3 -74.323776245117188
v 151.80000305175781 3 -74.323776245117188
v 151.80000305175781 3 -72.495979309082031
v 154.35000610351562 3 -72.495979309082031
v 154.35000610351562 3 -76.723777770996094
v 153 3 -76.723777770996094
v 153 3 -76.923774719238281
v 154.35000610351562 3 -76.923774719238281
v 154.35000610351562 3 -79.251571655273438
v 153.55000305175781 3 -79.251571655273438
v 153.55000305175781 3 -77.651573181152344
v 153.35000610351562 3 -77.651573181152344
v 153.35000610351562 3 -79.451576232910156
v 154.35000610351562 3 -79.451576232910156
v 154.35000610351562 3 -80.151573181152344
v 153.35000610351562 3 -80.151573181152344
v 153.35000610351562 3 -80.351577758789062
v 154.35000610351562 3 -80.351577758789062
v 154.35000610351562 3 -81.001571655273438
v 151.80000305175781 3 -81.001571655273438
v 151.80000305175781 3 -79.451576232910156
v 152.55000305175781 3 -79.451576232910156
v 152.55000305175781 3 -80.351577758789062
v 152.75 3 -80.351577758789062
v 152.75 3 -79.451576232910156
v 152.75 3 -79.251571655273438
v 151.80000305175781 3 -79.251571655273438
v 151.80000305175781 3 -77.501571655273438
v 149.64999389648438 3 -77.501571655273438
v 149.64999389648438 3 -76.901573181152344
v 149.44999694824219 3 -76.901573181152344
v 149.44999694824219 3 -77.501571655273438
v 147.89999389648438 3 -77.501571655273438
f 41 42 43 44 45 46 47 48 49 50 51 52 53 54 55 56 57 58 59 60 61 62 63 64 65 66 67 68 69 70 71 72 73 74 75 76 77 78 79 80 81 37 38 39 40
g object_5
v 140.75 3 -72.495979309082031
v 140.75 3 -76.723777770996094
v 139.39999389648438 3 -76.723777770996094
v 139.39999389648438 3 -76.923774719238281
v 140.75 3 -76.923774719238281
v 140.75 3 -79.251571655273438
v 139.94999694824219 3 -79.251571655273438
v 139.94999694824219 3 -77.651573181152344
v 139.75 3 -77.651573181152344
v 139.75 3 -79.451576232910156
v 140.75 3 -79.451576232910156
v 140.75 3 -80.151573181152344
v 139.75 3 -80.151573181152344
v 139.75 3 -80.351577758789062
v 140.75 3 -80.351577758789062
v 140.75 3 -81.001571655273438
v 138.19999694824219 3 -81.001571655273438
v 138.19999694824219 3 -79.451576232910156
v 138.94999694824219 3 -79.451576232910156
v 138.94999694824219 3 -80.351577758789062
v 139.14999389648438 3 -80.351577758789062
v 139.14999389648438 3 -79.451576232910156
v 139.14999389648438 3 -79.251571655273438
v 138.19999694824219 3 -79.251571655273438
v 138.19999694824219 3 -77.501571655273438
v 136.05000305175781 3 -77.501571655273438
v 136.05000305175781 3 -76.901573181152344
v 135.85000610351562 3 -76.901573181152344
v 135.85000610351562 3 -77.501571655273438
v 134.30000305175781 3 -77.501571655273438
v 134.30000305175781 3 -72.495979309082031
v 138 3 -72.495979309082031
v 138 3 -75.723777770996094
v 138.60000610351562 3 -75.723777770996094
v 138.60000610351562 3 -76.723777770996094
v 138 3 -76.723777770996094
v 138 3 -76.923774719238281
v 138.80000305175781 3 -76.923774719238281
v 138.80000305175781 3 -75.523773193359375
v 138.19999694824219 3 -75.523773193359375
v 138.19999694824219 3 -74.523773193359375
v 138.80000305175781 3 -74.523773193359375
v 138.80000305175781 3 -74.323776245117188
v 138.19999694824219 3 -74.323776245117188
v 138.19999694824219 3 -72.495979309082031
f 116 117 118 119 120 121 122 123 124 125 126 82 83 84 85 86 87 88 89 90 91 92 93 94 95 96 97 98 99 100 101 102 103 104 105 106 107 108 109 110 111 112 113 114 115
g object_6
v 127.15000152587891 3 -72.495979309082031
v 127.15000152587891 3 -76.723777770996094
v 125.80000305175781 3 -76.723777770996094
v 125.80000305175781 3 -76.923774719238281
v 127.15000152587891 3 -76.923774719238281
v 127.15000152587891 3 -79.251571655273438
v 126.34999847412109 3 -79.251571655273438
v 126.34999847412109 3 -77.651573181152344
v 126.15000152587891 3 -77.651573181152344
v 126.15000152587891 3 -79.451576232910156
v 127.15000152587891 3 -79.451576232910156
v 127.15000152587891 3 -80.151573181152344
v 126.15000152587891 3 -80.151573181152344
v 126.15000152587891 3 -80.351577758789062
v 127.15000152587891 3 -80.351577758789062
v 127.15000152587891 3 -81.001571655273438
v 124.59999847412109 3 -81.001571655273438
v 124.59999847412109 3 -79.451576232910156
v 125.34999847412109 3 -79.451576232910156
v 125.34999847412109 3 -80.351577758789062
v 125.55000305175781 3 -80.351577758789062
v 125.55000305175781 3 -79.451576232910156
v 125.55000305175781 3 -79.251571655273438
v 124.59999847412109 3 -79.251571655273438
v 124.59999847412109 3 -77.501571655273438
v 122.44999694824219 3 -77.501571655273438
v 122.44999694824219 3 -76.901573181152344
v 122.25 3 -76.901573181152344
v 122.25 3 -77.501571655273438
v 120.69999694824219 3 -77.501571655273438
v 120.69999694824219 3 -72.495979309082031
v 124.40000152587891 3 -72.495979309082031
v 124.40000152587891 3 -75.723777770996094
v 125 3 -75.723777770996094
v 125 3 -76.723777770996094
v 124.40000152587891 3 -76.723777770996094
v 124.40000152587891 3 -76.923774719238281
v 125.19999694824219 3 -76.923774719238281
v 125.19999694824219 3 -75.523773193359375
v 124.59999847412109 3 -75.523773193359375
v 124.59999847412109 3 -74.523773193359375
v 125.19999694824219 3 -74.523773193359375
v 125.19999694824219 3 -74.323776245117188
v 124.59999847412109 3 -74.323776245117188
v 124.59999847412109 3 -72.495979309082031
f 161 162 163 164 165 166 167 168 169 170 171 127 128 129 130 131 132 133 134 135 136 137 138 139 140 141 142 143 144 145 146 147 148 149 150 151 152 153 154 155 156 157 158 159 160
g object_7
v 113.55000305175781 3 -72.495979309082031
v 113.55000305175781 3 -76.723777770996094
v 112.19999694824219 3 -76.723777770996094
v 112.19999694824219 3 -76.923774719238281
v 113.55000305175781 3 -76.923774719238281
v 113.55000305175781 3 -79.251571655273438
v 112.75 3 -79.251571655273438
v 112.75 3 -77.651573181152344
v 112.55000305175781 3 -77.651573181152344
v 112.55000305175781 3 -79.451576232910156
v 113.55000305175781 3 -79.451576232910156
v 113.55000305175781 3 -80.151573181152344
v 112.55000305175781 3 -80.151573181152344
v 112.55000305175781 3 -80.351577758789062
v 113.55000305175781 3 -80.351577758789062
v 113.55000305175781 3 -81.001571655273438
v 111 3 -81.001571655273438
v 111 3 -79.451576232910156
v 111.75 3 -79.451576232910156
v 111.75 3 -80.351577758789062
v 111.94999694824219 3 -80.351577758789062
v 111.94999694824219 3 -79.451576232910156
v 111.94999694824219 3 -79.251571655273438
v 111 3 -79.251571655273438
v 111 3 -77.501571655273438
v 108.84999847412109 3 -77.501571655273438
v 108.84999847412109 3 -76.901573181152344
v 108.65000152587891 3 -76.901573181152344
v 108.65000152587891 3 -77.501571655273438
v 107.09999847412109 3 -77.501571655273438
v 107.09999847412109 3 -72.495979309082031
v 110.80000305175781 3 -72.495979309082031
v 110.80000305175781 3 -75.723777770996094
v 111.40000152587891 3 -75.723777770996094
v 111.40000152587891 3 -76.723777770996094
v 110.80000305175781 3 -76.723777770996094
v 110.80000305175781 3 -76.923774719238281
v 111.59999847412109 3 -76.923774719238281
v 111.59999847412109 3 -75.523773193359375
v 111 3 -75.523773193359375
v 111 3 -74.523773193359375
v 111.59999847412109 3 -74.523773193359375
v 111.59999847412109 3 -74.323776245117188
v 111 3 -74.323776245117188
v 111 3 -72.495979309082031
f 206 207 208 209 210 211 212 213 214 215 216 172 173 174 175 176 177 178 179 180 181 182 183 184 185 186 187 188 189 190 191 192 193 194 195 196 197 198 199 200 201 202 203 204 205
g object_8
v 120.34999847412109 3 -72.495979309082031
v 116.65000152587891 3 -72.495979309082031
v 116.65000152587891 3 -75.723777770996094
v 116.05000305175781 3 -75.723777770996094
v 116.05000305175781 3 -76.723777770996094
v 116.65000152587891 3 -76.723777770996094
v 116.65000152587891 3 -76.923774719238281
v 115.84999847412109 3 -76.923774719238281
v 115.84999847412109 3 -75.523773193359375
v 116.44999694824219 3 -75.523773193359375
v 116.44999694824219 3 -74.523773193359375
v 115.84999847412109 3 -74.523773193359375
v 115.84999847412109 3 -74.323776245117188
v 116.44999694824219 3 -74.323776245117188
v 116.44999694824219 3 -72.495979309082031
v 113.90000152587891 3 -72.495979309082031
v 113.90000152587891 3 -76.723777770996094
v 115.25 3 -76.723777770996094
v 115.25 3 -76.923774719238281
v 113.90000152587891 3 -76.923774719238281
v 113.90000152587891 3 -79.251571655273438
v 114.69999694824219 3 -79.251571655273438
v 114.69999694824219 3 -77.651573181152344
v 114.90000152587891 3 -77.651573181152344
v 114.90000152587891 3 -79.451576232910156
v 113.90000152587891 3 -79.451576232910156
v 113.90000152587891 3 -80.151573181152344
v 114.90000152587891 3 -80.151573181152344
v 114.90000152587891 3 -80.351577758789062
v 113.90000152587891 3 -80.351577758789062
v 113.90000152587891 3 -81.001571655273438
v 116.44999694824219 3 -81.001571655273438
v 116.44999694824219 3 -79.451576232910156
v 115.69999694824219 3 -79.451576232910156
v 115.69999694824219 3 -80.351577758789062
v 115.5 3 -80.351577758789062
v 115.5 3 -79.451576232910156
v 115.5 3 -79.251571655273438
v 116.44999694824219 3 -79.251571655273438
v 116.44999694824219 3 -77.501571655273438
v 118.59999847412109 3 -77.501571655273438
v 118.59999847412109 3 -76.901573181152344
v 118.80000305175781 3 -76.901573181152344
v 118.80000305175781 3 -77.501571655273438
v 120.34999847412109 3 -77.501571655273438
f 221 220 219 218 217 261 260 259 258 257 256 255 254 253 252 251 250 249 248 247 246 245 244 243 242 241 240 239 238 237 236 235 234 233 232 231 230 229 228 227 226 225 224 223 222
g object_9
v 133.94999694824219 3 -72.495979309082031
v 130.25 3 -72.495979309082031
v 130.25 3 -75.723777770996094
v 129.64999389648438 3 -75.723777770996094
v 129.64999389648438 3 -76.723777770996094
v 130.25 3 -76.723777770996094
v 130.25 3 -76.923774719238281
v 129.44999694824219 3 -76.923774719238281
v 129.44999694824219 3 -75.523773193359375
v 130.05000305175781 3 -75.523773193359375
v 130.05000305175781 3 -74.523773193359375
v 129.44999694824219 3 -74.523773193359375
v 129.44999694824219 3 -74.323776245117188
v 130.05000305175781 3 -74.323776245117188
v 130.05000305175781 3 -72.495979309082031
v 127.5 3 -72.495979309082031
v 127.5 3 -76.723777770996094
v 128.85000610351562 3 -76.723777770996094
v 128.85000610351562 3 -76.923774719238281
v 127.5 3 -76.923774719238281
v 127.5 3 -79.251571655273438
v 128.30000305175781 3 -79.251571655273438
v 128.30000305175781 3 -77.651573181152344
v 128.5 3 -77.651573181152344
v 128.5 3 -79.451576232910156
v 127.5 3 -79.451576232910156
v 127.5 3 -80.151573181152344
v 128.5 3 -80.151573181152344
v 128.5 3 -80.351577758789062
v 127.5 3 -80.351577758789062
v 127.5 3 -81.001571655273438
v 130.05000305175781 3 -81.001571655273438
v 130.05000305175781 3 -79.451576232910156
v 129.30000305175781 3 -79.451576232910156
v 129.30000305175781 3 -80.351577758789062
v 129.10000610351562 3 -80.351577758789062
v 129.10000610351562 3 -79.451576232910156
v 129.10000610351562 3 -79.251571655273438
v 130.05000305175781 3 -79.251571655273438
v 130.05000305175781 3 -77.501571655273438
v 132.19999694824219 3 -77.501571655273438
v 132.19999694824219 3 -76.901573181152344
v 132.39999389648438 3 -76.901573181152344
v 132.39999389648438 3 -77.501571655273438
v 133.94999694824219 3 -77.501571655273438
f 266 265 264 263 262 306 305 304 303 302 301 300 299 298 297 296 295 294 293 292 291 290 289 288 287 286 285 284 283 282 281 280 279 278 277 276 275 274 273 272 271 270 269 268 267
g object_10
v 147.55000305175781 3 -72.495979309082031
v 143.85000610351562 3 -72.495979309082031
v 143.85000610351562 3 -75.723777770996094
v 143.25 3 -75.723777770996094
v 143.25 3 -76.723777770996094
v 143.85000610351562 3 -76.723777770996094
v 143.85000610351562 3 -76.923774719238281
v 143.05000305175781 3 -76.923774719238281
v 143.05000305175781 3 -75.523773193359375
v 143.64999389648438 3 -75.523773193359375
v 143.64999389648438 3 -74.523773193359375
v 143.05000305175781 3 -74.523773193359375
v 143.05000305175781 3 -74.323776245117188
v 143.64999389648438 3 -74.323776245117188
v 143.64999389648438 3 -72.495979309082031
v 141.10000610351562 3 -72.495979309082031
v 141.10000610351562 3 -76.723777770996094
v 142.44999694824219 3 -76.723777770996094
v 142.44999694824219 3 -76.923774719238281
v 141.10000610351562 3 -76.923774719238281
v 141.10000610351562 3 -79.251571655273438
v 141.89999389648438 3 -79.251571655273438
v 141.89999389648438 3 -77.651573181152344
v 142.10000610351562 3 -77.651573181152344
v 142.10000610351562 3 -79.451576232910156
v 141.10000610351562 3 -79.451576232910156
v 141.10000610351562 3 -80.151573181152344
v 142.10000610351562 3 -80.151573181152344
v 142.10000610351562 3 -80.351577758789062
v 141.10000610351562 3 -80.351577758789062
v 141.10000610351562 3 -81.001571655273438
v 143.64999389648438 3 -81.001571655273438
v 143.64999389648438 3 -79.451576232910156
v 142.89999389648438 3 -79.451576232910156
v 142.89999389648438 3 -80.351577758789062
v 142.69999694824219 3 -80.351577758789062
v 142.69999694824219 3 -79.451576232910156
v 142.69999694824219 3 -79.251571655273438
v 143.64999389648438 3 -79.251571655273438
v 143.64999389648438 3 -77.501571655273438
v 145.80000305175781 3 -77.501571655273438
v 145.80000305175781 3 -76.901573181152344
v 146 3 -76.901573181152344
v 146 3 -77.501571655273438
v 147.55000305175781 3 -77.501571655273438
f 311 310 309 308 307 351 350 349 348 347 346 345 344 343 342 341 340 339 338 337 336 335 334 333 332 331 330 329 328 327 326 325 324 323 322 321 320 319 318 317 316 315 314 313 312
g object_11
v 161.14999389648438 3 -72.495979309082031
v 157.44999694824219 3 -72.495979309082031
v 157.44999694824219 3 -75.723777770996094
v 156.85000610351562 3 -75.723777770996094
v 156.85000610351562 3 -76.723777770996094
v 157.44999694824219 3 -76.723777770996094
v 157.44999694824219 3 -76.923774719238281
v 156.64999389648438 3 -76.923774719238281
v 156.64999389648438 3 -75.523773193359375
v 157.25 3 -75.523773193359375
v 157.25 3 -74.523773193359375
v 156.64999389648438 3 -74.523773193359375
v 156.64999389648438 3 -74.323776245117188
v 157.25 3 -74.323776245117188
v 157.25 3 -72.495979309082031
v 154.69999694824219 3 -72.495979309082031
v 154.69999694824219 3 -76.723777770996094
v 156.05000305175781 3 -76.723777770996094
v 156.05000305175781 3 -76.923774719238281
v 154.69999694824219 3 -76.923774719238281
v 154.69999694824219 3 -79.251571655273438
v 155.5 3 -79.251571655273438
v 155.5 3 -77.651573181152344
v 155.69999694824219 3 -77.651573181152344
v 155.69999694824219 3 -79.451576232910156
v 154.69999694824219 3 -79.451576232910156
v 154.69999694824219 3 -80.151573181152344
v 155.69999694824219 3 -80.151573181152344
v 155.69999694824219 3 -80.351577758789062
v 154.69999694824219 3 -80.351577758789062
v 154.69999694824219 3 -81.001571655273438
v 157.25 3 -81.001571655273438
v 157.25 3 -79.451576232910156
v 156.5 3 -79.451576232910156
v 156.5 3 -80.351577758789062
v 156.30000305175781 3 -80.351577758789062
v 156.30000305175781 3 -79.451576232910156
v 156.30000305175781 3 -79.251571655273438
v 157.25 3 -79.251571655273438
v 157.25 3 -77.501571655273438
v 159.39999389648438 3 -77.501571655273438
v 159.39999389648438 3 -76.901573181152344
v 159.60000610351562 3 -76.901573181152344
v 159.60000610351562 3 -77.501571655273438
v 161.14999389648438 3 -77.501571655273438
f 356 355 354 353 352 396 395 394 393 392 391 390 389 388 387 386 385 384 383 382 381 380 379 378 377 376 375 374 373 372 371 370 369 368 367 366 365 364 363 362 361 360 359 358 357
