# Rhino

g object_1
v 161.14999389648438 3 -72.495979309082031
v 157.44999694824219 3 -72.495979309082031
v 157.44999694824219 3 -75.723777770996094
v 156.85000610351562 3 -75.723777770996094
v 156.85000610351562 3 -76.723777770996094
v 157.44999694824219 3 -76.723777770996094
v 157.44999694824219 3 -76.923774719238281
v 156.64999389648438 3 -76.923774719238281
v 156.64999389648438 3 -75.523773193359375
v 157.25 3 -75.523773193359375
v 157.25 3 -74.523773193359375
v 156.64999389648438 3 -74.523773193359375
v 156.64999389648438 3 -74.323776245117188
v 157.25 3 -74.323776245117188
v 157.25 3 -72.495979309082031
v 154.69999694824219 3 -72.495979309082031
v 154.69999694824219 3 -76.723777770996094
v 156.05000305175781 3 -76.723777770996094
v 156.05000305175781 3 -76.923774719238281
v 154.69999694824219 3 -76.923774719238281
v 154.69999694824219 3 -79.251571655273438
v 155.5 3 -79.251571655273438
v 155.5 3 -77.651573181152344
v 155.69999694824219 3 -77.651573181152344
v 155.69999694824219 3 -79.451576232910156
v 154.69999694824219 3 -79.451576232910156
v 154.69999694824219 3 -80.151573181152344
v 155.69999694824219 3 -80.151573181152344
v 155.69999694824219 3 -80.351577758789062
v 154.69999694824219 3 -80.351577758789062
v 154.69999694824219 3 -81.001571655273438
v 157.25 3 -81.001571655273438
v 157.25 3 -79.451576232910156
v 156.5 3 -79.451576232910156
v 156.5 3 -80.351577758789062
v 156.30000305175781 3 -80.351577758789062
v 156.30000305175781 3 -79.451576232910156
v 156.30000305175781 3 -79.251571655273438
v 157.25 3 -79.251571655273438
v 157.25 3 -77.501571655273438
v 159.39999389648438 3 -77.501571655273438
v 159.39999389648438 3 -76.901573181152344
v 159.60000610351562 3 -76.901573181152344
v 159.60000610351562 3 -77.501571655273438
v 161.14999389648438 3 -77.501571655273438
f 5 4 3 2 1 45 44 43 42 41 40 39 38 37 36 35 34 33 32 31 30 29 28 27 26 25 24 23 22 21 20 19 18 17 16 15 14 13 12 11 10 9 8 7 6
g object_2
v 161.14999389648438 3 -77.701576232910156
v 161.14999389648438 3 -81.001571655273438
v 157.44999694824219 3 -77.701576232910156
v 157.44999694824219 3 -81.001571655273438
f 49 48 46 47
g object_3
v 147.55000305175781 3 -72.495979309082031
v 143.85000610351562 3 -72.495979309082031
v 143.85000610351562 3 -75.723777770996094
v 143.25 3 -75.723777770996094
v 143.25 3 -76.723777770996094
v 143.85000610351562 3 -76.723777770996094
v 143.85000610351562 3 -76.923774719238281
v 143.05000305175781 3 -76.923774719238281
v 143.05000305175781 3 -75.523773193359375
v 143.64999389648438 3 -75.523773193359375
v 143.64999389648438 3 -74.523773193359375
v 143.05000305175781 3 -74.523773193359375
v 143.05000305175781 3 -74.323776245117188
v 143.64999389648438 3 -74.323776245117188
v 143.64999389648438 3 -72.495979309082031
v 141.10000610351562 3 -72.495979309082031
v 141.10000610351562 3 -76.723777770996094
v 142.44999694824219 3 -76.723777770996094
v 142.44999694824219 3 -76.923774719238281
v 141.10000610351562 3 -76.923774719238281
v 141.10000610351562 3 -79.251571655273438
v 141.89999389648438 3 -79.251571655273438
v 141.89999389648438 3 -77.651573181152344
v 142.10000610351562 3 -77.651573181152344
v 142.10000610351562 3 -79.451576232910156
v 141.10000610351562 3 -79.451576232910156
v 141.10000610351562 3 -80.151573181152344
v 142.10000610351562 3 -80.151573181152344
v 142.10000610351562 3 -80.351577758789062
v 141.10000610351562 3 -80.351577758789062
v 141.10000610351562 3 -81.001571655273438
v 143.64999389648438 3 -81.001571655273438
v 143.64999389648438 3 -79.451576232910156
v 142.89999389648438 3 -79.451576232910156
v 142.89999389648438 3 -80.351577758789062
v 142.69999694824219 3 -80.351577758789062
v 142.69999694824219 3 -79.451576232910156
v 142.69999694824219 3 -79.251571655273438
v 143.64999389648438 3 -79.251571655273438
v 143.64999389648438 3 -77.501571655273438
v 145.80000305175781 3 -77.501571655273438
v 145.80000305175781 3 -76.901573181152344
v 146 3 -76.901573181152344
v 146 3 -77.501571655273438
v 147.55000305175781 3 -77.501571655273438
f 54 53 52 51 50 94 93 92 91 90 89 88 87 86 85 84 83 82 81 80 79 78 77 76 75 74 73 72 71 70 69 68 67 66 65 64 63 62 61 60 59 58 57 56 55
g object_4
v 147.55000305175781 3 -77.701576232910156
v 147.55000305175781 3 -81.001571655273438
v 143.85000610351562 3 -77.701576232910156
v 143.85000610351562 3 -81.001571655273438
f 98 97 95 96
g object_5
v 133.94999694824219 3 -72.495979309082031
v 130.25 3 -72.495979309082031
v 130.25 3 -75.723777770996094
v 129.64999389648438 3 -75.723777770996094
v 129.64999389648438 3 -76.723777770996094
v 130.25 3 -76.723777770996094
v 130.25 3 -76.923774719238281
v 129.44999694824219 3 -76.923774719238281
v 129.44999694824219 3 -75.523773193359375
v 130.05000305175781 3 -75.523773193359375
v 130.05000305175781 3 -74.523773193359375
v 129.44999694824219 3 -74.523773193359375
v 129.44999694824219 3 -74.323776245117188
v 130.05000305175781 3 -74.323776245117188
v 130.05000305175781 3 -72.495979309082031
v 127.5 3 -72.495979309082031
v 127.5 3 -76.723777770996094
v 128.85000610351562 3 -76.723777770996094
v 128.85000610351562 3 -76.923774719238281
v 127.5 3 -76.923774719238281
v 127.5 3 -79.251571655273438
v 128.30000305175781 3 -79.251571655273438
v 128.30000305175781 3 -77.651573181152344
v 128.5 3 -77.651573181152344
v 128.5 3 -79.451576232910156
v 127.5 3 -79.451576232910156
v 127.5 3 -80.151573181152344
v 128.5 3 -80.151573181152344
v 128.5 3 -80.351577758789062
v 127.5 3 -80.351577758789062
v 127.5 3 -81.001571655273438
v 130.05000305175781 3 -81.001571655273438
v 130.05000305175781 3 -79.451576232910156
v 129.30000305175781 3 -79.451576232910156
v 129.30000305175781 3 -80.351577758789062
v 129.10000610351562 3 -80.351577758789062
v 129.10000610351562 3 -79.451576232910156
v 129.10000610351562 3 -79.251571655273438
v 130.05000305175781 3 -79.251571655273438
v 130.05000305175781 3 -77.501571655273438
v 132.19999694824219 3 -77.501571655273438
v 132.19999694824219 3 -76.901573181152344
v 132.39999389648438 3 -76.901573181152344
v 132.39999389648438 3 -77.501571655273438
v 133.94999694824219 3 -77.501571655273438
f 103 102 101 100 99 143 142 141 140 139 138 137 136 135 134 133 132 131 130 129 128 127 126 125 124 123 122 121 120 119 118 117 116 115 114 113 112 111 110 109 108 107 106 105 104
g object_6
v 133.94999694824219 3 -77.701576232910156
v 133.94999694824219 3 -81.001571655273438
v 130.25 3 -77.701576232910156
v 130.25 3 -81.001571655273438
f 147 146 144 145
g object_7
v 120.34999847412109 3 -72.495979309082031
v 116.65000152587891 3 -72.495979309082031
v 116.65000152587891 3 -75.723777770996094
v 116.05000305175781 3 -75.723777770996094
v 116.05000305175781 3 -76.723777770996094
v 116.65000152587891 3 -76.723777770996094
v 116.65000152587891 3 -76.923774719238281
v 115.84999847412109 3 -76.923774719238281
v 115.84999847412109 3 -75.523773193359375
v 116.44999694824219 3 -75.523773193359375
v 116.44999694824219 3 -74.523773193359375
v 115.84999847412109 3 -74.523773193359375
v 115.84999847412109 3 -74.323776245117188
v 116.44999694824219 3 -74.323776245117188
v 116.44999694824219 3 -72.495979309082031
v 113.90000152587891 3 -72.495979309082031
v 113.90000152587891 3 -76.723777770996094
v 115.25 3 -76.723777770996094
v 115.25 3 -76.923774719238281
v 113.90000152587891 3 -76.923774719238281
v 113.90000152587891 3 -79.251571655273438
v 114.69999694824219 3 -79.251571655273438
v 114.69999694824219 3 -77.651573181152344
v 114.90000152587891 3 -77.651573181152344
v 114.90000152587891 3 -79.451576232910156
v 113.90000152587891 3 -79.451576232910156
v 113.90000152587891 3 -80.151573181152344
v 114.90000152587891 3 -80.151573181152344
v 114.90000152587891 3 -80.351577758789062
v 113.90000152587891 3 -80.351577758789062
v 113.90000152587891 3 -81.001571655273438
v 116.44999694824219 3 -81.001571655273438
v 116.44999694824219 3 -79.451576232910156
v 115.69999694824219 3 -79.451576232910156
v 115.69999694824219 3 -80.351577758789062
v 115.5 3 -80.351577758789062
v 115.5 3 -79.451576232910156
v 115.5 3 -79.251571655273438
v 116.44999694824219 3 -79.251571655273438
v 116.44999694824219 3 -77.501571655273438
v 118.59999847412109 3 -77.501571655273438
v 118.59999847412109 3 -76.901573181152344
v 118.80000305175781 3 -76.901573181152344
v 118.80000305175781 3 -77.501571655273438
v 120.34999847412109 3 -77.501571655273438
f 152 151 150 149 148 192 191 190 189 188 187 186 185 184 183 182 181 180 179 178 177 176 175 174 173 172 171 170 169 168 167 166 165 164 163 162 161 160 159 158 157 156 155 154 153
g object_8
v 120.34999847412109 3 -77.701576232910156
v 120.34999847412109 3 -81.001571655273438
v 116.65000152587891 3 -77.701576232910156
v 116.65000152587891 3 -81.001571655273438
f 196 195 193 194
g object_9
v 107.09999847412109 3 -77.701576232910156
v 107.09999847412109 3 -81.001571655273438
v 110.80000305175781 3 -77.701576232910156
v 110.80000305175781 3 -81.001571655273438
f 200 198 197 199
g object_10
v 113.55000305175781 3 -72.495979309082031
v 113.55000305175781 3 -76.723777770996094
v 112.19999694824219 3 -76.723777770996094
v 112.19999694824219 3 -76.923774719238281
v 113.55000305175781 3 -76.923774719238281
v 113.55000305175781 3 -79.251571655273438
v 112.75 3 -79.251571655273438
v 112.75 3 -77.651573181152344
v 112.55000305175781 3 -77.651573181152344
v 112.55000305175781 3 -79.451576232910156
v 113.55000305175781 3 -79.451576232910156
v 113.55000305175781 3 -80.151573181152344
v 112.55000305175781 3 -80.151573181152344
v 112.55000305175781 3 -80.351577758789062
v 113.55000305175781 3 -80.351577758789062
v 113.55000305175781 3 -81.001571655273438
v 111 3 -81.001571655273438
v 111 3 -79.451576232910156
v 111.75 3 -79.451576232910156
v 111.75 3 -80.351577758789062
v 111.94999694824219 3 -80.351577758789062
v 111.94999694824219 3 -79.451576232910156
v 111.94999694824219 3 -79.251571655273438
v 111 3 -79.251571655273438
v 111 3 -77.501571655273438
v 108.84999847412109 3 -77.501571655273438
v 108.84999847412109 3 -76.901573181152344
v 108.65000152587891 3 -76.901573181152344
v 108.65000152587891 3 -77.501571655273438
v 107.09999847412109 3 -77.501571655273438
v 107.09999847412109 3 -72.495979309082031
v 110.80000305175781 3 -72.495979309082031
v 110.80000305175781 3 -75.723777770996094
v 111.40000152587891 3 -75.723777770996094
v 111.40000152587891 3 -76.723777770996094
v 110.80000305175781 3 -76.723777770996094
v 110.80000305175781 3 -76.923774719238281
v 111.59999847412109 3 -76.923774719238281
v 111.59999847412109 3 -75.523773193359375
v 111 3 -75.523773193359375
v 111 3 -74.523773193359375
v 111.59999847412109 3 -74.523773193359375
v 111.59999847412109 3 -74.323776245117188
v 111 3 -74.323776245117188
v 111 3 -72.495979309082031
f 235 236 237 238 239 240 241 242 243 244 245 201 202 203 204 205 206 207 208 209 210 211 212 213 214 215 216 217 218 219 220 221 222 223 224 225 226 227 228 229 230 231 232 233 234
g object_11
v 120.69999694824219 3 -77.701576232910156
v 120.69999694824219 3 -81.001571655273438
v 124.40000152587891 3 -77.701576232910156
v 124.40000152587891 3 -81.001571655273438
f 249 247 246 248
g object_12
v 127.15000152587891 3 -72.495979309082031
v 127.15000152587891 3 -76.723777770996094
v 125.80000305175781 3 -76.723777770996094
v 125.80000305175781 3 -76.923774719238281
v 127.15000152587891 3 -76.923774719238281
v 127.15000152587891 3 -79.251571655273438
v 126.34999847412109 3 -79.251571655273438
v 126.34999847412109 3 -77.651573181152344
v 126.15000152587891 3 -77.651573181152344
v 126.15000152587891 3 -79.451576232910156
v 127.15000152587891 3 -79.451576232910156
v 127.15000152587891 3 -80.151573181152344
v 126.15000152587891 3 -80.151573181152344
v 126.15000152587891 3 -80.351577758789062
v 127.15000152587891 3 -80.351577758789062
v 127.15000152587891 3 -81.001571655273438
v 124.59999847412109 3 -81.001571655273438
v 124.59999847412109 3 -79.451576232910156
v 125.34999847412109 3 -79.451576232910156
v 125.34999847412109 3 -80.351577758789062
v 125.55000305175781 3 -80.351577758789062
v 125.55000305175781 3 -79.451576232910156
v 125.55000305175781 3 -79.251571655273438
v 124.59999847412109 3 -79.251571655273438
v 124.59999847412109 3 -77.501571655273438
v 122.44999694824219 3 -77.501571655273438
v 122.44999694824219 3 -76.901573181152344
v 122.25 3 -76.901573181152344
v 122.25 3 -77.501571655273438
v 120.69999694824219 3 -77.501571655273438
v 120.69999694824219 3 -72.495979309082031
v 124.40000152587891 3 -72.495979309082031
v 124.40000152587891 3 -75.723777770996094
v 125 3 -75.723777770996094
v 125 3 -76.723777770996094
v 124.40000152587891 3 -76.723777770996094
v 124.40000152587891 3 -76.923774719238281
v 125.19999694824219 3 -76.923774719238281
v 125.19999694824219 3 -75.523773193359375
v 124.59999847412109 3 -75.523773193359375
v 124.59999847412109 3 -74.523773193359375
v 125.19999694824219 3 -74.523773193359375
v 125.19999694824219 3 -74.323776245117188
v 124.59999847412109 3 -74.323776245117188
v 124.59999847412109 3 -72.495979309082031
f 284 285 286 287 288 289 290 291 292 293 294 250 251 252 253 254 255 256 257 258 259 260 261 262 263 264 265 266 267 268 269 270 271 272 273 274 275 276 277 278 279 280 281 282 283
g object_13
v 134.30000305175781 3 -77.701576232910156
v 134.30000305175781 3 -81.001571655273438
v 138 3 -77.701576232910156
v 138 3 -81.001571655273438
f 298 296 295 297
g object_14
v 140.75 3 -72.495979309082031
v 140.75 3 -76.723777770996094
v 139.39999389648438 3 -76.723777770996094
v 139.39999389648438 3 -76.923774719238281
v 140.75 3 -76.923774719238281
v 140.75 3 -79.251571655273438
v 139.94999694824219 3 -79.251571655273438
v 139.94999694824219 3 -77.651573181152344
v 139.75 3 -77.651573181152344
v 139.75 3 -79.451576232910156
v 140.75 3 -79.451576232910156
v 140.75 3 -80.151573181152344
v 139.75 3 -80.151573181152344
v 139.75 3 -80.351577758789062
v 140.75 3 -80.351577758789062
v 140.75 3 -81.001571655273438
v 138.19999694824219 3 -81.001571655273438
v 138.19999694824219 3 -79.451576232910156
v 138.94999694824219 3 -79.451576232910156
v 138.94999694824219 3 -80.351577758789062
v 139.14999389648438 3 -80.351577758789062
v 139.14999389648438 3 -79.451576232910156
v 139.14999389648438 3 -79.251571655273438
v 138.19999694824219 3 -79.251571655273438
v 138.19999694824219 3 -77.501571655273438
v 136.05000305175781 3 -77.501571655273438
v 136.05000305175781 3 -76.901573181152344
v 135.85000610351562 3 -76.901573181152344
v 135.85000610351562 3 -77.501571655273438
v 134.30000305175781 3 -77.501571655273438
v 134.30000305175781 3 -72.495979309082031
v 138 3 -72.495979309082031
v 138 3 -75.723777770996094
v 138.60000610351562 3 -75.723777770996094
v 138.60000610351562 3 -76.723777770996094
v 138 3 -76.723777770996094
v 138 3 -76.923774719238281
v 138.80000305175781 3 -76.923774719238281
v 138.80000305175781 3 -75.523773193359375
v 138.19999694824219 3 -75.523773193359375
v 138.19999694824219 3 -74.523773193359375
v 138.80000305175781 3 -74.523773193359375
v 138.80000305175781 3 -74.323776245117188
v 138.19999694824219 3 -74.323776245117188
v 138.19999694824219 3 -72.495979309082031
f 333 334 335 336 337 338 339 340 341 342 343 299 300 301 302 303 304 305 306 307 308 309 310 311 312 313 314 315 316 317 318 319 320 321 322 323 324 325 326 327 328 329 330 331 332
g object_15
v 147.89999389648438 3 -77.701576232910156
v 147.89999389648438 3 -81.001571655273438
v 151.60000610351562 3 -77.701576232910156
v 151.60000610351562 3 -81.001571655273438
f 347 345 344 346
g object_16
v 147.89999389648438 3 -72.495979309082031
v 151.60000610351562 3 -72.495979309082031
v 151.60000610351562 3 -75.723777770996094
v 152.19999694824219 3 -75.723777770996094
v 152.19999694824219 3 -76.723777770996094
v 151.60000610351562 3 -76.723777770996094
v 151.60000610351562 3 -76.923774719238281
v 152.39999389648438 3 -76.923774719238281
v 152.39999389648438 3 -75.523773193359375
v 151.80000305175781 3 -75.523773193359375
v 151.80000305175781 3 -74.523773193359375
v 152.39999389648438 3 -74.523773193359375
v 152.39999389648438 3 -74.323776245117188
v 151.80000305175781 3 -74.323776245117188
v 151.80000305175781 3 -72.495979309082031
v 154.35000610351562 3 -72.495979309082031
v 154.35000610351562 3 -76.723777770996094
v 153 3 -76.723777770996094
v 153 3 -76.923774719238281
v 154.35000610351562 3 -76.923774719238281
v 154.35000610351562 3 -79.251571655273438
v 153.55000305175781 3 -79.251571655273438
v 153.55000305175781 3 -77.651573181152344
v 153.35000610351562 3 -77.651573181152344
v 153.35000610351562 3 -79.451576232910156
v 154.35000610351562 3 -79.451576232910156
v 154.35000610351562 3 -80.151573181152344
v 153.35000610351562 3 -80.151573181152344
v 153.35000610351562 3 -80.351577758789062
v 154.35000610351562 3 -80.351577758789062
v 154.35000610351562 3 -81.001571655273438
v 151.80000305175781 3 -81.001571655273438
v 151.80000305175781 3 -79.451576232910156
v 152.55000305175781 3 -79.451576232910156
v 152.55000305175781 3 -80.351577758789062
v 152.75 3 -80.351577758789062
v 152.75 3 -79.451576232910156
v 152.75 3 -79.251571655273438
v 151.80000305175781 3 -79.251571655273438
v 151.80000305175781 3 -77.501571655273438
v 149.64999389648438 3 -77.501571655273438
v 149.64999389648438 3 -76.901573181152344
v 149.44999694824219 3 -76.901573181152344
v 149.44999694824219 3 -77.501571655273438
v 147.89999389648438 3 -77.501571655273438
f 352 353 354 355 356 357 358 359 360 361 362 363 364 365 366 367 368 369 370 371 372 373 374 375 376 377 378 379 380 381 382 383 384 385 386 387 388 389 390 391 392 348 349 350 351
g object_17
v 98.599998474121094 3 -63.145977020263672
v 90.150001525878906 3 -63.145977020263672
v 90.150001525878906 3 -60.200000762939453
v 97.300003051757812 3 -60.200000762939453
v 97.300003051757812 3 -59.849998474121094
v 90.150001525878906 3 -59.849998474121094
v 90.150001525878906 3 -50.349998474121094
v 99.650001525878906 3 -50.349998474121094
v 99.650001525878906 3 -59.849998474121094
v 98.199996948242188 3 -59.849998474121094
v 98.199996948242188 3 -60.200000762939453
v 98.599998474121094 3 -60.200000762939453
f 398 399 400 401 402 403 404 393 394 395 396 397
g object_18
v 103.25 3 -75.948776245117188
v 103.25 3 -81.001571655273438
v 96.800003051757812 3 -81.001571655273438
v 96.800003051757812 3 -72.495979309082031
v 103.25 3 -72.495979309082031
v 103.25 3 -75.148773193359375
v 103.59999847412109 3 -75.148773193359375
v 103.59999847412109 3 -72.495979309082031
v 106.75 3 -72.495979309082031
v 106.75 3 -81.001571655273438
v 103.59999847412109 3 -81.001571655273438
v 103.59999847412109 3 -75.948776245117188
f 408 409 410 411 412 413 414 415 416 405 406 407
g object_19
v 165 3 -75.948776245117188
v 164.64999389648438 3 -75.948776245117188
v 164.64999389648438 3 -81.001571655273438
v 161.5 3 -81.001571655273438
v 161.5 3 -72.495979309082031
v 164.64999389648438 3 -72.495979309082031
v 164.64999389648438 3 -75.148773193359375
v 165 3 -75.148773193359375
v 165 3 -72.495979309082031
v 171.39999389648438 3 -72.495979309082031
v 171.39999389648438 3 -81.001571655273438
v 165 3 -81.001571655273438
f 421 422 423 424 425 426 427 428 417 418 419 420
