# Rhino

g object_1
v 128.35000610351562 0 -79.001571655273438
v 128.32499694824219 1.5 -79.126571655273438
v 128.30000305175781 3 -79.251571655273438
v 127.5 0 -79.001571655273438
v 127.5 1.5 -79.126571655273438
v 127.5 3 -79.251571655273438
f 2 1 4 5 6 3
g object_2
v 141.94999694824219 0 -79.001571655273438
v 141.92500305175781 1.5 -79.126571655273438
v 141.89999389648438 3 -79.251571655273438
v 141.10000610351562 0 -79.001571655273438
v 141.10000610351562 1.5 -79.126571655273438
v 141.10000610351562 3 -79.251571655273438
f 8 7 10 11 12 9
g object_3
v 155.55000305175781 0 -79.001571655273438
v 155.5 3 -79.251571655273438
v 154.69999694824219 0 -79.001571655273438
v 154.69999694824219 3 -79.251571655273438
f 16 14 13 15
g object_4
v 114.75 0 -79.001571655273438
v 114.72499847412109 1.5 -79.126571655273438
v 114.69999694824219 3 -79.251571655273438
v 113.90000152587891 0 -79.001571655273438
v 113.90000152587891 1.5 -79.126571655273438
v 113.90000152587891 3 -79.251571655273438
f 18 17 20 21 22 19
g object_5
v 167 0 -76.648773193359375
v 171.39999389648438 0 -76.648773193359375
v 171.39999389648438 0 -72.495979309082031
v 167 0 -72.495979309082031
v 167 0 -75.17401123046875
v 166.80000305175781 0 -75.17401123046875
v 166.80000305175781 0 -72.495979309082031
v 165 0 -72.495979309082031
v 165 0 -75.17401123046875
v 164.64999389648438 0 -75.17401123046875
v 164.64999389648438 0 -72.495979309082031
v 98.949996948242188 0 -72.495979309082031
v 98.949996948242188 0 -74.350234985351562
v 98.599998474121094 0 -74.350234985351562
v 98.599998474121094 0 -60.200000762939453
v 91.550003051757812 0 -60.200000762939453
v 91.550003051757812 0 -59.849998474121094
v 99.650001525878906 0 -59.849998474121094
v 99.650001525878906 0 -50.349998474121094
v 90.150001525878906 0 -50.349998474121094
v 90.150001525878906 0 -59.849998474121094
v 90.650001525878906 0 -59.849998474121094
v 90.650001525878906 0 -60.200000762939453
v 90.150001525878906 0 -60.200000762939453
v 90.150001525878906 0 -63.145977020263672
v 96.800003051757812 0 -63.145977020263672
v 96.800003051757812 0 -81.001571655273438
v 103.25 0 -81.001571655273438
v 103.25 0 -76.923774719238281
v 98.599998474121094 0 -76.923774719238281
v 98.599998474121094 0 -76.574012756347656
v 103.59999847412109 0 -76.574012756347656
v 103.59999847412109 0 -81.001571655273438
v 106.75 0 -81.001571655273438
v 106.75 0 -76.574012756347656
v 111.84999847412109 0 -76.574012756347656
v 111.84999847412109 0 -76.923774719238281
v 111.69999694824219 0 -76.923774719238281
v 111.69999694824219 0 -77.723777770996094
v 111.5 0 -77.723777770996094
v 111.5 0 -76.923774719238281
v 107.09999847412109 0 -76.923774719238281
v 107.09999847412109 0 -81.001571655273438
v 111.5 0 -81.001571655273438
v 111.5 0 -78.523773193359375
v 111.69999694824219 0 -78.523773193359375
v 111.69999694824219 0 -79.001571655273438
v 111.90000152587891 0 -79.001571655273438
v 111.90000152587891 0 -79.201576232910156
v 111.69999694824219 0 -79.201576232910156
v 111.69999694824219 0 -81.001571655273438
v 113.55000305175781 0 -81.001571655273438
v 113.55000305175781 0 -79.201576232910156
v 112.69999694824219 0 -79.201576232910156
v 112.69999694824219 0 -79.001571655273438
v 113.55000305175781 0 -79.001571655273438
v 113.55000305175781 0 -76.923774719238281
v 112.75 0 -76.923774719238281
v 112.75 0 -76.574012756347656
v 114.69999694824219 0 -76.574012756347656
v 114.69999694824219 0 -76.923774719238281
v 113.90000152587891 0 -76.923774719238281
v 113.90000152587891 0 -79.001571655273438
v 114.75 0 -79.001571655273438
v 114.75 0 -79.201576232910156
v 113.90000152587891 0 -79.201576232910156
v 113.90000152587891 0 -81.001571655273438
v 115.75 0 -81.001571655273438
v 115.75 0 -79.201576232910156
v 115.55000305175781 0 -79.201576232910156
v 115.55000305175781 0 -79.001571655273438
v 115.75 0 -79.001571655273438
v 115.75 0 -78.523773193359375
v 115.94999694824219 0 -78.523773193359375
v 115.94999694824219 0 -81.001571655273438
v 120.34999847412109 0 -81.001571655273438
v 120.34999847412109 0 -76.923774719238281
v 115.94999694824219 0 -76.923774719238281
v 115.94999694824219 0 -77.723777770996094
v 115.75 0 -77.723777770996094
v 115.75 0 -76.923774719238281
v 115.59999847412109 0 -76.923774719238281
v 115.59999847412109 0 -76.574012756347656
v 125.44999694824219 0 -76.574012756347656
v 125.44999694824219 0 -76.923774719238281
v 125.30000305175781 0 -76.923774719238281
v 125.30000305175781 0 -77.723777770996094
v 125.09999847412109 0 -77.723777770996094
v 125.09999847412109 0 -76.923774719238281
v 120.69999694824219 0 -76.923774719238281
v 120.69999694824219 0 -81.001571655273438
v 125.09999847412109 0 -81.001571655273438
v 125.09999847412109 0 -78.523773193359375
v 125.30000305175781 0 -78.523773193359375
v 125.30000305175781 0 -79.001571655273438
v 125.5 0 -79.001571655273438
v 125.5 0 -79.201576232910156
v 125.30000305175781 0 -79.201576232910156
v 125.30000305175781 0 -81.001571655273438
v 127.15000152587891 0 -81.001571655273438
v 127.15000152587891 0 -79.201576232910156
v 126.30000305175781 0 -79.201576232910156
v 126.30000305175781 0 -79.001571655273438
v 127.15000152587891 0 -79.001571655273438
v 127.15000152587891 0 -76.923774719238281
v 126.34999847412109 0 -76.923774719238281
v 126.34999847412109 0 -76.574012756347656
v 128.30000305175781 0 -76.574012756347656
v 128.30000305175781 0 -76.923774719238281
v 127.5 0 -76.923774719238281
v 127.5 0 -79.001571655273438
v 128.35000610351562 0 -79.001571655273438
v 128.35000610351562 0 -79.201576232910156
v 127.5 0 -79.201576232910156
v 127.5 0 -81.001571655273438
v 129.35000610351562 0 -81.001571655273438
v 129.35000610351562 0 -79.201576232910156
v 129.14999389648438 0 -79.201576232910156
v 129.14999389648438 0 -79.001571655273438
v 129.35000610351562 0 -79.001571655273438
v 129.35000610351562 0 -78.523773193359375
v 129.55000305175781 0 -78.523773193359375
v 129.55000305175781 0 -81.001571655273438
v 133.94999694824219 0 -81.001571655273438
v 133.94999694824219 0 -76.923774719238281
v 129.55000305175781 0 -76.923774719238281
v 129.55000305175781 0 -77.723777770996094
v 129.35000610351562 0 -77.723777770996094
v 129.35000610351562 0 -76.923774719238281
v 129.19999694824219 0 -76.923774719238281
v 129.19999694824219 0 -76.574012756347656
v 139.05000305175781 0 -76.574012756347656
v 139.05000305175781 0 -76.923774719238281
v 138.89999389648438 0 -76.923774719238281
v 138.89999389648438 0 -77.723777770996094
v 138.69999694824219 0 -77.723777770996094
v 138.69999694824219 0 -76.923774719238281
v 134.30000305175781 0 -76.923774719238281
v 134.30000305175781 0 -81.001571655273438
v 138.69999694824219 0 -81.001571655273438
v 138.69999694824219 0 -78.523773193359375
v 138.89999389648438 0 -78.523773193359375
v 138.89999389648438 0 -79.001571655273438
v 139.10000610351562 0 -79.001571655273438
v 139.10000610351562 0 -79.201576232910156
v 138.89999389648438 0 -79.201576232910156
v 138.89999389648438 0 -81.001571655273438
v 140.75 0 -81.001571655273438
v 140.75 0 -79.201576232910156
v 139.89999389648438 0 -79.201576232910156
v 139.89999389648438 0 -79.001571655273438
v 140.75 0 -79.001571655273438
v 140.75 0 -76.923774719238281
v 139.94999694824219 0 -76.923774719238281
v 139.94999694824219 0 -76.574012756347656
v 141.89999389648438 0 -76.574012756347656
v 141.89999389648438 0 -76.923774719238281
v 141.10000610351562 0 -76.923774719238281
v 141.10000610351562 0 -79.001571655273438
v 141.94999694824219 0 -79.001571655273438
v 141.94999694824219 0 -79.201576232910156
v 141.10000610351562 0 -79.201576232910156
v 141.10000610351562 0 -81.001571655273438
v 142.94999694824219 0 -81.001571655273438
v 142.94999694824219 0 -79.201576232910156
v 142.75 0 -79.201576232910156
v 142.75 0 -79.001571655273438
v 142.94999694824219 0 -79.001571655273438
v 142.94999694824219 0 -78.523773193359375
v 143.14999389648438 0 -78.523773193359375
v 143.14999389648438 0 -81.001571655273438
v 147.55000305175781 0 -81.001571655273438
v 147.55000305175781 0 -76.923774719238281
v 143.14999389648438 0 -76.923774719238281
v 143.14999389648438 0 -77.723777770996094
v 142.94999694824219 0 -77.723777770996094
v 142.94999694824219 0 -76.923774719238281
v 142.80000305175781 0 -76.923774719238281
v 142.80000305175781 0 -76.574012756347656
v 152.64999389648438 0 -76.574012756347656
v 152.64999389648438 0 -76.923774719238281
v 152.5 0 -76.923774719238281
v 152.5 0 -77.723777770996094
v 152.30000305175781 0 -77.723777770996094
v 152.30000305175781 0 -76.923774719238281
v 147.89999389648438 0 -76.923774719238281
v 147.89999389648438 0 -81.001571655273438
v 152.30000305175781 0 -81.001571655273438
v 152.30000305175781 0 -78.523773193359375
v 152.5 0 -78.523773193359375
v 152.5 0 -79.001571655273438
v 152.69999694824219 0 -79.001571655273438
v 152.69999694824219 0 -79.201576232910156
v 152.5 0 -79.201576232910156
v 152.5 0 -81.001571655273438
v 154.35000610351562 0 -81.001571655273438
v 154.35000610351562 0 -79.201576232910156
v 153.5 0 -79.201576232910156
v 153.5 0 -79.001571655273438
v 154.35000610351562 0 -79.001571655273438
v 154.35000610351562 0 -76.923774719238281
v 153.55000305175781 0 -76.923774719238281
v 153.55000305175781 0 -76.574012756347656
v 155.5 0 -76.574012756347656
v 155.5 0 -76.923774719238281
v 154.69999694824219 0 -76.923774719238281
v 154.69999694824219 0 -79.001571655273438
v 155.55000305175781 0 -79.001571655273438
v 155.55000305175781 0 -79.201576232910156
v 154.69999694824219 0 -79.201576232910156
v 154.69999694824219 0 -81.001571655273438
v 156.55000305175781 0 -81.001571655273438
v 156.55000305175781 0 -79.201576232910156
v 156.35000610351562 0 -79.201576232910156
v 156.35000610351562 0 -79.001571655273438
v 156.55000305175781 0 -79.001571655273438
v 156.55000305175781 0 -78.523773193359375
v 156.75 0 -78.523773193359375
v 156.75 0 -81.001571655273438
v 161.14999389648438 0 -81.001571655273438
v 161.14999389648438 0 -76.923774719238281
v 156.75 0 -76.923774719238281
v 156.75 0 -77.723777770996094
v 156.55000305175781 0 -77.723777770996094
v 156.55000305175781 0 -76.923774719238281
v 156.39999389648438 0 -76.923774719238281
v 156.39999389648438 0 -76.574012756347656
v 161.5 0 -76.574012756347656
v 161.5 0 -81.001571655273438
v 164.64999389648438 0 -81.001571655273438
v 164.64999389648438 0 -76.074012756347656
v 165 0 -76.074012756347656
v 165 0 -81.001571655273438
v 166.80000305175781 0 -81.001571655273438
v 166.80000305175781 0 -78.323539733886719
v 167 0 -78.323539733886719
v 167 0 -81.001571655273438
v 171.39999389648438 0 -81.001571655273438
v 171.39999389648438 0 -76.848777770996094
v 167 0 -76.848777770996094
v 167 0 -77.423538208007812
v 166.80000305175781 0 -77.423538208007812
v 166.80000305175781 0 -76.074012756347656
v 167 0 -76.074012756347656
f 49 50 51 52 53 54 55 56 57 58 59 60 61 62 63 64 65 66 67 68 69 70 71 72 73 74 75 76 77 78 79 80 81 82 83 84 85 86 87 88 89 90 91 92 93 94 95 96 97 98 99 100 101 102 103 104 105 106 107 108 109 110 111 112 113 114 115 116 117 118 119 120 121 122 123 124 125 126 127 128 129 130 131 132 133 134 135 136 137 138 139 140 141 142 143 144 145 146 147 148 149 150 151 152 153 154 155 156 157 158 159 160 161 162 163 164 165 166 167 168 169 170 171 172 173 174 175 176 177 178 179 180 181 182 183 184 185 186 187 188 189 190 191 192 193 194 195 196 197 198 199 200 201 202 203 204 205 206 207 208 209 210 211 212 213 214 215 216 217 218 219 220 221 222 223 224 225 226 227 228 229 230 231 232 233 234 235 236 237 238 239 240 241 242 243 244 245 246 247 248 249 250 251 252 253 254 255 256 257 258 259 260 261 262 263 264 265 266 23 24 25 26 27 28 29 30 31 32 33 34 35 36 37 38 39 40 41 42 43 44 45 46 47 48
g object_6
v 165 3 -75.948776245117188
v 164.64999389648438 3 -75.948776245117188
v 164.64999389648438 3 -81.001571655273438
v 161.5 3 -81.001571655273438
v 161.5 3 -72.495979309082031
v 164.64999389648438 3 -72.495979309082031
v 164.64999389648438 3 -75.148773193359375
v 165 3 -75.148773193359375
v 165 3 -72.495979309082031
v 171.39999389648438 3 -72.495979309082031
v 171.39999389648438 3 -81.001571655273438
v 165 3 -81.001571655273438
f 271 272 273 274 275 276 277 278 267 268 269 270
g object_7
v 103.25 3 -75.948776245117188
v 103.25 3 -81.001571655273438
v 96.800003051757812 3 -81.001571655273438
v 96.800003051757812 3 -72.495979309082031
v 103.25 3 -72.495979309082031
v 103.25 3 -75.148773193359375
v 103.59999847412109 3 -75.148773193359375
v 103.59999847412109 3 -72.495979309082031
v 106.75 3 -72.495979309082031
v 106.75 3 -81.001571655273438
v 103.59999847412109 3 -81.001571655273438
v 103.59999847412109 3 -75.948776245117188
f 282 283 284 285 286 287 288 289 290 279 280 281
g object_8
v 98.599998474121094 3 -63.145977020263672
v 90.150001525878906 3 -63.145977020263672
v 90.150001525878906 3 -60.200000762939453
v 97.300003051757812 3 -60.200000762939453
v 97.300003051757812 3 -59.849998474121094
v 90.150001525878906 3 -59.849998474121094
v 90.150001525878906 3 -50.349998474121094
v 99.650001525878906 3 -50.349998474121094
v 99.650001525878906 3 -59.849998474121094
v 98.199996948242188 3 -59.849998474121094
v 98.199996948242188 3 -60.200000762939453
v 98.599998474121094 3 -60.200000762939453
f 296 297 298 299 300 301 302 291 292 293 294 295
g object_9
v 147.89999389648438 3 -72.495979309082031
v 151.60000610351562 3 -72.495979309082031
v 151.60000610351562 3 -75.723777770996094
v 152.19999694824219 3 -75.723777770996094
v 152.19999694824219 3 -76.723777770996094
v 151.60000610351562 3 -76.723777770996094
v 151.60000610351562 3 -76.923774719238281
v 152.39999389648438 3 -76.923774719238281
v 152.39999389648438 3 -75.523773193359375
v 151.80000305175781 3 -75.523773193359375
v 151.80000305175781 3 -74.523773193359375
v 152.39999389648438 3 -74.523773193359375
v 152.39999389648438 3 -74.323776245117188
v 151.80000305175781 3 -74.323776245117188
v 151.80000305175781 3 -72.495979309082031
v 154.35000610351562 3 -72.495979309082031
v 154.35000610351562 3 -76.723777770996094
v 153 3 -76.723777770996094
v 153 3 -76.923774719238281
v 154.35000610351562 3 -76.923774719238281
v 154.35000610351562 3 -79.251571655273438
v 153.55000305175781 3 -79.251571655273438
v 153.55000305175781 3 -77.651573181152344
v 153.35000610351562 3 -77.651573181152344
v 153.35000610351562 3 -79.451576232910156
v 154.35000610351562 3 -79.451576232910156
v 154.35000610351562 3 -80.151573181152344
v 153.35000610351562 3 -80.151573181152344
v 153.35000610351562 3 -80.351577758789062
v 154.35000610351562 3 -80.351577758789062
v 154.35000610351562 3 -81.001571655273438
v 151.80000305175781 3 -81.001571655273438
v 151.80000305175781 3 -79.451576232910156
v 152.55000305175781 3 -79.451576232910156
v 152.55000305175781 3 -80.351577758789062
v 152.75 3 -80.351577758789062
v 152.75 3 -79.451576232910156
v 152.75 3 -79.251571655273438
v 151.80000305175781 3 -79.251571655273438
v 151.80000305175781 3 -77.501571655273438
v 149.64999389648438 3 -77.501571655273438
v 149.64999389648438 3 -76.901573181152344
v 149.44999694824219 3 -76.901573181152344
v 149.44999694824219 3 -77.501571655273438
v 147.89999389648438 3 -77.501571655273438
f 307 308 309 310 311 312 313 314 315 316 317 318 319 320 321 322 323 324 325 326 327 328 329 330 331 332 333 334 335 336 337 338 339 340 341 342 343 344 345 346 347 303 304 305 306
g object_10
v 140.75 3 -72.495979309082031
v 140.75 3 -76.723777770996094
v 139.39999389648438 3 -76.723777770996094
v 139.39999389648438 3 -76.923774719238281
v 140.75 3 -76.923774719238281
v 140.75 3 -79.251571655273438
v 139.94999694824219 3 -79.251571655273438
v 139.94999694824219 3 -77.651573181152344
v 139.75 3 -77.651573181152344
v 139.75 3 -79.451576232910156
v 140.75 3 -79.451576232910156
v 140.75 3 -80.151573181152344
v 139.75 3 -80.151573181152344
v 139.75 3 -80.351577758789062
v 140.75 3 -80.351577758789062
v 140.75 3 -81.001571655273438
v 138.19999694824219 3 -81.001571655273438
v 138.19999694824219 3 -79.451576232910156
v 138.94999694824219 3 -79.451576232910156
v 138.94999694824219 3 -80.351577758789062
v 139.14999389648438 3 -80.351577758789062
v 139.14999389648438 3 -79.451576232910156
v 139.14999389648438 3 -79.251571655273438
v 138.19999694824219 3 -79.251571655273438
v 138.19999694824219 3 -77.501571655273438
v 136.05000305175781 3 -77.501571655273438
v 136.05000305175781 3 -76.901573181152344
v 135.85000610351562 3 -76.901573181152344
v 135.85000610351562 3 -77.501571655273438
v 134.30000305175781 3 -77.501571655273438
v 134.30000305175781 3 -72.495979309082031
v 138 3 -72.495979309082031
v 138 3 -75.723777770996094
v 138.60000610351562 3 -75.723777770996094
v 138.60000610351562 3 -76.723777770996094
v 138 3 -76.723777770996094
v 138 3 -76.923774719238281
v 138.80000305175781 3 -76.923774719238281
v 138.80000305175781 3 -75.523773193359375
v 138.19999694824219 3 -75.523773193359375
v 138.19999694824219 3 -74.523773193359375
v 138.80000305175781 3 -74.523773193359375
v 138.80000305175781 3 -74.323776245117188
v 138.19999694824219 3 -74.323776245117188
v 138.19999694824219 3 -72.495979309082031
f 382 383 384 385 386 387 388 389 390 391 392 348 349 350 351 352 353 354 355 356 357 358 359 360 361 362 363 364 365 366 367 368 369 370 371 372 373 374 375 376 377 378 379 380 381
g object_11
v 127.15000152587891 3 -72.495979309082031
v 127.15000152587891 3 -76.723777770996094
v 125.80000305175781 3 -76.723777770996094
v 125.80000305175781 3 -76.923774719238281
v 127.15000152587891 3 -76.923774719238281
v 127.15000152587891 3 -79.251571655273438
v 126.34999847412109 3 -79.251571655273438
v 126.34999847412109 3 -77.651573181152344
v 126.15000152587891 3 -77.651573181152344
v 126.15000152587891 3 -79.451576232910156
v 127.15000152587891 3 -79.451576232910156
v 127.15000152587891 3 -80.151573181152344
v 126.15000152587891 3 -80.151573181152344
v 126.15000152587891 3 -80.351577758789062
v 127.15000152587891 3 -80.351577758789062
v 127.15000152587891 3 -81.001571655273438
v 124.59999847412109 3 -81.001571655273438
v 124.59999847412109 3 -79.451576232910156
v 125.34999847412109 3 -79.451576232910156
v 125.34999847412109 3 -80.351577758789062
v 125.55000305175781 3 -80.351577758789062
v 125.55000305175781 3 -79.451576232910156
v 125.55000305175781 3 -79.251571655273438
v 124.59999847412109 3 -79.251571655273438
v 124.59999847412109 3 -77.501571655273438
v 122.44999694824219 3 -77.501571655273438
v 122.44999694824219 3 -76.901573181152344
v 122.25 3 -76.901573181152344
v 122.25 3 -77.501571655273438
v 120.69999694824219 3 -77.501571655273438
v 120.69999694824219 3 -72.495979309082031
v 124.40000152587891 3 -72.495979309082031
v 124.40000152587891 3 -75.723777770996094
v 125 3 -75.723777770996094
v 125 3 -76.723777770996094
v 124.40000152587891 3 -76.723777770996094
v 124.40000152587891 3 -76.923774719238281
v 125.19999694824219 3 -76.923774719238281
v 125.19999694824219 3 -75.523773193359375
v 124.59999847412109 3 -75.523773193359375
v 124.59999847412109 3 -74.523773193359375
v 125.19999694824219 3 -74.523773193359375
v 125.19999694824219 3 -74.323776245117188
v 124.59999847412109 3 -74.323776245117188
v 124.59999847412109 3 -72.495979309082031
f 427 428 429 430 431 432 433 434 435 436 437 393 394 395 396 397 398 399 400 401 402 403 404 405 406 407 408 409 410 411 412 413 414 415 416 417 418 419 420 421 422 423 424 425 426
g object_12
v 113.55000305175781 3 -72.495979309082031
v 113.55000305175781 3 -76.723777770996094
v 112.19999694824219 3 -76.723777770996094
v 112.19999694824219 3 -76.923774719238281
v 113.55000305175781 3 -76.923774719238281
v 113.55000305175781 3 -79.251571655273438
v 112.75 3 -79.251571655273438
v 112.75 3 -77.651573181152344
v 112.55000305175781 3 -77.651573181152344
v 112.55000305175781 3 -79.451576232910156
v 113.55000305175781 3 -79.451576232910156
v 113.55000305175781 3 -80.151573181152344
v 112.55000305175781 3 -80.151573181152344
v 112.55000305175781 3 -80.351577758789062
v 113.55000305175781 3 -80.351577758789062
v 113.55000305175781 3 -81.001571655273438
v 111 3 -81.001571655273438
v 111 3 -79.451576232910156
v 111.75 3 -79.451576232910156
v 111.75 3 -80.351577758789062
v 111.94999694824219 3 -80.351577758789062
v 111.94999694824219 3 -79.451576232910156
v 111.94999694824219 3 -79.251571655273438
v 111 3 -79.251571655273438
v 111 3 -77.501571655273438
v 108.84999847412109 3 -77.501571655273438
v 108.84999847412109 3 -76.901573181152344
v 108.65000152587891 3 -76.901573181152344
v 108.65000152587891 3 -77.501571655273438
v 107.09999847412109 3 -77.501571655273438
v 107.09999847412109 3 -72.495979309082031
v 110.80000305175781 3 -72.495979309082031
v 110.80000305175781 3 -75.723777770996094
v 111.40000152587891 3 -75.723777770996094
v 111.40000152587891 3 -76.723777770996094
v 110.80000305175781 3 -76.723777770996094
v 110.80000305175781 3 -76.923774719238281
v 111.59999847412109 3 -76.923774719238281
v 111.59999847412109 3 -75.523773193359375
v 111 3 -75.523773193359375
v 111 3 -74.523773193359375
v 111.59999847412109 3 -74.523773193359375
v 111.59999847412109 3 -74.323776245117188
v 111 3 -74.323776245117188
v 111 3 -72.495979309082031
f 472 473 474 475 476 477 478 479 480 481 482 438 439 440 441 442 443 444 445 446 447 448 449 450 451 452 453 454 455 456 457 458 459 460 461 462 463 464 465 466 467 468 469 470 471
g object_13
v 120.34999847412109 3 -72.495979309082031
v 116.65000152587891 3 -72.495979309082031
v 116.65000152587891 3 -75.723777770996094
v 116.05000305175781 3 -75.723777770996094
v 116.05000305175781 3 -76.723777770996094
v 116.65000152587891 3 -76.723777770996094
v 116.65000152587891 3 -76.923774719238281
v 115.84999847412109 3 -76.923774719238281
v 115.84999847412109 3 -75.523773193359375
v 116.44999694824219 3 -75.523773193359375
v 116.44999694824219 3 -74.523773193359375
v 115.84999847412109 3 -74.523773193359375
v 115.84999847412109 3 -74.323776245117188
v 116.44999694824219 3 -74.323776245117188
v 116.44999694824219 3 -72.495979309082031
v 113.90000152587891 3 -72.495979309082031
v 113.90000152587891 3 -76.723777770996094
v 115.25 3 -76.723777770996094
v 115.25 3 -76.923774719238281
v 113.90000152587891 3 -76.923774719238281
v 113.90000152587891 3 -79.251571655273438
v 114.69999694824219 3 -79.251571655273438
v 114.69999694824219 3 -77.651573181152344
v 114.90000152587891 3 -77.651573181152344
v 114.90000152587891 3 -79.451576232910156
v 113.90000152587891 3 -79.451576232910156
v 113.90000152587891 3 -80.151573181152344
v 114.90000152587891 3 -80.151573181152344
v 114.90000152587891 3 -80.351577758789062
v 113.90000152587891 3 -80.351577758789062
v 113.90000152587891 3 -81.001571655273438
v 116.44999694824219 3 -81.001571655273438
v 116.44999694824219 3 -79.451576232910156
v 115.69999694824219 3 -79.451576232910156
v 115.69999694824219 3 -80.351577758789062
v 115.5 3 -80.351577758789062
v 115.5 3 -79.451576232910156
v 115.5 3 -79.251571655273438
v 116.44999694824219 3 -79.251571655273438
v 116.44999694824219 3 -77.501571655273438
v 118.59999847412109 3 -77.501571655273438
v 118.59999847412109 3 -76.901573181152344
v 118.80000305175781 3 -76.901573181152344
v 118.80000305175781 3 -77.501571655273438
v 120.34999847412109 3 -77.501571655273438
f 487 486 485 484 483 527 526 525 524 523 522 521 520 519 518 517 516 515 514 513 512 511 510 509 508 507 506 505 504 503 502 501 500 499 498 497 496 495 494 493 492 491 490 489 488
g object_14
v 133.94999694824219 3 -72.495979309082031
v 130.25 3 -72.495979309082031
v 130.25 3 -75.723777770996094
v 129.64999389648438 3 -75.723777770996094
v 129.64999389648438 3 -76.723777770996094
v 130.25 3 -76.723777770996094
v 130.25 3 -76.923774719238281
v 129.44999694824219 3 -76.923774719238281
v 129.44999694824219 3 -75.523773193359375
v 130.05000305175781 3 -75.523773193359375
v 130.05000305175781 3 -74.523773193359375
v 129.44999694824219 3 -74.523773193359375
v 129.44999694824219 3 -74.323776245117188
v 130.05000305175781 3 -74.323776245117188
v 130.05000305175781 3 -72.495979309082031
v 127.5 3 -72.495979309082031
v 127.5 3 -76.723777770996094
v 128.85000610351562 3 -76.723777770996094
v 128.85000610351562 3 -76.923774719238281
v 127.5 3 -76.923774719238281
v 127.5 3 -79.251571655273438
v 128.30000305175781 3 -79.251571655273438
v 128.30000305175781 3 -77.651573181152344
v 128.5 3 -77.651573181152344
v 128.5 3 -79.451576232910156
v 127.5 3 -79.451576232910156
v 127.5 3 -80.151573181152344
v 128.5 3 -80.151573181152344
v 128.5 3 -80.351577758789062
v 127.5 3 -80.351577758789062
v 127.5 3 -81.001571655273438
v 130.05000305175781 3 -81.001571655273438
v 130.05000305175781 3 -79.451576232910156
v 129.30000305175781 3 -79.451576232910156
v 129.30000305175781 3 -80.351577758789062
v 129.10000610351562 3 -80.351577758789062
v 129.10000610351562 3 -79.451576232910156
v 129.10000610351562 3 -79.251571655273438
v 130.05000305175781 3 -79.251571655273438
v 130.05000305175781 3 -77.501571655273438
v 132.19999694824219 3 -77.501571655273438
v 132.19999694824219 3 -76.901573181152344
v 132.39999389648438 3 -76.901573181152344
v 132.39999389648438 3 -77.501571655273438
v 133.94999694824219 3 -77.501571655273438
f 532 531 530 529 528 572 571 570 569 568 567 566 565 564 563 562 561 560 559 558 557 556 555 554 553 552 551 550 549 548 547 546 545 544 543 542 541 540 539 538 537 536 535 534 533
g object_15
v 147.55000305175781 3 -72.495979309082031
v 143.85000610351562 3 -72.495979309082031
v 143.85000610351562 3 -75.723777770996094
v 143.25 3 -75.723777770996094
v 143.25 3 -76.723777770996094
v 143.85000610351562 3 -76.723777770996094
v 143.85000610351562 3 -76.923774719238281
v 143.05000305175781 3 -76.923774719238281
v 143.05000305175781 3 -75.523773193359375
v 143.64999389648438 3 -75.523773193359375
v 143.64999389648438 3 -74.523773193359375
v 143.05000305175781 3 -74.523773193359375
v 143.05000305175781 3 -74.323776245117188
v 143.64999389648438 3 -74.323776245117188
v 143.64999389648438 3 -72.495979309082031
v 141.10000610351562 3 -72.495979309082031
v 141.10000610351562 3 -76.723777770996094
v 142.44999694824219 3 -76.723777770996094
v 142.44999694824219 3 -76.923774719238281
v 141.10000610351562 3 -76.923774719238281
v 141.10000610351562 3 -79.251571655273438
v 141.89999389648438 3 -79.251571655273438
v 141.89999389648438 3 -77.651573181152344
v 142.10000610351562 3 -77.651573181152344
v 142.10000610351562 3 -79.451576232910156
v 141.10000610351562 3 -79.451576232910156
v 141.10000610351562 3 -80.151573181152344
v 142.10000610351562 3 -80.151573181152344
v 142.10000610351562 3 -80.351577758789062
v 141.10000610351562 3 -80.351577758789062
v 141.10000610351562 3 -81.001571655273438
v 143.64999389648438 3 -81.001571655273438
v 143.64999389648438 3 -79.451576232910156
v 142.89999389648438 3 -79.451576232910156
v 142.89999389648438 3 -80.351577758789062
v 142.69999694824219 3 -80.351577758789062
v 142.69999694824219 3 -79.451576232910156
v 142.69999694824219 3 -79.251571655273438
v 143.64999389648438 3 -79.251571655273438
v 143.64999389648438 3 -77.501571655273438
v 145.80000305175781 3 -77.501571655273438
v 145.80000305175781 3 -76.901573181152344
v 146 3 -76.901573181152344
v 146 3 -77.501571655273438
v 147.55000305175781 3 -77.501571655273438
f 577 576 575 574 573 617 616 615 614 613 612 611 610 609 608 607 606 605 604 603 602 601 600 599 598 597 596 595 594 593 592 591 590 589 588 587 586 585 584 583 582 581 580 579 578
g object_16
v 161.14999389648438 3 -72.495979309082031
v 157.44999694824219 3 -72.495979309082031
v 157.44999694824219 3 -75.723777770996094
v 156.85000610351562 3 -75.723777770996094
v 156.85000610351562 3 -76.723777770996094
v 157.44999694824219 3 -76.723777770996094
v 157.44999694824219 3 -76.923774719238281
v 156.64999389648438 3 -76.923774719238281
v 156.64999389648438 3 -75.523773193359375
v 157.25 3 -75.523773193359375
v 157.25 3 -74.523773193359375
v 156.64999389648438 3 -74.523773193359375
v 156.64999389648438 3 -74.323776245117188
v 157.25 3 -74.323776245117188
v 157.25 3 -72.495979309082031
v 154.69999694824219 3 -72.495979309082031
v 154.69999694824219 3 -76.723777770996094
v 156.05000305175781 3 -76.723777770996094
v 156.05000305175781 3 -76.923774719238281
v 154.69999694824219 3 -76.923774719238281
v 154.69999694824219 3 -79.251571655273438
v 155.5 3 -79.251571655273438
v 155.5 3 -77.651573181152344
v 155.69999694824219 3 -77.651573181152344
v 155.69999694824219 3 -79.451576232910156
v 154.69999694824219 3 -79.451576232910156
v 154.69999694824219 3 -80.151573181152344
v 155.69999694824219 3 -80.151573181152344
v 155.69999694824219 3 -80.351577758789062
v 154.69999694824219 3 -80.351577758789062
v 154.69999694824219 3 -81.001571655273438
v 157.25 3 -81.001571655273438
v 157.25 3 -79.451576232910156
v 156.5 3 -79.451576232910156
v 156.5 3 -80.351577758789062
v 156.30000305175781 3 -80.351577758789062
v 156.30000305175781 3 -79.451576232910156
v 156.30000305175781 3 -79.251571655273438
v 157.25 3 -79.251571655273438
v 157.25 3 -77.501571655273438
v 159.39999389648438 3 -77.501571655273438
v 159.39999389648438 3 -76.901573181152344
v 159.60000610351562 3 -76.901573181152344
v 159.60000610351562 3 -77.501571655273438
v 161.14999389648438 3 -77.501571655273438
f 622 621 620 619 618 662 661 660 659 658 657 656 655 654 653 652 651 650 649 648 647 646 645 644 643 642 641 640 639 638 637 636 635 634 633 632 631 630 629 628 627 626 625 624 623
g object_17
v 112.69999694824219 0 -79.001571655273438
v 113.55000305175781 0 -79.001571655273438
v 112.72499847412109 1.5 -79.126571655273438
v 113.55000305175781 1.5 -79.126571655273438
v 112.75 3 -79.251571655273438
v 113.55000305175781 3 -79.251571655273438
f 666 664 663 665 667 668
g object_18
v 103.59999847412109 0 -81.001571655273438
v 106.75 0 -81.001571655273438
v 103.59999847412109 3 -81.001571655273438
v 106.75 3 -81.001571655273438
f 672 670 669 671
g object_19
v 90.150001525878906 0 -60.200000762939453
v 90.150001525878906 0 -63.145977020263672
v 90.150001525878906 3 -60.200000762939453
v 90.150001525878906 3 -63.145977020263672
f 676 674 673 675
g object_20
v 161.5 0 -81.001571655273438
v 164.64999389648438 0 -81.001571655273438
v 161.5 3 -81.001571655273438
v 164.64999389648438 3 -81.001571655273438
f 680 678 677 679
g object_21
v 126.30000305175781 0 -79.001571655273438
v 127.15000152587891 0 -79.001571655273438
v 126.32499694824219 1.5 -79.126571655273438
v 127.15000152587891 1.5 -79.126571655273438
v 126.34999847412109 3 -79.251571655273438
v 127.15000152587891 3 -79.251571655273438
f 684 682 681 683 685 686
g object_22
v 139.89999389648438 0 -79.001571655273438
v 140.75 0 -79.001571655273438
v 139.92500305175781 1.5 -79.126571655273438
v 140.75 1.5 -79.126571655273438
v 139.94999694824219 3 -79.251571655273438
v 140.75 3 -79.251571655273438
f 690 688 687 689 691 692
g object_23
v 153.5 0 -79.001571655273438
v 154.35000610351562 0 -79.001571655273438
v 153.52499389648438 1.5 -79.126571655273438
v 154.35000610351562 1.5 -79.126571655273438
v 153.55000305175781 3 -79.251571655273438
v 154.35000610351562 3 -79.251571655273438
f 696 694 693 695 697 698
g object_24
v 165 0 -81.001571655273438
v 165 3 -81.001571655273438
v 166.80000305175781 0 -81.001571655273438
v 166.80000305175781 3 -81.001571655273438
f 702 700 699 701
