# Rhino

g bathroom_1
v 61.900001525878906 3 -29.351573944091797
v 61.900001525878906 3 -31.351573944091797
v 64.724998474121094 3 -29.351573944091797
v 64.724998474121094 3 -31.351573944091797
v 63.3125 3 -29.351573944091797
v 63.3125 3 -31.351573944091797
v 64.724998474121094 6 -29.351573944091797
v 61.900001525878906 6 -29.351573944091797
v 61.900001525878906 4.5 -29.351573944091797
v 63.3125 6 -29.351573944091797
v 64.724998474121094 4.5 -29.351573944091797
v 64.724998474121094 6 -31.351573944091797
v 64.724998474121094 4.5 -31.351573944091797
v 61.900001525878906 6 -31.351573944091797
v 63.3125 6 -31.351573944091797
v 61.900001525878906 4.5 -31.351573944091797
f 2 6 4 3 5 1
f 5 3 11 7 10 8 9 1
f 11 3 4 13 12 7
f 6 2 16 14 15 12 13 4
f 16 2 1 9 8 14
f 14 8 10 7 12 15
g bathroom_2
v 48.299999237060547 3 -29.351573944091797
v 48.299999237060547 3 -31.351573944091797
v 51.125 3 -29.351573944091797
v 51.125 3 -31.351573944091797
v 49.712501525878906 3 -29.351573944091797
v 49.712501525878906 3 -31.351573944091797
v 51.125 6 -29.351573944091797
v 48.299999237060547 6 -29.351573944091797
v 48.299999237060547 4.5 -29.351573944091797
v 49.712501525878906 6 -29.351573944091797
v 51.125 4.5 -29.351573944091797
v 51.125 6 -31.351573944091797
v 51.125 4.5 -31.351573944091797
v 48.299999237060547 6 -31.351573944091797
v 49.712501525878906 6 -31.351573944091797
v 48.299999237060547 4.5 -31.351573944091797
f 18 22 20 19 21 17
f 21 19 27 23 26 24 25 17
f 27 19 20 29 28 23
f 22 18 32 30 31 28 29 20
f 32 18 17 25 24 30
f 30 24 26 23 28 31
g bathroom_3
v 34.700000762939453 3 -29.351573944091797
v 34.700000762939453 3 -31.351573944091797
v 37.525001525878906 3 -29.351573944091797
v 37.525001525878906 3 -31.351573944091797
v 36.112499237060547 3 -29.351573944091797
v 36.112499237060547 3 -31.351573944091797
v 37.525001525878906 6 -29.351573944091797
v 34.700000762939453 6 -29.351573944091797
v 34.700000762939453 4.5 -29.351573944091797
v 36.112499237060547 6 -29.351573944091797
v 37.525001525878906 4.5 -29.351573944091797
v 37.525001525878906 6 -31.351573944091797
v 37.525001525878906 4.5 -31.351573944091797
v 34.700000762939453 6 -31.351573944091797
v 36.112499237060547 6 -31.351573944091797
v 34.700000762939453 4.5 -31.351573944091797
f 34 38 36 35 37 33
f 37 35 43 39 42 40 41 33
f 43 35 36 45 44 39
f 38 34 48 46 47 44 45 36
f 48 34 33 41 40 46
f 46 40 42 39 44 47
g bathroom_4
v 21.100000381469727 3 -29.351573944091797
v 21.100000381469727 3 -31.351573944091797
v 23.924999237060547 3 -29.351573944091797
v 23.924999237060547 3 -31.351573944091797
v 22.512500762939453 3 -29.351573944091797
v 22.512500762939453 3 -31.351573944091797
v 23.924999237060547 6 -29.351573944091797
v 21.100000381469727 6 -29.351573944091797
v 21.100000381469727 4.5 -29.351573944091797
v 22.512500762939453 6 -29.351573944091797
v 23.924999237060547 4.5 -29.351573944091797
v 23.924999237060547 6 -31.351573944091797
v 23.924999237060547 4.5 -31.351573944091797
v 21.100000381469727 6 -31.351573944091797
v 22.512500762939453 6 -31.351573944091797
v 21.100000381469727 4.5 -31.351573944091797
f 50 54 52 51 53 49
f 53 51 59 55 58 56 57 49
f 59 51 52 61 60 55
f 54 50 64 62 63 60 61 52
f 64 50 49 57 56 62
f 62 56 58 55 60 63
g bathroom_5
v 26.75 3 -29.351573944091797
v 26.75 3 -31.351573944091797
v 23.924999237060547 3 -29.351573944091797
v 23.924999237060547 3 -31.351573944091797
v 25.337499618530273 3 -29.351573944091797
v 25.337499618530273 3 -31.351573944091797
v 23.924999237060547 6 -29.351573944091797
v 26.75 6 -29.351573944091797
v 26.75 4.5 -29.351573944091797
v 25.337499618530273 6 -29.351573944091797
v 23.924999237060547 4.5 -29.351573944091797
v 23.924999237060547 6 -31.351573944091797
v 23.924999237060547 4.5 -31.351573944091797
v 26.75 6 -31.351573944091797
v 25.337499618530273 6 -31.351573944091797
v 26.75 4.5 -31.351573944091797
f 66 65 69 67 68 70
f 75 67 69 65 73 72 74 71
f 77 68 67 75 71 76
f 80 66 70 68 77 76 79 78
f 73 65 66 80 78 72
f 78 79 76 71 74 72
g bathroom_6
v 40.349998474121094 3 -29.351573944091797
v 40.349998474121094 3 -31.351573944091797
v 37.525001525878906 3 -29.351573944091797
v 37.525001525878906 3 -31.351573944091797
v 38.9375 3 -29.351573944091797
v 38.9375 3 -31.351573944091797
v 37.525001525878906 6 -29.351573944091797
v 40.349998474121094 6 -29.351573944091797
v 40.349998474121094 4.5 -29.351573944091797
v 38.9375 6 -29.351573944091797
v 37.525001525878906 4.5 -29.351573944091797
v 37.525001525878906 6 -31.351573944091797
v 37.525001525878906 4.5 -31.351573944091797
v 40.349998474121094 6 -31.351573944091797
v 38.9375 6 -31.351573944091797
v 40.349998474121094 4.5 -31.351573944091797
f 82 81 85 83 84 86
f 91 83 85 81 89 88 90 87
f 93 84 83 91 87 92
f 96 82 86 84 93 92 95 94
f 89 81 82 96 94 88
f 94 95 92 87 90 88
g bathroom_7
v 53.950000762939453 3 -29.351573944091797
v 53.950000762939453 3 -31.351573944091797
v 51.125 3 -29.351573944091797
v 51.125 3 -31.351573944091797
v 52.537498474121094 3 -29.351573944091797
v 52.537498474121094 3 -31.351573944091797
v 51.125 6 -29.351573944091797
v 53.950000762939453 6 -29.351573944091797
v 53.950000762939453 4.5 -29.351573944091797
v 52.537498474121094 6 -29.351573944091797
v 51.125 4.5 -29.351573944091797
v 51.125 6 -31.351573944091797
v 51.125 4.5 -31.351573944091797
v 53.950000762939453 6 -31.351573944091797
v 52.537498474121094 6 -31.351573944091797
v 53.950000762939453 4.5 -31.351573944091797
f 98 97 101 99 100 102
f 107 99 101 97 105 104 106 103
f 109 100 99 107 103 108
f 112 98 102 100 109 108 111 110
f 105 97 98 112 110 104
f 110 111 108 103 106 104
g bathroom_8
v 67.550003051757812 3 -29.351573944091797
v 67.550003051757812 3 -31.351573944091797
v 64.724998474121094 3 -29.351573944091797
v 64.724998474121094 3 -31.351573944091797
v 66.137496948242188 3 -29.351573944091797
v 66.137496948242188 3 -31.351573944091797
v 64.724998474121094 6 -29.351573944091797
v 67.550003051757812 6 -29.351573944091797
v 67.550003051757812 4.5 -29.351573944091797
v 66.137496948242188 6 -29.351573944091797
v 64.724998474121094 4.5 -29.351573944091797
v 64.724998474121094 6 -31.351573944091797
v 64.724998474121094 4.5 -31.351573944091797
v 67.550003051757812 6 -31.351573944091797
v 66.137496948242188 6 -31.351573944091797
v 67.550003051757812 4.5 -31.351573944091797
f 114 113 117 115 116 118
f 123 115 117 113 121 120 122 119
f 125 116 115 123 119 124
f 128 114 118 116 125 124 127 126
f 121 113 114 128 126 120
f 126 127 124 119 122 120
g stairs_1
v 75.025001525878906 0 -26.823776245117188
v 75.025001525878906 0 -31.351573944091797
v 77.099998474121094 0 -26.823776245117188
v 77.099998474121094 0 -31.351573944091797
v 77.099998474121094 0 -29.087675094604492
v 75.025001525878906 0 -29.087675094604492
v 77.099998474121094 6 -26.823776245117188
v 75.025001525878906 6 -26.823776245117188
v 75.025001525878906 3 -26.823776245117188
v 77.099998474121094 3 -26.823776245117188
v 77.099998474121094 6 -31.351573944091797
v 77.099998474121094 6 -29.087675094604492
v 77.099998474121094 3 -31.351573944091797
v 75.025001525878906 6 -31.351573944091797
v 75.025001525878906 3 -31.351573944091797
v 75.025001525878906 6 -29.087675094604492
f 133 131 129 134 130 132
f 137 129 131 138 135 136
f 133 132 141 139 140 135 138 131
f 141 132 130 143 142 139
f 134 129 137 136 144 142 143 130
f 144 136 135 140 139 142
g stairs_2
v 17.125 3 -22.145977020263672
v 17.125 6 -22.145977020263672
v 13.625 3 -22.145977020263672
v 13.625 6 -22.145977020263672
v 15.375 3 -22.145977020263672
v 13.625 4.5 -22.145977020263672
v 15.375 6 -22.145977020263672
v 17.125 4.5 -22.145977020263672
v 13.625 6 -31.351573944091797
v 17.125 6 -31.351573944091797
v 17.125 6 -26.748775482177734
v 13.625 6 -26.748775482177734
v 13.625 0 -26.823776245117188
v 13.625 0 -31.351573944091797
v 17.125 0 -26.823776245117188
v 17.125 0 -31.351573944091797
v 15.375 0 -26.823776245117188
v 17.125 0 -29.087675094604492
v 15.375 0 -31.351573944091797
v 13.625 0 -29.087675094604492
v 17.125 3 -26.823776245117188
v 13.625 3 -26.823776245117188
v 13.625 1.5 -26.823776245117188
v 17.125 1.5 -26.823776245117188
v 15.375 3 -26.823776245117188
v 17.125 3 -24.48487663269043
v 13.625 3 -24.48487663269043
v 13.625 3 -31.351573944091797
v 17.125 3 -31.351573944091797
f 149 145 152 146 151 148 150 147
f 156 148 151 146 155 154 153
f 161 157 164 158 163 160 162 159
f 161 159 168 165 169 166 167 157
f 169 165 170 145 149 147 171 166
f 163 158 172 153 154 173 160
f 166 171 147 150 148 156 153 172 158 164 157 167
f 162 160 173 154 155 146 152 145 170 165 168 159
g stairs_3
v 71.525001525878906 3 -26.823776245117188
v 71.525001525878906 3 -22.145977020263672
v 75.025001525878906 3 -26.823776245117188
v 75.025001525878906 3 -22.145977020263672
v 73.275001525878906 3 -22.145977020263672
v 71.525001525878906 3 -24.48487663269043
v 73.275001525878906 3 -26.823776245117188
v 75.025001525878906 3 -24.48487663269043
v 71.525001525878906 6 -22.145977020263672
v 75.025001525878906 6 -22.145977020263672
v 75.025001525878906 4.5 -22.145977020263672
v 73.275001525878906 6 -22.145977020263672
v 71.525001525878906 4.5 -22.145977020263672
v 71.525001525878906 6 -31.351573944091797
v 75.025001525878906 6 -31.351573944091797
v 75.025001525878906 6 -26.748775482177734
v 71.525001525878906 6 -26.748775482177734
v 71.525001525878906 0 -26.823776245117188
v 71.525001525878906 0 -31.351573944091797
v 75.025001525878906 0 -26.823776245117188
v 75.025001525878906 0 -31.351573944091797
v 73.275001525878906 0 -26.823776245117188
v 75.025001525878906 0 -29.087675094604492
v 73.275001525878906 0 -31.351573944091797
v 71.525001525878906 0 -29.087675094604492
v 71.525001525878906 1.5 -26.823776245117188
v 75.025001525878906 1.5 -26.823776245117188
v 75.025001525878906 3 -31.351573944091797
v 71.525001525878906 3 -31.351573944091797
f 178 175 179 174 180 176 181 177
f 186 175 178 177 184 183 185 182
f 189 188 187 190 182 185 183
f 195 191 198 192 197 194 196 193
f 195 193 200 176 180 174 199 191
f 201 194 197 192 202 187 188
f 181 176 200 193 196 194 201 188 189 183 184 177
f 202 192 198 191 199 174 179 175 186 182 190 187
g stairs_4
v 63.650001525878906 0 -26.823776245117188
v 63.650001525878906 0 -29.351573944091797
v 64.724998474121094 0 -26.823776245117188
v 64.724998474121094 0 -29.351573944091797
v 64.724998474121094 0 -28.087675094604492
v 63.650001525878906 0 -28.087675094604492
v 64.724998474121094 6 -26.823776245117188
v 63.650001525878906 6 -26.823776245117188
v 63.650001525878906 3 -26.823776245117188
v 64.724998474121094 3 -26.823776245117188
v 64.724998474121094 6 -29.351573944091797
v 64.724998474121094 6 -28.087675094604492
v 64.724998474121094 3 -29.351573944091797
v 63.650001525878906 6 -29.351573944091797
v 63.650001525878906 3 -29.351573944091797
v 63.650001525878906 6 -28.087675094604492
f 207 205 203 208 204 206
f 211 203 205 212 209 210
f 207 206 215 213 214 209 212 205
f 215 206 204 217 216 213
f 208 203 211 210 218 216 217 204
f 218 210 209 214 213 216
g stairs_5
v 50.049999237060547 0 -26.823776245117188
v 50.049999237060547 0 -29.351573944091797
v 51.125 0 -26.823776245117188
v 51.125 0 -29.351573944091797
v 51.125 0 -28.087675094604492
v 50.049999237060547 0 -28.087675094604492
v 51.125 6 -26.823776245117188
v 50.049999237060547 6 -26.823776245117188
v 50.049999237060547 3 -26.823776245117188
v 51.125 3 -26.823776245117188
v 51.125 6 -29.351573944091797
v 51.125 6 -28.087675094604492
v 51.125 3 -29.351573944091797
v 50.049999237060547 6 -29.351573944091797
v 50.049999237060547 3 -29.351573944091797
v 50.049999237060547 6 -28.087675094604492
f 223 221 219 224 220 222
f 227 219 221 228 225 226
f 223 222 231 229 230 225 228 221
f 231 222 220 233 232 229
f 224 219 227 226 234 232 233 220
f 234 226 225 230 229 232
g stairs_6
v 36.450000762939453 0 -26.823776245117188
v 36.450000762939453 0 -29.351573944091797
v 37.525001525878906 0 -26.823776245117188
v 37.525001525878906 0 -29.351573944091797
v 37.525001525878906 0 -28.087675094604492
v 36.450000762939453 0 -28.087675094604492
v 37.525001525878906 6 -26.823776245117188
v 36.450000762939453 6 -26.823776245117188
v 36.450000762939453 3 -26.823776245117188
v 37.525001525878906 3 -26.823776245117188
v 37.525001525878906 6 -29.351573944091797
v 37.525001525878906 6 -28.087675094604492
v 37.525001525878906 3 -29.351573944091797
v 36.450000762939453 6 -29.351573944091797
v 36.450000762939453 3 -29.351573944091797
v 36.450000762939453 6 -28.087675094604492
f 239 237 235 240 236 238
f 243 235 237 244 241 242
f 239 238 247 245 246 241 244 237
f 247 238 236 249 248 245
f 240 235 243 242 250 248 249 236
f 250 242 241 246 245 248
g stairs_7
v 22.850000381469727 0 -26.823776245117188
v 22.850000381469727 0 -29.351573944091797
v 23.924999237060547 0 -26.823776245117188
v 23.924999237060547 0 -29.351573944091797
v 23.924999237060547 0 -28.087675094604492
v 22.850000381469727 0 -28.087675094604492
v 23.924999237060547 6 -26.823776245117188
v 22.850000381469727 6 -26.823776245117188
v 22.850000381469727 3 -26.823776245117188
v 23.924999237060547 3 -26.823776245117188
v 23.924999237060547 6 -29.351573944091797
v 23.924999237060547 6 -28.087675094604492
v 23.924999237060547 3 -29.351573944091797
v 22.850000381469727 6 -29.351573944091797
v 22.850000381469727 3 -29.351573944091797
v 22.850000381469727 6 -28.087675094604492
f 255 253 251 256 252 254
f 259 251 253 260 257 258
f 255 254 263 261 262 257 260 253
f 263 254 252 265 264 261
f 256 251 259 258 266 264 265 252
f 266 258 257 262 261 264
g stairs_8
v 0 0 -10.199999809265137
v 0 0 -13.495742797851562
v 9.1499996185302734 0 -10.199999809265137
v 9.1499996185302734 0 -13.495742797851562
v 4.5749998092651367 0 -10.199999809265137
v 4.5749998092651367 0 -13.495742797851562
v 9.1499996185302734 6 -10.199999809265137
v 0 6 -10.199999809265137
v 0 3 -10.199999809265137
v 4.5749998092651367 6 -10.199999809265137
v 9.1499996185302734 3 -10.199999809265137
v 9.1499996185302734 6 -13.495742797851562
v 9.1499996185302734 3 -13.495742797851562
v 0 6 -13.495742797851562
v 4.5749998092651367 6 -13.495742797851562
v 0 3 -13.495742797851562
f 271 267 268 272 270 269
f 271 269 277 273 276 274 275 267
f 277 269 270 279 278 273
f 272 268 282 280 281 278 279 270
f 282 268 267 275 274 280
f 281 280 274 276 273 278
g stairs_9
v 25 0 -26.823776245117188
v 25 0 -29.351573944091797
v 23.924999237060547 0 -26.823776245117188
v 23.924999237060547 0 -29.351573944091797
v 23.924999237060547 0 -28.087675094604492
v 25 0 -28.087675094604492
v 23.924999237060547 6 -26.823776245117188
v 25 6 -26.823776245117188
v 25 3 -26.823776245117188
v 23.924999237060547 3 -26.823776245117188
v 23.924999237060547 6 -29.351573944091797
v 23.924999237060547 6 -28.087675094604492
v 23.924999237060547 3 -29.351573944091797
v 25 6 -29.351573944091797
v 25 3 -29.351573944091797
v 25 6 -28.087675094604492
f 288 283 285 287 286 284
f 292 285 283 291 290 289
f 295 286 287 285 292 289 294 293
f 297 284 286 295 293 296
f 291 283 288 284 297 296 298 290
f 294 289 290 298 296 293
g stairs_10
v 38.599998474121094 0 -26.823776245117188
v 38.599998474121094 0 -29.351573944091797
v 37.525001525878906 0 -26.823776245117188
v 37.525001525878906 0 -29.351573944091797
v 37.525001525878906 0 -28.087675094604492
v 38.599998474121094 0 -28.087675094604492
v 37.525001525878906 6 -26.823776245117188
v 38.599998474121094 6 -26.823776245117188
v 38.599998474121094 3 -26.823776245117188
v 37.525001525878906 3 -26.823776245117188
v 37.525001525878906 6 -29.351573944091797
v 37.525001525878906 6 -28.087675094604492
v 37.525001525878906 3 -29.351573944091797
v 38.599998474121094 6 -29.351573944091797
v 38.599998474121094 3 -29.351573944091797
v 38.599998474121094 6 -28.087675094604492
f 304 299 301 303 302 300
f 308 301 299 307 306 305
f 311 302 303 301 308 305 310 309
f 313 300 302 311 309 312
f 307 299 304 300 313 312 314 306
f 310 305 306 314 312 309
g stairs_11
v 52.200000762939453 0 -26.823776245117188
v 52.200000762939453 0 -29.351573944091797
v 51.125 0 -26.823776245117188
v 51.125 0 -29.351573944091797
v 51.125 0 -28.087675094604492
v 52.200000762939453 0 -28.087675094604492
v 51.125 6 -26.823776245117188
v 52.200000762939453 6 -26.823776245117188
v 52.200000762939453 3 -26.823776245117188
v 51.125 3 -26.823776245117188
v 51.125 6 -29.351573944091797
v 51.125 6 -28.087675094604492
v 51.125 3 -29.351573944091797
v 52.200000762939453 6 -29.351573944091797
v 52.200000762939453 3 -29.351573944091797
v 52.200000762939453 6 -28.087675094604492
f 320 315 317 319 318 316
f 324 317 315 323 322 321
f 327 318 319 317 324 321 326 325
f 329 316 318 327 325 328
f 323 315 320 316 329 328 330 322
f 326 321 322 330 328 325
g stairs_12
v 65.800003051757812 0 -26.823776245117188
v 65.800003051757812 0 -29.351573944091797
v 64.724998474121094 0 -26.823776245117188
v 64.724998474121094 0 -29.351573944091797
v 64.724998474121094 0 -28.087675094604492
v 65.800003051757812 0 -28.087675094604492
v 64.724998474121094 6 -26.823776245117188
v 65.800003051757812 6 -26.823776245117188
v 65.800003051757812 3 -26.823776245117188
v 64.724998474121094 3 -26.823776245117188
v 64.724998474121094 6 -29.351573944091797
v 64.724998474121094 6 -28.087675094604492
v 64.724998474121094 3 -29.351573944091797
v 65.800003051757812 6 -29.351573944091797
v 65.800003051757812 3 -29.351573944091797
v 65.800003051757812 6 -28.087675094604492
f 336 331 333 335 334 332
f 340 333 331 339 338 337
f 343 334 335 333 340 337 342 341
f 345 332 334 343 341 344
f 339 331 336 332 345 344 346 338
f 342 337 338 346 344 341
g corridor_1
v 75.025001525878906 0 -22.145977020263672
v 75.025001525878906 0 -26.823776245117188
v 77.099998474121094 0 -22.145977020263672
v 77.099998474121094 0 -26.823776245117188
v 77.099998474121094 0 -24.48487663269043
v 75.025001525878906 0 -24.48487663269043
v 77.099998474121094 3 -22.145977020263672
v 75.025001525878906 3 -22.145977020263672
v 75.025001525878906 1.5 -22.145977020263672
v 77.099998474121094 1.5 -22.145977020263672
v 77.099998474121094 3 -26.823776245117188
v 77.099998474121094 3 -24.48487663269043
v 77.099998474121094 1.5 -26.823776245117188
v 75.025001525878906 3 -26.823776245117188
v 75.025001525878906 1.5 -26.823776245117188
v 75.025001525878906 3 -24.48487663269043
f 351 349 347 352 348 350
f 355 347 349 356 353 354
f 351 350 359 357 358 353 356 349
f 359 350 348 361 360 357
f 352 347 355 354 362 360 361 348
f 362 354 353 358 357 360
g corridor_2
v 75.025001525878906 0 -26.823776245117188
v 75.025001525878906 3 -26.823776245117188
v 75.025001525878906 0 -22.145977020263672
v 75.025001525878906 3 -22.145977020263672
v 75.025001525878906 0 -24.48487663269043
v 75.025001525878906 3 -24.48487663269043
v 6.6500000953674316 0 -26.823776245117188
v 6.6500000953674316 3 -26.823776245117188
v 40.837501525878906 0 -26.823776245117188
v 40.837501525878906 3 -26.823776245117188
v 18.045833587646484 0 -26.823776245117188
v 29.441667556762695 0 -26.823776245117188
v 52.233333587646484 0 -26.823776245117188
v 63.629165649414062 0 -26.823776245117188
v 63.629165649414062 3 -26.823776245117188
v 52.233333587646484 3 -26.823776245117188
v 29.441667556762695 3 -26.823776245117188
v 18.045833587646484 3 -26.823776245117188
v 6.6500000953674316 0 -22.145977020263672
v 29.441667556762695 0 -22.145977020263672
v 52.233333587646484 0 -22.145977020263672
v 63.629165649414062 0 -24.48487663269043
v 69.327079772949219 0 -24.48487663269043
v 63.629165649414062 0 -23.315427780151367
v 69.327079772949219 0 -23.315427780151367
v 63.629165649414062 0 -25.654327392578125
v 69.327079772949219 0 -25.654327392578125
v 6.6500000953674316 0 -24.48487663269043
v 18.045833587646484 0 -22.145977020263672
v 18.045833587646484 0 -24.48487663269043
v 18.045833587646484 0 -25.654327392578125
v 12.347916603088379 0 -24.48487663269043
v 12.347916603088379 0 -25.654327392578125
v 18.045833587646484 0 -23.315427780151367
v 12.347916603088379 0 -23.315427780151367
v 40.837501525878906 0 -22.145977020263672
v 63.629165649414062 0 -22.145977020263672
v 6.6500000953674316 3 -22.145977020263672
v 29.441667556762695 3 -22.145977020263672
v 52.233333587646484 3 -22.145977020263672
v 63.629165649414062 3 -24.48487663269043
v 69.327079772949219 3 -24.48487663269043
v 63.629165649414062 3 -23.315427780151367
v 69.327079772949219 3 -23.315427780151367
v 63.629165649414062 3 -25.654327392578125
v 69.327079772949219 3 -25.654327392578125
v 6.6500000953674316 3 -24.48487663269043
v 18.045833587646484 3 -22.145977020263672
v 18.045833587646484 3 -24.48487663269043
v 18.045833587646484 3 -25.654327392578125
v 12.347916603088379 3 -24.48487663269043
v 12.347916603088379 3 -25.654327392578125
v 18.045833587646484 3 -23.315427780151367
v 12.347916603088379 3 -23.315427780151367
v 40.837501525878906 3 -22.145977020263672
v 63.629165649414062 3 -22.145977020263672
f 364 368 366 365 367 363
f 369 370 380 379 372 378 377 364 363 376 375 371 374 373
f 390 369 373 374 371 375 376 363 367 365 399 383 398 382 391 381
f 380 370 409 400 410 401 417 402 418 366 368 364 377 378 372 379
f 400 409 370 369 390 381
f 399 365 366 418 402 417 401 410 400 381 391 382 398 383
g corridor_3
v 9.1499996185302734 0 -13.495742797851562
v 9.1499996185302734 3 -13.495742797851562
v 6.6500000953674316 0 -13.495742797851562
v 6.6500000953674316 3 -13.495742797851562
v 7.9000000953674316 0 -13.495742797851562
v 6.6500000953674316 1.5 -13.495742797851562
v 7.9000000953674316 3 -13.495742797851562
v 9.1499996185302734 1.5 -13.495742797851562
v 9.1499996185302734 0 -22.145977020263672
v 9.1499996185302734 3 -22.145977020263672
v 9.1499996185302734 0 -17.820859909057617
v 9.1499996185302734 3 -17.820859909057617
v 9.1499996185302734 1.5 -22.145977020263672
v 6.6500000953674316 0 -22.145977020263672
v 7.9000000953674316 0 -22.145977020263672
v 6.6500000953674316 0 -17.820859909057617
v 6.6500000953674316 3 -22.145977020263672
v 7.9000000953674316 3 -22.145977020263672
v 6.6500000953674316 3 -17.820859909057617
v 6.6500000953674316 1.5 -22.145977020263672
f 423 419 426 420 425 422 424 421
f 429 427 431 428 430 420 426 419
f 423 421 434 432 433 427 429 419
f 437 422 425 420 430 428 436 435
f 434 421 424 422 437 435 438 432
f 431 427 433 432 438 435 436 428
g corridor_4
v 61.900001525878906 3 -26.823776245117188
v 61.900001525878906 3 -29.351573944091797
v 63.650001525878906 3 -26.823776245117188
v 63.650001525878906 3 -29.351573944091797
v 63.650001525878906 3 -28.087675094604492
v 61.900001525878906 3 -28.087675094604492
v 63.650001525878906 6 -26.823776245117188
v 61.900001525878906 6 -26.823776245117188
v 61.900001525878906 4.5 -26.823776245117188
v 63.650001525878906 4.5 -26.823776245117188
v 63.650001525878906 6 -29.351573944091797
v 63.650001525878906 6 -28.087675094604492
v 63.650001525878906 4.5 -29.351573944091797
v 61.900001525878906 6 -29.351573944091797
v 61.900001525878906 4.5 -29.351573944091797
v 61.900001525878906 6 -28.087675094604492
f 443 441 439 444 440 442
f 447 439 441 448 445 446
f 443 442 451 449 450 445 448 441
f 451 442 440 453 452 449
f 444 439 447 446 454 452 453 440
f 454 446 445 450 449 452
g corridor_5
v 48.299999237060547 3 -26.823776245117188
v 48.299999237060547 3 -29.351573944091797
v 50.049999237060547 3 -26.823776245117188
v 50.049999237060547 3 -29.351573944091797
v 50.049999237060547 3 -28.087675094604492
v 48.299999237060547 3 -28.087675094604492
v 50.049999237060547 6 -26.823776245117188
v 48.299999237060547 6 -26.823776245117188
v 48.299999237060547 4.5 -26.823776245117188
v 50.049999237060547 4.5 -26.823776245117188
v 50.049999237060547 6 -29.351573944091797
v 50.049999237060547 6 -28.087675094604492
v 50.049999237060547 4.5 -29.351573944091797
v 48.299999237060547 6 -29.351573944091797
v 48.299999237060547 4.5 -29.351573944091797
v 48.299999237060547 6 -28.087675094604492
f 459 457 455 460 456 458
f 463 455 457 464 461 462
f 459 458 467 465 466 461 464 457
f 467 458 456 469 468 465
f 460 455 463 462 470 468 469 456
f 470 462 461 466 465 468
g corridor_6
v 34.700000762939453 3 -26.823776245117188
v 34.700000762939453 3 -29.351573944091797
v 36.450000762939453 3 -26.823776245117188
v 36.450000762939453 3 -29.351573944091797
v 36.450000762939453 3 -28.087675094604492
v 34.700000762939453 3 -28.087675094604492
v 36.450000762939453 6 -26.823776245117188
v 34.700000762939453 6 -26.823776245117188
v 34.700000762939453 4.5 -26.823776245117188
v 36.450000762939453 4.5 -26.823776245117188
v 36.450000762939453 6 -29.351573944091797
v 36.450000762939453 6 -28.087675094604492
v 36.450000762939453 4.5 -29.351573944091797
v 34.700000762939453 6 -29.351573944091797
v 34.700000762939453 4.5 -29.351573944091797
v 34.700000762939453 6 -28.087675094604492
f 475 473 471 476 472 474
f 479 471 473 480 477 478
f 475 474 483 481 482 477 480 473
f 483 474 472 485 484 481
f 476 471 479 478 486 484 485 472
f 486 478 477 482 481 484
g corridor_7
v 40.349998474121094 3 -26.823776245117188
v 40.349998474121094 3 -29.351573944091797
v 38.599998474121094 3 -26.823776245117188
v 38.599998474121094 3 -29.351573944091797
v 38.599998474121094 3 -28.087675094604492
v 40.349998474121094 3 -28.087675094604492
v 38.599998474121094 6 -26.823776245117188
v 40.349998474121094 6 -26.823776245117188
v 40.349998474121094 4.5 -26.823776245117188
v 38.599998474121094 4.5 -26.823776245117188
v 38.599998474121094 6 -29.351573944091797
v 38.599998474121094 6 -28.087675094604492
v 38.599998474121094 4.5 -29.351573944091797
v 40.349998474121094 6 -29.351573944091797
v 40.349998474121094 4.5 -29.351573944091797
v 40.349998474121094 6 -28.087675094604492
f 492 487 489 491 490 488
f 496 489 487 495 494 493
f 499 490 491 489 496 493 498 497
f 501 488 490 499 497 500
f 495 487 492 488 501 500 502 494
f 498 493 494 502 500 497
g corridor_8
v 53.950000762939453 3 -26.823776245117188
v 53.950000762939453 3 -29.351573944091797
v 52.200000762939453 3 -26.823776245117188
v 52.200000762939453 3 -29.351573944091797
v 52.200000762939453 3 -28.087675094604492
v 53.950000762939453 3 -28.087675094604492
v 52.200000762939453 6 -26.823776245117188
v 53.950000762939453 6 -26.823776245117188
v 53.950000762939453 4.5 -26.823776245117188
v 52.200000762939453 4.5 -26.823776245117188
v 52.200000762939453 6 -29.351573944091797
v 52.200000762939453 6 -28.087675094604492
v 52.200000762939453 4.5 -29.351573944091797
v 53.950000762939453 6 -29.351573944091797
v 53.950000762939453 4.5 -29.351573944091797
v 53.950000762939453 6 -28.087675094604492
f 508 503 505 507 506 504
f 512 505 503 511 510 509
f 515 506 507 505 512 509 514 513
f 517 504 506 515 513 516
f 511 503 508 504 517 516 518 510
f 514 509 510 518 516 513
g corridor_9
v 67.550003051757812 3 -26.823776245117188
v 67.550003051757812 3 -29.351573944091797
v 65.800003051757812 3 -26.823776245117188
v 65.800003051757812 3 -29.351573944091797
v 65.800003051757812 3 -28.087675094604492
v 67.550003051757812 3 -28.087675094604492
v 65.800003051757812 6 -26.823776245117188
v 67.550003051757812 6 -26.823776245117188
v 67.550003051757812 4.5 -26.823776245117188
v 65.800003051757812 4.5 -26.823776245117188
v 65.800003051757812 6 -29.351573944091797
v 65.800003051757812 6 -28.087675094604492
v 65.800003051757812 4.5 -29.351573944091797
v 67.550003051757812 6 -29.351573944091797
v 67.550003051757812 4.5 -29.351573944091797
v 67.550003051757812 6 -28.087675094604492
f 524 519 521 523 522 520
f 528 521 519 527 526 525
f 531 522 523 521 528 525 530 529
f 533 520 522 531 529 532
f 527 519 524 520 533 532 534 526
f 530 525 526 534 532 529
g corridor_10
v 26.75 3 -26.823776245117188
v 26.75 3 -29.351573944091797
v 25 3 -26.823776245117188
v 25 3 -29.351573944091797
v 25 3 -28.087675094604492
v 26.75 3 -28.087675094604492
v 25 6 -26.823776245117188
v 26.75 6 -26.823776245117188
v 26.75 4.5 -26.823776245117188
v 25 4.5 -26.823776245117188
v 25 6 -29.351573944091797
v 25 6 -28.087675094604492
v 25 4.5 -29.351573944091797
v 26.75 6 -29.351573944091797
v 26.75 4.5 -29.351573944091797
v 26.75 6 -28.087675094604492
f 540 535 537 539 538 536
f 544 537 535 543 542 541
f 547 538 539 537 544 541 546 545
f 549 536 538 547 545 548
f 543 535 540 536 549 548 550 542
f 546 541 542 550 548 545
g corridor_11
v 21.100000381469727 3 -26.823776245117188
v 21.100000381469727 3 -29.351573944091797
v 22.850000381469727 3 -26.823776245117188
v 22.850000381469727 3 -29.351573944091797
v 22.850000381469727 3 -28.087675094604492
v 21.100000381469727 3 -28.087675094604492
v 22.850000381469727 6 -26.823776245117188
v 21.100000381469727 6 -26.823776245117188
v 21.100000381469727 4.5 -26.823776245117188
v 22.850000381469727 4.5 -26.823776245117188
v 22.850000381469727 6 -29.351573944091797
v 22.850000381469727 6 -28.087675094604492
v 22.850000381469727 4.5 -29.351573944091797
v 21.100000381469727 6 -29.351573944091797
v 21.100000381469727 4.5 -29.351573944091797
v 21.100000381469727 6 -28.087675094604492
f 555 553 551 556 552 554
f 559 551 553 560 557 558
f 555 554 563 561 562 557 560 553
f 563 554 552 565 564 561
f 556 551 559 558 566 564 565 552
f 566 558 557 562 561 564
g corridor_12
v 62.599998474121094 0 -26.823776245117188
v 62.599998474121094 3 -26.823776245117188
v 62.599998474121094 0 -29.351573944091797
v 62.599998474121094 3 -29.351573944091797
v 62.599998474121094 0 -28.087675094604492
v 62.599998474121094 1.5 -26.823776245117188
v 62.599998474121094 1.5 -29.351573944091797
v 62.599998474121094 3 -28.087675094604492
v 63.650001525878906 0 -26.823776245117188
v 63.650001525878906 3 -26.823776245117188
v 63.650001525878906 0 -29.351573944091797
v 63.650001525878906 3 -29.351573944091797
v 63.650001525878906 0 -28.087675094604492
v 63.650001525878906 1.5 -26.823776245117188
v 63.650001525878906 1.5 -29.351573944091797
v 63.650001525878906 3 -28.087675094604492
f 571 567 572 568 574 570 573 569
f 580 575 579 577 581 578 582 576
f 579 575 567 571 569 577
f 572 567 575 580 576 568
f 581 577 569 573 570 578
f 574 568 576 582 578 570
g corridor_13
v 49 0 -26.823776245117188
v 49 3 -26.823776245117188
v 49 0 -29.351573944091797
v 49 3 -29.351573944091797
v 49 0 -28.087675094604492
v 49 1.5 -26.823776245117188
v 49 1.5 -29.351573944091797
v 49 3 -28.087675094604492
v 50.049999237060547 0 -26.823776245117188
v 50.049999237060547 3 -26.823776245117188
v 50.049999237060547 0 -29.351573944091797
v 50.049999237060547 3 -29.351573944091797
v 50.049999237060547 0 -28.087675094604492
v 50.049999237060547 1.5 -26.823776245117188
v 50.049999237060547 1.5 -29.351573944091797
v 50.049999237060547 3 -28.087675094604492
f 587 583 588 584 590 586 589 585
f 596 591 595 593 597 594 598 592
f 595 591 583 587 585 593
f 588 583 591 596 592 584
f 597 593 585 589 586 594
f 590 584 592 598 594 586
g corridor_14
v 35.400001525878906 0 -26.823776245117188
v 35.400001525878906 3 -26.823776245117188
v 35.400001525878906 0 -29.351573944091797
v 35.400001525878906 3 -29.351573944091797
v 35.400001525878906 0 -28.087675094604492
v 35.400001525878906 1.5 -26.823776245117188
v 35.400001525878906 1.5 -29.351573944091797
v 35.400001525878906 3 -28.087675094604492
v 36.450000762939453 0 -26.823776245117188
v 36.450000762939453 3 -26.823776245117188
v 36.450000762939453 0 -29.351573944091797
v 36.450000762939453 3 -29.351573944091797
v 36.450000762939453 0 -28.087675094604492
v 36.450000762939453 1.5 -26.823776245117188
v 36.450000762939453 1.5 -29.351573944091797
v 36.450000762939453 3 -28.087675094604492
f 603 599 604 600 606 602 605 601
f 612 607 611 609 613 610 614 608
f 611 607 599 603 601 609
f 604 599 607 612 608 600
f 613 609 601 605 602 610
f 606 600 608 614 610 602
g corridor_15
v 21.799999237060547 0 -26.823776245117188
v 21.799999237060547 3 -26.823776245117188
v 21.799999237060547 0 -29.351573944091797
v 21.799999237060547 3 -29.351573944091797
v 21.799999237060547 0 -28.087675094604492
v 21.799999237060547 1.5 -26.823776245117188
v 21.799999237060547 1.5 -29.351573944091797
v 21.799999237060547 3 -28.087675094604492
v 22.850000381469727 0 -26.823776245117188
v 22.850000381469727 3 -26.823776245117188
v 22.850000381469727 0 -29.351573944091797
v 22.850000381469727 3 -29.351573944091797
v 22.850000381469727 0 -28.087675094604492
v 22.850000381469727 1.5 -26.823776245117188
v 22.850000381469727 1.5 -29.351573944091797
v 22.850000381469727 3 -28.087675094604492
f 619 615 620 616 622 618 621 617
f 628 623 627 625 629 626 630 624
f 627 623 615 619 617 625
f 620 615 623 628 624 616
f 629 625 617 621 618 626
f 622 616 624 630 626 618
g corridor_16
v 26.049999237060547 0 -26.823776245117188
v 26.049999237060547 3 -26.823776245117188
v 26.049999237060547 0 -29.351573944091797
v 26.049999237060547 3 -29.351573944091797
v 26.049999237060547 0 -28.087675094604492
v 26.049999237060547 1.5 -26.823776245117188
v 26.049999237060547 1.5 -29.351573944091797
v 26.049999237060547 3 -28.087675094604492
v 25 0 -26.823776245117188
v 25 3 -26.823776245117188
v 25 0 -29.351573944091797
v 25 3 -29.351573944091797
v 25 0 -28.087675094604492
v 25 1.5 -26.823776245117188
v 25 1.5 -29.351573944091797
v 25 3 -28.087675094604492
f 636 631 635 633 637 634 638 632
f 643 639 644 640 646 642 645 641
f 635 631 639 643 641 633
f 644 639 631 636 632 640
f 637 633 641 645 642 634
f 646 640 632 638 634 642
g corridor_17
v 39.650001525878906 0 -26.823776245117188
v 39.650001525878906 3 -26.823776245117188
v 39.650001525878906 0 -29.351573944091797
v 39.650001525878906 3 -29.351573944091797
v 39.650001525878906 0 -28.087675094604492
v 39.650001525878906 1.5 -26.823776245117188
v 39.650001525878906 1.5 -29.351573944091797
v 39.650001525878906 3 -28.087675094604492
v 38.599998474121094 0 -26.823776245117188
v 38.599998474121094 3 -26.823776245117188
v 38.599998474121094 0 -29.351573944091797
v 38.599998474121094 3 -29.351573944091797
v 38.599998474121094 0 -28.087675094604492
v 38.599998474121094 1.5 -26.823776245117188
v 38.599998474121094 1.5 -29.351573944091797
v 38.599998474121094 3 -28.087675094604492
f 652 647 651 649 653 650 654 648
f 659 655 660 656 662 658 661 657
f 651 647 655 659 657 649
f 660 655 647 652 648 656
f 653 649 657 661 658 650
f 662 656 648 654 650 658
g corridor_18
v 53.25 0 -26.823776245117188
v 53.25 3 -26.823776245117188
v 53.25 0 -29.351573944091797
v 53.25 3 -29.351573944091797
v 53.25 0 -28.087675094604492
v 53.25 1.5 -26.823776245117188
v 53.25 1.5 -29.351573944091797
v 53.25 3 -28.087675094604492
v 52.200000762939453 0 -26.823776245117188
v 52.200000762939453 3 -26.823776245117188
v 52.200000762939453 0 -29.351573944091797
v 52.200000762939453 3 -29.351573944091797
v 52.200000762939453 0 -28.087675094604492
v 52.200000762939453 1.5 -26.823776245117188
v 52.200000762939453 1.5 -29.351573944091797
v 52.200000762939453 3 -28.087675094604492
f 668 663 667 665 669 666 670 664
f 675 671 676 672 678 674 677 673
f 667 663 671 675 673 665
f 676 671 663 668 664 672
f 669 665 673 677 674 666
f 678 672 664 670 666 674
g corridor_19
v 66.849998474121094 0 -26.823776245117188
v 66.849998474121094 3 -26.823776245117188
v 66.849998474121094 0 -29.351573944091797
v 66.849998474121094 3 -29.351573944091797
v 66.849998474121094 0 -28.087675094604492
v 66.849998474121094 1.5 -26.823776245117188
v 66.849998474121094 1.5 -29.351573944091797
v 66.849998474121094 3 -28.087675094604492
v 65.800003051757812 0 -26.823776245117188
v 65.800003051757812 3 -26.823776245117188
v 65.800003051757812 0 -29.351573944091797
v 65.800003051757812 3 -29.351573944091797
v 65.800003051757812 0 -28.087675094604492
v 65.800003051757812 1.5 -26.823776245117188
v 65.800003051757812 1.5 -29.351573944091797
v 65.800003051757812 3 -28.087675094604492
f 684 679 683 681 685 682 686 680
f 691 687 692 688 694 690 693 689
f 683 679 687 691 689 681
f 692 687 679 684 680 688
f 685 681 689 693 690 682
f 694 688 680 686 682 690
g kitchen_1
v 62.599998474121094 0 -29.351573944091797
v 62.599998474121094 0 -31.351573944091797
v 64.724998474121094 0 -29.351573944091797
v 64.724998474121094 0 -31.351573944091797
v 63.662498474121094 0 -29.351573944091797
v 64.724998474121094 0 -30.351573944091797
v 63.662498474121094 0 -31.351573944091797
v 62.599998474121094 0 -30.351573944091797
v 64.724998474121094 3 -29.351573944091797
v 62.599998474121094 3 -29.351573944091797
v 62.599998474121094 1.5 -29.351573944091797
v 63.662498474121094 3 -29.351573944091797
v 64.724998474121094 1.5 -29.351573944091797
v 64.724998474121094 3 -31.351573944091797
v 64.724998474121094 3 -30.351573944091797
v 64.724998474121094 1.5 -31.351573944091797
v 62.599998474121094 3 -31.351573944091797
v 63.662498474121094 3 -31.351573944091797
v 62.599998474121094 1.5 -31.351573944091797
v 62.599998474121094 3 -30.351573944091797
f 699 695 702 696 701 698 700 697
f 699 697 707 703 706 704 705 695
f 700 698 710 708 709 703 707 697
f 701 696 713 711 712 708 710 698
f 702 695 705 704 714 711 713 696
f 714 704 706 703 709 708 712 711
g kitchen_2
v 49 0 -29.351573944091797
v 49 0 -31.351573944091797
v 51.125 0 -29.351573944091797
v 51.125 0 -31.351573944091797
v 50.0625 0 -29.351573944091797
v 51.125 0 -30.351573944091797
v 50.0625 0 -31.351573944091797
v 49 0 -30.351573944091797
v 51.125 3 -29.351573944091797
v 49 3 -29.351573944091797
v 49 1.5 -29.351573944091797
v 50.0625 3 -29.351573944091797
v 51.125 1.5 -29.351573944091797
v 51.125 3 -31.351573944091797
v 51.125 3 -30.351573944091797
v 51.125 1.5 -31.351573944091797
v 49 3 -31.351573944091797
v 50.0625 3 -31.351573944091797
v 49 1.5 -31.351573944091797
v 49 3 -30.351573944091797
f 719 715 722 716 721 718 720 717
f 719 717 727 723 726 724 725 715
f 720 718 730 728 729 723 727 717
f 721 716 733 731 732 728 730 718
f 722 715 725 724 734 731 733 716
f 734 724 726 723 729 728 732 731
g kitchen_3
v 35.400001525878906 0 -29.351573944091797
v 35.400001525878906 0 -31.351573944091797
v 37.525001525878906 0 -29.351573944091797
v 37.525001525878906 0 -31.351573944091797
v 36.462501525878906 0 -29.351573944091797
v 37.525001525878906 0 -30.351573944091797
v 36.462501525878906 0 -31.351573944091797
v 35.400001525878906 0 -30.351573944091797
v 37.525001525878906 3 -29.351573944091797
v 35.400001525878906 3 -29.351573944091797
v 35.400001525878906 1.5 -29.351573944091797
v 36.462501525878906 3 -29.351573944091797
v 37.525001525878906 1.5 -29.351573944091797
v 37.525001525878906 3 -31.351573944091797
v 37.525001525878906 3 -30.351573944091797
v 37.525001525878906 1.5 -31.351573944091797
v 35.400001525878906 3 -31.351573944091797
v 36.462501525878906 3 -31.351573944091797
v 35.400001525878906 1.5 -31.351573944091797
v 35.400001525878906 3 -30.351573944091797
f 739 735 742 736 741 738 740 737
f 739 737 747 743 746 744 745 735
f 740 738 750 748 749 743 747 737
f 741 736 753 751 752 748 750 738
f 742 735 745 744 754 751 753 736
f 754 744 746 743 749 748 752 751
g kitchen_4
v 21.799999237060547 0 -29.351573944091797
v 21.799999237060547 0 -31.351573944091797
v 23.924999237060547 0 -29.351573944091797
v 23.924999237060547 0 -31.351573944091797
v 22.862499237060547 0 -29.351573944091797
v 23.924999237060547 0 -30.351573944091797
v 22.862499237060547 0 -31.351573944091797
v 21.799999237060547 0 -30.351573944091797
v 23.924999237060547 3 -29.351573944091797
v 21.799999237060547 3 -29.351573944091797
v 21.799999237060547 1.5 -29.351573944091797
v 22.862499237060547 3 -29.351573944091797
v 23.924999237060547 1.5 -29.351573944091797
v 23.924999237060547 3 -31.351573944091797
v 23.924999237060547 3 -30.351573944091797
v 23.924999237060547 1.5 -31.351573944091797
v 21.799999237060547 3 -31.351573944091797
v 22.862499237060547 3 -31.351573944091797
v 21.799999237060547 1.5 -31.351573944091797
v 21.799999237060547 3 -30.351573944091797
f 759 755 762 756 761 758 760 757
f 759 757 767 763 766 764 765 755
f 760 758 770 768 769 763 767 757
f 761 756 773 771 772 768 770 758
f 762 755 765 764 774 771 773 756
f 774 764 766 763 769 768 772 771
g kitchen_5
v 26.049999237060547 0 -29.351573944091797
v 26.049999237060547 0 -31.351573944091797
v 23.924999237060547 0 -29.351573944091797
v 23.924999237060547 0 -31.351573944091797
v 24.987499237060547 0 -29.351573944091797
v 23.924999237060547 0 -30.351573944091797
v 24.987499237060547 0 -31.351573944091797
v 26.049999237060547 0 -30.351573944091797
v 23.924999237060547 3 -29.351573944091797
v 26.049999237060547 3 -29.351573944091797
v 26.049999237060547 1.5 -29.351573944091797
v 24.987499237060547 3 -29.351573944091797
v 23.924999237060547 1.5 -29.351573944091797
v 23.924999237060547 3 -31.351573944091797
v 23.924999237060547 3 -30.351573944091797
v 23.924999237060547 1.5 -31.351573944091797
v 26.049999237060547 3 -31.351573944091797
v 24.987499237060547 3 -31.351573944091797
v 26.049999237060547 1.5 -31.351573944091797
v 26.049999237060547 3 -30.351573944091797
f 782 775 779 777 780 778 781 776
f 787 777 779 775 785 784 786 783
f 790 778 780 777 787 783 789 788
f 793 776 781 778 790 788 792 791
f 785 775 782 776 793 791 794 784
f 786 784 794 791 792 788 789 783
g kitchen_6
v 39.650001525878906 0 -29.351573944091797
v 39.650001525878906 0 -31.351573944091797
v 37.525001525878906 0 -29.351573944091797
v 37.525001525878906 0 -31.351573944091797
v 38.587501525878906 0 -29.351573944091797
v 37.525001525878906 0 -30.351573944091797
v 38.587501525878906 0 -31.351573944091797
v 39.650001525878906 0 -30.351573944091797
v 37.525001525878906 3 -29.351573944091797
v 39.650001525878906 3 -29.351573944091797
v 39.650001525878906 1.5 -29.351573944091797
v 38.587501525878906 3 -29.351573944091797
v 37.525001525878906 1.5 -29.351573944091797
v 37.525001525878906 3 -31.351573944091797
v 37.525001525878906 3 -30.351573944091797
v 37.525001525878906 1.5 -31.351573944091797
v 39.650001525878906 3 -31.351573944091797
v 38.587501525878906 3 -31.351573944091797
v 39.650001525878906 1.5 -31.351573944091797
v 39.650001525878906 3 -30.351573944091797
f 802 795 799 797 800 798 801 796
f 807 797 799 795 805 804 806 803
f 810 798 800 797 807 803 809 808
f 813 796 801 798 810 808 812 811
f 805 795 802 796 813 811 814 804
f 806 804 814 811 812 808 809 803
g kitchen_7
v 53.25 0 -29.351573944091797
v 53.25 0 -31.351573944091797
v 51.125 0 -29.351573944091797
v 51.125 0 -31.351573944091797
v 52.1875 0 -29.351573944091797
v 51.125 0 -30.351573944091797
v 52.1875 0 -31.351573944091797
v 53.25 0 -30.351573944091797
v 51.125 3 -29.351573944091797
v 53.25 3 -29.351573944091797
v 53.25 1.5 -29.351573944091797
v 52.1875 3 -29.351573944091797
v 51.125 1.5 -29.351573944091797
v 51.125 3 -31.351573944091797
v 51.125 3 -30.351573944091797
v 51.125 1.5 -31.351573944091797
v 53.25 3 -31.351573944091797
v 52.1875 3 -31.351573944091797
v 53.25 1.5 -31.351573944091797
v 53.25 3 -30.351573944091797
f 822 815 819 817 820 818 821 816
f 827 817 819 815 825 824 826 823
f 830 818 820 817 827 823 829 828
f 833 816 821 818 830 828 832 831
f 825 815 822 816 833 831 834 824
f 826 824 834 831 832 828 829 823
g kitchen_8
v 66.849998474121094 0 -29.351573944091797
v 66.849998474121094 0 -31.351573944091797
v 64.724998474121094 0 -29.351573944091797
v 64.724998474121094 0 -31.351573944091797
v 65.787498474121094 0 -29.351573944091797
v 64.724998474121094 0 -30.351573944091797
v 65.787498474121094 0 -31.351573944091797
v 66.849998474121094 0 -30.351573944091797
v 64.724998474121094 3 -29.351573944091797
v 66.849998474121094 3 -29.351573944091797
v 66.849998474121094 1.5 -29.351573944091797
v 65.787498474121094 3 -29.351573944091797
v 64.724998474121094 1.5 -29.351573944091797
v 64.724998474121094 3 -31.351573944091797
v 64.724998474121094 3 -30.351573944091797
v 64.724998474121094 1.5 -31.351573944091797
v 66.849998474121094 3 -31.351573944091797
v 65.787498474121094 3 -31.351573944091797
v 66.849998474121094 1.5 -31.351573944091797
v 66.849998474121094 3 -30.351573944091797
f 842 835 839 837 840 838 841 836
f 847 837 839 835 845 844 846 843
f 850 838 840 837 847 843 849 848
f 853 836 841 838 850 848 852 851
f 845 835 842 836 853 851 854 844
f 846 844 854 851 852 848 849 843
g livingroom_1
v 75.025001525878906 3 -22.145977020263672
v 75.025001525878906 6 -22.145977020263672
v 81.949996948242188 3 -22.145977020263672
v 81.949996948242188 6 -22.145977020263672
v 78.487503051757812 3 -22.145977020263672
v 78.487503051757812 6 -22.145977020263672
v 81.949996948242188 3 -31.351573944091797
v 81.949996948242188 6 -31.351573944091797
v 81.949996948242188 3 -26.748775482177734
v 81.949996948242188 6 -26.748775482177734
v 75.025001525878906 6 -24.48487663269043
v 75.025001525878906 6 -26.823776245117188
v 77.099998474121094 6 -26.823776245117188
v 77.099998474121094 6 -29.087675094604492
v 77.099998474121094 6 -31.351573944091797
v 79.525001525878906 6 -31.351573944091797
v 77.099998474121094 3 -26.823776245117188
v 75.025001525878906 3 -26.823776245117188
v 77.099998474121094 4.5 -26.823776245117188
v 75.025001525878906 4.5 -26.823776245117188
v 77.099998474121094 3 -31.351573944091797
v 77.099998474121094 3 -29.087675094604492
v 75.025001525878906 3 -24.48487663269043
v 79.525001525878906 3 -31.351573944091797
f 856 855 859 857 858 860
f 858 857 863 861 862 864
f 870 869 868 867 866 865 856 860 858 864 862
f 873 871 872 874 866 867
f 869 875 876 871 873 867 868
f 876 875 878 861 863 857 859 855 877 872 871
f 874 872 877 855 856 865 866
f 861 878 875 869 870 862
g livingroom_2
v 6.6500000953674316 3 -22.145977020263672
v 6.6500000953674316 3 -31.351573944091797
v 13.625 3 -22.145977020263672
v 13.625 3 -31.351573944091797
v 10.137499809265137 3 -22.145977020263672
v 13.625 3 -26.748775482177734
v 10.137499809265137 3 -31.351573944091797
v 6.6500000953674316 3 -26.748775482177734
v 13.625 6 -22.145977020263672
v 6.6500000953674316 6 -22.145977020263672
v 10.137499809265137 6 -22.145977020263672
v 13.625 6 -31.351573944091797
v 13.625 6 -26.748775482177734
v 6.6500000953674316 6 -31.351573944091797
v 10.137499809265137 6 -31.351573944091797
v 6.6500000953674316 6 -26.748775482177734
f 883 879 886 880 885 882 884 881
f 887 889 888 879 883 881
f 890 891 887 881 884 882
f 892 893 890 882 885 880
f 888 894 892 880 886 879
f 894 888 889 887 891 890 893 892
g livingroom_3
v 21.100000381469727 3 -27.601573944091797
v 21.100000381469727 6 -27.601573944091797
v 17.125 3 -27.601573944091797
v 17.125 6 -27.601573944091797
v 19.112499237060547 3 -27.601573944091797
v 17.125 4.5 -27.601573944091797
v 19.112499237060547 6 -27.601573944091797
v 21.100000381469727 4.5 -27.601573944091797
v 21.100000381469727 3 -31.351573944091797
v 21.100000381469727 6 -31.351573944091797
v 21.100000381469727 3 -29.476573944091797
v 21.100000381469727 6 -29.476573944091797
v 21.100000381469727 4.5 -31.351573944091797
v 17.125 6 -31.351573944091797
v 19.112499237060547 6 -31.351573944091797
v 17.125 6 -29.476573944091797
v 17.125 0 -26.823776245117188
v 17.125 0 -31.351573944091797
v 21.799999237060547 0 -26.823776245117188
v 21.799999237060547 0 -31.351573944091797
v 19.462499618530273 0 -26.823776245117188
v 21.799999237060547 0 -29.087675094604492
v 19.462499618530273 0 -31.351573944091797
v 17.125 0 -29.087675094604492
v 21.799999237060547 3 -26.823776245117188
v 17.125 3 -26.823776245117188
v 19.462499618530273 3 -26.823776245117188
v 21.799999237060547 3 -31.351573944091797
v 21.799999237060547 3 -29.087675094604492
v 17.125 3 -31.351573944091797
v 19.462499618530273 3 -31.351573944091797
v 19.462499618530273 4.5 -31.351573944091797
v 20.631250381469727 3 -31.351573944091797
v 20.631250381469727 4.5 -31.351573944091797
v 17.125 3 -29.087675094604492
v 17.125 4.5 -29.087675094604492
v 17.125 3 -27.955726623535156
v 17.125 4.5 -27.955726623535156
v 17.125 1.5 -29.087675094604492
v 17.125 1.5 -27.955726623535156
f 899 895 902 896 901 898 900 897
f 905 903 907 904 906 896 902 895
f 910 898 901 896 906 904 909 908
f 915 911 918 912 917 914 916 913
f 919 921 920 911 915 913
f 922 923 919 913 916 914
f 920 921 919 923 922 903 905 895 899 897
f 907 903 922 914 917 912 924 908 909 904
f 897 900 898 910 908 924 912 918 911 920
g livingroom_4
v 26.75 3 -27.601573944091797
v 26.75 6 -27.601573944091797
v 30.725000381469727 3 -27.601573944091797
v 30.725000381469727 6 -27.601573944091797
v 28.737499237060547 3 -27.601573944091797
v 30.725000381469727 4.5 -27.601573944091797
v 28.737499237060547 6 -27.601573944091797
v 26.75 4.5 -27.601573944091797
v 26.75 3 -31.351573944091797
v 26.75 6 -31.351573944091797
v 26.75 3 -29.476573944091797
v 26.75 6 -29.476573944091797
v 26.75 4.5 -31.351573944091797
v 30.725000381469727 6 -31.351573944091797
v 28.737499237060547 6 -31.351573944091797
v 30.725000381469727 6 -29.476573944091797
v 30.725000381469727 0 -26.823776245117188
v 30.725000381469727 0 -31.351573944091797
v 26.049999237060547 0 -26.823776245117188
v 26.049999237060547 0 -31.351573944091797
v 28.387500762939453 0 -26.823776245117188
v 26.049999237060547 0 -29.087675094604492
v 28.387500762939453 0 -31.351573944091797
v 30.725000381469727 0 -29.087675094604492
v 26.049999237060547 3 -26.823776245117188
v 30.725000381469727 3 -26.823776245117188
v 28.387500762939453 3 -26.823776245117188
v 26.049999237060547 3 -31.351573944091797
v 26.049999237060547 3 -29.087675094604492
v 30.725000381469727 3 -31.351573944091797
v 28.387500762939453 3 -31.351573944091797
v 28.387500762939453 4.5 -31.351573944091797
v 27.21875 3 -31.351573944091797
v 27.21875 4.5 -31.351573944091797
v 30.725000381469727 3 -29.087675094604492
v 30.725000381469727 4.5 -29.087675094604492
v 30.725000381469727 3 -27.955726623535156
v 30.725000381469727 4.5 -27.955726623535156
v 30.725000381469727 1.5 -29.087675094604492
v 30.725000381469727 1.5 -27.955726623535156
f 942 935 939 937 940 938 941 936
f 947 943 945 935 942 936 946 944
f 941 938 950 948 949 944 946 936
f 958 951 955 953 956 954 957 952
f 961 959 953 955 951 960
f 962 954 956 953 959 963
f 961 960 937 939 935 945 943 962 963 959
f 944 949 948 964 952 957 954 962 943 947
f 950 938 940 937 960 951 958 952 964 948
g livingroom_5
v 34.700000762939453 3 -27.601573944091797
v 34.700000762939453 6 -27.601573944091797
v 30.725000381469727 3 -27.601573944091797
v 30.725000381469727 6 -27.601573944091797
v 32.712501525878906 3 -27.601573944091797
v 30.725000381469727 4.5 -27.601573944091797
v 32.712501525878906 6 -27.601573944091797
v 34.700000762939453 4.5 -27.601573944091797
v 34.700000762939453 3 -31.351573944091797
v 34.700000762939453 6 -31.351573944091797
v 34.700000762939453 3 -29.476573944091797
v 34.700000762939453 6 -29.476573944091797
v 34.700000762939453 4.5 -31.351573944091797
v 30.725000381469727 6 -31.351573944091797
v 32.712501525878906 6 -31.351573944091797
v 30.725000381469727 6 -29.476573944091797
v 30.725000381469727 0 -26.823776245117188
v 30.725000381469727 0 -31.351573944091797
v 35.400001525878906 0 -26.823776245117188
v 35.400001525878906 0 -31.351573944091797
v 33.0625 0 -26.823776245117188
v 35.400001525878906 0 -29.087675094604492
v 33.0625 0 -31.351573944091797
v 30.725000381469727 0 -29.087675094604492
v 35.400001525878906 3 -26.823776245117188
v 30.725000381469727 3 -26.823776245117188
v 33.0625 3 -26.823776245117188
v 35.400001525878906 3 -31.351573944091797
v 35.400001525878906 3 -29.087675094604492
v 30.725000381469727 3 -31.351573944091797
v 33.0625 3 -31.351573944091797
v 33.0625 4.5 -31.351573944091797
v 34.231250762939453 3 -31.351573944091797
v 34.231250762939453 4.5 -31.351573944091797
v 30.725000381469727 3 -29.087675094604492
v 30.725000381469727 4.5 -29.087675094604492
v 30.725000381469727 3 -27.955726623535156
v 30.725000381469727 4.5 -27.955726623535156
v 30.725000381469727 1.5 -29.087675094604492
v 30.725000381469727 1.5 -27.955726623535156
f 979 975 982 976 981 978 980 977
f 985 983 987 984 986 976 982 975
f 990 978 981 976 986 984 989 988
f 995 991 998 992 997 994 996 993
f 999 1001 1000 991 995 993
f 1002 1003 999 993 996 994
f 1000 1001 999 1003 1002 983 985 975 979 977
f 987 983 1002 994 997 992 1004 988 989 984
f 977 980 978 990 988 1004 992 998 991 1000
g livingroom_6
v 40.349998474121094 3 -27.601573944091797
v 40.349998474121094 6 -27.601573944091797
v 44.325000762939453 3 -27.601573944091797
v 44.325000762939453 6 -27.601573944091797
v 42.337501525878906 3 -27.601573944091797
v 44.325000762939453 4.5 -27.601573944091797
v 42.337501525878906 6 -27.601573944091797
v 40.349998474121094 4.5 -27.601573944091797
v 40.349998474121094 3 -31.351573944091797
v 40.349998474121094 6 -31.351573944091797
v 40.349998474121094 3 -29.476573944091797
v 40.349998474121094 6 -29.476573944091797
v 40.349998474121094 4.5 -31.351573944091797
v 44.325000762939453 6 -31.351573944091797
v 42.337501525878906 6 -31.351573944091797
v 44.325000762939453 6 -29.476573944091797
v 44.325000762939453 0 -26.823776245117188
v 44.325000762939453 0 -31.351573944091797
v 39.650001525878906 0 -26.823776245117188
v 39.650001525878906 0 -31.351573944091797
v 41.987499237060547 0 -26.823776245117188
v 39.650001525878906 0 -29.087675094604492
v 41.987499237060547 0 -31.351573944091797
v 44.325000762939453 0 -29.087675094604492
v 39.650001525878906 3 -26.823776245117188
v 44.325000762939453 3 -26.823776245117188
v 41.987499237060547 3 -26.823776245117188
v 39.650001525878906 3 -31.351573944091797
v 39.650001525878906 3 -29.087675094604492
v 44.325000762939453 3 -31.351573944091797
v 41.987499237060547 3 -31.351573944091797
v 41.987499237060547 4.5 -31.351573944091797
v 40.818748474121094 3 -31.351573944091797
v 40.818748474121094 4.5 -31.351573944091797
v 44.325000762939453 3 -29.087675094604492
v 44.325000762939453 4.5 -29.087675094604492
v 44.325000762939453 3 -27.955726623535156
v 44.325000762939453 4.5 -27.955726623535156
v 44.325000762939453 1.5 -29.087675094604492
v 44.325000762939453 1.5 -27.955726623535156
f 1022 1015 1019 1017 1020 1018 1021 1016
f 1027 1023 1025 1015 1022 1016 1026 1024
f 1021 1018 1030 1028 1029 1024 1026 1016
f 1038 1031 1035 1033 1036 1034 1037 1032
f 1041 1039 1033 1035 1031 1040
f 1042 1034 1036 1033 1039 1043
f 1041 1040 1017 1019 1015 1025 1023 1042 1043 1039
f 1024 1029 1028 1044 1032 1037 1034 1042 1023 1027
f 1030 1018 1020 1017 1040 1031 1038 1032 1044 1028
g livingroom_7
v 48.299999237060547 3 -27.601573944091797
v 48.299999237060547 6 -27.601573944091797
v 44.325000762939453 3 -27.601573944091797
v 44.325000762939453 6 -27.601573944091797
v 46.3125 3 -27.601573944091797
v 44.325000762939453 4.5 -27.601573944091797
v 46.3125 6 -27.601573944091797
v 48.299999237060547 4.5 -27.601573944091797
v 48.299999237060547 3 -31.351573944091797
v 48.299999237060547 6 -31.351573944091797
v 48.299999237060547 3 -29.476573944091797
v 48.299999237060547 6 -29.476573944091797
v 48.299999237060547 4.5 -31.351573944091797
v 44.325000762939453 6 -31.351573944091797
v 46.3125 6 -31.351573944091797
v 44.325000762939453 6 -29.476573944091797
v 44.325000762939453 0 -26.823776245117188
v 44.325000762939453 0 -31.351573944091797
v 49 0 -26.823776245117188
v 49 0 -31.351573944091797
v 46.662498474121094 0 -26.823776245117188
v 49 0 -29.087675094604492
v 46.662498474121094 0 -31.351573944091797
v 44.325000762939453 0 -29.087675094604492
v 49 3 -26.823776245117188
v 44.325000762939453 3 -26.823776245117188
v 46.662498474121094 3 -26.823776245117188
v 49 3 -31.351573944091797
v 49 3 -29.087675094604492
v 44.325000762939453 3 -31.351573944091797
v 46.662498474121094 3 -31.351573944091797
v 46.662498474121094 4.5 -31.351573944091797
v 47.831249237060547 3 -31.351573944091797
v 47.831249237060547 4.5 -31.351573944091797
v 44.325000762939453 3 -29.087675094604492
v 44.325000762939453 4.5 -29.087675094604492
v 44.325000762939453 3 -27.955726623535156
v 44.325000762939453 4.5 -27.955726623535156
v 44.325000762939453 1.5 -29.087675094604492
v 44.325000762939453 1.5 -27.955726623535156
f 1059 1055 1062 1056 1061 1058 1060 1057
f 1065 1063 1067 1064 1066 1056 1062 1055
f 1070 1058 1061 1056 1066 1064 1069 1068
f 1075 1071 1078 1072 1077 1074 1076 1073
f 1075 1073 1079 1081 1080 1071
f 1082 1083 1079 1073 1076 1074
f 1080 1081 1079 1083 1082 1063 1065 1055 1059 1057
f 1067 1063 1082 1074 1077 1072 1084 1068 1069 1064
f 1057 1060 1058 1070 1068 1084 1072 1078 1071 1080
g livingroom_8
v 53.950000762939453 3 -27.601573944091797
v 53.950000762939453 6 -27.601573944091797
v 57.924999237060547 3 -27.601573944091797
v 57.924999237060547 6 -27.601573944091797
v 55.9375 3 -27.601573944091797
v 57.924999237060547 4.5 -27.601573944091797
v 55.9375 6 -27.601573944091797
v 53.950000762939453 4.5 -27.601573944091797
v 53.950000762939453 3 -31.351573944091797
v 53.950000762939453 6 -31.351573944091797
v 53.950000762939453 3 -29.476573944091797
v 53.950000762939453 6 -29.476573944091797
v 53.950000762939453 4.5 -31.351573944091797
v 57.924999237060547 6 -31.351573944091797
v 55.9375 6 -31.351573944091797
v 57.924999237060547 6 -29.476573944091797
v 57.924999237060547 0 -26.823776245117188
v 57.924999237060547 0 -31.351573944091797
v 53.25 0 -26.823776245117188
v 53.25 0 -31.351573944091797
v 55.587501525878906 0 -26.823776245117188
v 53.25 0 -29.087675094604492
v 55.587501525878906 0 -31.351573944091797
v 57.924999237060547 0 -29.087675094604492
v 53.25 3 -26.823776245117188
v 57.924999237060547 3 -26.823776245117188
v 55.587501525878906 3 -26.823776245117188
v 53.25 3 -31.351573944091797
v 53.25 3 -29.087675094604492
v 57.924999237060547 3 -31.351573944091797
v 55.587501525878906 3 -31.351573944091797
v 55.587501525878906 4.5 -31.351573944091797
v 54.418750762939453 3 -31.351573944091797
v 54.418750762939453 4.5 -31.351573944091797
v 57.924999237060547 3 -29.087675094604492
v 57.924999237060547 4.5 -29.087675094604492
v 57.924999237060547 3 -27.955726623535156
v 57.924999237060547 4.5 -27.955726623535156
v 57.924999237060547 1.5 -29.087675094604492
v 57.924999237060547 1.5 -27.955726623535156
f 1102 1095 1099 1097 1100 1098 1101 1096
f 1107 1103 1105 1095 1102 1096 1106 1104
f 1101 1098 1110 1108 1109 1104 1106 1096
f 1118 1111 1115 1113 1116 1114 1117 1112
f 1121 1119 1113 1115 1111 1120
f 1122 1114 1116 1113 1119 1123
f 1121 1120 1097 1099 1095 1105 1103 1122 1123 1119
f 1104 1109 1108 1124 1112 1117 1114 1122 1103 1107
f 1110 1098 1100 1097 1120 1111 1118 1112 1124 1108
g livingroom_9
v 61.900001525878906 3 -27.601573944091797
v 61.900001525878906 6 -27.601573944091797
v 57.924999237060547 3 -27.601573944091797
v 57.924999237060547 6 -27.601573944091797
v 59.912498474121094 3 -27.601573944091797
v 57.924999237060547 4.5 -27.601573944091797
v 59.912498474121094 6 -27.601573944091797
v 61.900001525878906 4.5 -27.601573944091797
v 61.900001525878906 3 -31.351573944091797
v 61.900001525878906 6 -31.351573944091797
v 61.900001525878906 3 -29.476573944091797
v 61.900001525878906 6 -29.476573944091797
v 61.900001525878906 4.5 -31.351573944091797
v 57.924999237060547 6 -31.351573944091797
v 59.912498474121094 6 -31.351573944091797
v 57.924999237060547 6 -29.476573944091797
v 57.924999237060547 0 -26.823776245117188
v 57.924999237060547 0 -31.351573944091797
v 62.599998474121094 0 -26.823776245117188
v 62.599998474121094 0 -31.351573944091797
v 60.262500762939453 0 -26.823776245117188
v 62.599998474121094 0 -29.087675094604492
v 60.262500762939453 0 -31.351573944091797
v 57.924999237060547 0 -29.087675094604492
v 62.599998474121094 3 -26.823776245117188
v 57.924999237060547 3 -26.823776245117188
v 60.262500762939453 3 -26.823776245117188
v 62.599998474121094 3 -31.351573944091797
v 62.599998474121094 3 -29.087675094604492
v 57.924999237060547 3 -31.351573944091797
v 60.262500762939453 3 -31.351573944091797
v 60.262500762939453 4.5 -31.351573944091797
v 61.431251525878906 3 -31.351573944091797
v 61.431251525878906 4.5 -31.351573944091797
v 57.924999237060547 3 -29.087675094604492
v 57.924999237060547 4.5 -29.087675094604492
v 57.924999237060547 3 -27.955726623535156
v 57.924999237060547 4.5 -27.955726623535156
v 57.924999237060547 1.5 -29.087675094604492
v 57.924999237060547 1.5 -27.955726623535156
f 1139 1135 1142 1136 1141 1138 1140 1137
f 1145 1143 1147 1144 1146 1136 1142 1135
f 1150 1138 1141 1136 1146 1144 1149 1148
f 1155 1151 1158 1152 1157 1154 1156 1153
f 1155 1153 1159 1161 1160 1151
f 1162 1163 1159 1153 1156 1154
f 1160 1161 1159 1163 1162 1143 1145 1135 1139 1137
f 1147 1143 1162 1154 1157 1152 1164 1148 1149 1144
f 1137 1140 1138 1150 1148 1164 1152 1158 1151 1160
g livingroom_10
v 67.550003051757812 3 -27.601573944091797
v 67.550003051757812 6 -27.601573944091797
v 71.525001525878906 3 -27.601573944091797
v 71.525001525878906 6 -27.601573944091797
v 69.537498474121094 3 -27.601573944091797
v 71.525001525878906 4.5 -27.601573944091797
v 69.537498474121094 6 -27.601573944091797
v 67.550003051757812 4.5 -27.601573944091797
v 67.550003051757812 3 -31.351573944091797
v 67.550003051757812 6 -31.351573944091797
v 67.550003051757812 3 -29.476573944091797
v 67.550003051757812 6 -29.476573944091797
v 67.550003051757812 4.5 -31.351573944091797
v 71.525001525878906 6 -31.351573944091797
v 69.537498474121094 6 -31.351573944091797
v 71.525001525878906 6 -29.476573944091797
v 71.525001525878906 0 -26.823776245117188
v 71.525001525878906 0 -31.351573944091797
v 66.849998474121094 0 -26.823776245117188
v 66.849998474121094 0 -31.351573944091797
v 69.1875 0 -26.823776245117188
v 66.849998474121094 0 -29.087675094604492
v 69.1875 0 -31.351573944091797
v 71.525001525878906 0 -29.087675094604492
v 66.849998474121094 3 -26.823776245117188
v 71.525001525878906 3 -26.823776245117188
v 69.1875 3 -26.823776245117188
v 66.849998474121094 3 -31.351573944091797
v 66.849998474121094 3 -29.087675094604492
v 71.525001525878906 3 -31.351573944091797
v 69.1875 3 -31.351573944091797
v 69.1875 4.5 -31.351573944091797
v 68.018753051757812 3 -31.351573944091797
v 68.018753051757812 4.5 -31.351573944091797
v 71.525001525878906 3 -29.087675094604492
v 71.525001525878906 4.5 -29.087675094604492
v 71.525001525878906 3 -27.955726623535156
v 71.525001525878906 4.5 -27.955726623535156
v 71.525001525878906 1.5 -29.087675094604492
v 71.525001525878906 1.5 -27.955726623535156
f 1181 1176 1182 1175 1179 1177 1180 1178
f 1187 1183 1185 1175 1182 1176 1186 1184
f 1181 1178 1190 1188 1189 1184 1186 1176
f 1198 1191 1195 1193 1196 1194 1197 1192
f 1199 1193 1195 1191 1200 1201
f 1202 1194 1196 1193 1199 1203
f 1201 1200 1177 1179 1175 1185 1183 1202 1203 1199
f 1184 1189 1188 1204 1192 1197 1194 1202 1183 1187
f 1190 1178 1180 1177 1200 1191 1198 1192 1204 1188
g livingroom_11
v 0 3 0
v 0 3 -10.199999809265137
v 10.199999809265137 3 0
v 10.199999809265137 3 -10.199999809265137
v 5.0999999046325684 3 0
v 10.199999809265137 3 -5.0999999046325684
v 5.0999999046325684 3 -10.199999809265137
v 0 3 -5.0999999046325684
v 10.199999809265137 6 0
v 0 6 0
v 5.0999999046325684 6 0
v 10.199999809265137 6 -10.199999809265137
v 10.199999809265137 6 -5.0999999046325684
v 0 6 -10.199999809265137
v 5.0999999046325684 6 -10.199999809265137
v 0 6 -5.0999999046325684
f 1219 1215 1222 1216 1221 1218 1220 1217
f 1223 1225 1224 1215 1219 1217
f 1226 1227 1223 1217 1220 1218
f 1228 1229 1226 1218 1221 1216
f 1224 1230 1228 1216 1222 1215
f 1230 1224 1225 1223 1227 1226 1229 1228
g bedroom_1
v 61.900001525878906 3 -22.145977020263672
v 61.900001525878906 3 -26.823776245117188
v 64.724998474121094 3 -22.145977020263672
v 64.724998474121094 3 -26.823776245117188
v 63.3125 3 -22.145977020263672
v 64.724998474121094 3 -24.48487663269043
v 63.3125 3 -26.823776245117188
v 61.900001525878906 3 -24.48487663269043
v 64.724998474121094 6 -22.145977020263672
v 61.900001525878906 6 -22.145977020263672
v 61.900001525878906 4.5 -22.145977020263672
v 63.3125 6 -22.145977020263672
v 64.724998474121094 4.5 -22.145977020263672
v 64.724998474121094 6 -26.823776245117188
v 64.724998474121094 6 -24.48487663269043
v 64.724998474121094 4.5 -26.823776245117188
v 61.900001525878906 6 -26.823776245117188
v 63.3125 6 -26.823776245117188
v 61.900001525878906 4.5 -26.823776245117188
v 61.900001525878906 6 -24.48487663269043
f 1235 1231 1238 1232 1237 1234 1236 1233
f 1235 1233 1243 1239 1242 1240 1241 1231
f 1236 1234 1246 1244 1245 1239 1243 1233
f 1237 1232 1249 1247 1248 1244 1246 1234
f 1238 1231 1241 1240 1250 1247 1249 1232
f 1250 1240 1242 1239 1245 1244 1248 1247
g bedroom_2
v 57.924999237060547 3 -22.145977020263672
v 57.924999237060547 3 -27.601573944091797
v 61.900001525878906 3 -22.145977020263672
v 61.900001525878906 3 -27.601573944091797
v 59.912498474121094 3 -22.145977020263672
v 61.900001525878906 3 -24.873775482177734
v 59.912498474121094 3 -27.601573944091797
v 57.924999237060547 3 -24.873775482177734
v 61.900001525878906 6 -22.145977020263672
v 57.924999237060547 6 -22.145977020263672
v 57.924999237060547 4.5 -22.145977020263672
v 59.912498474121094 6 -22.145977020263672
v 61.900001525878906 4.5 -22.145977020263672
v 61.900001525878906 6 -27.601573944091797
v 61.900001525878906 6 -24.873775482177734
v 61.900001525878906 4.5 -27.601573944091797
v 57.924999237060547 6 -27.601573944091797
v 59.912498474121094 6 -27.601573944091797
v 57.924999237060547 4.5 -27.601573944091797
v 57.924999237060547 6 -24.873775482177734
f 1255 1251 1258 1252 1257 1254 1256 1253
f 1255 1253 1263 1259 1262 1260 1261 1251
f 1256 1254 1266 1264 1265 1259 1263 1253
f 1257 1252 1269 1267 1268 1264 1266 1254
f 1258 1251 1261 1260 1270 1267 1269 1252
f 1270 1260 1262 1259 1265 1264 1268 1267
g bedroom_3
v 48.299999237060547 3 -22.145977020263672
v 48.299999237060547 3 -26.823776245117188
v 51.125 3 -22.145977020263672
v 51.125 3 -26.823776245117188
v 49.712501525878906 3 -22.145977020263672
v 51.125 3 -24.48487663269043
v 49.712501525878906 3 -26.823776245117188
v 48.299999237060547 3 -24.48487663269043
v 51.125 6 -22.145977020263672
v 48.299999237060547 6 -22.145977020263672
v 48.299999237060547 4.5 -22.145977020263672
v 49.712501525878906 6 -22.145977020263672
v 51.125 4.5 -22.145977020263672
v 51.125 6 -26.823776245117188
v 51.125 6 -24.48487663269043
v 51.125 4.5 -26.823776245117188
v 48.299999237060547 6 -26.823776245117188
v 49.712501525878906 6 -26.823776245117188
v 48.299999237060547 4.5 -26.823776245117188
v 48.299999237060547 6 -24.48487663269043
f 1275 1271 1278 1272 1277 1274 1276 1273
f 1275 1273 1283 1279 1282 1280 1281 1271
f 1276 1274 1286 1284 1285 1279 1283 1273
f 1277 1272 1289 1287 1288 1284 1286 1274
f 1278 1271 1281 1280 1290 1287 1289 1272
f 1290 1280 1282 1279 1285 1284 1288 1287
g bedroom_4
v 44.325000762939453 3 -22.145977020263672
v 44.325000762939453 3 -27.601573944091797
v 48.299999237060547 3 -22.145977020263672
v 48.299999237060547 3 -27.601573944091797
v 46.3125 3 -22.145977020263672
v 48.299999237060547 3 -24.873775482177734
v 46.3125 3 -27.601573944091797
v 44.325000762939453 3 -24.873775482177734
v 48.299999237060547 6 -22.145977020263672
v 44.325000762939453 6 -22.145977020263672
v 44.325000762939453 4.5 -22.145977020263672
v 46.3125 6 -22.145977020263672
v 48.299999237060547 4.5 -22.145977020263672
v 48.299999237060547 6 -27.601573944091797
v 48.299999237060547 6 -24.873775482177734
v 48.299999237060547 4.5 -27.601573944091797
v 44.325000762939453 6 -27.601573944091797
v 46.3125 6 -27.601573944091797
v 44.325000762939453 4.5 -27.601573944091797
v 44.325000762939453 6 -24.873775482177734
f 1295 1291 1298 1292 1297 1294 1296 1293
f 1295 1293 1303 1299 1302 1300 1301 1291
f 1296 1294 1306 1304 1305 1299 1303 1293
f 1297 1292 1309 1307 1308 1304 1306 1294
f 1298 1291 1301 1300 1310 1307 1309 1292
f 1310 1300 1302 1299 1305 1304 1308 1307
g bedroom_5
v 34.700000762939453 3 -22.145977020263672
v 34.700000762939453 3 -26.823776245117188
v 37.525001525878906 3 -22.145977020263672
v 37.525001525878906 3 -26.823776245117188
v 36.112499237060547 3 -22.145977020263672
v 37.525001525878906 3 -24.48487663269043
v 36.112499237060547 3 -26.823776245117188
v 34.700000762939453 3 -24.48487663269043
v 37.525001525878906 6 -22.145977020263672
v 34.700000762939453 6 -22.145977020263672
v 34.700000762939453 4.5 -22.145977020263672
v 36.112499237060547 6 -22.145977020263672
v 37.525001525878906 4.5 -22.145977020263672
v 37.525001525878906 6 -26.823776245117188
v 37.525001525878906 6 -24.48487663269043
v 37.525001525878906 4.5 -26.823776245117188
v 34.700000762939453 6 -26.823776245117188
v 36.112499237060547 6 -26.823776245117188
v 34.700000762939453 4.5 -26.823776245117188
v 34.700000762939453 6 -24.48487663269043
f 1315 1311 1318 1312 1317 1314 1316 1313
f 1315 1313 1323 1319 1322 1320 1321 1311
f 1316 1314 1326 1324 1325 1319 1323 1313
f 1317 1312 1329 1327 1328 1324 1326 1314
f 1318 1311 1321 1320 1330 1327 1329 1312
f 1330 1320 1322 1319 1325 1324 1328 1327
g bedroom_6
v 30.725000381469727 3 -22.145977020263672
v 30.725000381469727 3 -27.601573944091797
v 34.700000762939453 3 -22.145977020263672
v 34.700000762939453 3 -27.601573944091797
v 32.712501525878906 3 -22.145977020263672
v 34.700000762939453 3 -24.873775482177734
v 32.712501525878906 3 -27.601573944091797
v 30.725000381469727 3 -24.873775482177734
v 34.700000762939453 6 -22.145977020263672
v 30.725000381469727 6 -22.145977020263672
v 30.725000381469727 4.5 -22.145977020263672
v 32.712501525878906 6 -22.145977020263672
v 34.700000762939453 4.5 -22.145977020263672
v 34.700000762939453 6 -27.601573944091797
v 34.700000762939453 6 -24.873775482177734
v 34.700000762939453 4.5 -27.601573944091797
v 30.725000381469727 6 -27.601573944091797
v 32.712501525878906 6 -27.601573944091797
v 30.725000381469727 4.5 -27.601573944091797
v 30.725000381469727 6 -24.873775482177734
f 1335 1331 1338 1332 1337 1334 1336 1333
f 1335 1333 1343 1339 1342 1340 1341 1331
f 1336 1334 1346 1344 1345 1339 1343 1333
f 1337 1332 1349 1347 1348 1344 1346 1334
f 1338 1331 1341 1340 1350 1347 1349 1332
f 1350 1340 1342 1339 1345 1344 1348 1347
g bedroom_7
v 21.100000381469727 3 -22.145977020263672
v 21.100000381469727 3 -26.823776245117188
v 23.924999237060547 3 -22.145977020263672
v 23.924999237060547 3 -26.823776245117188
v 22.512500762939453 3 -22.145977020263672
v 23.924999237060547 3 -24.48487663269043
v 22.512500762939453 3 -26.823776245117188
v 21.100000381469727 3 -24.48487663269043
v 23.924999237060547 6 -22.145977020263672
v 21.100000381469727 6 -22.145977020263672
v 21.100000381469727 4.5 -22.145977020263672
v 22.512500762939453 6 -22.145977020263672
v 23.924999237060547 4.5 -22.145977020263672
v 23.924999237060547 6 -26.823776245117188
v 23.924999237060547 6 -24.48487663269043
v 23.924999237060547 4.5 -26.823776245117188
v 21.100000381469727 6 -26.823776245117188
v 22.512500762939453 6 -26.823776245117188
v 21.100000381469727 4.5 -26.823776245117188
v 21.100000381469727 6 -24.48487663269043
f 1355 1351 1358 1352 1357 1354 1356 1353
f 1355 1353 1363 1359 1362 1360 1361 1351
f 1356 1354 1366 1364 1365 1359 1363 1353
f 1357 1352 1369 1367 1368 1364 1366 1354
f 1358 1351 1361 1360 1370 1367 1369 1352
f 1370 1360 1362 1359 1365 1364 1368 1367
g bedroom_8
v 26.75 3 -22.145977020263672
v 26.75 3 -26.823776245117188
v 23.924999237060547 3 -22.145977020263672
v 23.924999237060547 3 -26.823776245117188
v 25.337499618530273 3 -22.145977020263672
v 23.924999237060547 3 -24.48487663269043
v 25.337499618530273 3 -26.823776245117188
v 26.75 3 -24.48487663269043
v 23.924999237060547 6 -22.145977020263672
v 26.75 6 -22.145977020263672
v 26.75 4.5 -22.145977020263672
v 25.337499618530273 6 -22.145977020263672
v 23.924999237060547 4.5 -22.145977020263672
v 23.924999237060547 6 -26.823776245117188
v 23.924999237060547 6 -24.48487663269043
v 23.924999237060547 4.5 -26.823776245117188
v 26.75 6 -26.823776245117188
v 25.337499618530273 6 -26.823776245117188
v 26.75 4.5 -26.823776245117188
v 26.75 6 -24.48487663269043
f 1378 1371 1375 1373 1376 1374 1377 1372
f 1383 1373 1375 1371 1381 1380 1382 1379
f 1386 1374 1376 1373 1383 1379 1385 1384
f 1389 1372 1377 1374 1386 1384 1388 1387
f 1381 1371 1378 1372 1389 1387 1390 1380
f 1382 1380 1390 1387 1388 1384 1385 1379
g bedroom_9
v 30.725000381469727 3 -22.145977020263672
v 30.725000381469727 3 -27.601573944091797
v 26.75 3 -22.145977020263672
v 26.75 3 -27.601573944091797
v 28.737499237060547 3 -22.145977020263672
v 26.75 3 -24.873775482177734
v 28.737499237060547 3 -27.601573944091797
v 30.725000381469727 3 -24.873775482177734
v 26.75 6 -22.145977020263672
v 30.725000381469727 6 -22.145977020263672
v 30.725000381469727 4.5 -22.145977020263672
v 28.737499237060547 6 -22.145977020263672
v 26.75 4.5 -22.145977020263672
v 26.75 6 -27.601573944091797
v 26.75 6 -24.873775482177734
v 26.75 4.5 -27.601573944091797
v 30.725000381469727 6 -27.601573944091797
v 28.737499237060547 6 -27.601573944091797
v 30.725000381469727 4.5 -27.601573944091797
v 30.725000381469727 6 -24.873775482177734
f 1398 1391 1395 1393 1396 1394 1397 1392
f 1403 1393 1395 1391 1401 1400 1402 1399
f 1406 1394 1396 1393 1403 1399 1405 1404
f 1409 1392 1397 1394 1406 1404 1408 1407
f 1401 1391 1398 1392 1409 1407 1410 1400
f 1402 1400 1410 1407 1408 1404 1405 1399
g bedroom_10
v 40.349998474121094 3 -22.145977020263672
v 40.349998474121094 3 -26.823776245117188
v 37.525001525878906 3 -22.145977020263672
v 37.525001525878906 3 -26.823776245117188
v 38.9375 3 -22.145977020263672
v 37.525001525878906 3 -24.48487663269043
v 38.9375 3 -26.823776245117188
v 40.349998474121094 3 -24.48487663269043
v 37.525001525878906 6 -22.145977020263672
v 40.349998474121094 6 -22.145977020263672
v 40.349998474121094 4.5 -22.145977020263672
v 38.9375 6 -22.145977020263672
v 37.525001525878906 4.5 -22.145977020263672
v 37.525001525878906 6 -26.823776245117188
v 37.525001525878906 6 -24.48487663269043
v 37.525001525878906 4.5 -26.823776245117188
v 40.349998474121094 6 -26.823776245117188
v 38.9375 6 -26.823776245117188
v 40.349998474121094 4.5 -26.823776245117188
v 40.349998474121094 6 -24.48487663269043
f 1418 1411 1415 1413 1416 1414 1417 1412
f 1423 1413 1415 1411 1421 1420 1422 1419
f 1426 1414 1416 1413 1423 1419 1425 1424
f 1429 1412 1417 1414 1426 1424 1428 1427
f 1421 1411 1418 1412 1429 1427 1430 1420
f 1422 1420 1430 1427 1428 1424 1425 1419
g bedroom_11
v 44.325000762939453 3 -22.145977020263672
v 44.325000762939453 3 -27.601573944091797
v 40.349998474121094 3 -22.145977020263672
v 40.349998474121094 3 -27.601573944091797
v 42.337501525878906 3 -22.145977020263672
v 40.349998474121094 3 -24.873775482177734
v 42.337501525878906 3 -27.601573944091797
v 44.325000762939453 3 -24.873775482177734
v 40.349998474121094 6 -22.145977020263672
v 44.325000762939453 6 -22.145977020263672
v 44.325000762939453 4.5 -22.145977020263672
v 42.337501525878906 6 -22.145977020263672
v 40.349998474121094 4.5 -22.145977020263672
v 40.349998474121094 6 -27.601573944091797
v 40.349998474121094 6 -24.873775482177734
v 40.349998474121094 4.5 -27.601573944091797
v 44.325000762939453 6 -27.601573944091797
v 42.337501525878906 6 -27.601573944091797
v 44.325000762939453 4.5 -27.601573944091797
v 44.325000762939453 6 -24.873775482177734
f 1438 1431 1435 1433 1436 1434 1437 1432
f 1443 1433 1435 1431 1441 1440 1442 1439
f 1446 1434 1436 1433 1443 1439 1445 1444
f 1449 1432 1437 1434 1446 1444 1448 1447
f 1441 1431 1438 1432 1449 1447 1450 1440
f 1442 1440 1450 1447 1448 1444 1445 1439
g bedroom_12
v 53.950000762939453 3 -22.145977020263672
v 53.950000762939453 3 -26.823776245117188
v 51.125 3 -22.145977020263672
v 51.125 3 -26.823776245117188
v 52.537498474121094 3 -22.145977020263672
v 51.125 3 -24.48487663269043
v 52.537498474121094 3 -26.823776245117188
v 53.950000762939453 3 -24.48487663269043
v 51.125 6 -22.145977020263672
v 53.950000762939453 6 -22.145977020263672
v 53.950000762939453 4.5 -22.145977020263672
v 52.537498474121094 6 -22.145977020263672
v 51.125 4.5 -22.145977020263672
v 51.125 6 -26.823776245117188
v 51.125 6 -24.48487663269043
v 51.125 4.5 -26.823776245117188
v 53.950000762939453 6 -26.823776245117188
v 52.537498474121094 6 -26.823776245117188
v 53.950000762939453 4.5 -26.823776245117188
v 53.950000762939453 6 -24.48487663269043
f 1458 1451 1455 1453 1456 1454 1457 1452
f 1463 1453 1455 1451 1461 1460 1462 1459
f 1466 1454 1456 1453 1463 1459 1465 1464
f 1469 1452 1457 1454 1466 1464 1468 1467
f 1461 1451 1458 1452 1469 1467 1470 1460
f 1462 1460 1470 1467 1468 1464 1465 1459
g bedroom_13
v 57.924999237060547 3 -22.145977020263672
v 57.924999237060547 3 -27.601573944091797
v 53.950000762939453 3 -22.145977020263672
v 53.950000762939453 3 -27.601573944091797
v 55.9375 3 -22.145977020263672
v 53.950000762939453 3 -24.873775482177734
v 55.9375 3 -27.601573944091797
v 57.924999237060547 3 -24.873775482177734
v 53.950000762939453 6 -22.145977020263672
v 57.924999237060547 6 -22.145977020263672
v 57.924999237060547 4.5 -22.145977020263672
v 55.9375 6 -22.145977020263672
v 53.950000762939453 4.5 -22.145977020263672
v 53.950000762939453 6 -27.601573944091797
v 53.950000762939453 6 -24.873775482177734
v 53.950000762939453 4.5 -27.601573944091797
v 57.924999237060547 6 -27.601573944091797
v 55.9375 6 -27.601573944091797
v 57.924999237060547 4.5 -27.601573944091797
v 57.924999237060547 6 -24.873775482177734
f 1478 1471 1475 1473 1476 1474 1477 1472
f 1481 1480 1482 1479 1483 1473 1475 1471
f 1486 1474 1476 1473 1483 1479 1485 1484
f 1489 1472 1477 1474 1486 1484 1488 1487
f 1481 1471 1478 1472 1489 1487 1490 1480
f 1482 1480 1490 1487 1488 1484 1485 1479
g bedroom_14
v 67.550003051757812 3 -22.145977020263672
v 67.550003051757812 3 -26.823776245117188
v 64.724998474121094 3 -22.145977020263672
v 64.724998474121094 3 -26.823776245117188
v 66.137496948242188 3 -22.145977020263672
v 64.724998474121094 3 -24.48487663269043
v 66.137496948242188 3 -26.823776245117188
v 67.550003051757812 3 -24.48487663269043
v 64.724998474121094 6 -22.145977020263672
v 67.550003051757812 6 -22.145977020263672
v 67.550003051757812 4.5 -22.145977020263672
v 66.137496948242188 6 -22.145977020263672
v 64.724998474121094 4.5 -22.145977020263672
v 64.724998474121094 6 -26.823776245117188
v 64.724998474121094 6 -24.48487663269043
v 64.724998474121094 4.5 -26.823776245117188
v 67.550003051757812 6 -26.823776245117188
v 66.137496948242188 6 -26.823776245117188
v 67.550003051757812 4.5 -26.823776245117188
v 67.550003051757812 6 -24.48487663269043
f 1498 1491 1495 1493 1496 1494 1497 1492
f 1503 1493 1495 1491 1501 1500 1502 1499
f 1506 1494 1496 1493 1503 1499 1505 1504
f 1509 1492 1497 1494 1506 1504 1508 1507
f 1501 1491 1498 1492 1509 1507 1510 1500
f 1502 1500 1510 1507 1508 1504 1505 1499
g bedroom_15
v 71.525001525878906 3 -22.145977020263672
v 71.525001525878906 3 -27.601573944091797
v 67.550003051757812 3 -22.145977020263672
v 67.550003051757812 3 -27.601573944091797
v 69.537498474121094 3 -22.145977020263672
v 67.550003051757812 3 -24.873775482177734
v 69.537498474121094 3 -27.601573944091797
v 71.525001525878906 3 -24.873775482177734
v 67.550003051757812 6 -22.145977020263672
v 71.525001525878906 6 -22.145977020263672
v 71.525001525878906 4.5 -22.145977020263672
v 69.537498474121094 6 -22.145977020263672
v 67.550003051757812 4.5 -22.145977020263672
v 67.550003051757812 6 -27.601573944091797
v 67.550003051757812 6 -24.873775482177734
v 67.550003051757812 4.5 -27.601573944091797
v 71.525001525878906 6 -27.601573944091797
v 69.537498474121094 6 -27.601573944091797
v 71.525001525878906 4.5 -27.601573944091797
v 71.525001525878906 6 -24.873775482177734
f 1518 1511 1515 1513 1516 1514 1517 1512
f 1522 1519 1523 1513 1515 1511 1521 1520
f 1526 1514 1516 1513 1523 1519 1525 1524
f 1526 1524 1528 1527 1529 1512 1517 1514
f 1521 1511 1518 1512 1529 1527 1530 1520
f 1522 1520 1530 1527 1528 1524 1525 1519
g bedroom_16
v 17.125 3 -22.145977020263672
v 17.125 3 -27.601573944091797
v 21.100000381469727 3 -22.145977020263672
v 21.100000381469727 3 -27.601573944091797
v 19.112499237060547 3 -22.145977020263672
v 21.100000381469727 3 -24.873775482177734
v 19.112499237060547 3 -27.601573944091797
v 17.125 3 -24.873775482177734
v 21.100000381469727 6 -22.145977020263672
v 17.125 6 -22.145977020263672
v 17.125 4.5 -22.145977020263672
v 19.112499237060547 6 -22.145977020263672
v 21.100000381469727 4.5 -22.145977020263672
v 21.100000381469727 6 -27.601573944091797
v 21.100000381469727 6 -24.873775482177734
v 21.100000381469727 4.5 -27.601573944091797
v 17.125 6 -27.601573944091797
v 19.112499237060547 6 -27.601573944091797
v 17.125 4.5 -27.601573944091797
v 17.125 6 -24.873775482177734
f 1535 1531 1538 1532 1537 1534 1536 1533
f 1535 1533 1543 1539 1542 1540 1541 1531
f 1536 1534 1546 1544 1545 1539 1543 1533
f 1537 1532 1549 1547 1548 1544 1546 1534
f 1538 1531 1541 1540 1550 1547 1549 1532
f 1550 1540 1542 1539 1545 1544 1548 1547
g livingroom_12
v 0 0 0
v 0 0 -10.199999809265137
v 10.199999809265137 0 0
v 10.199999809265137 0 -10.199999809265137
v 5.0999999046325684 0 0
v 10.199999809265137 0 -5.0999999046325684
v 5.0999999046325684 0 -10.199999809265137
v 0 0 -5.0999999046325684
v 10.199999809265137 3 0
v 0 3 0
v 5.0999999046325684 3 0
v 10.199999809265137 3 -10.199999809265137
v 10.199999809265137 3 -5.0999999046325684
v 0 3 -10.199999809265137
v 5.0999999046325684 3 -10.199999809265137
v 0 3 -5.0999999046325684
f 1555 1551 1558 1552 1557 1554 1556 1553
f 1559 1561 1560 1551 1555 1553
f 1556 1554 1562 1563 1559 1553
f 1564 1565 1562 1554 1557 1552
f 1560 1566 1564 1552 1558 1551
f 1566 1560 1561 1559 1563 1562 1565 1564
g livingroom_13
v 6.6500000953674316 0 -26.823776245117188
v 6.6500000953674316 0 -31.351573944091797
v 13.625 0 -26.823776245117188
v 13.625 0 -31.351573944091797
v 10.137499809265137 0 -26.823776245117188
v 13.625 0 -29.087675094604492
v 10.137499809265137 0 -31.351573944091797
v 6.6500000953674316 0 -29.087675094604492
v 13.625 3 -26.823776245117188
v 6.6500000953674316 3 -26.823776245117188
v 10.137499809265137 3 -26.823776245117188
v 13.625 3 -31.351573944091797
v 13.625 3 -29.087675094604492
v 6.6500000953674316 3 -31.351573944091797
v 10.137499809265137 3 -31.351573944091797
v 6.6500000953674316 3 -29.087675094604492
f 1571 1567 1574 1568 1573 1570 1572 1569
f 1575 1577 1576 1567 1571 1569
f 1578 1579 1575 1569 1572 1570
f 1573 1568 1580 1581 1578 1570
f 1576 1582 1580 1568 1574 1567
f 1582 1576 1577 1575 1579 1578 1581 1580
g livingroom_14
v 77.099998474121094 0 -22.145977020263672
v 77.099998474121094 0 -26.823657989501953
v 81.949996948242188 0 -22.145977020263672
v 81.949996948242188 0 -26.823657989501953
v 79.525001525878906 0 -22.145977020263672
v 81.949996948242188 0 -24.484817504882812
v 79.525001525878906 0 -26.823657989501953
v 77.099998474121094 0 -24.484817504882812
v 81.949996948242188 3 -22.145977020263672
v 77.099998474121094 3 -22.145977020263672
v 79.525001525878906 3 -22.145977020263672
v 81.949996948242188 3 -26.823657989501953
v 81.949996948242188 3 -24.484817504882812
v 77.099998474121094 3 -26.823657989501953
v 79.525001525878906 3 -26.823657989501953
v 77.099998474121094 3 -24.484817504882812
f 1587 1583 1590 1584 1589 1586 1588 1585
f 1591 1593 1592 1583 1587 1585
f 1594 1595 1591 1585 1588 1586
f 1596 1597 1594 1586 1589 1584
f 1592 1598 1596 1584 1590 1583
f 1598 1592 1593 1591 1595 1594 1597 1596
g livingroom_15
v 77.099998474121094 0 -26.823657989501953
v 77.099998474121094 0 -31.351573944091797
v 81.949996948242188 0 -26.823657989501953
v 81.949996948242188 0 -31.351573944091797
v 79.525001525878906 0 -26.823657989501953
v 81.949996948242188 0 -29.087615966796875
v 79.525001525878906 0 -31.351573944091797
v 77.099998474121094 0 -29.087615966796875
v 81.949996948242188 3 -26.823657989501953
v 77.099998474121094 3 -26.823657989501953
v 79.525001525878906 3 -26.823657989501953
v 81.949996948242188 3 -31.351573944091797
v 81.949996948242188 3 -29.087615966796875
v 77.099998474121094 3 -31.351573944091797
v 79.525001525878906 3 -31.351573944091797
v 77.099998474121094 3 -29.087615966796875
f 1603 1599 1606 1600 1605 1602 1604 1601
f 1607 1609 1608 1599 1603 1601
f 1610 1611 1607 1601 1604 1602
f 1612 1613 1610 1602 1605 1600
f 1608 1614 1612 1600 1606 1599
f 1614 1608 1609 1607 1611 1610 1613 1612
