# Rhino

g door_1
v 81.949996948242188 9 -25.648777008056641
v 81.949996948242188 11 -25.648777008056641
v 81.949996948242188 9 -26.648777008056641
v 81.949996948242188 11 -26.648777008056641
f 1 3 4 2
g passage_1
v 77.156257629394531 12 -26.351573944091797
v 77.156257629394531 14 -26.351573944091797
v 76.356254577636719 12 -26.351573944091797
v 76.356254577636719 14 -26.351573944091797
f 8 6 5 7
g door_2
v 77.156257629394531 12 -24.145975112915039
v 77.156257629394531 14 -24.145975112915039
v 76.356254577636719 12 -24.145975112915039
v 76.356254577636719 14 -24.145975112915039
f 12 10 9 11
g door_3
v 78.487503051757812 12 -25.475170135498047
v 78.487503051757812 14 -25.475170135498047
v 78.487503051757812 12 -24.6751708984375
v 78.487503051757812 14 -24.6751708984375
f 16 14 13 15
g entrance_door_1
v 75.025001525878906 12 -25.475170135498047
v 75.025001525878906 14 -25.475170135498047
v 75.025001525878906 12 -24.6751708984375
v 75.025001525878906 14 -24.6751708984375
f 20 18 17 19
g door_4
v 76.497085571289062 9 -25.556922912597656
v 76.497085571289062 11 -25.556922912597656
v 75.69708251953125 9 -25.556922912597656
v 75.69708251953125 11 -25.556922912597656
f 24 22 21 23
g entrance_door_2
v 75.025001525878906 9 -26.652372360229492
v 75.025001525878906 11 -26.652372360229492
v 75.025001525878906 9 -25.852371215820312
v 75.025001525878906 11 -25.852371215820312
f 28 26 25 27
g door_5
v 6.6500000953674316 12 -25.723775863647461
v 6.6500000953674316 14 -25.723775863647461
v 6.6500000953674316 12 -26.723775863647461
v 6.6500000953674316 14 -26.723775863647461
f 29 31 32 30
g passage_2
v 12.625 12 -27.730142593383789
v 12.625 14 -27.730142593383789
v 12.625 12 -28.530143737792969
v 12.625 14 -28.530143737792969
f 36 34 33 35
g door_6
v 12.524999618530273 12 -29.130142211914062
v 12.524999618530273 14 -29.130142211914062
v 11.725000381469727 12 -29.130142211914062
v 11.725000381469727 14 -29.130142211914062
f 40 38 37 39
g door_7
v 11.625 9 -24.738059997558594
v 11.625 11 -24.738059997558594
v 11.625 9 -23.938060760498047
v 11.625 11 -23.938060760498047
f 44 42 41 43
g door_8
v 6.6500000953674316 9 -25.723775863647461
v 6.6500000953674316 11 -25.723775863647461
v 6.6500000953674316 9 -26.723775863647461
v 6.6500000953674316 11 -26.723775863647461
f 45 47 48 46
g door_9
v 7.6884217262268066 9 -25.545976638793945
v 7.6884217262268066 11 -25.545976638793945
v 6.8884220123291016 9 -25.545976638793945
v 6.8884220123291016 11 -25.545976638793945
f 52 50 49 51
g passage_3
v 13.524999618530273 9 -24.630142211914062
v 13.524999618530273 11 -24.630142211914062
v 12.725000381469727 9 -24.630142211914062
v 12.725000381469727 11 -24.630142211914062
f 56 54 53 55
g door_10
v 12.52500057220459 9 -29.130142211914062
v 12.52500057220459 11 -29.130142211914062
v 11.725000381469727 9 -29.130142211914062
v 11.725000381469727 11 -29.130142211914062
f 60 58 57 59
g door_11
v 11.625 9 -28.488059997558594
v 11.625 11 -28.488059997558594
v 11.625 9 -27.688060760498047
v 11.625 11 -27.688060760498047
f 64 62 61 63
g entrance_door_3
v 13.625 9 -23.788061141967773
v 13.625 11 -23.788061141967773
v 13.625 9 -22.988059997558594
v 13.625 11 -22.988059997558594
f 68 66 65 67
g passage_4
v 16.274999618530273 9 -27.045976638793945
v 16.274999618530273 11 -27.045976638793945
v 14.475000381469727 9 -27.045976638793945
v 14.475000381469727 11 -27.045976638793945
f 69 71 72 70
g passage_5
v 74.175003051757812 9 -27.045976638793945
v 74.175003051757812 11 -27.045976638793945
v 72.375 9 -27.045976638793945
v 72.375 11 -27.045976638793945
f 73 75 76 74
g entrance_door_4
v 13.625 6 -25.948776245117188
v 13.625 8 -25.948776245117188
v 13.625 6 -25.148777008056641
v 13.625 8 -25.148777008056641
f 80 78 77 79
g entrance_door_5
v 75.025001525878906 6 -25.948776245117188
v 75.025001525878906 8 -25.948776245117188
v 75.025001525878906 6 -25.148777008056641
v 75.025001525878906 8 -25.148777008056641
f 84 82 81 83
g door_12
v 17.125 9 -25.58806037902832
v 17.125 11 -25.58806037902832
v 17.125 9 -24.988059997558594
v 17.125 11 -24.988059997558594
f 85 87 88 86
g door_13
v 20.524999618530273 9 -25.58806037902832
v 20.524999618530273 11 -25.58806037902832
v 20.524999618530273 9 -24.988059997558594
v 20.524999618530273 11 -24.988059997558594
f 89 91 92 90
g door_14
v 18.6470947265625 9 -26.795976638793945
v 18.6470947265625 11 -26.795976638793945
v 18.6470947265625 9 -26.195978164672852
v 18.6470947265625 11 -26.195978164672852
f 93 95 96 94
g door_15
v 18.043292999267578 12 -26.189458847045898
v 18.043292999267578 14 -26.189458847045898
v 18.043292999267578 12 -25.289459228515625
v 18.043292999267578 14 -25.289459228515625
f 97 99 100 98
g door_16
v 18.039884567260742 6 -26.189458847045898
v 18.039884567260742 8 -26.189458847045898
v 18.039884567260742 6 -25.289459228515625
v 18.039884567260742 8 -25.289459228515625
f 101 103 104 102
g passage_6
v 19.699012756347656 11.199999809265137 -29.198776245117188
v 19.699012756347656 13.199999809265137 -29.198776245117188
v 20.299013137817383 11.199999809265137 -29.198776245117188
v 20.299013137817383 13.199999809265137 -29.198776245117188
f 108 106 105 107
g passage_7
v 18.760061264038086 11.199999809265137 -29.198776245117188
v 18.760061264038086 13.199999809265137 -29.198776245117188
v 19.360061645507812 11.199999809265137 -29.198776245117188
v 19.360061645507812 13.199999809265137 -29.198776245117188
f 112 110 109 111
g passage_8
v 18.77033805847168 9 -27.045976638793945
v 18.77033805847168 11 -27.045976638793945
v 19.370336532592773 9 -27.045976638793945
v 19.370336532592773 11 -27.045976638793945
f 113 115 116 114
g passage_9
v 19.609289169311523 9 -27.045976638793945
v 19.609289169311523 11 -27.045976638793945
v 20.409290313720703 9 -27.045976638793945
v 20.409290313720703 11 -27.045976638793945
f 117 119 120 118
g passage_10
v 19.70928955078125 12 -27.045976638793945
v 19.70928955078125 14 -27.045976638793945
v 20.309289932250977 12 -27.045976638793945
v 20.309289932250977 14 -27.045976638793945
f 121 123 124 122
g passage_11
v 19.255472183227539 6 -27.045976638793945
v 19.255472183227539 8 -27.045976638793945
v 18.255472183227539 6 -27.045976638793945
v 18.255472183227539 8 -27.045976638793945
f 128 126 125 127
g passage_12
v 19.471061706542969 6 -29.982780456542969
v 19.471061706542969 8 -29.982780456542969
v 19.471061706542969 6 -30.882781982421875
v 19.471061706542969 8 -30.882781982421875
f 129 131 132 130
g entrance_door_6
v 18.77033805847168 9 -24.630142211914062
v 18.77033805847168 11 -24.630142211914062
v 19.370336532592773 9 -24.630142211914062
v 19.370336532592773 11 -24.630142211914062
f 133 135 136 134
g entrance_door_7
v 19.609289169311523 9 -24.630142211914062
v 19.609289169311523 11 -24.630142211914062
v 20.409290313720703 9 -24.630142211914062
v 20.409290313720703 11 -24.630142211914062
f 137 139 140 138
g door_17
v 23.924999237060547 9 -25.58806037902832
v 23.924999237060547 11 -25.58806037902832
v 23.924999237060547 9 -24.988059997558594
v 23.924999237060547 11 -24.988059997558594
f 141 143 144 142
g door_18
v 22.047094345092773 9 -26.795976638793945
v 22.047094345092773 11 -26.795976638793945
v 22.047094345092773 9 -26.195978164672852
v 22.047094345092773 11 -26.195978164672852
f 145 147 148 146
g door_19
v 21.443292617797852 12 -26.189458847045898
v 21.443292617797852 14 -26.189458847045898
v 21.443292617797852 12 -25.289459228515625
v 21.443292617797852 14 -25.289459228515625
f 149 151 152 150
g door_20
v 21.439884185791016 6 -26.189458847045898
v 21.439884185791016 8 -26.189458847045898
v 21.439884185791016 6 -25.289459228515625
v 21.439884185791016 8 -25.289459228515625
f 153 155 156 154
g passage_13
v 23.099014282226562 11.199999809265137 -29.198776245117188
v 23.099014282226562 13.199999809265137 -29.198776245117188
v 23.699012756347656 11.199999809265137 -29.198776245117188
v 23.699012756347656 13.199999809265137 -29.198776245117188
f 160 158 157 159
g passage_14
v 22.160060882568359 11.199999809265137 -29.198776245117188
v 22.160060882568359 13.199999809265137 -29.198776245117188
v 22.760061264038086 11.199999809265137 -29.198776245117188
v 22.760061264038086 13.199999809265137 -29.198776245117188
f 164 162 161 163
g passage_15
v 22.170337677001953 9 -27.045976638793945
v 22.170337677001953 11 -27.045976638793945
v 22.77033805847168 9 -27.045976638793945
v 22.77033805847168 11 -27.045976638793945
f 165 167 168 166
g passage_16
v 23.00929069519043 9 -27.045976638793945
v 23.00929069519043 11 -27.045976638793945
v 23.809289932250977 9 -27.045976638793945
v 23.809289932250977 11 -27.045976638793945
f 169 171 172 170
g passage_17
v 23.109289169311523 12 -27.045976638793945
v 23.109289169311523 14 -27.045976638793945
v 23.70928955078125 12 -27.045976638793945
v 23.70928955078125 14 -27.045976638793945
f 173 175 176 174
g passage_18
v 22.655473709106445 6 -27.045976638793945
v 22.655473709106445 8 -27.045976638793945
v 21.655473709106445 6 -27.045976638793945
v 21.655473709106445 8 -27.045976638793945
f 180 178 177 179
g passage_19
v 22.871061325073242 6 -29.982780456542969
v 22.871061325073242 8 -29.982780456542969
v 22.871061325073242 6 -30.882781982421875
v 22.871061325073242 8 -30.882781982421875
f 181 183 184 182
g entrance_door_8
v 22.170337677001953 9 -24.630142211914062
v 22.170337677001953 11 -24.630142211914062
v 22.77033805847168 9 -24.630142211914062
v 22.77033805847168 11 -24.630142211914062
f 185 187 188 186
g entrance_door_9
v 23.00929069519043 9 -24.630142211914062
v 23.00929069519043 11 -24.630142211914062
v 23.809289932250977 9 -24.630142211914062
v 23.809289932250977 11 -24.630142211914062
f 189 191 192 190
g door_21
v 27.325000762939453 9 -25.58806037902832
v 27.325000762939453 11 -25.58806037902832
v 27.325000762939453 9 -24.988059997558594
v 27.325000762939453 11 -24.988059997558594
f 193 195 196 194
g door_22
v 25.447093963623047 9 -26.795976638793945
v 25.447093963623047 11 -26.795976638793945
v 25.447093963623047 9 -26.195978164672852
v 25.447093963623047 11 -26.195978164672852
f 197 199 200 198
g door_23
v 24.843292236328125 12 -26.189458847045898
v 24.843292236328125 14 -26.189458847045898
v 24.843292236328125 12 -25.289459228515625
v 24.843292236328125 14 -25.289459228515625
f 201 203 204 202
g door_24
v 24.839883804321289 6 -26.189458847045898
v 24.839883804321289 8 -26.189458847045898
v 24.839883804321289 6 -25.289459228515625
v 24.839883804321289 8 -25.289459228515625
f 205 207 208 206
g passage_20
v 26.499013900756836 11.199999809265137 -29.198776245117188
v 26.499013900756836 13.199999809265137 -29.198776245117188
v 27.099014282226562 11.199999809265137 -29.198776245117188
v 27.099014282226562 13.199999809265137 -29.198776245117188
f 212 210 209 211
g passage_21
v 25.560060501098633 11.199999809265137 -29.198776245117188
v 25.560060501098633 13.199999809265137 -29.198776245117188
v 26.160060882568359 11.199999809265137 -29.198776245117188
v 26.160060882568359 13.199999809265137 -29.198776245117188
f 216 214 213 215
g passage_22
v 25.570337295532227 9 -27.045976638793945
v 25.570337295532227 11 -27.045976638793945
v 26.170337677001953 9 -27.045976638793945
v 26.170337677001953 11 -27.045976638793945
f 217 219 220 218
g passage_23
v 26.409290313720703 9 -27.045976638793945
v 26.409290313720703 11 -27.045976638793945
v 27.20928955078125 9 -27.045976638793945
v 27.20928955078125 11 -27.045976638793945
f 221 223 224 222
g passage_24
v 26.50929069519043 12 -27.045976638793945
v 26.50929069519043 14 -27.045976638793945
v 27.109289169311523 12 -27.045976638793945
v 27.109289169311523 14 -27.045976638793945
f 225 227 228 226
g passage_25
v 26.055473327636719 6 -27.045976638793945
v 26.055473327636719 8 -27.045976638793945
v 25.055473327636719 6 -27.045976638793945
v 25.055473327636719 8 -27.045976638793945
f 232 230 229 231
g passage_26
v 26.271060943603516 6 -29.982780456542969
v 26.271060943603516 8 -29.982780456542969
v 26.271060943603516 6 -30.882781982421875
v 26.271060943603516 8 -30.882781982421875
f 233 235 236 234
g entrance_door_10
v 25.570337295532227 9 -24.630142211914062
v 25.570337295532227 11 -24.630142211914062
v 26.170337677001953 9 -24.630142211914062
v 26.170337677001953 11 -24.630142211914062
f 237 239 240 238
g entrance_door_11
v 26.409290313720703 9 -24.630142211914062
v 26.409290313720703 11 -24.630142211914062
v 27.20928955078125 9 -24.630142211914062
v 27.20928955078125 11 -24.630142211914062
f 241 243 244 242
g door_25
v 30.725000381469727 9 -25.58806037902832
v 30.725000381469727 11 -25.58806037902832
v 30.725000381469727 9 -24.988059997558594
v 30.725000381469727 11 -24.988059997558594
f 245 247 248 246
g door_26
v 28.847095489501953 9 -26.795976638793945
v 28.847095489501953 11 -26.795976638793945
v 28.847095489501953 9 -26.195978164672852
v 28.847095489501953 11 -26.195978164672852
f 249 251 252 250
g door_27
v 28.243291854858398 12 -26.189458847045898
v 28.243291854858398 14 -26.189458847045898
v 28.243291854858398 12 -25.289459228515625
v 28.243291854858398 14 -25.289459228515625
f 253 255 256 254
g door_28
v 28.239883422851562 6 -26.189458847045898
v 28.239883422851562 8 -26.189458847045898
v 28.239883422851562 6 -25.289459228515625
v 28.239883422851562 8 -25.289459228515625
f 257 259 260 258
g passage_27
v 29.899013519287109 11.199999809265137 -29.198776245117188
v 29.899013519287109 13.199999809265137 -29.198776245117188
v 30.499013900756836 11.199999809265137 -29.198776245117188
v 30.499013900756836 13.199999809265137 -29.198776245117188
f 264 262 261 263
g passage_28
v 28.960060119628906 11.199999809265137 -29.198776245117188
v 28.960060119628906 13.199999809265137 -29.198776245117188
v 29.560060501098633 11.199999809265137 -29.198776245117188
v 29.560060501098633 13.199999809265137 -29.198776245117188
f 268 266 265 267
g passage_29
v 28.9703369140625 9 -27.045976638793945
v 28.9703369140625 11 -27.045976638793945
v 29.570337295532227 9 -27.045976638793945
v 29.570337295532227 11 -27.045976638793945
f 269 271 272 270
g passage_30
v 29.809289932250977 9 -27.045976638793945
v 29.809289932250977 11 -27.045976638793945
v 30.609289169311523 9 -27.045976638793945
v 30.609289169311523 11 -27.045976638793945
f 273 275 276 274
g passage_31
v 29.909290313720703 12 -27.045976638793945
v 29.909290313720703 14 -27.045976638793945
v 30.50929069519043 12 -27.045976638793945
v 30.50929069519043 14 -27.045976638793945
f 277 279 280 278
g passage_32
v 29.455472946166992 6 -27.045976638793945
v 29.455472946166992 8 -27.045976638793945
v 28.455472946166992 6 -27.045976638793945
v 28.455472946166992 8 -27.045976638793945
f 284 282 281 283
g passage_33
v 29.671060562133789 6 -29.982780456542969
v 29.671060562133789 8 -29.982780456542969
v 29.671060562133789 6 -30.882781982421875
v 29.671060562133789 8 -30.882781982421875
f 285 287 288 286
g entrance_door_12
v 28.9703369140625 9 -24.630142211914062
v 28.9703369140625 11 -24.630142211914062
v 29.570337295532227 9 -24.630142211914062
v 29.570337295532227 11 -24.630142211914062
f 289 291 292 290
g entrance_door_13
v 29.809289932250977 9 -24.630142211914062
v 29.809289932250977 11 -24.630142211914062
v 30.609289169311523 9 -24.630142211914062
v 30.609289169311523 11 -24.630142211914062
f 293 295 296 294
g door_29
v 34.125 9 -25.58806037902832
v 34.125 11 -25.58806037902832
v 34.125 9 -24.988059997558594
v 34.125 11 -24.988059997558594
f 297 299 300 298
g door_30
v 32.247093200683594 9 -26.795976638793945
v 32.247093200683594 11 -26.795976638793945
v 32.247093200683594 9 -26.195978164672852
v 32.247093200683594 11 -26.195978164672852
f 301 303 304 302
g door_31
v 31.643291473388672 12 -26.189458847045898
v 31.643291473388672 14 -26.189458847045898
v 31.643291473388672 12 -25.289459228515625
v 31.643291473388672 14 -25.289459228515625
f 305 307 308 306
g door_32
v 31.639884948730469 6 -26.189458847045898
v 31.639884948730469 8 -26.189458847045898
v 31.639884948730469 6 -25.289459228515625
v 31.639884948730469 8 -25.289459228515625
f 309 311 312 310
g passage_34
v 33.299015045166016 11.199999809265137 -29.198776245117188
v 33.299015045166016 13.199999809265137 -29.198776245117188
v 33.899013519287109 11.199999809265137 -29.198776245117188
v 33.899013519287109 13.199999809265137 -29.198776245117188
f 316 314 313 315
g passage_35
v 32.360061645507812 11.199999809265137 -29.198776245117188
v 32.360061645507812 13.199999809265137 -29.198776245117188
v 32.960060119628906 11.199999809265137 -29.198776245117188
v 32.960060119628906 13.199999809265137 -29.198776245117188
f 320 318 317 319
g passage_36
v 32.370338439941406 9 -27.045976638793945
v 32.370338439941406 11 -27.045976638793945
v 32.9703369140625 9 -27.045976638793945
v 32.9703369140625 11 -27.045976638793945
f 321 323 324 322
g passage_37
v 33.20928955078125 9 -27.045976638793945
v 33.20928955078125 11 -27.045976638793945
v 34.009288787841797 9 -27.045976638793945
v 34.009288787841797 11 -27.045976638793945
f 325 327 328 326
g passage_38
v 33.309291839599609 12 -27.045976638793945
v 33.309291839599609 14 -27.045976638793945
v 33.909290313720703 12 -27.045976638793945
v 33.909290313720703 14 -27.045976638793945
f 329 331 332 330
g passage_39
v 32.855472564697266 6 -27.045976638793945
v 32.855472564697266 8 -27.045976638793945
v 31.855472564697266 6 -27.045976638793945
v 31.855472564697266 8 -27.045976638793945
f 336 334 333 335
g passage_40
v 33.071060180664062 6 -29.982780456542969
v 33.071060180664062 8 -29.982780456542969
v 33.071060180664062 6 -30.882781982421875
v 33.071060180664062 8 -30.882781982421875
f 337 339 340 338
g entrance_door_14
v 32.370338439941406 9 -24.630142211914062
v 32.370338439941406 11 -24.630142211914062
v 32.9703369140625 9 -24.630142211914062
v 32.9703369140625 11 -24.630142211914062
f 341 343 344 342
g entrance_door_15
v 33.20928955078125 9 -24.630142211914062
v 33.20928955078125 11 -24.630142211914062
v 34.009288787841797 9 -24.630142211914062
v 34.009288787841797 11 -24.630142211914062
f 345 347 348 346
g door_33
v 37.525001525878906 9 -25.58806037902832
v 37.525001525878906 11 -25.58806037902832
v 37.525001525878906 9 -24.988059997558594
v 37.525001525878906 11 -24.988059997558594
f 349 351 352 350
g door_34
v 35.6470947265625 9 -26.795976638793945
v 35.6470947265625 11 -26.795976638793945
v 35.6470947265625 9 -26.195978164672852
v 35.6470947265625 11 -26.195978164672852
f 353 355 356 354
g door_35
v 35.043292999267578 12 -26.189458847045898
v 35.043292999267578 14 -26.189458847045898
v 35.043292999267578 12 -25.289459228515625
v 35.043292999267578 14 -25.289459228515625
f 357 359 360 358
g door_36
v 35.039882659912109 6 -26.189458847045898
v 35.039882659912109 8 -26.189458847045898
v 35.039882659912109 6 -25.289459228515625
v 35.039882659912109 8 -25.289459228515625
f 361 363 364 362
g passage_41
v 36.699012756347656 11.199999809265137 -29.198776245117188
v 36.699012756347656 13.199999809265137 -29.198776245117188
v 37.299015045166016 11.199999809265137 -29.198776245117188
v 37.299015045166016 13.199999809265137 -29.198776245117188
f 368 366 365 367
g passage_42
v 35.760059356689453 11.199999809265137 -29.198776245117188
v 35.760059356689453 13.199999809265137 -29.198776245117188
v 36.360061645507812 11.199999809265137 -29.198776245117188
v 36.360061645507812 13.199999809265137 -29.198776245117188
f 372 370 369 371
g passage_43
v 35.770336151123047 9 -27.045976638793945
v 35.770336151123047 11 -27.045976638793945
v 36.370338439941406 9 -27.045976638793945
v 36.370338439941406 11 -27.045976638793945
f 373 375 376 374
g passage_44
v 36.609291076660156 9 -27.045976638793945
v 36.609291076660156 11 -27.045976638793945
v 37.409290313720703 9 -27.045976638793945
v 37.409290313720703 11 -27.045976638793945
f 377 379 380 378
g passage_45
v 36.70928955078125 12 -27.045976638793945
v 36.70928955078125 14 -27.045976638793945
v 37.309291839599609 12 -27.045976638793945
v 37.309291839599609 14 -27.045976638793945
f 381 383 384 382
g passage_46
v 36.255474090576172 6 -27.045976638793945
v 36.255474090576172 8 -27.045976638793945
v 35.255474090576172 6 -27.045976638793945
v 35.255474090576172 8 -27.045976638793945
f 388 386 385 387
g passage_47
v 36.471061706542969 6 -29.982780456542969
v 36.471061706542969 8 -29.982780456542969
v 36.471061706542969 6 -30.882781982421875
v 36.471061706542969 8 -30.882781982421875
f 389 391 392 390
g entrance_door_16
v 35.770336151123047 9 -24.630142211914062
v 35.770336151123047 11 -24.630142211914062
v 36.370338439941406 9 -24.630142211914062
v 36.370338439941406 11 -24.630142211914062
f 393 395 396 394
g entrance_door_17
v 36.609291076660156 9 -24.630142211914062
v 36.609291076660156 11 -24.630142211914062
v 37.409290313720703 9 -24.630142211914062
v 37.409290313720703 11 -24.630142211914062
f 397 399 400 398
g door_37
v 40.924999237060547 9 -25.58806037902832
v 40.924999237060547 11 -25.58806037902832
v 40.924999237060547 9 -24.988059997558594
v 40.924999237060547 11 -24.988059997558594
f 401 403 404 402
g door_38
v 39.047096252441406 9 -26.795976638793945
v 39.047096252441406 11 -26.795976638793945
v 39.047096252441406 9 -26.195978164672852
v 39.047096252441406 11 -26.195978164672852
f 405 407 408 406
g door_39
v 38.443290710449219 12 -26.189458847045898
v 38.443290710449219 14 -26.189458847045898
v 38.443290710449219 12 -25.289459228515625
v 38.443290710449219 14 -25.289459228515625
f 409 411 412 410
g door_40
v 38.439884185791016 6 -26.189458847045898
v 38.439884185791016 8 -26.189458847045898
v 38.439884185791016 6 -25.289459228515625
v 38.439884185791016 8 -25.289459228515625
f 413 415 416 414
g passage_48
v 40.099014282226562 11.199999809265137 -29.198776245117188
v 40.099014282226562 13.199999809265137 -29.198776245117188
v 40.699012756347656 11.199999809265137 -29.198776245117188
v 40.699012756347656 13.199999809265137 -29.198776245117188
f 420 418 417 419
g passage_49
v 39.160060882568359 11.199999809265137 -29.198776245117188
v 39.160060882568359 13.199999809265137 -29.198776245117188
v 39.760059356689453 11.199999809265137 -29.198776245117188
v 39.760059356689453 13.199999809265137 -29.198776245117188
f 424 422 421 423
g passage_50
v 39.170337677001953 9 -27.045976638793945
v 39.170337677001953 11 -27.045976638793945
v 39.770336151123047 9 -27.045976638793945
v 39.770336151123047 11 -27.045976638793945
f 425 427 428 426
g passage_51
v 40.009288787841797 9 -27.045976638793945
v 40.009288787841797 11 -27.045976638793945
v 40.809291839599609 9 -27.045976638793945
v 40.809291839599609 11 -27.045976638793945
f 429 431 432 430
g passage_52
v 40.109291076660156 12 -27.045976638793945
v 40.109291076660156 14 -27.045976638793945
v 40.70928955078125 12 -27.045976638793945
v 40.70928955078125 14 -27.045976638793945
f 433 435 436 434
g passage_53
v 39.655471801757812 6 -27.045976638793945
v 39.655471801757812 8 -27.045976638793945
v 38.655471801757812 6 -27.045976638793945
v 38.655471801757812 8 -27.045976638793945
f 440 438 437 439
g passage_54
v 39.871063232421875 6 -29.982780456542969
v 39.871063232421875 8 -29.982780456542969
v 39.871063232421875 6 -30.882781982421875
v 39.871063232421875 8 -30.882781982421875
f 441 443 444 442
g entrance_door_18
v 39.170337677001953 9 -24.630142211914062
v 39.170337677001953 11 -24.630142211914062
v 39.770336151123047 9 -24.630142211914062
v 39.770336151123047 11 -24.630142211914062
f 445 447 448 446
g entrance_door_19
v 40.009288787841797 9 -24.630142211914062
v 40.009288787841797 11 -24.630142211914062
v 40.809291839599609 9 -24.630142211914062
v 40.809291839599609 11 -24.630142211914062
f 449 451 452 450
g door_41
v 44.325000762939453 9 -25.58806037902832
v 44.325000762939453 11 -25.58806037902832
v 44.325000762939453 9 -24.988059997558594
v 44.325000762939453 11 -24.988059997558594
f 453 455 456 454
g door_42
v 42.447093963623047 9 -26.795976638793945
v 42.447093963623047 11 -26.795976638793945
v 42.447093963623047 9 -26.195978164672852
v 42.447093963623047 11 -26.195978164672852
f 457 459 460 458
g door_43
v 41.843292236328125 12 -26.189458847045898
v 41.843292236328125 14 -26.189458847045898
v 41.843292236328125 12 -25.289459228515625
v 41.843292236328125 14 -25.289459228515625
f 461 463 464 462
g door_44
v 41.839885711669922 6 -26.189458847045898
v 41.839885711669922 8 -26.189458847045898
v 41.839885711669922 6 -25.289459228515625
v 41.839885711669922 8 -25.289459228515625
f 465 467 468 466
g passage_55
v 43.499011993408203 11.199999809265137 -29.198776245117188
v 43.499011993408203 13.199999809265137 -29.198776245117188
v 44.099014282226562 11.199999809265137 -29.198776245117188
v 44.099014282226562 13.199999809265137 -29.198776245117188
f 472 470 469 471
g passage_56
v 42.560062408447266 11.199999809265137 -29.198776245117188
v 42.560062408447266 13.199999809265137 -29.198776245117188
v 43.160060882568359 11.199999809265137 -29.198776245117188
v 43.160060882568359 13.199999809265137 -29.198776245117188
f 476 474 473 475
g passage_57
v 42.570339202880859 9 -27.045976638793945
v 42.570339202880859 11 -27.045976638793945
v 43.170337677001953 9 -27.045976638793945
v 43.170337677001953 11 -27.045976638793945
f 477 479 480 478
g passage_58
v 43.409290313720703 9 -27.045976638793945
v 43.409290313720703 11 -27.045976638793945
v 44.20928955078125 9 -27.045976638793945
v 44.20928955078125 11 -27.045976638793945
f 481 483 484 482
g passage_59
v 43.509288787841797 12 -27.045976638793945
v 43.509288787841797 14 -27.045976638793945
v 44.109291076660156 12 -27.045976638793945
v 44.109291076660156 14 -27.045976638793945
f 485 487 488 486
g passage_60
v 43.055473327636719 6 -27.045976638793945
v 43.055473327636719 8 -27.045976638793945
v 42.055473327636719 6 -27.045976638793945
v 42.055473327636719 8 -27.045976638793945
f 492 490 489 491
g passage_61
v 43.271060943603516 6 -29.982780456542969
v 43.271060943603516 8 -29.982780456542969
v 43.271060943603516 6 -30.882781982421875
v 43.271060943603516 8 -30.882781982421875
f 493 495 496 494
g entrance_door_20
v 42.570339202880859 9 -24.630142211914062
v 42.570339202880859 11 -24.630142211914062
v 43.170337677001953 9 -24.630142211914062
v 43.170337677001953 11 -24.630142211914062
f 497 499 500 498
g entrance_door_21
v 43.409290313720703 9 -24.630142211914062
v 43.409290313720703 11 -24.630142211914062
v 44.20928955078125 9 -24.630142211914062
v 44.20928955078125 11 -24.630142211914062
f 501 503 504 502
g door_45
v 47.724998474121094 9 -25.58806037902832
v 47.724998474121094 11 -25.58806037902832
v 47.724998474121094 9 -24.988059997558594
v 47.724998474121094 11 -24.988059997558594
f 505 507 508 506
g door_46
v 45.847095489501953 9 -26.795976638793945
v 45.847095489501953 11 -26.795976638793945
v 45.847095489501953 9 -26.195978164672852
v 45.847095489501953 11 -26.195978164672852
f 509 511 512 510
g door_47
v 45.243293762207031 12 -26.189458847045898
v 45.243293762207031 14 -26.189458847045898
v 45.243293762207031 12 -25.289459228515625
v 45.243293762207031 14 -25.289459228515625
f 513 515 516 514
g door_48
v 45.239883422851562 6 -26.189458847045898
v 45.239883422851562 8 -26.189458847045898
v 45.239883422851562 6 -25.289459228515625
v 45.239883422851562 8 -25.289459228515625
f 517 519 520 518
g passage_62
v 46.899013519287109 11.199999809265137 -29.198776245117188
v 46.899013519287109 13.199999809265137 -29.198776245117188
v 47.499011993408203 11.199999809265137 -29.198776245117188
v 47.499011993408203 13.199999809265137 -29.198776245117188
f 524 522 521 523
g passage_63
v 45.960060119628906 11.199999809265137 -29.198776245117188
v 45.960060119628906 13.199999809265137 -29.198776245117188
v 46.560062408447266 11.199999809265137 -29.198776245117188
v 46.560062408447266 13.199999809265137 -29.198776245117188
f 528 526 525 527
g passage_64
v 45.9703369140625 9 -27.045976638793945
v 45.9703369140625 11 -27.045976638793945
v 46.570339202880859 9 -27.045976638793945
v 46.570339202880859 11 -27.045976638793945
f 529 531 532 530
g passage_65
v 46.809291839599609 9 -27.045976638793945
v 46.809291839599609 11 -27.045976638793945
v 47.609291076660156 9 -27.045976638793945
v 47.609291076660156 11 -27.045976638793945
f 533 535 536 534
g passage_66
v 46.909290313720703 12 -27.045976638793945
v 46.909290313720703 14 -27.045976638793945
v 47.509288787841797 12 -27.045976638793945
v 47.509288787841797 14 -27.045976638793945
f 537 539 540 538
g passage_67
v 46.455471038818359 6 -27.045976638793945
v 46.455471038818359 8 -27.045976638793945
v 45.455471038818359 6 -27.045976638793945
v 45.455471038818359 8 -27.045976638793945
f 544 542 541 543
g passage_68
v 46.671062469482422 6 -29.982780456542969
v 46.671062469482422 8 -29.982780456542969
v 46.671062469482422 6 -30.882781982421875
v 46.671062469482422 8 -30.882781982421875
f 545 547 548 546
g entrance_door_22
v 45.9703369140625 9 -24.630142211914062
v 45.9703369140625 11 -24.630142211914062
v 46.570339202880859 9 -24.630142211914062
v 46.570339202880859 11 -24.630142211914062
f 549 551 552 550
g entrance_door_23
v 46.809291839599609 9 -24.630142211914062
v 46.809291839599609 11 -24.630142211914062
v 47.609291076660156 9 -24.630142211914062
v 47.609291076660156 11 -24.630142211914062
f 553 555 556 554
g door_49
v 51.125 9 -25.58806037902832
v 51.125 11 -25.58806037902832
v 51.125 9 -24.988059997558594
v 51.125 11 -24.988059997558594
f 557 559 560 558
g door_50
v 49.247093200683594 9 -26.795976638793945
v 49.247093200683594 11 -26.795976638793945
v 49.247093200683594 9 -26.195978164672852
v 49.247093200683594 11 -26.195978164672852
f 561 563 564 562
g door_51
v 48.643291473388672 12 -26.189458847045898
v 48.643291473388672 14 -26.189458847045898
v 48.643291473388672 12 -25.289459228515625
v 48.643291473388672 14 -25.289459228515625
f 565 567 568 566
g door_52
v 48.639884948730469 6 -26.189458847045898
v 48.639884948730469 8 -26.189458847045898
v 48.639884948730469 6 -25.289459228515625
v 48.639884948730469 8 -25.289459228515625
f 569 571 572 570
g passage_69
v 50.299015045166016 11.199999809265137 -29.198776245117188
v 50.299015045166016 13.199999809265137 -29.198776245117188
v 50.899013519287109 11.199999809265137 -29.198776245117188
v 50.899013519287109 13.199999809265137 -29.198776245117188
f 576 574 573 575
g passage_70
v 49.360061645507812 11.199999809265137 -29.198776245117188
v 49.360061645507812 13.199999809265137 -29.198776245117188
v 49.960060119628906 11.199999809265137 -29.198776245117188
v 49.960060119628906 13.199999809265137 -29.198776245117188
f 580 578 577 579
g passage_71
v 49.370338439941406 9 -27.045976638793945
v 49.370338439941406 11 -27.045976638793945
v 49.9703369140625 9 -27.045976638793945
v 49.9703369140625 11 -27.045976638793945
f 581 583 584 582
g passage_72
v 50.20928955078125 9 -27.045976638793945
v 50.20928955078125 11 -27.045976638793945
v 51.009288787841797 9 -27.045976638793945
v 51.009288787841797 11 -27.045976638793945
f 585 587 588 586
g passage_73
v 50.309291839599609 12 -27.045976638793945
v 50.309291839599609 14 -27.045976638793945
v 50.909290313720703 12 -27.045976638793945
v 50.909290313720703 14 -27.045976638793945
f 589 591 592 590
g passage_74
v 49.855472564697266 6 -27.045976638793945
v 49.855472564697266 8 -27.045976638793945
v 48.855472564697266 6 -27.045976638793945
v 48.855472564697266 8 -27.045976638793945
f 596 594 593 595
g passage_75
v 50.071060180664062 6 -29.982780456542969
v 50.071060180664062 8 -29.982780456542969
v 50.071060180664062 6 -30.882781982421875
v 50.071060180664062 8 -30.882781982421875
f 597 599 600 598
g entrance_door_24
v 49.370338439941406 9 -24.630142211914062
v 49.370338439941406 11 -24.630142211914062
v 49.9703369140625 9 -24.630142211914062
v 49.9703369140625 11 -24.630142211914062
f 601 603 604 602
g entrance_door_25
v 50.20928955078125 9 -24.630142211914062
v 50.20928955078125 11 -24.630142211914062
v 51.009288787841797 9 -24.630142211914062
v 51.009288787841797 11 -24.630142211914062
f 605 607 608 606
g door_53
v 54.525001525878906 9 -25.58806037902832
v 54.525001525878906 11 -25.58806037902832
v 54.525001525878906 9 -24.988059997558594
v 54.525001525878906 11 -24.988059997558594
f 609 611 612 610
g door_54
v 52.6470947265625 9 -26.795976638793945
v 52.6470947265625 11 -26.795976638793945
v 52.6470947265625 9 -26.195978164672852
v 52.6470947265625 11 -26.195978164672852
f 613 615 616 614
g door_55
v 52.043292999267578 12 -26.189458847045898
v 52.043292999267578 14 -26.189458847045898
v 52.043292999267578 12 -25.289459228515625
v 52.043292999267578 14 -25.289459228515625
f 617 619 620 618
g door_56
v 52.039882659912109 6 -26.189458847045898
v 52.039882659912109 8 -26.189458847045898
v 52.039882659912109 6 -25.289459228515625
v 52.039882659912109 8 -25.289459228515625
f 621 623 624 622
g passage_76
v 53.699012756347656 11.199999809265137 -29.198776245117188
v 53.699012756347656 13.199999809265137 -29.198776245117188
v 54.299015045166016 11.199999809265137 -29.198776245117188
v 54.299015045166016 13.199999809265137 -29.198776245117188
f 628 626 625 627
g passage_77
v 52.760059356689453 11.199999809265137 -29.198776245117188
v 52.760059356689453 13.199999809265137 -29.198776245117188
v 53.360061645507812 11.199999809265137 -29.198776245117188
v 53.360061645507812 13.199999809265137 -29.198776245117188
f 632 630 629 631
g passage_78
v 52.770336151123047 9 -27.045976638793945
v 52.770336151123047 11 -27.045976638793945
v 53.370338439941406 9 -27.045976638793945
v 53.370338439941406 11 -27.045976638793945
f 633 635 636 634
g passage_79
v 53.609291076660156 9 -27.045976638793945
v 53.609291076660156 11 -27.045976638793945
v 54.409290313720703 9 -27.045976638793945
v 54.409290313720703 11 -27.045976638793945
f 637 639 640 638
g passage_80
v 53.70928955078125 12 -27.045976638793945
v 53.70928955078125 14 -27.045976638793945
v 54.309291839599609 12 -27.045976638793945
v 54.309291839599609 14 -27.045976638793945
f 641 643 644 642
g passage_81
v 53.255474090576172 6 -27.045976638793945
v 53.255474090576172 8 -27.045976638793945
v 52.255474090576172 6 -27.045976638793945
v 52.255474090576172 8 -27.045976638793945
f 648 646 645 647
g passage_82
v 53.471061706542969 6 -29.982780456542969
v 53.471061706542969 8 -29.982780456542969
v 53.471061706542969 6 -30.882781982421875
v 53.471061706542969 8 -30.882781982421875
f 649 651 652 650
g entrance_door_26
v 52.770336151123047 9 -24.630142211914062
v 52.770336151123047 11 -24.630142211914062
v 53.370338439941406 9 -24.630142211914062
v 53.370338439941406 11 -24.630142211914062
f 653 655 656 654
g entrance_door_27
v 53.609291076660156 9 -24.630142211914062
v 53.609291076660156 11 -24.630142211914062
v 54.409290313720703 9 -24.630142211914062
v 54.409290313720703 11 -24.630142211914062
f 657 659 660 658
g door_57
v 57.924999237060547 9 -25.58806037902832
v 57.924999237060547 11 -25.58806037902832
v 57.924999237060547 9 -24.988059997558594
v 57.924999237060547 11 -24.988059997558594
f 661 663 664 662
g door_58
v 56.047096252441406 9 -26.795976638793945
v 56.047096252441406 11 -26.795976638793945
v 56.047096252441406 9 -26.195978164672852
v 56.047096252441406 11 -26.195978164672852
f 665 667 668 666
g door_59
v 55.443290710449219 12 -26.189458847045898
v 55.443290710449219 14 -26.189458847045898
v 55.443290710449219 12 -25.289459228515625
v 55.443290710449219 14 -25.289459228515625
f 669 671 672 670
g door_60
v 55.439884185791016 6 -26.189458847045898
v 55.439884185791016 8 -26.189458847045898
v 55.439884185791016 6 -25.289459228515625
v 55.439884185791016 8 -25.289459228515625
f 673 675 676 674
g passage_83
v 57.099014282226562 11.199999809265137 -29.198776245117188
v 57.099014282226562 13.199999809265137 -29.198776245117188
v 57.699012756347656 11.199999809265137 -29.198776245117188
v 57.699012756347656 13.199999809265137 -29.198776245117188
f 680 678 677 679
g passage_84
v 56.160060882568359 11.199999809265137 -29.198776245117188
v 56.160060882568359 13.199999809265137 -29.198776245117188
v 56.760059356689453 11.199999809265137 -29.198776245117188
v 56.760059356689453 13.199999809265137 -29.198776245117188
f 684 682 681 683
g passage_85
v 56.170337677001953 9 -27.045976638793945
v 56.170337677001953 11 -27.045976638793945
v 56.770336151123047 9 -27.045976638793945
v 56.770336151123047 11 -27.045976638793945
f 685 687 688 686
g passage_86
v 57.009288787841797 9 -27.045976638793945
v 57.009288787841797 11 -27.045976638793945
v 57.809291839599609 9 -27.045976638793945
v 57.809291839599609 11 -27.045976638793945
f 689 691 692 690
g passage_87
v 57.109291076660156 12 -27.045976638793945
v 57.109291076660156 14 -27.045976638793945
v 57.70928955078125 12 -27.045976638793945
v 57.70928955078125 14 -27.045976638793945
f 693 695 696 694
g passage_88
v 56.655471801757812 6 -27.045976638793945
v 56.655471801757812 8 -27.045976638793945
v 55.655471801757812 6 -27.045976638793945
v 55.655471801757812 8 -27.045976638793945
f 700 698 697 699
g passage_89
v 56.871063232421875 6 -29.982780456542969
v 56.871063232421875 8 -29.982780456542969
v 56.871063232421875 6 -30.882781982421875
v 56.871063232421875 8 -30.882781982421875
f 701 703 704 702
g entrance_door_28
v 56.170337677001953 9 -24.630142211914062
v 56.170337677001953 11 -24.630142211914062
v 56.770336151123047 9 -24.630142211914062
v 56.770336151123047 11 -24.630142211914062
f 705 707 708 706
g entrance_door_29
v 57.009288787841797 9 -24.630142211914062
v 57.009288787841797 11 -24.630142211914062
v 57.809291839599609 9 -24.630142211914062
v 57.809291839599609 11 -24.630142211914062
f 709 711 712 710
g door_61
v 61.325000762939453 9 -25.58806037902832
v 61.325000762939453 11 -25.58806037902832
v 61.325000762939453 9 -24.988059997558594
v 61.325000762939453 11 -24.988059997558594
f 713 715 716 714
g door_62
v 59.447093963623047 9 -26.795976638793945
v 59.447093963623047 11 -26.795976638793945
v 59.447093963623047 9 -26.195978164672852
v 59.447093963623047 11 -26.195978164672852
f 717 719 720 718
g door_63
v 58.843292236328125 12 -26.189458847045898
v 58.843292236328125 14 -26.189458847045898
v 58.843292236328125 12 -25.289459228515625
v 58.843292236328125 14 -25.289459228515625
f 721 723 724 722
g door_64
v 58.839885711669922 6 -26.189458847045898
v 58.839885711669922 8 -26.189458847045898
v 58.839885711669922 6 -25.289459228515625
v 58.839885711669922 8 -25.289459228515625
f 725 727 728 726
g passage_90
v 60.499011993408203 11.199999809265137 -29.198776245117188
v 60.499011993408203 13.199999809265137 -29.198776245117188
v 61.099014282226562 11.199999809265137 -29.198776245117188
v 61.099014282226562 13.199999809265137 -29.198776245117188
f 732 730 729 731
g passage_91
v 59.560062408447266 11.199999809265137 -29.198776245117188
v 59.560062408447266 13.199999809265137 -29.198776245117188
v 60.160060882568359 11.199999809265137 -29.198776245117188
v 60.160060882568359 13.199999809265137 -29.198776245117188
f 736 734 733 735
g passage_92
v 59.570339202880859 9 -27.045976638793945
v 59.570339202880859 11 -27.045976638793945
v 60.170337677001953 9 -27.045976638793945
v 60.170337677001953 11 -27.045976638793945
f 737 739 740 738
g passage_93
v 60.409290313720703 9 -27.045976638793945
v 60.409290313720703 11 -27.045976638793945
v 61.20928955078125 9 -27.045976638793945
v 61.20928955078125 11 -27.045976638793945
f 741 743 744 742
g passage_94
v 60.509288787841797 12 -27.045976638793945
v 60.509288787841797 14 -27.045976638793945
v 61.109291076660156 12 -27.045976638793945
v 61.109291076660156 14 -27.045976638793945
f 745 747 748 746
g passage_95
v 60.055473327636719 6 -27.045976638793945
v 60.055473327636719 8 -27.045976638793945
v 59.055473327636719 6 -27.045976638793945
v 59.055473327636719 8 -27.045976638793945
f 752 750 749 751
g passage_96
v 60.271060943603516 6 -29.982780456542969
v 60.271060943603516 8 -29.982780456542969
v 60.271060943603516 6 -30.882781982421875
v 60.271060943603516 8 -30.882781982421875
f 753 755 756 754
g entrance_door_30
v 59.570339202880859 9 -24.630142211914062
v 59.570339202880859 11 -24.630142211914062
v 60.170337677001953 9 -24.630142211914062
v 60.170337677001953 11 -24.630142211914062
f 757 759 760 758
g entrance_door_31
v 60.409290313720703 9 -24.630142211914062
v 60.409290313720703 11 -24.630142211914062
v 61.20928955078125 9 -24.630142211914062
v 61.20928955078125 11 -24.630142211914062
f 761 763 764 762
g door_65
v 64.724998474121094 9 -25.58806037902832
v 64.724998474121094 11 -25.58806037902832
v 64.724998474121094 9 -24.988059997558594
v 64.724998474121094 11 -24.988059997558594
f 765 767 768 766
g door_66
v 62.847095489501953 9 -26.795976638793945
v 62.847095489501953 11 -26.795976638793945
v 62.847095489501953 9 -26.195978164672852
v 62.847095489501953 11 -26.195978164672852
f 769 771 772 770
g door_67
v 62.243293762207031 12 -26.189458847045898
v 62.243293762207031 14 -26.189458847045898
v 62.243293762207031 12 -25.289459228515625
v 62.243293762207031 14 -25.289459228515625
f 773 775 776 774
g door_68
v 62.239883422851562 6 -26.189458847045898
v 62.239883422851562 8 -26.189458847045898
v 62.239883422851562 6 -25.289459228515625
v 62.239883422851562 8 -25.289459228515625
f 777 779 780 778
g passage_97
v 63.899013519287109 11.199999809265137 -29.198776245117188
v 63.899013519287109 13.199999809265137 -29.198776245117188
v 64.499015808105469 11.199999809265137 -29.198776245117188
v 64.499015808105469 13.199999809265137 -29.198776245117188
f 784 782 781 783
g passage_98
v 62.960060119628906 11.199999809265137 -29.198776245117188
v 62.960060119628906 13.199999809265137 -29.198776245117188
v 63.560062408447266 11.199999809265137 -29.198776245117188
v 63.560062408447266 13.199999809265137 -29.198776245117188
f 788 786 785 787
g passage_99
v 62.9703369140625 9 -27.045976638793945
v 62.9703369140625 11 -27.045976638793945
v 63.570339202880859 9 -27.045976638793945
v 63.570339202880859 11 -27.045976638793945
f 789 791 792 790
g passage_100
v 63.809291839599609 9 -27.045976638793945
v 63.809291839599609 11 -27.045976638793945
v 64.609291076660156 9 -27.045976638793945
v 64.609291076660156 11 -27.045976638793945
f 793 795 796 794
g passage_101
v 63.909290313720703 12 -27.045976638793945
v 63.909290313720703 14 -27.045976638793945
v 64.509292602539062 12 -27.045976638793945
v 64.509292602539062 14 -27.045976638793945
f 797 799 800 798
g passage_102
v 63.455471038818359 6 -27.045976638793945
v 63.455471038818359 8 -27.045976638793945
v 62.455471038818359 6 -27.045976638793945
v 62.455471038818359 8 -27.045976638793945
f 804 802 801 803
g passage_103
v 63.671062469482422 6 -29.982780456542969
v 63.671062469482422 8 -29.982780456542969
v 63.671062469482422 6 -30.882781982421875
v 63.671062469482422 8 -30.882781982421875
f 805 807 808 806
g entrance_door_32
v 62.9703369140625 9 -24.630142211914062
v 62.9703369140625 11 -24.630142211914062
v 63.570339202880859 9 -24.630142211914062
v 63.570339202880859 11 -24.630142211914062
f 809 811 812 810
g entrance_door_33
v 63.809291839599609 9 -24.630142211914062
v 63.809291839599609 11 -24.630142211914062
v 64.609291076660156 9 -24.630142211914062
v 64.609291076660156 11 -24.630142211914062
f 813 815 816 814
g door_69
v 68.125 9 -25.58806037902832
v 68.125 11 -25.58806037902832
v 68.125 9 -24.988059997558594
v 68.125 11 -24.988059997558594
f 817 819 820 818
g door_70
v 66.247093200683594 9 -26.795976638793945
v 66.247093200683594 11 -26.795976638793945
v 66.247093200683594 9 -26.195978164672852
v 66.247093200683594 11 -26.195978164672852
f 821 823 824 822
g door_71
v 65.643295288085938 12 -26.189458847045898
v 65.643295288085938 14 -26.189458847045898
v 65.643295288085938 12 -25.289459228515625
v 65.643295288085938 14 -25.289459228515625
f 825 827 828 826
g door_72
v 65.639884948730469 6 -26.189458847045898
v 65.639884948730469 8 -26.189458847045898
v 65.639884948730469 6 -25.289459228515625
v 65.639884948730469 8 -25.289459228515625
f 829 831 832 830
g passage_104
v 67.29901123046875 11.199999809265137 -29.198776245117188
v 67.29901123046875 13.199999809265137 -29.198776245117188
v 67.899009704589844 11.199999809265137 -29.198776245117188
v 67.899009704589844 13.199999809265137 -29.198776245117188
f 836 834 833 835
g passage_105
v 66.360061645507812 11.199999809265137 -29.198776245117188
v 66.360061645507812 13.199999809265137 -29.198776245117188
v 66.960060119628906 11.199999809265137 -29.198776245117188
v 66.960060119628906 13.199999809265137 -29.198776245117188
f 840 838 837 839
g passage_106
v 66.370338439941406 9 -27.045976638793945
v 66.370338439941406 11 -27.045976638793945
v 66.9703369140625 9 -27.045976638793945
v 66.9703369140625 11 -27.045976638793945
f 841 843 844 842
g passage_107
v 67.20928955078125 9 -27.045976638793945
v 67.20928955078125 11 -27.045976638793945
v 68.009292602539062 9 -27.045976638793945
v 68.009292602539062 11 -27.045976638793945
f 845 847 848 846
g passage_108
v 67.309288024902344 12 -27.045976638793945
v 67.309288024902344 14 -27.045976638793945
v 67.909286499023438 12 -27.045976638793945
v 67.909286499023438 14 -27.045976638793945
f 849 851 852 850
g passage_109
v 66.855476379394531 6 -27.045976638793945
v 66.855476379394531 8 -27.045976638793945
v 65.855476379394531 6 -27.045976638793945
v 65.855476379394531 8 -27.045976638793945
f 856 854 853 855
g passage_110
v 67.071060180664062 6 -29.982780456542969
v 67.071060180664062 8 -29.982780456542969
v 67.071060180664062 6 -30.882781982421875
v 67.071060180664062 8 -30.882781982421875
f 857 859 860 858
g entrance_door_34
v 66.370338439941406 9 -24.630142211914062
v 66.370338439941406 11 -24.630142211914062
v 66.9703369140625 9 -24.630142211914062
v 66.9703369140625 11 -24.630142211914062
f 861 863 864 862
g entrance_door_35
v 67.20928955078125 9 -24.630142211914062
v 67.20928955078125 11 -24.630142211914062
v 68.009292602539062 9 -24.630142211914062
v 68.009292602539062 11 -24.630142211914062
f 865 867 868 866
g door_73
v 71.525001525878906 9 -25.58806037902832
v 71.525001525878906 11 -25.58806037902832
v 71.525001525878906 9 -24.988059997558594
v 71.525001525878906 11 -24.988059997558594
f 869 871 872 870
g door_74
v 69.6470947265625 9 -26.795976638793945
v 69.6470947265625 11 -26.795976638793945
v 69.6470947265625 9 -26.195978164672852
v 69.6470947265625 11 -26.195978164672852
f 873 875 876 874
g door_75
v 69.043289184570312 12 -26.189458847045898
v 69.043289184570312 14 -26.189458847045898
v 69.043289184570312 12 -25.289459228515625
v 69.043289184570312 14 -25.289459228515625
f 877 879 880 878
g door_76
v 69.039886474609375 6 -26.189458847045898
v 69.039886474609375 8 -26.189458847045898
v 69.039886474609375 6 -25.289459228515625
v 69.039886474609375 8 -25.289459228515625
f 881 883 884 882
g passage_111
v 70.699012756347656 11.199999809265137 -29.198776245117188
v 70.699012756347656 13.199999809265137 -29.198776245117188
v 71.29901123046875 11.199999809265137 -29.198776245117188
v 71.29901123046875 13.199999809265137 -29.198776245117188
f 888 886 885 887
g passage_112
v 69.760063171386719 11.199999809265137 -29.198776245117188
v 69.760063171386719 13.199999809265137 -29.198776245117188
v 70.360061645507812 11.199999809265137 -29.198776245117188
v 70.360061645507812 13.199999809265137 -29.198776245117188
f 892 890 889 891
g passage_113
v 69.770339965820312 9 -27.045976638793945
v 69.770339965820312 11 -27.045976638793945
v 70.370338439941406 9 -27.045976638793945
v 70.370338439941406 11 -27.045976638793945
f 893 895 896 894
g passage_114
v 70.609291076660156 9 -27.045976638793945
v 70.609291076660156 11 -27.045976638793945
v 71.409286499023438 9 -27.045976638793945
v 71.409286499023438 11 -27.045976638793945
f 897 899 900 898
g passage_115
v 70.70928955078125 12 -27.045976638793945
v 70.70928955078125 14 -27.045976638793945
v 71.309288024902344 12 -27.045976638793945
v 71.309288024902344 14 -27.045976638793945
f 901 903 904 902
g passage_116
v 70.255470275878906 6 -27.045976638793945
v 70.255470275878906 8 -27.045976638793945
v 69.255470275878906 6 -27.045976638793945
v 69.255470275878906 8 -27.045976638793945
f 908 906 905 907
g passage_117
v 70.471061706542969 6 -29.982780456542969
v 70.471061706542969 8 -29.982780456542969
v 70.471061706542969 6 -30.882781982421875
v 70.471061706542969 8 -30.882781982421875
f 909 911 912 910
g entrance_door_36
v 69.770339965820312 9 -24.630142211914062
v 69.770339965820312 11 -24.630142211914062
v 70.370338439941406 9 -24.630142211914062
v 70.370338439941406 11 -24.630142211914062
f 913 915 916 914
g entrance_door_37
v 70.609291076660156 9 -24.630142211914062
v 70.609291076660156 11 -24.630142211914062
v 71.409286499023438 9 -24.630142211914062
v 71.409286499023438 11 -24.630142211914062
f 917 919 920 918
