# Rhino

g door_1
v 6.6500000953674316 3 -25.323776245117188
v 6.6500000953674316 5 -25.323776245117188
v 6.6500000953674316 3 -26.323776245117188
v 6.6500000953674316 5 -26.323776245117188
f 1 3 4 2
g passage_1
v 6.9000000953674316 0 -13.495742797851562
v 6.9000000953674316 2 -13.495742797851562
v 8.8999996185302734 0 -13.495742797851562
v 8.8999996185302734 2 -13.495742797851562
f 8 6 5 7
g passage_2
v 74.175003051757812 0 -26.823776245117188
v 74.175003051757812 2 -26.823776245117188
v 72.375 0 -26.823776245117188
v 72.375 2 -26.823776245117188
f 9 11 12 10
g passage_3
v 16.274999618530273 0 -26.823776245117188
v 16.274999618530273 2 -26.823776245117188
v 14.475000381469727 0 -26.823776245117188
v 14.475000381469727 2 -26.823776245117188
f 13 15 16 14
g passage_4
v 6.9000000953674316 0 -22.145977020263672
v 6.9000000953674316 2 -22.145977020263672
v 8.8999996185302734 0 -22.145977020263672
v 8.8999996185302734 2 -22.145977020263672
f 20 18 17 19
g door_2
v 22.149999618530273 3 -26.823776245117188
v 22.149999618530273 5 -26.823776245117188
v 22.75 3 -26.823776245117188
v 22.75 5 -26.823776245117188
f 24 23 21 22
g door_3
v 21.100000381469727 3 -27.523777008056641
v 21.100000381469727 5 -27.523777008056641
v 21.100000381469727 3 -26.923776626586914
v 21.100000381469727 5 -26.923776626586914
f 28 26 25 27
g door_4
v 22.149999618530273 3 -29.351573944091797
v 22.149999618530273 5 -29.351573944091797
v 22.75 3 -29.351573944091797
v 22.75 5 -29.351573944091797
f 32 30 29 31
g door_5
v 25.700000762939453 3 -26.823776245117188
v 25.700000762939453 5 -26.823776245117188
v 25.100000381469727 3 -26.823776245117188
v 25.100000381469727 5 -26.823776245117188
f 36 34 33 35
g door_6
v 26.75 3 -27.523777008056641
v 26.75 5 -27.523777008056641
v 26.75 3 -26.923776626586914
v 26.75 5 -26.923776626586914
f 40 39 37 38
g door_7
v 25.700000762939453 3 -29.351573944091797
v 25.700000762939453 5 -29.351573944091797
v 25.100000381469727 3 -29.351573944091797
v 25.100000381469727 5 -29.351573944091797
f 44 43 41 42
g door_8
v 35.75 3 -26.823776245117188
v 35.75 5 -26.823776245117188
v 36.349998474121094 3 -26.823776245117188
v 36.349998474121094 5 -26.823776245117188
f 48 47 45 46
g door_9
v 34.700000762939453 3 -27.523777008056641
v 34.700000762939453 5 -27.523777008056641
v 34.700000762939453 3 -26.923776626586914
v 34.700000762939453 5 -26.923776626586914
f 52 50 49 51
g door_10
v 35.75 3 -29.351573944091797
v 35.75 5 -29.351573944091797
v 36.349998474121094 3 -29.351573944091797
v 36.349998474121094 5 -29.351573944091797
f 56 54 53 55
g door_11
v 39.299999237060547 3 -26.823776245117188
v 39.299999237060547 5 -26.823776245117188
v 38.700000762939453 3 -26.823776245117188
v 38.700000762939453 5 -26.823776245117188
f 60 58 57 59
g door_12
v 40.349998474121094 3 -27.523777008056641
v 40.349998474121094 5 -27.523777008056641
v 40.349998474121094 3 -26.923776626586914
v 40.349998474121094 5 -26.923776626586914
f 64 63 61 62
g door_13
v 39.299999237060547 3 -29.351573944091797
v 39.299999237060547 5 -29.351573944091797
v 38.700000762939453 3 -29.351573944091797
v 38.700000762939453 5 -29.351573944091797
f 68 67 65 66
g door_14
v 49.349998474121094 3 -26.823776245117188
v 49.349998474121094 5 -26.823776245117188
v 49.950000762939453 3 -26.823776245117188
v 49.950000762939453 5 -26.823776245117188
f 72 71 69 70
g door_15
v 48.299999237060547 3 -27.523777008056641
v 48.299999237060547 5 -27.523777008056641
v 48.299999237060547 3 -26.923776626586914
v 48.299999237060547 5 -26.923776626586914
f 76 74 73 75
g door_16
v 49.349998474121094 3 -29.351573944091797
v 49.349998474121094 5 -29.351573944091797
v 49.950000762939453 3 -29.351573944091797
v 49.950000762939453 5 -29.351573944091797
f 80 78 77 79
g door_17
v 52.900001525878906 3 -26.823776245117188
v 52.900001525878906 5 -26.823776245117188
v 52.299999237060547 3 -26.823776245117188
v 52.299999237060547 5 -26.823776245117188
f 84 82 81 83
g door_18
v 53.950000762939453 3 -27.523777008056641
v 53.950000762939453 5 -27.523777008056641
v 53.950000762939453 3 -26.923776626586914
v 53.950000762939453 5 -26.923776626586914
f 88 87 85 86
g door_19
v 52.900001525878906 3 -29.351573944091797
v 52.900001525878906 5 -29.351573944091797
v 52.299999237060547 3 -29.351573944091797
v 52.299999237060547 5 -29.351573944091797
f 92 91 89 90
g door_20
v 62.950000762939453 3 -26.823776245117188
v 62.950000762939453 5 -26.823776245117188
v 63.549999237060547 3 -26.823776245117188
v 63.549999237060547 5 -26.823776245117188
f 96 95 93 94
g door_21
v 61.900001525878906 3 -27.523777008056641
v 61.900001525878906 5 -27.523777008056641
v 61.900001525878906 3 -26.923776626586914
v 61.900001525878906 5 -26.923776626586914
f 100 98 97 99
g door_22
v 62.950000762939453 3 -29.351573944091797
v 62.950000762939453 5 -29.351573944091797
v 63.549999237060547 3 -29.351573944091797
v 63.549999237060547 5 -29.351573944091797
f 104 102 101 103
g door_23
v 66.5 3 -26.823776245117188
v 66.5 5 -26.823776245117188
v 65.900001525878906 3 -26.823776245117188
v 65.900001525878906 5 -26.823776245117188
f 108 106 105 107
g door_24
v 67.550003051757812 3 -27.523777008056641
v 67.550003051757812 5 -27.523777008056641
v 67.550003051757812 3 -26.923776626586914
v 67.550003051757812 5 -26.923776626586914
f 112 111 109 110
g door_25
v 66.5 3 -29.351573944091797
v 66.5 5 -29.351573944091797
v 65.900001525878906 3 -29.351573944091797
v 65.900001525878906 5 -29.351573944091797
f 116 115 113 114
g door_26
v 75.025001525878906 3 -25.948776245117188
v 75.025001525878906 5 -25.948776245117188
v 75.025001525878906 3 -25.148777008056641
v 75.025001525878906 5 -25.148777008056641
f 117 119 120 118
g door_27
v 13.625 3 -25.948776245117188
v 13.625 5 -25.948776245117188
v 13.625 3 -25.148777008056641
v 13.625 5 -25.148777008056641
f 121 123 124 122
g door_28
v 8.3999996185302734 3 -10.199999809265137
v 8.3999996185302734 5 -10.199999809265137
v 7.5 3 -10.199999809265137
v 7.5 5 -10.199999809265137
f 125 127 128 126
g passage_5
v 22.850000381469727 3 -27.523777008056641
v 22.850000381469727 5 -27.523777008056641
v 22.850000381469727 3 -26.923776626586914
v 22.850000381469727 5 -26.923776626586914
f 132 131 129 130
g passage_6
v 22.850000381469727 0 -28.651575088500977
v 22.850000381469727 2 -28.651575088500977
v 22.850000381469727 0 -29.251575469970703
v 22.850000381469727 2 -29.251575469970703
f 136 134 133 135
g passage_7
v 25 3 -27.523777008056641
v 25 5 -27.523777008056641
v 25 3 -26.923776626586914
v 25 5 -26.923776626586914
f 140 138 137 139
g passage_8
v 25 0 -28.651575088500977
v 25 2 -28.651575088500977
v 25 0 -29.251575469970703
v 25 2 -29.251575469970703
f 144 143 141 142
g passage_9
v 36.450000762939453 3 -27.523777008056641
v 36.450000762939453 5 -27.523777008056641
v 36.450000762939453 3 -26.923776626586914
v 36.450000762939453 5 -26.923776626586914
f 148 147 145 146
g passage_10
v 36.450000762939453 0 -28.651575088500977
v 36.450000762939453 2 -28.651575088500977
v 36.450000762939453 0 -29.251575469970703
v 36.450000762939453 2 -29.251575469970703
f 152 150 149 151
g passage_11
v 38.599998474121094 3 -27.523777008056641
v 38.599998474121094 5 -27.523777008056641
v 38.599998474121094 3 -26.923776626586914
v 38.599998474121094 5 -26.923776626586914
f 156 154 153 155
g passage_12
v 38.599998474121094 0 -28.651575088500977
v 38.599998474121094 2 -28.651575088500977
v 38.599998474121094 0 -29.251575469970703
v 38.599998474121094 2 -29.251575469970703
f 160 159 157 158
g passage_13
v 50.049999237060547 3 -27.523777008056641
v 50.049999237060547 5 -27.523777008056641
v 50.049999237060547 3 -26.923776626586914
v 50.049999237060547 5 -26.923776626586914
f 164 163 161 162
g passage_14
v 50.049999237060547 0 -28.651575088500977
v 50.049999237060547 2 -28.651575088500977
v 50.049999237060547 0 -29.251575469970703
v 50.049999237060547 2 -29.251575469970703
f 168 166 165 167
g passage_15
v 52.200000762939453 3 -27.523777008056641
v 52.200000762939453 5 -27.523777008056641
v 52.200000762939453 3 -26.923776626586914
v 52.200000762939453 5 -26.923776626586914
f 172 170 169 171
g passage_16
v 52.200000762939453 0 -28.651575088500977
v 52.200000762939453 2 -28.651575088500977
v 52.200000762939453 0 -29.251575469970703
v 52.200000762939453 2 -29.251575469970703
f 176 175 173 174
g passage_17
v 63.650001525878906 3 -27.523777008056641
v 63.650001525878906 5 -27.523777008056641
v 63.650001525878906 3 -26.923776626586914
v 63.650001525878906 5 -26.923776626586914
f 180 179 177 178
g passage_18
v 63.650001525878906 0 -28.651575088500977
v 63.650001525878906 2 -28.651575088500977
v 63.650001525878906 0 -29.251575469970703
v 63.650001525878906 2 -29.251575469970703
f 184 182 181 183
g passage_19
v 65.800003051757812 3 -27.523777008056641
v 65.800003051757812 5 -27.523777008056641
v 65.800003051757812 3 -26.923776626586914
v 65.800003051757812 5 -26.923776626586914
f 188 186 185 187
g passage_20
v 65.800003051757812 0 -28.651575088500977
v 65.800003051757812 2 -28.651575088500977
v 65.800003051757812 0 -29.251575469970703
v 65.800003051757812 2 -29.251575469970703
f 192 191 189 190
g door_29
v 75.025001525878906 0 -26.074010848999023
v 75.025001525878906 2 -26.074010848999023
v 75.025001525878906 0 -25.17401123046875
v 75.025001525878906 2 -25.17401123046875
f 193 195 196 194
g door_30
v 77.099998474121094 0 -26.074010848999023
v 77.099998474121094 2 -26.074010848999023
v 77.099998474121094 0 -25.17401123046875
v 77.099998474121094 2 -25.17401123046875
f 197 199 200 198
g door_31
v 77.099998474121094 0 -28.323541641235352
v 77.099998474121094 2 -28.323541641235352
v 77.099998474121094 0 -27.423540115356445
v 77.099998474121094 2 -27.423540115356445
f 201 203 204 202
g door_32
v 1.75 0 -10.199999809265137
v 1.75 2 -10.199999809265137
v 0.85000002384185791 0 -10.199999809265137
v 0.85000002384185791 2 -10.199999809265137
f 205 207 208 206
g passage_21
v 8.8000001907348633 0 -26.823776245117188
v 8.8000001907348633 2 -26.823776245117188
v 7 0 -26.823776245117188
v 7 2 -26.823776245117188
f 209 211 212 210
g door_33
v 21.86964225769043 0 -29.351573944091797
v 21.86964225769043 2 -29.351573944091797
v 22.780357360839844 0 -29.351573944091797
v 22.780357360839844 2 -29.351573944091797
f 216 214 213 215
g door_34
v 66.849998474121094 0 -29.281932830810547
v 66.849998474121094 2 -29.281932830810547
v 66.849998474121094 0 -28.371217727661133
v 66.849998474121094 2 -28.371217727661133
f 220 219 217 218
g door_35
v 62.599998474121094 0 -29.281932830810547
v 62.599998474121094 2 -29.281932830810547
v 62.599998474121094 0 -28.371217727661133
v 62.599998474121094 2 -28.371217727661133
f 224 222 221 223
g door_36
v 53.25 0 -29.281932830810547
v 53.25 2 -29.281932830810547
v 53.25 0 -28.371217727661133
v 53.25 2 -28.371217727661133
f 228 227 225 226
g door_37
v 49 0 -29.281932830810547
v 49 2 -29.281932830810547
v 49 0 -28.371217727661133
v 49 2 -28.371217727661133
f 232 230 229 231
g door_38
v 39.650001525878906 0 -29.281932830810547
v 39.650001525878906 2 -29.281932830810547
v 39.650001525878906 0 -28.371217727661133
v 39.650001525878906 2 -28.371217727661133
f 236 235 233 234
g door_39
v 35.400001525878906 0 -29.281932830810547
v 35.400001525878906 2 -29.281932830810547
v 35.400001525878906 0 -28.371217727661133
v 35.400001525878906 2 -28.371217727661133
f 240 238 237 239
g door_40
v 26.049999237060547 0 -29.281932830810547
v 26.049999237060547 2 -29.281932830810547
v 26.049999237060547 0 -28.371217727661133
v 26.049999237060547 2 -28.371217727661133
f 244 243 241 242
g door_41
v 21.799999237060547 0 -29.281932830810547
v 21.799999237060547 2 -29.281932830810547
v 21.799999237060547 0 -28.371217727661133
v 21.799999237060547 2 -28.371217727661133
f 248 246 245 247
g door_42
v 66.780357360839844 0 -29.351573944091797
v 66.780357360839844 2 -29.351573944091797
v 65.869644165039062 0 -29.351573944091797
v 65.869644165039062 2 -29.351573944091797
f 252 251 249 250
g door_43
v 62.669643402099609 0 -29.351573944091797
v 62.669643402099609 2 -29.351573944091797
v 63.580356597900391 0 -29.351573944091797
v 63.580356597900391 2 -29.351573944091797
f 256 254 253 255
g door_44
v 53.18035888671875 0 -29.351573944091797
v 53.18035888671875 2 -29.351573944091797
v 52.269641876220703 0 -29.351573944091797
v 52.269641876220703 2 -29.351573944091797
f 260 259 257 258
g door_45
v 49.06964111328125 0 -29.351573944091797
v 49.06964111328125 2 -29.351573944091797
v 49.980358123779297 0 -29.351573944091797
v 49.980358123779297 2 -29.351573944091797
f 264 262 261 263
g door_46
v 39.580356597900391 0 -29.351573944091797
v 39.580356597900391 2 -29.351573944091797
v 38.669643402099609 0 -29.351573944091797
v 38.669643402099609 2 -29.351573944091797
f 268 267 265 266
g door_47
v 35.469642639160156 0 -29.351573944091797
v 35.469642639160156 2 -29.351573944091797
v 36.380355834960938 0 -29.351573944091797
v 36.380355834960938 2 -29.351573944091797
f 272 270 269 271
g door_48
v 25.980356216430664 0 -29.351573944091797
v 25.980356216430664 2 -29.351573944091797
v 25.069643020629883 0 -29.351573944091797
v 25.069643020629883 2 -29.351573944091797
f 276 275 273 274
g entrance_door_1
v 66.780357360839844 0 -26.823776245117188
v 66.780357360839844 2 -26.823776245117188
v 65.869644165039062 0 -26.823776245117188
v 65.869644165039062 2 -26.823776245117188
f 280 279 277 278
g entrance_door_2
v 62.669643402099609 0 -26.823776245117188
v 62.669643402099609 2 -26.823776245117188
v 63.580356597900391 0 -26.823776245117188
v 63.580356597900391 2 -26.823776245117188
f 284 282 281 283
g entrance_door_3
v 53.18035888671875 0 -26.823776245117188
v 53.18035888671875 2 -26.823776245117188
v 52.269641876220703 0 -26.823776245117188
v 52.269641876220703 2 -26.823776245117188
f 288 287 285 286
g entrance_door_4
v 49.06964111328125 0 -26.823776245117188
v 49.06964111328125 2 -26.823776245117188
v 49.980358123779297 0 -26.823776245117188
v 49.980358123779297 2 -26.823776245117188
f 292 290 289 291
g entrance_door_5
v 39.580356597900391 0 -26.823776245117188
v 39.580356597900391 2 -26.823776245117188
v 38.669643402099609 0 -26.823776245117188
v 38.669643402099609 2 -26.823776245117188
f 296 295 293 294
g entrance_door_6
v 35.469642639160156 0 -26.823776245117188
v 35.469642639160156 2 -26.823776245117188
v 36.380355834960938 0 -26.823776245117188
v 36.380355834960938 2 -26.823776245117188
f 300 298 297 299
g entrance_door_7
v 25.980356216430664 0 -26.823776245117188
v 25.980356216430664 2 -26.823776245117188
v 25.069643020629883 0 -26.823776245117188
v 25.069643020629883 2 -26.823776245117188
f 304 303 301 302
g entrance_door_8
v 21.86964225769043 0 -26.823776245117188
v 21.86964225769043 2 -26.823776245117188
v 22.780357360839844 0 -26.823776245117188
v 22.780357360839844 2 -26.823776245117188
f 308 306 305 307
