  0
SECTION
  2
HEADER
  9
$ACADVER
  1
AC1024
  9
$ACADMAINTVER
 70
6
  9
$DWGCODEPAGE
  3
ANSI_1252
  9
$LASTSAVEDBY
  1
ezdxf
  9
$INSBASE
 10
0.0
 20
0.0
 30
0.0
  9
$EXTMIN
 10
1e+20
 20
1e+20
 30
1e+20
  9
$EXTMAX
 10
-1e+20
 20
-1e+20
 30
-1e+20
  9
$LIMMIN
 10
0.0
 20
0.0
  9
$LIMMAX
 10
420.0
 20
297.0
  9
$ORTHOMODE
 70
0
  9
$REGENMODE
 70
1
  9
$FILLMODE
 70
1
  9
$QTEXTMODE
 70
0
  9
$MIRRTEXT
 70
1
  9
$LTSCALE
 40
1.0
  9
$ATTMODE
 70
1
  9
$TEXTSIZE
 40
2.5
  9
$TRACEWID
 40
1.0
  9
$TEXTSTYLE
  7
Standard
  9
$CLAYER
  8
0
  9
$CELTYPE
  6
ByLayer
  9
$CECOLOR
 62
256
  9
$CELTSCALE
 40
1.0
  9
$DISPSILH
 70
0
  9
$DIMSCALE
 40
1.0
  9
$DIMASZ
 40
2.5
  9
$DIMEXO
 40
0.625
  9
$DIMDLI
 40
3.75
  9
$DIMRND
 40
0.0
  9
$DIMDLE
 40
0.0
  9
$DIMEXE
 40
1.25
  9
$DIMTP
 40
0.0
  9
$DIMTM
 40
0.0
  9
$DIMTXT
 40
2.5
  9
$DIMCEN
 40
2.5
  9
$DIMTSZ
 40
0.0
  9
$DIMTOL
 70
0
  9
$DIMLIM
 70
0
  9
$DIMTIH
 70
0
  9
$DIMTOH
 70
0
  9
$DIMSE1
 70
0
  9
$DIMSE2
 70
0
  9
$DIMTAD
 70
1
  9
$DIMZIN
 70
8
  9
$DIMBLK
  1

  9
$DIMASO
 70
1
  9
$DIMSHO
 70
1
  9
$DIMPOST
  1

  9
$DIMAPOST
  1

  9
$DIMALT
 70
0
  9
$DIMALTD
 70
3
  9
$DIMALTF
 40
0.03937007874
  9
$DIMLFAC
 40
1.0
  9
$DIMTOFL
 70
1
  9
$DIMTVP
 40
0.0
  9
$DIMTIX
 70
0
  9
$DIMSOXD
 70
0
  9
$DIMSAH
 70
0
  9
$DIMBLK1
  1

  9
$DIMBLK2
  1

  9
$DIMSTYLE
  2
ISO-25
  9
$DIMCLRD
 70
0
  9
$DIMCLRE
 70
0
  9
$DIMCLRT
 70
0
  9
$DIMTFAC
 40
1.0
  9
$DIMGAP
 40
0.625
  9
$DIMJUST
 70
0
  9
$DIMSD1
 70
0
  9
$DIMSD2
 70
0
  9
$DIMTOLJ
 70
0
  9
$DIMTZIN
 70
8
  9
$DIMALTZ
 70
0
  9
$DIMALTTZ
 70
0
  9
$DIMUPT
 70
0
  9
$DIMDEC
 70
2
  9
$DIMTDEC
 70
2
  9
$DIMALTU
 70
2
  9
$DIMALTTD
 70
3
  9
$DIMTXSTY
  7
Standard
  9
$DIMAUNIT
 70
0
  9
$DIMADEC
 70
0
  9
$DIMALTRND
 40
0.0
  9
$DIMAZIN
 70
0
  9
$DIMDSEP
 70
44
  9
$DIMATFIT
 70
3
  9
$DIMFRAC
 70
0
  9
$DIMLDRBLK
  1

  9
$DIMLUNIT
 70
2
  9
$DIMLWD
 70
-2
  9
$DIMLWE
 70
-2
  9
$DIMTMOVE
 70
0
  9
$DIMFXL
 40
1.0
  9
$DIMFXLON
 70
0
  9
$DIMJOGANG
 40
0.785398163397
  9
$DIMTFILL
 70
0
  9
$DIMTFILLCLR
 70
0
  9
$DIMARCSYM
 70
0
  9
$DIMLTYPE
  6

  9
$DIMLTEX1
  6

  9
$DIMLTEX2
  6

  9
$DIMTXTDIRECTION
 70
0
  9
$LUNITS
 70
2
  9
$LUPREC
 70
4
  9
$SKETCHINC
 40
1.0
  9
$FILLETRAD
 40
10.0
  9
$AUNITS
 70
0
  9
$AUPREC
 70
2
  9
$MENU
  1
.
  9
$ELEVATION
 40
0.0
  9
$PELEVATION
 40
0.0
  9
$THICKNESS
 40
0.0
  9
$LIMCHECK
 70
0
  9
$CHAMFERA
 40
0.0
  9
$CHAMFERB
 40
0.0
  9
$CHAMFERC
 40
0.0
  9
$CHAMFERD
 40
0.0
  9
$SKPOLY
 70
0
  9
$TDCREATE
 40
2461212.7986574075
  9
$TDUCREATE
 40
2458532.153996898
  9
$TDUPDATE
 40
2461212.7986574075
  9
$TDUUPDATE
 40
2458532.1544311
  9
$TDINDWG
 40
0.0
  9
$TDUSRTIMER
 40
0.0
  9
$USRTIMER
 70
1
  9
$ANGBASE
 50
0.0
  9
$ANGDIR
 70
0
  9
$PDMODE
 70
0
  9
$PDSIZE
 40
0.0
  9
$PLINEWID
 40
0.0
  9
$SPLFRAME
 70
0
  9
$SPLINETYPE
 70
6
  9
$SPLINESEGS
 70
8
  9
$HANDSEED
  5
AC
  9
$SURFTAB1
 70
6
  9
$SURFTAB2
 70
6
  9
$SURFTYPE
 70
6
  9
$SURFU
 70
6
  9
$SURFV
 70
6
  9
$UCSBASE
  2

  9
$UCSNAME
  2

  9
$UCSORG
 10
0.0
 20
0.0
 30
0.0
  9
$UCSXDIR
 10
1.0
 20
0.0
 30
0.0
  9
$UCSYDIR
 10
0.0
 20
1.0
 30
0.0
  9
$UCSORTHOREF
  2

  9
$UCSORTHOVIEW
 70
0
  9
$UCSORGTOP
 10
0.0
 20
0.0
 30
0.0
  9
$UCSORGBOTTOM
 10
0.0
 20
0.0
 30
0.0
  9
$UCSORGLEFT
 10
0.0
 20
0.0
 30
0.0
  9
$UCSORGRIGHT
 10
0.0
 20
0.0
 30
0.0
  9
$UCSORGFRONT
 10
0.0
 20
0.0
 30
0.0
  9
$UCSORGBACK
 10
0.0
 20
0.0
 30
0.0
  9
$PUCSBASE
  2

  9
$PUCSNAME
  2

  9
$PUCSORG
 10
0.0
 20
0.0
 30
0.0
  9
$PUCSXDIR
 10
1.0
 20
0.0
 30
0.0
  9
$PUCSYDIR
 10
0.0
 20
1.0
 30
0.0
  9
$PUCSORTHOREF
  2

  9
$PUCSORTHOVIEW
 70
0
  9
$PUCSORGTOP
 10
0.0
 20
0.0
 30
0.0
  9
$PUCSORGBOTTOM
 10
0.0
 20
0.0
 30
0.0
  9
$PUCSORGLEFT
 10
0.0
 20
0.0
 30
0.0
  9
$PUCSORGRIGHT
 10
0.0
 20
0.0
 30
0.0
  9
$PUCSORGFRONT
 10
0.0
 20
0.0
 30
0.0
  9
$PUCSORGBACK
 10
0.0
 20
0.0
 30
0.0
  9
$USERI1
 70
0
  9
$USERI2
 70
0
  9
$USERI3
 70
0
  9
$USERI4
 70
0
  9
$USERI5
 70
0
  9
$USERR1
 40
0.0
  9
$USERR2
 40
0.0
  9
$USERR3
 40
0.0
  9
$USERR4
 40
0.0
  9
$USERR5
 40
0.0
  9
$WORLDVIEW
 70
1
  9
$SHADEDGE
 70
3
  9
$SHADEDIF
 70
70
  9
$TILEMODE
 70
1
  9
$MAXACTVP
 70
64
  9
$PINSBASE
 10
0.0
 20
0.0
 30
0.0
  9
$PLIMCHECK
 70
0
  9
$PEXTMIN
 10
1e+20
 20
1e+20
 30
1e+20
  9
$PEXTMAX
 10
-1e+20
 20
-1e+20
 30
-1e+20
  9
$PLIMMIN
 10
0.0
 20
0.0
  9
$PLIMMAX
 10
420.0
 20
297.0
  9
$UNITMODE
 70
0
  9
$VISRETAIN
 70
1
  9
$PLINEGEN
 70
0
  9
$PSLTSCALE
 70
1
  9
$TREEDEPTH
 70
3020
  9
$CMLSTYLE
  2
Standard
  9
$CMLJUST
 70
0
  9
$CMLSCALE
 40
20.0
  9
$PROXYGRAPHICS
 70
1
  9
$MEASUREMENT
 70
1
  9
$CELWEIGHT
370
-1
  9
$ENDCAPS
280
0
  9
$JOINSTYLE
280
0
  9
$LWDISPLAY
290
0
  9
$INSUNITS
 70
6
  9
$HYPERLINKBASE
  1

  9
$STYLESHEET
  1

  9
$XEDIT
290
1
  9
$CEPSNTYPE
380
0
  9
$PSTYLEMODE
290
1
  9
$FINGERPRINTGUID
  2
{34E6A6E4-E76A-411E-8E8C-49CFB0C62135}
  9
$VERSIONGUID
  2
{A4B4F9BF-5FEA-4B5F-BBF9-E5969EE6659F}
  9
$EXTNAMES
290
1
  9
$PSVPSCALE
 40
0.0
  9
$OLESTARTUP
290
0
  9
$SORTENTS
280
127
  9
$INDEXCTL
280
0
  9
$HIDETEXT
280
1
  9
$XCLIPFRAME
280
1
  9
$HALOGAP
280
0
  9
$OBSCOLOR
 70
257
  9
$OBSLTYPE
280
0
  9
$INTERSECTIONDISPLAY
280
0
  9
$INTERSECTIONCOLOR
 70
257
  9
$DIMASSOC
280
2
  9
$PROJECTNAME
  1

  9
$CAMERADISPLAY
290
0
  9
$LENSLENGTH
 40
50.0
  9
$CAMERAHEIGHT
 40
0.0
  9
$STEPSPERSEC
 40
24.0
  9
$STEPSIZE
 40
100.0
  9
$3DDWFPREC
 40
2.0
  9
$PSOLWIDTH
 40
0.005
  9
$PSOLHEIGHT
 40
0.08
  9
$LOFTANG1
 40
1.570796326795
  9
$LOFTANG2
 40
1.570796326795
  9
$LOFTMAG1
 40
0.0
  9
$LOFTMAG2
 40
0.0
  9
$LOFTPARAM
 70
7
  9
$LOFTNORMALS
280
1
  9
$LATITUDE
 40
37.795
  9
$LONGITUDE
 40
-122.394
  9
$NORTHDIRECTION
 40
0.0
  9
$TIMEZONE
 70
-8000
  9
$LIGHTGLYPHDISPLAY
280
1
  9
$TILEMODELIGHTSYNCH
280
1
  9
$CMATERIAL
347
20
  9
$SOLIDHIST
280
0
  9
$SHOWHIST
280
1
  9
$DWFFRAME
280
2
  9
$DGNFRAME
280
2
  9
$REALWORLDSCALE
290
1
  9
$INTERFERECOLOR
 62
256
  9
$CSHADOW
280
0
  9
$SHADOWPLANELOCATION
 40
0.0
  0
ENDSEC
  0
SECTION
  2
CLASSES
  0
CLASS
  1
ACDBDICTIONARYWDFLT
  2
AcDbDictionaryWithDefault
  3
ObjectDBX Classes
 90
0
 91
0
280
0
281
0
  0
CLASS
  1
SUN
  2
AcDbSun
  3
SCENEOE
 90
1153
 91
0
280
0
281
0
  0
CLASS
  1
VISUALSTYLE
  2
AcDbVisualStyle
  3
ObjectDBX Classes
 90
4095
 91
0
280
0
281
0
  0
CLASS
  1
MATERIAL
  2
AcDbMaterial
  3
ObjectDBX Classes
 90
1153
 91
0
280
0
281
0
  0
CLASS
  1
SCALE
  2
AcDbScale
  3
ObjectDBX Classes
 90
1153
 91
0
280
0
281
0
  0
CLASS
  1
TABLESTYLE
  2
AcDbTableStyle
  3
ObjectDBX Classes
 90
4095
 91
0
280
0
281
0
  0
CLASS
  1
MLEADERSTYLE
  2
AcDbMLeaderStyle
  3
ACDB_MLEADERSTYLE_CLASS
 90
4095
 91
0
280
0
281
0
  0
CLASS
  1
DICTIONARYVAR
  2
AcDbDictionaryVar
  3
ObjectDBX Classes
 90
0
 91
0
280
0
281
0
  0
CLASS
  1
CELLSTYLEMAP
  2
AcDbCellStyleMap
  3
ObjectDBX Classes
 90
1152
 91
0
280
0
281
0
  0
CLASS
  1
MENTALRAYRENDERSETTINGS
  2
AcDbMentalRayRenderSettings
  3
SCENEOE
 90
1024
 91
0
280
0
281
0
  0
CLASS
  1
ACDBDETAILVIEWSTYLE
  2
AcDbDetailViewStyle
  3
ObjectDBX Classes
 90
1025
 91
0
280
0
281
0
  0
CLASS
  1
ACDBSECTIONVIEWSTYLE
  2
AcDbSectionViewStyle
  3
ObjectDBX Classes
 90
1025
 91
0
280
0
281
0
  0
CLASS
  1
RASTERVARIABLES
  2
AcDbRasterVariables
  3
ISM
 90
0
 91
0
280
0
281
0
  0
CLASS
  1
ACDBPLACEHOLDER
  2
AcDbPlaceHolder
  3
ObjectDBX Classes
 90
0
 91
0
280
0
281
0
  0
CLASS
  1
LAYOUT
  2
AcDbLayout
  3
ObjectDBX Classes
 90
0
 91
0
280
0
281
0
  0
ENDSEC
  0
SECTION
  2
TABLES
  0
TABLE
  2
VPORT
  5
8
330
0
100
AcDbSymbolTable
 70
1
  0
VPORT
  5
23
330
8
100
AcDbSymbolTableRecord
100
AcDbViewportTableRecord
  2
*Active
 70
0
 10
0.0
 20
0.0
 11
1.0
 21
1.0
 12
0.0
 22
0.0
 13
0.0
 23
0.0
 14
0.5
 24
0.5
 15
0.5
 25
0.5
 16
0.0
 26
0.0
 36
1.0
 17
0.0
 27
0.0
 37
0.0
 40
1000.0
 41
1.34
 42
50.0
 43
0.0
 44
0.0
 50
0.0
 51
0.0
 71
0
 72
1000
 73
1
 74
3
 75
0
 76
0
 77
0
 78
0
281
0
 65
0
146
0.0
  0
ENDTAB
  0
TABLE
  2
LTYPE
  5
2
330
0
100
AcDbSymbolTable
 70
3
  0
LTYPE
  5
24
330
2
100
AcDbSymbolTableRecord
100
AcDbLinetypeTableRecord
  2
ByBlock
 70
0
  3

 72
65
 73
0
 40
0.0
  0
LTYPE
  5
25
330
2
100
AcDbSymbolTableRecord
100
AcDbLinetypeTableRecord
  2
ByLayer
 70
0
  3

 72
65
 73
0
 40
0.0
  0
LTYPE
  5
26
330
2
100
AcDbSymbolTableRecord
100
AcDbLinetypeTableRecord
  2
Continuous
 70
0
  3

 72
65
 73
0
 40
0.0
  0
ENDTAB
  0
TABLE
  2
LAYER
  5
1
330
0
100
AcDbSymbolTable
 70
15
  0
LAYER
  5
27
330
1
100
AcDbSymbolTableRecord
100
AcDbLayerTableRecord
  2
0
 70
0
 62
7
  6
Continuous
370
-3
390
13
347
21
  0
LAYER
  5
28
330
1
100
AcDbSymbolTableRecord
100
AcDbLayerTableRecord
  2
Defpoints
 70
0
 62
7
  6
Continuous
290
0
370
-3
390
13
347
21
  0
LAYER
  5
2F
330
1
100
AcDbSymbolTableRecord
100
AcDbLayerTableRecord
  2
Balcony
 70
0
 62
140
  6
Continuous
370
-3
390
13
347
21
  0
LAYER
  5
30
330
1
100
AcDbSymbolTableRecord
100
AcDbLayerTableRecord
  2
Bathroom
 70
0
 62
92
  6
Continuous
370
-3
390
13
347
21
  0
LAYER
  5
31
330
1
100
AcDbSymbolTableRecord
100
AcDbLayerTableRecord
  2
Bedroom
 70
0
 62
50
  6
Continuous
370
-3
390
13
347
21
  0
LAYER
  5
32
330
1
100
AcDbSymbolTableRecord
100
AcDbLayerTableRecord
  2
Corridor
 70
0
 62
30
  6
Continuous
370
-3
390
13
347
21
  0
LAYER
  5
33
330
1
100
AcDbSymbolTableRecord
100
AcDbLayerTableRecord
  2
Dining
 70
0
 62
210
  6
Continuous
370
-3
390
13
347
21
  0
LAYER
  5
34
330
1
100
AcDbSymbolTableRecord
100
AcDbLayerTableRecord
  2
Kitchen
 70
0
 62
10
  6
Continuous
370
-3
390
13
347
21
  0
LAYER
  5
35
330
1
100
AcDbSymbolTableRecord
100
AcDbLayerTableRecord
  2
LivingRoom
 70
0
 62
150
  6
Continuous
370
-3
390
13
347
21
  0
LAYER
  5
36
330
1
100
AcDbSymbolTableRecord
100
AcDbLayerTableRecord
  2
Storeroom
 70
0
 62
8
  6
Continuous
370
-3
390
13
347
21
  0
LAYER
  5
37
330
1
100
AcDbSymbolTableRecord
100
AcDbLayerTableRecord
  2
Other
 70
0
 62
255
  6
Continuous
370
-3
390
13
347
21
  0
LAYER
  5
38
330
1
100
AcDbSymbolTableRecord
100
AcDbLayerTableRecord
  2
Labels
 70
0
 62
7
  6
Continuous
370
-3
390
13
347
21
  0
LAYER
  5
39
330
1
100
AcDbSymbolTableRecord
100
AcDbLayerTableRecord
  2
Graph_nodes
 70
0
 62
5
  6
Continuous
370
-3
390
13
347
21
  0
LAYER
  5
3A
330
1
100
AcDbSymbolTableRecord
100
AcDbLayerTableRecord
  2
Graph_edges_door
 70
0
 62
150
  6
Continuous
370
-3
390
13
347
21
  0
LAYER
  5
3B
330
1
100
AcDbSymbolTableRecord
100
AcDbLayerTableRecord
  2
Graph_edges_entrance
 70
0
 62
10
  6
Continuous
370
-3
390
13
347
21
  0
ENDTAB
  0
TABLE
  2
STYLE
  5
5
330
0
100
AcDbSymbolTable
 70
1
  0
STYLE
  5
29
330
5
100
AcDbSymbolTableRecord
100
AcDbTextStyleTableRecord
  2
Standard
 70
0
 40
0.0
 41
1.0
 50
0.0
 71
0
 42
2.5
  3
txt
  4

  0
ENDTAB
  0
TABLE
  2
VIEW
  5
7
330
0
100
AcDbSymbolTable
 70
0
  0
ENDTAB
  0
TABLE
  2
UCS
  5
6
330
0
100
AcDbSymbolTable
 70
0
  0
ENDTAB
  0
TABLE
  2
APPID
  5
3
330
0
100
AcDbSymbolTable
 70
3
  0
APPID
  5
2A
330
3
100
AcDbSymbolTableRecord
100
AcDbRegAppTableRecord
  2
ACAD
 70
0
  0
APPID
  5
A9
330
3
100
AcDbSymbolTableRecord
100
AcDbRegAppTableRecord
  2
HATCHBACKGROUNDCOLOR
 70
0
  0
APPID
  5
AA
330
3
100
AcDbSymbolTableRecord
100
AcDbRegAppTableRecord
  2
EZDXF
 70
0
  0
ENDTAB
  0
TABLE
  2
DIMSTYLE
  5
4
330
0
100
AcDbSymbolTable
 70
1
100
AcDbDimStyleTable
  0
DIMSTYLE
105
2B
330
4
100
AcDbSymbolTableRecord
100
AcDbDimStyleTableRecord
  2
Standard
 70
0
 40
1.0
 41
2.5
 42
0.625
 43
3.75
 44
1.25
 45
0.0
 46
0.0
 47
0.0
 48
0.0
 49
2.5
140
2.5
141
2.5
142
0.0
143
0.03937007874
144
1.0
145
0.0
146
1.0
147
0.625
148
0.0
 69
0
 70
0
 71
0
 72
0
 73
0
 74
0
 75
0
 76
0
 77
1
 78
8
 79
3
170
0
171
3
172
1
173
0
174
0
175
0
176
0
177
0
178
0
179
2
271
2
272
2
273
2
274
3
275
0
276
0
277
2
278
44
279
0
280
0
281
0
282
0
283
0
284
8
285
0
286
0
288
0
289
3
290
0
371
-2
372
-2
  0
ENDTAB
  0
TABLE
  2
BLOCK_RECORD
  5
9
330
0
100
AcDbSymbolTable
 70
2
  0
BLOCK_RECORD
  5
17
330
9
100
AcDbSymbolTableRecord
100
AcDbBlockTableRecord
  2
*Model_Space
340
1A
 70
0
280
1
281
0
  0
BLOCK_RECORD
  5
1B
330
9
100
AcDbSymbolTableRecord
100
AcDbBlockTableRecord
  2
*Paper_Space
340
1E
 70
0
280
1
281
0
  0
ENDTAB
  0
ENDSEC
  0
SECTION
  2
BLOCKS
  0
BLOCK
  5
18
330
17
100
AcDbEntity
  8
0
100
AcDbBlockBegin
  2
*Model_Space
 70
0
 10
0.0
 20
0.0
 30
0.0
  3
*Model_Space
  1

  0
ENDBLK
  5
19
330
17
100
AcDbEntity
  8
0
100
AcDbBlockEnd
  0
BLOCK
  5
1C
330
1B
100
AcDbEntity
  8
0
100
AcDbBlockBegin
  2
*Paper_Space
 70
0
 10
0.0
 20
0.0
 30
0.0
  3
*Paper_Space
  1

  0
ENDBLK
  5
1D
330
1B
100
AcDbEntity
  8
0
100
AcDbBlockEnd
  0
ENDSEC
  0
SECTION
  2
ENTITIES
  0
LWPOLYLINE
  5
3C
330
17
100
AcDbEntity
  8
Other
100
AcDbPolyline
 90
15
 70
1
 10
-11.141265235279292
 20
-2.6662328484706688
 10
-11.134380659444325
 20
-2.66090489532999
 10
-12.397105553784838
 20
-1.0292604224426771
 10
-11.221424760376514
 20
-0.1194044885653316
 10
-11.174697235288889
 20
-0.1797839967089114
 10
-11.216004690298693
 20
-0.2117517155529747
 10
-7.134792584539902
 20
-5.4853368051381235
 10
-8.193435588753776
 20
-6.304617535623953
 10
-8.533200536578654
 20
-5.8655863565571575
 10
-8.471239354063947
 20
-5.817634778291064
 10
-8.573694516915282
 20
-5.685246163055551
 10
-9.053864365980665
 20
-6.056848207497042
 10
-11.526060936504813
 20
-2.975032981539478
 10
-11.135937282138613
 20
-2.6731174243056355
 10
-11.141265235279292
 20
-2.6662328484706688
  0
TEXT
  5
3D
330
17
100
AcDbEntity
  8
Labels
100
AcDbText
 10
-9.835382053050301
 20
-3.410349018626347
 30
0.0
 40
0.15
  1
Other
 72
1
 11
-9.835382053050301
 21
-3.410349018626347
 31
0.0
100
AcDbText
 73
2
  0
LWPOLYLINE
  5
3E
330
17
100
AcDbEntity
  8
Balcony
100
AcDbPolyline
 90
7
 70
1
 10
-5.588298049411698
 20
6.430620608509983
 10
-3.4350074874379857
 20
8.097045888363501
 10
-0.9853730959049081
 20
4.9317226786495585
 10
-3.3520855087626202
 20
3.100130851435045
 10
-5.796391947155016
 20
6.258569485314018
 10
-5.582970096271019
 20
6.423736032675013
 10
-5.588298049411698
 20
6.430620608509983
  0
TEXT
  5
3F
330
17
100
AcDbEntity
  8
Labels
100
AcDbText
 10
-3.393095537486816
 20
5.598442024045689
 30
0.0
 40
0.15
  1
Balcony
 72
1
 11
-3.393095537486816
 21
5.598442024045689
 31
0.0
100
AcDbText
 73
2
  0
LWPOLYLINE
  5
40
330
17
100
AcDbEntity
  8
Storeroom
100
AcDbPolyline
 90
7
 70
1
 10
1.4661304891315083
 20
3.9008425308282444
 10
0.114054444577949
 20
5.647943118538874
 10
1.2484277829764672
 20
6.525831333572155
 10
2.1861475357356674
 20
5.314145986617865
 10
2.385800234949727
 20
5.468656627697506
 10
2.8001565267440895
 20
4.933241386941166
 10
1.4661304891315083
 20
3.9008425308282444
  0
TEXT
  5
41
330
17
100
AcDbEntity
  8
Labels
100
AcDbText
 10
1.4154100048091272
 20
5.208749236027133
 30
0.0
 40
0.15
  1
Storeroom
 72
1
 11
1.4154100048091272
 21
5.208749236027133
 31
0.0
100
AcDbText
 73
2
  0
LWPOLYLINE
  5
42
330
17
100
AcDbEntity
  8
Dining
100
AcDbPolyline
 90
13
 70
1
 10
-5.7893554676880505
 20
3.4900334656108063
 10
-4.551713491765021
 20
4.4478409777542485
 10
-3.4500512448232925
 20
3.0243154542870965
 10
-3.9182024016010857
 20
2.6620146407210434
 10
-3.853042910734491
 20
2.577818056330301
 10
0.0298578601872066
 20
5.582783627672278
 10
0.6573322776086599
 20
4.771985353517234
 10
-1.1877340461626424
 20
3.344093911815728
 10
-0.3619013093576662
 20
2.2769846573957597
 10
-1.269083645202258
 20
1.5749188960048262
 10
-1.3383470360310596
 20
1.664418381859404
 10
-3.2384899664821063
 20
0.1939033150324772
 10
-5.7893554676880505
 20
3.4900334656108063
  0
TEXT
  5
43
330
17
100
AcDbEntity
  8
Labels
100
AcDbText
 10
-2.615877940809244
 20
2.8064936980472286
 30
0.0
 40
0.15
  1
Dining
 72
1
 11
-2.615877940809244
 21
2.8064936980472286
 31
0.0
100
AcDbText
 73
2
  0
LWPOLYLINE
  5
44
330
17
100
AcDbEntity
  8
Storeroom
100
AcDbPolyline
 90
7
 70
1
 10
-0.284589300801894
 20
2.336816195121676
 10
-1.050590499880954
 20
3.326613440985872
 10
0.7171638153345796
 20
4.694673344961462
 10
1.2966866544899318
 20
3.9458362533211293
 10
0.6633056776729163
 20
3.4556645643788215
 10
0.8497840375966206
 20
3.2147044101549582
 10
-0.284589300801894
 20
2.336816195121676
  0
TEXT
  5
45
330
17
100
AcDbEntity
  8
Labels
100
AcDbText
 10
0.1343968584851178
 20
3.5095786742790502
 30
0.0
 40
0.15
  1
Storeroom
 72
1
 11
0.1343968584851178
 21
3.5095786742790502
 31
0.0
100
AcDbText
 73
2
  0
LWPOLYLINE
  5
46
330
17
100
AcDbEntity
  8
Bedroom
100
AcDbPolyline
 90
11
 70
1
 10
-4.967948353805184
 20
2.0697765771476053
 10
-5.37413832806827
 20
1.7554273418476463
 10
-5.0118375145022185
 20
1.287276185069853
 10
-7.06874401478639
 20
-0.304557750814185
 10
-7.441700734633798
 20
0.1773625576335451
 10
-7.510546492983472
 20
0.1240830262267725
 10
-8.111381144701536
 20
0.900458421206972
 10
-8.042535386351858
 20
0.9537379526137446
 10
-8.426148012480624
 20
1.4494274127314117
 10
-5.963051537933367
 20
3.355610583915409
 10
-4.967948353805184
 20
2.0697765771476053
  0
TEXT
  5
47
330
17
100
AcDbEntity
  8
Labels
100
AcDbText
 10
-6.601367311292689
 20
1.5059666059835168
 30
0.0
 40
0.15
  1
Bedroom
 72
1
 11
-6.601367311292689
 21
1.5059666059835168
 31
0.0
100
AcDbText
 73
2
  0
LWPOLYLINE
  5
48
330
17
100
AcDbEntity
  8
Balcony
100
AcDbPolyline
 90
13
 70
1
 10
-8.748191505706647
 20
1.2222146198924033
 10
-8.742863552565968
 20
1.2153300440574366
 10
-8.522557125847008
 20
1.3858245445591084
 10
-8.133616546577567
 20
0.8832505086064746
 10
-8.11984739490763
 20
0.8939064148878284
 10
-7.51901274318957
 20
0.1175310199076289
 10
-7.532781894859504
 20
0.1068751136262751
 10
-7.084009777864146
 20
-0.4730109308821309
 10
-4.529832143091184
 20
1.5036596843091363
 10
-2.1974127206530056
 20
-1.5102028570355213
 10
-6.925534644904587
 20
-5.169282611502338
 10
-10.701829368466303
 20
-0.2897000188814758
 10
-8.748191505706647
 20
1.2222146198924033
  0
TEXT
  5
49
330
17
100
AcDbEntity
  8
Labels
100
AcDbText
 10
-6.429626813971185
 20
-1.5102763365458358
 30
0.0
 40
0.15
  1
Balcony
 72
1
 11
-6.429626813971185
 21
-1.5102763365458358
 31
0.0
100
AcDbText
 73
2
  0
LWPOLYLINE
  5
4A
330
17
100
AcDbEntity
  8
Balcony
100
AcDbPolyline
 90
9
 70
1
 10
-0.7476942968263174
 20
9.56030938142033
 10
-0.7408097209913507
 20
9.565637334561007
 10
-0.7047381021850754
 20
9.519026978087364
 10
-0.7185072538550088
 20
9.50837107180601
 10
1.3966901429938652
 20
6.775194465323894
 10
-0.9011765115141657
 20
4.996882169516153
 10
-3.3508109030472433
 20
8.162205379230096
 10
-1.0460596727042457
 20
9.945845628178514
 10
-0.7476942968263174
 20
9.56030938142033
  0
TEXT
  5
4B
330
17
100
AcDbEntity
  8
Labels
100
AcDbText
 10
-0.9770105683157526
 20
7.469714608223253
 30
0.0
 40
0.15
  1
Balcony
 72
1
 11
-0.9770105683157526
 21
7.469714608223253
 31
0.0
100
AcDbText
 73
2
  0
LWPOLYLINE
  5
4C
330
17
100
AcDbEntity
  8
Balcony
100
AcDbPolyline
 90
7
 70
1
 10
-5.901242259050655
 20
6.177426135025392
 10
-5.894357683215688
 20
6.182754088166069
 10
-4.670152514038385
 20
4.600883320494665
 10
-8.558356186423929
 20
1.5918138491904745
 10
-10.682985436375688
 20
4.337177932971397
 10
-6.801666339825115
 20
7.34091945113491
 10
-5.901242259050655
 20
6.177426135025392
  0
TEXT
  5
4D
330
17
100
AcDbEntity
  8
Labels
100
AcDbText
 10
-7.677566671419558
 20
4.467308815725026
 30
0.0
 40
0.15
  1
Balcony
 72
1
 11
-7.677566671419558
 21
4.467308815725026
 31
0.0
100
AcDbText
 73
2
  0
LWPOLYLINE
  5
4E
330
17
100
AcDbEntity
  8
Storeroom
100
AcDbPolyline
 90
9
 70
1
 10
3.5347398509821417
 20
-0.2689160140154652
 10
3.5416244268171084
 20
-0.2635880608747883
 10
3.546952379957787
 20
-0.2704726367097585
 10
4.194102508444743
 20
0.2303549585139049
 10
4.778953300740767
 20
-0.5253667089613945
 10
3.0249681371951738
 20
-1.8827707066556307
 10
2.232327172412731
 20
-0.8585505816165941
 10
3.3322776316364084
 20
-0.0073021322866982
 10
3.5347398509821417
 20
-0.2689160140154652
  0
TEXT
  5
4F
330
17
100
AcDbEntity
  8
Labels
100
AcDbText
 10
3.4777385958078146
 20
-0.7789949994278577
 30
0.0
 40
0.15
  1
Storeroom
 72
1
 11
3.4777385958078146
 21
-0.7789949994278577
 31
0.0
100
AcDbText
 73
2
  0
LWPOLYLINE
  5
50
330
17
100
AcDbEntity
  8
Dining
100
AcDbPolyline
 90
16
 70
1
 10
0.622436141078083
 20
-2.1044405510438846
 10
0.6230926215070838
 20
-2.1041920138741173
 10
0.6230166360688045
 20
-2.1039913076651935
 10
2.1550151638569517
 20
-0.9183821193425121
 10
2.9476561286393945
 20
-1.9426022443815487
 10
2.940771552804428
 20
-1.9479301975222256
 10
3.0006030905303476
 20
-2.0252422060779978
 10
4.838784838466687
 20
-0.6026787175171666
 10
5.455603349606783
 20
-1.3997078400022733
 10
1.5727025786850817
 20
-4.404673411344252
 10
1.6485179758330304
 20
-4.502639147404928
 10
2.1304382842807605
 20
-4.129682427557519
 10
3.2480843906445216
 20
-5.57386167852958
 10
1.9829041113816217
 20
-6.552981003235731
 10
-0.6798484057785501
 20
-3.1122747601230802
 10
0.622436141078083
 20
-2.1044405510438846
  0
TEXT
  5
51
330
17
100
AcDbEntity
  8
Labels
100
AcDbText
 10
2.052567260278852
 20
-3.2675395073048064
 30
0.0
 40
0.15
  1
Dining
 72
1
 11
2.052567260278852
 21
-3.2675395073048064
 31
0.0
100
AcDbText
 73
2
  0
LWPOLYLINE
  5
52
330
17
100
AcDbEntity
  8
Balcony
100
AcDbPolyline
 90
5
 70
1
 10
9.476562717170061
 20
-3.494618425274288
 10
7.206234366001901
 20
-5.251618908519317
 10
4.761927927609499
 20
-2.093180274640334
 10
7.032256278777659
 20
-0.3361797913953044
 10
9.476562717170061
 20
-3.494618425274288
  0
TEXT
  5
53
330
17
100
AcDbEntity
  8
Labels
100
AcDbText
 10
7.11924532238978
 20
-2.7938993499573104
 30
0.0
 40
0.15
  1
Balcony
 72
1
 11
7.11924532238978
 21
-2.7938993499573104
 31
0.0
100
AcDbText
 73
2
  0
LWPOLYLINE
  5
54
330
17
100
AcDbEntity
  8
Balcony
100
AcDbPolyline
 90
5
 70
1
 10
4.672710458733839
 20
-7.2123056642885555
 10
2.2284040203414364
 20
-4.053867030409572
 10
4.663962191548819
 20
-2.168995671788286
 10
7.108268629941222
 20
-5.3274343056672695
 10
4.672710458733839
 20
-7.2123056642885555
  0
TEXT
  5
55
330
17
100
AcDbEntity
  8
Labels
100
AcDbText
 10
4.668336325141329
 20
-4.690650668038421
 30
0.0
 40
0.15
  1
Balcony
 72
1
 11
4.668336325141329
 21
-4.690650668038421
 31
0.0
100
AcDbText
 73
2
  0
LWPOLYLINE
  5
56
330
17
100
AcDbEntity
  8
Storeroom
100
AcDbPolyline
 90
7
 70
1
 10
6.67417327239604
 20
-0.4566601341023961
 10
5.532915358162555
 20
-1.3398763022763553
 10
4.170183407327642
 20
0.4209934371042081
 10
5.538632324115056
 20
1.4800320589205178
 10
5.963644522190769
 20
0.9308476664942447
 10
5.7364535196368465
 20
0.7550252128518942
 10
6.67417327239604
 20
-0.4566601341023961
  0
TEXT
  5
57
330
17
100
AcDbEntity
  8
Labels
100
AcDbText
 10
5.434767959558628
 20
0.048536782874984724
 30
0.0
 40
0.15
  1
Storeroom
 72
1
 11
5.434767959558628
 21
0.048536782874984724
 31
0.0
100
AcDbText
 73
2
  0
LWPOLYLINE
  5
58
330
17
100
AcDbEntity
  8
Balcony
100
AcDbPolyline
 90
11
 70
1
 10
0.3706606931534395
 20
-4.828568409489884
 10
-2.1490940624446893
 20
-6.778599258977765
 10
-1.6843380860272958
 20
-7.379139030991075
 10
-1.6499152068524552
 20
-7.352499265287689
 10
-1.054408508275074
 20
-8.121990084432921
 10
-1.0819468116149409
 20
-8.143301896995629
 10
-0.7036621386268536
 20
-8.63210678127833
 10
-2.9189138831152803
 20
-10.346483639397944
 10
-6.711192466099028
 20
-5.446247319272173
 10
-1.9830705418474466
 20
-1.7871675648053564
 10
0.3706606931534395
 20
-4.828568409489884
  0
TEXT
  5
59
330
17
100
AcDbEntity
  8
Labels
100
AcDbText
 10
-3.026209158642971
 20
-5.901131301493513
 30
0.0
 40
0.15
  1
Balcony
 72
1
 11
-3.026209158642971
 21
-5.901131301493513
 31
0.0
100
AcDbText
 73
2
  0
LWPOLYLINE
  5
5A
330
17
100
AcDbEntity
  8
Balcony
100
AcDbPolyline
 90
5
 70
1
 10
-0.492585333433496
 20
-8.702449151035827
 10
3.361195459777207
 20
-5.720019445435019
 10
5.464512897166266
 20
-8.43784522587608
 10
1.6107321039555629
 20
-11.420274931476884
 10
-0.492585333433496
 20
-8.702449151035827
  0
TEXT
  5
5B
330
17
100
AcDbEntity
  8
Labels
100
AcDbText
 10
2.485963781866385
 20
-8.570147188455953
 30
0.0
 40
0.15
  1
Balcony
 72
1
 11
2.485963781866385
 21
-8.570147188455953
 31
0.0
100
AcDbText
 73
2
  0
LWPOLYLINE
  5
5C
330
17
100
AcDbEntity
  8
Bedroom
100
AcDbPolyline
 90
11
 70
1
 10
1.8092080411363014
 20
-6.687403884931127
 10
-0.612580978401148
 20
-8.56161933727106
 10
-0.9908656513892353
 20
-8.072814452988359
 10
-1.0459422580689761
 20
-8.115438078113778
 10
-1.6414489566463608
 20
-7.345947258968545
 10
-1.5932569258015903
 20
-7.308651586983805
 10
-1.9875254582117066
 20
-6.799192975196204
 10
0.0624964662374978
 20
-5.212686992452843
 10
0.4461090923662567
 20
-5.708376452570507
 10
0.8247607632894756
 20
-5.415339029833257
 10
1.8092080411363014
 20
-6.687403884931127
  0
TEXT
  5
5D
330
17
100
AcDbEntity
  8
Labels
100
AcDbText
 10
-0.12375860003520057
 20
-6.8155050706853455
 30
0.0
 40
0.15
  1
Bedroom
 72
1
 11
-0.12375860003520057
 21
-6.8155050706853455
 31
0.0
100
AcDbText
 73
2
  0
LWPOLYLINE
  5
5E
330
17
100
AcDbEntity
  8
Other
100
AcDbPolyline
 90
17
 70
1
 10
-7.728261979857258
 20
-7.047936324898613
 10
-7.695420775053552
 20
-7.022520612373695
 10
-7.690092821912874
 20
-7.029405188208662
 10
-7.592127085852198
 20
-6.953589791060713
 10
-7.694582248703533
 20
-6.8212011758252
 10
-7.75654343121824
 20
-6.869152754091294
 10
-8.122948144746506
 20
-6.395698695849665
 10
-7.064305140532632
 20
-5.576417965363829
 10
-2.961781222211137
 20
-10.877541358288843
 10
-2.9135891913663627
 20
-10.840245686304103
 10
-2.861533713138055
 20
-10.907509770282653
 10
-4.03032993071141
 20
-11.812037751019323
 10
-5.2983827781926
 20
-10.173508702297044
 10
-5.697688176620719
 20
-10.482529984456326
 10
-8.115354849309732
 20
-7.358514229752187
 10
-7.72293402671658
 20
-7.05482090073358
 10
-7.728261979857258
 20
-7.047936324898613
  0
TEXT
  5
5F
330
17
100
AcDbEntity
  8
Labels
100
AcDbText
 10
-5.7317677509391425
 20
-8.719838494759607
 30
0.0
 40
0.15
  1
Other
 72
1
 11
-5.7317677509391425
 21
-8.719838494759607
 31
0.0
100
AcDbText
 73
2
  0
LWPOLYLINE
  5
60
330
17
100
AcDbEntity
  8
Bedroom
100
AcDbPolyline
 90
11
 70
1
 10
8.613016593894123
 20
3.751739403699295
 10
6.741993641154075
 20
2.303760202613546
 10
5.496476659414064
 20
3.9131692736248205
 10
5.98528154369675
 20
4.291453946612906
 10
5.920122052830159
 20
4.375650531003648
 10
5.431317168547466
 20
3.997365858015563
 10
5.1714715178327495
 20
4.333128399557843
 10
5.515700309581128
 20
4.599526056591706
 10
4.370190384335515
 20
6.07970986110973
 10
5.896984545327179
 20
7.261291405161616
 10
8.613016593894123
 20
3.751739403699295
  0
TEXT
  5
61
330
17
100
AcDbEntity
  8
Labels
100
AcDbText
 10
6.454838102551624
 20
4.750988582921849
 30
0.0
 40
0.15
  1
Bedroom
 72
1
 11
6.454838102551624
 21
4.750988582921849
 31
0.0
100
AcDbText
 73
2
  0
LWPOLYLINE
  5
62
330
17
100
AcDbEntity
  8
Balcony
100
AcDbPolyline
 90
9
 70
1
 10
1.6906223107855212
 20
6.8680443877539705
 10
1.6975068866204879
 20
6.873372340894647
 10
-0.4390023227910973
 20
9.634087250716638
 10
2.857127827787231
 20
12.184952751922582
 10
6.324401269189671
 20
7.704675557729832
 10
6.12633024434674
 20
7.551388969828659
 10
6.121002291206061
 20
7.558273545663626
 10
3.0160585896356977
 20
5.155366679218178
 10
1.6906223107855212
 20
6.8680443877539705
  0
TEXT
  5
63
330
17
100
AcDbEntity
  8
Labels
100
AcDbText
 10
2.939872818551486
 20
8.670603477667477
 30
0.0
 40
0.15
  1
Balcony
 72
1
 11
2.939872818551486
 21
8.670603477667477
 31
0.0
100
AcDbText
 73
2
  0
LWPOLYLINE
  5
64
330
17
100
AcDbEntity
  8
Balcony
100
AcDbPolyline
 90
5
 70
1
 10
9.17542216757267
 20
4.063367974412959
 10
11.427922292900682
 20
1.152774070592809
 10
9.074979031712921
 20
-0.668161850340347
 10
6.8224789063848945
 20
2.242432053479803
 10
9.17542216757267
 20
4.063367974412959
  0
TEXT
  5
65
330
17
100
AcDbEntity
  8
Labels
100
AcDbText
 10
9.125200599642792
 20
1.6976030620363065
 30
0.0
 40
0.15
  1
Balcony
 72
1
 11
9.125200599642792
 21
1.6976030620363065
 31
0.0
100
AcDbText
 73
2
  0
LWPOLYLINE
  5
66
330
17
100
AcDbEntity
  8
Dining
100
AcDbPolyline
 90
21
 70
1
 10
6.724513170324222
 20
2.1666166563318523
 10
6.731397746159182
 20
2.171944609472529
 10
7.971586774758514
 20
0.5694201142962214
 10
7.119481045593666
 20
-0.0900220219692933
 10
4.199762724502527
 20
3.682725535592926
 10
4.026066654257214
 20
3.5483026538975277
 10
4.036722560538564
 20
3.5345335022275943
 10
2.5978462110303475
 20
2.4209912958260453
 10
2.661781648718474
 20
2.338376385806434
 10
1.9267137087480748
 20
1.769509452932434
 10
0.9635782434639566
 20
3.0140360046904267
 10
1.7071124336404537
 20
3.589454943883572
 10
1.6112092771082622
 20
3.7133773089129907
 10
3.020965648905481
 20
4.804383649573364
 10
3.3086751185020518
 20
4.432616554485115
 10
3.4754866129124053
 20
4.561711483039838
 10
3.0758901273616104
 20
5.0780546706624055
 10
4.237801769099995
 20
5.977254698258394
 10
5.323480156619695
 20
4.574382902296142
 10
5.034327971551058
 20
4.350608870387697
 10
6.724513170324222
 20
2.1666166563318523
  0
TEXT
  5
67
330
17
100
AcDbEntity
  8
Labels
100
AcDbText
 10
4.3623491039274365
 20
3.149212087716492
 30
0.0
 40
0.15
  1
Dining
 72
1
 11
4.3623491039274365
 21
3.149212087716492
 31
0.0
100
AcDbText
 73
2
  0
LWPOLYLINE
  5
68
330
17
100
AcDbEntity
  8
Balcony
100
AcDbPolyline
 90
7
 70
1
 10
10.494770996551836
 20
-4.280754450291115
 10
7.272583399620558
 20
-0.1171677445068777
 10
8.042074218765798
 20
0.4783389540705087
 10
9.054385315494471
 20
-0.8297304545733226
 10
11.498409736907952
 20
1.061692910367107
 10
13.70828623711055
 20
-1.7938243867732986
 10
10.494770996551836
 20
-4.280754450291115
  0
TEXT
  5
69
330
17
100
AcDbEntity
  8
Labels
100
AcDbText
 10
10.716543947429374
 20
-1.4972315468462583
 30
0.0
 40
0.15
  1
Balcony
 72
1
 11
10.716543947429374
 21
-1.4972315468462583
 31
0.0
100
AcDbText
 73
2
  0
LWPOLYLINE
  5
6A
330
17
100
AcDbEntity
  8
Storeroom
100
AcDbPolyline
 90
7
 70
1
 10
5.453958095958718
 20
1.7032363301262219
 10
4.195662392530785
 20
0.7294449585607499
 10
3.273926499193621
 20
1.9204765780101365
 10
3.1706578616691097
 20
1.8405572808999775
 10
2.7349897573120394
 20
2.4035108249961876
 10
4.096554098264484
 20
3.4572214936718186
 10
5.453958095958718
 20
1.7032363301262219
  0
TEXT
  5
6B
330
17
100
AcDbEntity
  8
Labels
100
AcDbText
 10
4.116807833886801
 20
2.095095394886867
 30
0.0
 40
0.15
  1
Storeroom
 72
1
 11
4.116807833886801
 21
2.095095394886867
 31
0.0
100
AcDbText
 73
2
  0
LWPOLYLINE
  5
6C
330
17
100
AcDbEntity
  8
Other
100
AcDbPolyline
 90
23
 70
1
 10
2.057340044306059
 20
13.60245401618986
 10
2.7007983211495414
 20
12.771002014529918
 10
2.638837138634834
 20
12.723050436263824
 10
2.7294123420263503
 20
12.606012647069376
 10
2.6054899769969353
 20
12.510109490537186
 10
2.610817930137607
 20
12.50322491470222
 10
-0.6095818862560805
 20
10.010966898043723
 10
-0.9772106529628104
 20
10.486002630656483
 10
-0.9840952287977771
 20
10.480674677515806
 10
-0.9894231819384558
 20
10.487559253350776
 10
-1.0858072436279969
 20
10.412967909381296
 10
-1.5747548793918398
 20
11.044767211827178
 10
-0.8587589925552095
 20
11.598874338457613
 10
-1.1571243684331378
 20
11.984410585215796
 10
1.2371263477644376
 20
13.837314224993019
 10
1.5289397173232224
 20
13.460244228440933
 10
1.5082859898183187
 20
13.4442603690189
 10
1.6373809183730401
 20
13.277448874608547
 10
1.797307836948427
 20
13.401215850022593
 10
1.7387003524009756
 20
13.476946184207238
 10
1.9298868014089336
 20
13.624904818967734
 10
1.988494285956385
 20
13.549174484783089
 10
2.057340044306059
 20
13.60245401618986
  0
TEXT
  5
6D
330
17
100
AcDbEntity
  8
Labels
100
AcDbText
 10
0.527325828405713
 20
12.01364753333982
 30
0.0
 40
0.15
  1
Other
 72
1
 11
0.527325828405713
 21
12.01364753333982
 31
0.0
100
AcDbText
 73
2
  0
LWPOLYLINE
  5
6E
330
17
100
AcDbEntity
  8
Dining
100
AcDbPolyline
 90
31
 70
1
 10
-2.1797505339403713
 20
-0.6628735141131035
 10
-2.2292741225554167
 20
-0.4745853444749137
 10
-2.22755153806699
 20
-0.1004767087163358
 10
-2.0980614782755183
 20
0.4488541077187254
 10
-1.7785386531583143
 20
0.9359511962683005
 10
-1.3587635723490408
 20
1.2608139058656231
 10
-1.3374517597863331
 20
1.2332756025257527
 10
0.7898821732186398
 20
2.8796131229950266
 10
1.8116251230502058
 20
1.5593562370523895
 10
0.9717068711841677
 20
0.9093459538897637
 10
1.0741620340355027
 20
0.7769573386542472
 10
1.1705460957250473
 20
0.8515486826237293
 10
2.1816331392752595
 20
-0.4549390516489744
 10
2.0990182292556483
 20
-0.5188744893371027
 10
2.1949213857878433
 20
-0.6427968543665177
 10
0.5504167898254444
 20
-1.9154741604125398
 10
-0.0081955692359728
 20
-2.1269594211839316
 10
-0.6353410684720195
 20
-2.1240717275951972
 10
-0.6341485159678797
 20
-2.118083908098651
 10
-1.1560179242303619
 20
-2.014146795428978
 10
-1.137556753165157
 20
-1.9798087479659952
 10
-1.3425891250235864
 20
-1.8695771544292725
 10
-1.697957600629742
 20
-1.5892882566247142
 10
-1.6885579163137976
 20
-1.5811929192582141
 10
-1.8826021042859296
 20
-1.3558837038783835
 10
-1.8697316492466385
 20
-1.347288429396606
 10
-2.026526224172816
 20
-1.1125062207223344
 10
-2.0127397886588625
 20
-1.1058605311973526
 10
-2.123212423331246
 20
-0.8766858386028957
 10
-2.1794688655103087
 20
-0.6627994296314128
 10
-2.1797505339403713
 20
-0.6628735141131035
  0
TEXT
  5
6F
330
17
100
AcDbEntity
  8
Labels
100
AcDbText
 10
-0.0808331903329348
 20
0.0588133384894087
 30
0.0
 40
0.15
  1
Dining
 72
1
 11
-0.0808331903329348
 21
0.0588133384894087
 31
0.0
100
AcDbText
 73
2
  0
LWPOLYLINE
  5
70
330
17
100
AcDbEntity
  8
Kitchen
100
AcDbPolyline
 90
7
 70
1
 10
2.0824484030061825
 20
1.5682750793472433
 10
2.5765561887527184
 20
1.9506636522975374
 10
3.5929711854436093
 20
0.6372913421898634
 10
2.1900993894813574
 20
-0.4483870453298309
 10
1.1790123459311452
 20
0.8581006889428728
 10
2.087776356146861
 20
1.561390503512273
 10
2.0824484030061825
 20
1.5682750793472433
  0
TEXT
  5
71
330
17
100
AcDbEntity
  8
Labels
100
AcDbText
 10
2.3858920511947628
 20
0.7495640006831037
 30
0.0
 40
0.15
  1
Kitchen
 72
1
 11
2.3858920511947628
 21
0.7495640006831037
 31
0.0
100
AcDbText
 73
2
  0
CIRCLE
  5
72
330
17
100
AcDbEntity
  8
Graph_nodes
100
AcDbCircle
 10
-9.835382053050301
 20
-3.410349018626347
 30
0.0
 40
0.08
  0
CIRCLE
  5
73
330
17
100
AcDbEntity
  8
Graph_nodes
100
AcDbCircle
 10
-3.393095537486816
 20
5.598442024045689
 30
0.0
 40
0.08
  0
CIRCLE
  5
74
330
17
100
AcDbEntity
  8
Graph_nodes
100
AcDbCircle
 10
1.4154100048091272
 20
5.208749236027133
 30
0.0
 40
0.08
  0
CIRCLE
  5
75
330
17
100
AcDbEntity
  8
Graph_nodes
100
AcDbCircle
 10
-2.615877940809244
 20
2.8064936980472286
 30
0.0
 40
0.08
  0
CIRCLE
  5
76
330
17
100
AcDbEntity
  8
Graph_nodes
100
AcDbCircle
 10
0.1343968584851178
 20
3.5095786742790502
 30
0.0
 40
0.08
  0
CIRCLE
  5
77
330
17
100
AcDbEntity
  8
Graph_nodes
100
AcDbCircle
 10
-6.601367311292689
 20
1.5059666059835168
 30
0.0
 40
0.08
  0
CIRCLE
  5
78
330
17
100
AcDbEntity
  8
Graph_nodes
100
AcDbCircle
 10
-6.429626813971185
 20
-1.5102763365458358
 30
0.0
 40
0.08
  0
CIRCLE
  5
79
330
17
100
AcDbEntity
  8
Graph_nodes
100
AcDbCircle
 10
-0.9770105683157526
 20
7.469714608223253
 30
0.0
 40
0.08
  0
CIRCLE
  5
7A
330
17
100
AcDbEntity
  8
Graph_nodes
100
AcDbCircle
 10
-7.677566671419558
 20
4.467308815725026
 30
0.0
 40
0.08
  0
CIRCLE
  5
7B
330
17
100
AcDbEntity
  8
Graph_nodes
100
AcDbCircle
 10
3.4777385958078146
 20
-0.7789949994278577
 30
0.0
 40
0.08
  0
CIRCLE
  5
7C
330
17
100
AcDbEntity
  8
Graph_nodes
100
AcDbCircle
 10
2.052567260278852
 20
-3.2675395073048064
 30
0.0
 40
0.08
  0
CIRCLE
  5
7D
330
17
100
AcDbEntity
  8
Graph_nodes
100
AcDbCircle
 10
7.11924532238978
 20
-2.7938993499573104
 30
0.0
 40
0.08
  0
CIRCLE
  5
7E
330
17
100
AcDbEntity
  8
Graph_nodes
100
AcDbCircle
 10
4.668336325141329
 20
-4.690650668038421
 30
0.0
 40
0.08
  0
CIRCLE
  5
7F
330
17
100
AcDbEntity
  8
Graph_nodes
100
AcDbCircle
 10
5.434767959558628
 20
0.048536782874984724
 30
0.0
 40
0.08
  0
CIRCLE
  5
80
330
17
100
AcDbEntity
  8
Graph_nodes
100
AcDbCircle
 10
-3.026209158642971
 20
-5.901131301493513
 30
0.0
 40
0.08
  0
CIRCLE
  5
81
330
17
100
AcDbEntity
  8
Graph_nodes
100
AcDbCircle
 10
2.485963781866385
 20
-8.570147188455953
 30
0.0
 40
0.08
  0
CIRCLE
  5
82
330
17
100
AcDbEntity
  8
Graph_nodes
100
AcDbCircle
 10
-0.12375860003520057
 20
-6.8155050706853455
 30
0.0
 40
0.08
  0
CIRCLE
  5
83
330
17
100
AcDbEntity
  8
Graph_nodes
100
AcDbCircle
 10
-5.7317677509391425
 20
-8.719838494759607
 30
0.0
 40
0.08
  0
CIRCLE
  5
84
330
17
100
AcDbEntity
  8
Graph_nodes
100
AcDbCircle
 10
6.454838102551624
 20
4.750988582921849
 30
0.0
 40
0.08
  0
CIRCLE
  5
85
330
17
100
AcDbEntity
  8
Graph_nodes
100
AcDbCircle
 10
2.939872818551486
 20
8.670603477667477
 30
0.0
 40
0.08
  0
CIRCLE
  5
86
330
17
100
AcDbEntity
  8
Graph_nodes
100
AcDbCircle
 10
9.125200599642792
 20
1.6976030620363065
 30
0.0
 40
0.08
  0
CIRCLE
  5
87
330
17
100
AcDbEntity
  8
Graph_nodes
100
AcDbCircle
 10
4.3623491039274365
 20
3.149212087716492
 30
0.0
 40
0.08
  0
CIRCLE
  5
88
330
17
100
AcDbEntity
  8
Graph_nodes
100
AcDbCircle
 10
10.716543947429374
 20
-1.4972315468462583
 30
0.0
 40
0.08
  0
CIRCLE
  5
89
330
17
100
AcDbEntity
  8
Graph_nodes
100
AcDbCircle
 10
4.116807833886801
 20
2.095095394886867
 30
0.0
 40
0.08
  0
CIRCLE
  5
8A
330
17
100
AcDbEntity
  8
Graph_nodes
100
AcDbCircle
 10
0.527325828405713
 20
12.01364753333982
 30
0.0
 40
0.08
  0
CIRCLE
  5
8B
330
17
100
AcDbEntity
  8
Graph_nodes
100
AcDbCircle
 10
-0.0808331903329348
 20
0.0588133384894087
 30
0.0
 40
0.08
  0
CIRCLE
  5
8C
330
17
100
AcDbEntity
  8
Graph_nodes
100
AcDbCircle
 10
2.3858920511947628
 20
0.7495640006831037
 30
0.0
 40
0.08
  0
LINE
  5
8D
330
17
100
AcDbEntity
  8
Graph_edges_door
100
AcDbLine
 10
-9.835382053050301
 20
-3.410349018626347
 30
0.0
 11
-6.429626813971185
 21
-1.5102763365458358
 31
0.0
  0
LINE
  5
8E
330
17
100
AcDbEntity
  8
Graph_edges_door
100
AcDbLine
 10
-3.393095537486816
 20
5.598442024045689
 30
0.0
 11
-2.615877940809244
 21
2.8064936980472286
 31
0.0
  0
LINE
  5
8F
330
17
100
AcDbEntity
  8
Graph_edges_door
100
AcDbLine
 10
1.4154100048091272
 20
5.208749236027133
 30
0.0
 11
-2.615877940809244
 21
2.8064936980472286
 31
0.0
  0
LINE
  5
90
330
17
100
AcDbEntity
  8
Graph_edges_door
100
AcDbLine
 10
-2.615877940809244
 20
2.8064936980472286
 30
0.0
 11
0.1343968584851178
 21
3.5095786742790502
 31
0.0
  0
LINE
  5
91
330
17
100
AcDbEntity
  8
Graph_edges_door
100
AcDbLine
 10
-2.615877940809244
 20
2.8064936980472286
 30
0.0
 11
-6.601367311292689
 21
1.5059666059835168
 31
0.0
  0
LINE
  5
92
330
17
100
AcDbEntity
  8
Graph_edges_door
100
AcDbLine
 10
-2.615877940809244
 20
2.8064936980472286
 30
0.0
 11
-6.429626813971185
 21
-1.5102763365458358
 31
0.0
  0
LINE
  5
93
330
17
100
AcDbEntity
  8
Graph_edges_door
100
AcDbLine
 10
-2.615877940809244
 20
2.8064936980472286
 30
0.0
 11
-0.9770105683157526
 21
7.469714608223253
 31
0.0
  0
LINE
  5
94
330
17
100
AcDbEntity
  8
Graph_edges_door
100
AcDbLine
 10
-2.615877940809244
 20
2.8064936980472286
 30
0.0
 11
-7.677566671419558
 21
4.467308815725026
 31
0.0
  0
LINE
  5
95
330
17
100
AcDbEntity
  8
Graph_edges_entrance
100
AcDbLine
 10
-2.615877940809244
 20
2.8064936980472286
 30
0.0
 11
-0.0808331903329348
 21
0.0588133384894087
 31
0.0
  0
LINE
  5
96
330
17
100
AcDbEntity
  8
Graph_edges_door
100
AcDbLine
 10
-6.601367311292689
 20
1.5059666059835168
 30
0.0
 11
-6.429626813971185
 21
-1.5102763365458358
 31
0.0
  0
LINE
  5
97
330
17
100
AcDbEntity
  8
Graph_edges_door
100
AcDbLine
 10
3.4777385958078146
 20
-0.7789949994278577
 30
0.0
 11
2.052567260278852
 21
-3.2675395073048064
 31
0.0
  0
LINE
  5
98
330
17
100
AcDbEntity
  8
Graph_edges_door
100
AcDbLine
 10
2.052567260278852
 20
-3.2675395073048064
 30
0.0
 11
7.11924532238978
 21
-2.7938993499573104
 31
0.0
  0
LINE
  5
99
330
17
100
AcDbEntity
  8
Graph_edges_door
100
AcDbLine
 10
2.052567260278852
 20
-3.2675395073048064
 30
0.0
 11
4.668336325141329
 21
-4.690650668038421
 31
0.0
  0
LINE
  5
9A
330
17
100
AcDbEntity
  8
Graph_edges_door
100
AcDbLine
 10
2.052567260278852
 20
-3.2675395073048064
 30
0.0
 11
5.434767959558628
 21
0.048536782874984724
 31
0.0
  0
LINE
  5
9B
330
17
100
AcDbEntity
  8
Graph_edges_door
100
AcDbLine
 10
2.052567260278852
 20
-3.2675395073048064
 30
0.0
 11
-3.026209158642971
 21
-5.901131301493513
 31
0.0
  0
LINE
  5
9C
330
17
100
AcDbEntity
  8
Graph_edges_door
100
AcDbLine
 10
2.052567260278852
 20
-3.2675395073048064
 30
0.0
 11
2.485963781866385
 21
-8.570147188455953
 31
0.0
  0
LINE
  5
9D
330
17
100
AcDbEntity
  8
Graph_edges_door
100
AcDbLine
 10
2.052567260278852
 20
-3.2675395073048064
 30
0.0
 11
-0.12375860003520057
 21
-6.8155050706853455
 31
0.0
  0
LINE
  5
9E
330
17
100
AcDbEntity
  8
Graph_edges_entrance
100
AcDbLine
 10
2.052567260278852
 20
-3.2675395073048064
 30
0.0
 11
-0.0808331903329348
 21
0.0588133384894087
 31
0.0
  0
LINE
  5
9F
330
17
100
AcDbEntity
  8
Graph_edges_door
100
AcDbLine
 10
-3.026209158642971
 20
-5.901131301493513
 30
0.0
 11
-0.12375860003520057
 21
-6.8155050706853455
 31
0.0
  0
LINE
  5
A0
330
17
100
AcDbEntity
  8
Graph_edges_door
100
AcDbLine
 10
-3.026209158642971
 20
-5.901131301493513
 30
0.0
 11
-5.7317677509391425
 21
-8.719838494759607
 31
0.0
  0
LINE
  5
A1
330
17
100
AcDbEntity
  8
Graph_edges_door
100
AcDbLine
 10
6.454838102551624
 20
4.750988582921849
 30
0.0
 11
4.3623491039274365
 21
3.149212087716492
 31
0.0
  0
LINE
  5
A2
330
17
100
AcDbEntity
  8
Graph_edges_door
100
AcDbLine
 10
2.939872818551486
 20
8.670603477667477
 30
0.0
 11
4.3623491039274365
 21
3.149212087716492
 31
0.0
  0
LINE
  5
A3
330
17
100
AcDbEntity
  8
Graph_edges_door
100
AcDbLine
 10
2.939872818551486
 20
8.670603477667477
 30
0.0
 11
0.527325828405713
 21
12.01364753333982
 31
0.0
  0
LINE
  5
A4
330
17
100
AcDbEntity
  8
Graph_edges_door
100
AcDbLine
 10
9.125200599642792
 20
1.6976030620363065
 30
0.0
 11
4.3623491039274365
 21
3.149212087716492
 31
0.0
  0
LINE
  5
A5
330
17
100
AcDbEntity
  8
Graph_edges_door
100
AcDbLine
 10
4.3623491039274365
 20
3.149212087716492
 30
0.0
 11
10.716543947429374
 21
-1.4972315468462583
 31
0.0
  0
LINE
  5
A6
330
17
100
AcDbEntity
  8
Graph_edges_door
100
AcDbLine
 10
4.3623491039274365
 20
3.149212087716492
 30
0.0
 11
4.116807833886801
 21
2.095095394886867
 31
0.0
  0
LINE
  5
A7
330
17
100
AcDbEntity
  8
Graph_edges_entrance
100
AcDbLine
 10
4.3623491039274365
 20
3.149212087716492
 30
0.0
 11
-0.0808331903329348
 21
0.0588133384894087
 31
0.0
  0
LINE
  5
A8
330
17
100
AcDbEntity
  8
Graph_edges_door
100
AcDbLine
 10
-0.0808331903329348
 20
0.0588133384894087
 30
0.0
 11
2.3858920511947628
 21
0.7495640006831037
 31
0.0
  0
ENDSEC
  0
SECTION
  2
OBJECTS
  0
DICTIONARY
  5
A
330
0
100
AcDbDictionary
281
1
  3
ACAD_COLOR
350
B
  3
ACAD_GROUP
350
C
  3
ACAD_LAYOUT
350
D
  3
ACAD_MATERIAL
350
E
  3
ACAD_MLEADERSTYLE
350
F
  3
ACAD_MLINESTYLE
350
10
  3
ACAD_PLOTSETTINGS
350
11
  3
ACAD_PLOTSTYLENAME
350
12
  3
ACAD_SCALELIST
350
14
  3
ACAD_TABLESTYLE
350
15
  3
ACAD_VISUALSTYLE
350
16
  3
EZDXF_META
350
2D
  0
DICTIONARY
  5
B
330
A
100
AcDbDictionary
281
1
  0
DICTIONARY
  5
C
330
A
100
AcDbDictionary
281
1
  0
DICTIONARY
  5
D
330
A
100
AcDbDictionary
281
1
  3
Model
350
1A
  3
Layout1
350
1E
  0
DICTIONARY
  5
E
330
A
100
AcDbDictionary
281
1
  3
ByBlock
350
1F
  3
ByLayer
350
20
  3
Global
350
21
  0
DICTIONARY
  5
F
330
A
100
AcDbDictionary
281
1
  3
Standard
350
2C
  0
DICTIONARY
  5
10
330
A
100
AcDbDictionary
281
1
  3
Standard
350
22
  0
DICTIONARY
  5
11
330
A
100
AcDbDictionary
281
1
  0
ACDBDICTIONARYWDFLT
  5
12
330
A
100
AcDbDictionary
281
1
  3
Normal
350
13
100
AcDbDictionaryWithDefault
340
13
  0
ACDBPLACEHOLDER
  5
13
330
12
  0
DICTIONARY
  5
14
330
A
100
AcDbDictionary
281
1
  0
DICTIONARY
  5
15
330
A
100
AcDbDictionary
281
1
  0
DICTIONARY
  5
16
330
A
100
AcDbDictionary
281
1
  0
LAYOUT
  5
1A
330
D
100
AcDbPlotSettings
  1

  4
A3
  6

 40
7.5
 41
20.0
 42
7.5
 43
20.0
 44
420.0
 45
297.0
 46
0.0
 47
0.0
 48
0.0
 49
0.0
140
0.0
141
0.0
142
1.0
143
1.0
 70
1024
 72
1
 73
0
 74
5
  7

 75
16
 76
0
 77
2
 78
300
147
1.0
148
0.0
149
0.0
100
AcDbLayout
  1
Model
 70
1
 71
0
 10
0.0
 20
0.0
 11
420.0
 21
297.0
 12
0.0
 22
0.0
 32
0.0
 14
1e+20
 24
1e+20
 34
1e+20
 15
-1e+20
 25
-1e+20
 35
-1e+20
146
0.0
 13
0.0
 23
0.0
 33
0.0
 16
1.0
 26
0.0
 36
0.0
 17
0.0
 27
1.0
 37
0.0
 76
1
330
17
  0
LAYOUT
  5
1E
330
D
100
AcDbPlotSettings
  1

  4
A3
  6

 40
7.5
 41
20.0
 42
7.5
 43
20.0
 44
420.0
 45
297.0
 46
0.0
 47
0.0
 48
0.0
 49
0.0
140
0.0
141
0.0
142
1.0
143
1.0
 70
0
 72
1
 73
0
 74
5
  7

 75
16
 76
0
 77
2
 78
300
147
1.0
148
0.0
149
0.0
100
AcDbLayout
  1
Layout1
 70
1
 71
1
 10
0.0
 20
0.0
 11
420.0
 21
297.0
 12
0.0
 22
0.0
 32
0.0
 14
1e+20
 24
1e+20
 34
1e+20
 15
-1e+20
 25
-1e+20
 35
-1e+20
146
0.0
 13
0.0
 23
0.0
 33
0.0
 16
1.0
 26
0.0
 36
0.0
 17
0.0
 27
1.0
 37
0.0
 76
1
330
1B
  0
MATERIAL
  5
1F
102
{ACAD_REACTORS
330
E
102
}
330
E
100
AcDbMaterial
  1
ByBlock
  2

 70
0
 40
1.0
 71
1
 41
1.0
 91
-1023410177
 42
1.0
 72
1
  3

 73
1
 74
1
 75
1
 44
0.5
 73
0
 45
1.0
 46
1.0
 77
1
  4

 78
1
 79
1
170
1
 48
1.0
171
1
  6

172
1
173
1
174
1
140
1.0
141
1.0
175
1
  7

176
1
177
1
178
1
143
1.0
179
1
  8

270
1
271
1
272
1
145
1.0
146
1.0
273
1
  9

274
1
275
1
276
1
 42
1.0
 72
1
  3

 73
1
 74
1
 75
1
 94
63
  0
MATERIAL
  5
20
102
{ACAD_REACTORS
330
E
102
}
330
E
100
AcDbMaterial
  1
ByLayer
  2

 70
0
 40
1.0
 71
1
 41
1.0
 91
-1023410177
 42
1.0
 72
1
  3

 73
1
 74
1
 75
1
 44
0.5
 73
0
 45
1.0
 46
1.0
 77
1
  4

 78
1
 79
1
170
1
 48
1.0
171
1
  6

172
1
173
1
174
1
140
1.0
141
1.0
175
1
  7

176
1
177
1
178
1
143
1.0
179
1
  8

270
1
271
1
272
1
145
1.0
146
1.0
273
1
  9

274
1
275
1
276
1
 42
1.0
 72
1
  3

 73
1
 74
1
 75
1
 94
63
  0
MATERIAL
  5
21
102
{ACAD_REACTORS
330
E
102
}
330
E
100
AcDbMaterial
  1
Global
  2

 70
0
 40
1.0
 71
1
 41
1.0
 91
-1023410177
 42
1.0
 72
1
  3

 73
1
 74
1
 75
1
 44
0.5
 73
0
 45
1.0
 46
1.0
 77
1
  4

 78
1
 79
1
170
1
 48
1.0
171
1
  6

172
1
173
1
174
1
140
1.0
141
1.0
175
1
  7

176
1
177
1
178
1
143
1.0
179
1
  8

270
1
271
1
272
1
145
1.0
146
1.0
273
1
  9

274
1
275
1
276
1
 42
1.0
 72
1
  3

 73
1
 74
1
 75
1
 94
63
  0
MLINESTYLE
  5
22
102
{ACAD_REACTORS
330
10
102
}
330
10
100
AcDbMlineStyle
  2
Standard
 70
0
  3

 62
256
 51
90.0
 52
90.0
 71
2
 49
0.5
 62
256
  6
BYLAYER
 49
-0.5
 62
256
  6
BYLAYER
  0
MLEADERSTYLE
  5
2C
102
{ACAD_REACTORS
330
F
102
}
330
F
100
AcDbMLeaderStyle
179
2
170
2
171
1
172
0
 90
2
 40
0.0
 41
0.0
173
1
 91
-1056964608
 92
-2
290
1
 42
2.0
291
1
 43
8.0
  3
Standard
 44
4.0
300

342
29
174
1
175
1
176
0
178
1
 93
-1056964608
 45
4.0
292
0
297
0
 46
4.0
 94
-1056964608
 47
1.0
 49
1.0
140
1.0
294
1
141
0.0
177
0
142
1.0
295
0
296
0
143
3.75
271
0
272
9
273
9
  0
DICTIONARY
  5
2D
330
A
100
AcDbDictionary
280
1
281
1
  3
CREATED_BY_EZDXF
350
2E
  3
WRITTEN_BY_EZDXF
350
AB
  0
DICTIONARYVAR
  5
2E
330
2D
100
DictionaryVariables
280
0
  1
1.4.4 @ 2026-06-20T16:10:04.558103+00:00
  0
DICTIONARYVAR
  5
AB
330
2D
100
DictionaryVariables
280
0
  1
1.4.4 @ 2026-06-20T16:10:04.566110+00:00
  0
ENDSEC
  0
EOF
