  0
SECTION
  2
HEADER
  9
$ACADVER
  1
AC1024
  9
$ACADMAINTVER
 70
6
  9
$DWGCODEPAGE
  3
ANSI_1252
  9
$LASTSAVEDBY
  1
ezdxf
  9
$INSBASE
 10
0.0
 20
0.0
 30
0.0
  9
$EXTMIN
 10
1e+20
 20
1e+20
 30
1e+20
  9
$EXTMAX
 10
-1e+20
 20
-1e+20
 30
-1e+20
  9
$LIMMIN
 10
0.0
 20
0.0
  9
$LIMMAX
 10
420.0
 20
297.0
  9
$ORTHOMODE
 70
0
  9
$REGENMODE
 70
1
  9
$FILLMODE
 70
1
  9
$QTEXTMODE
 70
0
  9
$MIRRTEXT
 70
1
  9
$LTSCALE
 40
1.0
  9
$ATTMODE
 70
1
  9
$TEXTSIZE
 40
2.5
  9
$TRACEWID
 40
1.0
  9
$TEXTSTYLE
  7
Standard
  9
$CLAYER
  8
0
  9
$CELTYPE
  6
ByLayer
  9
$CECOLOR
 62
256
  9
$CELTSCALE
 40
1.0
  9
$DISPSILH
 70
0
  9
$DIMSCALE
 40
1.0
  9
$DIMASZ
 40
2.5
  9
$DIMEXO
 40
0.625
  9
$DIMDLI
 40
3.75
  9
$DIMRND
 40
0.0
  9
$DIMDLE
 40
0.0
  9
$DIMEXE
 40
1.25
  9
$DIMTP
 40
0.0
  9
$DIMTM
 40
0.0
  9
$DIMTXT
 40
2.5
  9
$DIMCEN
 40
2.5
  9
$DIMTSZ
 40
0.0
  9
$DIMTOL
 70
0
  9
$DIMLIM
 70
0
  9
$DIMTIH
 70
0
  9
$DIMTOH
 70
0
  9
$DIMSE1
 70
0
  9
$DIMSE2
 70
0
  9
$DIMTAD
 70
1
  9
$DIMZIN
 70
8
  9
$DIMBLK
  1

  9
$DIMASO
 70
1
  9
$DIMSHO
 70
1
  9
$DIMPOST
  1

  9
$DIMAPOST
  1

  9
$DIMALT
 70
0
  9
$DIMALTD
 70
3
  9
$DIMALTF
 40
0.03937007874
  9
$DIMLFAC
 40
1.0
  9
$DIMTOFL
 70
1
  9
$DIMTVP
 40
0.0
  9
$DIMTIX
 70
0
  9
$DIMSOXD
 70
0
  9
$DIMSAH
 70
0
  9
$DIMBLK1
  1

  9
$DIMBLK2
  1

  9
$DIMSTYLE
  2
ISO-25
  9
$DIMCLRD
 70
0
  9
$DIMCLRE
 70
0
  9
$DIMCLRT
 70
0
  9
$DIMTFAC
 40
1.0
  9
$DIMGAP
 40
0.625
  9
$DIMJUST
 70
0
  9
$DIMSD1
 70
0
  9
$DIMSD2
 70
0
  9
$DIMTOLJ
 70
0
  9
$DIMTZIN
 70
8
  9
$DIMALTZ
 70
0
  9
$DIMALTTZ
 70
0
  9
$DIMUPT
 70
0
  9
$DIMDEC
 70
2
  9
$DIMTDEC
 70
2
  9
$DIMALTU
 70
2
  9
$DIMALTTD
 70
3
  9
$DIMTXSTY
  7
Standard
  9
$DIMAUNIT
 70
0
  9
$DIMADEC
 70
0
  9
$DIMALTRND
 40
0.0
  9
$DIMAZIN
 70
0
  9
$DIMDSEP
 70
44
  9
$DIMATFIT
 70
3
  9
$DIMFRAC
 70
0
  9
$DIMLDRBLK
  1

  9
$DIMLUNIT
 70
2
  9
$DIMLWD
 70
-2
  9
$DIMLWE
 70
-2
  9
$DIMTMOVE
 70
0
  9
$DIMFXL
 40
1.0
  9
$DIMFXLON
 70
0
  9
$DIMJOGANG
 40
0.785398163397
  9
$DIMTFILL
 70
0
  9
$DIMTFILLCLR
 70
0
  9
$DIMARCSYM
 70
0
  9
$DIMLTYPE
  6

  9
$DIMLTEX1
  6

  9
$DIMLTEX2
  6

  9
$DIMTXTDIRECTION
 70
0
  9
$LUNITS
 70
2
  9
$LUPREC
 70
4
  9
$SKETCHINC
 40
1.0
  9
$FILLETRAD
 40
10.0
  9
$AUNITS
 70
0
  9
$AUPREC
 70
2
  9
$MENU
  1
.
  9
$ELEVATION
 40
0.0
  9
$PELEVATION
 40
0.0
  9
$THICKNESS
 40
0.0
  9
$LIMCHECK
 70
0
  9
$CHAMFERA
 40
0.0
  9
$CHAMFERB
 40
0.0
  9
$CHAMFERC
 40
0.0
  9
$CHAMFERD
 40
0.0
  9
$SKPOLY
 70
0
  9
$TDCREATE
 40
2461212.798738426
  9
$TDUCREATE
 40
2458532.153996898
  9
$TDUPDATE
 40
2461212.798738426
  9
$TDUUPDATE
 40
2458532.1544311
  9
$TDINDWG
 40
0.0
  9
$TDUSRTIMER
 40
0.0
  9
$USRTIMER
 70
1
  9
$ANGBASE
 50
0.0
  9
$ANGDIR
 70
0
  9
$PDMODE
 70
0
  9
$PDSIZE
 40
0.0
  9
$PLINEWID
 40
0.0
  9
$SPLFRAME
 70
0
  9
$SPLINETYPE
 70
6
  9
$SPLINESEGS
 70
8
  9
$HANDSEED
  5
A5
  9
$SURFTAB1
 70
6
  9
$SURFTAB2
 70
6
  9
$SURFTYPE
 70
6
  9
$SURFU
 70
6
  9
$SURFV
 70
6
  9
$UCSBASE
  2

  9
$UCSNAME
  2

  9
$UCSORG
 10
0.0
 20
0.0
 30
0.0
  9
$UCSXDIR
 10
1.0
 20
0.0
 30
0.0
  9
$UCSYDIR
 10
0.0
 20
1.0
 30
0.0
  9
$UCSORTHOREF
  2

  9
$UCSORTHOVIEW
 70
0
  9
$UCSORGTOP
 10
0.0
 20
0.0
 30
0.0
  9
$UCSORGBOTTOM
 10
0.0
 20
0.0
 30
0.0
  9
$UCSORGLEFT
 10
0.0
 20
0.0
 30
0.0
  9
$UCSORGRIGHT
 10
0.0
 20
0.0
 30
0.0
  9
$UCSORGFRONT
 10
0.0
 20
0.0
 30
0.0
  9
$UCSORGBACK
 10
0.0
 20
0.0
 30
0.0
  9
$PUCSBASE
  2

  9
$PUCSNAME
  2

  9
$PUCSORG
 10
0.0
 20
0.0
 30
0.0
  9
$PUCSXDIR
 10
1.0
 20
0.0
 30
0.0
  9
$PUCSYDIR
 10
0.0
 20
1.0
 30
0.0
  9
$PUCSORTHOREF
  2

  9
$PUCSORTHOVIEW
 70
0
  9
$PUCSORGTOP
 10
0.0
 20
0.0
 30
0.0
  9
$PUCSORGBOTTOM
 10
0.0
 20
0.0
 30
0.0
  9
$PUCSORGLEFT
 10
0.0
 20
0.0
 30
0.0
  9
$PUCSORGRIGHT
 10
0.0
 20
0.0
 30
0.0
  9
$PUCSORGFRONT
 10
0.0
 20
0.0
 30
0.0
  9
$PUCSORGBACK
 10
0.0
 20
0.0
 30
0.0
  9
$USERI1
 70
0
  9
$USERI2
 70
0
  9
$USERI3
 70
0
  9
$USERI4
 70
0
  9
$USERI5
 70
0
  9
$USERR1
 40
0.0
  9
$USERR2
 40
0.0
  9
$USERR3
 40
0.0
  9
$USERR4
 40
0.0
  9
$USERR5
 40
0.0
  9
$WORLDVIEW
 70
1
  9
$SHADEDGE
 70
3
  9
$SHADEDIF
 70
70
  9
$TILEMODE
 70
1
  9
$MAXACTVP
 70
64
  9
$PINSBASE
 10
0.0
 20
0.0
 30
0.0
  9
$PLIMCHECK
 70
0
  9
$PEXTMIN
 10
1e+20
 20
1e+20
 30
1e+20
  9
$PEXTMAX
 10
-1e+20
 20
-1e+20
 30
-1e+20
  9
$PLIMMIN
 10
0.0
 20
0.0
  9
$PLIMMAX
 10
420.0
 20
297.0
  9
$UNITMODE
 70
0
  9
$VISRETAIN
 70
1
  9
$PLINEGEN
 70
0
  9
$PSLTSCALE
 70
1
  9
$TREEDEPTH
 70
3020
  9
$CMLSTYLE
  2
Standard
  9
$CMLJUST
 70
0
  9
$CMLSCALE
 40
20.0
  9
$PROXYGRAPHICS
 70
1
  9
$MEASUREMENT
 70
1
  9
$CELWEIGHT
370
-1
  9
$ENDCAPS
280
0
  9
$JOINSTYLE
280
0
  9
$LWDISPLAY
290
0
  9
$INSUNITS
 70
6
  9
$HYPERLINKBASE
  1

  9
$STYLESHEET
  1

  9
$XEDIT
290
1
  9
$CEPSNTYPE
380
0
  9
$PSTYLEMODE
290
1
  9
$FINGERPRINTGUID
  2
{546F9351-ECE6-45A6-A159-BF2931A8C395}
  9
$VERSIONGUID
  2
{8A593509-2F1A-4E46-ADB4-87F7F201FD81}
  9
$EXTNAMES
290
1
  9
$PSVPSCALE
 40
0.0
  9
$OLESTARTUP
290
0
  9
$SORTENTS
280
127
  9
$INDEXCTL
280
0
  9
$HIDETEXT
280
1
  9
$XCLIPFRAME
280
1
  9
$HALOGAP
280
0
  9
$OBSCOLOR
 70
257
  9
$OBSLTYPE
280
0
  9
$INTERSECTIONDISPLAY
280
0
  9
$INTERSECTIONCOLOR
 70
257
  9
$DIMASSOC
280
2
  9
$PROJECTNAME
  1

  9
$CAMERADISPLAY
290
0
  9
$LENSLENGTH
 40
50.0
  9
$CAMERAHEIGHT
 40
0.0
  9
$STEPSPERSEC
 40
24.0
  9
$STEPSIZE
 40
100.0
  9
$3DDWFPREC
 40
2.0
  9
$PSOLWIDTH
 40
0.005
  9
$PSOLHEIGHT
 40
0.08
  9
$LOFTANG1
 40
1.570796326795
  9
$LOFTANG2
 40
1.570796326795
  9
$LOFTMAG1
 40
0.0
  9
$LOFTMAG2
 40
0.0
  9
$LOFTPARAM
 70
7
  9
$LOFTNORMALS
280
1
  9
$LATITUDE
 40
37.795
  9
$LONGITUDE
 40
-122.394
  9
$NORTHDIRECTION
 40
0.0
  9
$TIMEZONE
 70
-8000
  9
$LIGHTGLYPHDISPLAY
280
1
  9
$TILEMODELIGHTSYNCH
280
1
  9
$CMATERIAL
347
20
  9
$SOLIDHIST
280
0
  9
$SHOWHIST
280
1
  9
$DWFFRAME
280
2
  9
$DGNFRAME
280
2
  9
$REALWORLDSCALE
290
1
  9
$INTERFERECOLOR
 62
256
  9
$CSHADOW
280
0
  9
$SHADOWPLANELOCATION
 40
0.0
  0
ENDSEC
  0
SECTION
  2
CLASSES
  0
CLASS
  1
ACDBDICTIONARYWDFLT
  2
AcDbDictionaryWithDefault
  3
ObjectDBX Classes
 90
0
 91
0
280
0
281
0
  0
CLASS
  1
SUN
  2
AcDbSun
  3
SCENEOE
 90
1153
 91
0
280
0
281
0
  0
CLASS
  1
VISUALSTYLE
  2
AcDbVisualStyle
  3
ObjectDBX Classes
 90
4095
 91
0
280
0
281
0
  0
CLASS
  1
MATERIAL
  2
AcDbMaterial
  3
ObjectDBX Classes
 90
1153
 91
0
280
0
281
0
  0
CLASS
  1
SCALE
  2
AcDbScale
  3
ObjectDBX Classes
 90
1153
 91
0
280
0
281
0
  0
CLASS
  1
TABLESTYLE
  2
AcDbTableStyle
  3
ObjectDBX Classes
 90
4095
 91
0
280
0
281
0
  0
CLASS
  1
MLEADERSTYLE
  2
AcDbMLeaderStyle
  3
ACDB_MLEADERSTYLE_CLASS
 90
4095
 91
0
280
0
281
0
  0
CLASS
  1
DICTIONARYVAR
  2
AcDbDictionaryVar
  3
ObjectDBX Classes
 90
0
 91
0
280
0
281
0
  0
CLASS
  1
CELLSTYLEMAP
  2
AcDbCellStyleMap
  3
ObjectDBX Classes
 90
1152
 91
0
280
0
281
0
  0
CLASS
  1
MENTALRAYRENDERSETTINGS
  2
AcDbMentalRayRenderSettings
  3
SCENEOE
 90
1024
 91
0
280
0
281
0
  0
CLASS
  1
ACDBDETAILVIEWSTYLE
  2
AcDbDetailViewStyle
  3
ObjectDBX Classes
 90
1025
 91
0
280
0
281
0
  0
CLASS
  1
ACDBSECTIONVIEWSTYLE
  2
AcDbSectionViewStyle
  3
ObjectDBX Classes
 90
1025
 91
0
280
0
281
0
  0
CLASS
  1
RASTERVARIABLES
  2
AcDbRasterVariables
  3
ISM
 90
0
 91
0
280
0
281
0
  0
CLASS
  1
ACDBPLACEHOLDER
  2
AcDbPlaceHolder
  3
ObjectDBX Classes
 90
0
 91
0
280
0
281
0
  0
CLASS
  1
LAYOUT
  2
AcDbLayout
  3
ObjectDBX Classes
 90
0
 91
0
280
0
281
0
  0
ENDSEC
  0
SECTION
  2
TABLES
  0
TABLE
  2
VPORT
  5
8
330
0
100
AcDbSymbolTable
 70
1
  0
VPORT
  5
23
330
8
100
AcDbSymbolTableRecord
100
AcDbViewportTableRecord
  2
*Active
 70
0
 10
0.0
 20
0.0
 11
1.0
 21
1.0
 12
0.0
 22
0.0
 13
0.0
 23
0.0
 14
0.5
 24
0.5
 15
0.5
 25
0.5
 16
0.0
 26
0.0
 36
1.0
 17
0.0
 27
0.0
 37
0.0
 40
1000.0
 41
1.34
 42
50.0
 43
0.0
 44
0.0
 50
0.0
 51
0.0
 71
0
 72
1000
 73
1
 74
3
 75
0
 76
0
 77
0
 78
0
281
0
 65
0
146
0.0
  0
ENDTAB
  0
TABLE
  2
LTYPE
  5
2
330
0
100
AcDbSymbolTable
 70
3
  0
LTYPE
  5
24
330
2
100
AcDbSymbolTableRecord
100
AcDbLinetypeTableRecord
  2
ByBlock
 70
0
  3

 72
65
 73
0
 40
0.0
  0
LTYPE
  5
25
330
2
100
AcDbSymbolTableRecord
100
AcDbLinetypeTableRecord
  2
ByLayer
 70
0
  3

 72
65
 73
0
 40
0.0
  0
LTYPE
  5
26
330
2
100
AcDbSymbolTableRecord
100
AcDbLinetypeTableRecord
  2
Continuous
 70
0
  3

 72
65
 73
0
 40
0.0
  0
ENDTAB
  0
TABLE
  2
LAYER
  5
1
330
0
100
AcDbSymbolTable
 70
15
  0
LAYER
  5
27
330
1
100
AcDbSymbolTableRecord
100
AcDbLayerTableRecord
  2
0
 70
0
 62
7
  6
Continuous
370
-3
390
13
347
21
  0
LAYER
  5
28
330
1
100
AcDbSymbolTableRecord
100
AcDbLayerTableRecord
  2
Defpoints
 70
0
 62
7
  6
Continuous
290
0
370
-3
390
13
347
21
  0
LAYER
  5
2F
330
1
100
AcDbSymbolTableRecord
100
AcDbLayerTableRecord
  2
Balcony
 70
0
 62
140
  6
Continuous
370
-3
390
13
347
21
  0
LAYER
  5
30
330
1
100
AcDbSymbolTableRecord
100
AcDbLayerTableRecord
  2
Bathroom
 70
0
 62
92
  6
Continuous
370
-3
390
13
347
21
  0
LAYER
  5
31
330
1
100
AcDbSymbolTableRecord
100
AcDbLayerTableRecord
  2
Bedroom
 70
0
 62
50
  6
Continuous
370
-3
390
13
347
21
  0
LAYER
  5
32
330
1
100
AcDbSymbolTableRecord
100
AcDbLayerTableRecord
  2
Corridor
 70
0
 62
30
  6
Continuous
370
-3
390
13
347
21
  0
LAYER
  5
33
330
1
100
AcDbSymbolTableRecord
100
AcDbLayerTableRecord
  2
Dining
 70
0
 62
210
  6
Continuous
370
-3
390
13
347
21
  0
LAYER
  5
34
330
1
100
AcDbSymbolTableRecord
100
AcDbLayerTableRecord
  2
Kitchen
 70
0
 62
10
  6
Continuous
370
-3
390
13
347
21
  0
LAYER
  5
35
330
1
100
AcDbSymbolTableRecord
100
AcDbLayerTableRecord
  2
LivingRoom
 70
0
 62
150
  6
Continuous
370
-3
390
13
347
21
  0
LAYER
  5
36
330
1
100
AcDbSymbolTableRecord
100
AcDbLayerTableRecord
  2
Storeroom
 70
0
 62
8
  6
Continuous
370
-3
390
13
347
21
  0
LAYER
  5
37
330
1
100
AcDbSymbolTableRecord
100
AcDbLayerTableRecord
  2
Other
 70
0
 62
255
  6
Continuous
370
-3
390
13
347
21
  0
LAYER
  5
38
330
1
100
AcDbSymbolTableRecord
100
AcDbLayerTableRecord
  2
Labels
 70
0
 62
7
  6
Continuous
370
-3
390
13
347
21
  0
LAYER
  5
39
330
1
100
AcDbSymbolTableRecord
100
AcDbLayerTableRecord
  2
Graph_nodes
 70
0
 62
5
  6
Continuous
370
-3
390
13
347
21
  0
LAYER
  5
3A
330
1
100
AcDbSymbolTableRecord
100
AcDbLayerTableRecord
  2
Graph_edges_door
 70
0
 62
150
  6
Continuous
370
-3
390
13
347
21
  0
LAYER
  5
3B
330
1
100
AcDbSymbolTableRecord
100
AcDbLayerTableRecord
  2
Graph_edges_entrance
 70
0
 62
10
  6
Continuous
370
-3
390
13
347
21
  0
ENDTAB
  0
TABLE
  2
STYLE
  5
5
330
0
100
AcDbSymbolTable
 70
1
  0
STYLE
  5
29
330
5
100
AcDbSymbolTableRecord
100
AcDbTextStyleTableRecord
  2
Standard
 70
0
 40
0.0
 41
1.0
 50
0.0
 71
0
 42
2.5
  3
txt
  4

  0
ENDTAB
  0
TABLE
  2
VIEW
  5
7
330
0
100
AcDbSymbolTable
 70
0
  0
ENDTAB
  0
TABLE
  2
UCS
  5
6
330
0
100
AcDbSymbolTable
 70
0
  0
ENDTAB
  0
TABLE
  2
APPID
  5
3
330
0
100
AcDbSymbolTable
 70
3
  0
APPID
  5
2A
330
3
100
AcDbSymbolTableRecord
100
AcDbRegAppTableRecord
  2
ACAD
 70
0
  0
APPID
  5
A2
330
3
100
AcDbSymbolTableRecord
100
AcDbRegAppTableRecord
  2
HATCHBACKGROUNDCOLOR
 70
0
  0
APPID
  5
A3
330
3
100
AcDbSymbolTableRecord
100
AcDbRegAppTableRecord
  2
EZDXF
 70
0
  0
ENDTAB
  0
TABLE
  2
DIMSTYLE
  5
4
330
0
100
AcDbSymbolTable
 70
1
100
AcDbDimStyleTable
  0
DIMSTYLE
105
2B
330
4
100
AcDbSymbolTableRecord
100
AcDbDimStyleTableRecord
  2
Standard
 70
0
 40
1.0
 41
2.5
 42
0.625
 43
3.75
 44
1.25
 45
0.0
 46
0.0
 47
0.0
 48
0.0
 49
2.5
140
2.5
141
2.5
142
0.0
143
0.03937007874
144
1.0
145
0.0
146
1.0
147
0.625
148
0.0
 69
0
 70
0
 71
0
 72
0
 73
0
 74
0
 75
0
 76
0
 77
1
 78
8
 79
3
170
0
171
3
172
1
173
0
174
0
175
0
176
0
177
0
178
0
179
2
271
2
272
2
273
2
274
3
275
0
276
0
277
2
278
44
279
0
280
0
281
0
282
0
283
0
284
8
285
0
286
0
288
0
289
3
290
0
371
-2
372
-2
  0
ENDTAB
  0
TABLE
  2
BLOCK_RECORD
  5
9
330
0
100
AcDbSymbolTable
 70
2
  0
BLOCK_RECORD
  5
17
330
9
100
AcDbSymbolTableRecord
100
AcDbBlockTableRecord
  2
*Model_Space
340
1A
 70
0
280
1
281
0
  0
BLOCK_RECORD
  5
1B
330
9
100
AcDbSymbolTableRecord
100
AcDbBlockTableRecord
  2
*Paper_Space
340
1E
 70
0
280
1
281
0
  0
ENDTAB
  0
ENDSEC
  0
SECTION
  2
BLOCKS
  0
BLOCK
  5
18
330
17
100
AcDbEntity
  8
0
100
AcDbBlockBegin
  2
*Model_Space
 70
0
 10
0.0
 20
0.0
 30
0.0
  3
*Model_Space
  1

  0
ENDBLK
  5
19
330
17
100
AcDbEntity
  8
0
100
AcDbBlockEnd
  0
BLOCK
  5
1C
330
1B
100
AcDbEntity
  8
0
100
AcDbBlockBegin
  2
*Paper_Space
 70
0
 10
0.0
 20
0.0
 30
0.0
  3
*Paper_Space
  1

  0
ENDBLK
  5
1D
330
1B
100
AcDbEntity
  8
0
100
AcDbBlockEnd
  0
ENDSEC
  0
SECTION
  2
ENTITIES
  0
LWPOLYLINE
  5
3C
330
17
100
AcDbEntity
  8
Storeroom
100
AcDbPolyline
 90
5
 70
1
 10
5.793705009232756
 20
-2.34448109859534
 10
7.006501453006784
 20
-2.6247496168172777
 10
6.717550908934022
 20
-3.875115496300433
 10
5.504754465159994
 20
-3.594846978078495
 10
5.793705009232756
 20
-2.34448109859534
  0
TEXT
  5
3D
330
17
100
AcDbEntity
  8
Labels
100
AcDbText
 10
6.255627959083388
 20
-3.1097982974478864
 30
0.0
 40
0.15
  1
Storeroom
 72
1
 11
6.255627959083388
 21
-3.1097982974478864
 31
0.0
100
AcDbText
 73
2
  0
LWPOLYLINE
  5
3E
330
17
100
AcDbEntity
  8
Storeroom
100
AcDbPolyline
 90
5
 70
1
 10
2.064990925705626
 20
-2.096226879024842
 10
4.4487014490806445
 20
-2.6470852029307075
 10
4.052672586181089
 20
-4.360807456159712
 10
1.6689620628060702
 20
-3.809949132253845
 10
2.064990925705626
 20
-2.096226879024842
  0
TEXT
  5
3F
330
17
100
AcDbEntity
  8
Labels
100
AcDbText
 10
3.0588317559433578
 20
-3.2285171675922766
 30
0.0
 40
0.15
  1
Storeroom
 72
1
 11
3.0588317559433578
 21
-3.2285171675922766
 31
0.0
100
AcDbText
 73
2
  0
LWPOLYLINE
  5
40
330
17
100
AcDbEntity
  8
Bathroom
100
AcDbPolyline
 90
9
 70
1
 10
4.3821434141147755
 20
0.3187448927187981
 10
2.436742974012855
 20
0.7683129150317507
 10
2.472918081724611
 20
0.9248522304864286
 10
0.494261134377485
 20
1.3821055919630139
 10
1.4083175397093761
 20
5.3374708425029995
 10
5.322631706387082
 20
4.432901046819868
 10
4.390760931732267
 20
0.400448280707371
 10
4.400504152503608
 20
0.3981966926009646
 10
4.3821434141147755
 20
0.3187448927187981
  0
TEXT
  5
41
330
17
100
AcDbEntity
  8
Labels
100
AcDbText
 10
2.918388819479277
 20
2.8635276221786428
 30
0.0
 40
0.15
  1
Bathroom
 72
1
 11
2.918388819479277
 21
2.8635276221786428
 31
0.0
100
AcDbText
 73
2
  0
LWPOLYLINE
  5
42
330
17
100
AcDbEntity
  8
LivingRoom
100
AcDbPolyline
 90
5
 70
1
 10
0.1325100572599354
 20
-0.1832875625837618
 10
0.4489536831936292
 20
1.1860481966449479
 10
2.056229201913446
 20
0.8146184069893865
 10
1.7397855759797523
 20
-0.5547173522393232
 10
0.1325100572599354
 20
-0.1832875625837618
  0
TEXT
  5
43
330
17
100
AcDbEntity
  8
Labels
100
AcDbText
 10
1.0943696295866907
 20
0.31566542220281235
 30
0.0
 40
0.15
  1
LivingRoom
 72
1
 11
1.0943696295866907
 21
0.31566542220281235
 31
0.0
100
AcDbText
 73
2
  0
LWPOLYLINE
  5
44
330
17
100
AcDbEntity
  8
Balcony
100
AcDbPolyline
 90
5
 70
1
 10
5.0385815030170065
 20
-7.952585993885723
 10
5.735587262078365
 20
-4.936456636073803
 10
10.761681430328347
 20
-6.0979507781540985
 10
10.06467567126699
 20
-9.114080135966017
 10
5.0385815030170065
 20
-7.952585993885723
  0
TEXT
  5
45
330
17
100
AcDbEntity
  8
Labels
100
AcDbText
 10
7.9001314666726765
 20
-7.025268386019911
 30
0.0
 40
0.15
  1
Balcony
 72
1
 11
7.9001314666726765
 21
-7.025268386019911
 31
0.0
100
AcDbText
 73
2
  0
LWPOLYLINE
  5
46
330
17
100
AcDbEntity
  8
Dining
100
AcDbPolyline
 90
43
 70
1
 10
4.563358400362283
 20
-2.6735815981044535
 10
4.600927836071403
 20
-2.6822636239552757
 10
4.623083218319735
 20
-2.5863913905282025
 10
4.585513782610615
 20
-2.5777093646773803
 10
4.5884077912275565
 20
-2.5651862194410064
 10
4.473750839945918
 20
-2.538689824267262
 10
4.470856831328977
 20
-2.5512129695036343
 10
1.5423894901716793
 20
-1.8744652707608616
 10
1.5655415591072028
 20
-1.774280108869867
 10
1.4508846078255644
 20
-1.747783713696121
 10
1.4277325388900408
 20
-1.8479688755871155
 10
-0.1670198345934004
 20
-1.4794330945484946
 10
0.1132486836285409
 20
-0.2666366507744629
 10
1.7205242023483578
 20
-0.6380664404300243
 10
1.6901371118704809
 20
-0.7695594654119526
 10
1.773486200061182
 20
-0.7888208390433471
 10
2.139578290104147
 20
0.795357033357992
 10
2.427610630540755
 20
0.7287948351683626
 10
2.434845652083105
 20
0.7601026982592982
 10
6.1898405788411
 20
-0.1076495692015431
 10
6.172476527139455
 20
-0.1827884406197899
 10
6.268348760566536
 20
-0.2049438228681248
 10
6.2857128122681765
 20
-0.129804951449878
 10
7.892988330987993
 20
-0.5012347411054403
 10
7.6387658903185205
 20
-1.6013228777521054
 10
7.52605758319115
 20
-1.5752768001996413
 10
7.288748876602039
 20
-2.6021747095823287
 10
5.8129663828641505
 20
-2.2611320104046406
 10
5.967795843870462
 20
-1.5911437402586195
 10
5.859400465207013
 20
-1.5660943493933441
 10
5.704571004200698
 20
-2.2360826195393653
 10
5.68578628634614
 20
-2.231741606613955
 10
5.6665249127147455
 20
-2.3150906948046543
 10
5.685309630569307
 20
-2.3194317077300646
 10
5.577234625055322
 20
-2.78710100993983
 10
5.502095753637072
 20
-2.7697369582381874
 10
5.475599358463327
 20
-2.8843939095198223
 10
5.550738229881578
 20
-2.901757961221465
 10
5.3770977128651545
 20
-3.6531466754039172
 10
6.961275585266488
 20
-4.019238765446879
 10
6.738887239383359
 20
-4.9815723044934295
 10
4.167329537462727
 20
-4.387303851333456
 10
4.563358400362283
 20
-2.6735815981044535
  0
TEXT
  5
47
330
17
100
AcDbEntity
  8
Labels
100
AcDbText
 10
4.317560231597929
 20
-1.5522139409849036
 30
0.0
 40
0.15
  1
Dining
 72
1
 11
4.317560231597929
 21
-1.5522139409849036
 31
0.0
100
AcDbText
 73
2
  0
LWPOLYLINE
  5
48
330
17
100
AcDbEntity
  8
Balcony
100
AcDbPolyline
 90
5
 70
1
 10
0.9309898654862643
 20
-7.003351167529267
 10
1.6279956245476228
 20
-3.987221809717349
 10
5.65849974650585
 20
-4.918642266750879
 10
4.961493987444491
 20
-7.9347716245627975
 10
0.9309898654862643
 20
-7.003351167529267
  0
TEXT
  5
49
330
17
100
AcDbEntity
  8
Labels
100
AcDbText
 10
3.294744805996057
 20
-5.960996717140074
 30
0.0
 40
0.15
  1
Balcony
 72
1
 11
3.294744805996057
 21
-5.960996717140074
 31
0.0
100
AcDbText
 73
2
  0
LWPOLYLINE
  5
4A
330
17
100
AcDbEntity
  8
Bedroom
100
AcDbPolyline
 90
9
 70
1
 10
1.3042359250436348
 20
-2.619594158631065
 10
1.815736235580708
 20
-2.7377981943043395
 10
0.8351176320591875
 20
-6.981195785280931
 10
-1.3231762770610977
 20
-6.482429616479992
 10
-0.1891752168417327
 20
-1.5753053279755678
 10
1.361746148314399
 20
-1.9337120788548958
 10
1.2069166873080874
 20
-2.6037003490009205
 10
1.3027889207351642
 20
-2.6258557312492545
 10
1.3042359250436348
 20
-2.619594158631065
  0
TEXT
  5
4B
330
17
100
AcDbEntity
  8
Labels
100
AcDbText
 10
0.2728274427401528
 20
-4.3552168242411184
 30
0.0
 40
0.15
  1
Bedroom
 72
1
 11
0.2728274427401528
 21
-4.3552168242411184
 31
0.0
100
AcDbText
 73
2
  0
LWPOLYLINE
  5
4C
330
17
100
AcDbEntity
  8
Corridor
100
AcDbPolyline
 90
5
 70
1
 10
4.423161174597745
 20
0.4873570357885688
 10
5.334323571312691
 20
4.430199141092181
 10
9.176980514725305
 20
3.5421888133127553
 10
8.265818118010358
 20
-0.4006532919908565
 10
4.423161174597745
 20
0.4873570357885688
  0
TEXT
  5
4D
330
17
100
AcDbEntity
  8
Labels
100
AcDbText
 10
6.800070844661525
 20
2.014772924550662
 30
0.0
 40
0.15
  1
Corridor
 72
1
 11
6.800070844661525
 21
2.014772924550662
 31
0.0
100
AcDbText
 73
2
  0
LWPOLYLINE
  5
4E
330
17
100
AcDbEntity
  8
Other
100
AcDbPolyline
 90
33
 70
1
 10
11.56461336157291
 20
-4.592882841028375
 10
11.563166357264441
 20
-4.599144413646563
 10
11.402314113345843
 20
-4.561972619247619
 10
12.140286310665648
 20
-1.3685705839721933
 10
12.108978447574714
 20
-1.3613355624298418
 10
12.124895494967884
 20
-1.2924582636297863
 10
8.837569870419653
 20
-0.5327810016829275
 10
8.902685064300812
 20
-0.2510102338645055
 10
8.871377201209878
 20
-0.2437752123221548
 10
8.875718214135286
 20
-0.2249904944675931
 10
8.587685873698682
 20
-0.1584282962779637
 10
9.493510570801028
 20
3.7613161627071667
 10
9.241099021919275
 20
3.819646652667256
 10
9.238205013302338
 20
3.807123507430882
 10
1.4257110299590963
 20
5.612534566780418
 10
1.8709380393466368
 20
7.539150289027779
 10
13.58296134615676
 20
4.832586104715176
 10
13.530869191051831
 20
4.607169490460441
 10
13.78614157526096
 20
4.548177882072608
 10
13.838233730366115
 20
4.773594496328324
 10
23.404913259106532
 20
2.562803798894202
 10
19.894633493291074
 20
-12.62711065757605
 10
10.076060642177637
 20
-10.358109228510695
 10
10.082146290481159
 20
-10.331775009214887
 10
-1.6269945055287351
 20
-7.6258769523756005
 10
-1.4205232070387765
 20
-6.732420712129114
 10
10.276094443734742
 20
-9.43542476035146
 10
10.289117482510974
 20
-9.379070606787774
 10
10.301640627747346
 20
-9.381964615404714
 10
11.064211898311147
 20
-6.082115845620105
 10
11.308413230420443
 20
-6.138549013650444
 10
11.660485594999983
 20
-4.615038223276709
 10
11.56461336157291
 20
-4.592882841028375
  0
TEXT
  5
4F
330
17
100
AcDbEntity
  8
Labels
100
AcDbText
 10
14.577080318179853
 20
-2.7013206085443224
 30
0.0
 40
0.15
  1
Other
 72
1
 11
14.577080318179853
 21
-2.7013206085443224
 31
0.0
100
AcDbText
 73
2
  0
LWPOLYLINE
  5
50
330
17
100
AcDbEntity
  8
Balcony
100
AcDbPolyline
 90
5
 70
1
 10
-13.069886508780112
 20
-3.767849533789885
 10
-12.371433745410283
 20
-0.745458603359781
 10
-7.351601149778492
 20
-1.9055057411316056
 10
-8.050053913148314
 20
-4.92789667156171
 10
-13.069886508780112
 20
-3.767849533789885
  0
TEXT
  5
51
330
17
100
AcDbEntity
  8
Labels
100
AcDbText
 10
-10.2107438292793
 20
-2.836677637460746
 30
0.0
 40
0.15
  1
Balcony
 72
1
 11
-10.2107438292793
 21
-2.836677637460746
 31
0.0
100
AcDbText
 73
2
  0
LWPOLYLINE
  5
52
330
17
100
AcDbEntity
  8
Dining
100
AcDbPolyline
 90
33
 70
1
 10
-3.790130979319045
 20
2.165670113479277
 10
0.1088801176572538
 20
1.264636746923621
 10
-0.5056463958213051
 20
-1.3945829716516354
 10
-5.33958045706175
 20
-0.2774956455126363
 10
-5.361735839310082
 20
-0.3733678789397077
 10
-5.286596967891839
 20
-0.3907319306413504
 10
-5.682625830791395
 20
-2.1044541838703523
 10
-8.304276113657526
 20
-1.4986096962426174
 10
-8.088274033112139
 20
-0.5639112263781403
 10
-6.562530805710413
 20
-0.8885580033707736
 10
-6.569509287251552
 20
-0.9187557496239833
 10
-6.486160199060844
 20
-0.9380171232553778
 10
-6.305284660502068
 20
-0.1553205459819882
 10
-6.230145789083824
 20
-0.1726845976836309
 10
-6.20364939391008
 20
-0.0580276464019978
 10
-6.278788265328323
 20
-0.0406635947003551
 10
-6.002410442410515
 20
1.1552967753733832
 10
-6.085759530601219
 20
1.1745581490047776
 10
-6.2350545803275
 20
0.528518748897346
 10
-7.760797807729222
 20
0.8531655258899811
 10
-7.274459363648017
 20
2.957681363752336
 10
-5.729799571110071
 20
2.6007216171814775
 10
-5.739928601269362
 20
2.556890608854168
 10
-5.644056367842289
 20
2.534735226605833
 10
-5.633927337682998
 20
2.5785662349331426
 10
-5.533742175792003
 20
2.555414165997619
 10
-5.530848167175062
 20
2.5679373112339947
 10
-4.1990818436554775
 20
2.260175711151123
 10
-4.201975852272419
 20
2.2476525659147475
 10
-3.9558258760088485
 20
2.190769080263127
 10
-3.954378871700378
 20
2.1970306528813133
 10
-3.7915779836275156
 20
2.1594085408610875
 10
-3.790130979319045
 20
2.165670113479277
  0
TEXT
  5
53
330
17
100
AcDbEntity
  8
Labels
100
AcDbText
 10
-4.169455762341653
 20
0.5068173005526453
 30
0.0
 40
0.15
  1
Dining
 72
1
 11
-4.169455762341653
 21
0.5068173005526453
 31
0.0
100
AcDbText
 73
2
  0
LWPOLYLINE
  5
54
330
17
100
AcDbEntity
  8
Corridor
100
AcDbPolyline
 90
9
 70
1
 10
-5.486987720299677
 20
2.7577331339338746
 10
-7.399496492867261
 20
3.199700128911185
 10
-6.483993083226903
 20
7.1613269520693565
 10
-3.108224962157802
 20
6.3812112665313
 10
-4.025175376106631
 20
2.41332287075494
 10
-4.156668401088563
 20
2.4437099612328153
 10
-4.1971845217257275
 20
2.2683859279235756
 10
-5.528950845245312
 20
2.576147528006447
 10
-5.486987720299677
 20
2.7577331339338746
  0
TEXT
  5
55
330
17
100
AcDbEntity
  8
Labels
100
AcDbText
 10
-5.2464770601856054
 20
4.74986548362668
 30
0.0
 40
0.15
  1
Corridor
 72
1
 11
-5.2464770601856054
 21
4.74986548362668
 31
0.0
100
AcDbText
 73
2
  0
LWPOLYLINE
  5
56
330
17
100
AcDbEntity
  8
Storeroom
100
AcDbPolyline
 90
5
 70
1
 10
-6.254318888006264
 20
0.4451569643030791
 10
-6.543266498031652
 20
-0.8051962187765103
 10
-7.773528707333266
 20
-0.5434217249216244
 10
-7.484581097307871
 20
0.7069314581579631
 10
-6.254318888006264
 20
0.4451569643030791
  0
TEXT
  5
57
330
17
100
AcDbEntity
  8
Labels
100
AcDbText
 10
-7.013923797669762
 20
-0.04913238030927375
 30
0.0
 40
0.15
  1
Storeroom
 72
1
 11
-7.013923797669762
 21
-0.04913238030927375
 31
0.0
100
AcDbText
 73
2
  0
LWPOLYLINE
  5
58
330
17
100
AcDbEntity
  8
Bathroom
100
AcDbPolyline
 90
5
 70
1
 10
-7.411188357792877
 20
3.2024020346388733
 10
-11.247634529031824
 20
4.088977097726466
 10
-10.332131119391466
 20
8.050603920884637
 10
-6.495684948152519
 20
7.164028857797045
 10
-7.411188357792877
 20
3.2024020346388733
  0
TEXT
  5
59
330
17
100
AcDbEntity
  8
Labels
100
AcDbText
 10
-8.871659738592173
 20
5.6265029777617555
 30
0.0
 40
0.15
  1
Bathroom
 72
1
 11
-8.871659738592173
 21
5.6265029777617555
 31
0.0
100
AcDbText
 73
2
  0
LWPOLYLINE
  5
5A
330
17
100
AcDbEntity
  8
Other
100
AcDbPolyline
 90
39
 70
1
 10
-2.8057208323305467
 20
6.311304742103448
 10
-2.744496333753517
 20
6.576239436221575
 10
-10.270906620814433
 20
8.315538615002765
 10
-10.269459616505966
 20
8.321800187620951
 10
-10.546917455860456
 20
8.38591869481492
 10
-11.384732950464706
 20
4.760468148884582
 10
-11.610149564719439
 20
4.81256030398951
 10
-11.611596569027906
 20
4.806298731371324
 10
-11.630381286882471
 20
4.810639744296735
 10
-11.70462882423573
 20
4.4893508966149245
 10
-11.685844106381172
 20
4.485009883689514
 10
-11.687291110689639
 20
4.478748311071326
 10
-11.461874496434906
 20
4.426656155966398
 10
-11.544353742017709
 20
4.069746516729733
 10
-11.52556902416315
 20
4.065405503804323
 10
-12.582878856033592
 20
-0.5098554359361849
 10
-13.384360151161541
 20
-0.3246388844519981
 10
-13.425326589419985
 20
-0.5019115619155059
 10
-12.655153157382966
 20
-0.6798930918573429
 10
-13.411936410712887
 20
-3.9546955711692
 10
-13.386890120240142
 20
-3.960483588403079
 10
-13.38833712454861
 20
-3.9667451610212687
 10
-1.6979810463932772
 20
-6.668302204935143
 10
-1.9044523448832358
 20
-7.5617584451816295
 10
-13.594808423038568
 20
-4.860201401267755
 10
-13.609067124073913
 20
-4.921902594174508
 10
-23.374508018590266
 20
-2.6651795774572378
 10
-19.861726359199285
 20
12.535561238143018
 10
-10.30989005537668
 20
10.353501650148914
 10
-10.366202515211892
 20
10.109822654514312
 10
-10.11379096633014
 20
10.051492164554224
 10
-10.057357798299801
 20
10.295693496663521
 10
1.6185264904648804
 20
7.597480778987868
 10
1.142912390599463
 20
5.539372031758578
 10
1.0990813822721535
 20
5.54950106191787
 10
0.1541875688411096
 20
1.460694142241687
 10
-3.744823528135189
 20
2.361727508797343
 10
-2.830767122803298
 20
6.317092759337329
 10
-2.8057208323305467
 20
6.311304742103448
  0
TEXT
  5
5B
330
17
100
AcDbEntity
  8
Labels
100
AcDbText
 10
-13.576284838672535
 20
3.802677848939356
 30
0.0
 40
0.15
  1
Other
 72
1
 11
-13.576284838672535
 21
3.802677848939356
 31
0.0
100
AcDbText
 73
2
  0
LWPOLYLINE
  5
5C
330
17
100
AcDbEntity
  8
Storeroom
100
AcDbPolyline
 90
5
 70
1
 10
-3.2030430739893028
 20
-2.677467890024552
 10
-5.586753597364318
 20
-2.1266095661186863
 10
-5.190724734464762
 20
-0.4128873128896853
 10
-2.807014211089747
 20
-0.9637456367955517
 10
-3.2030430739893028
 20
-2.677467890024552
  0
TEXT
  5
5D
330
17
100
AcDbEntity
  8
Labels
100
AcDbText
 10
-4.1968839042270325
 20
-1.5451776014571184
 30
0.0
 40
0.15
  1
Storeroom
 72
1
 11
-4.1968839042270325
 21
-1.5451776014571184
 31
0.0
100
AcDbText
 73
2
  0
LWPOLYLINE
  5
5E
330
17
100
AcDbEntity
  8
Balcony
100
AcDbPolyline
 90
5
 70
1
 10
-7.9792279701939925
 20
-4.944264036576165
 10
-7.280775206824163
 20
-1.9218731061460588
 10
-3.24400951224775
 20
-2.8547405674880615
 10
-3.9424622756175793
 20
-5.877131497918164
 10
-7.9792279701939925
 20
-4.944264036576165
  0
TEXT
  5
5F
330
17
100
AcDbEntity
  8
Labels
100
AcDbText
 10
-5.611618741220871
 20
-3.8995023020321122
 30
0.0
 40
0.15
  1
Balcony
 72
1
 11
-5.611618741220871
 21
-3.8995023020321122
 31
0.0
100
AcDbText
 73
2
  0
LWPOLYLINE
  5
60
330
17
100
AcDbEntity
  8
Bedroom
100
AcDbPolyline
 90
9
 70
1
 10
-2.353255406270499
 20
-1.7688325729261187
 10
-2.3544711281319053
 20
-1.774093324863184
 10
-2.2585988947048286
 20
-1.796248707111518
 10
-2.103769433698517
 20
-1.126260436965497
 10
-0.5278017780696374
 20
-1.4904552050787068
 10
-1.663249842597473
 20
-6.40384106620132
 10
-3.846590042190499
 20
-5.8992868801665
 10
-2.8668189759250247
 20
-1.6595568083840728
 10
-2.353255406270499
 20
-1.7688325729261187
  0
TEXT
  5
61
330
17
100
AcDbEntity
  8
Labels
100
AcDbText
 10
-2.175457187399631
 20
-3.785629662637149
 30
0.0
 40
0.15
  1
Bedroom
 72
1
 11
-2.175457187399631
 21
-3.785629662637149
 31
0.0
100
AcDbText
 73
2
  0
LWPOLYLINE
  5
62
330
17
100
AcDbEntity
  8
Kitchen
100
AcDbPolyline
 90
7
 70
1
 10
10.437135458126228
 20
-1.0891688079656259
 10
11.93170266971868
 20
-1.4345525200687241
 10
11.252060962358964
 20
-4.375543006462397
 10
9.845155767421133
 20
-4.050417354677883
 10
10.270575034111374
 20
-2.209515004930873
 10
10.182913017456752
 20
-2.189256944612289
 10
10.437135458126228
 20
-1.0891688079656259
  0
TEXT
  5
63
330
17
100
AcDbEntity
  8
Labels
100
AcDbText
 10
10.876253839688875
 20
-2.7175876710293236
 30
0.0
 40
0.15
  1
Kitchen
 72
1
 11
10.876253839688875
 21
-2.7175876710293236
 31
0.0
100
AcDbText
 73
2
  0
LWPOLYLINE
  5
64
330
17
100
AcDbEntity
  8
Dining
100
AcDbPolyline
 90
11
 70
1
 10
9.60507989629437
 20
-4.709354467964964
 10
9.400055602112882
 20
-5.596549135593268
 10
6.953729352555989
 20
-5.031220768602697
 10
7.74089969636378
 20
-1.6249252643089092
 10
7.734638123745594
 20
-1.6234782600004394
 10
7.9888605644150665
 20
-0.5233901233537743
 10
10.341263224699155
 20
-1.0670134257172919
 10
10.087040784029679
 20
-2.167101562363955
 10
10.080779211411492
 20
-2.1656545580554862
 10
9.49863316178519
 20
-4.6847553947209715
 10
9.60507989629437
 20
-4.709354467964964
  0
TEXT
  5
65
330
17
100
AcDbEntity
  8
Labels
100
AcDbText
 10
8.652010917785013
 20
-3.0647395643560813
 30
0.0
 40
0.15
  1
Dining
 72
1
 11
8.652010917785013
 21
-3.0647395643560813
 31
0.0
100
AcDbText
 73
2
  0
LWPOLYLINE
  5
66
330
17
100
AcDbEntity
  8
Kitchen
100
AcDbPolyline
 90
5
 70
1
 10
-10.006453669331865
 20
3.589025559866627
 10
-10.68609537669158
 20
0.6480350734729541
 10
-12.05543113592029
 20
0.9644786994066488
 10
-11.375789428560577
 20
3.905469185800322
 10
-10.006453669331865
 20
3.589025559866627
  0
TEXT
  5
67
330
17
100
AcDbEntity
  8
Labels
100
AcDbText
 10
-11.030942402626076
 20
2.2767521296366384
 30
0.0
 40
0.15
  1
Kitchen
 72
1
 11
-11.030942402626076
 21
2.2767521296366384
 31
0.0
100
AcDbText
 73
2
  0
LWPOLYLINE
  5
68
330
17
100
AcDbEntity
  8
LivingRoom
100
AcDbPolyline
 90
5
 70
1
 10
10.314245204368198
 20
-5.807811764629918
 10
9.48340469030358
 20
-5.615810509224662
 10
9.805636333471156
 20
-4.221428459523203
 10
10.636476847535773
 20
-4.4134297149284585
 10
10.314245204368198
 20
-5.807811764629918
  0
TEXT
  5
69
330
17
100
AcDbEntity
  8
Labels
100
AcDbText
 10
10.059940768919676
 20
-5.01462011207656
 30
0.0
 40
0.15
  1
LivingRoom
 72
1
 11
10.059940768919676
 21
-5.01462011207656
 31
0.0
100
AcDbText
 73
2
  0
LWPOLYLINE
  5
6A
330
17
100
AcDbEntity
  8
Dining
100
AcDbPolyline
 90
7
 70
1
 10
-7.489301476820653
 20
3.0073298278616054
 10
-8.519118226830155
 20
-1.4489612321333478
 10
-10.95292133115068
 20
-0.8865268737597178
 10
-10.756579062820013
 20
-0.0369016418405357
 10
-10.637609183074456
 20
-0.0643947237014704
 10
-9.804134701395615
 20
3.5422711043743007
 10
-7.489301476820653
 20
3.0073298278616054
  0
TEXT
  5
6B
330
17
100
AcDbEntity
  8
Labels
100
AcDbText
 10
-9.177478767391138
 20
1.0318848165831251
 30
0.0
 40
0.15
  1
Dining
 72
1
 11
-9.177478767391138
 21
1.0318848165831251
 31
0.0
100
AcDbText
 73
2
  0
LWPOLYLINE
  5
6C
330
17
100
AcDbEntity
  8
LivingRoom
100
AcDbPolyline
 90
7
 70
1
 10
-10.722720802024615
 20
0.489547113864008
 10
-10.833689816155545
 20
0.0093546664178685
 10
-10.852474534010103
 20
0.0136956793432788
 10
-11.055055137195932
 20
-0.8629244872029158
 10
-11.885895651260558
 20
-0.6709232317976577
 10
-11.572346033943798
 20
0.6858893821946763
 10
-10.722720802024615
 20
0.489547113864008
  0
TEXT
  5
6D
330
17
100
AcDbEntity
  8
Labels
100
AcDbText
 10
-11.309524283462487
 20
-0.08581746671754488
 30
0.0
 40
0.15
  1
LivingRoom
 72
1
 11
-11.309524283462487
 21
-0.08581746671754488
 31
0.0
100
AcDbText
 73
2
  0
CIRCLE
  5
6E
330
17
100
AcDbEntity
  8
Graph_nodes
100
AcDbCircle
 10
6.255627959083388
 20
-3.1097982974478864
 30
0.0
 40
0.08
  0
CIRCLE
  5
6F
330
17
100
AcDbEntity
  8
Graph_nodes
100
AcDbCircle
 10
3.0588317559433578
 20
-3.2285171675922766
 30
0.0
 40
0.08
  0
CIRCLE
  5
70
330
17
100
AcDbEntity
  8
Graph_nodes
100
AcDbCircle
 10
2.918388819479277
 20
2.8635276221786428
 30
0.0
 40
0.08
  0
CIRCLE
  5
71
330
17
100
AcDbEntity
  8
Graph_nodes
100
AcDbCircle
 10
1.0943696295866907
 20
0.31566542220281235
 30
0.0
 40
0.08
  0
CIRCLE
  5
72
330
17
100
AcDbEntity
  8
Graph_nodes
100
AcDbCircle
 10
7.9001314666726765
 20
-7.025268386019911
 30
0.0
 40
0.08
  0
CIRCLE
  5
73
330
17
100
AcDbEntity
  8
Graph_nodes
100
AcDbCircle
 10
4.317560231597929
 20
-1.5522139409849036
 30
0.0
 40
0.08
  0
CIRCLE
  5
74
330
17
100
AcDbEntity
  8
Graph_nodes
100
AcDbCircle
 10
3.294744805996057
 20
-5.960996717140074
 30
0.0
 40
0.08
  0
CIRCLE
  5
75
330
17
100
AcDbEntity
  8
Graph_nodes
100
AcDbCircle
 10
0.2728274427401528
 20
-4.3552168242411184
 30
0.0
 40
0.08
  0
CIRCLE
  5
76
330
17
100
AcDbEntity
  8
Graph_nodes
100
AcDbCircle
 10
6.800070844661525
 20
2.014772924550662
 30
0.0
 40
0.08
  0
CIRCLE
  5
77
330
17
100
AcDbEntity
  8
Graph_nodes
100
AcDbCircle
 10
14.577080318179853
 20
-2.7013206085443224
 30
0.0
 40
0.08
  0
CIRCLE
  5
78
330
17
100
AcDbEntity
  8
Graph_nodes
100
AcDbCircle
 10
-10.2107438292793
 20
-2.836677637460746
 30
0.0
 40
0.08
  0
CIRCLE
  5
79
330
17
100
AcDbEntity
  8
Graph_nodes
100
AcDbCircle
 10
-4.169455762341653
 20
0.5068173005526453
 30
0.0
 40
0.08
  0
CIRCLE
  5
7A
330
17
100
AcDbEntity
  8
Graph_nodes
100
AcDbCircle
 10
-5.2464770601856054
 20
4.74986548362668
 30
0.0
 40
0.08
  0
CIRCLE
  5
7B
330
17
100
AcDbEntity
  8
Graph_nodes
100
AcDbCircle
 10
-7.013923797669762
 20
-0.04913238030927375
 30
0.0
 40
0.08
  0
CIRCLE
  5
7C
330
17
100
AcDbEntity
  8
Graph_nodes
100
AcDbCircle
 10
-8.871659738592173
 20
5.6265029777617555
 30
0.0
 40
0.08
  0
CIRCLE
  5
7D
330
17
100
AcDbEntity
  8
Graph_nodes
100
AcDbCircle
 10
-13.576284838672535
 20
3.802677848939356
 30
0.0
 40
0.08
  0
CIRCLE
  5
7E
330
17
100
AcDbEntity
  8
Graph_nodes
100
AcDbCircle
 10
-4.1968839042270325
 20
-1.5451776014571184
 30
0.0
 40
0.08
  0
CIRCLE
  5
7F
330
17
100
AcDbEntity
  8
Graph_nodes
100
AcDbCircle
 10
-5.611618741220871
 20
-3.8995023020321122
 30
0.0
 40
0.08
  0
CIRCLE
  5
80
330
17
100
AcDbEntity
  8
Graph_nodes
100
AcDbCircle
 10
-2.175457187399631
 20
-3.785629662637149
 30
0.0
 40
0.08
  0
CIRCLE
  5
81
330
17
100
AcDbEntity
  8
Graph_nodes
100
AcDbCircle
 10
10.876253839688875
 20
-2.7175876710293236
 30
0.0
 40
0.08
  0
CIRCLE
  5
82
330
17
100
AcDbEntity
  8
Graph_nodes
100
AcDbCircle
 10
8.652010917785013
 20
-3.0647395643560813
 30
0.0
 40
0.08
  0
CIRCLE
  5
83
330
17
100
AcDbEntity
  8
Graph_nodes
100
AcDbCircle
 10
-11.030942402626076
 20
2.2767521296366384
 30
0.0
 40
0.08
  0
CIRCLE
  5
84
330
17
100
AcDbEntity
  8
Graph_nodes
100
AcDbCircle
 10
10.059940768919676
 20
-5.01462011207656
 30
0.0
 40
0.08
  0
CIRCLE
  5
85
330
17
100
AcDbEntity
  8
Graph_nodes
100
AcDbCircle
 10
-9.177478767391138
 20
1.0318848165831251
 30
0.0
 40
0.08
  0
CIRCLE
  5
86
330
17
100
AcDbEntity
  8
Graph_nodes
100
AcDbCircle
 10
-11.309524283462487
 20
-0.08581746671754488
 30
0.0
 40
0.08
  0
LINE
  5
87
330
17
100
AcDbEntity
  8
Graph_edges_door
100
AcDbLine
 10
6.255627959083388
 20
-3.1097982974478864
 30
0.0
 11
4.317560231597929
 21
-1.5522139409849036
 31
0.0
  0
LINE
  5
88
330
17
100
AcDbEntity
  8
Graph_edges_door
100
AcDbLine
 10
3.0588317559433578
 20
-3.2285171675922766
 30
0.0
 11
4.317560231597929
 21
-1.5522139409849036
 31
0.0
  0
LINE
  5
89
330
17
100
AcDbEntity
  8
Graph_edges_door
100
AcDbLine
 10
2.918388819479277
 20
2.8635276221786428
 30
0.0
 11
4.317560231597929
 21
-1.5522139409849036
 31
0.0
  0
LINE
  5
8A
330
17
100
AcDbEntity
  8
Graph_edges_door
100
AcDbLine
 10
2.918388819479277
 20
2.8635276221786428
 30
0.0
 11
6.800070844661525
 21
2.014772924550662
 31
0.0
  0
LINE
  5
8B
330
17
100
AcDbEntity
  8
Graph_edges_door
100
AcDbLine
 10
2.918388819479277
 20
2.8635276221786428
 30
0.0
 11
14.577080318179853
 21
-2.7013206085443224
 31
0.0
  0
LINE
  5
8C
330
17
100
AcDbEntity
  8
Graph_edges_door
100
AcDbLine
 10
1.0943696295866907
 20
0.31566542220281235
 30
0.0
 11
4.317560231597929
 21
-1.5522139409849036
 31
0.0
  0
LINE
  5
8D
330
17
100
AcDbEntity
  8
Graph_edges_door
100
AcDbLine
 10
7.9001314666726765
 20
-7.025268386019911
 30
0.0
 11
4.317560231597929
 21
-1.5522139409849036
 31
0.0
  0
LINE
  5
8E
330
17
100
AcDbEntity
  8
Graph_edges_door
100
AcDbLine
 10
4.317560231597929
 20
-1.5522139409849036
 30
0.0
 11
3.294744805996057
 21
-5.960996717140074
 31
0.0
  0
LINE
  5
8F
330
17
100
AcDbEntity
  8
Graph_edges_door
100
AcDbLine
 10
4.317560231597929
 20
-1.5522139409849036
 30
0.0
 11
0.2728274427401528
 21
-4.3552168242411184
 31
0.0
  0
LINE
  5
90
330
17
100
AcDbEntity
  8
Graph_edges_entrance
100
AcDbLine
 10
4.317560231597929
 20
-1.5522139409849036
 30
0.0
 11
8.652010917785013
 21
-3.0647395643560813
 31
0.0
  0
LINE
  5
91
330
17
100
AcDbEntity
  8
Graph_edges_door
100
AcDbLine
 10
0.2728274427401528
 20
-4.3552168242411184
 30
0.0
 11
14.577080318179853
 21
-2.7013206085443224
 31
0.0
  0
LINE
  5
92
330
17
100
AcDbEntity
  8
Graph_edges_door
100
AcDbLine
 10
6.800070844661525
 20
2.014772924550662
 30
0.0
 11
14.577080318179853
 21
-2.7013206085443224
 31
0.0
  0
LINE
  5
93
330
17
100
AcDbEntity
  8
Graph_edges_door
100
AcDbLine
 10
-10.2107438292793
 20
-2.836677637460746
 30
0.0
 11
-4.169455762341653
 21
0.5068173005526453
 31
0.0
  0
LINE
  5
94
330
17
100
AcDbEntity
  8
Graph_edges_door
100
AcDbLine
 10
-4.169455762341653
 20
0.5068173005526453
 30
0.0
 11
-5.2464770601856054
 21
4.74986548362668
 31
0.0
  0
LINE
  5
95
330
17
100
AcDbEntity
  8
Graph_edges_door
100
AcDbLine
 10
-4.169455762341653
 20
0.5068173005526453
 30
0.0
 11
-7.013923797669762
 21
-0.04913238030927375
 31
0.0
  0
LINE
  5
96
330
17
100
AcDbEntity
  8
Graph_edges_door
100
AcDbLine
 10
-4.169455762341653
 20
0.5068173005526453
 30
0.0
 11
-13.576284838672535
 21
3.802677848939356
 31
0.0
  0
LINE
  5
97
330
17
100
AcDbEntity
  8
Graph_edges_door
100
AcDbLine
 10
-4.169455762341653
 20
0.5068173005526453
 30
0.0
 11
-4.1968839042270325
 21
-1.5451776014571184
 31
0.0
  0
LINE
  5
98
330
17
100
AcDbEntity
  8
Graph_edges_door
100
AcDbLine
 10
-4.169455762341653
 20
0.5068173005526453
 30
0.0
 11
-5.611618741220871
 21
-3.8995023020321122
 31
0.0
  0
LINE
  5
99
330
17
100
AcDbEntity
  8
Graph_edges_door
100
AcDbLine
 10
-4.169455762341653
 20
0.5068173005526453
 30
0.0
 11
-2.175457187399631
 21
-3.785629662637149
 31
0.0
  0
LINE
  5
9A
330
17
100
AcDbEntity
  8
Graph_edges_entrance
100
AcDbLine
 10
-4.169455762341653
 20
0.5068173005526453
 30
0.0
 11
-9.177478767391138
 21
1.0318848165831251
 31
0.0
  0
LINE
  5
9B
330
17
100
AcDbEntity
  8
Graph_edges_door
100
AcDbLine
 10
-5.2464770601856054
 20
4.74986548362668
 30
0.0
 11
-8.871659738592173
 21
5.6265029777617555
 31
0.0
  0
LINE
  5
9C
330
17
100
AcDbEntity
  8
Graph_edges_door
100
AcDbLine
 10
-5.2464770601856054
 20
4.74986548362668
 30
0.0
 11
-13.576284838672535
 21
3.802677848939356
 31
0.0
  0
LINE
  5
9D
330
17
100
AcDbEntity
  8
Graph_edges_door
100
AcDbLine
 10
-13.576284838672535
 20
3.802677848939356
 30
0.0
 11
-2.175457187399631
 21
-3.785629662637149
 31
0.0
  0
LINE
  5
9E
330
17
100
AcDbEntity
  8
Graph_edges_door
100
AcDbLine
 10
10.876253839688875
 20
-2.7175876710293236
 30
0.0
 11
8.652010917785013
 21
-3.0647395643560813
 31
0.0
  0
LINE
  5
9F
330
17
100
AcDbEntity
  8
Graph_edges_door
100
AcDbLine
 10
8.652010917785013
 20
-3.0647395643560813
 30
0.0
 11
10.059940768919676
 21
-5.01462011207656
 31
0.0
  0
LINE
  5
A0
330
17
100
AcDbEntity
  8
Graph_edges_door
100
AcDbLine
 10
-11.030942402626076
 20
2.2767521296366384
 30
0.0
 11
-9.177478767391138
 21
1.0318848165831251
 31
0.0
  0
LINE
  5
A1
330
17
100
AcDbEntity
  8
Graph_edges_door
100
AcDbLine
 10
-9.177478767391138
 20
1.0318848165831251
 30
0.0
 11
-11.309524283462487
 21
-0.08581746671754488
 31
0.0
  0
ENDSEC
  0
SECTION
  2
OBJECTS
  0
DICTIONARY
  5
A
330
0
100
AcDbDictionary
281
1
  3
ACAD_COLOR
350
B
  3
ACAD_GROUP
350
C
  3
ACAD_LAYOUT
350
D
  3
ACAD_MATERIAL
350
E
  3
ACAD_MLEADERSTYLE
350
F
  3
ACAD_MLINESTYLE
350
10
  3
ACAD_PLOTSETTINGS
350
11
  3
ACAD_PLOTSTYLENAME
350
12
  3
ACAD_SCALELIST
350
14
  3
ACAD_TABLESTYLE
350
15
  3
ACAD_VISUALSTYLE
350
16
  3
EZDXF_META
350
2D
  0
DICTIONARY
  5
B
330
A
100
AcDbDictionary
281
1
  0
DICTIONARY
  5
C
330
A
100
AcDbDictionary
281
1
  0
DICTIONARY
  5
D
330
A
100
AcDbDictionary
281
1
  3
Model
350
1A
  3
Layout1
350
1E
  0
DICTIONARY
  5
E
330
A
100
AcDbDictionary
281
1
  3
ByBlock
350
1F
  3
ByLayer
350
20
  3
Global
350
21
  0
DICTIONARY
  5
F
330
A
100
AcDbDictionary
281
1
  3
Standard
350
2C
  0
DICTIONARY
  5
10
330
A
100
AcDbDictionary
281
1
  3
Standard
350
22
  0
DICTIONARY
  5
11
330
A
100
AcDbDictionary
281
1
  0
ACDBDICTIONARYWDFLT
  5
12
330
A
100
AcDbDictionary
281
1
  3
Normal
350
13
100
AcDbDictionaryWithDefault
340
13
  0
ACDBPLACEHOLDER
  5
13
330
12
  0
DICTIONARY
  5
14
330
A
100
AcDbDictionary
281
1
  0
DICTIONARY
  5
15
330
A
100
AcDbDictionary
281
1
  0
DICTIONARY
  5
16
330
A
100
AcDbDictionary
281
1
  0
LAYOUT
  5
1A
330
D
100
AcDbPlotSettings
  1

  4
A3
  6

 40
7.5
 41
20.0
 42
7.5
 43
20.0
 44
420.0
 45
297.0
 46
0.0
 47
0.0
 48
0.0
 49
0.0
140
0.0
141
0.0
142
1.0
143
1.0
 70
1024
 72
1
 73
0
 74
5
  7

 75
16
 76
0
 77
2
 78
300
147
1.0
148
0.0
149
0.0
100
AcDbLayout
  1
Model
 70
1
 71
0
 10
0.0
 20
0.0
 11
420.0
 21
297.0
 12
0.0
 22
0.0
 32
0.0
 14
1e+20
 24
1e+20
 34
1e+20
 15
-1e+20
 25
-1e+20
 35
-1e+20
146
0.0
 13
0.0
 23
0.0
 33
0.0
 16
1.0
 26
0.0
 36
0.0
 17
0.0
 27
1.0
 37
0.0
 76
1
330
17
  0
LAYOUT
  5
1E
330
D
100
AcDbPlotSettings
  1

  4
A3
  6

 40
7.5
 41
20.0
 42
7.5
 43
20.0
 44
420.0
 45
297.0
 46
0.0
 47
0.0
 48
0.0
 49
0.0
140
0.0
141
0.0
142
1.0
143
1.0
 70
0
 72
1
 73
0
 74
5
  7

 75
16
 76
0
 77
2
 78
300
147
1.0
148
0.0
149
0.0
100
AcDbLayout
  1
Layout1
 70
1
 71
1
 10
0.0
 20
0.0
 11
420.0
 21
297.0
 12
0.0
 22
0.0
 32
0.0
 14
1e+20
 24
1e+20
 34
1e+20
 15
-1e+20
 25
-1e+20
 35
-1e+20
146
0.0
 13
0.0
 23
0.0
 33
0.0
 16
1.0
 26
0.0
 36
0.0
 17
0.0
 27
1.0
 37
0.0
 76
1
330
1B
  0
MATERIAL
  5
1F
102
{ACAD_REACTORS
330
E
102
}
330
E
100
AcDbMaterial
  1
ByBlock
  2

 70
0
 40
1.0
 71
1
 41
1.0
 91
-1023410177
 42
1.0
 72
1
  3

 73
1
 74
1
 75
1
 44
0.5
 73
0
 45
1.0
 46
1.0
 77
1
  4

 78
1
 79
1
170
1
 48
1.0
171
1
  6

172
1
173
1
174
1
140
1.0
141
1.0
175
1
  7

176
1
177
1
178
1
143
1.0
179
1
  8

270
1
271
1
272
1
145
1.0
146
1.0
273
1
  9

274
1
275
1
276
1
 42
1.0
 72
1
  3

 73
1
 74
1
 75
1
 94
63
  0
MATERIAL
  5
20
102
{ACAD_REACTORS
330
E
102
}
330
E
100
AcDbMaterial
  1
ByLayer
  2

 70
0
 40
1.0
 71
1
 41
1.0
 91
-1023410177
 42
1.0
 72
1
  3

 73
1
 74
1
 75
1
 44
0.5
 73
0
 45
1.0
 46
1.0
 77
1
  4

 78
1
 79
1
170
1
 48
1.0
171
1
  6

172
1
173
1
174
1
140
1.0
141
1.0
175
1
  7

176
1
177
1
178
1
143
1.0
179
1
  8

270
1
271
1
272
1
145
1.0
146
1.0
273
1
  9

274
1
275
1
276
1
 42
1.0
 72
1
  3

 73
1
 74
1
 75
1
 94
63
  0
MATERIAL
  5
21
102
{ACAD_REACTORS
330
E
102
}
330
E
100
AcDbMaterial
  1
Global
  2

 70
0
 40
1.0
 71
1
 41
1.0
 91
-1023410177
 42
1.0
 72
1
  3

 73
1
 74
1
 75
1
 44
0.5
 73
0
 45
1.0
 46
1.0
 77
1
  4

 78
1
 79
1
170
1
 48
1.0
171
1
  6

172
1
173
1
174
1
140
1.0
141
1.0
175
1
  7

176
1
177
1
178
1
143
1.0
179
1
  8

270
1
271
1
272
1
145
1.0
146
1.0
273
1
  9

274
1
275
1
276
1
 42
1.0
 72
1
  3

 73
1
 74
1
 75
1
 94
63
  0
MLINESTYLE
  5
22
102
{ACAD_REACTORS
330
10
102
}
330
10
100
AcDbMlineStyle
  2
Standard
 70
0
  3

 62
256
 51
90.0
 52
90.0
 71
2
 49
0.5
 62
256
  6
BYLAYER
 49
-0.5
 62
256
  6
BYLAYER
  0
MLEADERSTYLE
  5
2C
102
{ACAD_REACTORS
330
F
102
}
330
F
100
AcDbMLeaderStyle
179
2
170
2
171
1
172
0
 90
2
 40
0.0
 41
0.0
173
1
 91
-1056964608
 92
-2
290
1
 42
2.0
291
1
 43
8.0
  3
Standard
 44
4.0
300

342
29
174
1
175
1
176
0
178
1
 93
-1056964608
 45
4.0
292
0
297
0
 46
4.0
 94
-1056964608
 47
1.0
 49
1.0
140
1.0
294
1
141
0.0
177
0
142
1.0
295
0
296
0
143
3.75
271
0
272
9
273
9
  0
DICTIONARY
  5
2D
330
A
100
AcDbDictionary
280
1
281
1
  3
CREATED_BY_EZDXF
350
2E
  3
WRITTEN_BY_EZDXF
350
A4
  0
DICTIONARYVAR
  5
2E
330
2D
100
DictionaryVariables
280
0
  1
1.4.4 @ 2026-06-20T16:10:11.087766+00:00
  0
DICTIONARYVAR
  5
A4
330
2D
100
DictionaryVariables
280
0
  1
1.4.4 @ 2026-06-20T16:10:11.094766+00:00
  0
ENDSEC
  0
EOF
