  0
SECTION
  2
HEADER
  9
$ACADVER
  1
AC1024
  9
$ACADMAINTVER
 70
6
  9
$DWGCODEPAGE
  3
ANSI_1252
  9
$LASTSAVEDBY
  1
ezdxf
  9
$INSBASE
 10
0.0
 20
0.0
 30
0.0
  9
$EXTMIN
 10
1e+20
 20
1e+20
 30
1e+20
  9
$EXTMAX
 10
-1e+20
 20
-1e+20
 30
-1e+20
  9
$LIMMIN
 10
0.0
 20
0.0
  9
$LIMMAX
 10
420.0
 20
297.0
  9
$ORTHOMODE
 70
0
  9
$REGENMODE
 70
1
  9
$FILLMODE
 70
1
  9
$QTEXTMODE
 70
0
  9
$MIRRTEXT
 70
1
  9
$LTSCALE
 40
1.0
  9
$ATTMODE
 70
1
  9
$TEXTSIZE
 40
2.5
  9
$TRACEWID
 40
1.0
  9
$TEXTSTYLE
  7
Standard
  9
$CLAYER
  8
0
  9
$CELTYPE
  6
ByLayer
  9
$CECOLOR
 62
256
  9
$CELTSCALE
 40
1.0
  9
$DISPSILH
 70
0
  9
$DIMSCALE
 40
1.0
  9
$DIMASZ
 40
2.5
  9
$DIMEXO
 40
0.625
  9
$DIMDLI
 40
3.75
  9
$DIMRND
 40
0.0
  9
$DIMDLE
 40
0.0
  9
$DIMEXE
 40
1.25
  9
$DIMTP
 40
0.0
  9
$DIMTM
 40
0.0
  9
$DIMTXT
 40
2.5
  9
$DIMCEN
 40
2.5
  9
$DIMTSZ
 40
0.0
  9
$DIMTOL
 70
0
  9
$DIMLIM
 70
0
  9
$DIMTIH
 70
0
  9
$DIMTOH
 70
0
  9
$DIMSE1
 70
0
  9
$DIMSE2
 70
0
  9
$DIMTAD
 70
1
  9
$DIMZIN
 70
8
  9
$DIMBLK
  1

  9
$DIMASO
 70
1
  9
$DIMSHO
 70
1
  9
$DIMPOST
  1

  9
$DIMAPOST
  1

  9
$DIMALT
 70
0
  9
$DIMALTD
 70
3
  9
$DIMALTF
 40
0.03937007874
  9
$DIMLFAC
 40
1.0
  9
$DIMTOFL
 70
1
  9
$DIMTVP
 40
0.0
  9
$DIMTIX
 70
0
  9
$DIMSOXD
 70
0
  9
$DIMSAH
 70
0
  9
$DIMBLK1
  1

  9
$DIMBLK2
  1

  9
$DIMSTYLE
  2
ISO-25
  9
$DIMCLRD
 70
0
  9
$DIMCLRE
 70
0
  9
$DIMCLRT
 70
0
  9
$DIMTFAC
 40
1.0
  9
$DIMGAP
 40
0.625
  9
$DIMJUST
 70
0
  9
$DIMSD1
 70
0
  9
$DIMSD2
 70
0
  9
$DIMTOLJ
 70
0
  9
$DIMTZIN
 70
8
  9
$DIMALTZ
 70
0
  9
$DIMALTTZ
 70
0
  9
$DIMUPT
 70
0
  9
$DIMDEC
 70
2
  9
$DIMTDEC
 70
2
  9
$DIMALTU
 70
2
  9
$DIMALTTD
 70
3
  9
$DIMTXSTY
  7
Standard
  9
$DIMAUNIT
 70
0
  9
$DIMADEC
 70
0
  9
$DIMALTRND
 40
0.0
  9
$DIMAZIN
 70
0
  9
$DIMDSEP
 70
44
  9
$DIMATFIT
 70
3
  9
$DIMFRAC
 70
0
  9
$DIMLDRBLK
  1

  9
$DIMLUNIT
 70
2
  9
$DIMLWD
 70
-2
  9
$DIMLWE
 70
-2
  9
$DIMTMOVE
 70
0
  9
$DIMFXL
 40
1.0
  9
$DIMFXLON
 70
0
  9
$DIMJOGANG
 40
0.785398163397
  9
$DIMTFILL
 70
0
  9
$DIMTFILLCLR
 70
0
  9
$DIMARCSYM
 70
0
  9
$DIMLTYPE
  6

  9
$DIMLTEX1
  6

  9
$DIMLTEX2
  6

  9
$DIMTXTDIRECTION
 70
0
  9
$LUNITS
 70
2
  9
$LUPREC
 70
4
  9
$SKETCHINC
 40
1.0
  9
$FILLETRAD
 40
10.0
  9
$AUNITS
 70
0
  9
$AUPREC
 70
2
  9
$MENU
  1
.
  9
$ELEVATION
 40
0.0
  9
$PELEVATION
 40
0.0
  9
$THICKNESS
 40
0.0
  9
$LIMCHECK
 70
0
  9
$CHAMFERA
 40
0.0
  9
$CHAMFERB
 40
0.0
  9
$CHAMFERC
 40
0.0
  9
$CHAMFERD
 40
0.0
  9
$SKPOLY
 70
0
  9
$TDCREATE
 40
2461212.8217592593
  9
$TDUCREATE
 40
2458532.153996898
  9
$TDUPDATE
 40
2461212.8217592593
  9
$TDUUPDATE
 40
2458532.1544311
  9
$TDINDWG
 40
0.0
  9
$TDUSRTIMER
 40
0.0
  9
$USRTIMER
 70
1
  9
$ANGBASE
 50
0.0
  9
$ANGDIR
 70
0
  9
$PDMODE
 70
0
  9
$PDSIZE
 40
0.0
  9
$PLINEWID
 40
0.0
  9
$SPLFRAME
 70
0
  9
$SPLINETYPE
 70
6
  9
$SPLINESEGS
 70
8
  9
$HANDSEED
  5
AC
  9
$SURFTAB1
 70
6
  9
$SURFTAB2
 70
6
  9
$SURFTYPE
 70
6
  9
$SURFU
 70
6
  9
$SURFV
 70
6
  9
$UCSBASE
  2

  9
$UCSNAME
  2

  9
$UCSORG
 10
0.0
 20
0.0
 30
0.0
  9
$UCSXDIR
 10
1.0
 20
0.0
 30
0.0
  9
$UCSYDIR
 10
0.0
 20
1.0
 30
0.0
  9
$UCSORTHOREF
  2

  9
$UCSORTHOVIEW
 70
0
  9
$UCSORGTOP
 10
0.0
 20
0.0
 30
0.0
  9
$UCSORGBOTTOM
 10
0.0
 20
0.0
 30
0.0
  9
$UCSORGLEFT
 10
0.0
 20
0.0
 30
0.0
  9
$UCSORGRIGHT
 10
0.0
 20
0.0
 30
0.0
  9
$UCSORGFRONT
 10
0.0
 20
0.0
 30
0.0
  9
$UCSORGBACK
 10
0.0
 20
0.0
 30
0.0
  9
$PUCSBASE
  2

  9
$PUCSNAME
  2

  9
$PUCSORG
 10
0.0
 20
0.0
 30
0.0
  9
$PUCSXDIR
 10
1.0
 20
0.0
 30
0.0
  9
$PUCSYDIR
 10
0.0
 20
1.0
 30
0.0
  9
$PUCSORTHOREF
  2

  9
$PUCSORTHOVIEW
 70
0
  9
$PUCSORGTOP
 10
0.0
 20
0.0
 30
0.0
  9
$PUCSORGBOTTOM
 10
0.0
 20
0.0
 30
0.0
  9
$PUCSORGLEFT
 10
0.0
 20
0.0
 30
0.0
  9
$PUCSORGRIGHT
 10
0.0
 20
0.0
 30
0.0
  9
$PUCSORGFRONT
 10
0.0
 20
0.0
 30
0.0
  9
$PUCSORGBACK
 10
0.0
 20
0.0
 30
0.0
  9
$USERI1
 70
0
  9
$USERI2
 70
0
  9
$USERI3
 70
0
  9
$USERI4
 70
0
  9
$USERI5
 70
0
  9
$USERR1
 40
0.0
  9
$USERR2
 40
0.0
  9
$USERR3
 40
0.0
  9
$USERR4
 40
0.0
  9
$USERR5
 40
0.0
  9
$WORLDVIEW
 70
1
  9
$SHADEDGE
 70
3
  9
$SHADEDIF
 70
70
  9
$TILEMODE
 70
1
  9
$MAXACTVP
 70
64
  9
$PINSBASE
 10
0.0
 20
0.0
 30
0.0
  9
$PLIMCHECK
 70
0
  9
$PEXTMIN
 10
1e+20
 20
1e+20
 30
1e+20
  9
$PEXTMAX
 10
-1e+20
 20
-1e+20
 30
-1e+20
  9
$PLIMMIN
 10
0.0
 20
0.0
  9
$PLIMMAX
 10
420.0
 20
297.0
  9
$UNITMODE
 70
0
  9
$VISRETAIN
 70
1
  9
$PLINEGEN
 70
0
  9
$PSLTSCALE
 70
1
  9
$TREEDEPTH
 70
3020
  9
$CMLSTYLE
  2
Standard
  9
$CMLJUST
 70
0
  9
$CMLSCALE
 40
20.0
  9
$PROXYGRAPHICS
 70
1
  9
$MEASUREMENT
 70
1
  9
$CELWEIGHT
370
-1
  9
$ENDCAPS
280
0
  9
$JOINSTYLE
280
0
  9
$LWDISPLAY
290
0
  9
$INSUNITS
 70
6
  9
$HYPERLINKBASE
  1

  9
$STYLESHEET
  1

  9
$XEDIT
290
1
  9
$CEPSNTYPE
380
0
  9
$PSTYLEMODE
290
1
  9
$FINGERPRINTGUID
  2
{1D7AC555-3F20-4F1E-B629-7B0680144E35}
  9
$VERSIONGUID
  2
{0D1139E9-E2F7-4302-A509-47A209C8AF81}
  9
$EXTNAMES
290
1
  9
$PSVPSCALE
 40
0.0
  9
$OLESTARTUP
290
0
  9
$SORTENTS
280
127
  9
$INDEXCTL
280
0
  9
$HIDETEXT
280
1
  9
$XCLIPFRAME
280
1
  9
$HALOGAP
280
0
  9
$OBSCOLOR
 70
257
  9
$OBSLTYPE
280
0
  9
$INTERSECTIONDISPLAY
280
0
  9
$INTERSECTIONCOLOR
 70
257
  9
$DIMASSOC
280
2
  9
$PROJECTNAME
  1

  9
$CAMERADISPLAY
290
0
  9
$LENSLENGTH
 40
50.0
  9
$CAMERAHEIGHT
 40
0.0
  9
$STEPSPERSEC
 40
24.0
  9
$STEPSIZE
 40
100.0
  9
$3DDWFPREC
 40
2.0
  9
$PSOLWIDTH
 40
0.005
  9
$PSOLHEIGHT
 40
0.08
  9
$LOFTANG1
 40
1.570796326795
  9
$LOFTANG2
 40
1.570796326795
  9
$LOFTMAG1
 40
0.0
  9
$LOFTMAG2
 40
0.0
  9
$LOFTPARAM
 70
7
  9
$LOFTNORMALS
280
1
  9
$LATITUDE
 40
37.795
  9
$LONGITUDE
 40
-122.394
  9
$NORTHDIRECTION
 40
0.0
  9
$TIMEZONE
 70
-8000
  9
$LIGHTGLYPHDISPLAY
280
1
  9
$TILEMODELIGHTSYNCH
280
1
  9
$CMATERIAL
347
20
  9
$SOLIDHIST
280
0
  9
$SHOWHIST
280
1
  9
$DWFFRAME
280
2
  9
$DGNFRAME
280
2
  9
$REALWORLDSCALE
290
1
  9
$INTERFERECOLOR
 62
256
  9
$CSHADOW
280
0
  9
$SHADOWPLANELOCATION
 40
0.0
  0
ENDSEC
  0
SECTION
  2
CLASSES
  0
CLASS
  1
ACDBDICTIONARYWDFLT
  2
AcDbDictionaryWithDefault
  3
ObjectDBX Classes
 90
0
 91
0
280
0
281
0
  0
CLASS
  1
SUN
  2
AcDbSun
  3
SCENEOE
 90
1153
 91
0
280
0
281
0
  0
CLASS
  1
VISUALSTYLE
  2
AcDbVisualStyle
  3
ObjectDBX Classes
 90
4095
 91
0
280
0
281
0
  0
CLASS
  1
MATERIAL
  2
AcDbMaterial
  3
ObjectDBX Classes
 90
1153
 91
0
280
0
281
0
  0
CLASS
  1
SCALE
  2
AcDbScale
  3
ObjectDBX Classes
 90
1153
 91
0
280
0
281
0
  0
CLASS
  1
TABLESTYLE
  2
AcDbTableStyle
  3
ObjectDBX Classes
 90
4095
 91
0
280
0
281
0
  0
CLASS
  1
MLEADERSTYLE
  2
AcDbMLeaderStyle
  3
ACDB_MLEADERSTYLE_CLASS
 90
4095
 91
0
280
0
281
0
  0
CLASS
  1
DICTIONARYVAR
  2
AcDbDictionaryVar
  3
ObjectDBX Classes
 90
0
 91
0
280
0
281
0
  0
CLASS
  1
CELLSTYLEMAP
  2
AcDbCellStyleMap
  3
ObjectDBX Classes
 90
1152
 91
0
280
0
281
0
  0
CLASS
  1
MENTALRAYRENDERSETTINGS
  2
AcDbMentalRayRenderSettings
  3
SCENEOE
 90
1024
 91
0
280
0
281
0
  0
CLASS
  1
ACDBDETAILVIEWSTYLE
  2
AcDbDetailViewStyle
  3
ObjectDBX Classes
 90
1025
 91
0
280
0
281
0
  0
CLASS
  1
ACDBSECTIONVIEWSTYLE
  2
AcDbSectionViewStyle
  3
ObjectDBX Classes
 90
1025
 91
0
280
0
281
0
  0
CLASS
  1
RASTERVARIABLES
  2
AcDbRasterVariables
  3
ISM
 90
0
 91
0
280
0
281
0
  0
CLASS
  1
ACDBPLACEHOLDER
  2
AcDbPlaceHolder
  3
ObjectDBX Classes
 90
0
 91
0
280
0
281
0
  0
CLASS
  1
LAYOUT
  2
AcDbLayout
  3
ObjectDBX Classes
 90
0
 91
0
280
0
281
0
  0
ENDSEC
  0
SECTION
  2
TABLES
  0
TABLE
  2
VPORT
  5
8
330
0
100
AcDbSymbolTable
 70
1
  0
VPORT
  5
23
330
8
100
AcDbSymbolTableRecord
100
AcDbViewportTableRecord
  2
*Active
 70
0
 10
0.0
 20
0.0
 11
1.0
 21
1.0
 12
0.0
 22
0.0
 13
0.0
 23
0.0
 14
0.5
 24
0.5
 15
0.5
 25
0.5
 16
0.0
 26
0.0
 36
1.0
 17
0.0
 27
0.0
 37
0.0
 40
1000.0
 41
1.34
 42
50.0
 43
0.0
 44
0.0
 50
0.0
 51
0.0
 71
0
 72
1000
 73
1
 74
3
 75
0
 76
0
 77
0
 78
0
281
0
 65
0
146
0.0
  0
ENDTAB
  0
TABLE
  2
LTYPE
  5
2
330
0
100
AcDbSymbolTable
 70
3
  0
LTYPE
  5
24
330
2
100
AcDbSymbolTableRecord
100
AcDbLinetypeTableRecord
  2
ByBlock
 70
0
  3

 72
65
 73
0
 40
0.0
  0
LTYPE
  5
25
330
2
100
AcDbSymbolTableRecord
100
AcDbLinetypeTableRecord
  2
ByLayer
 70
0
  3

 72
65
 73
0
 40
0.0
  0
LTYPE
  5
26
330
2
100
AcDbSymbolTableRecord
100
AcDbLinetypeTableRecord
  2
Continuous
 70
0
  3

 72
65
 73
0
 40
0.0
  0
ENDTAB
  0
TABLE
  2
LAYER
  5
1
330
0
100
AcDbSymbolTable
 70
15
  0
LAYER
  5
27
330
1
100
AcDbSymbolTableRecord
100
AcDbLayerTableRecord
  2
0
 70
0
 62
7
  6
Continuous
370
-3
390
13
347
21
  0
LAYER
  5
28
330
1
100
AcDbSymbolTableRecord
100
AcDbLayerTableRecord
  2
Defpoints
 70
0
 62
7
  6
Continuous
290
0
370
-3
390
13
347
21
  0
LAYER
  5
2F
330
1
100
AcDbSymbolTableRecord
100
AcDbLayerTableRecord
  2
Balcony
 70
0
 62
140
  6
Continuous
370
-3
390
13
347
21
  0
LAYER
  5
30
330
1
100
AcDbSymbolTableRecord
100
AcDbLayerTableRecord
  2
Bathroom
 70
0
 62
92
  6
Continuous
370
-3
390
13
347
21
  0
LAYER
  5
31
330
1
100
AcDbSymbolTableRecord
100
AcDbLayerTableRecord
  2
Bedroom
 70
0
 62
50
  6
Continuous
370
-3
390
13
347
21
  0
LAYER
  5
32
330
1
100
AcDbSymbolTableRecord
100
AcDbLayerTableRecord
  2
Corridor
 70
0
 62
30
  6
Continuous
370
-3
390
13
347
21
  0
LAYER
  5
33
330
1
100
AcDbSymbolTableRecord
100
AcDbLayerTableRecord
  2
Dining
 70
0
 62
210
  6
Continuous
370
-3
390
13
347
21
  0
LAYER
  5
34
330
1
100
AcDbSymbolTableRecord
100
AcDbLayerTableRecord
  2
Kitchen
 70
0
 62
10
  6
Continuous
370
-3
390
13
347
21
  0
LAYER
  5
35
330
1
100
AcDbSymbolTableRecord
100
AcDbLayerTableRecord
  2
LivingRoom
 70
0
 62
150
  6
Continuous
370
-3
390
13
347
21
  0
LAYER
  5
36
330
1
100
AcDbSymbolTableRecord
100
AcDbLayerTableRecord
  2
Storeroom
 70
0
 62
8
  6
Continuous
370
-3
390
13
347
21
  0
LAYER
  5
37
330
1
100
AcDbSymbolTableRecord
100
AcDbLayerTableRecord
  2
Other
 70
0
 62
255
  6
Continuous
370
-3
390
13
347
21
  0
LAYER
  5
38
330
1
100
AcDbSymbolTableRecord
100
AcDbLayerTableRecord
  2
Labels
 70
0
 62
7
  6
Continuous
370
-3
390
13
347
21
  0
LAYER
  5
39
330
1
100
AcDbSymbolTableRecord
100
AcDbLayerTableRecord
  2
Graph_nodes
 70
0
 62
5
  6
Continuous
370
-3
390
13
347
21
  0
LAYER
  5
3A
330
1
100
AcDbSymbolTableRecord
100
AcDbLayerTableRecord
  2
Graph_edges_door
 70
0
 62
150
  6
Continuous
370
-3
390
13
347
21
  0
LAYER
  5
3B
330
1
100
AcDbSymbolTableRecord
100
AcDbLayerTableRecord
  2
Graph_edges_entrance
 70
0
 62
10
  6
Continuous
370
-3
390
13
347
21
  0
ENDTAB
  0
TABLE
  2
STYLE
  5
5
330
0
100
AcDbSymbolTable
 70
1
  0
STYLE
  5
29
330
5
100
AcDbSymbolTableRecord
100
AcDbTextStyleTableRecord
  2
Standard
 70
0
 40
0.0
 41
1.0
 50
0.0
 71
0
 42
2.5
  3
txt
  4

  0
ENDTAB
  0
TABLE
  2
VIEW
  5
7
330
0
100
AcDbSymbolTable
 70
0
  0
ENDTAB
  0
TABLE
  2
UCS
  5
6
330
0
100
AcDbSymbolTable
 70
0
  0
ENDTAB
  0
TABLE
  2
APPID
  5
3
330
0
100
AcDbSymbolTable
 70
3
  0
APPID
  5
2A
330
3
100
AcDbSymbolTableRecord
100
AcDbRegAppTableRecord
  2
ACAD
 70
0
  0
APPID
  5
A9
330
3
100
AcDbSymbolTableRecord
100
AcDbRegAppTableRecord
  2
HATCHBACKGROUNDCOLOR
 70
0
  0
APPID
  5
AA
330
3
100
AcDbSymbolTableRecord
100
AcDbRegAppTableRecord
  2
EZDXF
 70
0
  0
ENDTAB
  0
TABLE
  2
DIMSTYLE
  5
4
330
0
100
AcDbSymbolTable
 70
1
100
AcDbDimStyleTable
  0
DIMSTYLE
105
2B
330
4
100
AcDbSymbolTableRecord
100
AcDbDimStyleTableRecord
  2
Standard
 70
0
 40
1.0
 41
2.5
 42
0.625
 43
3.75
 44
1.25
 45
0.0
 46
0.0
 47
0.0
 48
0.0
 49
2.5
140
2.5
141
2.5
142
0.0
143
0.03937007874
144
1.0
145
0.0
146
1.0
147
0.625
148
0.0
 69
0
 70
0
 71
0
 72
0
 73
0
 74
0
 75
0
 76
0
 77
1
 78
8
 79
3
170
0
171
3
172
1
173
0
174
0
175
0
176
0
177
0
178
0
179
2
271
2
272
2
273
2
274
3
275
0
276
0
277
2
278
44
279
0
280
0
281
0
282
0
283
0
284
8
285
0
286
0
288
0
289
3
290
0
371
-2
372
-2
  0
ENDTAB
  0
TABLE
  2
BLOCK_RECORD
  5
9
330
0
100
AcDbSymbolTable
 70
2
  0
BLOCK_RECORD
  5
17
330
9
100
AcDbSymbolTableRecord
100
AcDbBlockTableRecord
  2
*Model_Space
340
1A
 70
0
280
1
281
0
  0
BLOCK_RECORD
  5
1B
330
9
100
AcDbSymbolTableRecord
100
AcDbBlockTableRecord
  2
*Paper_Space
340
1E
 70
0
280
1
281
0
  0
ENDTAB
  0
ENDSEC
  0
SECTION
  2
BLOCKS
  0
BLOCK
  5
18
330
17
100
AcDbEntity
  8
0
100
AcDbBlockBegin
  2
*Model_Space
 70
0
 10
0.0
 20
0.0
 30
0.0
  3
*Model_Space
  1

  0
ENDBLK
  5
19
330
17
100
AcDbEntity
  8
0
100
AcDbBlockEnd
  0
BLOCK
  5
1C
330
1B
100
AcDbEntity
  8
0
100
AcDbBlockBegin
  2
*Paper_Space
 70
0
 10
0.0
 20
0.0
 30
0.0
  3
*Paper_Space
  1

  0
ENDBLK
  5
1D
330
1B
100
AcDbEntity
  8
0
100
AcDbBlockEnd
  0
ENDSEC
  0
SECTION
  2
ENTITIES
  0
LWPOLYLINE
  5
3C
330
17
100
AcDbEntity
  8
Balcony
100
AcDbPolyline
 90
9
 70
1
 10
9.827322028481767
 20
-3.3410907942122705
 10
7.2580563701715946
 20
-0.0760341381624841
 10
8.044036555143514
 20
0.542451882170095
 10
9.067926420380367
 20
-0.7587208512685599
 10
11.499064948647337
 20
1.1543365285161027
 10
13.734219177248647
 20
-1.6861269197800208
 10
10.523948741554179
 20
-4.212281425869698
 10
9.834170306026188
 20
-3.3357019001847057
 10
9.827322028481767
 20
-3.3410907942122705
  0
TEXT
  5
3D
330
17
100
AcDbEntity
  8
Labels
100
AcDbText
 10
10.722043992193317
 20
-1.4181190007021753
 30
0.0
 40
0.15
  1
Balcony
 72
1
 11
10.722043992193317
 21
-1.4181190007021753
 31
0.0
100
AcDbText
 73
2
  0
LWPOLYLINE
  5
3E
330
17
100
AcDbEntity
  8
Other
100
AcDbPolyline
 90
23
 70
1
 10
1.948707061535064
 20
13.643351569328006
 10
2.604915340060579
 20
12.809433441545194
 10
2.543280842160854
 20
12.760933395297132
 10
2.634892040629417
 20
12.644512677042094
 10
2.5047747672855465
 20
12.542123690518409
 10
2.5101636613131078
 20
12.535275412973995
 10
-0.6932584968369468
 20
10.014509800911878
 10
-1.0650921847387522
 20
10.487040951476443
 10
-1.071940462283166
 20
10.481652057448882
 10
-1.0773293563107273
 20
10.488500334993295
 10
-1.1663569643881146
 20
10.418444712634983
 10
-1.6662873161143175
 20
11.053762791629792
 10
-0.9609147290396756
 20
11.608818876468721
 10
-1.2626927945831738
 20
11.992322418955906
 10
1.125784335781617
 20
13.871809641738094
 10
1.426325608488014
 20
13.489877831886604
 10
1.4057807758547725
 20
13.473711149803917
 10
1.5363510253533725
 20
13.307780756102286
 10
1.6954331415105877
 20
13.432962111573323
 10
1.6307664131798383
 20
13.51514144210629
 10
1.8209464517877336
 20
13.664793682040935
 10
1.8802242860909217
 20
13.589462629052381
 10
1.948707061535064
 20
13.643351569328006
  0
TEXT
  5
3F
330
17
100
AcDbEntity
  8
Labels
100
AcDbText
 10
0.43059135670114856
 20
12.035350346930588
 30
0.0
 40
0.15
  1
Other
 72
1
 11
0.43059135670114856
 21
12.035350346930588
 31
0.0
100
AcDbText
 73
2
  0
LWPOLYLINE
  5
40
330
17
100
AcDbEntity
  8
Balcony
100
AcDbPolyline
 90
5
 70
1
 10
9.149507152630115
 20
4.140185537880603
 10
11.427772533451922
 20
1.2449358692291757
 10
9.087233345898035
 20
-0.596829095360075
 10
6.808967965076228
 20
2.2984205732913523
 10
9.149507152630115
 20
4.140185537880603
  0
TEXT
  5
41
330
17
100
AcDbEntity
  8
Labels
100
AcDbText
 10
9.118370249264073
 20
1.7716782212602638
 30
0.0
 40
0.15
  1
Balcony
 72
1
 11
9.118370249264073
 21
1.7716782212602638
 31
0.0
100
AcDbText
 73
2
  0
LWPOLYLINE
  5
42
330
17
100
AcDbEntity
  8
Storeroom
100
AcDbPolyline
 90
7
 70
1
 10
5.443460458112931
 20
1.7476237252122893
 10
4.191797400120862
 20
0.7626929110054661
 10
3.2595187333525644
 20
1.9474449261890854
 10
3.1567945701863565
 20
1.8666115157756504
 10
2.7161420527633346
 20
2.426598541781905
 10
4.070529273921608
 20
3.492362766402163
 10
5.443460458112931
 20
1.7476237252122893
  0
TEXT
  5
43
330
17
100
AcDbEntity
  8
Labels
100
AcDbText
 10
4.101819716864411
 20
2.129054748493315
 30
0.0
 40
0.15
  1
Storeroom
 72
1
 11
4.101819716864411
 21
2.129054748493315
 31
0.0
100
AcDbText
 73
2
  0
LWPOLYLINE
  5
44
330
17
100
AcDbEntity
  8
Bedroom
100
AcDbPolyline
 90
11
 70
1
 10
8.589068264747603
 20
3.8236990594927907
 10
6.727908505302693
 20
2.35915667683291
 10
5.468144095690185
 20
3.960081889590093
 10
5.954371801343584
 20
4.342693365547026
 10
5.888468280175729
 20
4.426444428715689
 10
5.402240574522331
 20
4.0438329527587555
 10
5.139421560008877
 20
4.3778268197993455
 10
5.481835437229577
 20
4.647271521177467
 10
4.323223221303657
 20
6.119651193226476
 10
5.841969103527866
 20
7.3147488745082345
 10
8.589068264747603
 20
3.8236990594927907
  0
TEXT
  5
45
330
17
100
AcDbEntity
  8
Labels
100
AcDbText
 10
6.420676298219286
 20
4.806479092122514
 30
0.0
 40
0.15
  1
Bedroom
 72
1
 11
6.420676298219286
 21
4.806479092122514
 31
0.0
100
AcDbText
 73
2
  0
LWPOLYLINE
  5
46
330
17
100
AcDbEntity
  8
Balcony
100
AcDbPolyline
 90
9
 70
1
 10
1.6346345957875954
 20
6.887091277592381
 10
1.6414828733320057
 20
6.892480171619942
 10
-0.5194636317205266
 20
9.638639466929954
 10
2.759289579418084
 20
12.218682913295257
 10
6.266222798524126
 20
7.762025964517438
 10
6.069194482371813
 20
7.606984830555227
 10
6.063805588344245
 20
7.613833108099644
 10
2.97523241581354
 20
5.18344190166899
 10
1.6346345957875954
 20
6.887091277592381
  0
TEXT
  5
47
330
17
100
AcDbEntity
  8
Labels
100
AcDbText
 10
2.870540256539008
 20
8.701533131686299
 30
0.0
 40
0.15
  1
Balcony
 72
1
 11
2.870540256539008
 21
8.701533131686299
 31
0.0
100
AcDbText
 73
2
  0
LWPOLYLINE
  5
48
330
17
100
AcDbEntity
  8
Dining
100
AcDbPolyline
 90
21
 70
1
 10
6.711520346818737
 20
2.2217392640683773
 10
6.718368624363151
 20
2.2271281580959403
 10
7.972744139948098
 20
0.6330512228831715
 10
7.125129457076447
 20
-0.0339348436974678
 10
4.172015529972235
 20
3.7189212506414027
 10
3.9992368587261993
 20
3.5829621071152395
 10
4.010014646781322
 20
3.569265552026412
 10
2.5787246399987964
 20
2.4429867002658643
 10
2.643391368329546
 20
2.3608073697328944
 10
1.9121974037129448
 20
1.7854325016208161
 10
0.9488221656163702
 20
3.0097024494352294
 10
1.6884361404130814
 20
3.591703004411972
 10
1.5806582598618348
 20
3.728668555300249
 10
2.9829834238310085
 20
4.832155038113445
 10
3.273983701319377
 20
4.462348050715093
 10
3.4399140950210096
 20
4.592918300213695
 10
3.0357470429538296
 20
5.1065391160447415
 10
4.191534215324097
 20
6.016025413865691
 10
5.289631804109739
 20
4.620548527440931
 10
5.002004147244342
 20
4.394214978283307
 10
6.711520346818737
 20
2.2217392640683773
  0
TEXT
  5
49
330
17
100
AcDbEntity
  8
Labels
100
AcDbText
 10
4.343090823483147
 20
3.18603649369659
 30
0.0
 40
0.15
  1
Dining
 72
1
 11
4.343090823483147
 21
3.18603649369659
 31
0.0
100
AcDbText
 73
2
  0
LWPOLYLINE
  5
4A
330
17
100
AcDbEntity
  8
Other
100
AcDbPolyline
 90
17
 70
1
 10
-7.68099221607509
 20
-7.118803450694344
 10
-7.6483225609887135
 20
-7.093095773393635
 10
-7.642933666961152
 20
-7.099944050938049
 10
-7.5454860487036655
 20
-7.023262741715072
 10
-7.649111828064449
 20
-6.891573735735513
 10
-7.710746325964177
 20
-6.940073781983575
 10
-8.081343221028884
 20
-6.4691143640547
 10
-7.028280211824821
 20
-5.640461476647186
 10
-2.878831810601749
 20
-10.913635185845962
 10
-2.8308938677908486
 20
-10.875912927653026
 10
-2.7782417203523266
 20
-10.942823970461475
 10
-3.9408771702670116
 20
-11.857699162309988
 10
-5.2234339488268695
 20
-10.227809106739457
 10
-5.620634046402881
 20
-10.540364960338078
 10
-8.065955142079126
 20
-7.432818687809817
 10
-7.675603322047529
 20
-7.125651728238758
 10
-7.68099221607509
 20
-7.118803450694344
  0
TEXT
  5
4B
330
17
100
AcDbEntity
  8
Labels
100
AcDbText
 10
-5.669003750104372
 20
-8.776208141891914
 30
0.0
 40
0.15
  1
Other
 72
1
 11
-5.669003750104372
 21
-8.776208141891914
 31
0.0
100
AcDbText
 73
2
  0
LWPOLYLINE
  5
4C
330
17
100
AcDbEntity
  8
Dining
100
AcDbPolyline
 90
16
 70
1
 10
0.6379649607568894
 20
-2.102887432667238
 10
0.6386192703728923
 20
-2.1026336541649737
 10
0.6385416824984596
 20
-2.1024336116401905
 10
2.1624642836190304
 20
-0.9032623820301069
 10
2.9641727008887315
 20
-1.9220840035120972
 10
2.9573244233443177
 20
-1.9274728975396584
 10
3.017839050484607
 20
-2.0043756831639072
 10
4.84632915484314
 20
-0.5655409778047389
 10
5.470204069203284
 20
-1.3583694403210682
 10
1.6077755341537951
 20
-4.397705671866278
 10
1.684456843376772
 20
-4.495153290123769
 10
2.1638362714857493
 20
-4.1179307081943985
 10
3.2942672244367586
 20
-5.554497259885643
 10
2.0357558889002725
 20
-6.544816968120031
 10
-0.6574543320438444
 20
-3.1222499285487277
 10
0.6379649607568894
 20
-2.102887432667238
  0
TEXT
  5
4D
330
17
100
AcDbEntity
  8
Labels
100
AcDbText
 10
2.07891565196442
 20
-3.255568140757635
 30
0.0
 40
0.15
  1
Dining
 72
1
 11
2.07891565196442
 21
-3.255568140757635
 31
0.0
100
AcDbText
 73
2
  0
LWPOLYLINE
  5
4E
330
17
100
AcDbEntity
  8
Balcony
100
AcDbPolyline
 90
5
 70
1
 10
4.733549455557288
 20
-7.183037059221753
 10
2.2612838897432326
 20
-4.041249398971425
 10
4.6840024078301
 20
-2.1348177060514253
 10
7.156267973644155
 20
-5.276605366301755
 10
4.733549455557288
 20
-7.183037059221753
  0
TEXT
  5
4F
330
17
100
AcDbEntity
  8
Labels
100
AcDbText
 10
4.708775931693694
 20
-4.65892738263659
 30
0.0
 40
0.15
  1
Balcony
 72
1
 11
4.708775931693694
 21
-4.65892738263659
 31
0.0
100
AcDbText
 73
2
  0
LWPOLYLINE
  5
50
330
17
100
AcDbEntity
  8
Storeroom
100
AcDbPolyline
 90
7
 70
1
 10
6.682349194564559
 20
-0.4045351974425184
 10
5.547106854827533
 20
-1.2978548131807806
 10
4.168786776608648
 20
0.4537325055535071
 10
5.530022275311346
 20
1.52488562420133
 10
5.9598970046792346
 20
0.9785951532839068
 10
5.73390384571357
 20
0.800761650374346
 10
6.682349194564559
 20
-0.4045351974425184
  0
TEXT
  5
51
330
17
100
AcDbEntity
  8
Labels
100
AcDbText
 10
5.43763327952318
 20
0.091136186472803
 30
0.0
 40
0.15
  1
Storeroom
 72
1
 11
5.43763327952318
 21
0.091136186472803
 31
0.0
100
AcDbText
 73
2
  0
LWPOLYLINE
  5
52
330
17
100
AcDbEntity
  8
Balcony
100
AcDbPolyline
 90
5
 70
1
 10
-0.4247929003834798
 20
-8.716426683551887
 10
3.408670791852664
 20
-5.6998828209540235
 10
5.536047139902728
 20
-8.403380718361866
 10
1.7025834476665835
 20
-11.41992458095973
 10
-0.4247929003834798
 20
-8.716426683551887
  0
TEXT
  5
53
330
17
100
AcDbEntity
  8
Labels
100
AcDbText
 10
2.5556271197596234
 20
-8.559903700956877
 30
0.0
 40
0.15
  1
Balcony
 72
1
 11
2.5556271197596234
 21
-8.559903700956877
 31
0.0
100
AcDbText
 73
2
  0
LWPOLYLINE
  5
54
330
17
100
AcDbEntity
  8
Storeroom
100
AcDbPolyline
 90
9
 70
1
 10
3.5382977167611998
 20
-0.2419960500046603
 10
3.54514599430561
 20
-0.236607155977099
 10
3.5505348883331713
 20
-0.2434554335215129
 10
4.194272977508085
 20
0.2631006050693561
 10
4.785814527702854
 20
-0.4886381921804901
 10
3.0410754865129803
 20
-1.8615693763718095
 10
2.239367069243279
 20
-0.8427477548898192
 10
3.333519743713822
 20
0.01823849668307
 10
3.5382977167611998
 20
-0.2419960500046603
  0
TEXT
  5
55
330
17
100
AcDbEntity
  8
Labels
100
AcDbText
 10
3.4853656316302066
 20
-0.7530408074866108
 30
0.0
 40
0.15
  1
Storeroom
 72
1
 11
3.4853656316302066
 21
-0.7530408074866108
 31
0.0
100
AcDbText
 73
2
  0
LWPOLYLINE
  5
56
330
17
100
AcDbEntity
  8
Bedroom
100
AcDbPolyline
 90
11
 70
1
 10
1.8629772176542332
 20
-6.680776111646193
 10
-0.5460447453438029
 20
-8.576430016511068
 10
-0.9286562213007379
 20
-8.090202310857673
 10
-0.9834424416560523
 20
-8.133313463078174
 10
-1.585761779905937
 20
-7.3678781107395
 10
-1.53782383709504
 20
-7.330155852546561
 10
-1.9366019951346622
 20
-6.823383314259928
 10
0.1026129804650182
 20
-5.218729686883421
 10
0.4906133504495145
 20
-5.71180567008123
 10
0.867268615392284
 20
-5.415416498565296
 10
1.8629772176542332
 20
-6.680776111646193
  0
TEXT
  5
57
330
17
100
AcDbEntity
  8
Labels
100
AcDbText
 10
-0.07086239829927485
 20
-6.82463742765542
 30
0.0
 40
0.15
  1
Bedroom
 72
1
 11
-0.07086239829927485
 21
-6.82463742765542
 31
0.0
100
AcDbText
 73
2
  0
LWPOLYLINE
  5
58
330
17
100
AcDbEntity
  8
Balcony
100
AcDbPolyline
 90
5
 70
1
 10
9.512075448922566
 20
-3.422825820820279
 10
7.253715591901646
 20
-5.199924057078778
 10
4.78145002608759
 20
-2.0581363968284485
 10
7.039809883108511
 20
-0.281038160569949
 10
9.512075448922566
 20
-3.422825820820279
  0
TEXT
  5
59
330
17
100
AcDbEntity
  8
Labels
100
AcDbText
 10
7.146762737505078
 20
-2.7404811088243632
 30
0.0
 40
0.15
  1
Balcony
 72
1
 11
7.146762737505078
 21
-2.7404811088243632
 31
0.0
100
AcDbText
 73
2
  0
LWPOLYLINE
  5
5A
330
17
100
AcDbEntity
  8
Balcony
100
AcDbPolyline
 90
11
 70
1
 10
0.4079758302123757
 20
-4.831741174654411
 10
-2.098493751043147
 20
-6.80407638874226
 10
-1.6284231778081129
 20
-7.401448267741973
 10
-1.59418179008604
 20
-7.374503797604163
 10
-0.9918624518361554
 20
-8.139939149942833
 10
-1.0192555620138108
 20
-8.161494726053085
 10
-0.6366440860568758
 20
-8.64772243170648
 10
-2.840217722722489
 20
-10.381709515744483
 10
-6.697429053620091
 20
-5.479914526579751
 10
-1.994234113243369
 20
-1.7789811224814613
 10
0.4079758302123757
 20
-4.831741174654411
  0
TEXT
  5
5B
330
17
100
AcDbEntity
  8
Labels
100
AcDbText
 10
-2.993010543381599
 20
-5.916846962161962
 30
0.0
 40
0.15
  1
Balcony
 72
1
 11
-2.993010543381599
 21
-5.916846962161962
 31
0.0
100
AcDbText
 73
2
  0
LWPOLYLINE
  5
5C
330
17
100
AcDbEntity
  8
Balcony
100
AcDbPolyline
 90
7
 70
1
 10
-5.959135051607532
 20
6.134389415833198
 10
-5.9522867740631185
 20
6.139778309860759
 10
-4.714077940560863
 20
4.5662462072812335
 10
-8.581783020519076
 20
1.5227578745455599
 10
-10.730714944679384
 20
4.253648882131051
 10
-6.869858142265585
 20
7.291748320839163
 10
-5.959135051607532
 20
6.134389415833198
  0
TEXT
  5
5D
330
17
100
AcDbEntity
  8
Labels
100
AcDbText
 10
-7.723381196528061
 20
4.408215965692837
 30
0.0
 40
0.15
  1
Balcony
 72
1
 11
-7.723381196528061
 21
4.408215965692837
 31
0.0
100
AcDbText
 73
2
  0
LWPOLYLINE
  5
5E
330
17
100
AcDbEntity
  8
Balcony
100
AcDbPolyline
 90
9
 70
1
 10
-0.8278619337353206
 20
9.562293334349503
 10
-0.8210136561909067
 20
9.567682228377064
 10
-0.7845281908350721
 20
9.521316018201858
 10
-0.7982247459238963
 20
9.510538230146736
 10
1.3411661830183874
 20
6.7917720450143815
 10
-0.9445867841801956
 20
4.99311823264563
 10
-3.422241244021812
 20
8.141754170440372
 10
-1.1296399992788153
 20
9.945796876836685
 10
-0.8278619337353206
 20
9.562293334349503
  0
TEXT
  5
5F
330
17
100
AcDbEntity
  8
Labels
100
AcDbText
 10
-1.0404958756647305
 20
7.467779203611442
 30
0.0
 40
0.15
  1
Balcony
 72
1
 11
-1.0404958756647305
 21
7.467779203611442
 31
0.0
100
AcDbText
 73
2
  0
LWPOLYLINE
  5
60
330
17
100
AcDbEntity
  8
Balcony
100
AcDbPolyline
 90
13
 70
1
 10
-8.768816014176217
 20
1.151261354999301
 10
-8.763427120148656
 20
1.144413077454887
 10
-8.544282238727408
 20
1.3168576863368848
 10
-8.150892974715351
 20
0.8169334255946659
 10
-8.137196419626523
 20
0.8277112136497919
 10
-7.52948818734907
 20
0.0554275837667042
 10
-7.543184742437898
 20
0.0446497957115781
 10
-7.089280851285551
 20
-0.5321772506548932
 10
-4.548569882307959
 20
1.4671024335707692
 10
-2.211026667182967
 20
-1.5034782880692106
 10
-6.914221607559689
 20
-5.2044116921675005
 10
-10.7121551041541
 20
-0.3779477559913289
 10
-8.768816014176217
 20
1.151261354999301
  0
TEXT
  5
61
330
17
100
AcDbEntity
  8
Labels
100
AcDbText
 10
-6.43928091717952
 20
-1.55226919971292
 30
0.0
 40
0.15
  1
Balcony
 72
1
 11
-6.43928091717952
 21
-1.55226919971292
 31
0.0
100
AcDbText
 73
2
  0
LWPOLYLINE
  5
62
330
17
100
AcDbEntity
  8
Storeroom
100
AcDbPolyline
 90
7
 70
1
 10
1.4339213282805439
 20
3.9151437816351233
 10
0.0663790381167857
 20
5.653034545280583
 10
1.1947731003094013
 20
6.540965266991281
 10
2.14321844916039
 20
5.335668419174416
 10
2.341818497948399
 20
5.491946345973728
 10
2.7609154392611686
 20
4.959352430145133
 10
1.4339213282805439
 20
3.9151437816351233
  0
TEXT
  5
63
330
17
100
AcDbEntity
  8
Labels
100
AcDbText
 10
1.3725726358286516
 20
5.223932494931924
 30
0.0
 40
0.15
  1
Storeroom
 72
1
 11
1.3725726358286516
 21
5.223932494931924
 31
0.0
100
AcDbText
 73
2
  0
LWPOLYLINE
  5
64
330
17
100
AcDbEntity
  8
Other
100
AcDbPolyline
 90
18
 70
1
 10
-11.259012750658524
 20
-2.5824285087797403
 10
-11.33674554336158
 20
-2.487115722684365
 10
-12.39709213523969
 20
-1.1396133006077136
 10
-11.243671677150665
 20
-0.1989358003363453
 10
-11.18637578686657
 20
-0.2717481727476194
 10
-11.227465452133053
 20
-0.3040815369129923
 10
-7.099572627020233
 20
-5.549862135934109
 10
-8.152635636224296
 20
-6.378515023341624
 10
-8.49628806115119
 20
-5.9417969931348225
 10
-8.434653563251466
 20
-5.89329694688676
 10
-8.538279342612249
 20
-5.761607940907204
 10
-9.01591752661054
 20
-6.137460341805248
 10
-11.515481044241202
 20
-3.072597307772355
 10
-11.127414266721185
 20
-2.767228442957755
 10
-11.13280316074875
 20
-2.7603801654133377
 10
-11.125954883204336
 20
-2.7549912713857765
 10
-11.260676441528304
 20
-2.583785339723427
 10
-11.259012750658524
 20
-2.5824285087797403
  0
TEXT
  5
65
330
17
100
AcDbEntity
  8
Labels
100
AcDbText
 10
-9.820107806068219
 20
-3.4932328618380666
 30
0.0
 40
0.15
  1
Other
 72
1
 11
-9.820107806068219
 21
-3.4932328618380666
 31
0.0
100
AcDbText
 73
2
  0
LWPOLYLINE
  5
66
330
17
100
AcDbEntity
  8
Storeroom
100
AcDbPolyline
 90
7
 70
1
 10
-0.3058763446431314
 20
2.335414014876962
 10
-1.080640291775019
 20
3.319994248636883
 10
0.6777953045036824
 20
4.703703220883327
 10
1.2639479606708832
 20
3.9588127011778944
 10
0.6339064265847938
 20
3.4630344506421498
 10
0.8225177175494807
 20
3.223344736587661
 10
-0.3058763446431314
 20
2.335414014876962
  0
TEXT
  5
67
330
17
100
AcDbEntity
  8
Labels
100
AcDbText
 10
0.10403822601062919
 20
3.5127241393653788
 30
0.0
 40
0.15
  1
Storeroom
 72
1
 11
0.10403822601062919
 21
3.5127241393653788
 31
0.0
100
AcDbText
 73
2
  0
LWPOLYLINE
  5
68
330
17
100
AcDbEntity
  8
Balcony
100
AcDbPolyline
 90
7
 70
1
 10
-5.64793144595636
 20
6.390363611482581
 10
-3.5059923071904677
 20
8.075850649272521
 10
-1.0283378473488511
 20
4.927214711477779
 10
-3.3825735899915763
 20
3.0746719588334024
 10
-5.854839155805632
 20
6.216459619083732
 10
-5.642542551928798
 20
6.383515333938169
 10
-5.64793144595636
 20
6.390363611482581
  0
TEXT
  5
69
330
17
100
AcDbEntity
  8
Labels
100
AcDbText
 10
-3.443830359530206
 20
5.575118461293878
 30
0.0
 40
0.15
  1
Balcony
 72
1
 11
-3.443830359530206
 21
5.575118461293878
 31
0.0
100
AcDbText
 73
2
  0
LWPOLYLINE
  5
6A
330
17
100
AcDbEntity
  8
Bedroom
100
AcDbPolyline
 90
11
 70
1
 10
-4.99169598540518
 20
2.0302329248484092
 10
-5.395744360525605
 20
1.7122881772222271
 10
-5.0292995666513605
 20
1.2466053042020775
 10
-7.075362819795455
 20
-0.3634372172019908
 10
-7.452585401724825
 20
0.1159422109069901
 10
-7.521068177168964
 20
0.062053270631365
 10
-8.128776409446417
 20
0.8343369005144528
 10
-8.060293634002278
 20
0.8882258407900778
 10
-8.448294003986774
 20
1.381301823987883
 10
-5.998182375722255
 20
3.3092890930181342
 10
-4.99169598540518
 20
2.0302329248484092
  0
TEXT
  5
6B
330
17
100
AcDbEntity
  8
Labels
100
AcDbText
 10
-6.622168249866412
 20
1.452655549490442
 30
0.0
 40
0.15
  1
Bedroom
 72
1
 11
-6.622168249866412
 21
1.452655549490442
 31
0.0
100
AcDbText
 73
2
  0
LWPOLYLINE
  5
6C
330
17
100
AcDbEntity
  8
Dining
100
AcDbPolyline
 90
13
 70
1
 10
-5.825403704476216
 20
3.4452482365442947
 10
-4.594285479117389
 20
4.414012368668432
 10
-3.480021208249063
 20
2.997990649610429
 10
-3.945704081269213
 20
2.631545855736185
 10
-3.8798005601013656
 20
2.5477947925675224
 10
-0.0173720250518734
 20
5.5871310241127325
 10
0.617280677363393
 20
4.7806060065075755
 10
-1.2180577045395573
 20
3.336382407120844
 10
-0.3827791302673802
 20
2.2748993877366743
 10
-1.2851800334943349
 20
1.5648021689355325
 10
-1.355235655852649
 20
1.6538297770129162
 10
-3.2453602581109138
 20
0.1664950254056858
 10
-5.825403704476216
 20
3.4452482365442947
  0
TEXT
  5
6D
330
17
100
AcDbEntity
  8
Labels
100
AcDbText
 10
-2.643264167543209
 20
2.786701334013713
 30
0.0
 40
0.15
  1
Dining
 72
1
 11
-2.643264167543209
 21
2.786701334013713
 31
0.0
100
AcDbText
 73
2
  0
LWPOLYLINE
  5
6E
330
17
100
AcDbEntity
  8
Dining
100
AcDbPolyline
 90
33
 70
1
 10
-1.744474980536154
 20
1.0012409093629646
 10
-1.3939632071292252
 20
1.2770578268364154
 10
-1.3400742668535983
 20
1.2085750513922768
 10
0.7760434943703274
 20
2.8737433059090662
 10
1.798696566770083
 20
1.5741423051061005
 10
0.9632067063515777
 20
0.9166972337434842
 10
1.0668324857123679
 20
0.7850082277639245
 10
1.162708371334162
 20
0.8604527441497982
 10
2.1853614437339246
 20
-0.4391482566531675
 10
2.1031821132009547
 20
-0.5038149849839151
 10
2.200182205697079
 20
-0.6270839807833646
 10
0.564347187408103
 20
-1.9143188369882562
 10
0.006893715417494
 20
-2.1305310150479073
 10
-0.6209865478012198
 20
-2.132713170297656
 10
-0.6197364616493815
 20
-2.1267298009438367
 10
-1.1384734995454906
 20
-2.018351736817568
 10
-1.1247737678246068
 20
-1.9923688433605644
 10
-1.3308992210231168
 20
-1.8836872057924534
 10
-1.688886445875415
 20
-1.6059951116327866
 10
-1.679542796917282
 20
-1.5978156168359874
 10
-1.8756008847594785
 20
-1.3738533803276827
 10
-1.8627871368815327
 20
-1.3651454517391528
 10
-2.021635466564625
 20
-1.1313995698457617
 10
-2.0078890382227073
 20
-1.124635748759987
 10
-2.120323865655479
 20
-0.8961292168986787
 10
-2.178365507506271
 20
-0.6824876164462683
 10
-2.1786468547173286
 20
-0.6825640521873648
 10
-2.2227865121505275
 20
-0.5200933370809295
 10
-2.2242413059073627
 20
-0.1014997071940194
 10
-2.2268431942917033
 20
-0.1015087498805158
 10
-2.105869114207394
 20
0.4309230927350587
 10
-1.7401206412099448
 20
0.998434635234231
 10
-1.744474980536154
 20
1.0012409093629646
  0
TEXT
  5
6F
330
17
100
AcDbEntity
  8
Labels
100
AcDbText
 10
-0.08402548151826544
 20
0.051813304787674534
 30
0.0
 40
0.15
  1
Dining
 72
1
 11
-0.08402548151826544
 21
0.051813304787674534
 31
0.0
100
AcDbText
 73
2
  0
LWPOLYLINE
  5
70
330
17
100
AcDbEntity
  8
Kitchen
100
AcDbPolyline
 90
5
 70
1
 10
3.589258340338791
 20
0.6655750189971315
 10
2.1937814539140277
 20
-0.4325225697885031
 10
1.1711283815142721
 20
0.8670784310144626
 10
2.566605267939032
 20
1.9651760198000972
 10
3.589258340338791
 20
0.6655750189971315
  0
TEXT
  5
71
330
17
100
AcDbEntity
  8
Labels
100
AcDbText
 10
2.380193360926531
 20
0.766326725005797
 30
0.0
 40
0.15
  1
Kitchen
 72
1
 11
2.380193360926531
 21
0.766326725005797
 31
0.0
100
AcDbText
 73
2
  0
CIRCLE
  5
72
330
17
100
AcDbEntity
  8
Graph_nodes
100
AcDbCircle
 10
10.722043992193317
 20
-1.4181190007021753
 30
0.0
 40
0.08
  0
CIRCLE
  5
73
330
17
100
AcDbEntity
  8
Graph_nodes
100
AcDbCircle
 10
0.43059135670114856
 20
12.035350346930588
 30
0.0
 40
0.08
  0
CIRCLE
  5
74
330
17
100
AcDbEntity
  8
Graph_nodes
100
AcDbCircle
 10
9.118370249264073
 20
1.7716782212602638
 30
0.0
 40
0.08
  0
CIRCLE
  5
75
330
17
100
AcDbEntity
  8
Graph_nodes
100
AcDbCircle
 10
4.101819716864411
 20
2.129054748493315
 30
0.0
 40
0.08
  0
CIRCLE
  5
76
330
17
100
AcDbEntity
  8
Graph_nodes
100
AcDbCircle
 10
6.420676298219286
 20
4.806479092122514
 30
0.0
 40
0.08
  0
CIRCLE
  5
77
330
17
100
AcDbEntity
  8
Graph_nodes
100
AcDbCircle
 10
2.870540256539008
 20
8.701533131686299
 30
0.0
 40
0.08
  0
CIRCLE
  5
78
330
17
100
AcDbEntity
  8
Graph_nodes
100
AcDbCircle
 10
4.343090823483147
 20
3.18603649369659
 30
0.0
 40
0.08
  0
CIRCLE
  5
79
330
17
100
AcDbEntity
  8
Graph_nodes
100
AcDbCircle
 10
-5.669003750104372
 20
-8.776208141891914
 30
0.0
 40
0.08
  0
CIRCLE
  5
7A
330
17
100
AcDbEntity
  8
Graph_nodes
100
AcDbCircle
 10
2.07891565196442
 20
-3.255568140757635
 30
0.0
 40
0.08
  0
CIRCLE
  5
7B
330
17
100
AcDbEntity
  8
Graph_nodes
100
AcDbCircle
 10
4.708775931693694
 20
-4.65892738263659
 30
0.0
 40
0.08
  0
CIRCLE
  5
7C
330
17
100
AcDbEntity
  8
Graph_nodes
100
AcDbCircle
 10
5.43763327952318
 20
0.091136186472803
 30
0.0
 40
0.08
  0
CIRCLE
  5
7D
330
17
100
AcDbEntity
  8
Graph_nodes
100
AcDbCircle
 10
2.5556271197596234
 20
-8.559903700956877
 30
0.0
 40
0.08
  0
CIRCLE
  5
7E
330
17
100
AcDbEntity
  8
Graph_nodes
100
AcDbCircle
 10
3.4853656316302066
 20
-0.7530408074866108
 30
0.0
 40
0.08
  0
CIRCLE
  5
7F
330
17
100
AcDbEntity
  8
Graph_nodes
100
AcDbCircle
 10
-0.07086239829927485
 20
-6.82463742765542
 30
0.0
 40
0.08
  0
CIRCLE
  5
80
330
17
100
AcDbEntity
  8
Graph_nodes
100
AcDbCircle
 10
7.146762737505078
 20
-2.7404811088243632
 30
0.0
 40
0.08
  0
CIRCLE
  5
81
330
17
100
AcDbEntity
  8
Graph_nodes
100
AcDbCircle
 10
-2.993010543381599
 20
-5.916846962161962
 30
0.0
 40
0.08
  0
CIRCLE
  5
82
330
17
100
AcDbEntity
  8
Graph_nodes
100
AcDbCircle
 10
-7.723381196528061
 20
4.408215965692837
 30
0.0
 40
0.08
  0
CIRCLE
  5
83
330
17
100
AcDbEntity
  8
Graph_nodes
100
AcDbCircle
 10
-1.0404958756647305
 20
7.467779203611442
 30
0.0
 40
0.08
  0
CIRCLE
  5
84
330
17
100
AcDbEntity
  8
Graph_nodes
100
AcDbCircle
 10
-6.43928091717952
 20
-1.55226919971292
 30
0.0
 40
0.08
  0
CIRCLE
  5
85
330
17
100
AcDbEntity
  8
Graph_nodes
100
AcDbCircle
 10
1.3725726358286516
 20
5.223932494931924
 30
0.0
 40
0.08
  0
CIRCLE
  5
86
330
17
100
AcDbEntity
  8
Graph_nodes
100
AcDbCircle
 10
-9.820107806068219
 20
-3.4932328618380666
 30
0.0
 40
0.08
  0
CIRCLE
  5
87
330
17
100
AcDbEntity
  8
Graph_nodes
100
AcDbCircle
 10
0.10403822601062919
 20
3.5127241393653788
 30
0.0
 40
0.08
  0
CIRCLE
  5
88
330
17
100
AcDbEntity
  8
Graph_nodes
100
AcDbCircle
 10
-3.443830359530206
 20
5.575118461293878
 30
0.0
 40
0.08
  0
CIRCLE
  5
89
330
17
100
AcDbEntity
  8
Graph_nodes
100
AcDbCircle
 10
-6.622168249866412
 20
1.452655549490442
 30
0.0
 40
0.08
  0
CIRCLE
  5
8A
330
17
100
AcDbEntity
  8
Graph_nodes
100
AcDbCircle
 10
-2.643264167543209
 20
2.786701334013713
 30
0.0
 40
0.08
  0
CIRCLE
  5
8B
330
17
100
AcDbEntity
  8
Graph_nodes
100
AcDbCircle
 10
-0.08402548151826544
 20
0.051813304787674534
 30
0.0
 40
0.08
  0
CIRCLE
  5
8C
330
17
100
AcDbEntity
  8
Graph_nodes
100
AcDbCircle
 10
2.380193360926531
 20
0.766326725005797
 30
0.0
 40
0.08
  0
LINE
  5
8D
330
17
100
AcDbEntity
  8
Graph_edges_door
100
AcDbLine
 10
10.722043992193317
 20
-1.4181190007021753
 30
0.0
 11
4.343090823483147
 21
3.18603649369659
 31
0.0
  0
LINE
  5
8E
330
17
100
AcDbEntity
  8
Graph_edges_door
100
AcDbLine
 10
0.43059135670114856
 20
12.035350346930588
 30
0.0
 11
2.870540256539008
 21
8.701533131686299
 31
0.0
  0
LINE
  5
8F
330
17
100
AcDbEntity
  8
Graph_edges_door
100
AcDbLine
 10
9.118370249264073
 20
1.7716782212602638
 30
0.0
 11
4.343090823483147
 21
3.18603649369659
 31
0.0
  0
LINE
  5
90
330
17
100
AcDbEntity
  8
Graph_edges_door
100
AcDbLine
 10
4.101819716864411
 20
2.129054748493315
 30
0.0
 11
4.343090823483147
 21
3.18603649369659
 31
0.0
  0
LINE
  5
91
330
17
100
AcDbEntity
  8
Graph_edges_door
100
AcDbLine
 10
6.420676298219286
 20
4.806479092122514
 30
0.0
 11
4.343090823483147
 21
3.18603649369659
 31
0.0
  0
LINE
  5
92
330
17
100
AcDbEntity
  8
Graph_edges_door
100
AcDbLine
 10
2.870540256539008
 20
8.701533131686299
 30
0.0
 11
4.343090823483147
 21
3.18603649369659
 31
0.0
  0
LINE
  5
93
330
17
100
AcDbEntity
  8
Graph_edges_entrance
100
AcDbLine
 10
4.343090823483147
 20
3.18603649369659
 30
0.0
 11
-0.08402548151826544
 21
0.051813304787674534
 31
0.0
  0
LINE
  5
94
330
17
100
AcDbEntity
  8
Graph_edges_door
100
AcDbLine
 10
-5.669003750104372
 20
-8.776208141891914
 30
0.0
 11
-2.993010543381599
 21
-5.916846962161962
 31
0.0
  0
LINE
  5
95
330
17
100
AcDbEntity
  8
Graph_edges_door
100
AcDbLine
 10
2.07891565196442
 20
-3.255568140757635
 30
0.0
 11
4.708775931693694
 21
-4.65892738263659
 31
0.0
  0
LINE
  5
96
330
17
100
AcDbEntity
  8
Graph_edges_door
100
AcDbLine
 10
2.07891565196442
 20
-3.255568140757635
 30
0.0
 11
5.43763327952318
 21
0.091136186472803
 31
0.0
  0
LINE
  5
97
330
17
100
AcDbEntity
  8
Graph_edges_door
100
AcDbLine
 10
2.07891565196442
 20
-3.255568140757635
 30
0.0
 11
2.5556271197596234
 21
-8.559903700956877
 31
0.0
  0
LINE
  5
98
330
17
100
AcDbEntity
  8
Graph_edges_door
100
AcDbLine
 10
2.07891565196442
 20
-3.255568140757635
 30
0.0
 11
3.4853656316302066
 21
-0.7530408074866108
 31
0.0
  0
LINE
  5
99
330
17
100
AcDbEntity
  8
Graph_edges_door
100
AcDbLine
 10
2.07891565196442
 20
-3.255568140757635
 30
0.0
 11
-0.07086239829927485
 21
-6.82463742765542
 31
0.0
  0
LINE
  5
9A
330
17
100
AcDbEntity
  8
Graph_edges_door
100
AcDbLine
 10
2.07891565196442
 20
-3.255568140757635
 30
0.0
 11
7.146762737505078
 21
-2.7404811088243632
 31
0.0
  0
LINE
  5
9B
330
17
100
AcDbEntity
  8
Graph_edges_door
100
AcDbLine
 10
2.07891565196442
 20
-3.255568140757635
 30
0.0
 11
-2.993010543381599
 21
-5.916846962161962
 31
0.0
  0
LINE
  5
9C
330
17
100
AcDbEntity
  8
Graph_edges_entrance
100
AcDbLine
 10
2.07891565196442
 20
-3.255568140757635
 30
0.0
 11
-0.08402548151826544
 21
0.051813304787674534
 31
0.0
  0
LINE
  5
9D
330
17
100
AcDbEntity
  8
Graph_edges_door
100
AcDbLine
 10
-0.07086239829927485
 20
-6.82463742765542
 30
0.0
 11
-2.993010543381599
 21
-5.916846962161962
 31
0.0
  0
LINE
  5
9E
330
17
100
AcDbEntity
  8
Graph_edges_door
100
AcDbLine
 10
-7.723381196528061
 20
4.408215965692837
 30
0.0
 11
-2.643264167543209
 21
2.786701334013713
 31
0.0
  0
LINE
  5
9F
330
17
100
AcDbEntity
  8
Graph_edges_door
100
AcDbLine
 10
-1.0404958756647305
 20
7.467779203611442
 30
0.0
 11
-2.643264167543209
 21
2.786701334013713
 31
0.0
  0
LINE
  5
A0
330
17
100
AcDbEntity
  8
Graph_edges_door
100
AcDbLine
 10
-6.43928091717952
 20
-1.55226919971292
 30
0.0
 11
-9.820107806068219
 21
-3.4932328618380666
 31
0.0
  0
LINE
  5
A1
330
17
100
AcDbEntity
  8
Graph_edges_door
100
AcDbLine
 10
-6.43928091717952
 20
-1.55226919971292
 30
0.0
 11
-6.622168249866412
 21
1.452655549490442
 31
0.0
  0
LINE
  5
A2
330
17
100
AcDbEntity
  8
Graph_edges_door
100
AcDbLine
 10
-6.43928091717952
 20
-1.55226919971292
 30
0.0
 11
-2.643264167543209
 21
2.786701334013713
 31
0.0
  0
LINE
  5
A3
330
17
100
AcDbEntity
  8
Graph_edges_door
100
AcDbLine
 10
1.3725726358286516
 20
5.223932494931924
 30
0.0
 11
-2.643264167543209
 21
2.786701334013713
 31
0.0
  0
LINE
  5
A4
330
17
100
AcDbEntity
  8
Graph_edges_door
100
AcDbLine
 10
0.10403822601062919
 20
3.5127241393653788
 30
0.0
 11
-2.643264167543209
 21
2.786701334013713
 31
0.0
  0
LINE
  5
A5
330
17
100
AcDbEntity
  8
Graph_edges_door
100
AcDbLine
 10
-3.443830359530206
 20
5.575118461293878
 30
0.0
 11
-2.643264167543209
 21
2.786701334013713
 31
0.0
  0
LINE
  5
A6
330
17
100
AcDbEntity
  8
Graph_edges_door
100
AcDbLine
 10
-6.622168249866412
 20
1.452655549490442
 30
0.0
 11
-2.643264167543209
 21
2.786701334013713
 31
0.0
  0
LINE
  5
A7
330
17
100
AcDbEntity
  8
Graph_edges_entrance
100
AcDbLine
 10
-2.643264167543209
 20
2.786701334013713
 30
0.0
 11
-0.08402548151826544
 21
0.051813304787674534
 31
0.0
  0
LINE
  5
A8
330
17
100
AcDbEntity
  8
Graph_edges_door
100
AcDbLine
 10
-0.08402548151826544
 20
0.051813304787674534
 30
0.0
 11
2.380193360926531
 21
0.766326725005797
 31
0.0
  0
ENDSEC
  0
SECTION
  2
OBJECTS
  0
DICTIONARY
  5
A
330
0
100
AcDbDictionary
281
1
  3
ACAD_COLOR
350
B
  3
ACAD_GROUP
350
C
  3
ACAD_LAYOUT
350
D
  3
ACAD_MATERIAL
350
E
  3
ACAD_MLEADERSTYLE
350
F
  3
ACAD_MLINESTYLE
350
10
  3
ACAD_PLOTSETTINGS
350
11
  3
ACAD_PLOTSTYLENAME
350
12
  3
ACAD_SCALELIST
350
14
  3
ACAD_TABLESTYLE
350
15
  3
ACAD_VISUALSTYLE
350
16
  3
EZDXF_META
350
2D
  0
DICTIONARY
  5
B
330
A
100
AcDbDictionary
281
1
  0
DICTIONARY
  5
C
330
A
100
AcDbDictionary
281
1
  0
DICTIONARY
  5
D
330
A
100
AcDbDictionary
281
1
  3
Model
350
1A
  3
Layout1
350
1E
  0
DICTIONARY
  5
E
330
A
100
AcDbDictionary
281
1
  3
ByBlock
350
1F
  3
ByLayer
350
20
  3
Global
350
21
  0
DICTIONARY
  5
F
330
A
100
AcDbDictionary
281
1
  3
Standard
350
2C
  0
DICTIONARY
  5
10
330
A
100
AcDbDictionary
281
1
  3
Standard
350
22
  0
DICTIONARY
  5
11
330
A
100
AcDbDictionary
281
1
  0
ACDBDICTIONARYWDFLT
  5
12
330
A
100
AcDbDictionary
281
1
  3
Normal
350
13
100
AcDbDictionaryWithDefault
340
13
  0
ACDBPLACEHOLDER
  5
13
330
12
  0
DICTIONARY
  5
14
330
A
100
AcDbDictionary
281
1
  0
DICTIONARY
  5
15
330
A
100
AcDbDictionary
281
1
  0
DICTIONARY
  5
16
330
A
100
AcDbDictionary
281
1
  0
LAYOUT
  5
1A
330
D
100
AcDbPlotSettings
  1

  4
A3
  6

 40
7.5
 41
20.0
 42
7.5
 43
20.0
 44
420.0
 45
297.0
 46
0.0
 47
0.0
 48
0.0
 49
0.0
140
0.0
141
0.0
142
1.0
143
1.0
 70
1024
 72
1
 73
0
 74
5
  7

 75
16
 76
0
 77
2
 78
300
147
1.0
148
0.0
149
0.0
100
AcDbLayout
  1
Model
 70
1
 71
0
 10
0.0
 20
0.0
 11
420.0
 21
297.0
 12
0.0
 22
0.0
 32
0.0
 14
1e+20
 24
1e+20
 34
1e+20
 15
-1e+20
 25
-1e+20
 35
-1e+20
146
0.0
 13
0.0
 23
0.0
 33
0.0
 16
1.0
 26
0.0
 36
0.0
 17
0.0
 27
1.0
 37
0.0
 76
1
330
17
  0
LAYOUT
  5
1E
330
D
100
AcDbPlotSettings
  1

  4
A3
  6

 40
7.5
 41
20.0
 42
7.5
 43
20.0
 44
420.0
 45
297.0
 46
0.0
 47
0.0
 48
0.0
 49
0.0
140
0.0
141
0.0
142
1.0
143
1.0
 70
0
 72
1
 73
0
 74
5
  7

 75
16
 76
0
 77
2
 78
300
147
1.0
148
0.0
149
0.0
100
AcDbLayout
  1
Layout1
 70
1
 71
1
 10
0.0
 20
0.0
 11
420.0
 21
297.0
 12
0.0
 22
0.0
 32
0.0
 14
1e+20
 24
1e+20
 34
1e+20
 15
-1e+20
 25
-1e+20
 35
-1e+20
146
0.0
 13
0.0
 23
0.0
 33
0.0
 16
1.0
 26
0.0
 36
0.0
 17
0.0
 27
1.0
 37
0.0
 76
1
330
1B
  0
MATERIAL
  5
1F
102
{ACAD_REACTORS
330
E
102
}
330
E
100
AcDbMaterial
  1
ByBlock
  2

 70
0
 40
1.0
 71
1
 41
1.0
 91
-1023410177
 42
1.0
 72
1
  3

 73
1
 74
1
 75
1
 44
0.5
 73
0
 45
1.0
 46
1.0
 77
1
  4

 78
1
 79
1
170
1
 48
1.0
171
1
  6

172
1
173
1
174
1
140
1.0
141
1.0
175
1
  7

176
1
177
1
178
1
143
1.0
179
1
  8

270
1
271
1
272
1
145
1.0
146
1.0
273
1
  9

274
1
275
1
276
1
 42
1.0
 72
1
  3

 73
1
 74
1
 75
1
 94
63
  0
MATERIAL
  5
20
102
{ACAD_REACTORS
330
E
102
}
330
E
100
AcDbMaterial
  1
ByLayer
  2

 70
0
 40
1.0
 71
1
 41
1.0
 91
-1023410177
 42
1.0
 72
1
  3

 73
1
 74
1
 75
1
 44
0.5
 73
0
 45
1.0
 46
1.0
 77
1
  4

 78
1
 79
1
170
1
 48
1.0
171
1
  6

172
1
173
1
174
1
140
1.0
141
1.0
175
1
  7

176
1
177
1
178
1
143
1.0
179
1
  8

270
1
271
1
272
1
145
1.0
146
1.0
273
1
  9

274
1
275
1
276
1
 42
1.0
 72
1
  3

 73
1
 74
1
 75
1
 94
63
  0
MATERIAL
  5
21
102
{ACAD_REACTORS
330
E
102
}
330
E
100
AcDbMaterial
  1
Global
  2

 70
0
 40
1.0
 71
1
 41
1.0
 91
-1023410177
 42
1.0
 72
1
  3

 73
1
 74
1
 75
1
 44
0.5
 73
0
 45
1.0
 46
1.0
 77
1
  4

 78
1
 79
1
170
1
 48
1.0
171
1
  6

172
1
173
1
174
1
140
1.0
141
1.0
175
1
  7

176
1
177
1
178
1
143
1.0
179
1
  8

270
1
271
1
272
1
145
1.0
146
1.0
273
1
  9

274
1
275
1
276
1
 42
1.0
 72
1
  3

 73
1
 74
1
 75
1
 94
63
  0
MLINESTYLE
  5
22
102
{ACAD_REACTORS
330
10
102
}
330
10
100
AcDbMlineStyle
  2
Standard
 70
0
  3

 62
256
 51
90.0
 52
90.0
 71
2
 49
0.5
 62
256
  6
BYLAYER
 49
-0.5
 62
256
  6
BYLAYER
  0
MLEADERSTYLE
  5
2C
102
{ACAD_REACTORS
330
F
102
}
330
F
100
AcDbMLeaderStyle
179
2
170
2
171
1
172
0
 90
2
 40
0.0
 41
0.0
173
1
 91
-1056964608
 92
-2
290
1
 42
2.0
291
1
 43
8.0
  3
Standard
 44
4.0
300

342
29
174
1
175
1
176
0
178
1
 93
-1056964608
 45
4.0
292
0
297
0
 46
4.0
 94
-1056964608
 47
1.0
 49
1.0
140
1.0
294
1
141
0.0
177
0
142
1.0
295
0
296
0
143
3.75
271
0
272
9
273
9
  0
DICTIONARY
  5
2D
330
A
100
AcDbDictionary
280
1
281
1
  3
CREATED_BY_EZDXF
350
2E
  3
WRITTEN_BY_EZDXF
350
AB
  0
DICTIONARYVAR
  5
2E
330
2D
100
DictionaryVariables
280
0
  1
1.4.4 @ 2026-06-20T16:43:20.266371+00:00
  0
DICTIONARYVAR
  5
AB
330
2D
100
DictionaryVariables
280
0
  1
1.4.4 @ 2026-06-20T16:43:20.273372+00:00
  0
ENDSEC
  0
EOF
