  0
SECTION
  2
HEADER
  9
$ACADVER
  1
AC1024
  9
$ACADMAINTVER
 70
6
  9
$DWGCODEPAGE
  3
ANSI_1252
  9
$LASTSAVEDBY
  1
ezdxf
  9
$INSBASE
 10
0.0
 20
0.0
 30
0.0
  9
$EXTMIN
 10
1e+20
 20
1e+20
 30
1e+20
  9
$EXTMAX
 10
-1e+20
 20
-1e+20
 30
-1e+20
  9
$LIMMIN
 10
0.0
 20
0.0
  9
$LIMMAX
 10
420.0
 20
297.0
  9
$ORTHOMODE
 70
0
  9
$REGENMODE
 70
1
  9
$FILLMODE
 70
1
  9
$QTEXTMODE
 70
0
  9
$MIRRTEXT
 70
1
  9
$LTSCALE
 40
1.0
  9
$ATTMODE
 70
1
  9
$TEXTSIZE
 40
2.5
  9
$TRACEWID
 40
1.0
  9
$TEXTSTYLE
  7
Standard
  9
$CLAYER
  8
0
  9
$CELTYPE
  6
ByLayer
  9
$CECOLOR
 62
256
  9
$CELTSCALE
 40
1.0
  9
$DISPSILH
 70
0
  9
$DIMSCALE
 40
1.0
  9
$DIMASZ
 40
2.5
  9
$DIMEXO
 40
0.625
  9
$DIMDLI
 40
3.75
  9
$DIMRND
 40
0.0
  9
$DIMDLE
 40
0.0
  9
$DIMEXE
 40
1.25
  9
$DIMTP
 40
0.0
  9
$DIMTM
 40
0.0
  9
$DIMTXT
 40
2.5
  9
$DIMCEN
 40
2.5
  9
$DIMTSZ
 40
0.0
  9
$DIMTOL
 70
0
  9
$DIMLIM
 70
0
  9
$DIMTIH
 70
0
  9
$DIMTOH
 70
0
  9
$DIMSE1
 70
0
  9
$DIMSE2
 70
0
  9
$DIMTAD
 70
1
  9
$DIMZIN
 70
8
  9
$DIMBLK
  1

  9
$DIMASO
 70
1
  9
$DIMSHO
 70
1
  9
$DIMPOST
  1

  9
$DIMAPOST
  1

  9
$DIMALT
 70
0
  9
$DIMALTD
 70
3
  9
$DIMALTF
 40
0.03937007874
  9
$DIMLFAC
 40
1.0
  9
$DIMTOFL
 70
1
  9
$DIMTVP
 40
0.0
  9
$DIMTIX
 70
0
  9
$DIMSOXD
 70
0
  9
$DIMSAH
 70
0
  9
$DIMBLK1
  1

  9
$DIMBLK2
  1

  9
$DIMSTYLE
  2
ISO-25
  9
$DIMCLRD
 70
0
  9
$DIMCLRE
 70
0
  9
$DIMCLRT
 70
0
  9
$DIMTFAC
 40
1.0
  9
$DIMGAP
 40
0.625
  9
$DIMJUST
 70
0
  9
$DIMSD1
 70
0
  9
$DIMSD2
 70
0
  9
$DIMTOLJ
 70
0
  9
$DIMTZIN
 70
8
  9
$DIMALTZ
 70
0
  9
$DIMALTTZ
 70
0
  9
$DIMUPT
 70
0
  9
$DIMDEC
 70
2
  9
$DIMTDEC
 70
2
  9
$DIMALTU
 70
2
  9
$DIMALTTD
 70
3
  9
$DIMTXSTY
  7
Standard
  9
$DIMAUNIT
 70
0
  9
$DIMADEC
 70
0
  9
$DIMALTRND
 40
0.0
  9
$DIMAZIN
 70
0
  9
$DIMDSEP
 70
44
  9
$DIMATFIT
 70
3
  9
$DIMFRAC
 70
0
  9
$DIMLDRBLK
  1

  9
$DIMLUNIT
 70
2
  9
$DIMLWD
 70
-2
  9
$DIMLWE
 70
-2
  9
$DIMTMOVE
 70
0
  9
$DIMFXL
 40
1.0
  9
$DIMFXLON
 70
0
  9
$DIMJOGANG
 40
0.785398163397
  9
$DIMTFILL
 70
0
  9
$DIMTFILLCLR
 70
0
  9
$DIMARCSYM
 70
0
  9
$DIMLTYPE
  6

  9
$DIMLTEX1
  6

  9
$DIMLTEX2
  6

  9
$DIMTXTDIRECTION
 70
0
  9
$LUNITS
 70
2
  9
$LUPREC
 70
4
  9
$SKETCHINC
 40
1.0
  9
$FILLETRAD
 40
10.0
  9
$AUNITS
 70
0
  9
$AUPREC
 70
2
  9
$MENU
  1
.
  9
$ELEVATION
 40
0.0
  9
$PELEVATION
 40
0.0
  9
$THICKNESS
 40
0.0
  9
$LIMCHECK
 70
0
  9
$CHAMFERA
 40
0.0
  9
$CHAMFERB
 40
0.0
  9
$CHAMFERC
 40
0.0
  9
$CHAMFERD
 40
0.0
  9
$SKPOLY
 70
0
  9
$TDCREATE
 40
2461212.821585648
  9
$TDUCREATE
 40
2458532.153996898
  9
$TDUPDATE
 40
2461212.821585648
  9
$TDUUPDATE
 40
2458532.1544311
  9
$TDINDWG
 40
0.0
  9
$TDUSRTIMER
 40
0.0
  9
$USRTIMER
 70
1
  9
$ANGBASE
 50
0.0
  9
$ANGDIR
 70
0
  9
$PDMODE
 70
0
  9
$PDSIZE
 40
0.0
  9
$PLINEWID
 40
0.0
  9
$SPLFRAME
 70
0
  9
$SPLINETYPE
 70
6
  9
$SPLINESEGS
 70
8
  9
$HANDSEED
  5
C6
  9
$SURFTAB1
 70
6
  9
$SURFTAB2
 70
6
  9
$SURFTYPE
 70
6
  9
$SURFU
 70
6
  9
$SURFV
 70
6
  9
$UCSBASE
  2

  9
$UCSNAME
  2

  9
$UCSORG
 10
0.0
 20
0.0
 30
0.0
  9
$UCSXDIR
 10
1.0
 20
0.0
 30
0.0
  9
$UCSYDIR
 10
0.0
 20
1.0
 30
0.0
  9
$UCSORTHOREF
  2

  9
$UCSORTHOVIEW
 70
0
  9
$UCSORGTOP
 10
0.0
 20
0.0
 30
0.0
  9
$UCSORGBOTTOM
 10
0.0
 20
0.0
 30
0.0
  9
$UCSORGLEFT
 10
0.0
 20
0.0
 30
0.0
  9
$UCSORGRIGHT
 10
0.0
 20
0.0
 30
0.0
  9
$UCSORGFRONT
 10
0.0
 20
0.0
 30
0.0
  9
$UCSORGBACK
 10
0.0
 20
0.0
 30
0.0
  9
$PUCSBASE
  2

  9
$PUCSNAME
  2

  9
$PUCSORG
 10
0.0
 20
0.0
 30
0.0
  9
$PUCSXDIR
 10
1.0
 20
0.0
 30
0.0
  9
$PUCSYDIR
 10
0.0
 20
1.0
 30
0.0
  9
$PUCSORTHOREF
  2

  9
$PUCSORTHOVIEW
 70
0
  9
$PUCSORGTOP
 10
0.0
 20
0.0
 30
0.0
  9
$PUCSORGBOTTOM
 10
0.0
 20
0.0
 30
0.0
  9
$PUCSORGLEFT
 10
0.0
 20
0.0
 30
0.0
  9
$PUCSORGRIGHT
 10
0.0
 20
0.0
 30
0.0
  9
$PUCSORGFRONT
 10
0.0
 20
0.0
 30
0.0
  9
$PUCSORGBACK
 10
0.0
 20
0.0
 30
0.0
  9
$USERI1
 70
0
  9
$USERI2
 70
0
  9
$USERI3
 70
0
  9
$USERI4
 70
0
  9
$USERI5
 70
0
  9
$USERR1
 40
0.0
  9
$USERR2
 40
0.0
  9
$USERR3
 40
0.0
  9
$USERR4
 40
0.0
  9
$USERR5
 40
0.0
  9
$WORLDVIEW
 70
1
  9
$SHADEDGE
 70
3
  9
$SHADEDIF
 70
70
  9
$TILEMODE
 70
1
  9
$MAXACTVP
 70
64
  9
$PINSBASE
 10
0.0
 20
0.0
 30
0.0
  9
$PLIMCHECK
 70
0
  9
$PEXTMIN
 10
1e+20
 20
1e+20
 30
1e+20
  9
$PEXTMAX
 10
-1e+20
 20
-1e+20
 30
-1e+20
  9
$PLIMMIN
 10
0.0
 20
0.0
  9
$PLIMMAX
 10
420.0
 20
297.0
  9
$UNITMODE
 70
0
  9
$VISRETAIN
 70
1
  9
$PLINEGEN
 70
0
  9
$PSLTSCALE
 70
1
  9
$TREEDEPTH
 70
3020
  9
$CMLSTYLE
  2
Standard
  9
$CMLJUST
 70
0
  9
$CMLSCALE
 40
20.0
  9
$PROXYGRAPHICS
 70
1
  9
$MEASUREMENT
 70
1
  9
$CELWEIGHT
370
-1
  9
$ENDCAPS
280
0
  9
$JOINSTYLE
280
0
  9
$LWDISPLAY
290
0
  9
$INSUNITS
 70
6
  9
$HYPERLINKBASE
  1

  9
$STYLESHEET
  1

  9
$XEDIT
290
1
  9
$CEPSNTYPE
380
0
  9
$PSTYLEMODE
290
1
  9
$FINGERPRINTGUID
  2
{FB379EF6-6989-4129-A68B-7D8E4D897B16}
  9
$VERSIONGUID
  2
{6964DFCD-148D-4559-B390-670E20F15883}
  9
$EXTNAMES
290
1
  9
$PSVPSCALE
 40
0.0
  9
$OLESTARTUP
290
0
  9
$SORTENTS
280
127
  9
$INDEXCTL
280
0
  9
$HIDETEXT
280
1
  9
$XCLIPFRAME
280
1
  9
$HALOGAP
280
0
  9
$OBSCOLOR
 70
257
  9
$OBSLTYPE
280
0
  9
$INTERSECTIONDISPLAY
280
0
  9
$INTERSECTIONCOLOR
 70
257
  9
$DIMASSOC
280
2
  9
$PROJECTNAME
  1

  9
$CAMERADISPLAY
290
0
  9
$LENSLENGTH
 40
50.0
  9
$CAMERAHEIGHT
 40
0.0
  9
$STEPSPERSEC
 40
24.0
  9
$STEPSIZE
 40
100.0
  9
$3DDWFPREC
 40
2.0
  9
$PSOLWIDTH
 40
0.005
  9
$PSOLHEIGHT
 40
0.08
  9
$LOFTANG1
 40
1.570796326795
  9
$LOFTANG2
 40
1.570796326795
  9
$LOFTMAG1
 40
0.0
  9
$LOFTMAG2
 40
0.0
  9
$LOFTPARAM
 70
7
  9
$LOFTNORMALS
280
1
  9
$LATITUDE
 40
37.795
  9
$LONGITUDE
 40
-122.394
  9
$NORTHDIRECTION
 40
0.0
  9
$TIMEZONE
 70
-8000
  9
$LIGHTGLYPHDISPLAY
280
1
  9
$TILEMODELIGHTSYNCH
280
1
  9
$CMATERIAL
347
20
  9
$SOLIDHIST
280
0
  9
$SHOWHIST
280
1
  9
$DWFFRAME
280
2
  9
$DGNFRAME
280
2
  9
$REALWORLDSCALE
290
1
  9
$INTERFERECOLOR
 62
256
  9
$CSHADOW
280
0
  9
$SHADOWPLANELOCATION
 40
0.0
  0
ENDSEC
  0
SECTION
  2
CLASSES
  0
CLASS
  1
ACDBDICTIONARYWDFLT
  2
AcDbDictionaryWithDefault
  3
ObjectDBX Classes
 90
0
 91
0
280
0
281
0
  0
CLASS
  1
SUN
  2
AcDbSun
  3
SCENEOE
 90
1153
 91
0
280
0
281
0
  0
CLASS
  1
VISUALSTYLE
  2
AcDbVisualStyle
  3
ObjectDBX Classes
 90
4095
 91
0
280
0
281
0
  0
CLASS
  1
MATERIAL
  2
AcDbMaterial
  3
ObjectDBX Classes
 90
1153
 91
0
280
0
281
0
  0
CLASS
  1
SCALE
  2
AcDbScale
  3
ObjectDBX Classes
 90
1153
 91
0
280
0
281
0
  0
CLASS
  1
TABLESTYLE
  2
AcDbTableStyle
  3
ObjectDBX Classes
 90
4095
 91
0
280
0
281
0
  0
CLASS
  1
MLEADERSTYLE
  2
AcDbMLeaderStyle
  3
ACDB_MLEADERSTYLE_CLASS
 90
4095
 91
0
280
0
281
0
  0
CLASS
  1
DICTIONARYVAR
  2
AcDbDictionaryVar
  3
ObjectDBX Classes
 90
0
 91
0
280
0
281
0
  0
CLASS
  1
CELLSTYLEMAP
  2
AcDbCellStyleMap
  3
ObjectDBX Classes
 90
1152
 91
0
280
0
281
0
  0
CLASS
  1
MENTALRAYRENDERSETTINGS
  2
AcDbMentalRayRenderSettings
  3
SCENEOE
 90
1024
 91
0
280
0
281
0
  0
CLASS
  1
ACDBDETAILVIEWSTYLE
  2
AcDbDetailViewStyle
  3
ObjectDBX Classes
 90
1025
 91
0
280
0
281
0
  0
CLASS
  1
ACDBSECTIONVIEWSTYLE
  2
AcDbSectionViewStyle
  3
ObjectDBX Classes
 90
1025
 91
0
280
0
281
0
  0
CLASS
  1
RASTERVARIABLES
  2
AcDbRasterVariables
  3
ISM
 90
0
 91
0
280
0
281
0
  0
CLASS
  1
ACDBPLACEHOLDER
  2
AcDbPlaceHolder
  3
ObjectDBX Classes
 90
0
 91
0
280
0
281
0
  0
CLASS
  1
LAYOUT
  2
AcDbLayout
  3
ObjectDBX Classes
 90
0
 91
0
280
0
281
0
  0
ENDSEC
  0
SECTION
  2
TABLES
  0
TABLE
  2
VPORT
  5
8
330
0
100
AcDbSymbolTable
 70
1
  0
VPORT
  5
23
330
8
100
AcDbSymbolTableRecord
100
AcDbViewportTableRecord
  2
*Active
 70
0
 10
0.0
 20
0.0
 11
1.0
 21
1.0
 12
0.0
 22
0.0
 13
0.0
 23
0.0
 14
0.5
 24
0.5
 15
0.5
 25
0.5
 16
0.0
 26
0.0
 36
1.0
 17
0.0
 27
0.0
 37
0.0
 40
1000.0
 41
1.34
 42
50.0
 43
0.0
 44
0.0
 50
0.0
 51
0.0
 71
0
 72
1000
 73
1
 74
3
 75
0
 76
0
 77
0
 78
0
281
0
 65
0
146
0.0
  0
ENDTAB
  0
TABLE
  2
LTYPE
  5
2
330
0
100
AcDbSymbolTable
 70
3
  0
LTYPE
  5
24
330
2
100
AcDbSymbolTableRecord
100
AcDbLinetypeTableRecord
  2
ByBlock
 70
0
  3

 72
65
 73
0
 40
0.0
  0
LTYPE
  5
25
330
2
100
AcDbSymbolTableRecord
100
AcDbLinetypeTableRecord
  2
ByLayer
 70
0
  3

 72
65
 73
0
 40
0.0
  0
LTYPE
  5
26
330
2
100
AcDbSymbolTableRecord
100
AcDbLinetypeTableRecord
  2
Continuous
 70
0
  3

 72
65
 73
0
 40
0.0
  0
ENDTAB
  0
TABLE
  2
LAYER
  5
1
330
0
100
AcDbSymbolTable
 70
15
  0
LAYER
  5
27
330
1
100
AcDbSymbolTableRecord
100
AcDbLayerTableRecord
  2
0
 70
0
 62
7
  6
Continuous
370
-3
390
13
347
21
  0
LAYER
  5
28
330
1
100
AcDbSymbolTableRecord
100
AcDbLayerTableRecord
  2
Defpoints
 70
0
 62
7
  6
Continuous
290
0
370
-3
390
13
347
21
  0
LAYER
  5
2F
330
1
100
AcDbSymbolTableRecord
100
AcDbLayerTableRecord
  2
Balcony
 70
0
 62
140
  6
Continuous
370
-3
390
13
347
21
  0
LAYER
  5
30
330
1
100
AcDbSymbolTableRecord
100
AcDbLayerTableRecord
  2
Bathroom
 70
0
 62
92
  6
Continuous
370
-3
390
13
347
21
  0
LAYER
  5
31
330
1
100
AcDbSymbolTableRecord
100
AcDbLayerTableRecord
  2
Bedroom
 70
0
 62
50
  6
Continuous
370
-3
390
13
347
21
  0
LAYER
  5
32
330
1
100
AcDbSymbolTableRecord
100
AcDbLayerTableRecord
  2
Corridor
 70
0
 62
30
  6
Continuous
370
-3
390
13
347
21
  0
LAYER
  5
33
330
1
100
AcDbSymbolTableRecord
100
AcDbLayerTableRecord
  2
Dining
 70
0
 62
210
  6
Continuous
370
-3
390
13
347
21
  0
LAYER
  5
34
330
1
100
AcDbSymbolTableRecord
100
AcDbLayerTableRecord
  2
Kitchen
 70
0
 62
10
  6
Continuous
370
-3
390
13
347
21
  0
LAYER
  5
35
330
1
100
AcDbSymbolTableRecord
100
AcDbLayerTableRecord
  2
LivingRoom
 70
0
 62
150
  6
Continuous
370
-3
390
13
347
21
  0
LAYER
  5
36
330
1
100
AcDbSymbolTableRecord
100
AcDbLayerTableRecord
  2
Storeroom
 70
0
 62
8
  6
Continuous
370
-3
390
13
347
21
  0
LAYER
  5
37
330
1
100
AcDbSymbolTableRecord
100
AcDbLayerTableRecord
  2
Other
 70
0
 62
255
  6
Continuous
370
-3
390
13
347
21
  0
LAYER
  5
38
330
1
100
AcDbSymbolTableRecord
100
AcDbLayerTableRecord
  2
Labels
 70
0
 62
7
  6
Continuous
370
-3
390
13
347
21
  0
LAYER
  5
39
330
1
100
AcDbSymbolTableRecord
100
AcDbLayerTableRecord
  2
Graph_nodes
 70
0
 62
5
  6
Continuous
370
-3
390
13
347
21
  0
LAYER
  5
3A
330
1
100
AcDbSymbolTableRecord
100
AcDbLayerTableRecord
  2
Graph_edges_door
 70
0
 62
150
  6
Continuous
370
-3
390
13
347
21
  0
LAYER
  5
3B
330
1
100
AcDbSymbolTableRecord
100
AcDbLayerTableRecord
  2
Graph_edges_entrance
 70
0
 62
10
  6
Continuous
370
-3
390
13
347
21
  0
ENDTAB
  0
TABLE
  2
STYLE
  5
5
330
0
100
AcDbSymbolTable
 70
1
  0
STYLE
  5
29
330
5
100
AcDbSymbolTableRecord
100
AcDbTextStyleTableRecord
  2
Standard
 70
0
 40
0.0
 41
1.0
 50
0.0
 71
0
 42
2.5
  3
txt
  4

  0
ENDTAB
  0
TABLE
  2
VIEW
  5
7
330
0
100
AcDbSymbolTable
 70
0
  0
ENDTAB
  0
TABLE
  2
UCS
  5
6
330
0
100
AcDbSymbolTable
 70
0
  0
ENDTAB
  0
TABLE
  2
APPID
  5
3
330
0
100
AcDbSymbolTable
 70
3
  0
APPID
  5
2A
330
3
100
AcDbSymbolTableRecord
100
AcDbRegAppTableRecord
  2
ACAD
 70
0
  0
APPID
  5
C3
330
3
100
AcDbSymbolTableRecord
100
AcDbRegAppTableRecord
  2
HATCHBACKGROUNDCOLOR
 70
0
  0
APPID
  5
C4
330
3
100
AcDbSymbolTableRecord
100
AcDbRegAppTableRecord
  2
EZDXF
 70
0
  0
ENDTAB
  0
TABLE
  2
DIMSTYLE
  5
4
330
0
100
AcDbSymbolTable
 70
1
100
AcDbDimStyleTable
  0
DIMSTYLE
105
2B
330
4
100
AcDbSymbolTableRecord
100
AcDbDimStyleTableRecord
  2
Standard
 70
0
 40
1.0
 41
2.5
 42
0.625
 43
3.75
 44
1.25
 45
0.0
 46
0.0
 47
0.0
 48
0.0
 49
2.5
140
2.5
141
2.5
142
0.0
143
0.03937007874
144
1.0
145
0.0
146
1.0
147
0.625
148
0.0
 69
0
 70
0
 71
0
 72
0
 73
0
 74
0
 75
0
 76
0
 77
1
 78
8
 79
3
170
0
171
3
172
1
173
0
174
0
175
0
176
0
177
0
178
0
179
2
271
2
272
2
273
2
274
3
275
0
276
0
277
2
278
44
279
0
280
0
281
0
282
0
283
0
284
8
285
0
286
0
288
0
289
3
290
0
371
-2
372
-2
  0
ENDTAB
  0
TABLE
  2
BLOCK_RECORD
  5
9
330
0
100
AcDbSymbolTable
 70
2
  0
BLOCK_RECORD
  5
17
330
9
100
AcDbSymbolTableRecord
100
AcDbBlockTableRecord
  2
*Model_Space
340
1A
 70
0
280
1
281
0
  0
BLOCK_RECORD
  5
1B
330
9
100
AcDbSymbolTableRecord
100
AcDbBlockTableRecord
  2
*Paper_Space
340
1E
 70
0
280
1
281
0
  0
ENDTAB
  0
ENDSEC
  0
SECTION
  2
BLOCKS
  0
BLOCK
  5
18
330
17
100
AcDbEntity
  8
0
100
AcDbBlockBegin
  2
*Model_Space
 70
0
 10
0.0
 20
0.0
 30
0.0
  3
*Model_Space
  1

  0
ENDBLK
  5
19
330
17
100
AcDbEntity
  8
0
100
AcDbBlockEnd
  0
BLOCK
  5
1C
330
1B
100
AcDbEntity
  8
0
100
AcDbBlockBegin
  2
*Paper_Space
 70
0
 10
0.0
 20
0.0
 30
0.0
  3
*Paper_Space
  1

  0
ENDBLK
  5
1D
330
1B
100
AcDbEntity
  8
0
100
AcDbBlockEnd
  0
ENDSEC
  0
SECTION
  2
ENTITIES
  0
LWPOLYLINE
  5
3C
330
17
100
AcDbEntity
  8
Balcony
100
AcDbPolyline
 90
7
 70
1
 10
-4.742147894720919
 20
-2.7536266994383034
 10
-5.723670525621544
 20
-4.992011024358547
 10
-5.711827222315089
 20
-4.997204265791883
 10
-5.851241572356816
 20
-5.315141810966978
 10
-8.486518797828529
 20
-4.159583220469049
 10
-7.365581816886177
 20
-1.6032613503737103
 10
-4.742147894720919
 20
-2.7536266994383034
  0
TEXT
  5
3D
330
17
100
AcDbEntity
  8
Labels
100
AcDbText
 10
-6.613869337391709
 20
-3.457557229211988
 30
0.0
 40
0.15
  1
Balcony
 72
1
 11
-6.613869337391709
 21
-3.457557229211988
 31
0.0
100
AcDbText
 73
2
  0
LWPOLYLINE
  5
3E
330
17
100
AcDbEntity
  8
LivingRoom
100
AcDbPolyline
 90
5
 70
1
 10
-2.0081591798755474
 20
-5.067990889618702
 10
-0.655906479269933
 20
-5.660948324838497
 10
-1.18135177585635
 20
-6.859238082460177
 10
-2.5336044764619645
 20
-6.266280647240382
 10
-2.0081591798755474
 20
-5.067990889618702
  0
TEXT
  5
3F
330
17
100
AcDbEntity
  8
Labels
100
AcDbText
 10
-1.594755477865949
 20
-5.963614486039439
 30
0.0
 40
0.15
  1
LivingRoom
 72
1
 11
-1.594755477865949
 21
-5.963614486039439
 31
0.0
100
AcDbText
 73
2
  0
LWPOLYLINE
  5
40
330
17
100
AcDbEntity
  8
Balcony
100
AcDbPolyline
 90
13
 70
1
 10
-3.0147253147597732
 20
-12.929480833123892
 10
-3.429381460768342
 20
-13.875113453541172
 10
-8.429371579762504
 20
-11.682637656853693
 10
-6.790841535964265
 20
-7.945933223881539
 10
-6.360534849163019
 20
-8.134620995959438
 10
-6.318988917696327
 20
-8.039874569507788
 10
-4.824616577413236
 20
-8.695150901927622
 10
-4.867893589357708
 20
-8.79384509614809
 10
-2.487389624759988
 20
-9.837686624248754
 10
-3.59701221101625
 20
-12.368205764061589
 10
-3.593064443247431
 20
-12.369936844539367
 10
-3.7055846743030587
 20
-12.626541749512587
 10
-3.0147253147597732
 20
-12.929480833123892
  0
TEXT
  5
41
330
17
100
AcDbEntity
  8
Labels
100
AcDbText
 10
-5.386029814338855
 20
-10.83644257413378
 30
0.0
 40
0.15
  1
Balcony
 72
1
 11
-5.386029814338855
 21
-10.83644257413378
 31
0.0
100
AcDbText
 73
2
  0
LWPOLYLINE
  5
42
330
17
100
AcDbEntity
  8
Bedroom
100
AcDbPolyline
 90
5
 70
1
 10
-9.530360325929195
 20
-6.540087185066767
 10
-8.530598978431364
 20
-4.260109058788743
 10
-5.895321752959651
 20
-5.415667649286675
 10
-6.89508310045748
 20
-7.695645775564699
 10
-9.530360325929195
 20
-6.540087185066767
  0
TEXT
  5
43
330
17
100
AcDbEntity
  8
Labels
100
AcDbText
 10
-7.712841039444421
 20
-5.97787741717672
 30
0.0
 40
0.15
  1
Bedroom
 72
1
 11
-7.712841039444421
 21
-5.97787741717672
 31
0.0
100
AcDbText
 73
2
  0
LWPOLYLINE
  5
44
330
17
100
AcDbEntity
  8
Storeroom
100
AcDbPolyline
 90
5
 70
1
 10
-2.2468516621292345
 20
-3.0146935577052396
 10
0.0607608385305234
 20
-4.026572468547524
 10
-0.6100952181893193
 20
-5.556474718749982
 10
-2.917707718849077
 20
-4.544595807907697
 10
-2.2468516621292345
 20
-3.0146935577052396
  0
TEXT
  5
45
330
17
100
AcDbEntity
  8
Labels
100
AcDbText
 10
-1.428473440159277
 20
-4.285584138227611
 30
0.0
 40
0.15
  1
Storeroom
 72
1
 11
-1.428473440159277
 21
-4.285584138227611
 31
0.0
100
AcDbText
 73
2
  0
LWPOLYLINE
  5
46
330
17
100
AcDbEntity
  8
Storeroom
100
AcDbPolyline
 90
7
 70
1
 10
-3.000573531250062
 20
-3.799710517348526
 10
-2.9988424507722815
 20
-3.7957627495797084
 10
-2.7361736543606483
 20
-3.910941972932534
 10
-3.3931810672582605
 20
-5.4092620809844405
 10
-4.113790924852872
 20
-5.093277522209263
 10
-3.4585145924330405
 20
-3.5989051819261775
 10
-3.000573531250062
 20
-3.799710517348526
  0
TEXT
  5
47
330
17
100
AcDbEntity
  8
Labels
100
AcDbText
 10
-3.4253115297634356
 20
-4.503459515367962
 30
0.0
 40
0.15
  1
Storeroom
 72
1
 11
-3.4253115297634356
 21
-4.503459515367962
 31
0.0
100
AcDbText
 73
2
  0
LWPOLYLINE
  5
48
330
17
100
AcDbEntity
  8
Dining
100
AcDbPolyline
 90
5
 70
1
 10
-2.6064959403999266
 20
-6.234318029981999
 10
-3.488964276516108
 20
-5.847359171617892
 10
-2.963518979929691
 20
-4.649069413996212
 10
-2.0810506438135095
 20
-5.036028272360319
 10
-2.6064959403999266
 20
-6.234318029981999
  0
TEXT
  5
49
330
17
100
AcDbEntity
  8
Labels
100
AcDbText
 10
-2.7850074601648087
 20
-5.441693721989106
 30
0.0
 40
0.15
  1
Dining
 72
1
 11
-2.7850074601648087
 21
-5.441693721989106
 31
0.0
100
AcDbText
 73
2
  0
LWPOLYLINE
  5
4A
330
17
100
AcDbEntity
  8
Other
100
AcDbPolyline
 90
5
 70
1
 10
-3.2185068647099158
 20
-14.193509430458473
 10
-2.7207588557679605
 20
-13.058383957137892
 10
0.1829665779834313
 20
-14.331656020124786
 10
-0.314781430958524
 20
-15.466781493445367
 10
-3.2185068647099158
 20
-14.193509430458473
  0
TEXT
  5
4B
330
17
100
AcDbEntity
  8
Labels
100
AcDbText
 10
-1.5177701433632422
 20
-14.262582725291628
 30
0.0
 40
0.15
  1
Other
 72
1
 11
-1.5177701433632422
 21
-14.262582725291628
 31
0.0
100
AcDbText
 73
2
  0
LWPOLYLINE
  5
4C
330
17
100
AcDbEntity
  8
Balcony
100
AcDbPolyline
 90
5
 70
1
 10
-6.891367374283959
 20
-7.901853043278706
 10
-8.529897418082196
 20
-11.63855747625086
 10
-11.244129998930285
 20
-10.448377276197352
 10
-9.605599955132046
 20
-6.711672843225198
 10
-6.891367374283959
 20
-7.901853043278706
  0
TEXT
  5
4D
330
17
100
AcDbEntity
  8
Labels
100
AcDbText
 10
-9.067748686607121
 20
-9.17511515973803
 30
0.0
 40
0.15
  1
Balcony
 72
1
 11
-9.067748686607121
 21
-9.17511515973803
 31
0.0
100
AcDbText
 73
2
  0
LWPOLYLINE
  5
4E
330
17
100
AcDbEntity
  8
Balcony
100
AcDbPolyline
 90
5
 70
1
 10
-0.2659933341360974
 20
-5.28122344700067
 10
3.4391289566855052
 20
-6.905904846976675
 10
2.010059650698513
 20
-10.164929379921755
 10
-1.6950626401230897
 20
-8.54024797994575
 10
-0.2659933341360974
 20
-5.28122344700067
  0
TEXT
  5
4F
330
17
100
AcDbEntity
  8
Labels
100
AcDbText
 10
0.8720331582812076
 20
-7.7230764134612135
 30
0.0
 40
0.15
  1
Balcony
 72
1
 11
0.8720331582812076
 21
-7.7230764134612135
 31
0.0
100
AcDbText
 73
2
  0
LWPOLYLINE
  5
50
330
17
100
AcDbEntity
  8
Dining
100
AcDbPolyline
 90
19
 70
1
 10
-4.792653960154854
 20
-8.622259437989658
 10
-4.822082328277095
 20
-8.689371490059578
 10
-6.316454668560186
 20
-8.034095157639744
 10
-6.285295219960166
 20
-7.963035337801006
 10
-6.72349744229905
 20
-7.770885404767551
 10
-5.50135462498716
 20
-4.983761359981493
 10
-5.5763622125947165
 20
-4.950870830903696
 10
-4.63372652086359
 20
-2.801169040996694
 10
-3.5262354219247385
 20
-3.286799486594198
 10
-4.5042958918698055
 20
-5.517288275976803
 10
-4.332710233711374
 20
-5.592527905179658
 10
-4.1492157030668135
 20
-5.174064521684869
 10
-3.4286058454722017
 20
-5.4900490804600395
 10
-3.569751275991707
 20
-5.811934393403952
 10
-3.581594579298163
 20
-5.806741151970616
 10
-3.6239436794232187
 20
-5.9033192225214925
 10
-1.2237008759814056
 20
-6.955816153011053
 10
-2.412149995557134
 20
-9.666100966090323
 10
-4.792653960154854
 20
-8.622259437989658
  0
TEXT
  5
51
330
17
100
AcDbEntity
  8
Labels
100
AcDbText
 10
-4.083400520671376
 20
-6.7909908337442255
 30
0.0
 40
0.15
  1
Dining
 72
1
 11
-4.083400520671376
 21
-6.7909908337442255
 31
0.0
100
AcDbText
 73
2
  0
LWPOLYLINE
  5
52
330
17
100
AcDbEntity
  8
Balcony
100
AcDbPolyline
 90
5
 70
1
 10
-3.384597186435278
 20
-12.393269322312872
 10
-1.7374117402481462
 20
-8.636826050496627
 10
1.9677105505734565
 20
-10.261507450472632
 10
0.3205251043863244
 20
-14.01795072228888
 10
-3.384597186435278
 20
-12.393269322312872
  0
TEXT
  5
53
330
17
100
AcDbEntity
  8
Labels
100
AcDbText
 10
-0.7084433179309108
 20
-11.327388386392753
 30
0.0
 40
0.15
  1
Balcony
 72
1
 11
-0.7084433179309108
 21
-11.327388386392753
 31
0.0
100
AcDbText
 73
2
  0
LWPOLYLINE
  5
54
330
17
100
AcDbEntity
  8
Balcony
100
AcDbPolyline
 90
9
 70
1
 10
3.844120628731332
 20
4.059781264459257
 10
5.475726350618455
 20
7.780694626356137
 10
9.076090555781176
 20
6.2019492306218
 10
9.081283797214512
 20
6.213792533928249
 10
9.162355276260481
 20
6.178243012553253
 10
7.532480634851137
 20
2.4612774184251975
 10
7.441681976168304
 20
2.5010922694141122
 10
7.43475765425719
 20
2.4853011983388384
 10
3.844120628731332
 20
4.059781264459257
  0
TEXT
  5
55
330
17
100
AcDbEntity
  8
Labels
100
AcDbText
 10
6.500721989839439
 20
5.113442298766522
 30
0.0
 40
0.15
  1
Balcony
 72
1
 11
6.500721989839439
 21
5.113442298766522
 31
0.0
100
AcDbText
 73
2
  0
LWPOLYLINE
  5
56
330
17
100
AcDbEntity
  8
Balcony
100
AcDbPolyline
 90
11
 70
1
 10
2.969417498064235
 20
6.900305423441509
 10
1.4276719445553177
 20
7.57635472159469
 10
1.7375353500777386
 20
8.28300515221325
 10
1.654632226932545
 20
8.31935784224661
 10
2.0415910852966537
 20
9.201826178362793
 10
2.1165986729042103
 20
9.168935649284997
 10
3.8788385992831085
 20
13.187763237942498
 10
6.9799524214754385
 20
11.827937151066664
 10
4.749392854276822
 20
6.741096141158486
 10
3.1979201211310464
 20
7.421410768925583
 10
2.969417498064235
 20
6.900305423441509
  0
TEXT
  5
57
330
17
100
AcDbEntity
  8
Labels
100
AcDbText
 10
4.208077779093029
 20
9.840712552349677
 30
0.0
 40
0.15
  1
Balcony
 72
1
 11
4.208077779093029
 21
9.840712552349677
 31
0.0
100
AcDbText
 73
2
  0
LWPOLYLINE
  5
58
330
17
100
AcDbEntity
  8
Storeroom
100
AcDbPolyline
 90
17
 70
1
 10
3.3862195342095074
 20
5.392733606892847
 10
3.3212416447122735
 20
5.2445500757769565
 10
1.5663166316871422
 20
6.014077719730203
 10
1.7039999012510876
 20
6.328067497136473
 10
1.7197909723263631
 20
6.321143175225359
 10
1.7552157505403052
 20
6.401930174700965
 10
1.4551854001100786
 20
6.533492291012159
 10
1.6992677474769007
 20
7.0901275464156015
 10
1.6953199797080813
 20
7.091858626893384
 10
1.7966505592386746
 20
7.3229452811544675
 10
3.0046674964972198
 20
6.793234654954134
 10
3.2227836366973595
 20
7.290653393825295
 10
4.705312673673992
 20
6.640570302838796
 10
4.062153904598608
 20
5.173832336937437
 10
3.410772222743512
 20
5.459460615770951
 10
3.382271766440688
 20
5.394464687370622
 10
3.3862195342095074
 20
5.392733606892847
  0
TEXT
  5
59
330
17
100
AcDbEntity
  8
Labels
100
AcDbText
 10
3.0917224054907444
 20
6.288143670033539
 30
0.0
 40
0.15
  1
Storeroom
 72
1
 11
3.0917224054907444
 21
6.288143670033539
 31
0.0
100
AcDbText
 73
2
  0
LWPOLYLINE
  5
5A
330
17
100
AcDbEntity
  8
Bedroom
100
AcDbPolyline
 90
5
 70
1
 10
-1.7372277502883158
 20
11.37186874533181
 10
1.0046392049415065
 20
10.169570981933852
 10
0.0100710988770096
 20
7.901436158962277
 10
-2.7317958563528126
 20
9.103733922360234
 10
-1.7372277502883158
 20
11.37186874533181
  0
TEXT
  5
5B
330
17
100
AcDbEntity
  8
Labels
100
AcDbText
 10
-0.8635783257056531
 20
9.636652452147045
 30
0.0
 40
0.15
  1
Bedroom
 72
1
 11
-0.8635783257056531
 21
9.636652452147045
 31
0.0
100
AcDbText
 73
2
  0
LWPOLYLINE
  5
5C
330
17
100
AcDbEntity
  8
Balcony
100
AcDbPolyline
 90
5
 70
1
 10
10.76586171177264
 20
10.167830972876715
 10
9.070206012207702
 20
6.3008502035335425
 10
5.5111511288323936
 20
7.861481625831729
 10
7.206806828397333
 20
11.728462395174901
 10
10.76586171177264
 20
10.167830972876715
  0
TEXT
  5
5D
330
17
100
AcDbEntity
  8
Labels
100
AcDbText
 10
8.138506420302518
 20
9.014656299354222
 30
0.0
 40
0.15
  1
Balcony
 72
1
 11
8.138506420302518
 21
9.014656299354222
 31
0.0
100
AcDbText
 73
2
  0
LWPOLYLINE
  5
5E
330
17
100
AcDbEntity
  8
Balcony
100
AcDbPolyline
 90
5
 70
1
 10
-0.1636755959873142
 20
14.960389647188073
 10
3.7309395477375897
 20
13.252616384278681
 10
2.206660815472757
 20
9.776464624048565
 10
-1.6879543282521468
 20
11.484237886957956
 10
-0.1636755959873142
 20
14.960389647188073
  0
TEXT
  5
5F
330
17
100
AcDbEntity
  8
Labels
100
AcDbText
 10
1.0214926097427215
 20
12.368427135618319
 30
0.0
 40
0.15
  1
Balcony
 72
1
 11
1.0214926097427215
 21
12.368427135618319
 31
0.0
100
AcDbText
 73
2
  0
LWPOLYLINE
  5
60
330
17
100
AcDbEntity
  8
Dining
100
AcDbPolyline
 90
9
 70
1
 10
2.0358116734286096
 20
9.204360427498933
 10
1.648852815064501
 20
8.32189209138275
 10
1.5896362985322199
 20
8.347858298549433
 10
1.1707148229097282
 20
7.392498498495286
 10
0.1105969371967017
 20
7.857355978359443
 10
1.1051650432611986
 20
10.125490801331019
 10
2.157387393436588
 20
9.664095482422418
 10
1.9686996213586916
 20
9.23378879562118
 10
2.0358116734286096
 20
9.204360427498933
  0
TEXT
  5
61
330
17
100
AcDbEntity
  8
Labels
100
AcDbText
 10
1.151026342062559
 20
8.758406124712682
 30
0.0
 40
0.15
  1
Dining
 72
1
 11
1.151026342062559
 21
8.758406124712682
 31
0.0
100
AcDbText
 73
2
  0
LWPOLYLINE
  5
62
330
17
100
AcDbEntity
  8
Other
100
AcDbPolyline
 90
7
 70
1
 10
11.087462545146188
 20
10.026810285518266
 10
11.161385713245789
 20
9.994395270085107
 10
12.27746221719195
 20
9.278512252069667
 10
10.969675594392672
 20
6.296075592276878
 10
9.716812501680495
 20
6.60096394775713
 10
9.606460824825827
 20
6.64935271950862
 10
11.087462545146188
 20
10.026810285518266
  0
TEXT
  5
63
330
17
100
AcDbEntity
  8
Labels
100
AcDbText
 10
10.970544190246262
 20
8.067001077643045
 30
0.0
 40
0.15
  1
Other
 72
1
 11
10.970544190246262
 21
8.067001077643045
 31
0.0
100
AcDbText
 73
2
  0
LWPOLYLINE
  5
64
330
17
100
AcDbEntity
  8
Bedroom
100
AcDbPolyline
 90
11
 70
1
 10
-3.354435440797925
 20
-0.1520684346067647
 10
-3.2722714896839538
 20
0.0353082946269474
 10
-3.8504772280307176
 20
0.2888492130410256
 10
-4.073786609664195
 20
-0.220412829136599
 10
-6.326130361560487
 20
0.7672309550167782
 10
-5.35060414075156
 20
2.991940332531339
 10
-1.503362210252483
 20
1.304940035355294
 10
-2.47888843106141
 20
-0.9197693421592668
 10
-3.4995286390862503
 20
-0.4722226670728986
 10
-3.358383208566744
 20
-0.1503373541289861
 10
-3.354435440797925
 20
-0.1520684346067647
  0
TEXT
  5
65
330
17
100
AcDbEntity
  8
Labels
100
AcDbText
 10
-3.9232821504559734
 20
1.076084423335803
 30
0.0
 40
0.15
  1
Bedroom
 72
1
 11
-3.9232821504559734
 21
1.076084423335803
 31
0.0
100
AcDbText
 73
2
  0
LWPOLYLINE
  5
66
330
17
100
AcDbEntity
  8
Dining
100
AcDbPolyline
 90
5
 70
1
 10
1.2171225976868154
 20
-1.3894635989765867
 10
0.1308072263000426
 20
-3.8668301136955456
 10
-0.7556088775849563
 20
-3.4781401748536567
 10
0.3307064938018165
 20
-1.0007736601346977
 10
1.2171225976868154
 20
-1.3894635989765867
  0
TEXT
  5
67
330
17
100
AcDbEntity
  8
Labels
100
AcDbText
 10
0.23075686005092955
 20
-2.4338018869151217
 30
0.0
 40
0.15
  1
Dining
 72
1
 11
0.23075686005092955
 21
-2.4338018869151217
 31
0.0
100
AcDbText
 73
2
  0
LWPOLYLINE
  5
68
330
17
100
AcDbEntity
  8
Dining
100
AcDbPolyline
 90
21
 70
1
 10
-1.8201092917958572
 20
0.1375147714756082
 10
-0.3079481228754783
 20
3.5860321573239915
 10
0.2486871325279694
 20
3.3419498099571676
 10
0.3048848764752563
 20
3.470110022658595
 10
-0.2517503789281914
 20
3.7141923700254154
 10
0.2754259981360043
 20
4.9164298954159165
 10
0.6780983105555194
 20
4.739859686682465
 10
0.7533379397583744
 20
4.9114453448408995
 10
0.3704044661829542
 20
5.079360151185455
 10
0.8179511412693223
 20
6.100000359210291
 10
2.166256074106119
 20
5.508774004468279
 10
1.1145623122749218
 20
3.110362845125689
 10
1.0198158858232702
 20
3.151908776592382
 10
0.9757357052204352
 20
3.0513829382726847
 10
2.783813343339432
 20
2.258548079449959
 10
2.7266876875727295
 20
2.1282717430789404
 10
2.829329649562018
 20
2.08326365065669
 10
2.186170880486637
 20
0.6165256847553309
 10
2.1111632928790804
 20
0.6494162138331276
 10
1.2889000659341114
 20
-1.2257734763557906
 10
-1.8201092917958572
 20
0.1375147714756082
  0
TEXT
  5
69
330
17
100
AcDbEntity
  8
Labels
100
AcDbText
 10
0.6183467714832604
 20
1.96911696944705
 30
0.0
 40
0.15
  1
Dining
 72
1
 11
0.6183467714832604
 21
1.96911696944705
 31
0.0
100
AcDbText
 73
2
  0
LWPOLYLINE
  5
6A
330
17
100
AcDbEntity
  8
Balcony
100
AcDbPolyline
 90
7
 70
1
 10
5.798591647898119
 20
-1.525097378076687
 10
4.47165609010008
 20
-4.55120361266146
 10
1.0468253108646088
 20
-3.049428926607753
 10
1.1074131275868702
 20
-2.9112570546990995
 10
0.8271216160007384
 20
-2.788350340776798
 10
2.0934693570765166
 20
0.099584021899318
 10
5.798591647898119
 20
-1.525097378076687
  0
TEXT
  5
6B
330
17
100
AcDbEntity
  8
Labels
100
AcDbText
 10
3.2906928548093286
 20
-2.223407486448369
 30
0.0
 40
0.15
  1
Balcony
 72
1
 11
3.2906928548093286
 21
-2.223407486448369
 31
0.0
100
AcDbText
 73
2
  0
LWPOLYLINE
  5
6C
330
17
100
AcDbEntity
  8
Balcony
100
AcDbPolyline
 90
5
 70
1
 10
-3.7355060549838655
 20
6.675207660839256
 10
0.1117358755152118
 20
4.988207363663207
 10
-1.4575509491718694
 20
1.4094136414438125
 10
-5.304792879670947
 20
3.0964139386198575
 10
-3.7355060549838655
 20
6.675207660839256
  0
TEXT
  5
6D
330
17
100
AcDbEntity
  8
Labels
100
AcDbText
 10
-2.596528502077868
 20
4.042310651141533
 30
0.0
 40
0.15
  1
Balcony
 72
1
 11
-2.596528502077868
 21
4.042310651141533
 31
0.0
100
AcDbText
 73
2
  0
LWPOLYLINE
  5
6E
330
17
100
AcDbEntity
  8
Storeroom
100
AcDbPolyline
 90
13
 70
1
 10
-2.0604250475666213
 20
-1.1032638728038293
 10
-2.3151983084406176
 20
-0.991546810406561
 10
-1.8918867600431533
 20
-0.0261753511451914
 10
-0.2790813866954984
 20
-0.7333840978983908
 10
-0.3967948591844639
 20
-1.0018323061780663
 10
-0.3928470914156446
 20
-1.0035633866558449
 10
-0.3963092523712017
 20
-1.0114589221934835
 10
0.0576840410429575
 20
-1.2105331771380534
 10
-0.9074556968992926
 20
-3.411555948039698
 10
-2.5518432123974986
 20
-2.6904985574642666
 10
-1.8853772284526311
 20
-1.170607966469042
 10
-2.0569628866110623
 20
-1.0953683372661907
 10
-2.0604250475666213
 20
-1.1032638728038293
  0
TEXT
  5
6F
330
17
100
AcDbEntity
  8
Labels
100
AcDbText
 10
-1.2839703865745125
 20
-1.7226609171482274
 30
0.0
 40
0.15
  1
Storeroom
 72
1
 11
-1.2839703865745125
 21
-1.7226609171482274
 31
0.0
100
AcDbText
 73
2
  0
LWPOLYLINE
  5
70
330
17
100
AcDbEntity
  8
Balcony
100
AcDbPolyline
 90
5
 70
1
 10
0.7241846991534207
 20
-3.023100283236335
 10
4.429306989975023
 20
-4.64778168321234
 10
3.5143685858883593
 20
-6.73431918881824
 10
-0.1907537049332433
 20
-5.109637788842235
 10
0.7241846991534207
 20
-3.023100283236335
  0
TEXT
  5
71
330
17
100
AcDbEntity
  8
Labels
100
AcDbText
 10
2.11927664252089
 20
-4.878709736027289
 30
0.0
 40
0.15
  1
Balcony
 72
1
 11
2.11927664252089
 21
-4.878709736027289
 31
0.0
100
AcDbText
 73
2
  0
LWPOLYLINE
  5
72
330
17
100
AcDbEntity
  8
Balcony
100
AcDbPolyline
 90
9
 70
1
 10
2.8351090614300603
 20
2.08072940152055
 10
2.9535420944946242
 20
2.0287969871871816
 10
3.758494516661804
 20
3.86450899968791
 10
7.349131542187662
 20
2.2900289335674913
 10
5.738298786033887
 20
-1.3835112151035602
 10
2.135818457201573
 20
0.1961620924501943
 10
2.298540022112787
 20
0.5672522627191583
 10
2.1919502923546794
 20
0.6139914356191909
 10
2.8351090614300603
 20
2.08072940152055
  0
TEXT
  5
73
330
17
100
AcDbEntity
  8
Labels
100
AcDbText
 10
4.7192959619950505
 20
1.2412668643728437
 30
0.0
 40
0.15
  1
Balcony
 72
1
 11
4.7192959619950505
 21
1.2412668643728437
 31
0.0
100
AcDbText
 73
2
  0
LWPOLYLINE
  5
74
330
17
100
AcDbEntity
  8
Other
100
AcDbPolyline
 90
7
 70
1
 10
6.188628640695406
 20
-1.2309624886330859
 10
7.6655391341278705
 20
2.137164942902583
 10
7.752390025041883
 20
2.099081172391447
 10
7.7565832940662265
 20
2.1086440162411613
 10
8.812873227567884
 20
1.4311097945092008
 10
7.505086604768607
 20
-1.5513268652835812
 10
6.188628640695406
 20
-1.2309624886330859
  0
TEXT
  5
75
330
17
100
AcDbEntity
  8
Labels
100
AcDbText
 10
7.532403907410901
 20
0.20723465051851508
 30
0.0
 40
0.15
  1
Other
 72
1
 11
7.532403907410901
 21
0.20723465051851508
 31
0.0
100
AcDbText
 73
2
  0
LWPOLYLINE
  5
76
330
17
100
AcDbEntity
  8
Storeroom
100
AcDbPolyline
 90
9
 70
1
 10
2.7125824830010874
 20
2.675743382293156
 10
2.614714064426053
 20
2.4525522635697143
 10
1.22693145390107
 20
3.06108942308952
 10
2.2786252157322675
 20
5.459500582432106
 10
3.8795872857734643
 20
4.757485077112243
 10
2.9542623988201253
 20
2.6472609648934267
 10
2.7371351715350922
 20
2.7424703911712633
 10
2.708634715232268
 20
2.6774744627709346
 10
2.7125824830010874
 20
2.675743382293156
  0
TEXT
  5
77
330
17
100
AcDbEntity
  8
Labels
100
AcDbText
 10
2.5494876840283736
 20
3.931473761268424
 30
0.0
 40
0.15
  1
Storeroom
 72
1
 11
2.5494876840283736
 21
3.931473761268424
 31
0.0
100
AcDbText
 73
2
  0
LWPOLYLINE
  5
78
330
17
100
AcDbEntity
  8
Dining
100
AcDbPolyline
 90
9
 70
1
 10
-7.620598423445765
 20
-1.3103938437009148
 10
-7.839841774400389
 20
-1.214256505603661
 10
-6.945676336047072
 20
0.8249077867764143
 10
-6.653541521154484
 20
0.6968078314207773
 10
-6.6500793601989265
 20
0.7047033669584124
 10
-2.546232524726628
 20
-1.0948171612732587
 10
-3.435204721646608
 20
-3.1221381503468777
 10
-7.61194302105687
 20
-1.2906550048568235
 10
-7.620598423445765
 20
-1.3103938437009148
  0
TEXT
  5
79
330
17
100
AcDbEntity
  8
Labels
100
AcDbText
 10
-5.18952481975816
 20
-1.1452138279603143
 30
0.0
 40
0.15
  1
Dining
 72
1
 11
-5.18952481975816
 21
-1.1452138279603143
 31
0.0
100
AcDbText
 73
2
  0
LWPOLYLINE
  5
7A
330
17
100
AcDbEntity
  8
Other
100
AcDbPolyline
 90
9
 70
1
 10
-7.320228667271596
 20
0.9797338161499916
 10
-7.316766506316039
 20
0.9876293516876302
 10
-7.065941013210864
 20
0.877643369768144
 10
-7.960106451564181
 20
-1.1615209226119312
 10
-8.206984176900535
 20
-1.0532660211702236
 10
-8.19832877451164
 20
-1.0335271823261323
 10
-8.300970736500929
 20
-0.9885190899038818
 10
-7.418922861492064
 20
1.0230108280944634
 10
-7.320228667271596
 20
0.9797338161499916
  0
TEXT
  5
7B
330
17
100
AcDbEntity
  8
Labels
100
AcDbText
 10
-7.686518907166215
 20
-0.0637553247948755
 30
0.0
 40
0.15
  1
Other
 72
1
 11
-7.686518907166215
 21
-0.0637553247948755
 31
0.0
100
AcDbText
 73
2
  0
LWPOLYLINE
  5
7C
330
17
100
AcDbEntity
  8
Dining
100
AcDbPolyline
 90
7
 70
1
 10
-3.282224438253701
 20
9.168757769581518
 10
-3.0550855517614384
 20
9.069158270528703
 10
-3.0706652760614475
 20
9.033628360609342
 10
1.0665953456606267
 20
7.219456019897073
 10
0.1672366658739719
 20
5.168448424210538
 10
-4.197162842340365
 20
7.082220263975621
 10
-3.282224438253701
 20
9.168757769581518
  0
TEXT
  5
7D
330
17
100
AcDbEntity
  8
Labels
100
AcDbText
 10
-1.5667349956793224
 20
7.152594916834732
 30
0.0
 40
0.15
  1
Dining
 72
1
 11
-1.5667349956793224
 21
7.152594916834732
 31
0.0
100
AcDbText
 73
2
  0
LWPOLYLINE
  5
7E
330
17
100
AcDbEntity
  8
Other
100
AcDbPolyline
 90
9
 70
1
 10
-4.587991851453424
 20
7.253597231275727
 10
-4.586260770975645
 20
7.257544999044548
 10
-4.681007197427295
 20
7.299090930511241
 10
-3.7695309542961883
 20
9.377732900579502
 10
-3.678732295613356
 20
9.337918049590591
 10
-3.6770012151355775
 20
9.341865817359405
 10
-3.40248911541749
 20
9.221493352573248
 10
-4.317427519504154
 20
7.134955846967351
 10
-4.587991851453424
 20
7.253597231275727
  0
TEXT
  5
7F
330
17
100
AcDbEntity
  8
Labels
100
AcDbText
 10
-4.042473294768717
 20
8.258282100754652
 30
0.0
 40
0.15
  1
Other
 72
1
 11
-4.042473294768717
 21
8.258282100754652
 31
0.0
100
AcDbText
 73
2
  0
CIRCLE
  5
80
330
17
100
AcDbEntity
  8
Graph_nodes
100
AcDbCircle
 10
-6.613869337391709
 20
-3.457557229211988
 30
0.0
 40
0.08
  0
CIRCLE
  5
81
330
17
100
AcDbEntity
  8
Graph_nodes
100
AcDbCircle
 10
-1.594755477865949
 20
-5.963614486039439
 30
0.0
 40
0.08
  0
CIRCLE
  5
82
330
17
100
AcDbEntity
  8
Graph_nodes
100
AcDbCircle
 10
-5.386029814338855
 20
-10.83644257413378
 30
0.0
 40
0.08
  0
CIRCLE
  5
83
330
17
100
AcDbEntity
  8
Graph_nodes
100
AcDbCircle
 10
-7.712841039444421
 20
-5.97787741717672
 30
0.0
 40
0.08
  0
CIRCLE
  5
84
330
17
100
AcDbEntity
  8
Graph_nodes
100
AcDbCircle
 10
-1.428473440159277
 20
-4.285584138227611
 30
0.0
 40
0.08
  0
CIRCLE
  5
85
330
17
100
AcDbEntity
  8
Graph_nodes
100
AcDbCircle
 10
-3.4253115297634356
 20
-4.503459515367962
 30
0.0
 40
0.08
  0
CIRCLE
  5
86
330
17
100
AcDbEntity
  8
Graph_nodes
100
AcDbCircle
 10
-2.7850074601648087
 20
-5.441693721989106
 30
0.0
 40
0.08
  0
CIRCLE
  5
87
330
17
100
AcDbEntity
  8
Graph_nodes
100
AcDbCircle
 10
-1.5177701433632422
 20
-14.262582725291628
 30
0.0
 40
0.08
  0
CIRCLE
  5
88
330
17
100
AcDbEntity
  8
Graph_nodes
100
AcDbCircle
 10
-9.067748686607121
 20
-9.17511515973803
 30
0.0
 40
0.08
  0
CIRCLE
  5
89
330
17
100
AcDbEntity
  8
Graph_nodes
100
AcDbCircle
 10
0.8720331582812076
 20
-7.7230764134612135
 30
0.0
 40
0.08
  0
CIRCLE
  5
8A
330
17
100
AcDbEntity
  8
Graph_nodes
100
AcDbCircle
 10
-4.083400520671376
 20
-6.7909908337442255
 30
0.0
 40
0.08
  0
CIRCLE
  5
8B
330
17
100
AcDbEntity
  8
Graph_nodes
100
AcDbCircle
 10
-0.7084433179309108
 20
-11.327388386392753
 30
0.0
 40
0.08
  0
CIRCLE
  5
8C
330
17
100
AcDbEntity
  8
Graph_nodes
100
AcDbCircle
 10
6.500721989839439
 20
5.113442298766522
 30
0.0
 40
0.08
  0
CIRCLE
  5
8D
330
17
100
AcDbEntity
  8
Graph_nodes
100
AcDbCircle
 10
4.208077779093029
 20
9.840712552349677
 30
0.0
 40
0.08
  0
CIRCLE
  5
8E
330
17
100
AcDbEntity
  8
Graph_nodes
100
AcDbCircle
 10
3.0917224054907444
 20
6.288143670033539
 30
0.0
 40
0.08
  0
CIRCLE
  5
8F
330
17
100
AcDbEntity
  8
Graph_nodes
100
AcDbCircle
 10
-0.8635783257056531
 20
9.636652452147045
 30
0.0
 40
0.08
  0
CIRCLE
  5
90
330
17
100
AcDbEntity
  8
Graph_nodes
100
AcDbCircle
 10
8.138506420302518
 20
9.014656299354222
 30
0.0
 40
0.08
  0
CIRCLE
  5
91
330
17
100
AcDbEntity
  8
Graph_nodes
100
AcDbCircle
 10
1.0214926097427215
 20
12.368427135618319
 30
0.0
 40
0.08
  0
CIRCLE
  5
92
330
17
100
AcDbEntity
  8
Graph_nodes
100
AcDbCircle
 10
1.151026342062559
 20
8.758406124712682
 30
0.0
 40
0.08
  0
CIRCLE
  5
93
330
17
100
AcDbEntity
  8
Graph_nodes
100
AcDbCircle
 10
10.970544190246262
 20
8.067001077643045
 30
0.0
 40
0.08
  0
CIRCLE
  5
94
330
17
100
AcDbEntity
  8
Graph_nodes
100
AcDbCircle
 10
-3.9232821504559734
 20
1.076084423335803
 30
0.0
 40
0.08
  0
CIRCLE
  5
95
330
17
100
AcDbEntity
  8
Graph_nodes
100
AcDbCircle
 10
0.23075686005092955
 20
-2.4338018869151217
 30
0.0
 40
0.08
  0
CIRCLE
  5
96
330
17
100
AcDbEntity
  8
Graph_nodes
100
AcDbCircle
 10
0.6183467714832604
 20
1.96911696944705
 30
0.0
 40
0.08
  0
CIRCLE
  5
97
330
17
100
AcDbEntity
  8
Graph_nodes
100
AcDbCircle
 10
3.2906928548093286
 20
-2.223407486448369
 30
0.0
 40
0.08
  0
CIRCLE
  5
98
330
17
100
AcDbEntity
  8
Graph_nodes
100
AcDbCircle
 10
-2.596528502077868
 20
4.042310651141533
 30
0.0
 40
0.08
  0
CIRCLE
  5
99
330
17
100
AcDbEntity
  8
Graph_nodes
100
AcDbCircle
 10
-1.2839703865745125
 20
-1.7226609171482274
 30
0.0
 40
0.08
  0
CIRCLE
  5
9A
330
17
100
AcDbEntity
  8
Graph_nodes
100
AcDbCircle
 10
2.11927664252089
 20
-4.878709736027289
 30
0.0
 40
0.08
  0
CIRCLE
  5
9B
330
17
100
AcDbEntity
  8
Graph_nodes
100
AcDbCircle
 10
4.7192959619950505
 20
1.2412668643728437
 30
0.0
 40
0.08
  0
CIRCLE
  5
9C
330
17
100
AcDbEntity
  8
Graph_nodes
100
AcDbCircle
 10
7.532403907410901
 20
0.20723465051851508
 30
0.0
 40
0.08
  0
CIRCLE
  5
9D
330
17
100
AcDbEntity
  8
Graph_nodes
100
AcDbCircle
 10
2.5494876840283736
 20
3.931473761268424
 30
0.0
 40
0.08
  0
CIRCLE
  5
9E
330
17
100
AcDbEntity
  8
Graph_nodes
100
AcDbCircle
 10
-5.18952481975816
 20
-1.1452138279603143
 30
0.0
 40
0.08
  0
CIRCLE
  5
9F
330
17
100
AcDbEntity
  8
Graph_nodes
100
AcDbCircle
 10
-7.686518907166215
 20
-0.0637553247948755
 30
0.0
 40
0.08
  0
CIRCLE
  5
A0
330
17
100
AcDbEntity
  8
Graph_nodes
100
AcDbCircle
 10
-1.5667349956793224
 20
7.152594916834732
 30
0.0
 40
0.08
  0
CIRCLE
  5
A1
330
17
100
AcDbEntity
  8
Graph_nodes
100
AcDbCircle
 10
-4.042473294768717
 20
8.258282100754652
 30
0.0
 40
0.08
  0
LINE
  5
A2
330
17
100
AcDbEntity
  8
Graph_edges_door
100
AcDbLine
 10
-6.613869337391709
 20
-3.457557229211988
 30
0.0
 11
-4.083400520671376
 21
-6.7909908337442255
 31
0.0
  0
LINE
  5
A3
330
17
100
AcDbEntity
  8
Graph_edges_door
100
AcDbLine
 10
-1.594755477865949
 20
-5.963614486039439
 30
0.0
 11
-2.7850074601648087
 21
-5.441693721989106
 31
0.0
  0
LINE
  5
A4
330
17
100
AcDbEntity
  8
Graph_edges_door
100
AcDbLine
 10
-5.386029814338855
 20
-10.83644257413378
 30
0.0
 11
-1.5177701433632422
 21
-14.262582725291628
 31
0.0
  0
LINE
  5
A5
330
17
100
AcDbEntity
  8
Graph_edges_door
100
AcDbLine
 10
-5.386029814338855
 20
-10.83644257413378
 30
0.0
 11
-9.067748686607121
 21
-9.17511515973803
 31
0.0
  0
LINE
  5
A6
330
17
100
AcDbEntity
  8
Graph_edges_door
100
AcDbLine
 10
-5.386029814338855
 20
-10.83644257413378
 30
0.0
 11
-4.083400520671376
 21
-6.7909908337442255
 31
0.0
  0
LINE
  5
A7
330
17
100
AcDbEntity
  8
Graph_edges_door
100
AcDbLine
 10
-7.712841039444421
 20
-5.97787741717672
 30
0.0
 11
-4.083400520671376
 21
-6.7909908337442255
 31
0.0
  0
LINE
  5
A8
330
17
100
AcDbEntity
  8
Graph_edges_door
100
AcDbLine
 10
-1.428473440159277
 20
-4.285584138227611
 30
0.0
 11
-2.7850074601648087
 21
-5.441693721989106
 31
0.0
  0
LINE
  5
A9
330
17
100
AcDbEntity
  8
Graph_edges_door
100
AcDbLine
 10
-3.4253115297634356
 20
-4.503459515367962
 30
0.0
 11
-2.7850074601648087
 21
-5.441693721989106
 31
0.0
  0
LINE
  5
AA
330
17
100
AcDbEntity
  8
Graph_edges_door
100
AcDbLine
 10
-2.7850074601648087
 20
-5.441693721989106
 30
0.0
 11
-4.083400520671376
 21
-6.7909908337442255
 31
0.0
  0
LINE
  5
AB
330
17
100
AcDbEntity
  8
Graph_edges_door
100
AcDbLine
 10
-1.5177701433632422
 20
-14.262582725291628
 30
0.0
 11
-0.7084433179309108
 21
-11.327388386392753
 31
0.0
  0
LINE
  5
AC
330
17
100
AcDbEntity
  8
Graph_edges_door
100
AcDbLine
 10
0.8720331582812076
 20
-7.7230764134612135
 30
0.0
 11
-4.083400520671376
 21
-6.7909908337442255
 31
0.0
  0
LINE
  5
AD
330
17
100
AcDbEntity
  8
Graph_edges_door
100
AcDbLine
 10
-4.083400520671376
 20
-6.7909908337442255
 30
0.0
 11
-0.7084433179309108
 21
-11.327388386392753
 31
0.0
  0
LINE
  5
AE
330
17
100
AcDbEntity
  8
Graph_edges_entrance
100
AcDbLine
 10
-4.083400520671376
 20
-6.7909908337442255
 30
0.0
 11
-5.18952481975816
 21
-1.1452138279603143
 31
0.0
  0
LINE
  5
AF
330
17
100
AcDbEntity
  8
Graph_edges_door
100
AcDbLine
 10
6.500721989839439
 20
5.113442298766522
 30
0.0
 11
4.208077779093029
 21
9.840712552349677
 31
0.0
  0
LINE
  5
B0
330
17
100
AcDbEntity
  8
Graph_edges_door
100
AcDbLine
 10
4.208077779093029
 20
9.840712552349677
 30
0.0
 11
3.0917224054907444
 21
6.288143670033539
 31
0.0
  0
LINE
  5
B1
330
17
100
AcDbEntity
  8
Graph_edges_door
100
AcDbLine
 10
4.208077779093029
 20
9.840712552349677
 30
0.0
 11
8.138506420302518
 21
9.014656299354222
 31
0.0
  0
LINE
  5
B2
330
17
100
AcDbEntity
  8
Graph_edges_door
100
AcDbLine
 10
4.208077779093029
 20
9.840712552349677
 30
0.0
 11
1.151026342062559
 21
8.758406124712682
 31
0.0
  0
LINE
  5
B3
330
17
100
AcDbEntity
  8
Graph_edges_door
100
AcDbLine
 10
-0.8635783257056531
 20
9.636652452147045
 30
0.0
 11
1.151026342062559
 21
8.758406124712682
 31
0.0
  0
LINE
  5
B4
330
17
100
AcDbEntity
  8
Graph_edges_door
100
AcDbLine
 10
8.138506420302518
 20
9.014656299354222
 30
0.0
 11
10.970544190246262
 21
8.067001077643045
 31
0.0
  0
LINE
  5
B5
330
17
100
AcDbEntity
  8
Graph_edges_door
100
AcDbLine
 10
1.0214926097427215
 20
12.368427135618319
 30
0.0
 11
1.151026342062559
 21
8.758406124712682
 31
0.0
  0
LINE
  5
B6
330
17
100
AcDbEntity
  8
Graph_edges_entrance
100
AcDbLine
 10
1.151026342062559
 20
8.758406124712682
 30
0.0
 11
-1.5667349956793224
 21
7.152594916834732
 31
0.0
  0
LINE
  5
B7
330
17
100
AcDbEntity
  8
Graph_edges_door
100
AcDbLine
 10
-3.9232821504559734
 20
1.076084423335803
 30
0.0
 11
0.6183467714832604
 21
1.96911696944705
 31
0.0
  0
LINE
  5
B8
330
17
100
AcDbEntity
  8
Graph_edges_door
100
AcDbLine
 10
0.23075686005092955
 20
-2.4338018869151217
 30
0.0
 11
0.6183467714832604
 21
1.96911696944705
 31
0.0
  0
LINE
  5
B9
330
17
100
AcDbEntity
  8
Graph_edges_door
100
AcDbLine
 10
0.23075686005092955
 20
-2.4338018869151217
 30
0.0
 11
3.2906928548093286
 21
-2.223407486448369
 31
0.0
  0
LINE
  5
BA
330
17
100
AcDbEntity
  8
Graph_edges_door
100
AcDbLine
 10
0.23075686005092955
 20
-2.4338018869151217
 30
0.0
 11
-1.2839703865745125
 21
-1.7226609171482274
 31
0.0
  0
LINE
  5
BB
330
17
100
AcDbEntity
  8
Graph_edges_door
100
AcDbLine
 10
0.23075686005092955
 20
-2.4338018869151217
 30
0.0
 11
2.11927664252089
 21
-4.878709736027289
 31
0.0
  0
LINE
  5
BC
330
17
100
AcDbEntity
  8
Graph_edges_door
100
AcDbLine
 10
0.6183467714832604
 20
1.96911696944705
 30
0.0
 11
-2.596528502077868
 21
4.042310651141533
 31
0.0
  0
LINE
  5
BD
330
17
100
AcDbEntity
  8
Graph_edges_door
100
AcDbLine
 10
0.6183467714832604
 20
1.96911696944705
 30
0.0
 11
4.7192959619950505
 21
1.2412668643728437
 31
0.0
  0
LINE
  5
BE
330
17
100
AcDbEntity
  8
Graph_edges_door
100
AcDbLine
 10
0.6183467714832604
 20
1.96911696944705
 30
0.0
 11
2.5494876840283736
 21
3.931473761268424
 31
0.0
  0
LINE
  5
BF
330
17
100
AcDbEntity
  8
Graph_edges_entrance
100
AcDbLine
 10
0.6183467714832604
 20
1.96911696944705
 30
0.0
 11
-1.5667349956793224
 21
7.152594916834732
 31
0.0
  0
LINE
  5
C0
330
17
100
AcDbEntity
  8
Graph_edges_door
100
AcDbLine
 10
4.7192959619950505
 20
1.2412668643728437
 30
0.0
 11
7.532403907410901
 21
0.20723465051851508
 31
0.0
  0
LINE
  5
C1
330
17
100
AcDbEntity
  8
Graph_edges_entrance
100
AcDbLine
 10
-5.18952481975816
 20
-1.1452138279603143
 30
0.0
 11
-7.686518907166215
 21
-0.0637553247948755
 31
0.0
  0
LINE
  5
C2
330
17
100
AcDbEntity
  8
Graph_edges_entrance
100
AcDbLine
 10
-1.5667349956793224
 20
7.152594916834732
 30
0.0
 11
-4.042473294768717
 21
8.258282100754652
 31
0.0
  0
ENDSEC
  0
SECTION
  2
OBJECTS
  0
DICTIONARY
  5
A
330
0
100
AcDbDictionary
281
1
  3
ACAD_COLOR
350
B
  3
ACAD_GROUP
350
C
  3
ACAD_LAYOUT
350
D
  3
ACAD_MATERIAL
350
E
  3
ACAD_MLEADERSTYLE
350
F
  3
ACAD_MLINESTYLE
350
10
  3
ACAD_PLOTSETTINGS
350
11
  3
ACAD_PLOTSTYLENAME
350
12
  3
ACAD_SCALELIST
350
14
  3
ACAD_TABLESTYLE
350
15
  3
ACAD_VISUALSTYLE
350
16
  3
EZDXF_META
350
2D
  0
DICTIONARY
  5
B
330
A
100
AcDbDictionary
281
1
  0
DICTIONARY
  5
C
330
A
100
AcDbDictionary
281
1
  0
DICTIONARY
  5
D
330
A
100
AcDbDictionary
281
1
  3
Model
350
1A
  3
Layout1
350
1E
  0
DICTIONARY
  5
E
330
A
100
AcDbDictionary
281
1
  3
ByBlock
350
1F
  3
ByLayer
350
20
  3
Global
350
21
  0
DICTIONARY
  5
F
330
A
100
AcDbDictionary
281
1
  3
Standard
350
2C
  0
DICTIONARY
  5
10
330
A
100
AcDbDictionary
281
1
  3
Standard
350
22
  0
DICTIONARY
  5
11
330
A
100
AcDbDictionary
281
1
  0
ACDBDICTIONARYWDFLT
  5
12
330
A
100
AcDbDictionary
281
1
  3
Normal
350
13
100
AcDbDictionaryWithDefault
340
13
  0
ACDBPLACEHOLDER
  5
13
330
12
  0
DICTIONARY
  5
14
330
A
100
AcDbDictionary
281
1
  0
DICTIONARY
  5
15
330
A
100
AcDbDictionary
281
1
  0
DICTIONARY
  5
16
330
A
100
AcDbDictionary
281
1
  0
LAYOUT
  5
1A
330
D
100
AcDbPlotSettings
  1

  4
A3
  6

 40
7.5
 41
20.0
 42
7.5
 43
20.0
 44
420.0
 45
297.0
 46
0.0
 47
0.0
 48
0.0
 49
0.0
140
0.0
141
0.0
142
1.0
143
1.0
 70
1024
 72
1
 73
0
 74
5
  7

 75
16
 76
0
 77
2
 78
300
147
1.0
148
0.0
149
0.0
100
AcDbLayout
  1
Model
 70
1
 71
0
 10
0.0
 20
0.0
 11
420.0
 21
297.0
 12
0.0
 22
0.0
 32
0.0
 14
1e+20
 24
1e+20
 34
1e+20
 15
-1e+20
 25
-1e+20
 35
-1e+20
146
0.0
 13
0.0
 23
0.0
 33
0.0
 16
1.0
 26
0.0
 36
0.0
 17
0.0
 27
1.0
 37
0.0
 76
1
330
17
  0
LAYOUT
  5
1E
330
D
100
AcDbPlotSettings
  1

  4
A3
  6

 40
7.5
 41
20.0
 42
7.5
 43
20.0
 44
420.0
 45
297.0
 46
0.0
 47
0.0
 48
0.0
 49
0.0
140
0.0
141
0.0
142
1.0
143
1.0
 70
0
 72
1
 73
0
 74
5
  7

 75
16
 76
0
 77
2
 78
300
147
1.0
148
0.0
149
0.0
100
AcDbLayout
  1
Layout1
 70
1
 71
1
 10
0.0
 20
0.0
 11
420.0
 21
297.0
 12
0.0
 22
0.0
 32
0.0
 14
1e+20
 24
1e+20
 34
1e+20
 15
-1e+20
 25
-1e+20
 35
-1e+20
146
0.0
 13
0.0
 23
0.0
 33
0.0
 16
1.0
 26
0.0
 36
0.0
 17
0.0
 27
1.0
 37
0.0
 76
1
330
1B
  0
MATERIAL
  5
1F
102
{ACAD_REACTORS
330
E
102
}
330
E
100
AcDbMaterial
  1
ByBlock
  2

 70
0
 40
1.0
 71
1
 41
1.0
 91
-1023410177
 42
1.0
 72
1
  3

 73
1
 74
1
 75
1
 44
0.5
 73
0
 45
1.0
 46
1.0
 77
1
  4

 78
1
 79
1
170
1
 48
1.0
171
1
  6

172
1
173
1
174
1
140
1.0
141
1.0
175
1
  7

176
1
177
1
178
1
143
1.0
179
1
  8

270
1
271
1
272
1
145
1.0
146
1.0
273
1
  9

274
1
275
1
276
1
 42
1.0
 72
1
  3

 73
1
 74
1
 75
1
 94
63
  0
MATERIAL
  5
20
102
{ACAD_REACTORS
330
E
102
}
330
E
100
AcDbMaterial
  1
ByLayer
  2

 70
0
 40
1.0
 71
1
 41
1.0
 91
-1023410177
 42
1.0
 72
1
  3

 73
1
 74
1
 75
1
 44
0.5
 73
0
 45
1.0
 46
1.0
 77
1
  4

 78
1
 79
1
170
1
 48
1.0
171
1
  6

172
1
173
1
174
1
140
1.0
141
1.0
175
1
  7

176
1
177
1
178
1
143
1.0
179
1
  8

270
1
271
1
272
1
145
1.0
146
1.0
273
1
  9

274
1
275
1
276
1
 42
1.0
 72
1
  3

 73
1
 74
1
 75
1
 94
63
  0
MATERIAL
  5
21
102
{ACAD_REACTORS
330
E
102
}
330
E
100
AcDbMaterial
  1
Global
  2

 70
0
 40
1.0
 71
1
 41
1.0
 91
-1023410177
 42
1.0
 72
1
  3

 73
1
 74
1
 75
1
 44
0.5
 73
0
 45
1.0
 46
1.0
 77
1
  4

 78
1
 79
1
170
1
 48
1.0
171
1
  6

172
1
173
1
174
1
140
1.0
141
1.0
175
1
  7

176
1
177
1
178
1
143
1.0
179
1
  8

270
1
271
1
272
1
145
1.0
146
1.0
273
1
  9

274
1
275
1
276
1
 42
1.0
 72
1
  3

 73
1
 74
1
 75
1
 94
63
  0
MLINESTYLE
  5
22
102
{ACAD_REACTORS
330
10
102
}
330
10
100
AcDbMlineStyle
  2
Standard
 70
0
  3

 62
256
 51
90.0
 52
90.0
 71
2
 49
0.5
 62
256
  6
BYLAYER
 49
-0.5
 62
256
  6
BYLAYER
  0
MLEADERSTYLE
  5
2C
102
{ACAD_REACTORS
330
F
102
}
330
F
100
AcDbMLeaderStyle
179
2
170
2
171
1
172
0
 90
2
 40
0.0
 41
0.0
173
1
 91
-1056964608
 92
-2
290
1
 42
2.0
291
1
 43
8.0
  3
Standard
 44
4.0
300

342
29
174
1
175
1
176
0
178
1
 93
-1056964608
 45
4.0
292
0
297
0
 46
4.0
 94
-1056964608
 47
1.0
 49
1.0
140
1.0
294
1
141
0.0
177
0
142
1.0
295
0
296
0
143
3.75
271
0
272
9
273
9
  0
DICTIONARY
  5
2D
330
A
100
AcDbDictionary
280
1
281
1
  3
CREATED_BY_EZDXF
350
2E
  3
WRITTEN_BY_EZDXF
350
C5
  0
DICTIONARYVAR
  5
2E
330
2D
100
DictionaryVariables
280
0
  1
1.4.4 @ 2026-06-20T16:43:05.556844+00:00
  0
DICTIONARYVAR
  5
C5
330
2D
100
DictionaryVariables
280
0
  1
1.4.4 @ 2026-06-20T16:43:05.565067+00:00
  0
ENDSEC
  0
EOF
