  0
SECTION
  2
HEADER
  9
$ACADVER
  1
AC1024
  9
$ACADMAINTVER
 70
6
  9
$DWGCODEPAGE
  3
ANSI_1252
  9
$LASTSAVEDBY
  1
ezdxf
  9
$INSBASE
 10
0.0
 20
0.0
 30
0.0
  9
$EXTMIN
 10
1e+20
 20
1e+20
 30
1e+20
  9
$EXTMAX
 10
-1e+20
 20
-1e+20
 30
-1e+20
  9
$LIMMIN
 10
0.0
 20
0.0
  9
$LIMMAX
 10
420.0
 20
297.0
  9
$ORTHOMODE
 70
0
  9
$REGENMODE
 70
1
  9
$FILLMODE
 70
1
  9
$QTEXTMODE
 70
0
  9
$MIRRTEXT
 70
1
  9
$LTSCALE
 40
1.0
  9
$ATTMODE
 70
1
  9
$TEXTSIZE
 40
2.5
  9
$TRACEWID
 40
1.0
  9
$TEXTSTYLE
  7
Standard
  9
$CLAYER
  8
0
  9
$CELTYPE
  6
ByLayer
  9
$CECOLOR
 62
256
  9
$CELTSCALE
 40
1.0
  9
$DISPSILH
 70
0
  9
$DIMSCALE
 40
1.0
  9
$DIMASZ
 40
2.5
  9
$DIMEXO
 40
0.625
  9
$DIMDLI
 40
3.75
  9
$DIMRND
 40
0.0
  9
$DIMDLE
 40
0.0
  9
$DIMEXE
 40
1.25
  9
$DIMTP
 40
0.0
  9
$DIMTM
 40
0.0
  9
$DIMTXT
 40
2.5
  9
$DIMCEN
 40
2.5
  9
$DIMTSZ
 40
0.0
  9
$DIMTOL
 70
0
  9
$DIMLIM
 70
0
  9
$DIMTIH
 70
0
  9
$DIMTOH
 70
0
  9
$DIMSE1
 70
0
  9
$DIMSE2
 70
0
  9
$DIMTAD
 70
1
  9
$DIMZIN
 70
8
  9
$DIMBLK
  1

  9
$DIMASO
 70
1
  9
$DIMSHO
 70
1
  9
$DIMPOST
  1

  9
$DIMAPOST
  1

  9
$DIMALT
 70
0
  9
$DIMALTD
 70
3
  9
$DIMALTF
 40
0.03937007874
  9
$DIMLFAC
 40
1.0
  9
$DIMTOFL
 70
1
  9
$DIMTVP
 40
0.0
  9
$DIMTIX
 70
0
  9
$DIMSOXD
 70
0
  9
$DIMSAH
 70
0
  9
$DIMBLK1
  1

  9
$DIMBLK2
  1

  9
$DIMSTYLE
  2
ISO-25
  9
$DIMCLRD
 70
0
  9
$DIMCLRE
 70
0
  9
$DIMCLRT
 70
0
  9
$DIMTFAC
 40
1.0
  9
$DIMGAP
 40
0.625
  9
$DIMJUST
 70
0
  9
$DIMSD1
 70
0
  9
$DIMSD2
 70
0
  9
$DIMTOLJ
 70
0
  9
$DIMTZIN
 70
8
  9
$DIMALTZ
 70
0
  9
$DIMALTTZ
 70
0
  9
$DIMUPT
 70
0
  9
$DIMDEC
 70
2
  9
$DIMTDEC
 70
2
  9
$DIMALTU
 70
2
  9
$DIMALTTD
 70
3
  9
$DIMTXSTY
  7
Standard
  9
$DIMAUNIT
 70
0
  9
$DIMADEC
 70
0
  9
$DIMALTRND
 40
0.0
  9
$DIMAZIN
 70
0
  9
$DIMDSEP
 70
44
  9
$DIMATFIT
 70
3
  9
$DIMFRAC
 70
0
  9
$DIMLDRBLK
  1

  9
$DIMLUNIT
 70
2
  9
$DIMLWD
 70
-2
  9
$DIMLWE
 70
-2
  9
$DIMTMOVE
 70
0
  9
$DIMFXL
 40
1.0
  9
$DIMFXLON
 70
0
  9
$DIMJOGANG
 40
0.785398163397
  9
$DIMTFILL
 70
0
  9
$DIMTFILLCLR
 70
0
  9
$DIMARCSYM
 70
0
  9
$DIMLTYPE
  6

  9
$DIMLTEX1
  6

  9
$DIMLTEX2
  6

  9
$DIMTXTDIRECTION
 70
0
  9
$LUNITS
 70
2
  9
$LUPREC
 70
4
  9
$SKETCHINC
 40
1.0
  9
$FILLETRAD
 40
10.0
  9
$AUNITS
 70
0
  9
$AUPREC
 70
2
  9
$MENU
  1
.
  9
$ELEVATION
 40
0.0
  9
$PELEVATION
 40
0.0
  9
$THICKNESS
 40
0.0
  9
$LIMCHECK
 70
0
  9
$CHAMFERA
 40
0.0
  9
$CHAMFERB
 40
0.0
  9
$CHAMFERC
 40
0.0
  9
$CHAMFERD
 40
0.0
  9
$SKPOLY
 70
0
  9
$TDCREATE
 40
2461212.7988078706
  9
$TDUCREATE
 40
2458532.153996898
  9
$TDUPDATE
 40
2461212.7988078706
  9
$TDUUPDATE
 40
2458532.1544311
  9
$TDINDWG
 40
0.0
  9
$TDUSRTIMER
 40
0.0
  9
$USRTIMER
 70
1
  9
$ANGBASE
 50
0.0
  9
$ANGDIR
 70
0
  9
$PDMODE
 70
0
  9
$PDSIZE
 40
0.0
  9
$PLINEWID
 40
0.0
  9
$SPLFRAME
 70
0
  9
$SPLINETYPE
 70
6
  9
$SPLINESEGS
 70
8
  9
$HANDSEED
  5
AD
  9
$SURFTAB1
 70
6
  9
$SURFTAB2
 70
6
  9
$SURFTYPE
 70
6
  9
$SURFU
 70
6
  9
$SURFV
 70
6
  9
$UCSBASE
  2

  9
$UCSNAME
  2

  9
$UCSORG
 10
0.0
 20
0.0
 30
0.0
  9
$UCSXDIR
 10
1.0
 20
0.0
 30
0.0
  9
$UCSYDIR
 10
0.0
 20
1.0
 30
0.0
  9
$UCSORTHOREF
  2

  9
$UCSORTHOVIEW
 70
0
  9
$UCSORGTOP
 10
0.0
 20
0.0
 30
0.0
  9
$UCSORGBOTTOM
 10
0.0
 20
0.0
 30
0.0
  9
$UCSORGLEFT
 10
0.0
 20
0.0
 30
0.0
  9
$UCSORGRIGHT
 10
0.0
 20
0.0
 30
0.0
  9
$UCSORGFRONT
 10
0.0
 20
0.0
 30
0.0
  9
$UCSORGBACK
 10
0.0
 20
0.0
 30
0.0
  9
$PUCSBASE
  2

  9
$PUCSNAME
  2

  9
$PUCSORG
 10
0.0
 20
0.0
 30
0.0
  9
$PUCSXDIR
 10
1.0
 20
0.0
 30
0.0
  9
$PUCSYDIR
 10
0.0
 20
1.0
 30
0.0
  9
$PUCSORTHOREF
  2

  9
$PUCSORTHOVIEW
 70
0
  9
$PUCSORGTOP
 10
0.0
 20
0.0
 30
0.0
  9
$PUCSORGBOTTOM
 10
0.0
 20
0.0
 30
0.0
  9
$PUCSORGLEFT
 10
0.0
 20
0.0
 30
0.0
  9
$PUCSORGRIGHT
 10
0.0
 20
0.0
 30
0.0
  9
$PUCSORGFRONT
 10
0.0
 20
0.0
 30
0.0
  9
$PUCSORGBACK
 10
0.0
 20
0.0
 30
0.0
  9
$USERI1
 70
0
  9
$USERI2
 70
0
  9
$USERI3
 70
0
  9
$USERI4
 70
0
  9
$USERI5
 70
0
  9
$USERR1
 40
0.0
  9
$USERR2
 40
0.0
  9
$USERR3
 40
0.0
  9
$USERR4
 40
0.0
  9
$USERR5
 40
0.0
  9
$WORLDVIEW
 70
1
  9
$SHADEDGE
 70
3
  9
$SHADEDIF
 70
70
  9
$TILEMODE
 70
1
  9
$MAXACTVP
 70
64
  9
$PINSBASE
 10
0.0
 20
0.0
 30
0.0
  9
$PLIMCHECK
 70
0
  9
$PEXTMIN
 10
1e+20
 20
1e+20
 30
1e+20
  9
$PEXTMAX
 10
-1e+20
 20
-1e+20
 30
-1e+20
  9
$PLIMMIN
 10
0.0
 20
0.0
  9
$PLIMMAX
 10
420.0
 20
297.0
  9
$UNITMODE
 70
0
  9
$VISRETAIN
 70
1
  9
$PLINEGEN
 70
0
  9
$PSLTSCALE
 70
1
  9
$TREEDEPTH
 70
3020
  9
$CMLSTYLE
  2
Standard
  9
$CMLJUST
 70
0
  9
$CMLSCALE
 40
20.0
  9
$PROXYGRAPHICS
 70
1
  9
$MEASUREMENT
 70
1
  9
$CELWEIGHT
370
-1
  9
$ENDCAPS
280
0
  9
$JOINSTYLE
280
0
  9
$LWDISPLAY
290
0
  9
$INSUNITS
 70
6
  9
$HYPERLINKBASE
  1

  9
$STYLESHEET
  1

  9
$XEDIT
290
1
  9
$CEPSNTYPE
380
0
  9
$PSTYLEMODE
290
1
  9
$FINGERPRINTGUID
  2
{2335699C-E73A-4D90-A5F6-EE8CE9768592}
  9
$VERSIONGUID
  2
{B9A960B4-21CF-4BF1-B101-F5586B6383A2}
  9
$EXTNAMES
290
1
  9
$PSVPSCALE
 40
0.0
  9
$OLESTARTUP
290
0
  9
$SORTENTS
280
127
  9
$INDEXCTL
280
0
  9
$HIDETEXT
280
1
  9
$XCLIPFRAME
280
1
  9
$HALOGAP
280
0
  9
$OBSCOLOR
 70
257
  9
$OBSLTYPE
280
0
  9
$INTERSECTIONDISPLAY
280
0
  9
$INTERSECTIONCOLOR
 70
257
  9
$DIMASSOC
280
2
  9
$PROJECTNAME
  1

  9
$CAMERADISPLAY
290
0
  9
$LENSLENGTH
 40
50.0
  9
$CAMERAHEIGHT
 40
0.0
  9
$STEPSPERSEC
 40
24.0
  9
$STEPSIZE
 40
100.0
  9
$3DDWFPREC
 40
2.0
  9
$PSOLWIDTH
 40
0.005
  9
$PSOLHEIGHT
 40
0.08
  9
$LOFTANG1
 40
1.570796326795
  9
$LOFTANG2
 40
1.570796326795
  9
$LOFTMAG1
 40
0.0
  9
$LOFTMAG2
 40
0.0
  9
$LOFTPARAM
 70
7
  9
$LOFTNORMALS
280
1
  9
$LATITUDE
 40
37.795
  9
$LONGITUDE
 40
-122.394
  9
$NORTHDIRECTION
 40
0.0
  9
$TIMEZONE
 70
-8000
  9
$LIGHTGLYPHDISPLAY
280
1
  9
$TILEMODELIGHTSYNCH
280
1
  9
$CMATERIAL
347
20
  9
$SOLIDHIST
280
0
  9
$SHOWHIST
280
1
  9
$DWFFRAME
280
2
  9
$DGNFRAME
280
2
  9
$REALWORLDSCALE
290
1
  9
$INTERFERECOLOR
 62
256
  9
$CSHADOW
280
0
  9
$SHADOWPLANELOCATION
 40
0.0
  0
ENDSEC
  0
SECTION
  2
CLASSES
  0
CLASS
  1
ACDBDICTIONARYWDFLT
  2
AcDbDictionaryWithDefault
  3
ObjectDBX Classes
 90
0
 91
0
280
0
281
0
  0
CLASS
  1
SUN
  2
AcDbSun
  3
SCENEOE
 90
1153
 91
0
280
0
281
0
  0
CLASS
  1
VISUALSTYLE
  2
AcDbVisualStyle
  3
ObjectDBX Classes
 90
4095
 91
0
280
0
281
0
  0
CLASS
  1
MATERIAL
  2
AcDbMaterial
  3
ObjectDBX Classes
 90
1153
 91
0
280
0
281
0
  0
CLASS
  1
SCALE
  2
AcDbScale
  3
ObjectDBX Classes
 90
1153
 91
0
280
0
281
0
  0
CLASS
  1
TABLESTYLE
  2
AcDbTableStyle
  3
ObjectDBX Classes
 90
4095
 91
0
280
0
281
0
  0
CLASS
  1
MLEADERSTYLE
  2
AcDbMLeaderStyle
  3
ACDB_MLEADERSTYLE_CLASS
 90
4095
 91
0
280
0
281
0
  0
CLASS
  1
DICTIONARYVAR
  2
AcDbDictionaryVar
  3
ObjectDBX Classes
 90
0
 91
0
280
0
281
0
  0
CLASS
  1
CELLSTYLEMAP
  2
AcDbCellStyleMap
  3
ObjectDBX Classes
 90
1152
 91
0
280
0
281
0
  0
CLASS
  1
MENTALRAYRENDERSETTINGS
  2
AcDbMentalRayRenderSettings
  3
SCENEOE
 90
1024
 91
0
280
0
281
0
  0
CLASS
  1
ACDBDETAILVIEWSTYLE
  2
AcDbDetailViewStyle
  3
ObjectDBX Classes
 90
1025
 91
0
280
0
281
0
  0
CLASS
  1
ACDBSECTIONVIEWSTYLE
  2
AcDbSectionViewStyle
  3
ObjectDBX Classes
 90
1025
 91
0
280
0
281
0
  0
CLASS
  1
RASTERVARIABLES
  2
AcDbRasterVariables
  3
ISM
 90
0
 91
0
280
0
281
0
  0
CLASS
  1
ACDBPLACEHOLDER
  2
AcDbPlaceHolder
  3
ObjectDBX Classes
 90
0
 91
0
280
0
281
0
  0
CLASS
  1
LAYOUT
  2
AcDbLayout
  3
ObjectDBX Classes
 90
0
 91
0
280
0
281
0
  0
ENDSEC
  0
SECTION
  2
TABLES
  0
TABLE
  2
VPORT
  5
8
330
0
100
AcDbSymbolTable
 70
1
  0
VPORT
  5
23
330
8
100
AcDbSymbolTableRecord
100
AcDbViewportTableRecord
  2
*Active
 70
0
 10
0.0
 20
0.0
 11
1.0
 21
1.0
 12
0.0
 22
0.0
 13
0.0
 23
0.0
 14
0.5
 24
0.5
 15
0.5
 25
0.5
 16
0.0
 26
0.0
 36
1.0
 17
0.0
 27
0.0
 37
0.0
 40
1000.0
 41
1.34
 42
50.0
 43
0.0
 44
0.0
 50
0.0
 51
0.0
 71
0
 72
1000
 73
1
 74
3
 75
0
 76
0
 77
0
 78
0
281
0
 65
0
146
0.0
  0
ENDTAB
  0
TABLE
  2
LTYPE
  5
2
330
0
100
AcDbSymbolTable
 70
3
  0
LTYPE
  5
24
330
2
100
AcDbSymbolTableRecord
100
AcDbLinetypeTableRecord
  2
ByBlock
 70
0
  3

 72
65
 73
0
 40
0.0
  0
LTYPE
  5
25
330
2
100
AcDbSymbolTableRecord
100
AcDbLinetypeTableRecord
  2
ByLayer
 70
0
  3

 72
65
 73
0
 40
0.0
  0
LTYPE
  5
26
330
2
100
AcDbSymbolTableRecord
100
AcDbLinetypeTableRecord
  2
Continuous
 70
0
  3

 72
65
 73
0
 40
0.0
  0
ENDTAB
  0
TABLE
  2
LAYER
  5
1
330
0
100
AcDbSymbolTable
 70
15
  0
LAYER
  5
27
330
1
100
AcDbSymbolTableRecord
100
AcDbLayerTableRecord
  2
0
 70
0
 62
7
  6
Continuous
370
-3
390
13
347
21
  0
LAYER
  5
28
330
1
100
AcDbSymbolTableRecord
100
AcDbLayerTableRecord
  2
Defpoints
 70
0
 62
7
  6
Continuous
290
0
370
-3
390
13
347
21
  0
LAYER
  5
2F
330
1
100
AcDbSymbolTableRecord
100
AcDbLayerTableRecord
  2
Balcony
 70
0
 62
140
  6
Continuous
370
-3
390
13
347
21
  0
LAYER
  5
30
330
1
100
AcDbSymbolTableRecord
100
AcDbLayerTableRecord
  2
Bathroom
 70
0
 62
92
  6
Continuous
370
-3
390
13
347
21
  0
LAYER
  5
31
330
1
100
AcDbSymbolTableRecord
100
AcDbLayerTableRecord
  2
Bedroom
 70
0
 62
50
  6
Continuous
370
-3
390
13
347
21
  0
LAYER
  5
32
330
1
100
AcDbSymbolTableRecord
100
AcDbLayerTableRecord
  2
Corridor
 70
0
 62
30
  6
Continuous
370
-3
390
13
347
21
  0
LAYER
  5
33
330
1
100
AcDbSymbolTableRecord
100
AcDbLayerTableRecord
  2
Dining
 70
0
 62
210
  6
Continuous
370
-3
390
13
347
21
  0
LAYER
  5
34
330
1
100
AcDbSymbolTableRecord
100
AcDbLayerTableRecord
  2
Kitchen
 70
0
 62
10
  6
Continuous
370
-3
390
13
347
21
  0
LAYER
  5
35
330
1
100
AcDbSymbolTableRecord
100
AcDbLayerTableRecord
  2
LivingRoom
 70
0
 62
150
  6
Continuous
370
-3
390
13
347
21
  0
LAYER
  5
36
330
1
100
AcDbSymbolTableRecord
100
AcDbLayerTableRecord
  2
Storeroom
 70
0
 62
8
  6
Continuous
370
-3
390
13
347
21
  0
LAYER
  5
37
330
1
100
AcDbSymbolTableRecord
100
AcDbLayerTableRecord
  2
Other
 70
0
 62
255
  6
Continuous
370
-3
390
13
347
21
  0
LAYER
  5
38
330
1
100
AcDbSymbolTableRecord
100
AcDbLayerTableRecord
  2
Labels
 70
0
 62
7
  6
Continuous
370
-3
390
13
347
21
  0
LAYER
  5
39
330
1
100
AcDbSymbolTableRecord
100
AcDbLayerTableRecord
  2
Graph_nodes
 70
0
 62
5
  6
Continuous
370
-3
390
13
347
21
  0
LAYER
  5
3A
330
1
100
AcDbSymbolTableRecord
100
AcDbLayerTableRecord
  2
Graph_edges_door
 70
0
 62
150
  6
Continuous
370
-3
390
13
347
21
  0
LAYER
  5
3B
330
1
100
AcDbSymbolTableRecord
100
AcDbLayerTableRecord
  2
Graph_edges_entrance
 70
0
 62
10
  6
Continuous
370
-3
390
13
347
21
  0
ENDTAB
  0
TABLE
  2
STYLE
  5
5
330
0
100
AcDbSymbolTable
 70
1
  0
STYLE
  5
29
330
5
100
AcDbSymbolTableRecord
100
AcDbTextStyleTableRecord
  2
Standard
 70
0
 40
0.0
 41
1.0
 50
0.0
 71
0
 42
2.5
  3
txt
  4

  0
ENDTAB
  0
TABLE
  2
VIEW
  5
7
330
0
100
AcDbSymbolTable
 70
0
  0
ENDTAB
  0
TABLE
  2
UCS
  5
6
330
0
100
AcDbSymbolTable
 70
0
  0
ENDTAB
  0
TABLE
  2
APPID
  5
3
330
0
100
AcDbSymbolTable
 70
3
  0
APPID
  5
2A
330
3
100
AcDbSymbolTableRecord
100
AcDbRegAppTableRecord
  2
ACAD
 70
0
  0
APPID
  5
AA
330
3
100
AcDbSymbolTableRecord
100
AcDbRegAppTableRecord
  2
HATCHBACKGROUNDCOLOR
 70
0
  0
APPID
  5
AB
330
3
100
AcDbSymbolTableRecord
100
AcDbRegAppTableRecord
  2
EZDXF
 70
0
  0
ENDTAB
  0
TABLE
  2
DIMSTYLE
  5
4
330
0
100
AcDbSymbolTable
 70
1
100
AcDbDimStyleTable
  0
DIMSTYLE
105
2B
330
4
100
AcDbSymbolTableRecord
100
AcDbDimStyleTableRecord
  2
Standard
 70
0
 40
1.0
 41
2.5
 42
0.625
 43
3.75
 44
1.25
 45
0.0
 46
0.0
 47
0.0
 48
0.0
 49
2.5
140
2.5
141
2.5
142
0.0
143
0.03937007874
144
1.0
145
0.0
146
1.0
147
0.625
148
0.0
 69
0
 70
0
 71
0
 72
0
 73
0
 74
0
 75
0
 76
0
 77
1
 78
8
 79
3
170
0
171
3
172
1
173
0
174
0
175
0
176
0
177
0
178
0
179
2
271
2
272
2
273
2
274
3
275
0
276
0
277
2
278
44
279
0
280
0
281
0
282
0
283
0
284
8
285
0
286
0
288
0
289
3
290
0
371
-2
372
-2
  0
ENDTAB
  0
TABLE
  2
BLOCK_RECORD
  5
9
330
0
100
AcDbSymbolTable
 70
2
  0
BLOCK_RECORD
  5
17
330
9
100
AcDbSymbolTableRecord
100
AcDbBlockTableRecord
  2
*Model_Space
340
1A
 70
0
280
1
281
0
  0
BLOCK_RECORD
  5
1B
330
9
100
AcDbSymbolTableRecord
100
AcDbBlockTableRecord
  2
*Paper_Space
340
1E
 70
0
280
1
281
0
  0
ENDTAB
  0
ENDSEC
  0
SECTION
  2
BLOCKS
  0
BLOCK
  5
18
330
17
100
AcDbEntity
  8
0
100
AcDbBlockBegin
  2
*Model_Space
 70
0
 10
0.0
 20
0.0
 30
0.0
  3
*Model_Space
  1

  0
ENDBLK
  5
19
330
17
100
AcDbEntity
  8
0
100
AcDbBlockEnd
  0
BLOCK
  5
1C
330
1B
100
AcDbEntity
  8
0
100
AcDbBlockBegin
  2
*Paper_Space
 70
0
 10
0.0
 20
0.0
 30
0.0
  3
*Paper_Space
  1

  0
ENDBLK
  5
1D
330
1B
100
AcDbEntity
  8
0
100
AcDbBlockEnd
  0
ENDSEC
  0
SECTION
  2
ENTITIES
  0
LWPOLYLINE
  5
3C
330
17
100
AcDbEntity
  8
Balcony
100
AcDbPolyline
 90
11
 70
1
 10
9.069383705681133
 20
-11.53268583940209
 10
9.570637248569394
 20
-12.180687026501355
 10
6.409327486710097
 20
-14.626080260104292
 10
3.9271034605902386
 20
-11.417157074636554
 10
6.833341310261439
 20
-9.169071658088557
 10
7.567326389705812
 20
-10.117939171428267
 10
7.5741283073641625
 20
-10.112677629640135
 10
8.080643392040557
 20
-10.767480734397754
 10
8.07384147438221
 20
-10.772742276185886
 10
8.81431179349304
 20
-11.72999365645703
 10
9.069383705681133
 20
-11.53268583940209
  0
TEXT
  5
3D
330
17
100
AcDbEntity
  8
Labels
100
AcDbText
 10
6.666653357966737
 20
-11.89789903845956
 30
0.0
 40
0.15
  1
Balcony
 72
1
 11
6.666653357966737
 21
-11.89789903845956
 31
0.0
100
AcDbText
 73
2
  0
LWPOLYLINE
  5
3E
330
17
100
AcDbEntity
  8
Storeroom
100
AcDbPolyline
 90
21
 70
1
 10
7.141170316914163
 20
-6.243061414310063
 10
6.965902407070168
 20
-6.378637802923171
 10
6.0779255427542225
 20
-5.2306956679352385
 10
9.188220922175901
 20
-2.8247639977432843
 10
9.873628427648775
 20
-3.710832302884773
 10
9.707669000222847
 20
-3.839208226616236
 10
9.69871143365511
 20
-3.828036674693255
 10
8.941550038796365
 20
-4.435143336662003
 10
8.939946698898837
 20
-4.43307060087457
 10
8.883949408358966
 20
-4.476386633057942
 10
8.886308832410684
 20
-4.479436805187547
 10
8.865228245974517
 20
-4.496339627426652
 10
8.909514968390265
 20
-4.55157242030903
 10
8.929631462840511
 20
-4.535442625685157
 10
9.218403583975878
 20
-4.908756051498894
 10
8.310290922152124
 20
-5.636898361123949
 10
8.294225134757657
 20
-5.616861694167184
 10
7.322071499550681
 20
-6.396353295824184
 10
7.1775320424141
 20
-6.209498277767846
 10
7.138539546020098
 20
-6.239660455480887
 10
7.141170316914163
 20
-6.243061414310063
  0
TEXT
  5
3F
330
17
100
AcDbEntity
  8
Labels
100
AcDbText
 10
7.986914256741262
 20
-4.718217685658833
 30
0.0
 40
0.15
  1
Storeroom
 72
1
 11
7.986914256741262
 21
-4.718217685658833
 31
0.0
100
AcDbText
 73
2
  0
LWPOLYLINE
  5
40
330
17
100
AcDbEntity
  8
Other
100
AcDbPolyline
 90
13
 70
1
 10
5.3789167072142945
 20
-15.651452478320014
 10
5.091417156007537
 20
-15.873844306437293
 10
2.6249777552520683
 20
-12.6853268739446
 10
2.905675388800475
 20
-12.468196587615454
 10
2.9135677014826733
 20
-12.47839946410298
 10
3.3232647102567086
 20
-12.161483258936753
 10
3.318003168468575
 20
-12.154681341278403
 10
3.79595641410911
 20
-11.784966343093437
 10
6.149272666419744
 20
-14.82724254593162
 10
6.115263078127999
 20
-14.853550254872278
 10
6.220493913890635
 20
-14.989588608039263
 10
5.3736551654261575
 20
-15.644650560661663
 10
5.3789167072142945
 20
-15.651452478320014
  0
TEXT
  5
41
330
17
100
AcDbEntity
  8
Labels
100
AcDbText
 10
4.4398627874045
 20
-13.826486497121367
 30
0.0
 40
0.15
  1
Other
 72
1
 11
4.4398627874045
 21
-13.826486497121367
 31
0.0
100
AcDbText
 73
2
  0
LWPOLYLINE
  5
42
330
17
100
AcDbEntity
  8
Balcony
100
AcDbPolyline
 90
13
 70
1
 10
3.145779362475974
 20
-11.93203706810897
 10
1.0029247816906093
 20
-9.161837571604755
 10
4.703167987832575
 20
-6.29955883886109
 10
4.700537216938507
 20
-6.296157880031915
 10
4.903012797415904
 20
-6.139535324266284
 10
5.456881758185482
 20
-6.8555556879490425
 10
5.198408887168213
 20
-7.055494275898047
 10
6.776871423607734
 20
-9.096069573402806
 10
3.8384429952008787
 20
-11.369055625875719
 10
3.8437045369890086
 20
-11.37585754353407
 10
3.6158402954343103
 20
-11.552119193436482
 10
3.6237326081165087
 20
-11.562322069924004
 10
3.145779362475974
 20
-11.93203706810897
  0
TEXT
  5
43
330
17
100
AcDbEntity
  8
Labels
100
AcDbText
 10
3.910456932990292
 20
-9.08562702281787
 30
0.0
 40
0.15
  1
Balcony
 72
1
 11
3.910456932990292
 21
-9.08562702281787
 31
0.0
100
AcDbText
 73
2
  0
LWPOLYLINE
  5
44
330
17
100
AcDbEntity
  8
Dining
100
AcDbPolyline
 90
10
 70
1
 10
7.341790529060546
 20
-6.995710755215027
 10
7.371997606479663
 20
-7.033383925855416
 10
8.889335223891678
 20
-8.994939292921496
 10
7.870629524412372
 20
-9.78294686326294
 10
5.550289595846277
 20
-6.783301175930944
 10
5.540086719358754
 20
-6.791193488613141
 10
4.986217758589174
 20
-6.075173124930382
 10
6.021928252214348
 20
-5.27401170011861
 10
7.349158193804939
 20
-6.989803219014892
 10
7.341790529060546
 20
-6.995710755215027
  0
TEXT
  5
45
330
17
100
AcDbEntity
  8
Labels
100
AcDbText
 10
6.938860741581594
 20
-7.524711175163666
 30
0.0
 40
0.15
  1
Dining
 72
1
 11
6.938860741581594
 21
-7.524711175163666
 31
0.0
100
AcDbText
 73
2
  0
LWPOLYLINE
  5
46
330
17
100
AcDbEntity
  8
Bedroom
100
AcDbPolyline
 90
13
 70
1
 10
8.58039448109734
 20
-6.072716452645313
 10
8.612585059832988
 20
-6.047815816720403
 10
8.344006240593224
 20
-5.700607510332665
 10
9.261726214405702
 20
-4.964761871996501
 10
9.279788740347165
 20
-4.988112406707213
 10
9.335786030887036
 20
-4.9447963745238415
 10
8.984872669226188
 20
-4.491149157159606
 10
9.708000406999034
 20
-3.911331340195783
 10
11.861773240590274
 20
-6.695645531507925
 10
8.945332514431549
 20
-8.951623260738124
 10
7.427856095344378
 20
-6.989888456236539
 10
8.57707372927296
 20
-6.068423513164305
 10
8.58039448109734
 20
-6.072716452645313
  0
TEXT
  5
47
330
17
100
AcDbEntity
  8
Labels
100
AcDbText
 10
9.607366142958499
 20
-6.568799006844667
 30
0.0
 40
0.15
  1
Bedroom
 72
1
 11
9.607366142958499
 21
-6.568799006844667
 31
0.0
100
AcDbText
 73
2
  0
LWPOLYLINE
  5
48
330
17
100
AcDbEntity
  8
Balcony
100
AcDbPolyline
 90
11
 70
1
 10
7.919207098383879
 20
-9.845746071461164
 10
7.913945556595749
 20
-9.838944153802817
 10
11.905089272773651
 20
-6.751642822047803
 10
13.658589761237266
 20
-9.018500411834177
 10
9.653842209742663
 20
-12.116324827165453
 10
9.152588666854406
 20
-11.468323640066188
 10
9.1661925021711
 20
-11.457800556489927
 10
8.425722183060273
 20
-10.500549176218783
 10
8.16384835321383
 20
-10.703118535061854
 10
7.657333268537435
 20
-10.048315430304235
 10
7.919207098383879
 20
-9.845746071461164
  0
TEXT
  5
49
330
17
100
AcDbEntity
  8
Labels
100
AcDbText
 10
10.733947863232993
 20
-9.446690927238405
 30
0.0
 40
0.15
  1
Balcony
 72
1
 11
10.733947863232993
 21
-9.446690927238405
 31
0.0
100
AcDbText
 73
2
  0
LWPOLYLINE
  5
4A
330
17
100
AcDbEntity
  8
Balcony
100
AcDbPolyline
 90
7
 70
1
 10
-2.4701549661793294
 20
2.8721831801484896
 10
-0.7943539066593672
 20
0.705772405964268
 10
-0.5324800768129236
 20
0.9083417648073393
 10
-0.0285957630305944
 20
0.2569396188788957
 10
-3.941517426137473
 20
-2.7698539823126023
 10
-6.121202799439764
 20
0.0479589378000682
 10
-2.4701549661793294
 20
2.8721831801484896
  0
TEXT
  5
4B
330
17
100
AcDbEntity
  8
Labels
100
AcDbText
 10
-3.1602585208297236
 20
0.058181273584759156
 30
0.0
 40
0.15
  1
Balcony
 72
1
 11
-3.1602585208297236
 21
0.058181273584759156
 31
0.0
100
AcDbText
 73
2
  0
LWPOLYLINE
  5
4C
330
17
100
AcDbEntity
  8
Dining
100
AcDbPolyline
 90
12
 70
1
 10
-0.4424731979813004
 20
0.9779655059313725
 10
-2.802274689958395
 20
4.028625575700993
 10
-1.7631632375040454
 20
4.832417771406831
 10
-0.8646632896118334
 20
3.670871801102191
 10
-0.8714652072701767
 20
3.6656102593140574
 10
-0.4610587692767112
 20
3.135052694612252
 10
-0.4617163569162912
 20
3.1345254281146104
 10
-0.4315092794971847
 20
3.0968522574742394
 10
1.093720650597028
 20
1.1250940139206307
 10
0.0546091981426784
 20
0.321301818214792
 10
-0.4492751156396508
 20
0.9727039641432391
 10
-0.4424731979813004
 20
0.9779655059313725
  0
TEXT
  5
4D
330
17
100
AcDbEntity
  8
Labels
100
AcDbText
 10
-0.8544694090930651
 20
2.578076591797375
 30
0.0
 40
0.15
  1
Dining
 72
1
 11
-0.8544694090930651
 21
2.578076591797375
 31
0.0
100
AcDbText
 73
2
  0
LWPOLYLINE
  5
4E
330
17
100
AcDbEntity
  8
Balcony
100
AcDbPolyline
 90
11
 70
1
 10
-3.8465016537189882
 20
4.658498326803127
 10
-3.8499026125481635
 20
4.655867555909058
 10
-2.526624852833031
 20
2.945185264834233
 10
-6.177672686093466
 20
0.1209610224858082
 10
-8.412604248171142
 20
3.0101940780111462
 10
-4.657945700762383
 20
5.914565145059861
 10
-4.660576471656448
 20
5.917966103889036
 10
-4.519318150104198
 20
6.027234783561486
 10
-4.0627877124150515
 20
5.437049896558179
 10
-4.304255789286451
 20
5.250265163079504
 10
-3.8465016537189882
 20
4.658498326803127
  0
TEXT
  5
4F
330
17
100
AcDbEntity
  8
Labels
100
AcDbText
 10
-5.4551062730107756
 20
3.0139064691552986
 30
0.0
 40
0.15
  1
Balcony
 72
1
 11
-5.4551062730107756
 21
3.0139064691552986
 31
0.0
100
AcDbText
 73
2
  0
LWPOLYLINE
  5
50
330
17
100
AcDbEntity
  8
Bedroom
100
AcDbPolyline
 90
13
 70
1
 10
-0.37565079063247
 20
3.140347727093115
 10
0.7735668432961162
 20
4.061812670165352
 10
0.7768875951204919
 20
4.057519730684348
 10
0.8090781738561432
 20
4.082420366609256
 10
0.5404993546163794
 20
4.429628672996987
 10
1.458219328428843
 20
5.165474311333163
 10
1.4762818543703133
 20
5.142123776622448
 10
1.5322791449101878
 20
5.185439808805818
 10
1.1813657832493405
 20
5.639087026170042
 10
1.8910733668125488
 20
6.208144303728886
 10
4.052554831978927
 20
3.4138646917579365
 10
1.149717941136899
 20
1.1684100461040003
 10
-0.37565079063247
 20
3.140347727093115
  0
TEXT
  5
51
330
17
100
AcDbEntity
  8
Labels
100
AcDbText
 10
1.8007426481326902
 20
3.5487007923790688
 30
0.0
 40
0.15
  1
Bedroom
 72
1
 11
1.8007426481326902
 21
3.5487007923790688
 31
0.0
100
AcDbText
 73
2
  0
LWPOLYLINE
  5
52
330
17
100
AcDbEntity
  8
Other
100
AcDbPolyline
 90
5
 70
1
 10
-7.108267957056846
 20
-1.2972212004081847
 10
-6.249407322548755
 20
-0.6328598620878392
 10
-4.219675890208215
 20
-3.2568181289375584
 10
-5.078536524716306
 20
-3.921179467257904
 10
-7.108267957056846
 20
-1.2972212004081847
  0
TEXT
  5
53
330
17
100
AcDbEntity
  8
Labels
100
AcDbText
 10
-5.6639719236325305
 20
-2.2770196646728715
 30
0.0
 40
0.15
  1
Other
 72
1
 11
-5.6639719236325305
 21
-2.2770196646728715
 31
0.0
100
AcDbText
 73
2
  0
LWPOLYLINE
  5
54
330
17
100
AcDbEntity
  8
Storeroom
100
AcDbPolyline
 90
17
 70
1
 10
1.4148966979990263
 20
5.221480131830759
 10
0.5067840361752758
 20
4.4933378222057065
 10
0.4907182487808086
 20
4.513374489162466
 10
-0.4512400394544969
 20
3.7580941011666944
 10
-0.5716892760535828
 20
3.913806214145829
 10
-0.8165583117541573
 20
3.724390709773086
 10
-1.7071659469641745
 20
4.875733803590201
 10
1.188869026219507
 20
7.115926907456007
 10
1.847750736382725
 20
6.2641501242264965
 10
1.1380431528195203
 20
5.695092846667652
 10
1.1364398129219921
 20
5.6971655824550815
 10
1.0804425223821212
 20
5.653849550271708
 10
1.0828019464338396
 20
5.6507993781421035
 10
1.0617213599976694
 20
5.633896555903004
 10
1.1060080824134175
 20
5.578663763020618
 10
1.126124576863667
 20
5.594793557644493
 10
1.4148966979990263
 20
5.221480131830759
  0
TEXT
  5
55
330
17
100
AcDbEntity
  8
Labels
100
AcDbText
 10
0.11171917590366291
 20
5.322788072910686
 30
0.0
 40
0.15
  1
Storeroom
 72
1
 11
0.11171917590366291
 21
5.322788072910686
 31
0.0
100
AcDbText
 73
2
  0
LWPOLYLINE
  5
56
330
17
100
AcDbEntity
  8
Storeroom
100
AcDbPolyline
 90
17
 70
1
 10
6.581480292037554
 20
0.225137867798729
 10
6.578849521143489
 20
0.2285388266279043
 10
6.71780306067928
 20
0.336024669826692
 10
7.400579795258086
 20
-0.5466426764856251
 10
7.141010747428105
 20
-0.7474291988550306
 10
7.154164601898437
 20
-0.7644339930009032
 10
4.3295497641274245
 20
-2.9493809080913227
 10
3.4494652124936778
 20
-1.811641649590916
 10
3.667126577560854
 20
-1.6432723123706996
 10
3.6566034939845906
 20
-1.6296684770540022
 10
3.660004452813766
 20
-1.6270377061599373
 10
3.5047889700638777
 20
-1.4263811352386373
 10
4.484265112866165
 20
-0.668719117747667
 10
4.4816343419720965
 20
-0.6653181589184882
 10
5.381306482430286
 20
0.030612430130649
 10
5.736460553129177
 20
-0.4285170118079229
 10
6.581480292037554
 20
0.225137867798729
  0
TEXT
  5
57
330
17
100
AcDbEntity
  8
Labels
100
AcDbText
 10
5.28446798436655
 20
-1.2271528820870807
 30
0.0
 40
0.15
  1
Storeroom
 72
1
 11
5.28446798436655
 21
-1.2271528820870807
 31
0.0
100
AcDbText
 73
2
  0
LWPOLYLINE
  5
58
330
17
100
AcDbEntity
  8
Bedroom
100
AcDbPolyline
 90
15
 70
1
 10
6.499171763460183
 20
0.2509729806255692
 10
5.7491418114856785
 20
-0.3292036890846717
 10
5.437303772970161
 20
0.0739284623140222
 10
5.4407047317993324
 20
0.0765592332080871
 10
5.397388699615959
 20
0.1325565237479616
 10
5.393987740786784
 20
0.1299257528538966
 10
5.388726198998654
 20
0.1367276705122435
 10
5.332728908458783
 20
0.0934116383288703
 10
5.337990450246913
 20
0.0866097206705234
 10
4.428115433301201
 20
-0.6172131810608104
 10
4.146622947636153
 20
-0.2533105863391256
 10
2.94948543976669
 20
-1.179341941050314
 10
1.453800498921531
 20
0.7542216834769562
 10
4.3668402662510815
 20
3.007568641813087
 10
6.499171763460183
 20
0.2509729806255692
  0
TEXT
  5
59
330
17
100
AcDbEntity
  8
Labels
100
AcDbText
 10
3.918082891797363
 20
0.811561799292349
 30
0.0
 40
0.15
  1
Bedroom
 72
1
 11
3.918082891797363
 21
0.811561799292349
 31
0.0
100
AcDbText
 73
2
  0
LWPOLYLINE
  5
5A
330
17
100
AcDbEntity
  8
Dining
100
AcDbPolyline
 90
7
 70
1
 10
4.27355247358755
 20
-2.992696940274694
 10
3.2378419799623757
 20
-3.793858365086468
 10
0.368894632414829
 20
-0.0849942317300574
 10
1.3978032083816565
 20
0.7109056512935865
 10
3.373512149825128
 20
-1.8432144294165465
 10
3.380314067483475
 20
-1.8379528876284148
 10
4.27355247358755
 20
-2.992696940274694
  0
TEXT
  5
5B
330
17
100
AcDbEntity
  8
Labels
100
AcDbText
 10
2.320915364540927
 20
-1.5432766702389644
 30
0.0
 40
0.15
  1
Dining
 72
1
 11
2.320915364540927
 21
-1.5432766702389644
 31
0.0
100
AcDbText
 73
2
  0
LWPOLYLINE
  5
5C
330
17
100
AcDbEntity
  8
Balcony
100
AcDbPolyline
 90
13
 70
1
 10
4.736820721146543
 20
-5.917661239031958
 10
4.464744014812574
 20
-6.128122910557227
 10
4.533144058058287
 20
-6.216547840115766
 10
0.8991010189437176
 20
-9.02761822799386
 10
-1.420015211744051
 20
-6.029554489934947
 10
2.2242307038580336
 20
-3.2105917893746554
 10
3.5738161725138227
 20
-4.955283668741226
 10
3.601023843147221
 20
-4.934237501588697
 10
4.042993353350287
 20
-5.505598584890027
 10
4.129599273352735
 20
-5.438605614660062
 10
4.12696850245867
 20
-5.435204655830891
 10
4.275028741669271
 20
-5.320674434370311
 10
4.736820721146543
 20
-5.917661239031958
  0
TEXT
  5
5D
330
17
100
AcDbEntity
  8
Labels
100
AcDbText
 10
1.6041235180730737
 20
-6.112261674419646
 30
0.0
 40
0.15
  1
Balcony
 72
1
 11
1.6041235180730737
 21
-6.112261674419646
 31
0.0
100
AcDbText
 73
2
  0
LWPOLYLINE
  5
5E
330
17
100
AcDbEntity
  8
Balcony
100
AcDbPolyline
 90
7
 70
1
 10
0.7869432141298276
 20
-0.7973576181652309
 10
0.5182674666250335
 20
-1.0051885187964356
 10
2.167760817204332
 20
-3.1375897046889047
 10
-1.4764850983977595
 20
-5.956552405249196
 10
-3.6272319918653224
 20
-3.1761500322574516
 10
0.2856896712415633
 20
-0.1493564310659536
 10
0.7869432141298276
 20
-0.7973576181652309
  0
TEXT
  5
5F
330
17
100
AcDbEntity
  8
Labels
100
AcDbText
 10
-0.7106182780623702
 20
-3.1132944118204144
 30
0.0
 40
0.15
  1
Balcony
 72
1
 11
-0.7106182780623702
 21
-3.1132944118204144
 31
0.0
100
AcDbText
 73
2
  0
LWPOLYLINE
  5
60
330
17
100
AcDbEntity
  8
Other
100
AcDbPolyline
 90
5
 70
1
 10
-3.000227518404273
 20
-6.607936942305834
 10
-5.027328179850741
 20
-3.987379634285297
 10
-4.168467545342651
 20
-3.3230182959649515
 10
-2.1413668838961826
 20
-5.943575603985488
 10
-3.000227518404273
 20
-6.607936942305834
  0
TEXT
  5
61
330
17
100
AcDbEntity
  8
Labels
100
AcDbText
 10
-3.584347531873462
 20
-4.965477619135393
 30
0.0
 40
0.15
  1
Other
 72
1
 11
-3.584347531873462
 21
-4.965477619135393
 31
0.0
100
AcDbText
 73
2
  0
LWPOLYLINE
  5
62
330
17
100
AcDbEntity
  8
Storeroom
100
AcDbPolyline
 90
21
 70
1
 10
-2.015540396160823
 20
9.757868851086698
 10
-2.018171167054895
 20
9.761269809915873
 10
-1.302150803372129
 20
10.315138770685454
 10
-0.6167432978992551
 20
9.429070465543962
 10
-0.7187720627744909
 20
9.350147338721985
 10
-0.7029874374100942
 20
9.329741585746934
 10
-3.4935926868893645
 20
7.171102379597173
 10
-4.415769572828161
 20
8.36325697936438
 10
-4.198108207760988
 20
8.531626316584592
 10
-4.200738978655053
 20
8.535027275413768
 10
-4.197338019825878
 20
8.537658046307833
 10
-4.31572271005885
 20
8.690701193620697
 10
-3.336246567256559
 20
9.448363211111669
 10
-3.338877338150631
 20
9.451764169940837
 10
-2.4187994447173935
 20
10.163479384354371
 10
-2.1174844897781355
 20
9.773951068272371
 10
-2.13789024275318
 20
9.758166442907978
 10
-2.09457421056981
 20
9.702169152368107
 10
-2.074168457594766
 20
9.7179537777325
 10
-2.071537686700694
 20
9.714552818903325
 10
-2.015540396160823
 20
9.757868851086698
  0
TEXT
  5
63
330
17
100
AcDbEntity
  8
Labels
100
AcDbText
 10
-2.6215524872343896
 20
8.845367386243733
 30
0.0
 40
0.15
  1
Storeroom
 72
1
 11
-2.6215524872343896
 21
8.845367386243733
 31
0.0
100
AcDbText
 73
2
  0
LWPOLYLINE
  5
64
330
17
100
AcDbEntity
  8
Balcony
100
AcDbPolyline
 90
13
 70
1
 10
-3.580471040914155
 20
13.126942448307119
 10
-7.517199415825267
 20
10.081733450857158
 10
-7.535614812083722
 20
10.105540162661377
 10
-7.800889600759341
 20
9.900340032924241
 10
-8.275835434706948
 20
10.514331631731771
 10
-8.01736256368968
 20
10.714270219680778
 10
-8.749940570118305
 20
11.66131872346439
 10
-8.756742487776656
 20
11.656057181676257
 10
-9.273780656029324
 20
12.324464121750577
 10
-5.258830228047195
 20
15.430180849764053
 10
-3.6158221171343428
 20
13.306163530803008
 10
-3.680440334888665
 20
13.256178883815757
 10
-3.580471040914155
 20
13.126942448307119
  0
TEXT
  5
65
330
17
100
AcDbEntity
  8
Labels
100
AcDbText
 10
-6.421452102095204
 20
12.710318119716995
 30
0.0
 40
0.15
  1
Balcony
 72
1
 11
-6.421452102095204
 21
12.710318119716995
 31
0.0
100
AcDbText
 73
2
  0
LWPOLYLINE
  5
66
330
17
100
AcDbEntity
  8
Other
100
AcDbPolyline
 90
13
 70
1
 10
-11.3043419079276
 20
5.901963998029636
 10
-11.578237623817664
 20
5.6900952534886216
 10
-14.078877046195991
 20
8.922825150760595
 10
-13.774372700843365
 20
9.158370833348204
 10
-13.769111159055235
 20
9.151568915689854
 10
-12.915470492932407
 20
9.811892410100388
 10
-12.768147322864714
 20
9.62143871566661
 10
-12.75454348754802
 20
9.631961799242873
 10
-10.41964263149584
 20
6.6134923082089045
 10
-11.04541905606397
 20
6.1294304637007855
 10
-11.034895972487696
 20
6.1158266283840845
 10
-11.306972678821673
 20
5.905364956858811
 10
-11.3043419079276
 20
5.901963998029636
  0
TEXT
  5
67
330
17
100
AcDbEntity
  8
Labels
100
AcDbText
 10
-12.245107661012746
 20
7.759971897584098
 30
0.0
 40
0.15
  1
Other
 72
1
 11
-12.245107661012746
 21
7.759971897584098
 31
0.0
100
AcDbText
 73
2
  0
LWPOLYLINE
  5
68
330
17
100
AcDbEntity
  8
Balcony
100
AcDbPolyline
 90
13
 70
1
 10
-10.069478571362318
 20
6.51218370325525
 10
-7.097040554663714
 20
8.811477464668819
 10
-5.473854913025072
 20
6.713085867068088
 10
-5.208580124349453
 20
6.918285996805228
 10
-4.688911185202727
 20
6.246478097901733
 10
-4.91337446792825
 20
6.072847218893386
 10
-4.871282133623204
 20
6.018431877626597
 10
-8.54273571985869
 20
3.1784230099137787
 10
-10.7355749476313
 20
6.013240724172313
 10
-10.247418825503239
 20
6.390848035039475
 10
-10.242157283715109
 20
6.384046117381132
 10
-10.072109342256383
 20
6.515584662084425
 10
-10.069478571362318
 20
6.51218370325525
  0
TEXT
  5
69
330
17
100
AcDbEntity
  8
Labels
100
AcDbText
 10
-7.773929851275703
 20
6.003354409266736
 30
0.0
 40
0.15
  1
Balcony
 72
1
 11
-7.773929851275703
 21
6.003354409266736
 31
0.0
100
AcDbText
 73
2
  0
LWPOLYLINE
  5
6A
330
17
100
AcDbEntity
  8
Balcony
100
AcDbPolyline
 90
9
 70
1
 10
-7.153510441317415
 20
8.884479549354566
 10
-10.073352126305316
 20
6.625871049230305
 10
-12.53189921437859
 20
9.804185605235475
 10
-9.360386576031772
 20
12.257471151520612
 10
-8.843348407779104
 20
11.589064211446292
 10
-9.101821278796372
 20
11.389125623497286
 10
-8.369243272367747
 20
10.442077119713673
 10
-8.362441354709397
 20
10.447338661501803
 10
-7.153510441317415
 20
8.884479549354566
  0
TEXT
  5
6B
330
17
100
AcDbEntity
  8
Labels
100
AcDbText
 10
-9.832505588892662
 20
9.387471121368728
 30
0.0
 40
0.15
  1
Balcony
 72
1
 11
-9.832505588892662
 21
9.387471121368728
 31
0.0
100
AcDbText
 73
2
  0
LWPOLYLINE
  5
6C
330
17
100
AcDbEntity
  8
Bedroom
100
AcDbPolyline
 90
13
 70
1
 10
-2.0614871992382646
 20
9.817267100455744
 10
-2.411379728149022
 20
10.269594624735966
 10
-2.467377018688893
 20
10.226278592552593
 10
-2.462115476900763
 20
10.219476674894242
 10
-3.3923962468215265
 20
9.499869147798513
 10
-3.673888732486567
 20
9.863771742520193
 10
-4.871026240356031
 20
8.937740387809004
 10
-6.371972722989327
 20
10.878105929994629
 10
-3.5371550087307853
 20
13.070945157767248
 10
-3.1583239999853063
 20
12.581207086366106
 10
-3.093705782230984
 20
12.631191733353358
 10
-1.3454668355554986
 20
10.371136061225325
 10
-2.0614871992382646
 20
9.817267100455744
  0
TEXT
  5
6D
330
17
100
AcDbEntity
  8
Labels
100
AcDbText
 10
-3.9226313440442393
 20
10.920418178998425
 30
0.0
 40
0.15
  1
Bedroom
 72
1
 11
-3.9226313440442393
 21
10.920418178998425
 31
0.0
100
AcDbText
 73
2
  0
LWPOLYLINE
  5
6E
330
17
100
AcDbEntity
  8
Dining
100
AcDbPolyline
 90
9
 70
1
 10
-5.121974204347005
 20
6.9852789670351925
 10
-7.473883383641898
 20
10.025736160317287
 10
-6.4279700135291975
 20
10.834789897811255
 10
-4.486461093708591
 20
8.324882281880399
 10
-4.479659176050241
 20
8.330143823668532
 10
-3.5495899774292354
 20
7.1277863474137995
 10
-4.605706224029454
 20
6.3108402972376325
 10
-5.12537516317618
 20
6.9826481961411275
 10
-5.121974204347005
 20
6.9852789670351925
  0
TEXT
  5
6F
330
17
100
AcDbEntity
  8
Labels
100
AcDbText
 10
-5.5116104462957445
 20
8.571219171789192
 30
0.0
 40
0.15
  1
Dining
 72
1
 11
-5.5116104462957445
 21
8.571219171789192
 31
0.0
100
AcDbText
 73
2
  0
LWPOLYLINE
  5
70
330
17
100
AcDbEntity
  8
Dining
100
AcDbPolyline
 90
11
 70
1
 10
4.820025682319812
 20
-5.85329903969606
 10
4.307025357976968
 20
-5.1901120680070125
 10
4.293421522660271
 20
-5.200635151583274
 10
4.288159980872138
 20
-5.193833233924924
 10
4.070498615804965
 20
-5.36220257114514
 10
3.687629763149669
 20
-4.8672445313587325
 10
3.9256968811918895
 20
-4.683090568774123
 10
3.407435015060912
 20
-4.013101679426729
 10
7.323757636996973
 20
-0.9836773073411642
 10
8.74315022191422
 20
-2.8186131258223632
 10
4.820025682319812
 20
-5.85329903969606
  0
TEXT
  5
71
330
17
100
AcDbEntity
  8
Labels
100
AcDbText
 10
6.0408386695144864
 20
-3.44309442980357
 30
0.0
 40
0.15
  1
Dining
 72
1
 11
6.0408386695144864
 21
-3.44309442980357
 31
0.0
100
AcDbText
 73
2
  0
LWPOLYLINE
  5
72
330
17
100
AcDbEntity
  8
Dining
100
AcDbPolyline
 90
11
 70
1
 10
0.9070443497582161
 20
7.248354782292079
 10
-2.971867725056917
 20
4.247868890041239
 10
-3.4980219038700966
 20
4.928060655876159
 10
-3.7224851865956197
 20
4.754429776867816
 10
-4.115877122827186
 20
5.262991651970928
 10
-3.9594330166851535
 20
5.384007113097958
 10
-3.9646945584732833
 20
5.390809030756305
 10
-3.9204820936940123
 20
5.42500905237916
 10
-4.436113188930925
 20
6.091596982897386
 10
-0.5333944023115649
 20
9.110498271406687
 10
0.9070443497582161
 20
7.248354782292079
  0
TEXT
  5
73
330
17
100
AcDbEntity
  8
Labels
100
AcDbText
 10
-1.7898671922222835
 20
6.652552586135301
 30
0.0
 40
0.15
  1
Dining
 72
1
 11
-1.7898671922222835
 21
6.652552586135301
 31
0.0
100
AcDbText
 73
2
  0
CIRCLE
  5
74
330
17
100
AcDbEntity
  8
Graph_nodes
100
AcDbCircle
 10
6.666653357966737
 20
-11.89789903845956
 30
0.0
 40
0.08
  0
CIRCLE
  5
75
330
17
100
AcDbEntity
  8
Graph_nodes
100
AcDbCircle
 10
7.986914256741262
 20
-4.718217685658833
 30
0.0
 40
0.08
  0
CIRCLE
  5
76
330
17
100
AcDbEntity
  8
Graph_nodes
100
AcDbCircle
 10
4.4398627874045
 20
-13.826486497121367
 30
0.0
 40
0.08
  0
CIRCLE
  5
77
330
17
100
AcDbEntity
  8
Graph_nodes
100
AcDbCircle
 10
3.910456932990292
 20
-9.08562702281787
 30
0.0
 40
0.08
  0
CIRCLE
  5
78
330
17
100
AcDbEntity
  8
Graph_nodes
100
AcDbCircle
 10
6.938860741581594
 20
-7.524711175163666
 30
0.0
 40
0.08
  0
CIRCLE
  5
79
330
17
100
AcDbEntity
  8
Graph_nodes
100
AcDbCircle
 10
9.607366142958499
 20
-6.568799006844667
 30
0.0
 40
0.08
  0
CIRCLE
  5
7A
330
17
100
AcDbEntity
  8
Graph_nodes
100
AcDbCircle
 10
10.733947863232993
 20
-9.446690927238405
 30
0.0
 40
0.08
  0
CIRCLE
  5
7B
330
17
100
AcDbEntity
  8
Graph_nodes
100
AcDbCircle
 10
-3.1602585208297236
 20
0.058181273584759156
 30
0.0
 40
0.08
  0
CIRCLE
  5
7C
330
17
100
AcDbEntity
  8
Graph_nodes
100
AcDbCircle
 10
-0.8544694090930651
 20
2.578076591797375
 30
0.0
 40
0.08
  0
CIRCLE
  5
7D
330
17
100
AcDbEntity
  8
Graph_nodes
100
AcDbCircle
 10
-5.4551062730107756
 20
3.0139064691552986
 30
0.0
 40
0.08
  0
CIRCLE
  5
7E
330
17
100
AcDbEntity
  8
Graph_nodes
100
AcDbCircle
 10
1.8007426481326902
 20
3.5487007923790688
 30
0.0
 40
0.08
  0
CIRCLE
  5
7F
330
17
100
AcDbEntity
  8
Graph_nodes
100
AcDbCircle
 10
-5.6639719236325305
 20
-2.2770196646728715
 30
0.0
 40
0.08
  0
CIRCLE
  5
80
330
17
100
AcDbEntity
  8
Graph_nodes
100
AcDbCircle
 10
0.11171917590366291
 20
5.322788072910686
 30
0.0
 40
0.08
  0
CIRCLE
  5
81
330
17
100
AcDbEntity
  8
Graph_nodes
100
AcDbCircle
 10
5.28446798436655
 20
-1.2271528820870807
 30
0.0
 40
0.08
  0
CIRCLE
  5
82
330
17
100
AcDbEntity
  8
Graph_nodes
100
AcDbCircle
 10
3.918082891797363
 20
0.811561799292349
 30
0.0
 40
0.08
  0
CIRCLE
  5
83
330
17
100
AcDbEntity
  8
Graph_nodes
100
AcDbCircle
 10
2.320915364540927
 20
-1.5432766702389644
 30
0.0
 40
0.08
  0
CIRCLE
  5
84
330
17
100
AcDbEntity
  8
Graph_nodes
100
AcDbCircle
 10
1.6041235180730737
 20
-6.112261674419646
 30
0.0
 40
0.08
  0
CIRCLE
  5
85
330
17
100
AcDbEntity
  8
Graph_nodes
100
AcDbCircle
 10
-0.7106182780623702
 20
-3.1132944118204144
 30
0.0
 40
0.08
  0
CIRCLE
  5
86
330
17
100
AcDbEntity
  8
Graph_nodes
100
AcDbCircle
 10
-3.584347531873462
 20
-4.965477619135393
 30
0.0
 40
0.08
  0
CIRCLE
  5
87
330
17
100
AcDbEntity
  8
Graph_nodes
100
AcDbCircle
 10
-2.6215524872343896
 20
8.845367386243733
 30
0.0
 40
0.08
  0
CIRCLE
  5
88
330
17
100
AcDbEntity
  8
Graph_nodes
100
AcDbCircle
 10
-6.421452102095204
 20
12.710318119716995
 30
0.0
 40
0.08
  0
CIRCLE
  5
89
330
17
100
AcDbEntity
  8
Graph_nodes
100
AcDbCircle
 10
-12.245107661012746
 20
7.759971897584098
 30
0.0
 40
0.08
  0
CIRCLE
  5
8A
330
17
100
AcDbEntity
  8
Graph_nodes
100
AcDbCircle
 10
-7.773929851275703
 20
6.003354409266736
 30
0.0
 40
0.08
  0
CIRCLE
  5
8B
330
17
100
AcDbEntity
  8
Graph_nodes
100
AcDbCircle
 10
-9.832505588892662
 20
9.387471121368728
 30
0.0
 40
0.08
  0
CIRCLE
  5
8C
330
17
100
AcDbEntity
  8
Graph_nodes
100
AcDbCircle
 10
-3.9226313440442393
 20
10.920418178998425
 30
0.0
 40
0.08
  0
CIRCLE
  5
8D
330
17
100
AcDbEntity
  8
Graph_nodes
100
AcDbCircle
 10
-5.5116104462957445
 20
8.571219171789192
 30
0.0
 40
0.08
  0
CIRCLE
  5
8E
330
17
100
AcDbEntity
  8
Graph_nodes
100
AcDbCircle
 10
6.0408386695144864
 20
-3.44309442980357
 30
0.0
 40
0.08
  0
CIRCLE
  5
8F
330
17
100
AcDbEntity
  8
Graph_nodes
100
AcDbCircle
 10
-1.7898671922222835
 20
6.652552586135301
 30
0.0
 40
0.08
  0
LINE
  5
90
330
17
100
AcDbEntity
  8
Graph_edges_door
100
AcDbLine
 10
6.666653357966737
 20
-11.89789903845956
 30
0.0
 11
4.4398627874045
 21
-13.826486497121367
 31
0.0
  0
LINE
  5
91
330
17
100
AcDbEntity
  8
Graph_edges_door
100
AcDbLine
 10
6.666653357966737
 20
-11.89789903845956
 30
0.0
 11
6.938860741581594
 21
-7.524711175163666
 31
0.0
  0
LINE
  5
92
330
17
100
AcDbEntity
  8
Graph_edges_door
100
AcDbLine
 10
7.986914256741262
 20
-4.718217685658833
 30
0.0
 11
6.938860741581594
 21
-7.524711175163666
 31
0.0
  0
LINE
  5
93
330
17
100
AcDbEntity
  8
Graph_edges_door
100
AcDbLine
 10
3.910456932990292
 20
-9.08562702281787
 30
0.0
 11
6.938860741581594
 21
-7.524711175163666
 31
0.0
  0
LINE
  5
94
330
17
100
AcDbEntity
  8
Graph_edges_door
100
AcDbLine
 10
6.938860741581594
 20
-7.524711175163666
 30
0.0
 11
9.607366142958499
 21
-6.568799006844667
 31
0.0
  0
LINE
  5
95
330
17
100
AcDbEntity
  8
Graph_edges_door
100
AcDbLine
 10
6.938860741581594
 20
-7.524711175163666
 30
0.0
 11
10.733947863232993
 21
-9.446690927238405
 31
0.0
  0
LINE
  5
96
330
17
100
AcDbEntity
  8
Graph_edges_entrance
100
AcDbLine
 10
6.938860741581594
 20
-7.524711175163666
 30
0.0
 11
6.0408386695144864
 21
-3.44309442980357
 31
0.0
  0
LINE
  5
97
330
17
100
AcDbEntity
  8
Graph_edges_door
100
AcDbLine
 10
-3.1602585208297236
 20
0.058181273584759156
 30
0.0
 11
-0.8544694090930651
 21
2.578076591797375
 31
0.0
  0
LINE
  5
98
330
17
100
AcDbEntity
  8
Graph_edges_door
100
AcDbLine
 10
-3.1602585208297236
 20
0.058181273584759156
 30
0.0
 11
-5.6639719236325305
 21
-2.2770196646728715
 31
0.0
  0
LINE
  5
99
330
17
100
AcDbEntity
  8
Graph_edges_door
100
AcDbLine
 10
-0.8544694090930651
 20
2.578076591797375
 30
0.0
 11
-5.4551062730107756
 21
3.0139064691552986
 31
0.0
  0
LINE
  5
9A
330
17
100
AcDbEntity
  8
Graph_edges_door
100
AcDbLine
 10
-0.8544694090930651
 20
2.578076591797375
 30
0.0
 11
1.8007426481326902
 21
3.5487007923790688
 31
0.0
  0
LINE
  5
9B
330
17
100
AcDbEntity
  8
Graph_edges_door
100
AcDbLine
 10
-0.8544694090930651
 20
2.578076591797375
 30
0.0
 11
0.11171917590366291
 21
5.322788072910686
 31
0.0
  0
LINE
  5
9C
330
17
100
AcDbEntity
  8
Graph_edges_entrance
100
AcDbLine
 10
-0.8544694090930651
 20
2.578076591797375
 30
0.0
 11
-1.7898671922222835
 21
6.652552586135301
 31
0.0
  0
LINE
  5
9D
330
17
100
AcDbEntity
  8
Graph_edges_door
100
AcDbLine
 10
5.28446798436655
 20
-1.2271528820870807
 30
0.0
 11
2.320915364540927
 21
-1.5432766702389644
 31
0.0
  0
LINE
  5
9E
330
17
100
AcDbEntity
  8
Graph_edges_door
100
AcDbLine
 10
3.918082891797363
 20
0.811561799292349
 30
0.0
 11
2.320915364540927
 21
-1.5432766702389644
 31
0.0
  0
LINE
  5
9F
330
17
100
AcDbEntity
  8
Graph_edges_door
100
AcDbLine
 10
2.320915364540927
 20
-1.5432766702389644
 30
0.0
 11
1.6041235180730737
 21
-6.112261674419646
 31
0.0
  0
LINE
  5
A0
330
17
100
AcDbEntity
  8
Graph_edges_door
100
AcDbLine
 10
2.320915364540927
 20
-1.5432766702389644
 30
0.0
 11
-0.7106182780623702
 21
-3.1132944118204144
 31
0.0
  0
LINE
  5
A1
330
17
100
AcDbEntity
  8
Graph_edges_entrance
100
AcDbLine
 10
2.320915364540927
 20
-1.5432766702389644
 30
0.0
 11
6.0408386695144864
 21
-3.44309442980357
 31
0.0
  0
LINE
  5
A2
330
17
100
AcDbEntity
  8
Graph_edges_door
100
AcDbLine
 10
-0.7106182780623702
 20
-3.1132944118204144
 30
0.0
 11
-3.584347531873462
 21
-4.965477619135393
 31
0.0
  0
LINE
  5
A3
330
17
100
AcDbEntity
  8
Graph_edges_door
100
AcDbLine
 10
-2.6215524872343896
 20
8.845367386243733
 30
0.0
 11
-5.5116104462957445
 21
8.571219171789192
 31
0.0
  0
LINE
  5
A4
330
17
100
AcDbEntity
  8
Graph_edges_door
100
AcDbLine
 10
-6.421452102095204
 20
12.710318119716995
 30
0.0
 11
-5.5116104462957445
 21
8.571219171789192
 31
0.0
  0
LINE
  5
A5
330
17
100
AcDbEntity
  8
Graph_edges_door
100
AcDbLine
 10
-12.245107661012746
 20
7.759971897584098
 30
0.0
 11
-9.832505588892662
 21
9.387471121368728
 31
0.0
  0
LINE
  5
A6
330
17
100
AcDbEntity
  8
Graph_edges_door
100
AcDbLine
 10
-7.773929851275703
 20
6.003354409266736
 30
0.0
 11
-5.5116104462957445
 21
8.571219171789192
 31
0.0
  0
LINE
  5
A7
330
17
100
AcDbEntity
  8
Graph_edges_door
100
AcDbLine
 10
-9.832505588892662
 20
9.387471121368728
 30
0.0
 11
-5.5116104462957445
 21
8.571219171789192
 31
0.0
  0
LINE
  5
A8
330
17
100
AcDbEntity
  8
Graph_edges_door
100
AcDbLine
 10
-3.9226313440442393
 20
10.920418178998425
 30
0.0
 11
-5.5116104462957445
 21
8.571219171789192
 31
0.0
  0
LINE
  5
A9
330
17
100
AcDbEntity
  8
Graph_edges_entrance
100
AcDbLine
 10
-5.5116104462957445
 20
8.571219171789192
 30
0.0
 11
-1.7898671922222835
 21
6.652552586135301
 31
0.0
  0
ENDSEC
  0
SECTION
  2
OBJECTS
  0
DICTIONARY
  5
A
330
0
100
AcDbDictionary
281
1
  3
ACAD_COLOR
350
B
  3
ACAD_GROUP
350
C
  3
ACAD_LAYOUT
350
D
  3
ACAD_MATERIAL
350
E
  3
ACAD_MLEADERSTYLE
350
F
  3
ACAD_MLINESTYLE
350
10
  3
ACAD_PLOTSETTINGS
350
11
  3
ACAD_PLOTSTYLENAME
350
12
  3
ACAD_SCALELIST
350
14
  3
ACAD_TABLESTYLE
350
15
  3
ACAD_VISUALSTYLE
350
16
  3
EZDXF_META
350
2D
  0
DICTIONARY
  5
B
330
A
100
AcDbDictionary
281
1
  0
DICTIONARY
  5
C
330
A
100
AcDbDictionary
281
1
  0
DICTIONARY
  5
D
330
A
100
AcDbDictionary
281
1
  3
Model
350
1A
  3
Layout1
350
1E
  0
DICTIONARY
  5
E
330
A
100
AcDbDictionary
281
1
  3
ByBlock
350
1F
  3
ByLayer
350
20
  3
Global
350
21
  0
DICTIONARY
  5
F
330
A
100
AcDbDictionary
281
1
  3
Standard
350
2C
  0
DICTIONARY
  5
10
330
A
100
AcDbDictionary
281
1
  3
Standard
350
22
  0
DICTIONARY
  5
11
330
A
100
AcDbDictionary
281
1
  0
ACDBDICTIONARYWDFLT
  5
12
330
A
100
AcDbDictionary
281
1
  3
Normal
350
13
100
AcDbDictionaryWithDefault
340
13
  0
ACDBPLACEHOLDER
  5
13
330
12
  0
DICTIONARY
  5
14
330
A
100
AcDbDictionary
281
1
  0
DICTIONARY
  5
15
330
A
100
AcDbDictionary
281
1
  0
DICTIONARY
  5
16
330
A
100
AcDbDictionary
281
1
  0
LAYOUT
  5
1A
330
D
100
AcDbPlotSettings
  1

  4
A3
  6

 40
7.5
 41
20.0
 42
7.5
 43
20.0
 44
420.0
 45
297.0
 46
0.0
 47
0.0
 48
0.0
 49
0.0
140
0.0
141
0.0
142
1.0
143
1.0
 70
1024
 72
1
 73
0
 74
5
  7

 75
16
 76
0
 77
2
 78
300
147
1.0
148
0.0
149
0.0
100
AcDbLayout
  1
Model
 70
1
 71
0
 10
0.0
 20
0.0
 11
420.0
 21
297.0
 12
0.0
 22
0.0
 32
0.0
 14
1e+20
 24
1e+20
 34
1e+20
 15
-1e+20
 25
-1e+20
 35
-1e+20
146
0.0
 13
0.0
 23
0.0
 33
0.0
 16
1.0
 26
0.0
 36
0.0
 17
0.0
 27
1.0
 37
0.0
 76
1
330
17
  0
LAYOUT
  5
1E
330
D
100
AcDbPlotSettings
  1

  4
A3
  6

 40
7.5
 41
20.0
 42
7.5
 43
20.0
 44
420.0
 45
297.0
 46
0.0
 47
0.0
 48
0.0
 49
0.0
140
0.0
141
0.0
142
1.0
143
1.0
 70
0
 72
1
 73
0
 74
5
  7

 75
16
 76
0
 77
2
 78
300
147
1.0
148
0.0
149
0.0
100
AcDbLayout
  1
Layout1
 70
1
 71
1
 10
0.0
 20
0.0
 11
420.0
 21
297.0
 12
0.0
 22
0.0
 32
0.0
 14
1e+20
 24
1e+20
 34
1e+20
 15
-1e+20
 25
-1e+20
 35
-1e+20
146
0.0
 13
0.0
 23
0.0
 33
0.0
 16
1.0
 26
0.0
 36
0.0
 17
0.0
 27
1.0
 37
0.0
 76
1
330
1B
  0
MATERIAL
  5
1F
102
{ACAD_REACTORS
330
E
102
}
330
E
100
AcDbMaterial
  1
ByBlock
  2

 70
0
 40
1.0
 71
1
 41
1.0
 91
-1023410177
 42
1.0
 72
1
  3

 73
1
 74
1
 75
1
 44
0.5
 73
0
 45
1.0
 46
1.0
 77
1
  4

 78
1
 79
1
170
1
 48
1.0
171
1
  6

172
1
173
1
174
1
140
1.0
141
1.0
175
1
  7

176
1
177
1
178
1
143
1.0
179
1
  8

270
1
271
1
272
1
145
1.0
146
1.0
273
1
  9

274
1
275
1
276
1
 42
1.0
 72
1
  3

 73
1
 74
1
 75
1
 94
63
  0
MATERIAL
  5
20
102
{ACAD_REACTORS
330
E
102
}
330
E
100
AcDbMaterial
  1
ByLayer
  2

 70
0
 40
1.0
 71
1
 41
1.0
 91
-1023410177
 42
1.0
 72
1
  3

 73
1
 74
1
 75
1
 44
0.5
 73
0
 45
1.0
 46
1.0
 77
1
  4

 78
1
 79
1
170
1
 48
1.0
171
1
  6

172
1
173
1
174
1
140
1.0
141
1.0
175
1
  7

176
1
177
1
178
1
143
1.0
179
1
  8

270
1
271
1
272
1
145
1.0
146
1.0
273
1
  9

274
1
275
1
276
1
 42
1.0
 72
1
  3

 73
1
 74
1
 75
1
 94
63
  0
MATERIAL
  5
21
102
{ACAD_REACTORS
330
E
102
}
330
E
100
AcDbMaterial
  1
Global
  2

 70
0
 40
1.0
 71
1
 41
1.0
 91
-1023410177
 42
1.0
 72
1
  3

 73
1
 74
1
 75
1
 44
0.5
 73
0
 45
1.0
 46
1.0
 77
1
  4

 78
1
 79
1
170
1
 48
1.0
171
1
  6

172
1
173
1
174
1
140
1.0
141
1.0
175
1
  7

176
1
177
1
178
1
143
1.0
179
1
  8

270
1
271
1
272
1
145
1.0
146
1.0
273
1
  9

274
1
275
1
276
1
 42
1.0
 72
1
  3

 73
1
 74
1
 75
1
 94
63
  0
MLINESTYLE
  5
22
102
{ACAD_REACTORS
330
10
102
}
330
10
100
AcDbMlineStyle
  2
Standard
 70
0
  3

 62
256
 51
90.0
 52
90.0
 71
2
 49
0.5
 62
256
  6
BYLAYER
 49
-0.5
 62
256
  6
BYLAYER
  0
MLEADERSTYLE
  5
2C
102
{ACAD_REACTORS
330
F
102
}
330
F
100
AcDbMLeaderStyle
179
2
170
2
171
1
172
0
 90
2
 40
0.0
 41
0.0
173
1
 91
-1056964608
 92
-2
290
1
 42
2.0
291
1
 43
8.0
  3
Standard
 44
4.0
300

342
29
174
1
175
1
176
0
178
1
 93
-1056964608
 45
4.0
292
0
297
0
 46
4.0
 94
-1056964608
 47
1.0
 49
1.0
140
1.0
294
1
141
0.0
177
0
142
1.0
295
0
296
0
143
3.75
271
0
272
9
273
9
  0
DICTIONARY
  5
2D
330
A
100
AcDbDictionary
280
1
281
1
  3
CREATED_BY_EZDXF
350
2E
  3
WRITTEN_BY_EZDXF
350
AC
  0
DICTIONARYVAR
  5
2E
330
2D
100
DictionaryVariables
280
0
  1
1.4.4 @ 2026-06-20T16:10:17.359862+00:00
  0
DICTIONARYVAR
  5
AC
330
2D
100
DictionaryVariables
280
0
  1
1.4.4 @ 2026-06-20T16:10:17.368373+00:00
  0
ENDSEC
  0
EOF
