  0
SECTION
  2
HEADER
  9
$ACADVER
  1
AC1024
  9
$ACADMAINTVER
 70
6
  9
$DWGCODEPAGE
  3
ANSI_1252
  9
$LASTSAVEDBY
  1
ezdxf
  9
$INSBASE
 10
0.0
 20
0.0
 30
0.0
  9
$EXTMIN
 10
1e+20
 20
1e+20
 30
1e+20
  9
$EXTMAX
 10
-1e+20
 20
-1e+20
 30
-1e+20
  9
$LIMMIN
 10
0.0
 20
0.0
  9
$LIMMAX
 10
420.0
 20
297.0
  9
$ORTHOMODE
 70
0
  9
$REGENMODE
 70
1
  9
$FILLMODE
 70
1
  9
$QTEXTMODE
 70
0
  9
$MIRRTEXT
 70
1
  9
$LTSCALE
 40
1.0
  9
$ATTMODE
 70
1
  9
$TEXTSIZE
 40
2.5
  9
$TRACEWID
 40
1.0
  9
$TEXTSTYLE
  7
Standard
  9
$CLAYER
  8
0
  9
$CELTYPE
  6
ByLayer
  9
$CECOLOR
 62
256
  9
$CELTSCALE
 40
1.0
  9
$DISPSILH
 70
0
  9
$DIMSCALE
 40
1.0
  9
$DIMASZ
 40
2.5
  9
$DIMEXO
 40
0.625
  9
$DIMDLI
 40
3.75
  9
$DIMRND
 40
0.0
  9
$DIMDLE
 40
0.0
  9
$DIMEXE
 40
1.25
  9
$DIMTP
 40
0.0
  9
$DIMTM
 40
0.0
  9
$DIMTXT
 40
2.5
  9
$DIMCEN
 40
2.5
  9
$DIMTSZ
 40
0.0
  9
$DIMTOL
 70
0
  9
$DIMLIM
 70
0
  9
$DIMTIH
 70
0
  9
$DIMTOH
 70
0
  9
$DIMSE1
 70
0
  9
$DIMSE2
 70
0
  9
$DIMTAD
 70
1
  9
$DIMZIN
 70
8
  9
$DIMBLK
  1

  9
$DIMASO
 70
1
  9
$DIMSHO
 70
1
  9
$DIMPOST
  1

  9
$DIMAPOST
  1

  9
$DIMALT
 70
0
  9
$DIMALTD
 70
3
  9
$DIMALTF
 40
0.03937007874
  9
$DIMLFAC
 40
1.0
  9
$DIMTOFL
 70
1
  9
$DIMTVP
 40
0.0
  9
$DIMTIX
 70
0
  9
$DIMSOXD
 70
0
  9
$DIMSAH
 70
0
  9
$DIMBLK1
  1

  9
$DIMBLK2
  1

  9
$DIMSTYLE
  2
ISO-25
  9
$DIMCLRD
 70
0
  9
$DIMCLRE
 70
0
  9
$DIMCLRT
 70
0
  9
$DIMTFAC
 40
1.0
  9
$DIMGAP
 40
0.625
  9
$DIMJUST
 70
0
  9
$DIMSD1
 70
0
  9
$DIMSD2
 70
0
  9
$DIMTOLJ
 70
0
  9
$DIMTZIN
 70
8
  9
$DIMALTZ
 70
0
  9
$DIMALTTZ
 70
0
  9
$DIMUPT
 70
0
  9
$DIMDEC
 70
2
  9
$DIMTDEC
 70
2
  9
$DIMALTU
 70
2
  9
$DIMALTTD
 70
3
  9
$DIMTXSTY
  7
Standard
  9
$DIMAUNIT
 70
0
  9
$DIMADEC
 70
0
  9
$DIMALTRND
 40
0.0
  9
$DIMAZIN
 70
0
  9
$DIMDSEP
 70
44
  9
$DIMATFIT
 70
3
  9
$DIMFRAC
 70
0
  9
$DIMLDRBLK
  1

  9
$DIMLUNIT
 70
2
  9
$DIMLWD
 70
-2
  9
$DIMLWE
 70
-2
  9
$DIMTMOVE
 70
0
  9
$DIMFXL
 40
1.0
  9
$DIMFXLON
 70
0
  9
$DIMJOGANG
 40
0.785398163397
  9
$DIMTFILL
 70
0
  9
$DIMTFILLCLR
 70
0
  9
$DIMARCSYM
 70
0
  9
$DIMLTYPE
  6

  9
$DIMLTEX1
  6

  9
$DIMLTEX2
  6

  9
$DIMTXTDIRECTION
 70
0
  9
$LUNITS
 70
2
  9
$LUPREC
 70
4
  9
$SKETCHINC
 40
1.0
  9
$FILLETRAD
 40
10.0
  9
$AUNITS
 70
0
  9
$AUPREC
 70
2
  9
$MENU
  1
.
  9
$ELEVATION
 40
0.0
  9
$PELEVATION
 40
0.0
  9
$THICKNESS
 40
0.0
  9
$LIMCHECK
 70
0
  9
$CHAMFERA
 40
0.0
  9
$CHAMFERB
 40
0.0
  9
$CHAMFERC
 40
0.0
  9
$CHAMFERD
 40
0.0
  9
$SKPOLY
 70
0
  9
$TDCREATE
 40
2461212.798912037
  9
$TDUCREATE
 40
2458532.153996898
  9
$TDUPDATE
 40
2461212.798912037
  9
$TDUUPDATE
 40
2458532.1544311
  9
$TDINDWG
 40
0.0
  9
$TDUSRTIMER
 40
0.0
  9
$USRTIMER
 70
1
  9
$ANGBASE
 50
0.0
  9
$ANGDIR
 70
0
  9
$PDMODE
 70
0
  9
$PDSIZE
 40
0.0
  9
$PLINEWID
 40
0.0
  9
$SPLFRAME
 70
0
  9
$SPLINETYPE
 70
6
  9
$SPLINESEGS
 70
8
  9
$HANDSEED
  5
E1
  9
$SURFTAB1
 70
6
  9
$SURFTAB2
 70
6
  9
$SURFTYPE
 70
6
  9
$SURFU
 70
6
  9
$SURFV
 70
6
  9
$UCSBASE
  2

  9
$UCSNAME
  2

  9
$UCSORG
 10
0.0
 20
0.0
 30
0.0
  9
$UCSXDIR
 10
1.0
 20
0.0
 30
0.0
  9
$UCSYDIR
 10
0.0
 20
1.0
 30
0.0
  9
$UCSORTHOREF
  2

  9
$UCSORTHOVIEW
 70
0
  9
$UCSORGTOP
 10
0.0
 20
0.0
 30
0.0
  9
$UCSORGBOTTOM
 10
0.0
 20
0.0
 30
0.0
  9
$UCSORGLEFT
 10
0.0
 20
0.0
 30
0.0
  9
$UCSORGRIGHT
 10
0.0
 20
0.0
 30
0.0
  9
$UCSORGFRONT
 10
0.0
 20
0.0
 30
0.0
  9
$UCSORGBACK
 10
0.0
 20
0.0
 30
0.0
  9
$PUCSBASE
  2

  9
$PUCSNAME
  2

  9
$PUCSORG
 10
0.0
 20
0.0
 30
0.0
  9
$PUCSXDIR
 10
1.0
 20
0.0
 30
0.0
  9
$PUCSYDIR
 10
0.0
 20
1.0
 30
0.0
  9
$PUCSORTHOREF
  2

  9
$PUCSORTHOVIEW
 70
0
  9
$PUCSORGTOP
 10
0.0
 20
0.0
 30
0.0
  9
$PUCSORGBOTTOM
 10
0.0
 20
0.0
 30
0.0
  9
$PUCSORGLEFT
 10
0.0
 20
0.0
 30
0.0
  9
$PUCSORGRIGHT
 10
0.0
 20
0.0
 30
0.0
  9
$PUCSORGFRONT
 10
0.0
 20
0.0
 30
0.0
  9
$PUCSORGBACK
 10
0.0
 20
0.0
 30
0.0
  9
$USERI1
 70
0
  9
$USERI2
 70
0
  9
$USERI3
 70
0
  9
$USERI4
 70
0
  9
$USERI5
 70
0
  9
$USERR1
 40
0.0
  9
$USERR2
 40
0.0
  9
$USERR3
 40
0.0
  9
$USERR4
 40
0.0
  9
$USERR5
 40
0.0
  9
$WORLDVIEW
 70
1
  9
$SHADEDGE
 70
3
  9
$SHADEDIF
 70
70
  9
$TILEMODE
 70
1
  9
$MAXACTVP
 70
64
  9
$PINSBASE
 10
0.0
 20
0.0
 30
0.0
  9
$PLIMCHECK
 70
0
  9
$PEXTMIN
 10
1e+20
 20
1e+20
 30
1e+20
  9
$PEXTMAX
 10
-1e+20
 20
-1e+20
 30
-1e+20
  9
$PLIMMIN
 10
0.0
 20
0.0
  9
$PLIMMAX
 10
420.0
 20
297.0
  9
$UNITMODE
 70
0
  9
$VISRETAIN
 70
1
  9
$PLINEGEN
 70
0
  9
$PSLTSCALE
 70
1
  9
$TREEDEPTH
 70
3020
  9
$CMLSTYLE
  2
Standard
  9
$CMLJUST
 70
0
  9
$CMLSCALE
 40
20.0
  9
$PROXYGRAPHICS
 70
1
  9
$MEASUREMENT
 70
1
  9
$CELWEIGHT
370
-1
  9
$ENDCAPS
280
0
  9
$JOINSTYLE
280
0
  9
$LWDISPLAY
290
0
  9
$INSUNITS
 70
6
  9
$HYPERLINKBASE
  1

  9
$STYLESHEET
  1

  9
$XEDIT
290
1
  9
$CEPSNTYPE
380
0
  9
$PSTYLEMODE
290
1
  9
$FINGERPRINTGUID
  2
{5BB0C3F4-20C2-4459-82F9-E8890E721D90}
  9
$VERSIONGUID
  2
{5B00FA20-7599-47D4-A092-988ECF76B1F7}
  9
$EXTNAMES
290
1
  9
$PSVPSCALE
 40
0.0
  9
$OLESTARTUP
290
0
  9
$SORTENTS
280
127
  9
$INDEXCTL
280
0
  9
$HIDETEXT
280
1
  9
$XCLIPFRAME
280
1
  9
$HALOGAP
280
0
  9
$OBSCOLOR
 70
257
  9
$OBSLTYPE
280
0
  9
$INTERSECTIONDISPLAY
280
0
  9
$INTERSECTIONCOLOR
 70
257
  9
$DIMASSOC
280
2
  9
$PROJECTNAME
  1

  9
$CAMERADISPLAY
290
0
  9
$LENSLENGTH
 40
50.0
  9
$CAMERAHEIGHT
 40
0.0
  9
$STEPSPERSEC
 40
24.0
  9
$STEPSIZE
 40
100.0
  9
$3DDWFPREC
 40
2.0
  9
$PSOLWIDTH
 40
0.005
  9
$PSOLHEIGHT
 40
0.08
  9
$LOFTANG1
 40
1.570796326795
  9
$LOFTANG2
 40
1.570796326795
  9
$LOFTMAG1
 40
0.0
  9
$LOFTMAG2
 40
0.0
  9
$LOFTPARAM
 70
7
  9
$LOFTNORMALS
280
1
  9
$LATITUDE
 40
37.795
  9
$LONGITUDE
 40
-122.394
  9
$NORTHDIRECTION
 40
0.0
  9
$TIMEZONE
 70
-8000
  9
$LIGHTGLYPHDISPLAY
280
1
  9
$TILEMODELIGHTSYNCH
280
1
  9
$CMATERIAL
347
20
  9
$SOLIDHIST
280
0
  9
$SHOWHIST
280
1
  9
$DWFFRAME
280
2
  9
$DGNFRAME
280
2
  9
$REALWORLDSCALE
290
1
  9
$INTERFERECOLOR
 62
256
  9
$CSHADOW
280
0
  9
$SHADOWPLANELOCATION
 40
0.0
  0
ENDSEC
  0
SECTION
  2
CLASSES
  0
CLASS
  1
ACDBDICTIONARYWDFLT
  2
AcDbDictionaryWithDefault
  3
ObjectDBX Classes
 90
0
 91
0
280
0
281
0
  0
CLASS
  1
SUN
  2
AcDbSun
  3
SCENEOE
 90
1153
 91
0
280
0
281
0
  0
CLASS
  1
VISUALSTYLE
  2
AcDbVisualStyle
  3
ObjectDBX Classes
 90
4095
 91
0
280
0
281
0
  0
CLASS
  1
MATERIAL
  2
AcDbMaterial
  3
ObjectDBX Classes
 90
1153
 91
0
280
0
281
0
  0
CLASS
  1
SCALE
  2
AcDbScale
  3
ObjectDBX Classes
 90
1153
 91
0
280
0
281
0
  0
CLASS
  1
TABLESTYLE
  2
AcDbTableStyle
  3
ObjectDBX Classes
 90
4095
 91
0
280
0
281
0
  0
CLASS
  1
MLEADERSTYLE
  2
AcDbMLeaderStyle
  3
ACDB_MLEADERSTYLE_CLASS
 90
4095
 91
0
280
0
281
0
  0
CLASS
  1
DICTIONARYVAR
  2
AcDbDictionaryVar
  3
ObjectDBX Classes
 90
0
 91
0
280
0
281
0
  0
CLASS
  1
CELLSTYLEMAP
  2
AcDbCellStyleMap
  3
ObjectDBX Classes
 90
1152
 91
0
280
0
281
0
  0
CLASS
  1
MENTALRAYRENDERSETTINGS
  2
AcDbMentalRayRenderSettings
  3
SCENEOE
 90
1024
 91
0
280
0
281
0
  0
CLASS
  1
ACDBDETAILVIEWSTYLE
  2
AcDbDetailViewStyle
  3
ObjectDBX Classes
 90
1025
 91
0
280
0
281
0
  0
CLASS
  1
ACDBSECTIONVIEWSTYLE
  2
AcDbSectionViewStyle
  3
ObjectDBX Classes
 90
1025
 91
0
280
0
281
0
  0
CLASS
  1
RASTERVARIABLES
  2
AcDbRasterVariables
  3
ISM
 90
0
 91
0
280
0
281
0
  0
CLASS
  1
ACDBPLACEHOLDER
  2
AcDbPlaceHolder
  3
ObjectDBX Classes
 90
0
 91
0
280
0
281
0
  0
CLASS
  1
LAYOUT
  2
AcDbLayout
  3
ObjectDBX Classes
 90
0
 91
0
280
0
281
0
  0
ENDSEC
  0
SECTION
  2
TABLES
  0
TABLE
  2
VPORT
  5
8
330
0
100
AcDbSymbolTable
 70
1
  0
VPORT
  5
23
330
8
100
AcDbSymbolTableRecord
100
AcDbViewportTableRecord
  2
*Active
 70
0
 10
0.0
 20
0.0
 11
1.0
 21
1.0
 12
0.0
 22
0.0
 13
0.0
 23
0.0
 14
0.5
 24
0.5
 15
0.5
 25
0.5
 16
0.0
 26
0.0
 36
1.0
 17
0.0
 27
0.0
 37
0.0
 40
1000.0
 41
1.34
 42
50.0
 43
0.0
 44
0.0
 50
0.0
 51
0.0
 71
0
 72
1000
 73
1
 74
3
 75
0
 76
0
 77
0
 78
0
281
0
 65
0
146
0.0
  0
ENDTAB
  0
TABLE
  2
LTYPE
  5
2
330
0
100
AcDbSymbolTable
 70
3
  0
LTYPE
  5
24
330
2
100
AcDbSymbolTableRecord
100
AcDbLinetypeTableRecord
  2
ByBlock
 70
0
  3

 72
65
 73
0
 40
0.0
  0
LTYPE
  5
25
330
2
100
AcDbSymbolTableRecord
100
AcDbLinetypeTableRecord
  2
ByLayer
 70
0
  3

 72
65
 73
0
 40
0.0
  0
LTYPE
  5
26
330
2
100
AcDbSymbolTableRecord
100
AcDbLinetypeTableRecord
  2
Continuous
 70
0
  3

 72
65
 73
0
 40
0.0
  0
ENDTAB
  0
TABLE
  2
LAYER
  5
1
330
0
100
AcDbSymbolTable
 70
15
  0
LAYER
  5
27
330
1
100
AcDbSymbolTableRecord
100
AcDbLayerTableRecord
  2
0
 70
0
 62
7
  6
Continuous
370
-3
390
13
347
21
  0
LAYER
  5
28
330
1
100
AcDbSymbolTableRecord
100
AcDbLayerTableRecord
  2
Defpoints
 70
0
 62
7
  6
Continuous
290
0
370
-3
390
13
347
21
  0
LAYER
  5
2F
330
1
100
AcDbSymbolTableRecord
100
AcDbLayerTableRecord
  2
Balcony
 70
0
 62
140
  6
Continuous
370
-3
390
13
347
21
  0
LAYER
  5
30
330
1
100
AcDbSymbolTableRecord
100
AcDbLayerTableRecord
  2
Bathroom
 70
0
 62
92
  6
Continuous
370
-3
390
13
347
21
  0
LAYER
  5
31
330
1
100
AcDbSymbolTableRecord
100
AcDbLayerTableRecord
  2
Bedroom
 70
0
 62
50
  6
Continuous
370
-3
390
13
347
21
  0
LAYER
  5
32
330
1
100
AcDbSymbolTableRecord
100
AcDbLayerTableRecord
  2
Corridor
 70
0
 62
30
  6
Continuous
370
-3
390
13
347
21
  0
LAYER
  5
33
330
1
100
AcDbSymbolTableRecord
100
AcDbLayerTableRecord
  2
Dining
 70
0
 62
210
  6
Continuous
370
-3
390
13
347
21
  0
LAYER
  5
34
330
1
100
AcDbSymbolTableRecord
100
AcDbLayerTableRecord
  2
Kitchen
 70
0
 62
10
  6
Continuous
370
-3
390
13
347
21
  0
LAYER
  5
35
330
1
100
AcDbSymbolTableRecord
100
AcDbLayerTableRecord
  2
LivingRoom
 70
0
 62
150
  6
Continuous
370
-3
390
13
347
21
  0
LAYER
  5
36
330
1
100
AcDbSymbolTableRecord
100
AcDbLayerTableRecord
  2
Storeroom
 70
0
 62
8
  6
Continuous
370
-3
390
13
347
21
  0
LAYER
  5
37
330
1
100
AcDbSymbolTableRecord
100
AcDbLayerTableRecord
  2
Other
 70
0
 62
255
  6
Continuous
370
-3
390
13
347
21
  0
LAYER
  5
38
330
1
100
AcDbSymbolTableRecord
100
AcDbLayerTableRecord
  2
Labels
 70
0
 62
7
  6
Continuous
370
-3
390
13
347
21
  0
LAYER
  5
39
330
1
100
AcDbSymbolTableRecord
100
AcDbLayerTableRecord
  2
Graph_nodes
 70
0
 62
5
  6
Continuous
370
-3
390
13
347
21
  0
LAYER
  5
3A
330
1
100
AcDbSymbolTableRecord
100
AcDbLayerTableRecord
  2
Graph_edges_door
 70
0
 62
150
  6
Continuous
370
-3
390
13
347
21
  0
LAYER
  5
3B
330
1
100
AcDbSymbolTableRecord
100
AcDbLayerTableRecord
  2
Graph_edges_entrance
 70
0
 62
10
  6
Continuous
370
-3
390
13
347
21
  0
ENDTAB
  0
TABLE
  2
STYLE
  5
5
330
0
100
AcDbSymbolTable
 70
1
  0
STYLE
  5
29
330
5
100
AcDbSymbolTableRecord
100
AcDbTextStyleTableRecord
  2
Standard
 70
0
 40
0.0
 41
1.0
 50
0.0
 71
0
 42
2.5
  3
txt
  4

  0
ENDTAB
  0
TABLE
  2
VIEW
  5
7
330
0
100
AcDbSymbolTable
 70
0
  0
ENDTAB
  0
TABLE
  2
UCS
  5
6
330
0
100
AcDbSymbolTable
 70
0
  0
ENDTAB
  0
TABLE
  2
APPID
  5
3
330
0
100
AcDbSymbolTable
 70
3
  0
APPID
  5
2A
330
3
100
AcDbSymbolTableRecord
100
AcDbRegAppTableRecord
  2
ACAD
 70
0
  0
APPID
  5
DE
330
3
100
AcDbSymbolTableRecord
100
AcDbRegAppTableRecord
  2
HATCHBACKGROUNDCOLOR
 70
0
  0
APPID
  5
DF
330
3
100
AcDbSymbolTableRecord
100
AcDbRegAppTableRecord
  2
EZDXF
 70
0
  0
ENDTAB
  0
TABLE
  2
DIMSTYLE
  5
4
330
0
100
AcDbSymbolTable
 70
1
100
AcDbDimStyleTable
  0
DIMSTYLE
105
2B
330
4
100
AcDbSymbolTableRecord
100
AcDbDimStyleTableRecord
  2
Standard
 70
0
 40
1.0
 41
2.5
 42
0.625
 43
3.75
 44
1.25
 45
0.0
 46
0.0
 47
0.0
 48
0.0
 49
2.5
140
2.5
141
2.5
142
0.0
143
0.03937007874
144
1.0
145
0.0
146
1.0
147
0.625
148
0.0
 69
0
 70
0
 71
0
 72
0
 73
0
 74
0
 75
0
 76
0
 77
1
 78
8
 79
3
170
0
171
3
172
1
173
0
174
0
175
0
176
0
177
0
178
0
179
2
271
2
272
2
273
2
274
3
275
0
276
0
277
2
278
44
279
0
280
0
281
0
282
0
283
0
284
8
285
0
286
0
288
0
289
3
290
0
371
-2
372
-2
  0
ENDTAB
  0
TABLE
  2
BLOCK_RECORD
  5
9
330
0
100
AcDbSymbolTable
 70
2
  0
BLOCK_RECORD
  5
17
330
9
100
AcDbSymbolTableRecord
100
AcDbBlockTableRecord
  2
*Model_Space
340
1A
 70
0
280
1
281
0
  0
BLOCK_RECORD
  5
1B
330
9
100
AcDbSymbolTableRecord
100
AcDbBlockTableRecord
  2
*Paper_Space
340
1E
 70
0
280
1
281
0
  0
ENDTAB
  0
ENDSEC
  0
SECTION
  2
BLOCKS
  0
BLOCK
  5
18
330
17
100
AcDbEntity
  8
0
100
AcDbBlockBegin
  2
*Model_Space
 70
0
 10
0.0
 20
0.0
 30
0.0
  3
*Model_Space
  1

  0
ENDBLK
  5
19
330
17
100
AcDbEntity
  8
0
100
AcDbBlockEnd
  0
BLOCK
  5
1C
330
1B
100
AcDbEntity
  8
0
100
AcDbBlockBegin
  2
*Paper_Space
 70
0
 10
0.0
 20
0.0
 30
0.0
  3
*Paper_Space
  1

  0
ENDBLK
  5
1D
330
1B
100
AcDbEntity
  8
0
100
AcDbBlockEnd
  0
ENDSEC
  0
SECTION
  2
ENTITIES
  0
LWPOLYLINE
  5
3C
330
17
100
AcDbEntity
  8
Balcony
100
AcDbPolyline
 90
8
 70
1
 10
3.2029539830705254
 20
-0.9477742480307532
 10
3.855705925290305
 20
2.2265057210299917
 10
6.414670757278152
 20
1.653562396352096
 10
5.761918815058376
 20
-1.5207175727086488
 10
4.704652904205979
 20
-1.2839994129042358
 10
4.705123132691355
 20
-1.2817127297625106
 10
4.576154170285946
 20
-1.255191836357791
 10
3.2029539830705254
 20
-0.9477742480307532
  0
TEXT
  5
3D
330
17
100
AcDbEntity
  8
Labels
100
AcDbText
 10
4.808817152484997
 20
0.35292847069728084
 30
0.0
 40
0.15
  1
Balcony
 72
1
 11
4.808817152484997
 21
0.35292847069728084
 31
0.0
100
AcDbText
 73
2
  0
LWPOLYLINE
  5
3E
330
17
100
AcDbEntity
  8
Bedroom
100
AcDbPolyline
 90
5
 70
1
 10
8.261537858370996
 20
1.9389784689291893
 10
10.612883612515294
 20
1.4125203335900762
 10
9.822732710494133
 20
-2.429919678601526
 10
7.471386956349836
 20
-1.903461543262413
 10
8.261537858370996
 20
1.9389784689291893
  0
TEXT
  5
3F
330
17
100
AcDbEntity
  8
Labels
100
AcDbText
 10
9.042135284432565
 20
-0.2454706048361683
 30
0.0
 40
0.15
  1
Bedroom
 72
1
 11
9.042135284432565
 21
-0.2454706048361683
 31
0.0
100
AcDbText
 73
2
  0
LWPOLYLINE
  5
40
330
17
100
AcDbEntity
  8
Storeroom
100
AcDbPolyline
 90
9
 70
1
 10
7.342880917860754
 20
-1.8746894882451794
 10
5.890424853547458
 20
-1.5494896277258823
 10
6.543176795767231
 20
1.6247903413348626
 10
7.148072959676014
 20
1.4893561943303562
 10
7.141191386251151
 20
1.4558916586234663
 10
7.639424023932094
 20
1.3534361962529733
 10
7.644229455331306
 20
1.3768046209892546
 10
7.994079471922557
 20
1.292036479678048
 10
7.342880917860754
 20
-1.8746894882451794
  0
TEXT
  5
41
330
17
100
AcDbEntity
  8
Labels
100
AcDbText
 10
6.9413375796491845
 20
-0.13031285554913236
 30
0.0
 40
0.15
  1
Storeroom
 72
1
 11
6.9413375796491845
 21
-0.13031285554913236
 31
0.0
100
AcDbText
 73
2
  0
LWPOLYLINE
  5
42
330
17
100
AcDbEntity
  8
LivingRoom
100
AcDbPolyline
 90
5
 70
1
 10
3.4987382570884975
 20
-2.311793781545779
 10
3.7273423727173274
 20
-1.2001104327107388
 10
4.5496219324363665
 20
-1.384215965882186
 10
4.321017816807533
 20
-2.4958993147172244
 10
3.4987382570884975
 20
-2.311793781545779
  0
TEXT
  5
43
330
17
100
AcDbEntity
  8
Labels
100
AcDbText
 10
4.02418009476243
 20
-1.848004873713982
 30
0.0
 40
0.15
  1
LivingRoom
 72
1
 11
4.02418009476243
 21
-1.848004873713982
 31
0.0
100
AcDbText
 73
2
  0
LWPOLYLINE
  5
44
330
17
100
AcDbEntity
  8
Balcony
100
AcDbPolyline
 90
7
 70
1
 10
4.8703361740296955
 20
-3.1524510272627904
 10
4.868283595628853
 20
-3.1616185587033527
 10
6.854289842874238
 20
-3.606278449259147
 10
6.129410372967758
 20
-7.131308759368573
 10
2.116161895360431
 20
-6.232756385074058
 10
2.842933923811227
 20
-2.6985227156348115
 10
4.8703361740296955
 20
-3.1524510272627904
  0
TEXT
  5
45
330
17
100
AcDbEntity
  8
Labels
100
AcDbText
 10
4.48439661666688
 20
-4.916897013307794
 30
0.0
 40
0.15
  1
Balcony
 72
1
 11
4.48439661666688
 21
-4.916897013307794
 31
0.0
100
AcDbText
 73
2
  0
LWPOLYLINE
  5
46
330
17
100
AcDbEntity
  8
Balcony
100
AcDbPolyline
 90
7
 70
1
 10
8.099039992923906
 20
-3.8748068406522993
 10
10.780387026989157
 20
-4.475151114676247
 10
10.053508892707697
 20
-8.009900768199309
 10
6.25791641145684
 20
-7.160080814385807
 10
6.9827958813633195
 20
-3.6350505042763794
 10
8.096872337218393
 20
-3.8844883474948535
 10
8.099039992923906
 20
-3.8748068406522993
  0
TEXT
  5
47
330
17
100
AcDbEntity
  8
Labels
100
AcDbText
 10
8.519941958660091
 20
-5.819282185935308
 30
0.0
 40
0.15
  1
Balcony
 72
1
 11
8.519941958660091
 21
-5.819282185935308
 31
0.0
100
AcDbText
 73
2
  0
LWPOLYLINE
  5
48
330
17
100
AcDbEntity
  8
Other
100
AcDbPolyline
 90
5
 70
1
 10
9.932824814012115
 20
-8.549660748809359
 10
9.655247664070188
 20
-9.789417168458964
 10
6.066968484346333
 20
-9.051531340295984
 10
6.358514497663773
 20
-7.749385102000919
 10
9.932824814012115
 20
-8.549660748809359
  0
TEXT
  5
49
330
17
100
AcDbEntity
  8
Labels
100
AcDbText
 10
7.988738662667295
 20
-8.781852468383631
 30
0.0
 40
0.15
  1
Other
 72
1
 11
7.988738662667295
 21
-8.781852468383631
 31
0.0
100
AcDbText
 73
2
  0
LWPOLYLINE
  5
4A
330
17
100
AcDbEntity
  8
Dining
100
AcDbPolyline
 90
9
 70
1
 10
9.796207777213596
 20
-2.558908286596706
 10
9.52199622245828
 20
-3.8923769279688125
 10
8.006498122289994
 20
-3.5530621749094875
 10
7.968917093324393
 20
-3.720912165180234
 10
5.190135673223072
 20
-3.098752671042419
 10
5.277180347448105
 20
-2.709980779374196
 10
4.449523855296615
 20
-2.524671369734458
 10
4.678127970925445
 20
-1.4129880208994177
 10
9.796207777213596
 20
-2.558908286596706
  0
TEXT
  5
4B
330
17
100
AcDbEntity
  8
Labels
100
AcDbText
 10
7.125242469309403
 20
-2.695081589874841
 30
0.0
 40
0.15
  1
Dining
 72
1
 11
7.125242469309403
 21
-2.695081589874841
 31
0.0
100
AcDbText
 73
2
  0
LWPOLYLINE
  5
4C
330
17
100
AcDbEntity
  8
Bedroom
100
AcDbPolyline
 90
9
 70
1
 10
16.263683671020807
 20
-0.5859611946559804
 10
16.273088534207226
 20
-0.5878951900095997
 10
16.27303736339435
 20
-0.5881237367173222
 10
16.448616531508584
 20
-0.6274353017165977
 10
15.992687777776126
 20
-2.6637722244817343
 10
13.03744068175898
 20
-2.0021026793315313
 10
13.601992901025397
 20
0.7432691613282882
 10
16.407838106256577
 20
0.1150501798396357
 10
16.263683671020807
 20
-0.5859611946559804
  0
TEXT
  5
4D
330
17
100
AcDbEntity
  8
Labels
100
AcDbText
 10
14.783055710707426
 20
-0.9710204110401112
 30
0.0
 40
0.15
  1
Bedroom
 72
1
 11
14.783055710707426
 21
-0.9710204110401112
 31
0.0
100
AcDbText
 73
2
  0
LWPOLYLINE
  5
4E
330
17
100
AcDbEntity
  8
Dining
100
AcDbPolyline
 90
9
 70
1
 10
13.766029169183632
 20
-4.842601142129056
 10
14.315182101643188
 20
-2.3898925040852124
 10
16.80258394422838
 20
-2.9468131243633797
 10
16.298623426798088
 20
-5.397532413281097
 10
16.301377389016963
 20
-5.398098732006822
 10
16.26249585721437
 20
-5.571757221793044
 10
13.761126964276002
 20
-5.01170942752434
 10
13.797416295416234
 20
-4.849628610514318
 10
13.766029169183632
 20
-4.842601142129056
  0
TEXT
  5
4F
330
17
100
AcDbEntity
  8
Labels
100
AcDbText
 10
15.277926306778788
 20
-3.9815867075655094
 30
0.0
 40
0.15
  1
Dining
 72
1
 11
15.277926306778788
 21
-3.9815867075655094
 31
0.0
100
AcDbText
 73
2
  0
LWPOLYLINE
  5
50
330
17
100
AcDbEntity
  8
Balcony
100
AcDbPolyline
 90
7
 70
1
 10
10.182014931196775
 20
-8.038672823216542
 10
10.908893065478228
 20
-4.503923169693479
 10
13.733235249262272
 20
-5.1362835603394945
 10
13.739441966034128
 20
-5.108562197235689
 10
14.770134364630145
 20
-5.339330640080251
 10
14.0375333917697
 20
-8.901909995351367
 10
10.182014931196775
 20
-8.038672823216542
  0
TEXT
  5
51
330
17
100
AcDbEntity
  8
Labels
100
AcDbText
 10
12.476949696004882
 20
-6.699838739171212
 30
0.0
 40
0.15
  1
Balcony
 72
1
 11
12.476949696004882
 21
-6.699838739171212
 31
0.0
100
AcDbText
 73
2
  0
LWPOLYLINE
  5
52
330
17
100
AcDbEntity
  8
Balcony
100
AcDbPolyline
 90
7
 70
1
 10
14.134400914874007
 20
-8.923598296826608
 10
14.867001887734446
 20
-5.361018941555492
 10
16.240810858972488
 20
-5.668609991504388
 10
16.237620982431373
 20
-5.682857093330205
 10
18.855365543125387
 20
-6.268960994803686
 10
18.06401147393445
 20
-9.803424432087912
 10
14.134400914874007
 20
-8.923598296826608
  0
TEXT
  5
53
330
17
100
AcDbEntity
  8
Labels
100
AcDbText
 10
16.479151147114152
 20
-7.58534432931432
 30
0.0
 40
0.15
  1
Balcony
 72
1
 11
16.479151147114152
 21
-7.58534432931432
 31
0.0
100
AcDbText
 73
2
  0
LWPOLYLINE
  5
54
330
17
100
AcDbEntity
  8
Other
100
AcDbPolyline
 90
5
 70
1
 10
13.697213465872792
 20
-9.392494273763031
 10
13.43434802983262
 20
-10.566543045079364
 10
9.720721621602259
 20
-9.802881088894601
 10
9.998043887037827
 20
-8.564263072399218
 10
13.697213465872792
 20
-9.392494273763031
  0
TEXT
  5
55
330
17
100
AcDbEntity
  8
Labels
100
AcDbText
 10
11.696049607624172
 20
-9.577995102887485
 30
0.0
 40
0.15
  1
Other
 72
1
 11
11.696049607624172
 21
-9.577995102887485
 31
0.0
100
AcDbText
 73
2
  0
LWPOLYLINE
  5
56
330
17
100
AcDbEntity
  8
Storeroom
100
AcDbPolyline
 90
9
 70
1
 10
17.023815444908855
 20
-4.202132633512326
 10
17.023873473182967
 20
-4.202144566318822
 10
17.142309939486793
 20
-3.6261975973736016
 10
19.337049541816846
 20
-4.117592160066517
 10
18.954959962539448
 20
-5.8241375615503195
 10
16.4285449016377
 20
-5.258482017396193
 10
16.660424405880434
 20
-4.130870718300868
 10
17.023131814882802
 20
-4.20545707110889
 10
17.023815444908855
 20
-4.202132633512326
  0
TEXT
  5
57
330
17
100
AcDbEntity
  8
Labels
100
AcDbText
 10
17.925217625363317
 20
-4.7257467107364315
 30
0.0
 40
0.15
  1
Storeroom
 72
1
 11
17.925217625363317
 21
-4.7257467107364315
 31
0.0
100
AcDbText
 73
2
  0
LWPOLYLINE
  5
58
330
17
100
AcDbEntity
  8
Balcony
100
AcDbPolyline
 90
9
 70
1
 10
19.94329643348253
 20
-1.4098819757361811
 10
19.35873454005872
 20
-4.020739390355171
 10
16.800841046987344
 20
-3.4480359347340848
 10
16.89945146733269
 20
-2.968501425838621
 10
16.922427884419577
 20
-2.973645765702301
 10
16.94411288266145
 20
-2.876792995990953
 10
16.089540547487474
 20
-2.6854572227236098
 10
16.54546930121993
 20
-0.6491202999584731
 10
19.94329643348253
 20
-1.4098819757361811
  0
TEXT
  5
59
330
17
100
AcDbEntity
  8
Labels
100
AcDbText
 10
18.038697488069015
 20
-2.292923952788126
 30
0.0
 40
0.15
  1
Balcony
 72
1
 11
18.038697488069015
 21
-2.292923952788126
 31
0.0
100
AcDbText
 73
2
  0
LWPOLYLINE
  5
5A
330
17
100
AcDbEntity
  8
Bedroom
100
AcDbPolyline
 90
8
 70
1
 10
0.1166054036859201
 20
0.2970265843698483
 10
0.0135739215492414
 20
0.3182137514534116
 10
-0.4061215928561381
 20
0.4199053535274535
 10
0.136616509286327
 20
3.0591969046459955
 10
3.126068094490485
 20
2.3898690933450677
 10
2.292515751673932
 20
-1.6636286196887058
 10
-0.1730603753184283
 20
-1.1115947012123453
 10
0.1166054036859201
 20
0.2970265843698483
  0
TEXT
  5
5B
330
17
100
AcDbEntity
  8
Labels
100
AcDbText
 10
1.3122480505166154
 20
0.7656630612594078
 30
0.0
 40
0.15
  1
Bedroom
 72
1
 11
1.3122480505166154
 21
0.7656630612594078
 31
0.0
100
AcDbText
 73
2
  0
LWPOLYLINE
  5
5C
330
17
100
AcDbEntity
  8
Storeroom
100
AcDbPolyline
 90
5
 70
1
 10
0.0081104707972486
 20
3.087968959663228
 10
-0.5341644252562503
 20
0.4509299423399256
 10
-2.3268428138465147
 20
0.885293263085769
 10
-1.7910530878692406
 20
3.4907954221671815
 10
0.0081104707972486
 20
3.087968959663228
  0
TEXT
  5
5D
330
17
100
AcDbEntity
  8
Labels
100
AcDbText
 10
-1.1591868835219798
 20
1.978327215870703
 30
0.0
 40
0.15
  1
Storeroom
 72
1
 11
-1.1591868835219798
 21
1.978327215870703
 31
0.0
100
AcDbText
 73
2
  0
LWPOLYLINE
  5
5E
330
17
100
AcDbEntity
  8
Other
100
AcDbPolyline
 90
5
 70
1
 10
-3.0078032556896943
 20
-5.652299137194108
 10
-3.2674965138784273
 20
-6.812179855209089
 10
-6.600647302610852
 20
-6.12675806750828
 10
-6.3279783740113995
 20
-4.908923477229941
 10
-3.0078032556896943
 20
-5.652299137194108
  0
TEXT
  5
5F
330
17
100
AcDbEntity
  8
Labels
100
AcDbText
 10
-4.814495244615617
 20
-5.872138036611894
 30
0.0
 40
0.15
  1
Other
 72
1
 11
-4.814495244615617
 21
-5.872138036611894
 31
0.0
100
AcDbText
 73
2
  0
LWPOLYLINE
  5
60
330
17
100
AcDbEntity
  8
Balcony
100
AcDbPolyline
 90
5
 70
1
 10
-2.373721659081273
 20
-5.227487075022573
 10
-6.294274117098221
 20
-4.349689017076854
 10
-5.375859949013252
 20
-0.2477308370944522
 10
-1.4553074909963009
 20
-1.1255288950401718
 10
-2.373721659081273
 20
-5.227487075022573
  0
TEXT
  5
61
330
17
100
AcDbEntity
  8
Labels
100
AcDbText
 10
-3.8747908040472616
 20
-2.737608956058512
 30
0.0
 40
0.15
  1
Balcony
 72
1
 11
-3.8747908040472616
 21
-2.737608956058512
 31
0.0
100
AcDbText
 73
2
  0
LWPOLYLINE
  5
62
330
17
100
AcDbEntity
  8
Dining
100
AcDbPolyline
 90
10
 70
1
 10
-4.624914532127978
 20
1.3066351748907805
 10
-0.5607014843203402
 20
0.3218823676387483
 10
-0.5607083953941263
 20
0.3218487596451567
 10
-0.5597459883773048
 20
0.3216508523856962
 10
-0.0387143599561917
 20
0.1954056598430549
 10
-0.3015664138075067
 20
-1.0828226461951136
 10
-6.445901181962311
 20
0.2928725356983906
 10
-6.182830384584042
 20
1.8449140598155709
 10
-4.615133426412976
 20
1.3470031709768429
 10
-4.624914532127978
 20
1.3066351748907805
  0
TEXT
  5
63
330
17
100
AcDbEntity
  8
Labels
100
AcDbText
 10
-3.332123409967911
 20
0.3085843705442712
 30
0.0
 40
0.15
  1
Dining
 72
1
 11
-3.332123409967911
 21
0.3085843705442712
 31
0.0
100
AcDbText
 73
2
  0
LWPOLYLINE
  5
64
330
17
100
AcDbEntity
  8
Balcony
100
AcDbPolyline
 90
5
 70
1
 10
1.3865240645606107
 20
-6.069393012758982
 10
-2.2452351926842873
 20
-5.256254747916467
 10
-1.3268210245993188
 20
-1.1542965679340647
 10
2.2333382862811533
 20
-1.9514038538416614
 10
1.3865240645606107
 20
-6.069393012758982
  0
TEXT
  5
65
330
17
100
AcDbEntity
  8
Labels
100
AcDbText
 10
0.010487039401903635
 20
-3.6146565957208843
 30
0.0
 40
0.15
  1
Balcony
 72
1
 11
0.010487039401903635
 21
-3.6146565957208843
 31
0.0
100
AcDbText
 73
2
  0
LWPOLYLINE
  5
66
330
17
100
AcDbEntity
  8
Storeroom
100
AcDbPolyline
 90
9
 70
1
 10
-14.800209523208988
 20
2.5388396861944864
 10
-14.796576170418298
 20
2.534083985607537
 10
-15.001071325330944
 20
2.37784979293711
 10
-16.075678992140396
 20
3.7844052820935756
 10
-14.715075747732309
 20
4.901214628884823
 10
-12.651127961297128
 20
2.199710463218463
 10
-14.109694044332862
 20
1.798507374672309
 10
-14.721342090472476
 20
2.599094364046593
 10
-14.800209523208988
 20
2.5388396861944864
  0
TEXT
  5
67
330
17
100
AcDbEntity
  8
Labels
100
AcDbText
 10
-14.438070688291731
 20
3.2324509341271623
 30
0.0
 40
0.15
  1
Storeroom
 72
1
 11
-14.438070688291731
 21
3.2324509341271623
 31
0.0
100
AcDbText
 73
2
  0
LWPOLYLINE
  5
68
330
17
100
AcDbEntity
  8
Balcony
100
AcDbPolyline
 90
12
 70
1
 10
-17.177250157093884
 20
-1.9130285374948492
 10
-18.06872856872707
 20
2.148471805601936
 10
-16.202586576031123
 20
3.6802370931300725
 10
-14.628471072721158
 20
1.6198750929960064
 10
-14.161910562782236
 20
0.2156905034804995
 10
-14.192549401314103
 20
0.0892397166293626
 10
-13.94388333672007
 20
0.028988297154839
 10
-13.943804250895257
 20
0.0287007821655094
 10
-13.94328556012415
 20
0.0288434567702385
 10
-13.78298090426572
 20
-0.0099981241250628
 10
-14.395017889827248
 20
-2.5359606643094144
 10
-17.177250157093884
 20
-1.9130285374948492
  0
TEXT
  5
69
330
17
100
AcDbEntity
  8
Labels
100
AcDbText
 10
-15.96806734085544
 20
0.3513191571524505
 30
0.0
 40
0.15
  1
Balcony
 72
1
 11
-15.96806734085544
 21
0.3513191571524505
 31
0.0
100
AcDbText
 73
2
  0
LWPOLYLINE
  5
6A
330
17
100
AcDbEntity
  8
Bedroom
100
AcDbPolyline
 90
7
 70
1
 10
-11.427741265118241
 20
2.545725674561236
 10
-11.42137833178945
 20
2.5379737446942627
 10
-12.480494671608646
 20
2.2466460142559086
 10
-14.58816816384158
 20
5.005382817848327
 10
-11.945368592499854
 20
7.174643603533393
 10
-9.519646105908238
 20
4.111926929137778
 10
-11.427741265118241
 20
2.545725674561236
  0
TEXT
  5
6B
330
17
100
AcDbEntity
  8
Labels
100
AcDbText
 10
-12.063400994873389
 20
4.580715853467268
 30
0.0
 40
0.15
  1
Bedroom
 72
1
 11
-12.063400994873389
 21
4.580715853467268
 31
0.0
100
AcDbText
 73
2
  0
LWPOLYLINE
  5
6C
330
17
100
AcDbEntity
  8
Balcony
100
AcDbPolyline
 90
5
 70
1
 10
-10.474616633366024
 20
-3.4137248687527526
 10
-9.699446001349008
 20
0.7203050406913003
 10
-5.567613808781518
 20
-0.204797814896525
 10
-6.486027976866485
 20
-4.306755994878928
 10
-10.474616633366024
 20
-3.4137248687527526
  0
TEXT
  5
6D
330
17
100
AcDbEntity
  8
Labels
100
AcDbText
 10
-8.054436547386928
 20
-1.7891365650925073
 30
0.0
 40
0.15
  1
Balcony
 72
1
 11
-8.054436547386928
 21
-1.7891365650925073
 31
0.0
100
AcDbText
 73
2
  0
LWPOLYLINE
  5
6E
330
17
100
AcDbEntity
  8
Other
100
AcDbPolyline
 90
5
 70
1
 10
-6.39319744703711
 20
-4.89432115364008
 10
-6.66612126014293
 20
-6.11329414707264
 10
-9.935767072001152
 20
-5.44093138296121
 10
-9.650114807917985
 20
-4.165108685528635
 10
-6.39319744703711
 20
-4.89432115364008
  0
TEXT
  5
6F
330
17
100
AcDbEntity
  8
Labels
100
AcDbText
 10
-8.17369371958539
 20
-5.15075233053245
 30
0.0
 40
0.15
  1
Other
 72
1
 11
-8.17369371958539
 21
-5.15075233053245
 31
0.0
100
AcDbText
 73
2
  0
LWPOLYLINE
  5
70
330
17
100
AcDbEntity
  8
Balcony
100
AcDbPolyline
 90
6
 70
1
 10
-14.26651185133817
 20
-2.5647327193266474
 10
-13.616299097916071
 20
0.1187865728734301
 10
-10.653178922057863
 20
0.9338425241358115
 10
-9.82801078593906
 20
0.7490902487561963
 10
-10.603181417956076
 20
-3.384939660687856
 10
-14.26651185133817
 20
-2.5647327193266474
  0
TEXT
  5
71
330
17
100
AcDbEntity
  8
Labels
100
AcDbText
 10
-11.923002622488921
 20
-1.201245568630489
 30
0.0
 40
0.15
  1
Balcony
 72
1
 11
-11.923002622488921
 21
-1.201245568630489
 31
0.0
100
AcDbText
 73
2
  0
LWPOLYLINE
  5
72
330
17
100
AcDbEntity
  8
LivingRoom
100
AcDbPolyline
 90
6
 70
1
 10
-9.576517925511666
 20
3.247340526400423
 10
-7.341612082789629
 20
5.08179428403215
 10
-6.327439925495158
 20
3.801300742820037
 10
-6.620898047029559
 20
3.5604246649712
 10
-9.44398222189163
 20
2.940772225352325
 10
-9.576517925511666
 20
3.247340526400423
  0
TEXT
  5
73
330
17
100
AcDbEntity
  8
Labels
100
AcDbText
 10
-7.84515384843934
 20
3.8738722106991417
 30
0.0
 40
0.15
  1
LivingRoom
 72
1
 11
-7.84515384843934
 21
3.8738722106991417
 31
0.0
100
AcDbText
 73
2
  0
LWPOLYLINE
  5
74
330
17
100
AcDbEntity
  8
Dining
100
AcDbPolyline
 90
17
 70
1
 10
-6.737078999711397
 20
3.3669329358602864
 10
-6.337499524582109
 20
1.914269468057118
 10
-6.6062410853099305
 20
0.3287720823252802
 10
-10.646562225456497
 20
1.2333859315917137
 10
-10.652928280586064
 20
1.204952907776987
 10
-13.947430372455027
 20
0.2987447970490948
 10
-14.059808413741624
 20
0.3259738301555548
 10
-14.429768281540312
 20
1.4394241416062954
 10
-11.239880825729388
 20
2.3168562403442046
 10
-11.220800716405403
 20
2.2936110385338315
 10
-11.168591138322482
 20
2.336465665725613
 10
-10.853367982829289
 20
2.423173086826419
 10
-10.891972613932495
 20
2.5635194779254586
 10
-10.483626824593662
 20
2.8986975661232828
 10
-10.297284697859222
 20
2.6716778846232687
 10
-10.279235617216855
 20
2.5894477977642385
 10
-6.737078999711397
 20
3.3669329358602864
  0
TEXT
  5
75
330
17
100
AcDbEntity
  8
Labels
100
AcDbText
 10
-9.685403710103657
 20
1.6997616623464369
 30
0.0
 40
0.15
  1
Dining
 72
1
 11
-9.685403710103657
 21
1.6997616623464369
 31
0.0
100
AcDbText
 73
2
  0
LWPOLYLINE
  5
76
330
17
100
AcDbEntity
  8
Other
100
AcDbPolyline
 90
5
 70
1
 10
-17.783657950704917
 20
-1.7300903386007298
 10
-18.73576399362665
 20
-1.9390727123909672
 10
-19.51950232160234
 20
1.6315729100193588
 10
-18.567396278680604
 20
1.8405552838095955
 10
-17.783657950704917
 20
-1.7300903386007298
  0
TEXT
  5
77
330
17
100
AcDbEntity
  8
Labels
100
AcDbText
 10
-18.651580136153626
 20
-0.04925871429068573
 30
0.0
 40
0.15
  1
Other
 72
1
 11
-18.651580136153626
 21
-0.04925871429068573
 31
0.0
100
AcDbText
 73
2
  0
LWPOLYLINE
  5
78
330
17
100
AcDbEntity
  8
Balcony
100
AcDbPolyline
 90
5
 70
1
 10
-6.549782597363858
 20
6.195657395186303
 10
-9.172766587391205
 20
4.042661620271241
 10
-11.768397619420787
 20
7.319904786510674
 10
-9.145413629393438
 20
9.472900561425732
 10
-6.549782597363858
 20
6.195657395186303
  0
TEXT
  5
79
330
17
100
AcDbEntity
  8
Labels
100
AcDbText
 10
-9.159090108392322
 20
6.757781090848487
 30
0.0
 40
0.15
  1
Balcony
 72
1
 11
-9.159090108392322
 21
6.757781090848487
 31
0.0
100
AcDbText
 73
2
  0
LWPOLYLINE
  5
7A
330
17
100
AcDbEntity
  8
Storeroom
100
AcDbPolyline
 90
7
 70
1
 10
-2.1127280215094224
 20
7.138823472984181
 10
-2.250571289131649
 20
7.3067572368674005
 10
-1.5008696187550825
 20
7.944347948961398
 10
-0.3888507907113663
 20
6.682113760258926
 10
-1.1747725462225844
 20
6.0370140473125895
 10
-2.112199106254735
 20
7.139273293849198
 10
-2.1127280215094224
 20
7.138823472984181
  0
TEXT
  5
7B
330
17
100
AcDbEntity
  8
Labels
100
AcDbText
 10
-1.3258871062378255
 20
6.989500243587682
 30
0.0
 40
0.15
  1
Storeroom
 72
1
 11
-1.3258871062378255
 21
6.989500243587682
 31
0.0
100
AcDbText
 73
2
  0
LWPOLYLINE
  5
7C
330
17
100
AcDbEntity
  8
Dining
100
AcDbPolyline
 90
9
 70
1
 10
-6.125408263390193
 20
3.967132221992168
 10
-7.139580420684666
 20
5.247625763204282
 10
-2.4884648650238077
 20
9.065350986862672
 10
-1.5664890273950505
 20
8.018831454940802
 10
-2.313551287329531
 20
7.383485453842893
 10
-2.3168346137462628
 20
7.387485514003466
 10
-5.3753189318696375
 20
4.877022682510952
 10
-5.2310392821023015
 20
4.701247506435
 10
-6.125408263390193
 20
3.967132221992168
  0
TEXT
  5
7D
330
17
100
AcDbEntity
  8
Labels
100
AcDbText
 10
-4.404983711856447
 20
6.549772377411246
 30
0.0
 40
0.15
  1
Dining
 72
1
 11
-4.404983711856447
 21
6.549772377411246
 31
0.0
100
AcDbText
 73
2
  0
LWPOLYLINE
  5
7E
330
17
100
AcDbEntity
  8
Storeroom
100
AcDbPolyline
 90
9
 70
1
 10
-1.0453082453053
 20
9.745406251893762
 10
-1.0447573556575591
 20
9.74478094616148
 10
-0.5904100948531408
 20
10.14505746616604
 10
1.2268233552203718
 20
8.008290215416881
 10
-0.2619432068206393
 20
6.78628194922243
 10
-2.361557281133088
 20
9.169519175826174
 10
-1.3176767393481512
 20
10.026356428559684
 10
-1.0593011697098156
 20
9.733078590722418
 10
-1.0453082453053
 20
9.745406251893762
  0
TEXT
  5
7F
330
17
100
AcDbEntity
  8
Labels
100
AcDbText
 10
-0.5459405229813246
 20
8.544188098224236
 30
0.0
 40
0.15
  1
Storeroom
 72
1
 11
-0.5459405229813246
 21
8.544188098224236
 31
0.0
100
AcDbText
 73
2
  0
LWPOLYLINE
  5
80
330
17
100
AcDbEntity
  8
Bedroom
100
AcDbPolyline
 90
5
 70
1
 10
-0.9553145637935536
 20
10.787704500684896
 10
-3.6470453233421978
 20
8.5782800533566
 10
-6.242676355371778
 20
11.855523219596027
 10
-3.66373854460349
 20
13.972365042292374
 10
-0.9553145637935536
 20
10.787704500684896
  0
TEXT
  5
81
330
17
100
AcDbEntity
  8
Labels
100
AcDbText
 10
-3.617734744885
 20
11.286944410175629
 30
0.0
 40
0.15
  1
Bedroom
 72
1
 11
-3.617734744885
 21
11.286944410175629
 31
0.0
100
AcDbText
 73
2
  0
LWPOLYLINE
  5
82
330
17
100
AcDbEntity
  8
Other
100
AcDbPolyline
 90
5
 70
1
 10
-10.410088931215933
 20
10.383761635400521
 10
-9.792363689930001
 20
9.657418486980319
 10
-12.58146269399712
 20
7.368072309341735
 10
-13.186325279363158
 20
8.104973373462151
 10
-10.410088931215933
 20
10.383761635400521
  0
TEXT
  5
83
330
17
100
AcDbEntity
  8
Labels
100
AcDbText
 10
-11.492324677243566
 20
8.878274629302814
 30
0.0
 40
0.15
  1
Other
 72
1
 11
-11.492324677243566
 21
8.878274629302814
 31
0.0
100
AcDbText
 73
2
  0
LWPOLYLINE
  5
84
330
17
100
AcDbEntity
  8
Balcony
100
AcDbPolyline
 90
5
 70
1
 10
-6.3695259503990584
 20
11.751402629008446
 10
-3.7738949183694785
 20
8.47415946276902
 10
-6.422933002336578
 20
6.299777985773884
 10
-9.018564034366158
 20
9.577021152013316
 10
-6.3695259503990584
 20
11.751402629008446
  0
TEXT
  5
85
330
17
100
AcDbEntity
  8
Labels
100
AcDbText
 10
-6.396229476367817
 20
9.025590307391164
 30
0.0
 40
0.15
  1
Balcony
 72
1
 11
-6.396229476367817
 21
9.025590307391164
 31
0.0
100
AcDbText
 73
2
  0
LWPOLYLINE
  5
86
330
17
100
AcDbEntity
  8
Kitchen
100
AcDbPolyline
 90
5
 70
1
 10
14.186695635246203
 20
-2.3611248311913196
 10
13.940764106632699
 20
-3.459540862397877
 10
12.7824016902036
 20
-3.242336694523617
 10
13.01744625490089
 20
-2.099333962095157
 10
14.186695635246203
 20
-2.3611248311913196
  0
TEXT
  5
87
330
17
100
AcDbEntity
  8
Labels
100
AcDbText
 10
13.478654674267029
 20
-2.7882898450069913
 30
0.0
 40
0.15
  1
Kitchen
 72
1
 11
13.478654674267029
 21
-2.7882898450069913
 31
0.0
100
AcDbText
 73
2
  0
LWPOLYLINE
  5
88
330
17
100
AcDbEntity
  8
Kitchen
100
AcDbPolyline
 90
6
 70
1
 10
-4.245407127464485
 20
1.350158557179546
 10
-4.120763993068831
 20
1.864578266775569
 10
-3.3719779100182805
 20
2.457629284026784
 10
-2.188000496767348
 20
2.214158776202427
 10
-2.454885646246627
 20
0.9163178518982398
 10
-4.245407127464485
 20
1.350158557179546
  0
TEXT
  5
89
330
17
100
AcDbEntity
  8
Labels
100
AcDbText
 10
-3.140912359357861
 20
1.7056214509920895
 30
0.0
 40
0.15
  1
Kitchen
 72
1
 11
-3.140912359357861
 21
1.7056214509920895
 31
0.0
100
AcDbText
 73
2
  0
LWPOLYLINE
  5
8A
330
17
100
AcDbEntity
  8
Dining
100
AcDbPolyline
 90
21
 70
1
 10
-5.033085901860469
 20
4.526264741471514
 10
-2.131123965035666
 20
6.908250987938456
 10
-0.9338148079116593
 20
5.500412608196343
 10
-0.9199189456038575
 20
5.51223047268039
 10
-1.1098353321435113
 20
4.259452973598633
 10
-1.421507607463873
 20
4.334970704695412
 10
-1.4219146958057394
 20
4.335484694345707
 10
-1.422316268531688
 20
4.335166642075485
 10
-1.454319399001463
 20
4.342920953230006
 10
-1.4642444646771153
 20
4.301958814181237
 10
-1.7768243193587736
 20
4.054390376429331
 10
-1.7903529908977802
 20
4.057419398928251
 10
-1.794093522168776
 20
4.040712880913035
 10
-4.453655894179299
 20
1.934295299354679
 10
-4.471769961728231
 20
1.9386843111165466
 10
-4.47738764060643
 20
1.9154993619323109
 10
-4.8433415363505326
 20
1.6256577969637038
 10
-6.1333944158542
 20
2.0353870960700826
 10
-6.489540124747675
 20
3.330147945227858
 10
-5.032776394766863
 20
4.525887670526559
 10
-5.033085901860469
 20
4.526264741471514
  0
TEXT
  5
8B
330
17
100
AcDbEntity
  8
Labels
100
AcDbText
 10
-3.643637755612027
 20
4.126494671590771
 30
0.0
 40
0.15
  1
Dining
 72
1
 11
-3.643637755612027
 21
4.126494671590771
 31
0.0
100
AcDbText
 73
2
  0
LWPOLYLINE
  5
8C
330
17
100
AcDbEntity
  8
Dining
100
AcDbPolyline
 90
9
 70
1
 10
13.63754270278664
 20
-4.813833469235161
 10
9.840333353256018
 20
-3.963651504237996
 10
10.93122074331303
 20
1.341245757320892
 10
13.28365577022766
 20
0.8145437375974716
 10
12.438611989341673
 20
-3.294835910548552
 10
12.471621291741492
 20
-3.301623870798691
 10
12.468650441456234
 20
-3.3174675875603956
 10
13.911978898567796
 20
-3.5881056469879278
 10
13.63754270278664
 20
-4.813833469235161
  0
TEXT
  5
8D
330
17
100
AcDbEntity
  8
Labels
100
AcDbText
 10
11.745308864407216
 20
-1.8796168270218245
 30
0.0
 40
0.15
  1
Dining
 72
1
 11
11.745308864407216
 21
-1.8796168270218245
 31
0.0
100
AcDbText
 73
2
  0
CIRCLE
  5
8E
330
17
100
AcDbEntity
  8
Graph_nodes
100
AcDbCircle
 10
4.808817152484997
 20
0.35292847069728084
 30
0.0
 40
0.08
  0
CIRCLE
  5
8F
330
17
100
AcDbEntity
  8
Graph_nodes
100
AcDbCircle
 10
9.042135284432565
 20
-0.2454706048361683
 30
0.0
 40
0.08
  0
CIRCLE
  5
90
330
17
100
AcDbEntity
  8
Graph_nodes
100
AcDbCircle
 10
6.9413375796491845
 20
-0.13031285554913236
 30
0.0
 40
0.08
  0
CIRCLE
  5
91
330
17
100
AcDbEntity
  8
Graph_nodes
100
AcDbCircle
 10
4.02418009476243
 20
-1.848004873713982
 30
0.0
 40
0.08
  0
CIRCLE
  5
92
330
17
100
AcDbEntity
  8
Graph_nodes
100
AcDbCircle
 10
4.48439661666688
 20
-4.916897013307794
 30
0.0
 40
0.08
  0
CIRCLE
  5
93
330
17
100
AcDbEntity
  8
Graph_nodes
100
AcDbCircle
 10
8.519941958660091
 20
-5.819282185935308
 30
0.0
 40
0.08
  0
CIRCLE
  5
94
330
17
100
AcDbEntity
  8
Graph_nodes
100
AcDbCircle
 10
7.988738662667295
 20
-8.781852468383631
 30
0.0
 40
0.08
  0
CIRCLE
  5
95
330
17
100
AcDbEntity
  8
Graph_nodes
100
AcDbCircle
 10
7.125242469309403
 20
-2.695081589874841
 30
0.0
 40
0.08
  0
CIRCLE
  5
96
330
17
100
AcDbEntity
  8
Graph_nodes
100
AcDbCircle
 10
14.783055710707426
 20
-0.9710204110401112
 30
0.0
 40
0.08
  0
CIRCLE
  5
97
330
17
100
AcDbEntity
  8
Graph_nodes
100
AcDbCircle
 10
15.277926306778788
 20
-3.9815867075655094
 30
0.0
 40
0.08
  0
CIRCLE
  5
98
330
17
100
AcDbEntity
  8
Graph_nodes
100
AcDbCircle
 10
12.476949696004882
 20
-6.699838739171212
 30
0.0
 40
0.08
  0
CIRCLE
  5
99
330
17
100
AcDbEntity
  8
Graph_nodes
100
AcDbCircle
 10
16.479151147114152
 20
-7.58534432931432
 30
0.0
 40
0.08
  0
CIRCLE
  5
9A
330
17
100
AcDbEntity
  8
Graph_nodes
100
AcDbCircle
 10
11.696049607624172
 20
-9.577995102887485
 30
0.0
 40
0.08
  0
CIRCLE
  5
9B
330
17
100
AcDbEntity
  8
Graph_nodes
100
AcDbCircle
 10
17.925217625363317
 20
-4.7257467107364315
 30
0.0
 40
0.08
  0
CIRCLE
  5
9C
330
17
100
AcDbEntity
  8
Graph_nodes
100
AcDbCircle
 10
18.038697488069015
 20
-2.292923952788126
 30
0.0
 40
0.08
  0
CIRCLE
  5
9D
330
17
100
AcDbEntity
  8
Graph_nodes
100
AcDbCircle
 10
1.3122480505166154
 20
0.7656630612594078
 30
0.0
 40
0.08
  0
CIRCLE
  5
9E
330
17
100
AcDbEntity
  8
Graph_nodes
100
AcDbCircle
 10
-1.1591868835219798
 20
1.978327215870703
 30
0.0
 40
0.08
  0
CIRCLE
  5
9F
330
17
100
AcDbEntity
  8
Graph_nodes
100
AcDbCircle
 10
-4.814495244615617
 20
-5.872138036611894
 30
0.0
 40
0.08
  0
CIRCLE
  5
A0
330
17
100
AcDbEntity
  8
Graph_nodes
100
AcDbCircle
 10
-3.8747908040472616
 20
-2.737608956058512
 30
0.0
 40
0.08
  0
CIRCLE
  5
A1
330
17
100
AcDbEntity
  8
Graph_nodes
100
AcDbCircle
 10
-3.332123409967911
 20
0.3085843705442712
 30
0.0
 40
0.08
  0
CIRCLE
  5
A2
330
17
100
AcDbEntity
  8
Graph_nodes
100
AcDbCircle
 10
0.010487039401903635
 20
-3.6146565957208843
 30
0.0
 40
0.08
  0
CIRCLE
  5
A3
330
17
100
AcDbEntity
  8
Graph_nodes
100
AcDbCircle
 10
-14.438070688291731
 20
3.2324509341271623
 30
0.0
 40
0.08
  0
CIRCLE
  5
A4
330
17
100
AcDbEntity
  8
Graph_nodes
100
AcDbCircle
 10
-15.96806734085544
 20
0.3513191571524505
 30
0.0
 40
0.08
  0
CIRCLE
  5
A5
330
17
100
AcDbEntity
  8
Graph_nodes
100
AcDbCircle
 10
-12.063400994873389
 20
4.580715853467268
 30
0.0
 40
0.08
  0
CIRCLE
  5
A6
330
17
100
AcDbEntity
  8
Graph_nodes
100
AcDbCircle
 10
-8.054436547386928
 20
-1.7891365650925073
 30
0.0
 40
0.08
  0
CIRCLE
  5
A7
330
17
100
AcDbEntity
  8
Graph_nodes
100
AcDbCircle
 10
-8.17369371958539
 20
-5.15075233053245
 30
0.0
 40
0.08
  0
CIRCLE
  5
A8
330
17
100
AcDbEntity
  8
Graph_nodes
100
AcDbCircle
 10
-11.923002622488921
 20
-1.201245568630489
 30
0.0
 40
0.08
  0
CIRCLE
  5
A9
330
17
100
AcDbEntity
  8
Graph_nodes
100
AcDbCircle
 10
-7.84515384843934
 20
3.8738722106991417
 30
0.0
 40
0.08
  0
CIRCLE
  5
AA
330
17
100
AcDbEntity
  8
Graph_nodes
100
AcDbCircle
 10
-9.685403710103657
 20
1.6997616623464369
 30
0.0
 40
0.08
  0
CIRCLE
  5
AB
330
17
100
AcDbEntity
  8
Graph_nodes
100
AcDbCircle
 10
-18.651580136153626
 20
-0.04925871429068573
 30
0.0
 40
0.08
  0
CIRCLE
  5
AC
330
17
100
AcDbEntity
  8
Graph_nodes
100
AcDbCircle
 10
-9.159090108392322
 20
6.757781090848487
 30
0.0
 40
0.08
  0
CIRCLE
  5
AD
330
17
100
AcDbEntity
  8
Graph_nodes
100
AcDbCircle
 10
-1.3258871062378255
 20
6.989500243587682
 30
0.0
 40
0.08
  0
CIRCLE
  5
AE
330
17
100
AcDbEntity
  8
Graph_nodes
100
AcDbCircle
 10
-4.404983711856447
 20
6.549772377411246
 30
0.0
 40
0.08
  0
CIRCLE
  5
AF
330
17
100
AcDbEntity
  8
Graph_nodes
100
AcDbCircle
 10
-0.5459405229813246
 20
8.544188098224236
 30
0.0
 40
0.08
  0
CIRCLE
  5
B0
330
17
100
AcDbEntity
  8
Graph_nodes
100
AcDbCircle
 10
-3.617734744885
 20
11.286944410175629
 30
0.0
 40
0.08
  0
CIRCLE
  5
B1
330
17
100
AcDbEntity
  8
Graph_nodes
100
AcDbCircle
 10
-11.492324677243566
 20
8.878274629302814
 30
0.0
 40
0.08
  0
CIRCLE
  5
B2
330
17
100
AcDbEntity
  8
Graph_nodes
100
AcDbCircle
 10
-6.396229476367817
 20
9.025590307391164
 30
0.0
 40
0.08
  0
CIRCLE
  5
B3
330
17
100
AcDbEntity
  8
Graph_nodes
100
AcDbCircle
 10
13.478654674267029
 20
-2.7882898450069913
 30
0.0
 40
0.08
  0
CIRCLE
  5
B4
330
17
100
AcDbEntity
  8
Graph_nodes
100
AcDbCircle
 10
-3.140912359357861
 20
1.7056214509920895
 30
0.0
 40
0.08
  0
CIRCLE
  5
B5
330
17
100
AcDbEntity
  8
Graph_nodes
100
AcDbCircle
 10
-3.643637755612027
 20
4.126494671590771
 30
0.0
 40
0.08
  0
CIRCLE
  5
B6
330
17
100
AcDbEntity
  8
Graph_nodes
100
AcDbCircle
 10
11.745308864407216
 20
-1.8796168270218245
 30
0.0
 40
0.08
  0
LINE
  5
B7
330
17
100
AcDbEntity
  8
Graph_edges_door
100
AcDbLine
 10
4.808817152484997
 20
0.35292847069728084
 30
0.0
 11
7.125242469309403
 21
-2.695081589874841
 31
0.0
  0
LINE
  5
B8
330
17
100
AcDbEntity
  8
Graph_edges_door
100
AcDbLine
 10
9.042135284432565
 20
-0.2454706048361683
 30
0.0
 11
7.125242469309403
 21
-2.695081589874841
 31
0.0
  0
LINE
  5
B9
330
17
100
AcDbEntity
  8
Graph_edges_door
100
AcDbLine
 10
6.9413375796491845
 20
-0.13031285554913236
 30
0.0
 11
7.125242469309403
 21
-2.695081589874841
 31
0.0
  0
LINE
  5
BA
330
17
100
AcDbEntity
  8
Graph_edges_door
100
AcDbLine
 10
4.02418009476243
 20
-1.848004873713982
 30
0.0
 11
7.125242469309403
 21
-2.695081589874841
 31
0.0
  0
LINE
  5
BB
330
17
100
AcDbEntity
  8
Graph_edges_door
100
AcDbLine
 10
4.48439661666688
 20
-4.916897013307794
 30
0.0
 11
7.125242469309403
 21
-2.695081589874841
 31
0.0
  0
LINE
  5
BC
330
17
100
AcDbEntity
  8
Graph_edges_door
100
AcDbLine
 10
8.519941958660091
 20
-5.819282185935308
 30
0.0
 11
7.988738662667295
 21
-8.781852468383631
 31
0.0
  0
LINE
  5
BD
330
17
100
AcDbEntity
  8
Graph_edges_door
100
AcDbLine
 10
8.519941958660091
 20
-5.819282185935308
 30
0.0
 11
7.125242469309403
 21
-2.695081589874841
 31
0.0
  0
LINE
  5
BE
330
17
100
AcDbEntity
  8
Graph_edges_entrance
100
AcDbLine
 10
7.125242469309403
 20
-2.695081589874841
 30
0.0
 11
11.745308864407216
 21
-1.8796168270218245
 31
0.0
  0
LINE
  5
BF
330
17
100
AcDbEntity
  8
Graph_edges_door
100
AcDbLine
 10
14.783055710707426
 20
-0.9710204110401112
 30
0.0
 11
15.277926306778788
 21
-3.9815867075655094
 31
0.0
  0
LINE
  5
C0
330
17
100
AcDbEntity
  8
Graph_edges_door
100
AcDbLine
 10
15.277926306778788
 20
-3.9815867075655094
 30
0.0
 11
12.476949696004882
 21
-6.699838739171212
 31
0.0
  0
LINE
  5
C1
330
17
100
AcDbEntity
  8
Graph_edges_door
100
AcDbLine
 10
15.277926306778788
 20
-3.9815867075655094
 30
0.0
 11
16.479151147114152
 21
-7.58534432931432
 31
0.0
  0
LINE
  5
C2
330
17
100
AcDbEntity
  8
Graph_edges_door
100
AcDbLine
 10
15.277926306778788
 20
-3.9815867075655094
 30
0.0
 11
17.925217625363317
 21
-4.7257467107364315
 31
0.0
  0
LINE
  5
C3
330
17
100
AcDbEntity
  8
Graph_edges_door
100
AcDbLine
 10
15.277926306778788
 20
-3.9815867075655094
 30
0.0
 11
18.038697488069015
 21
-2.292923952788126
 31
0.0
  0
LINE
  5
C4
330
17
100
AcDbEntity
  8
Graph_edges_entrance
100
AcDbLine
 10
15.277926306778788
 20
-3.9815867075655094
 30
0.0
 11
11.745308864407216
 21
-1.8796168270218245
 31
0.0
  0
LINE
  5
C5
330
17
100
AcDbEntity
  8
Graph_edges_door
100
AcDbLine
 10
12.476949696004882
 20
-6.699838739171212
 30
0.0
 11
11.696049607624172
 21
-9.577995102887485
 31
0.0
  0
LINE
  5
C6
330
17
100
AcDbEntity
  8
Graph_edges_door
100
AcDbLine
 10
1.3122480505166154
 20
0.7656630612594078
 30
0.0
 11
-3.332123409967911
 21
0.3085843705442712
 31
0.0
  0
LINE
  5
C7
330
17
100
AcDbEntity
  8
Graph_edges_door
100
AcDbLine
 10
-1.1591868835219798
 20
1.978327215870703
 30
0.0
 11
-3.332123409967911
 21
0.3085843705442712
 31
0.0
  0
LINE
  5
C8
330
17
100
AcDbEntity
  8
Graph_edges_door
100
AcDbLine
 10
-4.814495244615617
 20
-5.872138036611894
 30
0.0
 11
-3.8747908040472616
 21
-2.737608956058512
 31
0.0
  0
LINE
  5
C9
330
17
100
AcDbEntity
  8
Graph_edges_door
100
AcDbLine
 10
-3.8747908040472616
 20
-2.737608956058512
 30
0.0
 11
-3.332123409967911
 21
0.3085843705442712
 31
0.0
  0
LINE
  5
CA
330
17
100
AcDbEntity
  8
Graph_edges_door
100
AcDbLine
 10
-3.332123409967911
 20
0.3085843705442712
 30
0.0
 11
0.010487039401903635
 21
-3.6146565957208843
 31
0.0
  0
LINE
  5
CB
330
17
100
AcDbEntity
  8
Graph_edges_entrance
100
AcDbLine
 10
-3.332123409967911
 20
0.3085843705442712
 30
0.0
 11
-3.643637755612027
 21
4.126494671590771
 31
0.0
  0
LINE
  5
CC
330
17
100
AcDbEntity
  8
Graph_edges_door
100
AcDbLine
 10
-14.438070688291731
 20
3.2324509341271623
 30
0.0
 11
-9.685403710103657
 21
1.6997616623464369
 31
0.0
  0
LINE
  5
CD
330
17
100
AcDbEntity
  8
Graph_edges_door
100
AcDbLine
 10
-15.96806734085544
 20
0.3513191571524505
 30
0.0
 11
-9.685403710103657
 21
1.6997616623464369
 31
0.0
  0
LINE
  5
CE
330
17
100
AcDbEntity
  8
Graph_edges_door
100
AcDbLine
 10
-15.96806734085544
 20
0.3513191571524505
 30
0.0
 11
-18.651580136153626
 21
-0.04925871429068573
 31
0.0
  0
LINE
  5
CF
330
17
100
AcDbEntity
  8
Graph_edges_door
100
AcDbLine
 10
-12.063400994873389
 20
4.580715853467268
 30
0.0
 11
-9.685403710103657
 21
1.6997616623464369
 31
0.0
  0
LINE
  5
D0
330
17
100
AcDbEntity
  8
Graph_edges_door
100
AcDbLine
 10
-8.054436547386928
 20
-1.7891365650925073
 30
0.0
 11
-8.17369371958539
 21
-5.15075233053245
 31
0.0
  0
LINE
  5
D1
330
17
100
AcDbEntity
  8
Graph_edges_door
100
AcDbLine
 10
-8.054436547386928
 20
-1.7891365650925073
 30
0.0
 11
-9.685403710103657
 21
1.6997616623464369
 31
0.0
  0
LINE
  5
D2
330
17
100
AcDbEntity
  8
Graph_edges_door
100
AcDbLine
 10
-11.923002622488921
 20
-1.201245568630489
 30
0.0
 11
-9.685403710103657
 21
1.6997616623464369
 31
0.0
  0
LINE
  5
D3
330
17
100
AcDbEntity
  8
Graph_edges_door
100
AcDbLine
 10
-7.84515384843934
 20
3.8738722106991417
 30
0.0
 11
-9.685403710103657
 21
1.6997616623464369
 31
0.0
  0
LINE
  5
D4
330
17
100
AcDbEntity
  8
Graph_edges_entrance
100
AcDbLine
 10
-9.685403710103657
 20
1.6997616623464369
 30
0.0
 11
-3.643637755612027
 21
4.126494671590771
 31
0.0
  0
LINE
  5
D5
330
17
100
AcDbEntity
  8
Graph_edges_door
100
AcDbLine
 10
-9.159090108392322
 20
6.757781090848487
 30
0.0
 11
-4.404983711856447
 21
6.549772377411246
 31
0.0
  0
LINE
  5
D6
330
17
100
AcDbEntity
  8
Graph_edges_door
100
AcDbLine
 10
-9.159090108392322
 20
6.757781090848487
 30
0.0
 11
-11.492324677243566
 21
8.878274629302814
 31
0.0
  0
LINE
  5
D7
330
17
100
AcDbEntity
  8
Graph_edges_door
100
AcDbLine
 10
-1.3258871062378255
 20
6.989500243587682
 30
0.0
 11
-4.404983711856447
 21
6.549772377411246
 31
0.0
  0
LINE
  5
D8
330
17
100
AcDbEntity
  8
Graph_edges_door
100
AcDbLine
 10
-4.404983711856447
 20
6.549772377411246
 30
0.0
 11
-0.5459405229813246
 21
8.544188098224236
 31
0.0
  0
LINE
  5
D9
330
17
100
AcDbEntity
  8
Graph_edges_door
100
AcDbLine
 10
-4.404983711856447
 20
6.549772377411246
 30
0.0
 11
-3.617734744885
 21
11.286944410175629
 31
0.0
  0
LINE
  5
DA
330
17
100
AcDbEntity
  8
Graph_edges_door
100
AcDbLine
 10
-4.404983711856447
 20
6.549772377411246
 30
0.0
 11
-6.396229476367817
 21
9.025590307391164
 31
0.0
  0
LINE
  5
DB
330
17
100
AcDbEntity
  8
Graph_edges_entrance
100
AcDbLine
 10
-4.404983711856447
 20
6.549772377411246
 30
0.0
 11
-3.643637755612027
 21
4.126494671590771
 31
0.0
  0
LINE
  5
DC
330
17
100
AcDbEntity
  8
Graph_edges_entrance
100
AcDbLine
 10
13.478654674267029
 20
-2.7882898450069913
 30
0.0
 11
11.745308864407216
 21
-1.8796168270218245
 31
0.0
  0
LINE
  5
DD
330
17
100
AcDbEntity
  8
Graph_edges_entrance
100
AcDbLine
 10
-3.140912359357861
 20
1.7056214509920895
 30
0.0
 11
-3.643637755612027
 21
4.126494671590771
 31
0.0
  0
ENDSEC
  0
SECTION
  2
OBJECTS
  0
DICTIONARY
  5
A
330
0
100
AcDbDictionary
281
1
  3
ACAD_COLOR
350
B
  3
ACAD_GROUP
350
C
  3
ACAD_LAYOUT
350
D
  3
ACAD_MATERIAL
350
E
  3
ACAD_MLEADERSTYLE
350
F
  3
ACAD_MLINESTYLE
350
10
  3
ACAD_PLOTSETTINGS
350
11
  3
ACAD_PLOTSTYLENAME
350
12
  3
ACAD_SCALELIST
350
14
  3
ACAD_TABLESTYLE
350
15
  3
ACAD_VISUALSTYLE
350
16
  3
EZDXF_META
350
2D
  0
DICTIONARY
  5
B
330
A
100
AcDbDictionary
281
1
  0
DICTIONARY
  5
C
330
A
100
AcDbDictionary
281
1
  0
DICTIONARY
  5
D
330
A
100
AcDbDictionary
281
1
  3
Model
350
1A
  3
Layout1
350
1E
  0
DICTIONARY
  5
E
330
A
100
AcDbDictionary
281
1
  3
ByBlock
350
1F
  3
ByLayer
350
20
  3
Global
350
21
  0
DICTIONARY
  5
F
330
A
100
AcDbDictionary
281
1
  3
Standard
350
2C
  0
DICTIONARY
  5
10
330
A
100
AcDbDictionary
281
1
  3
Standard
350
22
  0
DICTIONARY
  5
11
330
A
100
AcDbDictionary
281
1
  0
ACDBDICTIONARYWDFLT
  5
12
330
A
100
AcDbDictionary
281
1
  3
Normal
350
13
100
AcDbDictionaryWithDefault
340
13
  0
ACDBPLACEHOLDER
  5
13
330
12
  0
DICTIONARY
  5
14
330
A
100
AcDbDictionary
281
1
  0
DICTIONARY
  5
15
330
A
100
AcDbDictionary
281
1
  0
DICTIONARY
  5
16
330
A
100
AcDbDictionary
281
1
  0
LAYOUT
  5
1A
330
D
100
AcDbPlotSettings
  1

  4
A3
  6

 40
7.5
 41
20.0
 42
7.5
 43
20.0
 44
420.0
 45
297.0
 46
0.0
 47
0.0
 48
0.0
 49
0.0
140
0.0
141
0.0
142
1.0
143
1.0
 70
1024
 72
1
 73
0
 74
5
  7

 75
16
 76
0
 77
2
 78
300
147
1.0
148
0.0
149
0.0
100
AcDbLayout
  1
Model
 70
1
 71
0
 10
0.0
 20
0.0
 11
420.0
 21
297.0
 12
0.0
 22
0.0
 32
0.0
 14
1e+20
 24
1e+20
 34
1e+20
 15
-1e+20
 25
-1e+20
 35
-1e+20
146
0.0
 13
0.0
 23
0.0
 33
0.0
 16
1.0
 26
0.0
 36
0.0
 17
0.0
 27
1.0
 37
0.0
 76
1
330
17
  0
LAYOUT
  5
1E
330
D
100
AcDbPlotSettings
  1

  4
A3
  6

 40
7.5
 41
20.0
 42
7.5
 43
20.0
 44
420.0
 45
297.0
 46
0.0
 47
0.0
 48
0.0
 49
0.0
140
0.0
141
0.0
142
1.0
143
1.0
 70
0
 72
1
 73
0
 74
5
  7

 75
16
 76
0
 77
2
 78
300
147
1.0
148
0.0
149
0.0
100
AcDbLayout
  1
Layout1
 70
1
 71
1
 10
0.0
 20
0.0
 11
420.0
 21
297.0
 12
0.0
 22
0.0
 32
0.0
 14
1e+20
 24
1e+20
 34
1e+20
 15
-1e+20
 25
-1e+20
 35
-1e+20
146
0.0
 13
0.0
 23
0.0
 33
0.0
 16
1.0
 26
0.0
 36
0.0
 17
0.0
 27
1.0
 37
0.0
 76
1
330
1B
  0
MATERIAL
  5
1F
102
{ACAD_REACTORS
330
E
102
}
330
E
100
AcDbMaterial
  1
ByBlock
  2

 70
0
 40
1.0
 71
1
 41
1.0
 91
-1023410177
 42
1.0
 72
1
  3

 73
1
 74
1
 75
1
 44
0.5
 73
0
 45
1.0
 46
1.0
 77
1
  4

 78
1
 79
1
170
1
 48
1.0
171
1
  6

172
1
173
1
174
1
140
1.0
141
1.0
175
1
  7

176
1
177
1
178
1
143
1.0
179
1
  8

270
1
271
1
272
1
145
1.0
146
1.0
273
1
  9

274
1
275
1
276
1
 42
1.0
 72
1
  3

 73
1
 74
1
 75
1
 94
63
  0
MATERIAL
  5
20
102
{ACAD_REACTORS
330
E
102
}
330
E
100
AcDbMaterial
  1
ByLayer
  2

 70
0
 40
1.0
 71
1
 41
1.0
 91
-1023410177
 42
1.0
 72
1
  3

 73
1
 74
1
 75
1
 44
0.5
 73
0
 45
1.0
 46
1.0
 77
1
  4

 78
1
 79
1
170
1
 48
1.0
171
1
  6

172
1
173
1
174
1
140
1.0
141
1.0
175
1
  7

176
1
177
1
178
1
143
1.0
179
1
  8

270
1
271
1
272
1
145
1.0
146
1.0
273
1
  9

274
1
275
1
276
1
 42
1.0
 72
1
  3

 73
1
 74
1
 75
1
 94
63
  0
MATERIAL
  5
21
102
{ACAD_REACTORS
330
E
102
}
330
E
100
AcDbMaterial
  1
Global
  2

 70
0
 40
1.0
 71
1
 41
1.0
 91
-1023410177
 42
1.0
 72
1
  3

 73
1
 74
1
 75
1
 44
0.5
 73
0
 45
1.0
 46
1.0
 77
1
  4

 78
1
 79
1
170
1
 48
1.0
171
1
  6

172
1
173
1
174
1
140
1.0
141
1.0
175
1
  7

176
1
177
1
178
1
143
1.0
179
1
  8

270
1
271
1
272
1
145
1.0
146
1.0
273
1
  9

274
1
275
1
276
1
 42
1.0
 72
1
  3

 73
1
 74
1
 75
1
 94
63
  0
MLINESTYLE
  5
22
102
{ACAD_REACTORS
330
10
102
}
330
10
100
AcDbMlineStyle
  2
Standard
 70
0
  3

 62
256
 51
90.0
 52
90.0
 71
2
 49
0.5
 62
256
  6
BYLAYER
 49
-0.5
 62
256
  6
BYLAYER
  0
MLEADERSTYLE
  5
2C
102
{ACAD_REACTORS
330
F
102
}
330
F
100
AcDbMLeaderStyle
179
2
170
2
171
1
172
0
 90
2
 40
0.0
 41
0.0
173
1
 91
-1056964608
 92
-2
290
1
 42
2.0
291
1
 43
8.0
  3
Standard
 44
4.0
300

342
29
174
1
175
1
176
0
178
1
 93
-1056964608
 45
4.0
292
0
297
0
 46
4.0
 94
-1056964608
 47
1.0
 49
1.0
140
1.0
294
1
141
0.0
177
0
142
1.0
295
0
296
0
143
3.75
271
0
272
9
273
9
  0
DICTIONARY
  5
2D
330
A
100
AcDbDictionary
280
1
281
1
  3
CREATED_BY_EZDXF
350
2E
  3
WRITTEN_BY_EZDXF
350
E0
  0
DICTIONARYVAR
  5
2E
330
2D
100
DictionaryVariables
280
0
  1
1.4.4 @ 2026-06-20T16:10:26.035839+00:00
  0
DICTIONARYVAR
  5
E0
330
2D
100
DictionaryVariables
280
0
  1
1.4.4 @ 2026-06-20T16:10:26.041838+00:00
  0
ENDSEC
  0
EOF
